<?xml version="1.0" encoding="UTF-8"?>
<svg width="100px" height="100px" viewBox="0 0 100 100" version="1.1" xmlns="http://www.w3.org/2000/svg" xmlns:xlink="http://www.w3.org/1999/xlink">
    <!-- Generator: Sketch 59.1 (86144) - https://sketch.com -->
    <title>Vector Files/100x100/Flattened/00_Placeholder</title>
    <desc>Created with Sketch.</desc>
    <g id="100x100/Flattened/00_Placeholder" stroke="none" stroke-width="1" fill="none" fill-rule="evenodd">
        <path d="M76,14 C81.5228475,14 86,18.4771525 86,24 L86,76 C86,81.5228475 81.5228475,86 76,86 L24,86 C18.4771525,86 14,81.5228475 14,76 L14,24 C14,18.4771525 18.4771525,14 24,14 L76,14 Z M73.1111111,18 L26.8888889,18 C21.9796911,18 18,21.9796911 18,26.8888889 L18,26.8888889 L18,73.1111111 C18,78.0203089 21.9796911,82 26.8888889,82 L26.8888889,82 L73.1111111,82 C78.0203089,82 82,78.0203089 82,73.1111111 L82,73.1111111 L82,26.8888889 C82,21.9796911 78.0203089,18 73.1111111,18 L73.1111111,18 Z" id="Shape" fill="#2F313A" fill-rule="nonzero"></path>
    </g>
</svg>