<?xml version="1.0" encoding="UTF-8"?>
<svg width="40px" height="40px" viewBox="0 0 40 40" version="1.1" xmlns="http://www.w3.org/2000/svg" xmlns:xlink="http://www.w3.org/1999/xlink">
    <!-- Generator: Sketch 59.1 (86144) - https://sketch.com -->
    <title>Vector Files/40x40/Flattened/00_Placeholder</title>
    <desc>Created with Sketch.</desc>
    <g id="40x40/Flattened/00_Placeholder" stroke="none" stroke-width="1" fill="none" fill-rule="evenodd">
        <path d="M31.5555556,4 C34.0101544,4 36,5.98984556 36,8.44444444 L36,31.5555556 C36,34.0101544 34.0101544,36 31.5555556,36 L8.44444444,36 C5.98984556,36 4,34.0101544 4,31.5555556 L4,8.44444444 C4,5.98984556 5.98984556,4 8.44444444,4 L31.5555556,4 Z M29.3888889,7 L10.6111111,7 C8.61674951,7 7,8.61674951 7,10.6111111 L7,10.6111111 L7,29.3888889 C7,31.3832505 8.61674951,33 10.6111111,33 L10.6111111,33 L29.3888889,33 C31.3832505,33 33,31.3832505 33,29.3888889 L33,29.3888889 L33,10.6111111 C33,8.61674951 31.3832505,7 29.3888889,7 L29.3888889,7 Z" id="Shape" fill="#2F313A" fill-rule="nonzero"></path>
    </g>
</svg>