<?xml version="1.0" encoding="UTF-8"?>
<svg width="24px" height="24px" viewBox="0 0 24 24" version="1.1" xmlns="http://www.w3.org/2000/svg" xmlns:xlink="http://www.w3.org/1999/xlink">
    <!-- Generator: Sketch 59.1 (86144) - https://sketch.com -->
    <title>Vector Files/24x24/Flattened/00_Placeholder</title>
    <desc>Created with Sketch.</desc>
    <g id="24x24/Flattened/00_Placeholder" stroke="none" stroke-width="1" fill="none" fill-rule="evenodd">
        <path d="M17.7777778,4 C19.0050772,4 20,4.99492278 20,6.22222222 L20,17.7777778 C20,19.0050772 19.0050772,20 17.7777778,20 L6.22222222,20 C4.99492278,20 4,19.0050772 4,17.7777778 L4,6.22222222 C4,4.99492278 4.99492278,4 6.22222222,4 L17.7777778,4 Z M16.3333333,6 L7.66666667,6 C6.74619208,6 6,6.74619208 6,7.66666667 L6,7.66666667 L6,16.3333333 C6,17.2538079 6.74619208,18 7.66666667,18 L7.66666667,18 L16.3333333,18 C17.2538079,18 18,17.2538079 18,16.3333333 L18,16.3333333 L18,7.66666667 C18,6.74619208 17.2538079,6 16.3333333,6 L16.3333333,6 Z" id="Shape" fill="#2F313A" fill-rule="nonzero"></path>
    </g>
</svg>