<?xml version="1.0" encoding="UTF-8"?>
<svg width="100px" height="100px" viewBox="0 0 100 100" version="1.1" xmlns="http://www.w3.org/2000/svg" xmlns:xlink="http://www.w3.org/1999/xlink">
    <!-- Generator: Sketch 59.1 (86144) - https://sketch.com -->
    <title>Vector Files/100x100/Flattened/Subcategories/Beef</title>
    <desc>Created with Sketch.</desc>
    <g id="100x100/Flattened/Subcategories/Beef" stroke="none" stroke-width="1" fill="none" fill-rule="evenodd">
        <path d="M30.5,62.9497137 C32.9882168,59.351957 37.0994475,57 41.7528052,57 L58.2482149,57 C62.9012854,57 67.0120163,59.3517062 69.5,62.9492122 L69.5,42.631825 C68.0447857,40.5603312 66.905041,38.3773696 66.3038589,36.3392088 C66.0694864,35.5446265 66.5236263,34.7104939 67.3182086,34.4761214 C68.1127909,34.241749 68.9469235,34.6958888 69.181296,35.4904712 C70.0599449,38.4693152 72.4338981,42.0145128 75.2072329,44.7507725 C76.4135832,45.9409959 77.5716201,46.8417121 78.4238029,47.2742277 C78.4806632,47.3030865 78.5343673,47.3289 78.5845201,47.3518245 C82.6737167,35.6666521 80.1346921,29.4680539 73.4426937,26.7900268 C71.9848767,26.2066325 70.4094944,25.8373692 68.8098591,25.645632 C67.746723,25.5182013 66.835751,25.4854079 66.1697046,25.5040985 C66.1197561,25.5055001 66.0836025,25.5069809 66.0796543,25.5072611 C65.252396,25.5512529 64.5461083,24.91629 64.5021164,24.0890317 C64.4581246,23.2617735 65.0930875,22.5554857 65.9203457,22.5114939 C65.960483,22.5094297 66.0101863,22.5073939 66.0855519,22.505279 C66.7359601,22.4870273 67.5499756,22.5083209 68.4820197,22.5942678 C68.2849158,20.3707838 66.4954262,18.5 64.5071789,18.5 L35.4928211,18.5 C33.4138069,18.5 31.6235035,20.3469819 31.5061189,22.5953687 C32.4431209,22.5085028 33.2612855,22.4869495 33.9144517,22.505279 C33.9898163,22.5073939 34.0395187,22.5094297 34.079656,22.511494 C34.9069142,22.5554868 35.5418763,23.2617753 35.4978835,24.0890335 C35.4538907,24.9162917 34.7476022,25.5512538 33.920344,25.507261 C33.9163967,25.5069809 33.8802441,25.5055001 33.8302972,25.5040985 C33.1642551,25.4854076 32.2532864,25.5182023 31.1901529,25.6456375 C29.5905195,25.8373815 28.0151389,26.2066576 26.5573232,26.790072 C19.8561642,29.4718598 17.3193411,35.6840128 21.4138219,47.352708 C21.464563,47.329553 21.518955,47.3034335 21.5765873,47.2741872 C22.4288894,46.841675 23.5869923,45.9409745 24.7933595,44.7507608 C25.7837901,43.7735924 26.7232538,42.693249 27.5618357,41.5723745 C27.6591614,41.2445602 27.8655145,40.9636441 28.1388645,40.7716565 C29.3712814,38.9943799 30.3281555,37.1541952 30.818612,35.490652 C31.0528846,34.6960403 31.8869601,34.2417956 32.6815719,34.4760681 C33.4761836,34.7103406 33.9304283,35.5444162 33.6961558,36.339028 C33.0951612,38.3774971 31.9553845,40.5607918 30.5,42.6325442 L30.5,62.9497137 L30.5,62.9497137 Z M30.5,67.5260137 L30.5,71.5319513 C30.5,77.5814492 35.5310385,82.5 41.7528052,82.5 L58.2482149,82.5 C64.4697508,82.5 69.5,77.5816775 69.5,71.5319513 L69.5,67.5256911 C68.0405251,62.5903308 63.5523055,59 58.2482149,59 L41.7528052,59 C36.4484483,59 31.959601,62.5905967 30.5,67.5260137 Z M79.8630471,27.4647627 C84.0269755,31.8023232 84.8661131,38.9049835 81.1435659,49.1012222 C80.4522297,50.8038075 78.7972455,50.828041 77.066053,49.9493941 C75.8980891,49.3566074 74.5086572,48.2759131 73.100235,46.8863193 C72.8981173,46.6869035 72.697933,46.4837121 72.5,46.27711 L72.5,71.5319513 C72.5,79.2538287 66.1116841,85.5 58.2482149,85.5 L41.7528052,85.5 C33.8891776,85.5 27.5,79.2536765 27.5,71.5319513 L27.5,46.2777252 C27.3022533,46.4841197 27.1022589,46.6871096 26.9003337,46.886331 C25.4918593,48.2759455 24.1023124,49.3566489 22.9341777,49.9494346 C21.2029822,50.827953 19.5481431,50.8037289 18.836846,49.0511859 C15.1290597,38.8924282 15.9719289,31.7992529 20.1366936,27.4640695 C18.9380333,26.3575608 18.0789379,24.7033243 17.4621354,22.6476059 C17.0939075,21.4203528 16.836748,20.1206233 16.6684236,18.823146 C16.5673962,18.044407 16.5177927,17.4325625 16.5014881,17.0667991 C16.4553845,16.0325502 17.4460574,15.2636406 18.4365246,15.5649229 C18.6994194,15.6448908 18.9662174,15.7225686 19.2367343,15.797979 C21.5964842,16.4557931 24.1397471,16.9182444 26.6852327,17.2166097 C27.5775717,17.3212039 28.4054599,17.3976672 29.1467333,17.4503393 C29.5869007,17.4816159 29.8968706,17.4979182 30.0546209,17.5036663 C30.2481171,17.5107169 30.4317144,17.5541177 30.5990848,17.6270617 C31.8610661,16.3199218 33.589081,15.5 35.4928211,15.5 L64.5071789,15.5 C66.3797905,15.5 68.0878884,16.3347407 69.3471304,17.6517849 C69.5286468,17.5639411 69.730936,17.5114796 69.9453835,17.5036661 C70.1030985,17.4979198 70.4129991,17.4816231 70.853068,17.4503581 C71.5941758,17.3977054 72.421879,17.3212714 73.3140186,17.2167185 C75.8589345,16.9184712 78.401628,16.4562094 80.7608481,15.7986712 C81.0321836,15.7230472 81.2997766,15.6451423 81.5634408,15.5649334 C82.5539176,15.2636222 83.5446199,16.0325383 83.4985116,17.0668045 C83.482206,17.4325604 83.4326053,18.044397 83.3315888,18.8231274 C83.1632826,20.1205914 82.9061593,21.4203071 82.5379913,22.6475461 C81.9211422,24.7037304 81.0619452,26.3582427 79.8630471,27.4647627 Z M77.5027675,25.5203281 C78.3734546,24.9078964 79.1190661,23.6036751 79.66451,21.7855104 C79.9267279,20.9114419 80.1272546,19.9752248 80.2729953,19.027069 C78.1323264,19.5525454 75.8970003,19.9345413 73.6632091,20.1963269 C72.7238263,20.3064164 71.8508304,20.3870329 71.0656696,20.4428153 L71.0591697,20.4432767 C71.3440324,21.2498985 71.5,22.1133249 71.5,23 C71.5,23.0215968 71.4995436,23.0430871 71.4986399,23.0644616 C72.541623,23.2983265 73.5666349,23.6083227 74.5573063,24.004773 C75.6256355,24.4323006 76.6094977,24.9369434 77.5027675,25.5203281 L77.5027675,25.5203281 Z M22.4975115,25.5201172 C23.3907318,24.9369086 24.3744813,24.432321 25.4426768,24.0048317 C26.4385086,23.6063022 27.4690398,23.2951325 28.5176437,23.0608376 C28.5060271,22.9856101 28.5,22.9085372 28.5,22.8300566 C28.5,21.9984322 28.6379897,21.1931531 28.8916812,20.4397621 C28.1173634,20.3840836 27.2586916,20.304365 26.3359831,20.1962111 C24.1024921,19.9344158 21.8674672,19.5524438 19.7270195,19.0270395 C19.8727749,19.9751855 20.0733263,20.9113926 20.3355807,21.7854506 C20.8810605,23.6034602 21.6267132,24.9076019 22.4975115,25.5201172 L22.4975115,25.5201172 Z M44,71.5 C44,70.6716007 43.3283993,70 42.5,70 C41.6716007,70 41,70.6716007 41,71.5 C41,72.3283993 41.6716007,73 42.5,73 C43.3283993,73 44,72.3283993 44,71.5 Z M46,71.5 C46,73.4329688 44.4329688,75 42.5,75 C40.5670312,75 39,73.4329688 39,71.5 C39,69.5670312 40.5670312,68 42.5,68 C44.4329688,68 46,69.5670312 46,71.5 Z M59,71.5 C59,70.6716007 58.3283993,70 57.5,70 C56.6710248,70 56,70.671205 56,71.5 C56,72.328795 56.6710248,73 57.5,73 C58.3283993,73 59,72.3283993 59,71.5 Z M61,71.5 C61,73.4329688 59.4329688,75 57.5,75 C55.5663351,75 54,73.4332443 54,71.5 C54,69.5667557 55.5663351,68 57.5,68 C59.4329688,68 61,69.5670312 61,71.5 Z M40.2120369,25.2025 C39.6597522,25.2025 39.2120369,24.7547847 39.2120369,24.2025 C39.2120369,23.6502153 39.6597522,23.2025 40.2120369,23.2025 L50.0581908,23.2025 C50.6104755,23.2025 51.0581908,23.6502153 51.0581908,24.2025 C51.0581908,24.7547847 50.6104755,25.2025 50.0581908,25.2025 L40.2120369,25.2025 Z M53.9966523,25.2025 C53.4443676,25.2025 52.9966523,24.7547847 52.9966523,24.2025 C52.9966523,23.6502153 53.4443676,23.2025 53.9966523,23.2025 L57.9351138,23.2025 C58.4873986,23.2025 58.9351138,23.6502153 58.9351138,24.2025 C58.9351138,24.7547847 58.4873986,25.2025 57.9351138,25.2025 L53.9966523,25.2025 Z M45,49.5 C45,50.881 43.881,52 42.5,52 C41.119,52 40,50.881 40,49.5 C40,48.12 41.119,47 42.5,47 C43.881,47 45,48.12 45,49.5 Z M60,49.5 C60,50.881 58.881,52 57.5,52 C56.119,52 55,50.881 55,49.5 C55,48.12 56.119,47 57.5,47 C58.881,47 60,48.12 60,49.5 Z" id="Beef" fill="#2F313A" fill-rule="nonzero"></path>
    </g>
</svg>