<?xml version="1.0" encoding="UTF-8"?>
<svg width="100px" height="100px" viewBox="0 0 100 100" version="1.1" xmlns="http://www.w3.org/2000/svg" xmlns:xlink="http://www.w3.org/1999/xlink">
    <!-- Generator: Sketch 59.1 (86144) - https://sketch.com -->
    <title>Vector Files/100x100/Flattened/Subcategories/Cauliflower</title>
    <desc>Created with Sketch.</desc>
    <g id="100x100/Flattened/Subcategories/Cauliflower" stroke="none" stroke-width="1" fill="none" fill-rule="evenodd">
        <path d="M54.6126538,53.3962494 C52.9629324,52.828115 51.4618466,51.8929721 50.2182055,50.6598753 C48.9740449,51.8929645 47.4730926,52.8280229 45.823692,53.3961374 C46.2832466,54.3446752 46.6124446,55.5316753 46.8590469,56.9239623 C47.0562135,58.0371415 47.1814991,59.2171595 47.2507941,60.3963129 C47.2926335,61.1082707 47.3066088,61.6705944 47.3064005,62.0111845 L47.3063994,62.0124285 C47.3047087,63.3994154 45.583072,64.0413289 44.67375,62.9940138 C43.9189409,62.1246595 42.510019,61.1317858 40.6628096,60.1216338 C39.5467394,59.5113076 38.343627,58.9328285 37.1396421,58.4069326 C36.8315397,58.2723548 36.5397509,58.1484359 36.2683719,58.0360934 C35.0470279,58.7802512 33.6641075,59.2041621 32.2431077,59.2805101 C32.1990896,60.1016013 32.0388312,60.9101418 31.7676287,61.6822712 C32.0569524,61.7185282 32.3569297,61.7639532 32.6663448,61.81962 C34.5594733,62.1602124 36.4303632,62.8270965 38.1854278,63.8995107 C42.7059365,66.6617208 45.7532927,71.6462821 46.679265,79.2033689 C46.7800189,80.0256463 46.1951085,80.7739111 45.3728311,80.874665 C44.5505537,80.9754189 43.8022889,80.3905085 43.701535,79.5682311 C42.883974,72.8959147 40.3371008,68.7299937 36.621211,66.4594375 C35.2031005,65.5929158 33.680844,65.0503031 32.1351437,64.7722164 C31.3473824,64.6304905 30.6435188,64.5709849 30.0637281,64.565038 C29.9559667,64.685592 29.8443983,64.803622 29.7290602,64.9189602 C26.6390175,68.0090029 21.7839875,68.2723784 18.3892215,65.6888322 C15.3266568,66.7136748 11.8860264,65.9613234 9.53373983,63.6079602 C6.15592172,60.2301421 6.15592172,54.7542481 9.53313148,51.3782485 C10.1105581,50.800159 10.7576685,50.3136048 11.456284,49.9260021 C10.0063877,46.7203193 10.6249784,42.8494012 13.2189484,40.2554313 C15.8131195,37.6622799 19.683732,37.0431745 22.8893925,38.492787 C23.2638048,37.8174639 23.7308952,37.1897794 24.283927,36.6260255 C23.9221519,35.4936657 23.7356,34.3045093 23.7356,33.0909 C23.7356,26.6642954 28.9453504,21.4549 35.3726,21.4549 C36.673854,21.4549 37.9459088,21.6692914 39.1471989,22.0811607 C40.6586006,17.3554921 45.0784241,13.9999 50.2186,13.9999 C55.3580511,13.9999 59.7776793,17.3556348 61.2890216,22.0812264 C62.490402,21.6692203 63.7618691,21.4549 65.0636,21.4549 C71.4900271,21.4549 76.6996,26.6644729 76.6996,33.0909 C76.6996,34.3164072 76.5081314,35.5052139 76.1502882,36.6253461 C76.7039807,37.188834 77.171909,37.8169013 77.5469459,38.492823 C80.752644,37.042958 84.6228133,37.6623929 87.2169602,40.2565398 C89.8103299,42.8499096 90.4295025,46.7206392 88.9797142,49.9258037 C89.6786355,50.3133779 90.3258534,50.7997704 90.9027702,51.3773499 C94.2808099,54.7541797 94.2808099,60.2312203 90.9029602,63.6078602 C88.5490265,65.9617938 85.1092945,66.7138354 82.0473689,65.6888156 C78.6526484,68.2722399 73.7977423,68.0088407 70.7066398,64.9188602 C70.5913324,64.8035527 70.4797927,64.6855549 70.372058,64.5650343 C69.7921986,64.5709619 69.0881988,64.6304723 68.3002612,64.77225 C66.754537,65.0503803 65.2322541,65.5930755 63.814114,66.4597303 C60.0985689,68.7303768 57.5517625,72.8962688 56.7338547,79.5683146 C56.6330547,80.3905864 55.8847571,80.9754548 55.0624854,80.8746547 C54.2402136,80.7738547 53.6553452,80.0255571 53.7561453,79.2032854 C54.6824984,71.6466016 57.7297076,66.6621848 62.2497461,63.8998957 C64.004857,62.8273111 65.8758021,62.1603175 67.7689875,61.8196667 C68.0785431,61.7639668 68.3786525,61.7185189 68.6680982,61.6822479 C68.3968753,60.9100835 68.2366069,60.1015037 68.1925902,59.2803723 C66.7723213,59.2039431 65.3897267,58.7801341 64.1679285,58.0361346 C63.8965778,58.1484662 63.6048226,58.2723712 63.2967579,58.4069326 C62.092773,58.9328285 60.8896606,59.5113076 59.7735904,60.1216338 C57.926381,61.1317858 56.5174591,62.1246595 55.76265,62.9940138 C54.853328,64.0413289 53.1316913,63.3994154 53.1300006,62.0124285 L53.1299995,62.0111845 C53.1297912,61.6705944 53.1437665,61.1082707 53.1856059,60.3963129 C53.2549009,59.2171595 53.3801865,58.0371415 53.5773531,56.9239623 C53.8239457,55.5317301 54.1531275,54.3447687 54.6126538,53.3962494 L54.6126538,53.3962494 Z M57.78119,54.0110066 C57.3325202,54.4402523 56.8442364,55.6808002 56.5313747,57.4471795 C56.4614082,57.8422023 56.4012612,58.2505474 56.3502489,58.6670603 C56.9544698,58.2735383 57.6175869,57.881377 58.334198,57.489496 C59.4223578,56.8944326 60.5748876,56.3334773 61.732859,55.8178664 C61.2714874,55.1992277 60.8979882,54.5255781 60.6191058,53.8135923 C59.8980352,53.9535871 59.1532961,54.0269 58.3916,54.0269 C58.1871854,54.0269 57.983663,54.0215689 57.78119,54.0110066 L57.78119,54.0110066 Z M65.1903168,55.1015742 C65.2370318,55.1329956 65.2820693,55.167098 65.3251695,55.2037652 C66.5335141,56.0911486 68.043399,56.4557243 69.5369581,56.2256819 C70.5391598,56.0713198 71.4025812,56.935189 71.2476995,57.9373105 C71.0189593,59.417314 71.375495,60.9140652 72.2471715,62.1169949 C72.2855989,62.1624228 72.3213364,62.2101185 72.3541676,62.2598216 C72.4991937,62.4471433 72.6571541,62.6267338 72.8277676,62.7973473 C75.0002924,64.9690835 78.5081249,65.0021327 80.7247109,62.87896 C81.1719034,62.4506135 81.8363521,62.341096 82.3973588,62.6032665 C84.5360718,63.602733 87.0892477,63.178932 88.7818298,61.4863499 C90.9877901,59.2811797 90.9877901,55.7042203 88.7810315,53.4982515 C88.1078195,52.8242666 87.2930478,52.3426736 86.3991033,52.0770814 C85.3986593,51.7798481 84.9999957,50.577163 85.6248078,49.741193 C87.2939655,47.5079366 87.083998,44.3662184 85.0956398,42.3778602 C83.106344,40.3885643 79.9655144,40.1784201 77.7311012,41.847846 C76.8946872,42.4727667 75.6915833,42.073294 75.3950634,41.0721994 C75.2399438,40.5484928 75.0096091,40.0512386 74.7090337,39.5932316 C73.5376013,41.325608 71.9032013,42.7368812 69.9525802,43.6400705 C69.5181178,47.711786 66.989428,51.1490508 63.4702897,52.861341 C63.7492762,53.5198816 64.1545968,54.1246168 64.6746436,54.6452234 C64.8386139,54.8090958 65.0108727,54.9612958 65.1903168,55.1015742 Z M42.6551994,54.0109965 C42.4526655,54.0215656 42.2490801,54.0269 42.0446,54.0269 C41.2899855,54.0269 40.545144,53.9550115 39.8168396,53.8137139 C39.5412185,54.5173729 39.1698882,55.192021 38.7029713,55.8176127 C39.8611344,56.3332933 41.0138638,56.894335 42.102202,57.489496 C42.8188131,57.881377 43.4819302,58.2735383 44.0861511,58.6670603 C44.0351388,58.2505474 43.9749918,57.8422023 43.9050253,57.4471795 C43.5921612,55.6807864 43.1038722,54.4402328 42.6551994,54.0109965 L42.6551994,54.0109965 Z M35.2387575,55.106533 C35.4201532,54.9650016 35.5941939,54.8112846 35.7597398,54.6456398 C37.9317465,52.4736332 37.9648014,48.9649552 35.8421519,46.7488806 C35.2691119,46.1506192 35.289558,45.2010919 35.8878194,44.6280519 C36.4860808,44.0550119 37.4356081,44.075458 38.0086481,44.6737194 C39.6653441,46.4033322 40.464404,48.6473985 40.4090842,50.8726497 C40.9431546,50.9748919 41.489675,51.0269 42.0446,51.0269 C44.8286413,51.0269 47.3861021,49.6957259 49.0086412,47.4813337 C49.6081371,46.66316 50.8299442,46.6634758 51.429017,47.4819594 C53.0491039,49.6954042 55.6071827,51.0269 58.3916,51.0269 C63.0880227,51.0269 66.9162101,47.2697312 67.0169457,42.5786963 C67.0302419,41.9595239 67.4226982,41.4121798 68.0048573,41.2008931 C71.3974528,39.9695969 73.6996,36.7504804 73.6996,33.0909 C73.6996,28.3213271 69.8331729,24.4549 65.0636,24.4549 C63.6052813,24.4549 62.2042257,24.8150724 60.9532378,25.4941801 C60.0357048,25.9922695 58.902634,25.4240288 58.7530718,24.3907858 C58.1420207,20.1693698 54.519042,16.9999 50.2186,16.9999 C45.917287,16.9999 42.2941975,20.1692439 41.6831282,24.3907858 C41.5335394,25.4242129 40.4001277,25.9924173 39.4825768,25.4939709 C38.2335071,24.8154316 36.8306208,24.4549 35.3726,24.4549 C30.6021589,24.4549 26.7356,28.3211954 26.7356,33.0909 C26.7356,33.6706646 26.7926203,34.2416269 26.9043913,34.7980607 C29.5657673,33.6007515 32.7285596,33.8031176 35.2499687,35.4855703 C35.9390707,35.9453853 36.1249447,36.8767666 35.6651297,37.5658687 C35.2053147,38.2549707 34.2739334,38.4408447 33.5848313,37.9810297 C31.3639497,36.499109 28.3744714,36.7783293 26.4616685,38.6903515 C25.7869766,39.365818 25.3058481,40.1802826 25.0416366,41.0722994 C24.7451167,42.073394 23.5420128,42.4728667 22.7055988,41.847946 C20.4712671,40.178581 17.3292665,40.3885358 15.3400602,42.3769602 C13.3514687,44.3655517 13.1419869,47.5073064 14.811098,49.7415685 C15.4356312,50.5775648 15.0369009,51.7799896 14.0365967,52.0771814 C13.1432727,52.3425893 12.3292984,52.8239482 11.6548702,53.4991501 C9.44887828,55.7043519 9.44887828,59.2804579 11.6553028,61.4868825 C13.346092,63.1784455 15.9003047,63.6026067 18.039538,62.6032745 C18.6005108,62.3412189 19.264854,62.4507684 19.7119891,62.87906 C21.9285434,65.0022024 25.4362274,64.9691523 27.6077398,62.7976398 C27.7775326,62.6278471 27.9347941,62.4491695 28.0792477,62.262834 C28.1132848,62.2110361 28.1504729,62.1614056 28.1905681,62.1142359 C29.0607915,60.9117017 29.4165524,59.416196 29.1880005,57.9374105 C29.0331254,56.9353319 29.89647,56.0714799 30.8986394,56.2257661 C32.3958731,56.4562685 33.9085175,56.0899034 35.1168778,55.1989848 C35.1559942,55.1660386 35.1966848,55.1351927 35.2387575,55.106533 L35.2387575,55.106533 Z M43.936,83.5658 C43.936,82.7373729 44.6075729,82.0658 45.436,82.0658 C46.2644271,82.0658 46.936,82.7373729 46.936,83.5658 L46.936,85.5658 C46.936,86.3942271 46.2644271,87.0658 45.436,87.0658 C44.6075729,87.0658 43.936,86.3942271 43.936,85.5658 L43.936,83.5658 Z M58.4135,42.3973 C58.4135,42.9963 57.9285,43.4813 57.3295,43.4813 C56.7295,43.4813 56.2445,42.9963 56.2445,42.3973 C56.2445,41.7983 56.7295,41.3133 57.3295,41.3133 C57.9285,41.3133 58.4135,41.7983 58.4135,42.3973 Z M62.7504,44.5658 C62.7504,45.1648 62.2654,45.6498 61.6664,45.6498 C61.0674,45.6498 60.5814,45.1648 60.5814,44.5658 C60.5814,43.9668 61.0674,43.4818 61.6664,43.4818 C62.2654,43.4818 62.7504,43.9668 62.7504,44.5658 Z M58.4135,46.7343 C58.4135,47.3333 57.9285,47.8183 57.3295,47.8183 C56.7295,47.8183 56.2445,47.3333 56.2445,46.7343 C56.2445,46.1353 56.7295,45.6503 57.3295,45.6503 C57.9285,45.6503 58.4135,46.1353 58.4135,46.7343 Z" id="Cauliflower" fill="#2F313A" fill-rule="nonzero"></path>
    </g>
</svg>