<?xml version="1.0" encoding="UTF-8"?>
<svg width="100px" height="100px" viewBox="0 0 100 100" version="1.1" xmlns="http://www.w3.org/2000/svg" xmlns:xlink="http://www.w3.org/1999/xlink">
    <!-- Generator: Sketch 59.1 (86144) - https://sketch.com -->
    <title>Vector Files/100x100/Flattened/Subcategories/Cabbage</title>
    <desc>Created with Sketch.</desc>
    <g id="100x100/Flattened/Subcategories/Cabbage" stroke="none" stroke-width="1" fill="none" fill-rule="evenodd">
        <path d="M54.5493774,34.3381927 C55.3847523,32.604484 56.4176113,30.9671763 57.6170872,29.4624592 C55.2806692,28.7623146 52.8378909,28.4017 50.3438,28.4017 C49.7734381,28.4017 49.2056976,28.4205511 48.6407638,28.4580776 C48.9301744,29.7166225 49.025015,31.0197295 48.9091996,32.3070317 C51.0330213,32.3686876 52.984568,33.1172029 54.5493774,34.3381927 L54.5493774,34.3381927 Z M56.7515829,36.7567294 C57.5095952,37.9424155 58.0152027,39.3050329 58.1926586,40.7688621 C59.5375889,40.069684 61.0482863,39.6889 62.6202,39.6889 C64.0341581,39.6889 65.4059095,39.9949443 66.6580319,40.5733974 C66.759556,40.4627966 66.8637656,40.3540141 66.9706398,40.2471398 C67.8936389,39.3241408 68.9457584,38.6090398 70.0688202,38.1018387 C69.2970661,37.1806934 68.3667743,36.0427709 67.839327,35.3138798 C65.9280044,32.6725804 64.6150108,30.0269038 64.0895353,27.312185 C60.8689831,29.7392691 58.2978472,33.0342192 56.7515829,36.7567294 L56.7515829,36.7567294 Z M73.2660926,37.2337828 C76.3121483,36.9075504 79.473529,37.9120438 81.8081112,40.2472909 C82.2526528,40.6919591 82.3726859,41.3666872 82.1087769,41.9373877 C82.0813135,41.996777 82.0200909,42.1383354 81.9298343,42.3624676 C81.7733408,42.7510848 81.5972699,43.2230759 81.4063474,43.7788507 C80.8540874,45.3864786 80.2991852,47.3340767 79.7794717,49.6249818 C79.249808,51.9597472 78.7875634,54.5216682 78.4126155,57.3125249 C76.6206437,71.356951 64.6270251,81.996 50.3443,81.996 C34.7280541,81.996 22.0665052,69.3459605 22.0473218,53.7345276 C22.0470411,53.7225858 22.0469,53.7106094 22.0469,53.6986 C22.0469,47.7501483 21.3167317,43.2629598 20.1174543,40.0377721 C19.7129193,38.9498658 19.2882373,38.1013307 18.8748778,37.4659024 C18.6528065,37.1245279 18.5046324,36.9455228 18.4604238,36.9030293 C17.8547969,36.3208972 17.8452441,35.3549355 18.4392398,34.7609398 C21.9772617,31.2229179 27.2940454,30.5481799 31.5111365,32.7367259 C34.2460618,29.4752462 35.4608075,24.9656421 34.7339258,20.7709099 C34.5806428,19.8863354 35.2334863,19.0661198 36.1299009,19.017043 C39.8255658,18.814713 43.556719,20.3936149 45.9835161,23.1873465 C46.6061031,23.9043626 47.1375378,24.6951241 47.5714949,25.535894 C48.4891981,25.4466324 49.4136047,25.4017 50.3438,25.4017 C53.6120953,25.4017 56.8057756,25.9565921 59.8216892,27.0284313 C61.2539959,25.6346737 62.8470573,24.4061404 64.5662982,23.3833679 C65.5661698,22.7885465 66.8332,23.5090759 66.8332,24.6725 C66.8332,27.5836862 68.080748,30.5301439 70.26974,33.5551608 C70.9574499,34.5055224 72.4938364,36.3318381 73.2660926,37.2337828 L73.2660926,37.2337828 Z M45.8341216,32.7128254 C46.1075023,31.0967293 45.9195495,29.4033593 45.3325261,27.8665092 C45.2801006,27.7694408 45.2379019,27.6655079 45.2075563,27.5559438 C44.8383028,26.6833274 44.3379755,25.8679351 43.7184831,25.1544829 C42.2520536,23.4663276 40.1255954,22.3595263 37.90461,22.0733364 C38.1907508,26.5019057 36.7745044,31.0228019 33.9700784,34.4703961 C34.0719249,34.5649979 34.1724399,34.6618458 34.2715602,34.7609398 C34.5473061,35.0366858 34.8064231,35.3243353 35.0485986,35.6225344 C36.1728269,34.26012 37.1385907,32.6034233 37.8958723,30.7745328 C38.1071583,30.2642617 38.692096,30.0218863 39.2023672,30.2331723 C39.7126383,30.4444583 39.9550137,31.029396 39.7437277,31.5396672 C38.8295619,33.7474445 37.6300776,35.7410069 36.2021807,37.3502187 C37.0322723,38.8873666 37.4873518,40.5975857 37.5364519,42.3466871 C38.0287726,42.3604416 38.5180203,42.4063981 39.0012033,42.4838619 C38.9912153,42.3035711 38.9862,42.1225316 38.9862,41.9409 C38.9862,37.5876796 41.8714038,33.9090914 45.8341216,32.7128254 L45.8341216,32.7128254 Z M42.1162981,43.467485 C43.2119984,44.0010478 44.2290345,44.7194142 45.1215602,45.6119398 C47.1763169,47.6666965 48.3080879,50.3821091 48.3868074,53.1976947 C50.4500333,53.2553836 52.4595762,53.878539 54.1951358,55.0160586 C54.6608528,53.2610794 55.5807797,51.6369999 56.9076398,50.3101398 C58.8084346,48.409345 61.3121145,47.3516178 63.9143686,47.2532559 C63.9686219,45.8119659 64.3174518,44.4007314 64.9409086,43.1054769 C64.2080217,42.8319676 63.4252368,42.6889 62.6202,42.6889 C60.6826334,42.6889 58.8835826,43.5276057 57.6242699,44.9674228 C56.5829365,46.1580163 54.6463103,45.1346705 55.0431846,43.603534 C55.1886116,43.0424785 55.2632,42.4896707 55.2632,41.9409 C55.2632,38.2745749 52.2910206,35.3029 48.6242,35.3029 C44.9576271,35.3029 41.9862,38.2743271 41.9862,41.9409 C41.9862,42.3471357 42.0222482,42.7477625 42.0932033,43.1396657 C42.1131924,43.2500707 42.1205472,43.3598391 42.1162981,43.467485 L42.1162981,43.467485 Z M75.4362315,56.9370171 C75.4369964,56.9307302 75.4378015,56.9244391 75.4386469,56.9181441 C75.8256644,54.0363812 76.3040563,51.3845998 76.8538121,48.9612681 C77.3975114,46.5646332 77.9819803,44.5132616 78.5690913,42.8041828 C78.7104566,42.3926687 78.840382,42.0334017 78.9565294,41.726195 C76.0189407,39.4607493 71.785622,39.6747984 69.0919602,42.3684602 C67.4312731,44.0291473 66.6731643,46.3318496 66.9699326,48.6285778 C67.0959127,49.6035548 66.2656492,50.4341243 65.2906259,50.3085033 C62.9925481,50.0124213 60.6900217,50.7703986 59.0289602,52.4314602 C57.6749983,53.785422 56.9164167,55.5683215 56.8481752,57.4459844 C58.8800739,60.0182545 59.6723778,63.3406132 59.0395782,66.5507089 C58.8793555,67.3634943 58.0905766,67.892501 57.2777911,67.7322782 C56.4650057,67.5720555 55.935999,66.7832766 56.0962218,65.9704911 C56.6216173,63.3052398 55.8084497,60.54047 53.8524797,58.5845 C52.0342644,56.7671067 49.5144804,55.9376069 47.0021193,56.2622329 C46.0269176,56.3882402 45.1962598,55.5575824 45.3222671,54.5823807 C45.6468956,52.0700006 44.8173825,49.5504028 43.0002398,47.7332602 C41.1829683,45.9159886 38.6642954,45.0866308 36.1521193,45.4112329 C35.177128,45.5372131 34.3465545,44.7069232 34.4722015,43.7318889 C34.7961082,41.2183377 33.9668721,38.6988924 32.1503799,36.8824002 C29.2554087,33.9881934 24.7353193,33.7113136 21.5301368,36.0516572 C22.0163214,36.8381627 22.4907639,37.8127105 22.9293457,38.9921779 C24.2569796,42.562552 25.0439809,47.3905036 25.0468919,53.663661 C25.0471635,53.6754078 25.0473,53.687188 25.0473,53.699 C25.0473,67.6699269 36.3730811,78.996 50.3443,78.996 C63.1108065,78.996 73.8329067,69.486126 75.4362315,56.9370171 L75.4362315,56.9370171 Z M36.3794484,71.9740361 C35.937435,71.6429128 35.8475407,71.0161618 36.1786639,70.5741484 C36.5097872,70.132135 37.1365382,70.0422407 37.5785516,70.3733639 C38.3996444,70.9884649 39.264516,71.5424037 40.1645947,72.0290355 C40.65042,72.2916992 40.8313282,72.8984695 40.5686645,73.3842947 C40.3060008,73.87012 39.6992305,74.0510282 39.2134053,73.7883645 C38.2266864,73.2548903 37.2789742,72.6478932 36.3794484,71.9740361 Z M27.1987,53.4544 C27.1987,52.9021153 27.6464153,52.4544 28.1987,52.4544 C28.7509847,52.4544 29.1987,52.9021153 29.1987,53.4544 C29.1987,58.8115093 31.1188268,63.7744668 34.5472136,67.5977927 C34.9159229,68.0089761 34.8814908,68.6412042 34.4703073,69.0099136 C34.0591239,69.3786229 33.4268958,69.3441908 33.0581864,68.9330073 C29.3025092,64.7446881 27.1987,59.3069663 27.1987,53.4544 Z M55.9750294,72.292588 C55.3902217,72.8793515 54.4404756,72.8809371 53.853712,72.2961294 C53.2669485,71.7113217 53.2653629,70.7615756 53.8501706,70.174812 C54.1041771,69.919956 54.3387469,69.6532738 54.5528326,69.3763215 C55.0594868,68.720888 56.0015449,68.6002785 56.6569785,69.1069326 C57.312412,69.6135868 57.4330215,70.5556449 56.9263674,71.2110785 C56.6350766,71.587907 56.3174073,71.949065 55.9750294,72.292588 Z M45.6958,42.0511 C45.6958,42.6033847 45.2480847,43.0511 44.6958,43.0511 C44.1435153,43.0511 43.6958,42.6033847 43.6958,42.0511 C43.6958,40.2897259 44.6057879,38.682922 46.0707362,37.7647681 C46.5387047,37.4714697 47.1558334,37.6130678 47.4491319,38.0810362 C47.7424303,38.5490047 47.6008322,39.1661334 47.1328638,39.4594319 C46.2452855,40.01572 45.6958,40.9859696 45.6958,42.0511 Z" id="Cabbage" fill="#2F313A" fill-rule="nonzero"></path>
    </g>
</svg>