<?xml version="1.0" encoding="UTF-8"?>
<svg width="100px" height="100px" viewBox="0 0 100 100" version="1.1" xmlns="http://www.w3.org/2000/svg" xmlns:xlink="http://www.w3.org/1999/xlink">
    <!-- Generator: Sketch 59.1 (86144) - https://sketch.com -->
    <title>Vector Files/100x100/Flattened/Subcategories/Carrot</title>
    <desc>Created with Sketch.</desc>
    <g id="100x100/Flattened/Subcategories/Carrot" stroke="none" stroke-width="1" fill="none" fill-rule="evenodd">
        <path d="M68.2980392,44.0422562 C74.4895977,55.4485143 67.3400297,66.1616587 50.9161287,75.1805794 C43.9202259,79.0222667 35.543055,82.3503953 27.4715673,84.7288711 C19.9052288,86.9584915 14.7251708,87.8939625 13.5137148,86.681935 C12.7384659,85.907234 12.8569287,84.8404454 13.5164959,81.6568543 C14.0066399,79.2910327 14.790125,76.2583832 15.7667657,73.0133005 C18.2309179,64.825666 21.5100106,56.5212577 25.27452,49.5529395 C30.0533641,40.7070306 35.3490724,34.4453852 41.1544365,31.575085 C46.3396064,29.0114226 51.7224862,29.2535862 57.1501704,32.5049702 C55.6100882,28.4093718 55.4213064,24.3232676 56.467057,20.6322816 C57.9150046,15.5217369 61.6952683,11.9919135 65.0493986,13.2439509 C69.8573693,15.0380197 70.5666281,20.1729824 68.6047056,27.1968165 C68.0876509,29.0481311 67.3943801,30.9852358 66.5682235,32.9627103 C66.0632438,34.1714212 65.530934,35.3425969 64.9922461,36.4525429 C66.1026295,35.9137373 67.2742693,35.3813078 68.4834458,34.8762203 C70.6420055,33.9745639 72.7484184,33.2325727 74.745559,32.7051149 C81.5093752,30.9187468 86.4526342,31.7120015 88.2007858,36.3949317 C89.4528815,39.7492185 85.9230509,43.5297328 80.8125553,44.9778076 C76.9287485,46.0782963 72.6074926,45.8117988 68.2980392,44.0422562 L68.2980392,44.0422562 Z M28.590771,81.2541447 C34.4773098,79.4156303 40.4538072,77.0841833 45.8239779,74.4447915 L34.7262932,63.3471068 C34.3357689,62.9565825 34.3357689,62.3234175 34.7262932,61.9328932 C35.1168175,61.5423689 35.7499825,61.5423689 36.1405068,61.9328932 L47.7031291,73.4955156 C48.3022232,73.1843427 48.8922405,72.8694028 49.4721213,72.5509706 C55.5520234,69.2122903 60.197539,65.746245 63.2357449,62.1582585 L51.6969932,50.6195068 C51.3064689,50.2289825 51.3064689,49.5958175 51.6969932,49.2052932 C52.0875175,48.8147689 52.7206825,48.8147689 53.1112068,49.2052932 L64.4721456,60.566232 C69.1978944,53.8803591 68.3656359,46.782108 60.889322,39.3055423 C50.4944034,28.9109737 40.942468,31.4438835 32.169965,44.0004041 C32.3290433,44.0453219 32.4791753,44.1303736 32.6043734,44.2555599 L43.2113734,54.8615599 C43.6019161,55.2520658 43.601946,55.8852307 43.2114401,56.2757734 C42.8209342,56.6663161 42.1877693,56.666346 41.7972266,56.2758401 L31.1902266,45.6698401 C31.1603108,45.6399271 31.1326864,45.6085903 31.1073534,45.5760478 C30.0310721,47.2275371 28.9666542,49.0303014 27.91398,50.9788605 C25.9954804,54.5301109 24.2011816,58.4524744 22.5809001,62.5348398 C22.6243765,62.5661097 22.6659077,62.6012942 22.7050068,62.6403932 L33.3110068,73.2463932 C33.7015311,73.6369175 33.7015311,74.2700825 33.3110068,74.6606068 C32.9204825,75.0511311 32.2873175,75.0511311 31.8967932,74.6606068 L21.7962114,64.560025 C20.6367416,67.6257069 19.5777038,70.7604541 18.6394843,73.8778745 C17.6870704,77.0424584 16.9253911,79.990704 16.4541135,82.2654614 C16.2941157,83.037737 16.173587,83.7055724 16.096671,84.2371971 C16.647022,84.1858441 17.3487895,84.0847899 18.1701543,83.936459 C20.379411,83.5374874 23.270338,82.8330246 26.4195232,81.9111456 L23.4127099,78.9036234 C23.0222316,78.5130531 23.0223062,77.8798882 23.4128766,77.4894099 C23.8034469,77.0989316 24.4366118,77.0990062 24.8270901,77.4895766 L28.590771,81.2541447 L28.590771,81.2541447 Z M44.6256932,59.1049068 C44.2351689,58.7143825 44.2351689,58.0812175 44.6256932,57.6906932 C45.0162175,57.3001689 45.6493825,57.3001689 46.0399068,57.6906932 L48.1609068,59.8116932 C48.5514311,60.2022175 48.5514311,60.8353825 48.1609068,61.2259068 C47.7703825,61.6164311 47.1372175,61.6164311 46.7466932,61.2259068 L44.6256932,59.1049068 Z M44.6255932,43.5481068 C44.2351242,43.1575273 44.2352137,42.5243623 44.6257932,42.1338932 C45.0163727,41.7434242 45.6495377,41.7435137 46.0400068,42.1340932 L49.5750068,45.6700932 C49.9654758,46.0606727 49.9653863,46.6938377 49.5748068,47.0843068 C49.1842273,47.4747758 48.5510623,47.4746863 48.1605932,47.0841068 L44.6255932,43.5481068 Z M64.0004317,16.0545858 C62.7509704,15.588184 60.3895337,17.7931769 59.353443,21.4500684 C58.1411335,25.7289259 58.9224211,30.7185537 62.0662739,35.6059444 C62.6586555,34.4087844 63.2472342,33.1295406 63.8000918,31.80623 C64.5817046,29.9353747 65.2343839,28.1116876 65.7152879,26.3898065 C67.3041519,20.7015643 66.8069465,17.1018219 64.0004317,16.0545858 Z M79.9946947,42.0914424 C83.6515682,41.0552559 85.8566371,38.6935861 85.3902237,37.4440937 C84.3719352,34.7163131 80.9550827,34.168004 75.5116119,35.6056601 C73.6604666,36.0945597 71.6800418,36.7921712 69.6397572,37.6444226 C68.3160821,38.1973375 67.0364637,38.7859802 65.8389426,39.3784241 C70.7262872,42.5225387 75.7158524,43.3038657 79.9946947,42.0914424 Z" id="Carrot" fill="#2F313A" fill-rule="nonzero"></path>
    </g>
</svg>