<?xml version="1.0" encoding="UTF-8"?>
<svg width="100px" height="100px" viewBox="0 0 100 100" version="1.1" xmlns="http://www.w3.org/2000/svg" xmlns:xlink="http://www.w3.org/1999/xlink">
    <!-- Generator: Sketch 59.1 (86144) - https://sketch.com -->
    <title>Vector Files/100x100/Flattened/Subcategories/Cherries</title>
    <desc>Created with Sketch.</desc>
    <g id="100x100/Flattened/Subcategories/Cherries" stroke="none" stroke-width="1" fill="none" fill-rule="evenodd">
        <path d="M59.8374932,53.6276437 C51.9589068,45.8965223 48.7876016,38.0100582 48.4935833,25.0720544 C46.5931757,26.9871758 44.7324501,29.1956688 43.0467648,31.5870266 C38.0155179,38.7244873 35.3069966,46.2754273 35.8889473,52.4369556 C36.3075226,52.3216886 36.7515049,52.2084386 37.2173875,52.1000166 C39.7771802,51.5042916 42.3673521,51.1910903 44.818842,51.3148457 C48.6631055,51.5089108 51.679927,52.7380992 53.6350159,55.0746796 C53.8998068,54.9771042 54.1691088,54.8838472 54.4426995,54.7947956 C56.1725621,54.231739 58.0031874,53.8552437 59.8374932,53.6276437 L59.8374932,53.6276437 Z M63.316243,52.7910298 C63.3627528,52.7566157 63.4104563,52.7215047 63.4593357,52.6857262 C64.3713233,52.0181738 65.3805834,51.3515278 66.4627849,50.7279939 C69.1746797,49.1654766 71.8860225,48.1275778 74.4893966,47.8705532 C81.0817761,47.2197042 85.6542383,51.6316726 87.0452467,61.7490322 C87.0749709,61.9224778 87.1155459,62.2192061 87.1548709,62.6230287 C87.4444668,65.5968513 87.2029321,68.9398067 86.0138086,72.1469234 C84.5159997,76.1865775 81.7012887,79.3204741 77.3888453,81.0990242 C77.1345427,81.2095808 76.7254882,81.3605533 76.2026054,81.5087631 C75.1663439,81.8024886 74.1113643,81.957654 73.0833804,81.8940851 C72.7249433,82.2435449 72.3204486,82.5627333 71.8778622,82.8554674 C70.9179321,83.4903815 69.9754034,83.8944608 69.3274877,84.0966377 C62.5621927,86.3324591 55.5450924,84.0161955 51.2816831,78.8601808 C48.3528327,82.7096503 44.3074871,85.0797793 39.0500375,85.2695547 C39.023099,85.2707993 39.023099,85.2707993 38.9544385,85.2728755 C38.6104841,85.2817021 38.1752206,85.2708467 37.6785456,85.225639 C36.9329743,85.1577766 36.1930081,85.0238684 35.4857917,84.8042432 C35.1728435,84.7070576 34.8717502,84.5945808 34.5839385,84.4653762 C34.2942101,84.5942175 33.9911437,84.705565 33.6762068,84.8009157 C32.4711289,85.1657665 31.2580361,85.2668741 30.2383608,85.2308829 C30.1334858,85.2265326 30.1334858,85.2265326 30.1386788,85.2263269 C24.2655678,85.0146747 19.9133108,82.1082456 16.9322536,77.4709956 C15.865242,75.8111818 15.0510183,74.0427659 14.4519779,72.2746888 C14.0903417,71.2073139 13.8781824,70.3652114 13.793372,69.9064821 C11.0726376,57.6547374 15.5366292,51.7658543 24.35106,51.3179486 C26.8034528,51.1933301 29.3945775,51.5059842 31.9551416,52.1013211 C32.2700659,52.1745417 32.57497,52.2499682 32.8687698,52.3267318 C32.3513945,45.4271464 35.2900085,37.3839997 40.5947352,29.8585734 C45.8380447,22.4202752 52.6896247,16.597415 58.0255069,15.1997296 C59.9417378,14.6979245 63.2194078,15.1574832 67.7330689,16.3041012 C70.6949055,17.0565049 73.6765132,17.9716622 76.7449559,18.9971469 C77.5586646,19.2690914 77.9789187,20.16689 77.6665402,20.9659491 C76.5098111,23.9248425 73.497167,27.4511779 69.6031885,29.1110425 C64.4205526,31.320216 58.3228825,30.2039832 51.4936991,25.0498138 C51.7900546,37.9095603 54.9928511,45.174069 63.316243,52.7910298 L63.316243,52.7910298 Z M53.0089732,76.1903609 C56.4319299,80.9539913 62.5227396,83.1859225 68.4095584,81.2406266 C68.5004537,81.2122338 68.6930181,81.1424806 68.9512389,81.0317766 C69.3880838,80.8444932 69.8243904,80.6168294 70.2228668,80.3532704 C70.6774746,80.0525851 71.0479543,79.7270681 71.3085657,79.3903323 C71.6586832,78.9379458 72.2356252,78.7240818 72.7960178,78.8389553 C72.9420445,78.8688889 73.0982556,78.8890811 73.2636992,78.8995025 C73.9081672,78.9400977 74.6456331,78.8318971 75.384493,78.6224692 C75.7671121,78.5140168 76.0534744,78.4083272 76.2188157,78.3367371 C79.7457005,76.8819331 81.9816556,74.3924228 83.2009345,71.1039758 C84.2078744,68.388216 84.4183809,65.4747065 84.1689953,62.9137985 C84.1369704,62.5849395 84.1061957,62.3598814 84.0807956,62.2068279 C82.8861644,53.5229498 79.6267495,50.3779405 74.7841461,50.8560386 C72.6720825,51.0645573 70.3354052,51.9590346 67.9604868,53.3273956 C66.9790744,53.8928577 66.0596931,54.5001361 65.2312882,55.106508 C64.9427794,55.3176893 64.6870916,55.5129706 64.4677044,55.6870023 C64.3399467,55.7883478 64.2551977,55.8579057 64.216888,55.8903316 C64.0834932,56.0032391 63.9313936,56.0919668 63.7674525,56.152511 L63.3504525,56.306511 C63.1879255,56.3665329 63.0162286,56.3979439 62.8429782,56.3993506 C62.7411182,56.4001776 62.531514,56.4063142 62.2299181,56.422437 C61.7171898,56.4498464 61.1433669,56.4965321 60.5243683,56.5670423 C58.7602322,56.7679952 56.9988615,57.1177028 55.3712273,57.6474849 C55.3126656,57.6665462 55.2543773,57.6858134 55.196366,57.7052869 C56.3971673,60.671146 56.5316908,64.6967404 55.3874014,69.8476281 C55.2925451,70.3575452 55.0805664,71.2022928 54.7191682,72.2731334 C54.2734894,73.5937016 53.708597,74.914473 53.0089732,76.1903609 L53.0089732,76.1903609 Z M26.7450691,58.1596752 C26.1948415,58.1120512 25.7874008,57.6273967 25.8350248,57.0771691 C25.8826488,56.5269415 26.3673033,56.1195008 26.9175309,56.1671248 C27.5592735,56.2226698 28.2122776,56.3075499 28.8725026,56.4181404 C29.4171988,56.5093792 29.7847985,57.0249065 29.6935596,57.5696026 C29.6023208,58.1142988 29.0867935,58.4818985 28.5420974,58.3906596 C27.9323611,58.2885263 27.331703,58.2104503 26.7450691,58.1596752 Z M20.156092,68.5997917 C20.2758871,69.1389276 19.9359443,69.6730968 19.3968083,69.792892 C18.8576724,69.9126871 18.3235032,69.5727443 18.203708,69.0336083 C17.1074137,64.0997553 17.3163742,60.339872 18.9478084,58.3070347 C19.9190724,57.096044 21.4879475,56.4012987 23.5900636,56.1754234 C24.1391874,56.1164193 24.6321725,56.5137398 24.6911766,57.0628636 C24.7501807,57.6119874 24.3528602,58.1049725 23.8037364,58.1639766 C22.1857305,58.3378336 21.1020024,58.8177411 20.5078014,59.5586024 C19.3580113,60.9912905 19.1794394,64.204384 20.156092,68.5997917 Z M68.4268115,26.3513075 C70.8866708,25.3027569 72.9635636,23.2409986 74.1509481,21.3017912 C67.0571355,19.0052881 60.9533779,17.5341644 58.7855881,18.1018455 C56.8306415,18.6139258 54.5387844,19.9084828 52.1731518,21.7706933 C58.6751291,27.0749425 64.0455532,28.2188822 68.4268115,26.3513075 Z M34.8157,55.8333 L34.3547,55.8333 C34.1830591,55.8333 34.0126916,55.803841 33.8510166,55.7462059 C33.7379684,55.7059056 33.506335,55.6291765 33.1722458,55.528053 C32.6054805,55.3565023 31.9678544,55.1842956 31.2757561,55.0233812 C28.965644,54.4862749 26.6391371,54.2055506 24.5033087,54.3140828 C17.5465111,54.6675928 14.4032069,58.8142295 16.732198,69.305881 C16.7473117,69.3867946 16.7857799,69.5639102 16.8510942,69.8231555 C16.9635435,70.2694893 17.1098518,70.7704878 17.2933259,71.3120146 C17.8184799,72.862015 18.5319836,74.4116766 19.455797,75.8487352 C21.9418087,79.7159061 25.4448423,82.0552254 30.2904063,82.2304856 C30.286509,82.2303257 30.286509,82.2303257 30.344185,82.23275 C30.5957047,82.2416278 30.9221007,82.2362976 31.2915501,82.2055051 C31.8216809,82.1613203 32.3382064,82.071528 32.8068922,81.9296281 C33.1846212,81.8152664 33.5165584,81.6711085 33.7924785,81.4991937 C34.2781399,81.1965976 34.8936523,81.1966742 35.3792383,81.4993911 C35.6583644,81.6733999 35.9939769,81.8207279 36.3755222,81.9392163 C37.2383098,82.2071539 38.1705256,82.2920048 38.8774769,82.2738628 C38.9108731,82.2728353 38.9108731,82.2728353 38.9235622,82.2722773 C43.7245665,82.0988872 47.2275298,79.751064 49.713759,75.8689082 C50.6377939,74.4260615 51.3514459,72.8701254 51.8766829,71.3138225 C52.0601967,70.770062 52.2065359,70.2669789 52.3190103,69.818762 C52.3843558,69.5583566 52.4228539,69.3803855 52.4483748,69.248105 C54.7671411,58.8068997 51.6241732,54.6622107 44.6675894,54.3110304 C42.5325224,54.2032486 40.2068482,54.484467 37.8973875,55.0219337 C37.2047017,55.1831383 36.5665022,55.3556564 35.999202,55.5275183 C35.6647904,55.6288273 35.4329197,55.7056991 35.3197427,55.7460777 C35.1579618,55.803797 34.987469,55.8333 34.8157,55.8333 Z" id="Cherries" fill="#2F313A" fill-rule="nonzero"></path>
    </g>
</svg>