<?xml version="1.0" encoding="UTF-8"?>
<svg width="100px" height="100px" viewBox="0 0 100 100" version="1.1" xmlns="http://www.w3.org/2000/svg" xmlns:xlink="http://www.w3.org/1999/xlink">
    <!-- Generator: Sketch 59.1 (86144) - https://sketch.com -->
    <title>Vector Files/100x100/Flattened/Subcategories/Chicken</title>
    <desc>Created with Sketch.</desc>
    <g id="100x100/Flattened/Subcategories/Chicken" stroke="none" stroke-width="1" fill="none" fill-rule="evenodd">
        <path d="M47.4473,41.1056 C47.4473,42.2806 46.4943,43.2336 45.3193,43.2336 C44.1443,43.2336 43.1913,42.2806 43.1913,41.1056 C43.1913,39.9306 44.1443,38.9786 45.3193,38.9786 C46.4943,38.9786 47.4473,39.9306 47.4473,41.1056 Z M56.8086,41.1056 C56.8086,42.2806 55.8556,43.2336 54.6806,43.2336 C53.5056,43.2336 52.5526,42.2806 52.5526,41.1056 C52.5526,39.9306 53.5056,38.9786 54.6806,38.9786 C55.8556,38.9786 56.8086,39.9306 56.8086,41.1056 Z M67.9870552,79.038751 C65.8428887,79.0612052 63.9555762,78.0941888 62.3520125,76.4913253 C61.8702429,79.4556441 59.771701,80.8562137 56.7712512,80.36715 C54.237259,79.9541174 51.5417683,78.224705 50,76.1015245 C48.4582317,78.224705 45.762741,79.9541174 43.2287488,80.36715 C40.228299,80.8562137 38.1297571,79.4556441 37.653143,76.486169 L37.6479875,76.4913253 C36.0444266,78.0941861 34.1571178,79.0612019 32.0129557,79.0387511 C29.8824904,84.1015918 26.974745,88.4599357 23.2718774,91.8752137 C22.6629206,92.4368748 21.7139473,92.3985341 21.1522863,91.7895774 C20.5906252,91.1806206 20.6289659,90.2316473 21.2379226,89.6699863 C26.6319877,84.6948605 30.2388986,77.409576 32.0544534,68.7045532 C33.1671452,63.3657345 33.6086152,58.226968 33.9125269,49.5880939 C33.9351085,48.9461995 33.9522192,48.4390512 33.9910287,47.2724011 C34.0423796,45.728743 34.0661766,45.0318177 34.0979008,44.1688142 C34.2547894,39.8761678 34.4877403,37.5838611 35.2048286,35.0328195 C36.1629918,31.6229564 37.9539663,28.7420852 40.4936278,26.9098858 C42.2805197,25.6215054 43.6844959,25.0575229 46.0802375,24.8362753 C44.6812953,20.5696713 44.1674424,17.5217662 44.2479445,13.5457521 C44.3002759,11.1045662 44.8711479,9.17447491 46.3018173,7.72441048 C48.1148968,5.88673217 51.3224738,5.39518466 53.4842455,6.85424664 C55.6086036,8.28678684 56.0233158,10.4820347 55.6300959,13.6513182 C55.3768039,15.6846899 55.0772822,17.1475433 54.3384025,20.2870478 C53.8365807,22.4192929 53.5816191,23.5770117 53.3733915,24.7927953 C56.11067,24.9783455 57.587876,25.5266164 59.506706,26.9101265 C62.0460337,28.7420852 63.8370082,31.6229564 64.7951343,35.0326874 C65.5122597,37.5838611 65.7452106,39.8761678 65.9020875,44.1684968 C65.9338234,45.0318177 65.9576204,45.728743 66.0089713,47.2724011 C66.0477808,48.4390512 66.0648915,48.9461995 66.0874731,49.5880939 C66.3913848,58.226968 66.8328548,63.3657345 67.945503,68.7043439 C69.7611014,77.409576 73.3680123,84.6948605 78.7620774,89.6699863 C79.3710341,90.2316473 79.4093748,91.1806206 78.8477137,91.7895774 C78.2860527,92.3985341 77.3370794,92.4368748 76.7281226,91.8752137 C73.0252676,88.4599473 70.1175293,84.1016213 67.9870552,79.038751 L67.9870552,79.038751 Z M67.1774003,76.9796554 C66.2903116,74.5605728 65.5679794,71.9984419 65.0086534,69.3166468 C63.8520544,63.7671564 63.3988426,58.4917136 63.0893277,49.6935673 C63.0666563,49.0491178 63.0495032,48.5407142 63.0106298,47.3721432 C62.9593945,45.8319611 62.9356778,45.1373833 62.9041008,44.2783858 C62.7555531,40.2139553 62.5405298,38.0980609 61.9070286,35.8443805 C61.1197859,33.0427805 59.6885114,30.7405047 57.7518278,29.3433142 C55.8365633,27.9623749 54.6259364,27.7106 50.2551,27.7106 C50.1681399,27.7106 50.0829081,27.7032001 50,27.6889957 C49.9170919,27.7032001 49.8318601,27.7106 49.7449,27.7106 C45.3740636,27.7106 44.1634367,27.9623749 42.248506,29.3430735 C40.3114886,30.7405047 38.8802141,33.0427805 38.0929343,35.8445126 C37.4594702,38.0980609 37.2444469,40.2139553 37.0958875,44.2787032 C37.0643222,45.1373833 37.0406055,45.8319611 36.9893702,47.3721432 C36.9504968,48.5407142 36.9333437,49.0491178 36.9106723,49.6935673 C36.6011574,58.4917136 36.1479456,63.7671564 34.991303,69.3168561 C34.4319955,71.9985621 33.7096817,74.5606241 32.8226123,76.9796534 C34.0590588,76.7845937 35.1987149,76.1117187 36.2340827,75.0768029 C36.6817012,74.6293799 37.0745621,74.1471836 37.4071541,73.6658144 C37.6035922,73.3815045 37.7330133,73.166697 37.7916893,73.0572628 C38.3207435,72.0705444 39.8238139,72.5658815 39.6625757,73.6738137 C39.1151944,77.4350888 40.3852285,78.8042409 42.9070012,78.3932 C45.4099922,77.9852205 48.2401366,75.8498244 49.0645374,73.7013442 C49.1620358,73.4435822 49.365032,73.2270428 49.6426707,73.1208215 C50.1584928,72.923474 50.736631,73.1816487 50.9339785,73.6974707 L50.9354626,73.7013442 C51.7598634,75.8498244 54.5900078,77.9852205 57.0929988,78.3932 C59.6147715,78.8042409 60.8848056,77.4350888 60.3374243,73.6738137 C60.1761861,72.5658815 61.6792565,72.0705444 62.2083107,73.0572628 C62.2669867,73.166697 62.3964078,73.3815045 62.5928459,73.6658144 C62.9254379,74.1471836 63.3182988,74.6293799 63.7659173,75.0768029 C64.8012886,76.1117222 65.940949,76.7845983 67.1774003,76.9796554 L67.1774003,76.9796554 Z M49.2017996,24.7122084 C49.3785022,24.7111168 49.5594661,24.7106 49.7449,24.7106 C49.8318601,24.7106 49.9170919,24.7179999 50,24.7322043 C50.0829081,24.7179999 50.1681399,24.7106 50.2551,24.7106 C50.2854633,24.7106 50.3157068,24.7106139 50.3458314,24.7106418 C50.5818655,23.2489933 50.8459521,22.0312076 51.4167852,19.6057331 C52.1334207,16.5607441 52.4170381,15.1755673 52.6530138,13.281208 C52.9189211,11.1380403 52.6923302,9.93859783 51.8064437,9.34120878 C50.8999146,8.7293579 49.2796944,8.97764974 48.437377,9.83139522 C47.6489369,10.6305239 47.2847305,11.8618885 47.2472926,13.6082638 C47.1695994,17.4455939 47.6917738,20.2826318 49.1883065,24.6707168 C49.1930165,24.6845273 49.1975136,24.698359 49.2017996,24.7122084 L49.2017996,24.7122084 Z M30.6671629,86.8940634 C30.9679022,86.4308417 31.5872149,86.2991237 32.0504366,86.5998629 C32.5136583,86.9006022 32.6453763,87.5199149 32.3446371,87.9831366 C31.0805486,89.9301826 29.6909691,91.7173355 28.1829244,93.3329513 C27.8060722,93.7366849 27.1732824,93.7584766 26.7695487,93.3816244 C26.3658151,93.0047722 26.3440234,92.3719824 26.7208756,91.9682487 C28.1480202,90.4393037 29.4658061,88.7444853 30.6671629,86.8940634 Z M33.7562878,81.2237585 C33.9844043,80.7207861 34.577069,80.4979713 35.0800415,80.7260878 C35.5830139,80.9542043 35.8058287,81.546869 35.5777122,82.0498415 C35.2464413,82.7802585 34.897437,83.5004788 34.5306884,84.2113117 C34.2774594,84.7021207 33.6742974,84.8947174 33.1834883,84.6414884 C32.6926793,84.3882594 32.5000826,83.7850974 32.7533116,83.2942883 C33.1046688,82.6132871 33.4389811,81.9233858 33.7562878,81.2237585 Z M46.9714058,54.5328991 L44.4781409,53.5117905 C42.6509413,52.762856 42.3812326,50.2863849 44.0045832,49.1607283 L48.5809391,45.9874816 C49.434495,45.3961728 50.565305,45.3961728 51.4192168,45.9877283 L55.9952253,49.1607341 C57.6185674,50.2863849 57.3488587,52.762856 55.5213942,53.5118991 L53.0286196,54.5328067 C51.0885343,55.3284307 48.9110051,55.3283978 46.9714058,54.5328991 Z M52.2699394,52.6822921 L54.7631409,51.6612095 C55.1225669,51.5138876 55.1756769,51.0262297 54.8555832,50.8042717 L50.2799391,47.6315184 C50.111495,47.5148272 49.888305,47.5148272 49.7202168,47.6312717 L45.1442253,50.8042659 C44.8241231,51.0262297 44.8772331,51.5138876 45.2363942,51.6611009 L47.7298606,52.6822921 C49.1837146,53.2785693 50.8160854,53.2785693 52.2699394,52.6822921 Z" id="Chicken" fill="#2F313A" fill-rule="nonzero"></path>
    </g>
</svg>