<?xml version="1.0" encoding="UTF-8"?>
<svg width="100px" height="100px" viewBox="0 0 100 100" version="1.1" xmlns="http://www.w3.org/2000/svg" xmlns:xlink="http://www.w3.org/1999/xlink">
    <!-- Generator: Sketch 59.1 (86144) - https://sketch.com -->
    <title>Vector Files/100x100/Flattened/Subcategories/Corn</title>
    <desc>Created with Sketch.</desc>
    <g id="100x100/Flattened/Subcategories/Corn" stroke="none" stroke-width="1" fill="none" fill-rule="evenodd">
        <path d="M43.7634861,37.4434717 C50.8886643,31.0495374 57.8280831,25.5006904 63.9628259,21.6099509 C72.8021328,16.003939 79.2907243,14.230004 82.9223602,17.8616398 C86.5430083,21.482288 84.7903172,27.9427133 79.2261433,36.739519 C75.3370909,42.8880036 69.770587,49.8541173 63.3458905,57.0135567 C63.9766332,57.6847921 64.5687497,58.4843422 65.1441545,59.405513 C67.8189066,63.6881974 68.9330742,69.4762263 68.7985807,75.9930503 C68.7687434,77.4388008 66.9119385,78.0093776 66.0753838,76.8298603 C63.1704556,72.7339981 60.688031,69.631798 58.6297979,67.3892478 C58.1272839,66.8417331 57.6781864,66.3766108 57.2825981,65.987907 C56.6048418,66.6939006 55.85347,67.4738108 55.0445857,68.3099916 C52.5929494,70.8443606 50.1134574,73.3788768 47.7594451,75.7454522 C47.514891,75.9913114 47.2727031,76.2343314 47.0329919,76.4743909 C45.7352895,77.7739789 44.5188874,78.978112 43.3984093,80.07075 C37.7801487,85.5522201 29.2318315,86.5175293 22.7850686,82.3969862 C22.6708339,82.3239715 22.5698256,82.2380639 22.4827297,82.1423794 C21.02232,81.1749422 19.592373,79.7983225 18.5420529,78.1550796 C14.4227968,71.7075005 15.3879618,63.1604609 20.8682644,57.5411809 C21.9613307,56.4204399 23.1656024,55.2040484 24.4653081,53.906356 C24.7049148,53.6671205 24.9474697,53.4254179 25.1928522,53.1813582 C27.5598414,50.8271282 30.094803,48.3473253 32.6296175,45.8953273 C33.4659565,45.0863128 34.2460133,44.3348149 34.9521381,43.6569417 C34.563461,43.2614891 34.0983876,42.8125491 33.5509466,42.3102117 C31.3082238,40.2522665 28.2057226,37.7700071 24.1094006,34.8650595 C22.9299272,34.0286241 23.5002284,32.1719314 24.9458685,32.1418252 C31.4618043,32.0061274 37.2516566,33.1202774 41.5345785,35.7951777 C42.3820406,36.32436 43.1268019,36.8681463 43.7634861,37.4434717 L43.7634861,37.4434717 Z M45.6389416,39.7913821 C45.8798621,40.2510121 46.0684962,40.7346795 46.2031917,41.2475882 C46.7557029,43.357932 46.37438,45.1401371 45.1410271,48.3636001 C43.7873907,51.9008985 42.7350593,54.7584419 40.7905188,60.1489496 C46.2085838,58.194268 49.0399869,57.1516932 52.5761041,55.7990566 C55.8022434,54.5652958 57.5816112,54.1845345 59.6922269,54.7371171 C60.1297624,54.8518024 60.5459722,55.0057695 60.9441245,55.1980199 C76.1140616,38.3249202 85.0015481,24.1834684 80.8010398,19.9829602 C76.6018279,15.7837482 62.4807799,24.658548 45.6389416,39.7913821 L45.6389416,39.7913821 Z M31.3799297,81.9389629 C34.9508868,81.979399 38.5491453,80.6106365 41.3036654,77.9231821 C42.4142082,76.8402325 43.6213144,75.6453015 44.9101321,74.3546112 C45.1484604,74.1159365 45.3892829,73.8742867 45.6324867,73.6297849 C47.9755711,71.2741959 50.4457001,68.7492503 52.8883631,66.2241574 C53.7434009,65.3402656 54.53387,64.5195535 55.2405054,63.7831263 C55.4877279,63.5254809 55.706777,63.2968115 55.8952457,63.0997554 C56.0859012,62.9002927 56.0859012,62.9002927 56.1254018,62.8588736 C56.6549071,62.3036549 57.5180295,62.2375025 58.1259606,62.7055446 C58.6180831,63.0844262 59.522378,63.9250834 60.8400021,65.3607022 C62.2589615,66.906731 63.8587089,68.8288549 65.6394429,71.1657839 C65.2669574,67.1694399 64.275254,63.6775907 62.5996997,60.9947737 C61.4147335,59.0977506 60.250271,57.9847357 58.9319882,57.6391917 C57.639643,57.3008414 56.2959928,57.5883649 53.6478108,58.6010995 C49.6114465,60.1450909 46.4937621,61.2853261 39.4706414,63.8133251 C37.2739737,69.9105046 36.175386,72.9036616 34.734396,76.6708807 C34.4391361,77.5472594 33.876995,78.7849562 33.0143847,80.0384651 C32.5129234,80.7671675 31.9673156,81.4063228 31.3799297,81.9389629 L31.3799297,81.9389629 Z M35.5792534,40.0997883 C37.0149574,41.4172049 37.8556412,42.3212909 38.2345241,42.8132688 C38.7027036,43.421198 38.6366047,44.284436 38.0813264,44.8139982 C38.0398982,44.8535074 38.0398982,44.8535074 37.840398,45.044198 C37.6433051,45.2327007 37.4145934,45.4517885 37.1569004,45.6990536 C36.4203379,46.4058103 35.5994751,47.1964088 34.7154213,48.0515793 C32.1898648,50.4946217 29.6644555,52.9650802 27.3084318,55.3084037 C27.0644013,55.5511188 26.823211,55.7914615 26.5849836,56.02932 C25.2941563,57.3181477 24.0990669,58.5252645 23.0159565,59.6357976 C18.5002117,64.2660591 17.7083951,71.2780084 21.0699802,76.5396591 C22.2601791,78.4017445 24.1226584,79.8472835 25.6312352,80.4315101 C27.5729221,81.1825627 29.1398153,80.3768499 30.5430166,78.337777 C30.9430819,77.756419 31.2880283,77.1246365 31.5732742,76.492458 C31.7425696,76.1172558 31.8512893,75.8337715 31.8988211,75.6909208 L31.9211246,75.6285263 C33.4572068,71.6133792 34.6007372,68.4864608 37.1156725,61.4982614 L37.1193413,61.4880667 C39.6375305,54.4908265 40.7914781,51.3358081 42.3391459,47.2914706 C43.3514382,44.6457666 43.639399,43.2999117 43.3012932,42.0084982 C42.9547803,40.6890082 41.8405406,39.5230701 39.945513,38.3397545 C37.2623819,36.664004 33.769509,35.6722691 29.7729366,35.3002297 C32.11043,37.0811115 34.0329581,38.6808921 35.5792534,40.0997883 Z M35.096567,53.925681 C34.7023015,54.3124278 34.0691658,54.3063326 33.682419,53.912067 C33.2956722,53.5178015 33.3017674,52.8846658 33.696033,52.497919 C34.5201469,51.6895212 34.9452428,51.2805838 35.599033,50.6615021 L35.6022529,50.6584531 C36.1495785,50.1401905 36.3615166,49.938215 36.7932485,49.5208401 C37.1903191,49.1369737 37.8233936,49.1476779 38.2072599,49.5447485 C38.5911263,49.9418191 38.5804221,50.5748936 38.1833515,50.9587599 C37.7454438,51.3821054 37.5293587,51.5880329 36.9773838,52.110698 C36.3285229,52.7251121 35.9118048,53.1259901 35.096567,53.925681 Z M25.6356068,75.0706932 C26.0261311,75.4612175 26.0261311,76.0943825 25.6356068,76.4849068 C25.2450825,76.8754311 24.6119175,76.8754311 24.2213932,76.4849068 C23.8211457,76.0846593 23.4703243,75.6505431 23.1779363,75.1933968 C20.4149747,70.8711073 21.0935714,65.1877397 24.8053983,61.3818041 C26.548134,59.5938624 28.5793064,57.5594501 30.8543182,55.3158023 C31.2475436,54.927998 31.8806933,54.9323927 32.2684977,55.3256182 C32.656302,55.7188436 32.6519073,56.3519933 32.2586818,56.7397977 C29.9923083,58.9749263 27.9699802,61.0004801 26.2374024,62.7780004 C23.1649035,65.9283987 22.6084136,70.5891002 24.8629267,74.115989 C25.0764683,74.4498596 25.3363161,74.7714025 25.6356068,75.0706932 Z M56.99,48.1899 C56.844,48.7219 56.293,49.0349 55.761,48.8889 C55.228,48.7419 54.915,48.1909 55.062,47.6589 C55.209,47.1269 55.759,46.8139 56.292,46.9609 C56.824,47.1069 57.136,47.6569 56.99,48.1899 Z M60.3152,51.1801 C60.1692,51.7121 59.6182,52.0251 59.0862,51.8791 C58.5532,51.7321 58.2412,51.1811 58.3872,50.6491 C58.5342,50.1171 59.0852,49.8041 59.6172,49.9511 C60.1492,50.0971 60.4612,50.6471 60.3152,51.1801 Z M54.698,52.7451 C54.166,52.5981 53.853,52.0481 54,51.5151 C54.146,50.9831 54.697,50.6701 55.229,50.8171 C55.761,50.9631 56.075,51.5141 55.928,52.0461 C55.781,52.5781 55.231,52.8911 54.698,52.7451 Z M67.8152,28.0805 C67.3512,28.3805 66.7322,28.2475 66.4322,27.7835 C66.1322,27.3195 66.2662,26.7005 66.7302,26.4005 C67.1942,26.1015 67.8132,26.2335 68.1122,26.6975 C68.4122,27.1615 68.2792,27.7805 67.8152,28.0805 Z M68.3064,32.5253 C67.8424,32.8253 67.2234,32.6923 66.9234,32.2283 C66.6234,31.7643 66.7564,31.1453 67.2204,30.8453 C67.6844,30.5463 68.3034,30.6793 68.6034,31.1433 C68.9034,31.6073 68.7704,32.2263 68.3064,32.5253 Z M63.073,29.954 C62.773,29.49 62.906,28.871 63.37,28.571 C63.834,28.272 64.453,28.405 64.753,28.869 C65.052,29.332 64.92,29.952 64.456,30.251 C63.992,30.551 63.373,30.418 63.073,29.954 Z" id="Corn" fill="#2F313A" fill-rule="nonzero"></path>
    </g>
</svg>