<?xml version="1.0" encoding="UTF-8"?>
<svg width="100px" height="100px" viewBox="0 0 100 100" version="1.1" xmlns="http://www.w3.org/2000/svg" xmlns:xlink="http://www.w3.org/1999/xlink">
    <!-- Generator: Sketch 59.1 (86144) - https://sketch.com -->
    <title>Vector Files/100x100/Flattened/Subcategories/Cranberries</title>
    <desc>Created with Sketch.</desc>
    <g id="100x100/Flattened/Subcategories/Cranberries" stroke="none" stroke-width="1" fill="none" fill-rule="evenodd">
        <path d="M38.4540943,48.8024694 C43.5641355,50.7403638 47.5654082,54.9310637 49.2455583,60.162215 C57.2674182,59.8314798 63.6685,53.2243736 63.6685,45.1212 C63.6685,36.8074865 56.9289323,30.0682 48.6145,30.0682 C40.3009271,30.0682 33.5615,36.8076271 33.5615,45.1212 C33.5615,45.9997992 33.6362848,46.8668596 33.7838133,47.7168711 C34.5923126,47.7937555 35.3852634,47.9239532 36.1591112,48.1039097 C35.9270361,47.13537 35.8079,46.1357732 35.8079,45.1207 C35.8079,43.7707431 36.0194875,42.4452498 36.4295127,41.1787029 C36.5996148,40.6532662 37.1634604,40.3652106 37.6888971,40.5353127 C38.2143338,40.7054148 38.5023894,41.2692604 38.3322873,41.7946971 C37.9863206,42.8633705 37.8079,43.9810892 37.8079,45.1207 C37.8079,46.392145 38.0289121,47.6330234 38.4540908,48.8024681 L38.4540943,48.8024694 Z M52.7126731,62.7081112 C51.8082631,62.9180019 50.8777853,63.0599333 49.9269112,63.1282339 C50.0384785,63.9140825 50.0994508,64.7162234 50.1064253,65.5312539 C50.1118296,65.5830313 50.1146,65.6355921 50.1146,65.6888 C50.1146,74.0027323 56.8543865,80.7428 65.1686,80.7428 C73.4828135,80.7428 80.2226,74.0027323 80.2226,65.6888 C80.2226,57.5887064 73.8250564,50.9825572 65.806925,50.6480887 C64.1179149,55.9067158 60.0833312,60.1139196 54.9347415,62.0381326 C54.9364671,62.1454032 54.920824,62.2547822 54.8859084,62.3625406 C54.5401348,63.4296855 54.3616,64.5483502 54.3616,65.6883 C54.3616,69.5782638 56.4450841,73.1151948 59.7561265,75.0397382 C60.2336108,75.317276 60.3956995,75.9293422 60.1181618,76.4068265 C59.840624,76.8843108 59.2285578,77.0463995 58.7510735,76.7688618 C54.8306741,74.4901297 52.3616,70.2986194 52.3616,65.6883 C52.3616,64.6762929 52.4805155,63.6776194 52.7126731,62.7081112 L52.7126731,62.7081112 Z M63.0073209,34.2207037 C63.057722,34.1306457 63.1086563,34.0410298 63.1601176,33.9518701 C64.1543604,32.2274313 65.6508426,30.317287 67.6026534,28.208466 C68.8225771,26.8904075 70.2047085,25.511698 71.7585275,24.0477622 C73.0139888,22.864925 74.3229561,21.6799211 75.8647566,20.3187716 C76.5080675,19.7508367 78.7617886,17.7796937 79.2158633,17.3773806 C79.858074,16.8083777 80.8458448,16.8930334 81.3818698,17.5630156 C83.8109695,20.5991681 85.9219003,26.0068019 85.8291218,31.3248898 C85.7049711,38.441235 81.8976197,44.8128332 73.7165702,49.7826478 C79.3760346,52.8304509 83.2226,58.8105012 83.2226,65.6888 C83.2226,75.6595585 75.1396958,83.743 65.1686,83.743 C57.7599366,83.743 51.3936866,79.2802869 48.6108936,72.8967191 C45.8281463,79.2803937 39.4618408,83.743 32.0531,83.743 C22.0835042,83.743 14.0001,75.6592585 14.0001,65.689 C14.0001,56.1591613 21.3838419,48.3538436 30.7415813,47.6819182 C30.6219556,46.8392308 30.5615,45.9842919 30.5615,45.1212 C30.5615,35.1507729 38.6440729,27.0682 48.6145,27.0682 C54.4904291,27.0682 59.7105543,29.8748853 63.0073209,34.2207037 L63.0073209,34.2207037 Z M64.8499363,37.2154098 C66.0148256,39.602997 66.6685,42.2857468 66.6685,45.1212 C66.6685,45.9906268 66.607053,46.8456937 66.4882645,47.6822952 C67.7610479,47.7742422 68.9972618,47.9981329 70.1832968,48.3403557 C78.8966082,43.7137854 82.7147494,37.8545731 82.8295782,31.2725602 C82.8971543,27.3990841 81.5751102,23.3972614 79.9415868,20.7327176 C79.1449534,21.4310444 78.2213116,22.2401457 77.8502262,22.5677515 C76.3307432,23.9091984 75.0444542,25.0736717 73.8157525,26.2312972 C72.3084283,27.6514278 70.9733889,28.983162 69.8043524,30.2462396 C67.991674,32.204736 66.6234091,33.9512207 65.7587332,35.4509353 C65.4310741,36.0186237 65.1273906,36.6084073 64.8499363,37.2154098 L64.8499363,37.2154098 Z M47.1071,65.689 C47.1071,57.3744271 40.3676729,50.635 32.0531,50.635 C23.7400271,50.635 17.0001,57.3749271 17.0001,65.689 C17.0001,74.0024322 23.7403865,80.743 32.0531,80.743 C40.3673135,80.743 47.1071,74.0029323 47.1071,65.689 Z M23.2831604,59.3816396 C22.9599415,59.8294655 22.3348862,59.9304793 21.8870604,59.6072604 C21.4392345,59.2840415 21.3382207,58.6589862 21.6614396,58.2111604 C22.2141863,57.4453196 22.849966,56.7417706 23.5567225,56.1131807 C23.9694003,55.7461447 24.6014833,55.7831446 24.9685193,56.1958225 C25.3355553,56.6085003 25.2985554,57.2405833 24.8858775,57.6076193 C24.2880106,58.1393627 23.750371,58.7343107 23.2831604,59.3816396 Z M26.6417198,75.0396762 C27.1192384,75.317155 27.2814026,75.9292013 27.0039238,76.4067198 C26.726445,76.8842384 26.1143987,77.0464026 25.6368802,76.7689238 C21.7156329,74.4903462 19.2463,70.2989037 19.2463,65.6883 C19.2463,64.3379427 19.4580233,63.0113252 19.8679916,61.7460594 C20.0382281,61.2206663 20.6021474,60.932755 21.1275406,61.1029916 C21.6529337,61.2732281 21.940845,61.8371474 21.7706084,62.3625406 C21.4248348,63.4296855 21.2463,64.5483502 21.2463,65.6883 C21.2463,69.5784666 23.3299548,73.1152595 26.6417198,75.0396762 Z M39.8447604,38.8147396 C39.5215415,39.2625655 38.8964862,39.3635793 38.4486604,39.0403604 C38.0008345,38.7171415 37.8998207,38.0920862 38.2230396,37.6442604 C38.7757863,36.8784196 39.411566,36.1748706 40.1183225,35.5462807 C40.5310003,35.1792447 41.1630833,35.2162446 41.5301193,35.6289225 C41.8971553,36.0416003 41.8601554,36.6736833 41.4474775,37.0407193 C40.8496106,37.5724627 40.311971,38.1674107 39.8447604,38.8147396 Z" id="Cranberries" fill="#2F313A" fill-rule="nonzero"></path>
    </g>
</svg>