<?xml version="1.0" encoding="UTF-8"?>
<svg width="100px" height="100px" viewBox="0 0 100 100" version="1.1" xmlns="http://www.w3.org/2000/svg" xmlns:xlink="http://www.w3.org/1999/xlink">
    <!-- Generator: Sketch 59.1 (86144) - https://sketch.com -->
    <title>Vector Files/100x100/Flattened/Subcategories/Duck</title>
    <desc>Created with Sketch.</desc>
    <g id="100x100/Flattened/Subcategories/Duck" stroke="none" stroke-width="1" fill="none" fill-rule="evenodd">
        <path d="M47,36.99953 C47,38.1041128 46.1043233,39 45,39 C43.8956767,39 43,38.1041128 43,36.99953 C43,35.8949471 43.8956767,35 45,35 C46.1043233,35 47,35.8949471 47,36.99953 Z M57,36.99953 C57,38.1041128 56.1043233,39 55,39 C53.8956767,39 53,38.1041128 53,36.99953 C53,35.8949471 53.8956767,35 55,35 C56.1043233,35 57,35.8949471 57,36.99953 Z M61.5135336,56.9293763 C59.6448705,58.818805 55.1285576,60 50.0030931,60 C44.8759639,60 40.3582973,58.818222 38.4907685,56.9278744 C38.4859349,56.9295574 38.4812399,56.9311998 38.476684,56.9328012 C38.3973159,56.9606994 38.3147445,56.9784706 38.2309266,56.9856935 C36.468453,57.1375743 34.8273959,56.0678432 34.3087578,54.4102445 L34.1267974,53.8304628 C33.6334077,52.2482088 34.6211893,50.6027369 36.2560364,50.236993 L39.2464478,49.5674509 C41.1940402,49.0710619 42.5714653,48.3656129 43.8368099,47.354122 C44.2946537,46.988131 45.6820732,45.7249027 45.7064583,45.7038418 C47.0646703,44.5307834 48.245485,44 49.9999973,44 C51.7549814,44 52.935932,44.5308324 54.2943285,45.7040896 C54.3183263,45.7248167 55.705864,46.9881425 56.1636952,47.3541146 C57.4290645,48.3656007 58.8066157,49.0710486 60.7262107,49.5606626 L63.7448738,50.2369698 C65.3791368,50.602931 66.3664909,52.2485166 65.8726481,53.8322179 L65.6914984,54.4094097 C65.1725988,56.0678432 63.5315416,57.1375743 61.769068,56.9856935 C61.6852501,56.9784706 61.6026787,56.9606994 61.5233106,56.9328012 L61.5135336,56.9293763 L61.5135336,56.9293763 Z M59.1021346,56.2476851 C58.8020836,56.1748684 58.4907874,56.103145 58.1689507,56.0331452 C55.5523546,55.4640326 52.7856295,55.1225961 49.9999973,55.1225961 C47.2143651,55.1225961 44.44764,55.4640326 41.8310439,56.0331452 C41.5105336,56.1028565 41.2004771,56.1742772 40.9015704,56.2467849 C42.7554586,57.2744685 46.1777421,58 50.0030931,58 C53.8265269,58 57.2470929,57.2753665 59.1021346,56.2476851 L59.1021346,56.2476851 Z M49.8181386,19.531938 C50.1804187,17.480463 49.855808,15.2983939 48.8123382,13.5023545 C48.5348955,13.024815 48.697106,12.412781 49.1746455,12.1353382 C49.652185,11.8578955 50.264219,12.020106 50.5416618,12.4976455 C51.7647824,14.6029032 52.1890242,17.1138719 51.8464167,19.5118133 C55.8003034,19.5884327 57.4706367,20.0671151 59.7691421,21.7870203 C62.3047237,23.6835574 64.0884795,26.6591962 65.0435017,30.1824459 C65.7259689,32.6962953 65.9683268,34.9635963 66.1260124,39.0334571 C69.8149724,42.7450506 71.010085,47.8944004 70.4057173,54.3922331 C70.1534058,57.1049502 69.6357278,59.8041087 68.7603554,63.4228589 C68.67097,63.7923744 68.5778611,64.1721759 68.4658787,64.6250947 C68.4270886,64.7819831 68.3319056,65.1657986 68.2618316,65.4483159 C70.1016322,74.35187 73.69614,81.8069733 79.0368948,86.9160954 C79.6355188,87.4887566 79.6565658,88.4382708 79.0839046,89.0368948 C78.5112434,89.6355188 77.5617292,89.6565658 76.9631052,89.0839046 C71.0629434,83.4396374 67.1844059,75.316073 65.25382,65.7115672 C65.21017,65.494412 65.2151543,65.2702848 65.2684148,65.0552847 C65.2854674,64.9864471 65.4918379,64.1547329 65.5535739,63.9050387 C65.6644403,63.4566334 65.7564073,63.0814897 65.8444548,62.7175052 C66.688642,59.227673 67.1825393,56.6525065 67.4186102,54.1144003 C67.9692774,48.193926 66.8736057,43.7903881 63.6314345,40.7947186 C63.3376578,40.5232777 63.1644589,40.1457475 63.1503229,39.7460162 C63.0005467,35.5106934 62.785468,33.3154441 62.148144,30.967878 C61.3556935,28.0443851 59.9165506,25.6436252 57.9720335,24.1891861 C56.1338796,22.8137486 54.9534638,22.5216419 50.981636,22.5012009 C50.6629977,23.2064425 50.2673103,23.8772986 49.7956222,24.4967932 C49.4610519,24.9362032 48.8336168,25.0211925 48.3942068,24.6866222 C47.9547968,24.3520519 47.8698075,23.7246168 48.2043778,23.2852068 C48.3950381,23.0348019 48.5704039,22.7735379 48.7303638,22.5032138 C44.9880825,22.536664 43.8209041,22.8475827 42.0277341,24.18936 C40.0830167,25.6439488 38.6431042,28.0452485 37.850854,30.9680023 C37.2143907,33.3152325 36.9994465,35.5108853 36.8496771,39.7460162 C36.8355411,40.1457475 36.6623422,40.5232777 36.3685655,40.7947186 C33.1263943,43.7903881 32.0307226,48.193926 32.5813898,54.1144003 C32.8174607,56.6525065 33.311358,59.227673 34.1555452,62.7175052 C34.2435927,63.0814897 34.3355597,63.4566334 34.4464261,63.9050387 C34.5081621,64.1547329 34.7145326,64.9864471 34.7315852,65.0552847 C34.7848592,65.270339 34.7898323,65.4945243 34.7461474,65.7117294 C32.8144049,75.3165037 28.9360327,83.439722 23.0369807,89.0838225 C22.438402,89.6565311 21.4888861,89.6355593 20.9161775,89.0369807 C20.3434689,88.438402 20.3644407,87.4888861 20.9630193,86.9161775 C26.3028255,81.8071528 29.8972519,74.3522112 31.7381476,65.4482322 C31.6680756,65.1657228 31.5729075,64.7819676 31.5341213,64.6250947 C31.4221389,64.1721759 31.32903,63.7923744 31.2396446,63.4228589 C30.3642722,59.8041087 29.8465942,57.1049502 29.5942827,54.3922331 C28.9899151,47.894401 30.1850274,42.7450515 33.8739865,39.0334582 C34.031641,34.964048 34.2738048,32.6965985 34.9553764,30.1830123 C35.9103397,26.6599802 37.6949899,23.6837716 40.2306254,21.7871942 C42.7759864,19.8825742 44.5509087,19.5 49.5087719,19.5 C49.6148247,19.5 49.7183069,19.511006 49.8181386,19.531938 L49.8181386,19.531938 Z M63.7830095,53.8113549 L63.9638718,53.2350834 C64.1045647,52.7838946 63.8156353,52.3023469 63.3077329,52.1886121 L60.2606473,51.5055026 C58.0293772,50.936901 56.3966379,50.1007705 54.9149145,48.9163396 C54.3971456,48.5024557 52.9680407,47.2012836 52.9870271,47.2176824 C51.9640171,46.334101 51.2207378,46 49.9999973,46 C48.7797325,46 48.0365683,46.3340568 47.0137345,47.2174563 C47.032332,47.201394 45.6033851,48.5024325 45.0856091,48.9163322 C43.6039321,50.1007548 41.9713414,50.936887 39.7120476,51.5122817 L36.6929795,52.1886796 C36.1843979,52.3024582 35.8954163,52.7838511 36.0355737,53.2333283 L36.2172467,53.8121896 C36.4424561,54.5319723 37.1557643,55.0216492 37.9512274,54.9992506 C37.9882454,54.986985 38.0307481,54.9730685 38.0786292,54.9575996 C38.2851115,54.8908916 38.5252866,54.816978 38.7971895,54.7376869 C39.5689664,54.5126248 40.4437783,54.2881169 41.4059797,54.078837 C44.1536948,53.4812059 47.0595784,53.1225961 49.9999973,53.1225961 C52.9404162,53.1225961 55.8462998,53.4812059 58.5940149,54.078837 C59.5562163,54.2881169 60.4310283,54.5126248 61.2028051,54.7376869 C61.474708,54.816978 61.7148831,54.8908916 61.9213654,54.9575996 C61.9692464,54.9730685 62.011749,54.986985 62.048767,54.9992506 C62.8442307,55.0216477 63.5575497,54.5319364 63.7830095,53.8113549 Z M55.3142469,69.1440711 C54.7797065,69.2829414 54.2337992,68.9621874 54.0949289,68.4276469 C53.9560586,67.8931065 54.2768126,67.3471992 54.8113531,67.2083289 C55.7757403,66.9577871 56.7393808,66.652755 57.7012721,66.2903987 C58.2181009,66.0957029 58.7949055,66.3568433 58.9896013,66.8736721 C59.1842971,67.3905009 58.9231567,67.9673055 58.4063279,68.1620013 C57.3778134,68.5494554 56.346687,68.8758495 55.3142469,69.1440711 Z M38.364083,68.1197215 C37.8707705,67.8714049 37.6721619,67.2701956 37.9204785,66.776883 C38.1687951,66.2835705 38.7700044,66.0849619 39.263317,66.3332785 C39.352546,66.3781934 39.5487399,66.4670573 39.845412,66.5855982 C40.3538563,66.7887567 40.9501036,66.9932623 41.6276709,67.184945 C44.2636824,67.9306682 47.2858363,68.2649998 50.5899606,67.9539032 C51.1398135,67.9021324 51.6275259,68.3059077 51.6792968,68.8557606 C51.7310676,69.4056135 51.3272923,69.8933259 50.7774394,69.9450968 C47.2130907,70.2806945 43.9458763,69.9192526 41.0832407,69.1094178 C39.7984299,68.745947 38.8757107,68.3772572 38.364083,68.1197215 Z" id="Duck" fill="#2F313A" fill-rule="nonzero"></path>
    </g>
</svg>