<?xml version="1.0" encoding="UTF-8"?>
<svg width="100px" height="100px" viewBox="0 0 100 100" version="1.1" xmlns="http://www.w3.org/2000/svg" xmlns:xlink="http://www.w3.org/1999/xlink">
    <!-- Generator: Sketch 59.1 (86144) - https://sketch.com -->
    <title>Vector Files/100x100/Flattened/Subcategories/Eggplant</title>
    <desc>Created with Sketch.</desc>
    <g id="100x100/Flattened/Subcategories/Eggplant" stroke="none" stroke-width="1" fill="none" fill-rule="evenodd">
        <path d="M42.6239964,19.8970071 C42.5741266,19.5839199 42.5609863,19.2766761 42.5602198,18.8242638 C42.5601676,18.7862828 42.5601676,18.7862828 42.5601404,18.7492618 C42.5600094,18.571743 42.5594653,18.4957932 42.5571234,18.4075213 C42.4911644,15.9112872 40.5441556,13.5256013 38.1123815,12.9610402 C37.305416,12.773695 36.8031145,11.9676469 36.9904598,11.1606815 C37.177805,10.353716 37.9838531,9.85141454 38.7908185,10.0387598 C42.5531926,10.9122331 45.4540396,14.466665 45.5560724,18.3281181 C45.5593227,18.4506315 45.5599896,18.5437042 45.5601395,18.7470492 C45.5601665,18.783592 45.5601665,18.783592 45.5602155,18.8191812 C45.5603662,18.9081145 45.5611054,18.9859143 45.5625921,19.054872 C47.7551341,17.574308 50.256178,16.979238 53.0869542,17.7954107 C54.1513765,18.1023062 55.0459031,18.5172471 56.3717433,19.2519295 C56.5245839,19.3366224 57.1225333,19.6709753 57.0298225,19.6192398 C60.0155449,21.2854508 61.7492835,21.7665695 64.8895843,21.3121616 C65.9125832,21.1641316 66.7752242,22.0708997 66.5763851,23.0852481 C65.8775641,26.6501793 62.5680069,30.1233746 58.7918179,31.4268953 C60.2685067,35.1503847 62.1470342,38.2737994 66.2233441,44.296734 C66.5478837,44.7761572 66.7095612,45.0150478 66.8726694,45.2563653 C72.700195,53.8781534 75.0969713,58.5592848 76.0258894,64.899286 C77.1578848,72.6340346 74.7336077,80.6045717 69.4070092,85.6436665 C68.4814467,86.5184095 67.4570993,87.2998536 66.3543644,87.9755114 C65.2698941,88.6399783 64.1129826,89.2006333 62.9056617,89.648756 L62.8074067,89.6814137 C52.6856419,92.6618979 41.9563525,88.4869421 37.2570592,79.0873204 C34.0323299,72.6378617 33.4439623,67.6158557 33.5155654,55.5942512 C33.5324119,52.7658533 33.5319787,51.4581367 33.5023007,49.7520533 C33.5389072,48.4589545 33.598466,47.1400807 33.6803567,45.7852649 C33.7574522,44.4916207 33.8531923,43.3595675 33.9953736,41.9730173 C34.0100676,41.8297213 34.1173109,40.8256507 34.2191919,39.8580912 C32.1752718,40.4441394 30.1065875,40.4802519 26.4095595,40.2559468 C25.1652872,40.1804547 24.5506901,38.7082611 25.3719475,37.7704718 C26.253734,36.7635646 26.7232977,35.340428 27.4767533,31.8624407 C27.5247724,31.6406926 27.5247724,31.6406926 27.5732045,31.4175634 C28.2619124,28.2496455 28.7466518,26.6540288 29.6846139,25.1149396 C32.1001973,21.1523338 37.3022255,19.0242408 42.6239964,19.8970071 Z M38.7322532,37.2658985 C38.3209851,37.682939 37.8657043,38.0643171 37.3778099,38.4023896 C37.3777876,38.4515202 37.3753612,38.5011059 37.3704282,38.5510217 C37.2814984,39.4508757 37.0028657,42.0533665 36.9797242,42.2790421 C36.841607,43.6259604 36.7493621,44.7166847 36.6749674,45.9650005 C36.5948903,47.2898204 36.5367748,48.5767337 36.5014475,49.7669764 C36.5320623,51.4351665 36.5325011,52.7598095 36.5155122,55.6121195 C36.4466402,67.175191 36.9948909,71.8547798 39.9403408,77.7456796 C43.9591029,85.784089 53.151763,89.3733851 61.9101104,86.8182071 C62.9188112,86.4403603 63.8839271,85.9708332 64.7870356,85.4174886 C65.7141939,84.8494085 66.5730499,84.194213 67.3458548,83.4638403 C71.9283849,79.1286526 74.0537515,72.1408731 73.0575458,65.3339539 C72.2142087,59.5780561 69.9725175,55.1998204 64.3871691,46.936332 C64.2246511,46.6958877 64.0635618,46.4578663 63.7388714,45.97822 C59.3433485,39.4836337 57.4012402,36.2155731 55.7832271,31.9671632 C55.0816638,31.9729445 54.3831174,31.8898062 53.7003239,31.7054054 C53.4149758,33.1576319 52.789974,34.6068102 51.7233385,36.6261575 C51.6078152,36.8443408 51.6078152,36.8443408 51.4930096,37.0608254 C50.2784713,39.3523215 49.804023,40.4740708 49.6037529,41.811188 C49.366045,43.3982611 47.1381648,43.5538706 46.6821384,42.0152524 C46.4039698,41.0767208 45.4262698,40.2366664 43.9248113,39.6004387 C43.5421667,39.4385412 43.208179,39.3130907 42.4827616,39.0522568 L42.4538255,39.0418527 C40.708608,38.4143612 39.9270427,38.078121 38.9919839,37.451221 C38.903218,37.391604 38.816641,37.3298039 38.7322532,37.2658985 L38.7322532,37.2658985 Z M36.8807985,34.8498834 C36.504443,33.9609825 36.30954,32.9610781 36.2964166,31.908704 C36.2860867,31.0803413 36.9492333,30.4004466 37.777596,30.3901166 C38.6059587,30.3797867 39.2858534,31.0429333 39.2961834,31.871296 C39.3135519,33.2640848 39.8039876,34.3827631 40.6636008,34.9600977 C41.3247174,35.4033357 41.9548167,35.6744131 43.4688572,36.2187852 L43.49783,36.2292024 C44.2744333,36.5084409 44.6440085,36.6472586 45.0945362,36.8378778 C46.0297955,37.2341842 46.8590631,37.7090346 47.5505605,38.2704716 C47.8740812,37.5261044 48.2939562,36.6904996 48.8423126,35.6559035 C48.9575406,35.4386215 48.9575406,35.4386215 49.0709585,35.2244158 C50.2950312,32.9070091 50.8101688,31.5513185 50.8790113,30.1013687 C50.9251305,29.1367089 50.6604008,28.1442746 50.1634029,27.4234864 C49.6931399,26.7414715 49.8647988,25.8073658 50.5468136,25.3371029 C51.2288285,24.8668399 52.1629342,25.0384988 52.6331971,25.7205136 C53.2049089,26.549658 53.5901286,27.5325219 53.7691665,28.5586587 C53.8170568,28.5736627 53.8646491,28.5912025 53.9117834,28.6113425 C56.9064929,29.890947 61.0627927,27.4668756 62.8469847,24.4771288 C60.2800307,24.4793255 58.2699017,23.7470797 55.5647272,22.2371603 C55.6669036,22.2941911 55.0660966,21.9582327 54.9176822,21.8759924 C53.7735203,21.2419827 53.0533884,20.9079377 52.2558458,20.6779893 C49.7561782,19.9572822 47.5579649,20.9401088 45.5929167,22.9330468 C45.5408543,22.9882888 45.4848782,23.0392392 45.4255953,23.0855967 C45.2519953,23.22196 45.0550826,23.3146916 44.8497641,23.3636518 C44.6445388,23.4130014 44.4269814,23.4195198 44.2104449,23.3765795 C44.1366502,23.3621134 44.0637221,23.3420632 43.9923363,23.3164227 C39.2150961,21.7219544 34.2644966,23.365555 32.2462818,26.6763035 C31.5428989,27.830475 31.1216966,29.2169467 30.5047278,32.0548789 C30.4567892,32.2757344 30.4567892,32.2757344 30.4087416,32.4976135 C29.929696,34.7089111 29.5469002,36.2113959 29.0747107,37.3728881 C31.3698124,37.4229448 32.7594441,37.2460704 34.20674,36.7038222 C35.2413877,36.3166904 36.1932508,35.6535945 36.8807985,34.8498834 L36.8807985,34.8498834 Z M70.8839622,69.7195407 C70.8564911,70.2711418 70.3870604,70.6960332 69.8354593,70.6685622 C69.2838582,70.6410911 68.8589668,70.1716604 68.8864378,69.6200593 C68.9469756,68.4044988 68.8890731,67.1813973 68.7107476,65.9706586 C68.1320557,62.0179193 66.462061,58.2588896 63.3995898,53.4154836 C62.5727673,52.1078348 61.8777597,51.0637864 60.2580361,48.6702861 C59.7889871,47.9772278 59.6390128,47.7554416 59.4059483,47.4097304 C57.8854589,45.1543442 56.8582788,43.573847 55.8685914,41.9307668 C55.5836308,41.4576749 55.7361414,40.843152 56.2092332,40.5581914 C56.6823251,40.2732308 57.296848,40.4257414 57.5818086,40.8988332 C58.5502062,42.506568 59.561252,44.0622399 61.0642919,46.2917427 C61.2964271,46.6360755 61.4460448,46.8573344 61.9143885,47.5493504 C63.5458881,49.9602524 64.2483287,51.0154668 65.0900193,52.34663 C68.2888553,57.4057016 70.0626845,61.398455 70.6895266,65.6800852 C70.8868732,67.0199643 70.9509738,68.3739903 70.8839622,69.7195407 Z M65.7032619,81.7244097 C65.3020769,82.103974 64.6691545,82.0864469 64.2895903,81.6852619 C63.910026,81.2840769 63.9275531,80.6511545 64.3287381,80.2715903 C65.8620265,78.8209341 67.0702811,76.9294007 67.8613026,74.7559929 C68.0501879,74.2370124 68.6240266,73.9694173 69.1430071,74.1583026 C69.6619876,74.3471879 69.9295827,74.9210266 69.7406974,75.4400071 C68.8461877,77.8977585 67.4688824,80.0539424 65.7032619,81.7244097 Z" id="Eggplant" fill="#2F313A" fill-rule="nonzero"></path>
    </g>
</svg>