<?xml version="1.0" encoding="UTF-8"?>
<svg width="100px" height="100px" viewBox="0 0 100 100" version="1.1" xmlns="http://www.w3.org/2000/svg" xmlns:xlink="http://www.w3.org/1999/xlink">
    <!-- Generator: Sketch 59.1 (86144) - https://sketch.com -->
    <title>Vector Files/100x100/Flattened/Subcategories/Garlic</title>
    <desc>Created with Sketch.</desc>
    <g id="100x100/Flattened/Subcategories/Garlic" stroke="none" stroke-width="1" fill="none" fill-rule="evenodd">
        <path d="M48.5,73.5 L47.3342824,73.5 L43.9751498,77.6671828 C43.6285454,78.097164 42.9989984,78.1647542 42.5690172,77.8181498 C42.139036,77.4715454 42.0714458,76.8419984 42.4180502,76.4120172 L44.7654039,73.5 L28.7951289,73.5 C18.4093834,73.5 13.1079487,63.6998711 15.5912086,52.2501586 C18.1800607,40.3135861 27.9948754,31.2467851 41.8267076,30.5047739 C42.3926161,28.7979508 42.3690608,26.2246749 41.7453863,23.3143051 C41.5452847,22.3805336 42.2571163,21.5 43.2120874,21.5 L55.4541624,21.5 C56.4091335,21.5 57.1209651,22.3805336 56.9208635,23.3143051 C56.3161023,26.1364162 56.3942894,28.769544 57.0859272,30.5075282 C57.1530746,30.5007803 57.2214675,30.4984858 57.2907932,30.500936 C71.2847524,30.9955371 81.3918043,40.004965 84.275885,52.0401442 C87.0355394,63.5560963 81.923836,73.5 71.5116792,73.5 L54.2882961,73.5 L56.6356498,76.4120172 C56.9822542,76.8419984 56.914664,77.4715454 56.4846828,77.8181498 C56.0547016,78.1647542 55.4251546,78.097164 55.0785502,77.6671828 L51.7194176,73.5 L50.5,73.5 L50.5,78 C50.5,78.5522847 50.0522847,79 49.5,79 C48.9477153,79 48.5,78.5522847 48.5,78 L48.5,73.5 L48.5,73.5 Z M70.0183146,70.5 L71.5116792,70.5 C79.6518035,70.5 83.7187338,62.5885153 81.3584833,52.7392631 C78.9728367,42.7840342 71.104268,35.1764622 59.9855558,33.7288564 C59.9926077,33.7784529 59.9971894,33.8285867 59.9992098,33.8790851 C66.3339458,36.5168402 71.1985035,42.0114428 73.6518348,48.8088115 C73.8393291,49.3282962 73.5701977,49.9014159 73.050713,50.0889102 C72.5312284,50.2764045 71.9581087,50.0072732 71.7706143,49.4877885 C69.4060038,42.9362356 64.647313,37.721712 58.5037601,35.4394514 C58.355752,35.4397781 58.2051858,35.4180286 58.0563457,35.3719444 C54.2331573,34.1882001 52.9883698,29.6407353 53.6716434,24.5 L45.0093277,24.5 C45.804304,29.8527027 44.7789405,34.245399 40.9436543,35.432889 C40.8069941,35.475202 40.6688788,35.4970001 40.5326244,35.5000314 C28.2544728,40.235284 22.2739129,57.2589873 28.6426469,66.3643405 C28.9591942,66.8169068 28.848929,67.4403966 28.3963626,67.7569438 C27.9437963,68.0734911 27.3203066,67.9632258 27.0037593,67.5106595 C20.0164457,57.5209256 26.0942612,39.5732598 38.9999531,33.9671268 C39.0011026,33.9143427 39.0050543,33.8619214 39.0117052,33.8100587 C28.1728098,35.5035915 20.6460269,43.0974752 18.5230461,52.8860274 C16.3998418,62.6756101 20.6324893,70.5 28.7951289,70.5 L39.305499,70.5 C29.062157,65.7434512 28.8343145,50.6871961 39.5405719,40.0432331 C39.9322339,39.6538499 40.5653962,39.6556973 40.9547794,40.0473594 C41.3441626,40.4390214 41.3423152,41.0721837 40.9506531,41.4615669 C35.5670713,46.8138244 32.872275,54.0307104 33.7864088,60.0184818 C34.7189503,66.1268279 39.1853187,69.9363516 46.5371198,69.9996 L52.1494125,69.9996 C60.7420004,69.9996 65.4453922,64.8723546 65.1973073,57.1813397 C64.9488313,49.4781987 59.745358,41.2933153 51.607642,36.8314465 C51.1233731,36.5659242 50.9460438,35.9580984 51.211566,35.4738295 C51.4770883,34.9895606 52.0849141,34.8122313 52.569183,35.0777535 C61.3169969,39.874136 66.9245986,48.6946994 67.1962677,57.1168603 C67.3963858,63.3208304 64.6783186,68.1766242 59.6392357,70.5 L65.4241595,70.5 C71.5513688,68.761151 74.5375156,62.6518524 73.4863186,54.7167265 C73.413789,54.169225 73.7988298,53.6665905 74.3463313,53.5940608 C74.8938328,53.5215312 75.3964673,53.9065719 75.468997,54.4540735 C76.3950064,61.4442013 74.400353,67.3349029 70.0183146,70.5 L70.0183146,70.5 Z M46.1938529,35.0775831 C46.6782159,34.8122326 47.2859789,34.9897774 47.5513294,35.4741404 C47.8166799,35.9585034 47.6391351,36.5662664 47.1547721,36.8316169 C46.0979749,37.4105662 45.0874122,38.0527072 44.1266076,38.7535179 C43.6804069,39.0789766 43.0548534,38.9810958 42.7293946,38.5348951 C42.4039359,38.0886944 42.5018167,37.4631409 42.9480174,37.1376821 C43.9781264,36.3863209 45.061377,35.6979919 46.1938529,35.0775831 Z M57.4105,60.9805 C57.6985,61.4525 57.5495,62.0675 57.0775,62.3555 C56.6055,62.6425 55.9905,62.4935 55.7035,62.0225 C55.4155,61.5505 55.5645,60.9355 56.0365,60.6475 C56.5085,60.3595 57.1235,60.5095 57.4105,60.9805 Z M61.8665,60.606 C62.1545,61.077 62.0055,61.692 61.5335,61.98 C61.0615,62.268 60.4465,62.119 60.1595,61.647 C59.8715,61.175 60.0205,60.56 60.4925,60.273 C60.9645,59.985 61.5795,60.134 61.8665,60.606 Z M59.4935,64.396 C59.7805,64.867 59.6315,65.483 59.1595,65.77 C58.6885,66.058 58.0725,65.909 57.7855,65.437 C57.4985,64.965 57.6465,64.35 58.1185,64.063 C58.5905,63.775 59.2055,63.924 59.4935,64.396 Z" id="Garlic" fill="#2F313A" fill-rule="nonzero"></path>
    </g>
</svg>