<?xml version="1.0" encoding="UTF-8"?>
<svg width="100px" height="100px" viewBox="0 0 100 100" version="1.1" xmlns="http://www.w3.org/2000/svg" xmlns:xlink="http://www.w3.org/1999/xlink">
    <!-- Generator: Sketch 59.1 (86144) - https://sketch.com -->
    <title>Vector Files/100x100/Flattened/Subcategories/Grapes</title>
    <desc>Created with Sketch.</desc>
    <g id="100x100/Flattened/Subcategories/Grapes" stroke="none" stroke-width="1" fill="none" fill-rule="evenodd">
        <path d="M69.6360579,21.1112233 C71.2231926,17.7110264 71.4951785,13.5200988 70.8712753,10.6249369 C68.0558206,12.0684169 65.3116106,13.7607538 60.7151343,16.7677572 C60.3407253,17.0127587 60.3407253,17.0127587 59.9658047,17.2581687 C59.4354034,17.6053126 59.087678,17.8326006 58.7304572,18.0654405 C56.7514505,19.3553237 55.2160825,20.6908119 54.0672717,22.0782384 C51.871019,24.7306674 51.1644187,27.0203817 51.1975075,30.7502039 C61.0990473,30.3483685 66.9810423,26.7991942 69.6360579,21.1112233 Z M57.2995,46.333 C62.0569271,46.333 65.9135,50.1895729 65.9135,54.947 C65.9135,59.7044271 62.0569271,63.561 57.2995,63.561 C52.5427601,63.561 48.6855,59.7041144 48.6855,54.947 C48.6855,50.1898856 52.5427601,46.333 57.2995,46.333 Z M57.2995,49.333 C54.1995492,49.333 51.6855,51.8468051 51.6855,54.947 C51.6855,58.0471949 54.1995492,60.561 57.2995,60.561 C60.4000729,60.561 62.9135,58.0475729 62.9135,54.947 C62.9135,51.8464271 60.4000729,49.333 57.2995,49.333 Z M73.168577,7.92182592 C74.637928,11.4407413 74.6206523,17.52522 72.3544921,22.3801267 C69.203762,29.130091 62.3042702,33.2955586 51.3413922,33.7468144 C51.450581,35.2244713 51.4804321,35.7565559 51.482395,36.5149176 C51.4845392,37.3433419 50.8147068,38.0166508 49.9862824,38.0188001 C49.1578581,38.0209392 48.4845492,37.3511068 48.482405,36.5226824 C48.4806251,35.8350022 48.4506477,35.3275786 48.336721,33.7948228 C47.8741177,27.5710131 48.4342881,24.177296 51.7565761,20.1649464 C53.1067854,18.5342896 54.8698702,17.0007298 57.0923198,15.5521745 C57.4475753,15.3206156 57.7939708,15.0941969 58.3229197,14.7480036 C58.6976714,14.5027041 58.6976714,14.5027041 59.0727684,14.2572524 C64.6156179,10.6311341 67.5452761,8.86272343 71.1377565,7.14634068 C71.9119018,6.7764765 72.8379901,7.13011077 73.168577,7.92182592 Z M44.2663875,37.617183 C45.8096114,36.156861 47.892807,35.2608 50.1853,35.2608 C52.4653317,35.2608 54.5552424,36.1518571 56.1055555,37.6171809 C57.6825113,36.1239689 59.7835893,35.2608 62.0255,35.2608 C66.7828016,35.2608 70.6385,39.1173473 70.6385,43.8749 C70.6385,44.7626289 70.5038472,45.632475 70.2433908,46.4605968 C74.2926709,47.1644578 77.371,50.6960147 77.371,54.947 C77.371,59.141732 74.3736029,62.63595 70.4036284,63.40398 C70.5587493,64.0543898 70.6385,64.7263097 70.6385,65.409 C70.6385,69.2376278 68.142403,72.481962 64.6886363,73.6035111 C64.9270212,74.3987021 65.0504,75.2319049 65.0504,76.0822 C65.0504,80.0323586 62.3913017,83.3615277 58.7651911,84.376978 C58.7884584,84.6347386 58.8002,84.8942595 58.8002,85.155 C58.8002,89.9123016 54.9427527,93.769 50.1852,93.769 C45.4285856,93.769 41.5722,89.9122399 41.5722,85.155 C41.5722,84.8561821 41.5874596,84.5591674 41.6177111,84.264777 C38.1817435,83.1326327 35.7016,79.8968339 35.7016,76.0817 C35.7016,75.2696454 35.81459,74.4726696 36.0329692,73.7090715 C32.3987799,72.6984834 29.7325,69.3655208 29.7325,65.4092 C29.7325,64.7266778 29.8123651,64.0544038 29.9678825,63.4032224 C25.997598,62.6351204 23.0001,59.1413474 23.0001,54.9473 C23.0001,50.1887473 26.8557984,46.3323 31.6141,46.3323 C32.6482273,46.3323 33.6608706,46.5160556 34.6137913,46.870315 C35.3902954,47.1589894 35.7857594,48.0224872 35.497085,48.7989913 C35.2084106,49.5754954 34.3449128,49.9709594 33.5684087,49.682285 C32.9485341,49.4518394 32.2897747,49.3323 31.6141,49.3323 C28.5127831,49.3323 26.0001,51.8454711 26.0001,54.9473 C26.0001,58.0473729 28.5130271,60.5603 31.6141,60.5603 C33.0795603,60.5603 34.4503919,59.9961396 35.4796927,59.0176747 C34.8234088,57.7946558 34.4579,56.4040181 34.4579,54.9466 C34.4579,50.5697863 37.7230854,46.9550198 41.9498445,46.4050372 C41.7011315,45.5941135 41.5723,44.7432593 41.5723,43.8743 C41.5723,42.5034588 41.892543,41.2074053 42.4623092,40.0568858 C41.4103588,38.9224888 39.933806,38.2608 38.3467,38.2608 C35.5414621,38.2608 33.1763588,40.3313284 32.7879409,43.0797037 C32.6720142,43.8999796 31.9130722,44.4709675 31.0927963,44.3550409 C30.2725204,44.2391142 29.7015325,43.4801722 29.8174591,42.6598963 C30.4143416,38.4364636 34.0418081,35.2608 38.3467,35.2608 C40.5871898,35.2608 42.6888609,36.1234492 44.2663875,37.617183 L44.2663875,37.617183 Z M45.2855698,46.6196916 C48.9703032,47.5966865 51.6859,50.954476 51.6859,54.9466 C51.6859,58.1424637 49.9288707,61.0303773 47.1703056,62.5245483 C46.4418706,62.9191036 45.531507,62.6484406 45.1369517,61.9200056 C44.7423964,61.1915706 45.0130594,60.281207 45.7414944,59.8866517 C47.5413048,58.9117882 48.6859,57.0304922 48.6859,54.9466 C48.6859,51.8460271 46.1724729,49.3326 43.0719,49.3326 C39.9719492,49.3326 37.4579,51.8464051 37.4579,54.9466 C37.4579,57.1939531 38.7909084,59.1973543 40.8133204,60.087765 C41.5715162,60.4215771 41.9155472,61.3068245 41.581735,62.0650204 C41.2479229,62.8232162 40.3626755,63.1672472 39.6044796,62.833435 C38.7670145,62.4647229 38.0065554,61.9714319 37.342581,61.3798448 C36.1501405,62.442673 34.6812222,63.1584747 33.089797,63.4338669 C32.8548347,64.0585611 32.7325,64.7245693 32.7325,65.4092 C32.7325,68.5101509 35.2453051,71.0233 38.3465,71.0233 C39.9338766,71.0233 41.4102245,70.3612664 42.4617516,69.227854 C42.1401851,68.5777099 41.8975535,67.8792341 41.7471337,67.143924 C41.5811036,66.332305 42.1044569,65.5397637 42.916076,65.3737337 C43.727695,65.2077036 44.5202363,65.7310569 44.6862663,66.542676 C45.2159931,69.1321851 47.5072725,71.0233 50.1857,71.0233 C53.2862729,71.0233 55.7997,68.5098729 55.7997,65.4093 C55.7997,64.4529914 55.5612814,63.534237 55.1127463,62.7170318 C54.7141448,61.9908029 54.9797394,61.0789477 55.7059682,60.6803463 C56.4321971,60.2817448 57.3440523,60.5473394 57.7426537,61.2735682 C58.4325595,62.5305369 58.7997,63.9453258 58.7997,65.4093 C58.7997,66.7804434 58.4793512,68.0767568 57.909415,69.227479 C58.9613949,70.3615935 60.4378302,71.0233 62.0255,71.0233 C65.1261949,71.0233 67.6385,68.5104509 67.6385,65.409 C67.6385,64.7238652 67.5163316,64.0582204 67.2820076,63.4345847 C65.2190885,63.0776931 63.3618645,61.9808967 62.0455168,60.3455568 C61.5260617,59.7002214 61.6281078,58.755972 62.2734432,58.2365168 C62.9187786,57.7170617 63.863028,57.8191078 64.3824832,58.4644432 C65.4429181,59.7818547 67.0347634,60.561 68.758,60.561 C71.8583169,60.561 74.371,58.0478289 74.371,54.947 C74.371,51.8461711 71.8583169,49.333 68.758,49.333 C68.0963989,49.333 67.4524372,49.4470494 66.8435196,49.6674502 C66.0645495,49.9494024 65.204502,49.5464897 64.9225498,48.7675196 C64.6405976,47.9885495 65.0435103,47.128502 65.8224804,46.8465498 C66.2112302,46.7058398 66.6094236,46.5933434 67.0147237,46.509931 C67.037466,46.4274266 67.0676062,46.3457446 67.1054434,46.2657211 C67.4549721,45.5264879 67.6385,44.71569 67.6385,43.8749 C67.6385,40.7740711 65.1258169,38.2609 62.0255,38.2609 C60.4374495,38.2609 58.961671,38.9226618 57.9100583,40.056426 C58.3060724,40.8566488 58.5820135,41.7292172 58.7133359,42.6519514 C58.8300606,43.4721141 58.2598113,44.2316113 57.4396486,44.3483359 C56.6194859,44.4650606 55.8599887,43.8948113 55.7432641,43.0746486 C55.3524289,40.3284548 52.9889206,38.2613 50.1853,38.2613 C47.0851051,38.2613 44.5723,40.7743491 44.5723,43.8743 C44.5723,44.8323294 44.8101031,45.7502573 45.2585539,46.5681154 C45.2679261,46.5852079 45.2769305,46.602403 45.2855698,46.6196916 L45.2855698,46.6196916 Z M56.105315,71.6670897 C54.5618744,73.1276245 52.4783973,74.0233 50.1857,74.0233 C47.9109692,74.0233 45.8188701,73.1350538 44.2659531,71.6673188 C42.8680106,72.9906649 41.0579313,73.8191375 39.1037458,73.9901762 C38.8397771,74.6474273 38.7016,75.3538339 38.7016,76.0817 C38.7016,79.1822729 41.2150271,81.6957 44.3156,81.6957 C47.4155508,81.6957 49.9296,79.1818949 49.9296,76.0817 C49.9296,75.2532729 50.6011729,74.5817 51.4296,74.5817 C52.2580271,74.5817 52.9296,75.2532729 52.9296,76.0817 C52.9296,80.746676 49.220312,84.5459577 44.5909597,84.6913809 C44.5784835,84.8448234 44.5722,84.9994342 44.5722,85.155 C44.5722,88.2554508 47.0855051,90.769 50.1852,90.769 C53.2860288,90.769 55.8002,88.255317 55.8002,85.155 C55.8002,84.9925838 55.7932384,84.8309733 55.7794289,84.6704139 C54.9450928,84.6073501 54.131143,84.42456 53.3591927,84.129086 C52.5855047,83.8329469 52.1983748,82.9656807 52.494514,82.1919927 C52.7906531,81.4183047 53.6579193,81.0311748 54.4316073,81.327314 C55.0639036,81.5693336 55.7410331,81.6952 56.4374,81.6952 C59.5375949,81.6952 62.0504,79.1821509 62.0504,76.0822 C62.0504,75.3619585 61.9159668,74.664189 61.6587962,74.0152853 C59.5560012,73.9266924 57.5965258,73.0788504 56.105315,71.6670897 L56.105315,71.6670897 Z M37.4217303,24.5612946 C39.1870733,28.3427041 43.126287,30.6990426 49.8736441,30.9391488 C50.7015472,30.9686099 51.3488123,31.663641 51.3193512,32.4915441 C51.2898901,33.3194472 50.594859,33.9667123 49.7669559,33.9372512 C41.9419933,33.6587981 36.9694441,30.6843442 34.7033697,25.8303554 C33.0849867,22.3637381 33.0724038,18.0350886 34.1341088,15.4922599 C34.4646697,14.7005525 35.3907213,14.3468908 36.164871,14.716706 C38.6636365,15.9103791 40.6879536,17.13231 44.5301764,19.6452456 C44.7774815,19.8070298 44.7774815,19.8070298 45.0244434,19.968634 C45.4012071,20.2151512 45.6443706,20.3740403 45.8952582,20.537495 C48.3402216,22.1308066 49.9709349,24.1699068 50.8932365,26.5937452 C51.1878555,27.3680133 50.799023,28.2345175 50.0247548,28.5291365 C49.2504867,28.8237555 48.3839825,28.434923 48.0893635,27.6606548 C47.3914365,25.82648 46.1669521,24.2953426 44.2574878,23.0510002 C44.0047135,22.8863163 43.7601743,22.7265283 43.3818938,22.4790186 C43.1347757,22.3173122 43.1347757,22.3173122 42.8881019,22.155941 C40.0375049,20.2915602 38.2323294,19.1679045 36.4959622,18.2428999 C36.2403873,20.0918071 36.4796087,22.5432461 37.4217303,24.5612946 Z" id="Grapes" fill="#2F313A" fill-rule="nonzero"></path>
    </g>
</svg>