<?xml version="1.0" encoding="UTF-8"?>
<svg width="100px" height="100px" viewBox="0 0 100 100" version="1.1" xmlns="http://www.w3.org/2000/svg" xmlns:xlink="http://www.w3.org/1999/xlink">
    <!-- Generator: Sketch 59.1 (86144) - https://sketch.com -->
    <title>Vector Files/100x100/Flattened/Subcategories/Lamb</title>
    <desc>Created with Sketch.</desc>
    <g id="100x100/Flattened/Subcategories/Lamb" stroke="none" stroke-width="1" fill="none" fill-rule="evenodd">
        <path d="M34.4290111,24.512369 C34.30135,23.9182224 34.23505,23.3051174 34.23505,22.6812 C34.23505,17.8867729 38.1216229,14.0002 42.91605,14.0002 C47.7106033,14.0002 51.59805,17.886899 51.59805,22.6812 C51.59805,23.5096271 50.9264771,24.1812 50.09805,24.1812 C49.2696229,24.1812 48.59805,23.5096271 48.59805,22.6812 C48.59805,19.5438824 46.0538782,17.0002 42.91605,17.0002 C39.7784771,17.0002 37.23505,19.5436271 37.23505,22.6812 C37.23505,24.4466362 38.0427328,26.0749298 39.4033715,27.1469729 C40.0540884,27.6596707 40.1659749,28.6028047 39.6532771,29.2535215 C39.1405793,29.9042384 38.1974453,30.0161249 37.5467285,29.5034271 C37.0255331,29.0927789 36.5572422,28.6280254 36.1481578,28.1195608 C36.1391435,28.1150613 36.1301538,28.1104625 36.1211899,28.1057641 C35.3183428,27.6849559 34.4226993,27.4622 33.49055,27.4622 C30.3527218,27.4622 27.80855,30.0058824 27.80855,33.1432 C27.80855,34.6609176 28.405676,36.0820157 29.4521543,37.1393748 C31.381095,37.1645184 33.056959,37.4753086 34.6059554,38.1785782 C35.360278,38.5210529 35.6941466,39.4101828 35.3516718,40.1645054 C35.0091971,40.918828 34.1200672,41.2526966 33.3657446,40.9102218 C32.0496529,40.3126948 30.5253862,40.0884454 28.6197166,40.1467288 C23.5943028,40.2971117 19.4152976,41.7613492 11.0797064,45.7471493 C12.5974182,47.2943321 14.7194897,48.3157902 17.7389689,49.1702709 C20.4010328,49.9249509 22.5401522,50.2995677 24.576393,50.295402 C26.8282835,50.2917134 28.8961812,49.7923586 30.6651436,48.7711685 C30.6512627,48.57081 30.6381737,48.3734507 30.6258564,48.179199 C30.5952967,47.6972504 30.5717276,47.2686205 30.5542668,46.8981162 C30.5436756,46.6733769 30.5374333,46.5164319 30.5346602,46.432094 C30.5074358,45.6041144 31.1565763,44.9108345 31.984556,44.8836102 C32.8125356,44.8563858 33.5058155,45.5055263 33.5330398,46.333506 C33.5353527,46.4038478 33.5410303,46.5465947 33.550941,46.756892 C33.5676501,47.1114487 33.5903291,47.5238897 33.6198436,47.9893542 C33.7044293,49.3233308 33.826744,50.8114299 33.9936609,52.4146576 C34.470156,56.9913683 35.207129,61.5660264 36.2567288,65.8226889 C39.1569,77.5843624 43.8049158,84.4808 50.25985,84.4808 C56.7147842,84.4808 61.3628,77.5843624 64.2629712,65.8226889 C65.312571,61.5660264 66.049544,56.9913683 66.5260391,52.4146576 C66.692956,50.8114299 66.8152707,49.3233308 66.8998564,47.9893542 C66.9293709,47.5238897 66.9520499,47.1114487 66.968759,46.756892 C66.9786697,46.5465947 66.9843473,46.4038478 66.9866602,46.333506 C67.0138845,45.5055263 67.7071644,44.8563858 68.535144,44.8836102 C69.3631237,44.9108345 70.0122642,45.6041144 69.9850398,46.432094 C69.9822667,46.5164319 69.9760244,46.6733769 69.9654331,46.8981162 C69.9479724,47.2686205 69.9244033,47.6972504 69.8938436,48.179199 C69.8760154,48.460361 69.8565705,48.7480337 69.8354475,49.0418876 C71.4890817,49.8806203 73.3813234,50.2920551 75.42522,50.2954031 C77.4602068,50.2995681 79.6006418,49.9247596 82.2627057,49.1700798 C85.2816769,48.315743 87.4034495,47.2943517 88.9206184,45.7472946 C80.5839821,41.7608945 76.4065948,40.2971086 71.3802949,40.1466989 C69.4756138,40.0884454 67.951347,40.3126948 66.6352554,40.9102218 C65.8809328,41.2526966 64.9918029,40.918828 64.6493281,40.1645054 C64.3068534,39.4101828 64.640722,38.5210529 65.3950446,38.1785782 C66.9962353,37.4516115 68.7329874,37.1440195 70.7439964,37.1377806 C71.7861005,36.085283 72.38605,34.6643671 72.38605,33.1435 C72.38605,30.0060495 69.8417452,27.4615 66.70505,27.4615 C65.7788096,27.4615 64.8878538,27.6823318 64.0857976,28.0999513 C63.3510096,28.4825453 62.4451926,28.1970356 62.0625987,27.4622476 C61.6800047,26.7274596 61.9655144,25.8216426 62.7003024,25.4390487 C63.9275668,24.8000291 65.2933777,24.4615 66.70505,24.4615 C71.4986641,24.4615 75.38605,28.3492598 75.38605,33.1435 C75.38605,34.6511891 74.9985847,36.0971414 74.2914491,37.3657182 C78.8269996,37.9459444 83.2200127,39.6772331 90.7555429,43.3000887 C91.3371472,43.5798288 91.6456134,43.7281777 91.9163836,43.8581812 C92.7342322,44.2508505 93.0190117,45.2740077 92.5216396,46.0327477 C90.5002392,49.1163896 87.5350611,50.7958705 83.0802689,52.0565291 C80.1736319,52.8805443 77.7769562,53.3002226 75.419693,53.295398 C73.3469327,53.2920028 71.370977,52.9377568 69.562509,52.2095364 C69.5454772,52.3801372 69.5279472,52.5520792 69.5099109,52.7253174 C69.020156,57.4293879 68.262004,62.1355111 67.1757288,66.5409111 C63.9734,79.5279876 58.6134158,87.4808 50.25985,87.4808 C41.9062842,87.4808 36.5463,79.5279876 33.3439712,66.5409111 C32.257696,62.1355111 31.499544,57.4293879 31.0097891,52.7253174 C30.9842581,52.480093 30.9597417,52.237466 30.9362165,51.9975635 C28.9944952,52.8691773 26.845933,53.2916885 24.5819187,53.2953969 C22.2233774,53.300222 19.828039,52.8807345 16.9214057,52.0567202 C12.4661614,50.7959335 9.50081267,49.1164967 7.47854349,46.033027 C6.98092889,45.2742855 7.26564682,44.2509086 8.08361634,43.8581812 C8.3537872,43.7284655 8.66285944,43.5798264 9.24447684,43.3000842 C16.8799582,39.6292398 21.2902894,37.9001289 25.8908129,37.3431119 C25.1902162,36.0775897 24.80855,34.6395407 24.80855,33.1432 C24.80855,28.348899 28.6959967,24.4622 33.49055,24.4622 C33.8060201,24.4622 34.1191926,24.4790626 34.4290111,24.512369 Z M52.4013557,74.4343213 L54.6928007,76.8572871 C55.0722826,77.25855 55.0546257,77.8914687 54.6533629,78.2709507 C54.2521,78.6504327 53.6191813,78.6327757 53.2396993,78.2315129 L50.4232166,75.2533741 L47.6057992,78.2316201 C47.226258,78.632827 46.5933367,78.6503904 46.1921298,78.2708492 C45.790923,77.891308 45.7733596,77.2583867 46.1529008,76.8571799 L48.3361771,74.5492741 C47.3744672,74.0797936 46.6527051,73.2415309 46.1613551,72.153899 C45.7245268,71.186954 45.5441768,70.2418395 45.5038664,69.5739449 C45.470594,69.0226633 45.8905235,68.5487887 46.4418051,68.5155164 C46.9930867,68.482244 47.4669613,68.9021735 47.5002336,69.4534551 C47.5062102,69.5524804 47.5296967,69.7544797 47.5808727,70.022665 C47.6667744,70.4728283 47.799217,70.9214845 47.9839949,71.330501 C48.4621279,72.3888763 49.1658426,72.9632299 50.2390085,72.9706276 C50.2532691,72.9703226 50.2675365,72.9703209 50.2818003,72.9706226 C51.3540526,72.962974 52.0572958,72.3886993 52.5351918,71.3305859 C52.7199305,70.9215544 52.852348,70.4728811 52.9382362,70.0227005 C52.9894045,69.7545029 53.0128891,69.5524918 53.0188664,69.4534551 C53.0521387,68.9021735 53.5260133,68.482244 54.0772949,68.5155164 C54.6285765,68.5487887 55.0485059,69.0226633 55.0152336,69.5739449 C54.9749249,70.2418111 54.7946159,71.1868961 54.3579082,72.1538141 C53.9044899,73.1577315 53.2548085,73.9492078 52.4013557,74.4343213 L52.4013557,74.4343213 Z M45.29925,55.564 C45.29925,56.945 44.18025,58.064 42.79925,58.064 C41.41825,58.064 40.29925,56.945 40.29925,55.564 C40.29925,54.183 41.41825,53.064 42.79925,53.064 C44.18025,53.064 45.29925,54.183 45.29925,55.564 Z M60.29925,55.564 C60.29925,56.945 59.18025,58.064 57.79925,58.064 C56.41825,58.064 55.29925,56.945 55.29925,55.564 C55.29925,54.183 56.41825,53.064 57.79925,53.064 C59.18025,53.064 60.29925,54.183 60.29925,55.564 Z M39.59615,38.0313 C39.54215,38.5813 39.05315,38.9833 38.50315,38.9293 C37.95415,38.8753 37.55215,38.3863 37.60615,37.8363 C37.65915,37.2863 38.14915,36.8853 38.69915,36.9383 C39.24815,36.9923 39.65015,37.4813 39.59615,38.0313 Z M43.38225,40.4111 C43.32825,40.9611 42.83925,41.3631 42.29025,41.3091 C41.74025,41.2551 41.33825,40.7661 41.39225,40.2161 C41.44525,39.6671 41.93525,39.2651 42.48525,39.3181 C43.03425,39.3721 43.43625,39.8611 43.38225,40.4111 Z M39.20655,42.0122 C39.15255,42.5622 38.66355,42.9642 38.11455,42.9102 C37.56455,42.8562 37.16255,42.3672 37.21655,41.8172 C37.26955,41.2682 37.75955,40.8662 38.30955,40.9192 C38.85855,40.9732 39.26055,41.4622 39.20655,42.0122 Z M51.59815,22.6817 C51.59815,23.5101271 50.9265771,24.1817 50.09815,24.1817 C49.2697229,24.1817 48.59815,23.5101271 48.59815,22.6817 C48.59815,17.8871467 52.484849,13.9997 57.27915,13.9997 C62.073451,13.9997 65.96015,17.8871467 65.96015,22.6817 C65.96015,25.3882644 64.7118263,27.8920563 62.6205888,29.5257579 C61.9677562,30.035759 61.0250933,29.9199713 60.5150921,29.2671388 C60.005091,28.6143063 60.1208787,27.6716433 60.7737112,27.1616421 C62.1446246,26.090667 62.96015,24.4549488 62.96015,22.6817 C62.96015,19.5438718 60.4164676,16.9997 57.27915,16.9997 C54.1418324,16.9997 51.59815,19.5438718 51.59815,22.6817 Z" id="Lamb" fill="#2F313A" fill-rule="nonzero"></path>
    </g>
</svg>