<?xml version="1.0" encoding="UTF-8"?>
<svg width="100px" height="100px" viewBox="0 0 100 100" version="1.1" xmlns="http://www.w3.org/2000/svg" xmlns:xlink="http://www.w3.org/1999/xlink">
    <!-- Generator: Sketch 59.1 (86144) - https://sketch.com -->
    <title>Vector Files/100x100/Flattened/Subcategories/Lettuce</title>
    <desc>Created with Sketch.</desc>
    <g id="100x100/Flattened/Subcategories/Lettuce" stroke="none" stroke-width="1" fill="none" fill-rule="evenodd">
        <path d="M54.3028188,57.8119121 C54.5753964,58.6045208 54.8438727,59.4145881 55.1063168,60.2396948 C56.7258474,65.3313919 57.9106089,70.3449238 58.4759526,75.0596181 C58.912335,78.6988376 58.9642593,82.0596974 58.5769822,85.0879803 C58.4718933,85.909715 57.7205543,86.4906711 56.8988197,86.3855822 C56.077085,86.2804933 55.4961289,85.5291543 55.6012178,84.7074197 C55.9543692,81.9459803 55.9061774,78.8267107 55.4972907,75.4167924 C55.2459373,73.3206257 54.8641627,71.152888 54.3699923,68.9379604 C54.1783049,69.3375585 53.9822084,69.73244 53.797996,70.0798371 C50.4337422,76.4217406 41.8653952,78.3511957 34.6930542,74.5470444 C27.7254563,70.8514873 25.5188798,63.4639491 28.98935,56.9218193 C29.0005908,56.9005964 29.0119,56.8794034 29.0232794,56.8582365 C26.9023922,55.6804563 25.2104905,54.1456965 24.0133408,52.3372125 C22.8051675,50.5131518 22.1283411,48.4489476 22.0158969,46.2962729 C21.905419,44.1573312 22.3566732,41.9833155 23.3339763,39.9381365 C23.4245366,39.7489916 23.517328,39.5650857 23.6106432,39.3902661 C25.2184419,36.3577533 27.7444791,34.1541611 30.7553198,33.1237164 C30.4608044,32.4752463 30.2068922,31.8066439 29.9958783,31.1198793 C27.6825334,23.5800089 31.3456867,16.7958371 38.4270773,14.6228303 C45.5088397,12.4508859 52.3457725,16.0126134 54.6585685,23.5517712 C54.8724725,24.2469591 55.0401926,24.9502511 55.1618283,25.6572564 C58.5178436,24.3729368 62.2999048,24.6510276 65.7248371,26.467804 C72.1762563,29.8901537 74.5188836,37.087197 71.0408857,43.9656405 C71.0618818,43.9766193 71.0828316,43.9876556 71.1037385,43.9987517 C77.6474528,47.469438 79.9637208,54.8229232 76.2680258,61.7907809 C72.9046042,68.1317653 66.0501226,71.4614641 60.0203102,69.6590683 C59.2265841,69.4218123 58.7754758,68.5860363 59.0127317,67.7923102 C59.2499877,66.9985841 60.0857637,66.5474758 60.8794898,66.7847317 C65.467141,68.1560453 70.8941773,65.519756 73.6177556,60.3850542 C76.5323825,54.8898211 74.786777,49.3480254 69.6976966,46.6488547 C69.3093822,46.4427616 68.8856642,46.2568119 68.3834529,46.0673549 C67.4908046,45.7306074 67.1352124,44.6570565 67.6503286,43.8540152 C67.8707209,43.5104342 68.0652577,43.1803924 68.2388005,42.8529696 C71.15315,37.359107 69.4071774,31.8171927 64.3189877,29.1180092 C61.0936121,27.4070888 57.5588742,27.449321 54.6830923,29.2285079 C53.7034704,29.8345798 52.4346171,29.1560108 52.3947965,28.0047522 C52.3534525,26.8094516 52.1527031,25.6088116 51.7908607,24.432822 C49.9665755,18.4860929 44.8140902,15.8018851 39.3069404,17.4909029 C33.8002274,19.1807017 31.0394967,24.293584 32.8637434,30.23934 C33.1986068,31.329184 33.6657566,32.3646053 34.2524221,33.3346455 C34.8024928,34.244177 34.2581723,35.4214732 33.208938,35.5915694 C30.2837207,36.0657896 27.7786875,37.933278 26.2592046,40.7992037 C26.185086,40.9380696 26.1119503,41.0830193 26.0403141,41.2326381 C25.2757995,42.8325205 24.9276289,44.5099084 25.0118578,46.1406545 C25.0963915,47.7589957 25.6032802,49.3049191 26.514684,50.680927 C27.4833992,52.1443243 28.8955795,53.3983814 30.7193675,54.365555 C31.0498178,54.5407023 31.3966598,54.7052673 31.7673522,54.8639996 C32.6453572,55.2399659 32.9530426,56.3298541 32.4012663,57.1094606 C32.0933752,57.5444808 31.8473331,57.9353789 31.639996,58.3268371 C28.9409047,63.414853 30.6038408,68.9823027 36.0987458,71.8967556 C41.8897855,74.9682758 48.6117759,73.4545908 51.1476858,68.6741858 C51.7802608,67.4812436 52.8752803,64.9266914 53.1046702,64.6074329 C53.1459843,64.549933 53.1890773,64.4946315 53.234133,64.441725 C52.9278211,63.3504106 52.5982564,62.2519367 52.2474495,61.1490229 C52.0211075,60.4374188 51.7901102,59.737203 51.555805,59.0501171 C51.2050478,58.9102979 50.7109184,58.7690065 50.1392223,58.6554639 C48.6345118,58.3566185 46.8816269,58.293025 45.092432,58.5486242 C44.272331,58.6657815 43.512533,58.095933 43.3953758,57.275832 C43.2782185,56.455731 43.848067,55.695933 44.668168,55.5787758 C46.5945943,55.303572 48.6288116,55.349441 50.3277799,55.6393466 C50.140857,55.1467484 49.9533379,54.6637908 49.7658459,54.1912795 C49.4704215,53.4467601 49.1964849,52.7826815 48.9511946,52.2082238 C48.8967003,52.0806008 48.8482002,51.9680405 48.806068,51.871021 C48.6672153,51.7733032 48.4928838,51.6542575 48.2859157,51.5182785 C47.6079053,51.0728227 46.8475317,50.6261186 46.0263604,50.2097826 C44.0606205,49.2131474 42.0763738,48.5554515 40.2005249,48.3877407 C39.375389,48.3139692 38.7662878,47.5852608 38.8400593,46.7601249 C38.9138308,45.934989 39.6425392,45.3258878 40.4676751,45.3996593 C42.7719487,45.6056735 45.1043313,46.378762 47.38297,47.5340378 C47.9890055,47.8412994 48.5647288,48.1626414 49.105172,48.4892065 C49.4131005,47.3639342 49.7326512,46.2447611 50.0517105,45.1908632 C50.2477393,44.5433525 50.4385344,43.9375848 50.6227062,43.3808382 C51.0590682,42.0617277 51.4468741,41.0483798 51.7942746,40.3677644 C52.1708972,39.629898 53.0743691,39.337052 53.8122356,39.7136746 C54.550102,40.0902972 54.842948,40.9937691 54.4663254,41.7316356 C54.2059602,42.2417345 53.8626553,43.1387999 53.4709132,44.3230255 C53.2953049,44.8538846 53.1120491,45.4357156 52.9230132,46.0601277 C52.5785784,47.1978443 52.2317655,48.4200227 51.9002951,49.6426398 C51.7899871,50.0495071 51.6889399,50.4286562 51.5990085,50.7711968 C51.6331189,50.8501492 51.6702248,50.9365167 51.7102025,51.0301425 C51.9654099,51.6278255 52.2491707,52.31572 52.5543435,53.084807 C52.6846042,53.4130859 52.8148524,53.7461951 52.9448965,54.0838943 C53.0740676,53.8881247 53.2077016,53.6945447 53.3458127,53.5039135 C54.4182908,52.0235991 55.6284627,50.8955744 57.0212195,50.2767262 C57.778277,49.9403403 58.664688,50.281362 59.0010738,51.0384195 C59.3374597,51.795477 58.996438,52.681888 58.2393805,53.0182738 C57.4089081,53.3872804 56.5650103,54.1738939 55.7752287,55.2640095 C55.3327486,55.8747536 54.9377254,56.5371981 54.5991076,57.2000412 C54.4743656,57.4442233 54.3751684,57.6521298 54.3028188,57.8119121 L54.3028188,57.8119121 Z M40.6274173,21.7934923 C40.0994925,21.9557079 39.5400232,21.659242 39.3778077,21.1313173 C39.2155921,20.6033925 39.512058,20.0439232 40.0399827,19.8817077 C40.8625858,19.6289462 41.6893142,19.4996 42.4947,19.4996 C43.0469847,19.4996 43.4947,19.9473153 43.4947,20.4996 C43.4947,21.0518847 43.0469847,21.4996 42.4947,21.4996 C41.8927274,21.4996 41.2634798,21.5980493 40.6274173,21.7934923 Z M38.104468,31.0102318 C38.3893741,31.4833565 38.2367928,32.0978618 37.7636682,32.382768 C37.2905435,32.6676741 36.6760382,32.5150928 36.391132,32.0419682 C35.9058361,31.2360695 35.5229552,30.3830761 35.2548997,29.5077915 C34.5528156,27.2226641 34.6612934,25.0769853 35.6046844,23.3294914 C35.9387808,22.7132428 36.3746587,22.1518536 36.8989677,21.6604608 C37.3019363,21.2827906 37.9347691,21.3032991 38.3124392,21.7062677 C38.6901094,22.1092363 38.6696009,22.7420691 38.2666323,23.1197392 C37.8973964,23.4657944 37.5938456,23.856753 37.3637596,24.2811485 C36.6938554,25.5220505 36.6131356,27.1186789 37.1669658,28.9212742 C37.3869672,29.6396461 37.7026954,30.3430349 38.104468,31.0102318 Z M31.9576934,40.8596642 C31.5105283,41.1837965 30.8852681,41.0840586 30.5611358,40.6368934 C30.2370035,40.1897283 30.3367414,39.5644681 30.7839066,39.2403358 C31.6304592,38.6267034 32.5874019,38.225068 33.6079975,38.059851 C34.1531848,37.9715945 34.6666925,38.3420101 34.754949,38.8871975 C34.8432055,39.4323848 34.4727899,39.9458925 33.9276025,40.034149 C33.2179791,40.1490249 32.5530946,40.4280815 31.9576934,40.8596642 Z M33.5371941,50.7268068 C34.0455132,50.9427469 34.2825333,51.529875 34.0665932,52.0381941 C33.8506531,52.5465132 33.263525,52.7835333 32.7552059,52.5675932 C32.4557338,52.4403739 32.1677221,52.3037599 31.8883305,52.1554674 C30.4651218,51.3999781 29.3529479,50.4410408 28.5970346,49.2997143 C27.9393415,48.3049536 27.5710605,47.1929536 27.5085325,46.0108058 C27.4456301,44.7935286 27.7203632,43.5154738 28.2970802,42.3097144 C28.5353831,41.8114874 29.1324586,41.6007773 29.6306856,41.8390802 C30.1289126,42.0773831 30.3396227,42.6744586 30.1013198,43.1726856 C29.6644956,44.085967 29.4607209,45.0339241 29.505804,45.9063796 C29.5493997,46.7305844 29.8036931,47.4984062 30.2649223,48.1960161 C30.8256799,49.0426834 31.6838147,49.7825834 32.826024,50.3889084 C33.0533882,50.5095863 33.2895215,50.6215925 33.5371941,50.7268068 Z M34.8947023,62.8022638 C34.849214,63.3526721 34.3661444,63.7619906 33.8157362,63.7165023 C33.2653279,63.671014 32.8560094,63.1879444 32.9014977,62.6375362 C32.9902824,61.5632408 33.3210433,60.4911695 33.8490521,59.4976171 C34.1082299,59.0099232 34.713689,58.8246743 35.2013829,59.0838521 C35.6890768,59.3430299 35.8743257,59.948489 35.6151479,60.4361829 C35.2105149,61.1975794 34.9602943,62.0086014 34.8947023,62.8022638 Z M44.3410058,68.7199251 C44.8709091,68.5642945 45.4266442,68.8677025 45.5822749,69.3976058 C45.7379055,69.9275091 45.4344975,70.4832442 44.9045942,70.6388749 C44.1082843,70.8727481 43.2488369,70.9914 42.3518,70.9914 C40.6322505,70.9914 38.8759641,70.5399532 37.2701948,69.6888077 C35.6506447,68.8297143 34.4710341,67.7425327 33.7405801,66.4703253 C33.4655835,65.991373 33.6309224,65.3801766 34.1098747,65.1051801 C34.588827,64.8301835 35.2000234,64.9955224 35.4750199,65.4744747 C36.0087946,66.4041322 36.9075921,67.232504 38.2071313,67.9218471 C39.5287357,68.6223696 40.9643934,68.9914 42.3518,68.9914 C43.0617154,68.9914 43.7315161,68.89893 44.3410058,68.7199251 Z" id="Vegetables" fill="#2F313A" fill-rule="nonzero"></path>
    </g>
</svg>