<?xml version="1.0" encoding="UTF-8"?>
<svg width="100px" height="100px" viewBox="0 0 100 100" version="1.1" xmlns="http://www.w3.org/2000/svg" xmlns:xlink="http://www.w3.org/1999/xlink">
    <!-- Generator: Sketch 59.1 (86144) - https://sketch.com -->
    <title>Vector Files/100x100/Flattened/Subcategories/Onion</title>
    <desc>Created with Sketch.</desc>
    <g id="100x100/Flattened/Subcategories/Onion" stroke="none" stroke-width="1" fill="none" fill-rule="evenodd">
        <path d="M68.0595282,74.969887 C58.7245515,80.3340251 49.6919504,80.9796738 41.1177947,77.8296097 C34.831698,75.520157 29.4782896,71.5364626 24.3552855,66.2621794 C24.3492334,66.2561449 24.3431848,66.2501052 24.3371398,66.2440602 C15.5027315,57.4096518 17.9229878,40.9528918 29.4381398,29.4377398 C40.9531236,17.9227561 57.4088917,15.5032528 66.2444602,24.3377398 C66.260141,24.3534206 66.2757863,24.3691255 66.2913963,24.3848542 C71.5505355,29.4980248 75.5241416,34.8435531 77.8293768,41.1178731 C80.9580583,49.6334244 80.3425279,58.6010701 75.0787386,67.8676128 L80.2553661,70.0110719 C80.7656375,70.2223573 81.0080135,70.8072947 80.7967281,71.3175661 C80.5854427,71.8278375 80.0005053,72.0702135 79.4902339,71.8589281 L72.6362339,69.0209281 C72.2151374,68.8465669 71.9764834,68.4177407 72.0246736,67.9864069 C71.9361596,67.6216827 71.9835767,67.2235133 72.1883832,66.8741692 C77.2690348,58.2079661 77.8964136,49.9993137 75.0134232,42.1524769 C74.0929132,39.6470604 72.8711905,37.2858725 71.3777035,35.0212886 C72.5202966,43.4153017 68.8897344,53.3977728 61.1434843,61.144036 C53.3976493,68.890563 43.4151687,72.5210214 35.0208719,71.3779226 C37.2855747,72.871438 39.6468089,74.0931261 42.1523553,75.0136403 C49.9991743,77.8964877 58.2079383,77.2691978 66.8746457,72.1889384 C67.1520133,72.0263508 67.4601515,71.9629739 67.7578888,71.9880662 C67.7971711,71.9650665 67.8384905,71.9444774 67.8817339,71.9265719 C68.3920053,71.7152865 68.9769427,71.9576625 69.1882281,72.4679339 L72.0262281,79.3219339 C72.2375135,79.8322053 71.9951375,80.4171427 71.4848661,80.6284281 C70.9745947,80.8397135 70.3896573,80.5973375 70.1783719,80.0870661 L68.0595282,74.969887 L68.0595282,74.969887 Z M64.080456,26.4165619 C56.5631608,18.9635065 41.9963759,21.1221444 31.5594602,31.5590602 C21.1157127,42.0028077 18.9603171,56.5824683 26.4302033,64.0944035 C26.4453151,64.1087503 26.4601986,64.1234712 26.4748418,64.138566 L26.4898461,64.1540284 C34.0035431,71.6211722 48.5805785,69.4652517 59.0220916,59.0227881 C69.4525272,48.5923525 71.6157549,34.0366265 64.1800811,26.5163242 C64.1660783,26.5027202 64.1520657,26.4891178 64.1380432,26.4755167 C64.1182014,26.4562712 64.0990055,26.4366106 64.080456,26.4165619 L64.080456,26.4165619 Z M37.4761955,63.5990301 C38.0241558,63.668008 38.4124478,64.1681352 38.3434699,64.7160955 C38.274492,65.2640558 37.7743648,65.6523478 37.2264045,65.5833699 C33.9601623,65.1722115 31.098225,63.8443386 28.9171375,61.663251 C22.1278525,54.8728957 24.0889876,42.0682581 33.0791523,33.0791342 C42.0680658,24.0891799 54.8745888,22.1272049 61.6634625,28.917149 C62.053956,29.307704 62.0539061,29.940869 61.663351,30.3313625 C61.272796,30.721856 60.639631,30.7218061 60.2491375,30.331251 C54.3524249,24.4336088 42.7790975,26.2066567 34.4933659,34.4933477 C26.2064295,42.7793248 24.4341474,54.3509041 30.3314068,60.2490932 C32.187375,62.1050614 34.6369938,63.2416281 37.4761955,63.5990301 Z M56.0885932,56.0891932 C56.4791175,55.6986689 57.1122825,55.6986689 57.5028068,56.0891932 C57.8933311,56.4797175 57.8933311,57.1128825 57.5028068,57.5034068 C53.2663805,61.7398331 48.0643872,64.5272279 42.9097512,65.4167352 C42.3655103,65.5106519 41.8481814,65.145592 41.7542648,64.6013512 C41.6603481,64.0571103 42.025408,63.5397814 42.5696488,63.4458648 C47.3074986,62.62828 52.137664,60.0401224 56.0885932,56.0891932 Z M37.7801068,37.7807068 C37.3895825,38.1712311 36.7564175,38.1712311 36.3658932,37.7807068 C35.9753689,37.3901825 35.9753689,36.7570175 36.3658932,36.3664932 C38.2772994,34.455087 40.4527326,32.9283458 42.74124,31.8699648 C43.2425131,31.6381378 43.8368081,31.856567 44.0686352,32.35784 C44.3004622,32.8591131 44.082033,33.4534081 43.58076,33.6852352 C41.5075809,34.6440318 39.5262953,36.0345182 37.7801068,37.7807068 Z M56.0231712,34.5581848 C55.6326039,34.1677036 55.632534,33.5345386 56.0230152,33.1439712 C56.4134964,32.7534039 57.0466614,32.753334 57.4372288,33.1438152 C62.4195722,38.1250593 60.8732872,47.5581263 54.2153628,54.2160507 C47.5588396,60.8736294 38.1256448,62.4196584 33.1439951,57.4380087 C29.2382218,53.5311516 29.2834678,46.7612888 32.9659489,40.6837862 C33.2521505,40.211444 33.8670717,40.0605473 34.3394138,40.3467489 C34.811756,40.6329505 34.9626527,41.2478717 34.6764511,41.7202138 C31.4276527,47.0819741 31.3890771,52.8537841 34.5583068,56.0238932 C38.6390706,60.104657 46.8439994,58.7599316 52.8010932,52.8018932 C58.7595601,46.8434264 60.1045065,38.6386195 56.0231712,34.5581848 Z M45.2106007,52.3914572 C45.7249118,52.190205 46.3049906,52.4439895 46.5062428,52.9583007 C46.707495,53.4726118 46.4537105,54.0526906 45.9393993,54.2539428 C44.7842989,54.7059386 43.6212791,54.9653793 42.5079973,55.0166416 C41.9562971,55.0420452 41.488462,54.6153975 41.4630584,54.0636973 C41.4376548,53.5119971 41.8643025,53.044162 42.4160027,53.0187584 C43.3039254,52.9778731 44.2530732,52.7661419 45.2106007,52.3914572 Z M37.5596875,48.6998064 C37.579014,49.2517529 37.1472401,49.7148611 36.5952936,49.7341875 C36.0433471,49.753514 35.5802389,49.3217401 35.5609125,48.7697936 C35.4550111,45.7453413 36.9750508,42.3318356 39.6530155,39.653871 C43.9755058,35.3292069 50.031786,34.1910724 53.2114068,37.3706932 C56.3907505,40.5500369 55.2523153,46.6060852 50.9284068,50.9289068 C50.4684109,51.3889027 49.9846397,51.8173169 49.4826996,52.2102335 C49.047812,52.5506616 48.4192946,52.4740871 48.0788665,52.0391996 C47.7384384,51.604312 47.8150129,50.9757946 48.2499004,50.6353665 C48.6881742,50.2922876 49.111363,49.9175234 49.5142821,49.5146043 C53.1461217,45.8836777 54.0559609,41.0436745 51.7971932,38.7849068 C49.5381215,36.5258351 44.6980818,37.435406 41.0674068,41.0679068 C38.7616257,43.3736878 37.4744098,46.2643483 37.5596875,48.6998064 Z M75.8778068,74.2961932 C76.2683311,74.6867175 76.2683311,75.3198825 75.8778068,75.7104068 C75.4872825,76.1009311 74.8541175,76.1009311 74.4635932,75.7104068 L70.2365932,71.4834068 C69.8460689,71.0928825 69.8460689,70.4597175 70.2365932,70.0691932 C70.6271175,69.6786689 71.2602825,69.6786689 71.6508068,70.0691932 L75.8778068,74.2961932 Z" id="Onion" fill="#2F313A" fill-rule="nonzero"></path>
    </g>
</svg>