<?xml version="1.0" encoding="UTF-8"?>
<svg width="100px" height="100px" viewBox="0 0 100 100" version="1.1" xmlns="http://www.w3.org/2000/svg" xmlns:xlink="http://www.w3.org/1999/xlink">
    <!-- Generator: Sketch 59.1 (86144) - https://sketch.com -->
    <title>Vector Files/100x100/Flattened/Subcategories/Pork</title>
    <desc>Created with Sketch.</desc>
    <g id="100x100/Flattened/Subcategories/Pork" stroke="none" stroke-width="1" fill="none" fill-rule="evenodd">
        <path d="M76.2406248,40.8960185 C79.3869597,45.9666084 81.0858,51.8541309 81.0858,57.9964 C81.0858,74.0646925 70.0688047,80.4894 49.7928,80.4894 C29.5167953,80.4894 18.4998,74.0646925 18.4998,57.9964 C18.4998,51.8266545 20.2145316,45.9132117 23.3896419,40.8231214 C22.0270178,38.8734691 21.2465755,36.2847094 20.9721719,33.3163123 C20.9001901,32.5378592 20.8622454,31.9169642 20.7918116,30.529553 C20.7879105,30.4527076 20.7879105,30.4527076 20.7840094,30.3759896 C20.5964112,26.6898258 20.3526299,25.0175521 19.5606025,23.239576 C19.1457109,22.30821 19.7609227,21.2432113 20.775005,21.1373126 C28.0070052,20.3820886 34.7725315,22.7511961 39.4134749,27.8184179 C42.7175792,26.6317869 46.2152046,26.0172 49.7928,26.0172 C53.3978454,26.0172 56.9195622,26.6404677 60.2448179,27.8440176 C64.8864648,22.7591096 71.6626536,20.3808359 78.9076727,21.1373103 C79.921766,21.2431949 80.5369929,22.3082015 80.1220975,23.239576 C79.3301498,25.0173734 79.0865342,26.6880732 78.8982861,30.3762122 C78.8944634,30.451167 78.8944634,30.451167 78.8906404,30.5262435 C78.8198969,31.9155245 78.7817875,32.5372258 78.7095317,33.3162738 C78.4316916,36.3218447 77.6350689,38.9382011 76.2406248,40.8960185 Z M74.0504262,43.0718891 C73.7633348,43.2688375 73.4623175,43.448683 73.147116,43.6105459 C72.4101771,43.9889803 71.5059884,43.6983549 71.1275541,42.961416 C70.7491197,42.2244771 71.0397451,41.3202884 71.776684,40.9418541 C74.0342795,39.7825291 75.365808,36.896182 75.7223104,33.0396715 C75.7894764,32.3155005 75.8259004,31.7212923 75.8945223,30.3736781 C75.8983481,30.298545 75.8983481,30.298545 75.9021864,30.2232868 C76.0470717,27.3847066 76.2283452,25.589213 76.665,24.0028518 C70.8179426,23.9004913 65.5308444,26.162638 61.9380432,30.4649673 C61.5504095,31.0370813 60.8039642,31.2822316 60.1368023,31.0137468 C56.871987,29.6998931 53.3802188,29.0172 49.7928,29.0172 C46.2455306,29.0172 42.7892581,29.6856307 39.5548688,30.9719709 C39.4675299,31.0091486 39.3776243,31.0375483 39.2864172,31.0572911 C39.2736013,31.0600114 39.2607925,31.062635 39.2479772,31.0650857 C39.0313115,31.106071 38.8083491,31.0986614 38.595861,31.0444625 C38.4179059,30.9987636 38.2492808,30.9207266 38.0990899,30.8142617 C38.0700268,30.7938301 38.0416856,30.7721133 38.0140155,30.7492732 C37.9320625,30.6819004 37.8567695,30.6054029 37.7898605,30.5205209 C34.1963556,26.1822238 28.8890718,23.9001056 23.0176536,24.0028475 C23.4544708,25.5898708 23.6357229,27.3859834 23.7801318,30.2235094 C23.7840491,30.3005451 23.7840491,30.3005451 23.7879532,30.3774498 C23.8562781,31.7233191 23.8925476,32.3168018 23.9594317,33.0401262 C24.315892,36.896182 25.6474205,39.7825291 27.905016,40.9418541 C28.6419549,41.3202884 28.9325803,42.2244771 28.5541459,42.961416 C28.1757116,43.6983549 27.2715229,43.9889803 26.534584,43.6105459 C26.1942031,43.4357528 25.8703629,43.2399893 25.5627385,43.0243633 C22.9213301,47.5000165 21.4998,52.6381845 21.4998,57.9964 C21.4998,71.9752921 30.9553124,77.4894 49.7928,77.4894 C68.6302876,77.4894 78.0858,71.9752921 78.0858,57.9964 C78.0858,52.655296 76.6739398,47.5336287 74.0504262,43.0718891 L74.0504262,43.0718891 Z M26.6875586,67.6721696 C26.3685757,67.2213167 26.4754775,66.5972415 26.9263304,66.2782586 C27.3771833,65.9592757 28.0012585,66.0661775 28.3202414,66.5170304 C28.9636295,67.4264001 29.7408679,68.2258454 30.6531084,68.9248226 C31.0914996,69.2607269 31.1745816,69.8884173 30.8386774,70.3268084 C30.5027731,70.7651996 29.8750827,70.8482816 29.4366916,70.5123774 C28.3672905,69.6929805 27.449146,68.7486033 26.6875586,67.6721696 Z M25.5760488,48.8588302 C25.7620969,48.3388258 26.3344655,48.0681007 26.8544698,48.2541488 C27.3744742,48.4401969 27.6451993,49.0125655 27.4591512,49.5325698 C26.4941199,52.2298325 25.9996,55.0895952 25.9996,57.9967 C25.9996,59.8208671 26.2086157,61.4466497 26.6176039,62.8876644 C26.7683973,63.4189645 26.4599357,63.9719105 25.9286356,64.1227039 C25.3973355,64.2734973 24.8443895,63.9650357 24.6935961,63.4337356 C24.2321427,61.8078671 23.9996,59.9990849 23.9996,57.9967 C23.9996,54.860351 24.5335343,51.772658 25.5760488,48.8588302 Z M54.1309,70.1967 C58.5956153,70.1967 62.2149,66.5774153 62.2149,62.1127 C62.2149,57.6479847 58.5956153,54.0287 54.1309,54.0287 L45.4549,54.0287 C40.9908224,54.0287 37.3709,57.6483471 37.3709,62.1127 C37.3709,66.5770529 40.9908224,70.1967 45.4549,70.1967 L54.1309,70.1967 Z M54.1309,72.1967 L45.4549,72.1967 C39.8862869,72.1967 35.3709,67.6816564 35.3709,62.1127 C35.3709,56.5437436 39.8862869,52.0287 45.4549,52.0287 L54.1309,52.0287 C59.7001847,52.0287 64.2149,56.5434153 64.2149,62.1127 C64.2149,67.6819847 59.7001847,72.1967 54.1309,72.1967 Z M44.793,59.5082 C44.793,58.9559153 45.2407153,58.5082 45.793,58.5082 C46.3452847,58.5082 46.793,58.9559153 46.793,59.5082 L46.793,64.5082 C46.793,65.0604847 46.3452847,65.5082 45.793,65.5082 C45.2407153,65.5082 44.793,65.0604847 44.793,64.5082 L44.793,59.5082 Z M52.793,59.5082 C52.793,58.9559153 53.2407153,58.5082 53.793,58.5082 C54.3452847,58.5082 54.793,58.9559153 54.793,59.5082 L54.793,64.5082 C54.793,65.0604847 54.3452847,65.5082 53.793,65.5082 C53.2407153,65.5082 52.793,65.0604847 52.793,64.5082 L52.793,59.5082 Z M44.793,46.0082 C44.793,47.3892 43.674,48.5082 42.293,48.5082 C40.912,48.5082 39.793,47.3892 39.793,46.0082 C39.793,44.6272 40.912,43.5082 42.293,43.5082 C43.674,43.5082 44.793,44.6272 44.793,46.0082 Z M59.793,46.0082 C59.793,47.3892 58.674,48.5082 57.293,48.5082 C55.912,48.5082 54.793,47.3892 54.793,46.0082 C54.793,44.6272 55.912,43.5082 57.293,43.5082 C58.674,43.5082 59.793,44.6272 59.793,46.0082 Z" id="Pork" fill="#2F313A" fill-rule="nonzero"></path>
    </g>
</svg>