<?xml version="1.0" encoding="UTF-8"?>
<svg width="100px" height="100px" viewBox="0 0 100 100" version="1.1" xmlns="http://www.w3.org/2000/svg" xmlns:xlink="http://www.w3.org/1999/xlink">
    <!-- Generator: Sketch 59.1 (86144) - https://sketch.com -->
    <title>Vector Files/100x100/Flattened/Subcategories/Squash</title>
    <desc>Created with Sketch.</desc>
    <g id="100x100/Flattened/Subcategories/Squash" stroke="none" stroke-width="1" fill="none" fill-rule="evenodd">
        <path d="M49.6534231,19.0068663 C49.6872515,19.0099025 49.7207563,19.0140617 49.7539,19.0193065 C49.8308755,19.0071257 49.909799,19.0008 49.9902,19.0008 C50.2653112,19.0008 50.5361209,19.0041023 50.8026538,19.0106746 C50.9283955,17.7160069 51.1482416,16.4311306 51.459879,15.1694595 C50.796389,15.0791482 50.1279287,15.024549 49.4590319,15.0061458 L49.4598413,15.0196694 C49.5693406,16.8226568 49.6180055,17.6237941 49.6788368,18.6245939 C49.6868027,18.7556507 49.6776911,18.8837981 49.6534231,19.0068663 L49.6534231,19.0068663 Z M46.7382885,19.125236 C46.7094583,19.0232822 46.6910546,18.9166927 46.6843632,18.8066061 C46.623532,17.8058072 46.574866,17.004652 46.465381,15.2018979 C46.3871978,13.9240785 46.5945197,12.9926169 47.6332789,12.36033 C48.1414595,12.0518711 48.5610795,11.993448 49.209852,12.0001367 C50.7121578,12.0189925 52.2130606,12.1943455 53.677949,12.5229788 C54.5353924,12.7153378 55.0445766,13.600251 54.7799953,14.4382295 C54.2872047,15.9989897 53.9565596,17.612604 53.7941769,19.2440014 C60.1913364,20.1286883 63.4317852,23.3862588 64.025732,28.3466001 C64.2383639,30.1223941 64.1084551,31.852042 63.7325505,34.0274819 C63.7506084,33.922977 63.448276,35.5949985 63.4101895,35.8829354 C63.1703669,37.6919136 62.8927415,39.1599351 62.2464506,42.2527868 L62.2257999,42.3516058 C61.858136,44.1109288 61.6992141,44.8942026 61.5192191,45.8684143 C60.3618563,52.130494 62.1205826,55.2839932 68.1314725,60.7824534 C68.404875,61.0323958 68.5674421,61.180991 68.6794031,61.2834707 C74.0053843,66.1584251 76.0082,69.1088892 76.0082,74.1798 C76.0082,80.4500907 71.4638205,84.3688161 64.026879,86.3688329 C59.3860915,87.61688 54.054317,88.0077277 49.7539,87.8591011 C45.453483,88.0077277 40.1217085,87.61688 35.480921,86.3688329 C28.0439795,84.3688161 23.4996,80.4500907 23.4996,74.1798 C23.4996,69.1088892 25.5024157,66.1584251 30.8283969,61.2834707 C30.9403579,61.180991 31.102925,61.0323958 31.3763275,60.7824534 C37.3872174,55.2839932 39.1459437,52.130494 37.9885647,45.8683269 C37.8085859,44.8942026 37.649664,44.1109288 37.2820001,42.3516058 L37.2613494,42.2527868 C36.6150585,39.1599351 36.3374331,37.6919136 36.0975525,35.882497 C36.059524,35.5949985 35.7571916,33.922977 35.7752495,34.0274819 C35.3993449,31.852042 35.2694361,30.1223941 35.482068,28.3466001 C36.1069303,23.128068 39.660971,19.7941819 46.7382885,19.125236 L46.7382885,19.125236 Z M49.7539,21.9822935 C49.6769245,21.9944743 49.598001,22.0008 49.5176,22.0008 C42.0338638,22.0008 38.9729971,24.42558 38.4607904,28.7032696 C38.2901005,30.1287849 38.4008669,31.6035641 38.7314411,33.5166676 C38.7604127,33.6843327 38.7905526,33.8533901 38.8284595,34.0620774 C38.8760749,34.3231291 38.9036214,34.4739752 38.9213575,34.5720629 C38.9954846,34.9820156 39.039478,35.2458987 39.0715895,35.4886646 C39.2985181,37.2003847 39.5665956,38.6179184 40.1979211,41.6391526 L40.2185614,41.7379222 C40.5909911,43.52005 40.7530107,44.3185914 40.9386191,45.3231857 C41.7103517,49.4987565 41.1557366,52.9839109 39.4211197,56.0941803 C38.1231942,58.4214366 36.6169121,60.0544513 33.4011946,62.9960282 C33.1265608,63.2470966 32.9649819,63.3947885 32.8539458,63.4964216 C28.1058731,67.8424072 26.4996,70.2087014 26.4996,74.1798 C26.4996,78.7812206 29.9807202,81.7830724 36.260029,83.4717671 C40.4197167,84.5904319 45.2799354,84.9738458 49.2378159,84.8732221 C49.3453797,84.8535413 49.456781,84.8453923 49.5706267,84.8500583 C49.6314699,84.852552 49.6925631,84.8549282 49.7539,84.8571859 C49.8152369,84.8549282 49.8763301,84.852552 49.9371733,84.8500583 C50.051019,84.8453923 50.1624203,84.8535413 50.2699841,84.8732221 C54.2278646,84.9738458 59.0880833,84.5904319 63.247771,83.4717671 C69.5270798,81.7830724 73.0082,78.7812206 73.0082,74.1798 C73.0082,70.2087014 71.4019269,67.8424072 66.6538542,63.4964216 C66.5428181,63.3947885 66.3812392,63.2470966 66.1066054,62.9960282 C62.8908879,60.0544513 61.3846058,58.4214366 60.0866803,56.0941803 C58.3520634,52.9839109 57.7974483,49.4987565 58.5691647,45.3232731 C58.7547893,44.3185914 58.9168089,43.52005 59.2892386,41.7379222 L59.3098789,41.6391526 C59.9412044,38.6179184 60.2092819,37.2003847 60.4361525,35.489103 C60.468322,35.2458987 60.5123154,34.9820156 60.5864425,34.5720629 C60.6041786,34.4739752 60.6317251,34.3231291 60.6793405,34.0620774 C60.7172474,33.8533901 60.7473873,33.6843327 60.7763589,33.5166676 C61.1069331,31.6035641 61.2176995,30.1287849 61.0470096,28.7032696 C60.5348029,24.42558 57.4739362,22.0008 49.9902,22.0008 C49.909799,22.0008 49.8308755,21.9944743 49.7539,21.9822935 L49.7539,21.9822935 Z M43.5330116,82.171452 C42.9830178,82.1212005 42.5778966,81.6346055 42.628148,81.0846116 C42.6783995,80.5346178 43.1649945,80.1294966 43.7149884,80.179748 C45.2168871,80.3169726 46.7306835,80.3856 48.145,80.3856 C48.6972847,80.3856 49.145,80.8333153 49.145,81.3856 C49.145,81.9378847 48.6972847,82.3856 48.145,82.3856 C46.6700983,82.3856 45.0955813,82.3142198 43.5330116,82.171452 Z M43.3965671,44.8681142 C43.2961539,44.3250344 43.6550061,43.8033803 44.1980858,43.7029671 C44.7411656,43.6025539 45.2628197,43.9614061 45.3632329,44.5044858 C46.8900798,52.7623622 44.4066559,58.5328969 38.6631382,64.218688 C37.9643299,64.9104728 37.4044238,65.4330033 36.2016204,66.5323734 C32.0438924,70.33322 30.9999,71.7714152 30.9999,74.1793 C30.9999,75.1814531 31.2814601,75.8410658 32.0061913,76.5366819 C33.3474816,77.8234616 35.8382934,78.8413689 39.1242358,79.5167777 C39.6652111,79.6279724 40.013617,80.1566606 39.9024223,80.6976358 C39.7912276,81.2386111 39.2625394,81.587017 38.7215642,81.4758223 C35.0990285,80.7312284 32.2950332,79.585334 30.6214334,77.9797499 C29.5038455,76.9070597 28.9999,75.7264633 28.9999,74.1793 C28.9999,71.0022354 30.2861073,69.2303669 34.8522431,65.0561686 C36.0358827,63.9743142 36.5821418,63.4645197 37.2560854,62.7973497 C42.5705941,57.5362557 44.7867372,52.3867805 43.3965671,44.8681142 Z M40.8760194,29.9661647 C40.8794631,29.4138907 41.3299613,28.9689758 41.8822353,28.9723996 C42.4345093,28.9758631 42.8794242,29.4263613 42.8759806,29.9786353 C42.8744324,30.2269238 42.8838777,30.4904333 42.9037094,30.7692619 C42.9468755,31.3761676 43.0339392,32.0134265 43.1702502,32.7984023 C43.2043398,32.9947144 43.2286199,33.129354 43.2927214,33.4806995 C43.4287657,34.2254369 43.4857321,34.5569273 43.531369,34.8982987 C43.699207,36.1674654 43.9318377,37.4620871 44.3057809,39.2933266 C44.4162784,39.8344446 44.0671915,40.3626834 43.5260734,40.4731809 C42.9849554,40.5836784 42.4567166,40.2345915 42.3462191,39.6934734 C41.9637324,37.8203954 41.7238177,36.4852374 41.5488185,35.1619109 C41.5091991,34.8655581 41.4551557,34.5510773 41.3252389,33.839883 C41.260055,33.4826045 41.2351409,33.3444495 41.1997392,33.1405814 C41.052902,32.2949881 40.9575172,31.5968238 40.908749,30.9111533 C40.8854107,30.5830219 40.8741346,30.2684381 40.8760194,29.9661647 Z" id="Squash" fill="#2F313A" fill-rule="nonzero"></path>
    </g>
</svg>