<?xml version="1.0" encoding="UTF-8"?>
<svg width="100px" height="100px" viewBox="0 0 100 100" version="1.1" xmlns="http://www.w3.org/2000/svg" xmlns:xlink="http://www.w3.org/1999/xlink">
    <!-- Generator: Sketch 59.1 (86144) - https://sketch.com -->
    <title>Vector Files/100x100/Flattened/Subcategories/Strawberries</title>
    <desc>Created with Sketch.</desc>
    <g id="100x100/Flattened/Subcategories/Strawberries" stroke="none" stroke-width="1" fill="none" fill-rule="evenodd">
        <path d="M46.2989871,23.296112 C46.2491563,20.7320109 47.0532458,18.1575083 48.7300482,15.9305395 C49.760277,14.5618069 51.2676376,13.6985607 52.913724,14.0903415 C54.5120516,14.4706563 55.2842757,15.7992655 55.3664653,17.3464975 C55.4548123,19.0409473 55.1848865,20.3752355 54.3741125,22.7596925 C57.6535713,19.5265417 61.3359308,17.9921312 65.3401692,19.0504179 C68.7595791,19.9543709 68.9800336,23.6781199 66.1858796,26.5761129 C66.1713997,26.5911309 66.1568531,26.6061259 66.1422399,26.6210976 C67.8468714,27.0989072 69.3535063,27.9922182 70.6054895,29.3499048 C72.5991021,31.5117163 71.7132682,34.0328344 69.1939332,35.4113017 C73.4127005,39.1973681 75.8183,44.6438041 75.8183,51.5458 C75.8183,68.0876757 63.5240156,86.7198 50.1593,86.7198 C36.7945844,86.7198 24.5003,68.0876757 24.5003,51.5458 C24.5003,44.6438685 26.9058547,39.1974696 31.1245488,35.4114076 C28.6052625,34.0330754 27.7191454,31.5121028 29.7120387,29.3496574 C30.9323882,28.026944 32.3942267,27.1450004 34.0450917,26.6586704 C34.0180248,26.6312193 33.9911825,26.6036896 33.9645654,26.5760818 C31.1706631,23.6781829 31.3909226,19.9544866 34.8099548,19.0504116 C38.9226203,17.9632627 42.74318,19.6394665 46.1444508,23.1356312 C46.1961394,23.1887712 46.2476514,23.2422665 46.2989871,23.296112 Z M62.50567,29.2057856 C61.6386996,29.6466046 60.6836647,30.0460414 59.6450991,30.3993931 C62.1292851,31.0788115 64.3801531,32.0446567 66.359611,33.2837598 C68.4708935,32.867653 68.9867789,32.0198601 68.4000825,31.3836649 C66.9436756,29.8042954 64.9659882,29.1235573 62.50567,29.2057856 L62.50567,29.2057856 Z M38.6585739,26.355318 C38.7050095,26.3772022 38.7501093,26.4013887 38.7937332,26.4277241 C40.8076791,27.4930284 43.5102976,28.3240201 46.8192639,28.7942328 C46.2751698,27.9653795 45.6762033,27.1485198 45.0280714,26.3750872 C44.6909229,25.9727591 44.346046,25.5893494 43.9941033,25.2275216 C41.2708733,22.4283334 38.4507184,21.1910511 35.5767572,21.9507588 C34.7713991,22.163715 34.719741,23.0370438 36.1242846,24.4938682 C36.771984,25.1656767 37.6206825,25.7922056 38.6585739,26.355318 L38.6585739,26.355318 Z M37.6356051,29.2011882 C35.2576844,29.156716 33.3393736,29.8422173 31.917521,31.3833356 C31.3311705,32.019572 31.8474452,32.867689 33.9589175,33.2838045 C35.9136973,32.060139 38.1331642,31.1029619 40.5806326,30.4249559 C39.5092148,30.0641231 38.5258996,29.6544994 37.6356051,29.2011882 L37.6356051,29.2011882 Z M72.8183,51.5458 C72.8183,39.1032143 63.9975419,32.2118 50.1593,32.2118 C36.3210581,32.2118 27.5003,39.1032143 27.5003,51.5458 C27.5003,66.6291564 38.7774486,83.7198 50.1593,83.7198 C61.5411514,83.7198 72.8183,66.6291564 72.8183,51.5458 Z M32.0309196,55.4801155 C32.1125387,56.0263359 31.735905,56.5353004 31.1896845,56.6169196 C30.6434641,56.6985387 30.1344996,56.321905 30.0528804,55.7756845 C29.8356405,54.3218479 29.7249,52.9048379 29.7249,51.5459 C29.7249,42.6877947 34.4573007,37.5583598 42.1143122,35.4575384 C42.6469145,35.3114106 43.1971338,35.62471 43.3432616,36.1573122 C43.4893894,36.6899145 43.17609,37.2401338 42.6434878,37.3862616 C35.7918483,39.2661165 31.7249,43.6742696 31.7249,51.5459 C31.7249,52.8032227 31.8279424,54.1217294 32.0309196,55.4801155 Z M34.7119464,64.6581271 C34.9309124,65.1651502 34.6973959,65.7536805 34.1903729,65.9726464 C33.6833498,66.1916124 33.0948195,65.9580959 32.8758536,65.4510729 C32.2403659,63.9795796 31.6890525,62.4769097 31.2328265,60.9704454 C31.0727493,60.4418683 31.3714775,59.8836037 31.9000546,59.7235265 C32.4286317,59.5634493 32.9868963,59.8621775 33.1469735,60.3907546 C33.5810898,61.8242127 34.1062931,63.2557161 34.7119464,64.6581271 Z M64.0262204,24.4938371 C65.4308779,23.0369785 65.3791831,22.1637902 64.5735226,21.9508063 C61.3104817,21.0884119 58.1102314,22.8088919 55.1214862,26.3761868 C54.473796,27.1492544 53.8751405,27.9657181 53.3312398,28.7941768 C58.4467148,28.0672055 62.113158,26.4779945 64.0262204,24.4938371 Z M50.0178506,26.5229216 C50.2463837,25.4892508 50.5005052,24.7054803 51.143049,22.9101378 C52.1349141,20.1387507 52.444305,18.9175784 52.3706119,17.5041691 C52.3513798,17.1421244 52.2826926,17.0239482 52.2191905,17.0088382 C51.978293,16.9515028 51.5180243,17.2150928 51.1267995,17.7348629 C49.1338244,20.3817422 48.7770592,23.6437959 50.016124,26.5307408 L50.0178506,26.5229216 Z M61.3632,39.9267 C61.1482,40.6357 60.4002,41.0357 59.6922,40.8227 C58.9832,40.6087 58.5832,39.8607 58.7972,39.1517 C59.0102,38.4437 59.7592,38.0417 60.4672,38.2567 C61.1762,38.4707 61.5772,39.2187 61.3632,39.9267 Z M65.7187,44.0429 C65.5047,44.7519 64.7567,45.1519 64.0487,44.9389 C63.3397,44.7249 62.9397,43.9769 63.1537,43.2689 C63.3667,42.5599 64.1147,42.1589 64.8237,42.3729 C65.5317,42.5869 65.9337,43.3349 65.7187,44.0429 Z M58.1416,45.954 C57.4326,45.739 57.0326,44.992 57.2456,44.283 C57.4606,43.574 58.2076,43.174 58.9166,43.388 C59.6246,43.602 60.0266,44.35 59.8126,45.058 C59.5976,45.767 58.8506,46.168 58.1416,45.954 Z M64.0664,49.5195 C63.8524,50.2285 63.1044,50.6285 62.3954,50.4155 C61.6874,50.2015 61.2864,49.4535 61.5014,48.7445 C61.7144,48.0365 62.4624,47.6355 63.1704,47.8495 C63.8794,48.0635 64.2804,48.8115 64.0664,49.5195 Z M68.4228,53.6367 C68.2078,54.3447 67.4608,54.7457 66.7518,54.5317 C66.0438,54.3177 65.6428,53.5697 65.8568,52.8617 C66.0708,52.1527 66.8188,51.7517 67.5268,51.9657 C68.2358,52.1797 68.6368,52.9277 68.4228,53.6367 Z M66.5966,59.6787 C66.3826,60.3867 65.6346,60.7877 64.9256,60.5747 C64.2176,60.3597 63.8166,59.6127 64.0316,58.9037 C64.2446,58.1947 64.9926,57.7937 65.7006,58.0077 C66.4096,58.2227 66.8106,58.9697 66.5966,59.6787 Z M69.8955,48.3232 C69.6805,49.0322 68.9325,49.4322 68.2245,49.2192 C67.5155,49.0042 67.1155,48.2572 67.3295,47.5482 C67.5425,46.8402 68.2915,46.4382 68.9995,46.6522 C69.7085,46.8672 70.1095,47.6142 69.8955,48.3232 Z M60.8447,55.5468 C60.1367,55.3328 59.7357,54.5848 59.9497,53.8758 C60.1637,53.1678 60.9117,52.7668 61.6197,52.9818 C62.3287,53.1948 62.7297,53.9428 62.5157,54.6508 C62.3017,55.3598 61.5537,55.7608 60.8447,55.5468 Z" id="Strawberries" fill="#2F313A" fill-rule="nonzero"></path>
    </g>
</svg>