<?xml version="1.0" encoding="UTF-8"?>
<svg width="100px" height="100px" viewBox="0 0 100 100" version="1.1" xmlns="http://www.w3.org/2000/svg" xmlns:xlink="http://www.w3.org/1999/xlink">
    <!-- Generator: Sketch 59.1 (86144) - https://sketch.com -->
    <title>Vector Files/100x100/Flattened/Subcategories/Tomato</title>
    <desc>Created with Sketch.</desc>
    <g id="100x100/Flattened/Subcategories/Tomato" stroke="none" stroke-width="1" fill="none" fill-rule="evenodd">
        <path d="M48.6305049,29.5104277 C45.5315279,29.5341624 42.6459571,29.6377201 41.4078955,29.8210905 C39.5935685,30.0908451 37.9173498,30.6249831 36.4767154,31.4028397 C36.988414,31.3930403 37.4942717,31.3962199 37.9876646,31.4145885 C39.3929988,31.4669079 40.5899155,31.6392661 41.5325722,31.9680998 C42.0577402,32.151298 42.3325046,32.7278167 42.1440506,33.2511217 C41.8766172,33.993739 41.5446659,34.7345941 41.1635478,35.4425287 C41.2190518,35.417211 41.2749429,35.3915773 41.3312142,35.3656314 C41.72915,35.1821485 42.141891,34.9849805 42.5664942,34.7760751 C43.4840744,34.3246241 44.4140169,33.8400333 45.3073945,33.3553891 C45.6200815,33.185761 45.9056795,33.0283433 46.1581496,32.8872455 C46.3088161,32.8030426 46.4143739,32.7433281 46.4688035,32.7122041 C46.9337205,32.4463542 47.525549,32.593977 47.811146,33.0470315 C48.1945562,33.655251 48.5955257,34.2911632 49.0417431,34.9987019 C49.1956301,35.2427076 49.1956301,35.2427076 49.3495223,35.4867103 C49.557282,35.8161188 49.7657316,36.1466028 50.0353794,36.5740966 C50.3610979,36.0499176 50.6834611,35.53181 50.9894817,35.0408497 L51.0050359,35.0158963 C51.5049392,34.2139354 51.9234932,33.5450042 52.234254,33.0520315 C52.5200631,32.5986405 53.1124995,32.4511894 53.5774882,32.7177146 C53.6318768,32.7488894 53.7373622,32.8087045 53.8879299,32.8930509 C54.1402378,33.034391 54.4256573,33.1920794 54.7381545,33.3619995 C55.6309899,33.8474779 56.5604056,34.3329026 57.477513,34.7851285 C57.9024723,34.9946761 58.3155513,35.1924325 58.7137973,35.3764389 C58.76871,35.4018108 58.8232604,35.4268845 58.8774422,35.4516563 C58.4980636,34.7478915 58.1680245,34.0124041 57.9024157,33.2753058 C57.7239485,32.7800365 57.9600259,32.2312145 58.4423152,32.0201715 C59.3690559,31.614643 60.7506451,31.4474104 62.521316,31.4384078 C62.8732233,31.4366186 63.2329554,31.4413143 63.5976715,31.4517405 C62.1370105,30.6444995 60.4444191,30.0897132 58.6385309,29.8212132 C57.4354244,29.6430199 54.6775774,29.5401743 51.6798736,29.5126672 C51.6856287,29.5440823 51.6914285,29.5756757 51.6972705,29.6074495 C51.8470781,30.4222189 51.3080199,31.204163 50.4932505,31.3539705 C49.6784811,31.5037781 48.896537,30.9647199 48.7467295,30.1499505 C48.7061311,29.9291449 48.6674011,29.7161877 48.6305049,29.5104277 L48.6305049,29.5104277 Z M48.1650908,26.5147961 C48.0299297,25.3484763 48.0018702,24.4053046 48.0624543,23.3389283 C48.2173148,20.6351133 49.1277356,18.184421 50.8145936,16.4529666 C51.3926884,15.8595883 52.3423551,15.8471987 52.9357334,16.4252936 C53.5291117,17.0033884 53.5415013,17.9530551 52.9634064,18.5464334 C51.830978,19.7088005 51.1739965,21.4772789 51.0575851,23.5097822 C51.0030289,24.4700597 51.0380154,25.3417146 51.1883334,26.5089386 C54.521546,26.5305992 57.6732592,26.6455192 59.0788955,26.8537095 C62.3746862,27.3437285 65.4012792,28.6466431 67.6699052,30.6735515 C78.7963605,35.1691 85.3823,43.9962717 85.3823,55.6505 C85.3823,73.0755466 70.5436764,84.1605 49.9403,84.1605 C29.3386513,84.1605 14.5003,73.0752988 14.5003,55.6505 C14.5003,43.9273584 21.1640326,35.064179 32.4144588,30.5921775 C34.6617717,28.6029794 37.6513857,27.3466319 40.9675309,26.8535868 C42.2750484,26.6599291 45.0943245,26.5469962 48.1650885,26.5147969 L48.1650908,26.5147961 Z M67.111601,33.6893018 C67.0365405,33.6976486 66.9593444,33.6975663 66.8811204,33.6881847 C66.8196142,33.6808081 66.6994373,33.6673744 66.5288702,33.649892 C66.242067,33.6204958 65.9212811,33.5910425 65.5748505,33.5635338 C64.5364466,33.4810784 63.4959948,33.4334781 62.5314845,33.438382 C61.6058547,33.4430881 60.8091432,33.4978413 60.1914205,33.6002713 C60.7454932,34.8256273 61.482277,35.9942439 62.2906704,36.8956446 C62.9598104,37.6417703 62.2374659,38.7988579 61.2732879,38.525339 C60.3544115,38.2646713 59.208013,37.807951 57.8749275,37.1920097 C57.4607087,37.0006233 57.0325225,36.7956345 56.5930007,36.5789061 C55.6498095,36.1138182 54.6974434,35.6164067 53.7827606,35.1190489 C53.6581993,35.0513188 53.5377851,34.9854567 53.4218676,34.9217027 C53.2075196,35.2640807 52.9663161,35.6503204 52.702289,36.0738812 L52.686766,36.0987844 C52.2931229,36.7303209 51.8722506,37.4070812 51.4520081,38.0838575 C51.2139087,38.4673887 51.2139087,38.4673887 51.0459762,38.7380919 C50.9200853,38.9410895 50.9200853,38.9410895 50.8921918,38.986096 C50.502975,39.6141019 49.5905744,39.6177108 49.196402,38.9928033 C48.4274064,37.7736852 48.0414663,37.1618295 47.6578777,36.5536397 C47.5039699,36.3096124 47.5039699,36.3096124 47.3500649,36.0655781 C47.0951914,35.6614413 46.8550749,35.2806645 46.6245569,34.9150628 C46.5078397,34.9791117 46.3865594,35.0452956 46.2610732,35.11337 C45.3458868,35.6098451 44.3930356,36.1063737 43.4494201,36.570634 C43.0103031,36.7866803 42.5825062,36.9910406 42.1686539,37.1818623 C40.8363853,37.7961534 39.6905581,38.2518796 38.7720285,38.5123627 C37.8074609,38.7859015 37.085272,37.6279002 37.7552744,36.8820376 C38.5566613,35.9899146 39.290338,34.8248886 39.8450727,33.6000893 C39.285445,33.5020971 38.6354281,33.4400897 37.9132577,33.4132039 C36.7753276,33.3708397 35.5452935,33.4165449 34.3378026,33.5189303 C34.0249626,33.5454567 33.7383859,33.573839 33.4846463,33.6021394 C33.3343302,33.6189047 33.2297614,33.6317226 33.1774675,33.638647 C33.0814852,33.6513563 32.9868827,33.6500032 32.8957353,33.6361778 C23.1230247,37.7421661 17.5003,45.4374204 17.5003,55.6505 C17.5003,71.1970606 30.8370913,81.1605 49.9403,81.1605 C69.0452526,81.1605 82.3823,71.1972748 82.3823,55.6505 C82.3823,45.4802288 76.8059294,37.8064698 67.111601,33.6893018 L67.111601,33.6893018 Z M22.8400935,63.2400596 C22.6286459,62.7298554 22.8708361,62.144841 23.3810404,61.9333935 C23.8912446,61.7219459 24.476259,61.9641361 24.6877065,62.4743404 C27.9648154,70.3817154 36.4868225,75.3252 49.9409,75.3252 C50.4931847,75.3252 50.9409,75.7729153 50.9409,76.3252 C50.9409,76.8774847 50.4931847,77.3252 49.9409,77.3252 C35.7226722,77.3252 26.4477194,71.9449432 22.8400935,63.2400596 Z M21.6036002,52.1732798 C21.6906514,51.6278987 22.2033391,51.256349 22.7487202,51.3434002 C23.2941013,51.4304514 23.665651,51.9431391 23.5785998,52.4885202 C23.4175296,53.4976346 23.3351,54.5518286 23.3351,55.6499 C23.3351,56.2353457 23.3639986,56.8211344 23.4221688,57.4047131 C23.4769482,57.9542744 23.0758483,58.4441894 22.5262869,58.4989688 C21.9767256,58.5537482 21.4868106,58.1526483 21.4320312,57.6030869 C21.3672646,56.9533319 21.3351,56.3013396 21.3351,55.6499 C21.3351,54.446983 21.4257709,53.2873908 21.6036002,52.1732798 Z" id="Tomato" fill="#2F313A" fill-rule="nonzero"></path>
    </g>
</svg>