<?xml version="1.0" encoding="UTF-8"?>
<svg width="100px" height="100px" viewBox="0 0 100 100" version="1.1" xmlns="http://www.w3.org/2000/svg" xmlns:xlink="http://www.w3.org/1999/xlink">
    <!-- Generator: Sketch 59.1 (86144) - https://sketch.com -->
    <title>Vector Files/100x100/Flattened/Subcategories/Turkey</title>
    <desc>Created with Sketch.</desc>
    <g id="100x100/Flattened/Subcategories/Turkey" stroke="none" stroke-width="1" fill="none" fill-rule="evenodd">
        <path d="M20.4520055,81.1223186 C17.4505152,79.1186436 16.0044061,77.4654913 16.0005,75.3407 C16.0005,73.6131211 16.919228,72.0262583 18.4400491,71.1025926 C18.587947,71.0129222 18.6876877,70.8746521 18.7211372,70.7201297 C18.7535389,70.5704481 18.7210561,70.4133066 18.6290421,70.2831049 C18.0388726,69.4485978 17.7255,68.4709658 17.7255,67.4587 C17.7255,65.0967004 19.451508,63.0461439 21.8213205,62.564737 C22.0214842,62.5240533 22.1871224,62.4016621 22.2741624,62.237852 C22.3555855,62.0836144 22.360089,61.9067582 22.2864477,61.7498657 C21.9777065,61.088811 21.8195,60.394672 21.8195,59.6917 C21.8195,56.9217754 24.1415042,54.6857 26.9795,54.6857 L27.1362675,54.6980645 C27.2432199,54.715041 27.3067092,54.723036 27.3757094,54.7281679 C27.5778616,54.7450474 27.7703117,54.6740267 27.9114202,54.5345677 C28.0402187,54.4061425 28.1002488,54.2359769 28.0815744,54.0775215 L28.0549426,53.8690514 C28.0534366,53.8589861 28.0530073,53.8563411 28.0490615,53.8320253 C28.0267021,53.694643 28.0175,53.618291 28.0175,53.4977 C28.0175,50.7296831 30.3395854,48.4947 33.1765,48.4947 C33.3923971,48.4947 33.5440021,48.5116461 33.8508546,48.5579844 C33.8785772,47.1838838 33.9043796,45.9213336 33.9169845,45.3536733 C33.9543878,43.6692197 33.9879934,42.4211506 34.0233194,41.4570077 C34.0117442,41.7708127 34.1861501,35.4595181 34.2875309,33.0851459 C34.4743982,28.7086524 34.7287472,25.7497896 35.1303608,24.3210494 C36.0900264,20.9101032 37.880146,18.0311804 40.4194533,16.2000002 C42.958911,14.3671835 44.7238613,14.0003 49.6713,14.0003 C49.7580678,14.0003 49.843115,14.0076672 49.92585,14.0218102 C50.008585,14.0076672 50.0936322,14.0003 50.1804,14.0003 C55.1278387,14.0003 56.892789,14.3671835 59.4317653,16.1996529 C61.971554,18.0311804 63.7616736,20.9101032 64.7214343,24.3213874 C65.1229528,25.7497896 65.3773018,28.7086524 65.5641691,33.0851459 C65.6655499,35.4595181 65.8399558,41.7708127 65.8283942,41.4573772 C65.8637066,42.4211506 65.8973122,43.6692197 65.9347155,45.3536733 C65.9471267,45.9126079 65.9723327,47.1452337 65.9995684,48.4947 C68.8364519,48.4947359 71.1585,50.7297054 71.1585,53.4977 C71.1585,53.618291 71.1492979,53.694643 71.1269385,53.8320253 C71.1236759,53.8521305 71.1228175,53.8574203 71.1211354,53.8685949 L71.0955933,54.0680275 C71.0757512,54.2359769 71.1357813,54.4061425 71.2614718,54.5314822 C71.4056883,54.6740267 71.5981384,54.7450474 71.810015,54.7274037 C71.8692908,54.723036 71.9327801,54.715041 72.0397325,54.6980645 L72.1965,54.6857 C75.0338055,54.6857 77.3565,56.9220691 77.3565,59.6917 C77.3565,60.394672 77.1982935,61.088811 76.8887369,61.7516071 C76.815911,61.9067582 76.8204145,62.0836144 76.9005892,62.2354948 C76.9888776,62.4016621 77.1545158,62.5240533 77.3545753,62.5647158 C79.724492,63.0461439 81.4505,65.0967004 81.4505,67.4587 C81.4505,68.4709658 81.1371274,69.4485978 80.5471516,70.2828309 C80.4549439,70.4133066 80.4224611,70.5704481 80.4548628,70.7201297 C80.4883123,70.8746521 80.588053,71.0129222 80.7366056,71.1029899 C82.256772,72.0262583 83.1754983,73.6131211 83.1754983,75.3425391 C83.1717656,77.3721856 81.8500485,78.972171 79.1114726,80.859594 C79.6725036,81.3659695 80.2222215,81.8882731 80.7600864,82.4262661 C81.3458031,83.0121223 81.3456901,83.9618697 80.7598339,84.5475864 C80.1739777,85.1333031 79.2242303,85.1331901 78.6385136,84.5473339 C75.1964913,81.1044921 71.2368754,78.3534133 66.9200113,76.3635946 C67.1785179,80.2667134 67.4915341,83.1686962 67.8718391,84.9932171 C68.040884,85.8042136 67.5204794,86.5986941 66.7094829,86.7677391 C65.8984864,86.936784 65.1040059,86.4163794 64.9349609,85.6053829 C64.1584369,81.8799929 63.672816,74.398399 63.3422583,63.3961734 C63.2536339,60.446413 63.1798391,57.3894148 63.1023621,53.647072 C63.0859548,52.8545569 62.9675773,46.8669032 62.9354549,45.4202719 C62.8983456,43.7490613 62.8650755,42.5134527 62.8304194,41.5675923 C62.8411727,41.8591148 62.6670971,35.5597715 62.5669,33.2131232 C62.511296,31.9108588 62.448383,30.7319395 62.3784243,29.6939727 C61.3423119,26.053651 59.2663675,23.8577682 56.832957,23.5520767 C53.7464936,23.1643469 51.1301289,26.0422527 50.8549847,31.0886182 C50.8695798,31.3805753 50.877,31.677613 50.877,31.9795 C50.877,32.5317847 50.4292847,32.9795 49.877,32.9795 C49.8693295,32.9795 49.8616792,32.9794136 49.85405,32.9792418 C49.8464208,32.9794136 49.8387705,32.9795 49.8311,32.9795 C49.2788153,32.9795 48.8311,32.5317847 48.8311,31.9795 C48.8311,31.677613 48.8385202,31.3805753 48.8531153,31.0886182 C48.5779711,26.0422527 45.9616064,23.1643469 42.875143,23.5520767 C40.5799217,23.8404085 38.6027195,25.8103459 37.5161279,29.087846 C37.4287914,30.2650051 37.351532,31.6502364 37.2848,33.2131232 C37.1846029,35.5597715 37.0105273,41.8591148 37.0212942,41.5672228 C36.9866245,42.5134527 36.9533544,43.7490613 36.9162451,45.4202719 C36.8841227,46.8669032 36.7657452,52.8545569 36.7493379,53.647072 C36.6718609,57.3894148 36.5980661,60.446413 36.5094417,63.3961734 C36.178884,74.398399 35.6932631,81.8799929 34.9167391,85.6053829 C34.7476941,86.4163794 33.9532136,86.936784 33.1422171,86.7677391 C32.3312206,86.5986941 31.810816,85.8042136 31.9798609,84.9932171 C32.3601671,83.1686905 32.673184,80.2666953 32.9316911,76.3635582 C28.6151903,78.353605 24.6556074,81.104913 21.2127602,84.5477602 C20.6269737,85.1335466 19.6772263,85.1335466 19.0914398,84.5477602 C18.5056534,83.9619737 18.5056534,83.0122263 19.0914398,82.4264398 C19.5369471,81.9809326 19.9905709,81.5461801 20.4520055,81.1223186 Z M22.0134297,79.7543138 C25.3832702,76.9395072 29.1239307,74.67265 33.1285434,73.0013213 C33.275742,70.1641143 33.4020444,66.9257094 33.5107948,63.3060802 C33.5990941,60.367141 33.6726805,57.3187761 33.7499806,53.5849769 C33.756828,53.2542271 33.7816047,52.0100638 33.8104526,50.5693191 C33.7594066,50.5647424 33.7083656,50.5587272 33.6573891,50.5512615 C33.6234898,50.5462853 33.6234898,50.5462853 33.5910273,50.5414174 C33.5721799,50.5385788 33.5721799,50.5385788 33.5538281,50.5358059 C33.3435396,50.5040345 33.2602558,50.4947 33.1765,50.4947 C31.4276433,50.4947 30.0178783,51.8513585 30.0175001,53.4970376 C30.0175064,53.4758541 30.0178385,53.4784933 30.0230878,53.5107464 C30.028494,53.5438302 30.028494,53.5438302 30.0365607,53.598288 L30.0665933,53.8333725 C30.1588051,54.61388 29.8844493,55.3915885 29.3204718,55.9539178 C28.763434,56.5044971 27.9977349,56.7870664 27.219015,56.7219963 C27.1194639,56.714661 27.0245,56.7036866 26.9080791,56.6864553 C25.1913449,56.7227996 23.8195,58.0660531 23.8195,59.6917 C23.8195,60.0982842 23.9119863,60.5040723 24.0977369,60.9017929 C24.4378774,61.6264399 24.4165593,62.4636169 24.0415892,63.1739052 C23.6711114,63.8711799 23.0018807,64.365679 22.2195753,64.5246842 C20.7700735,64.819138 19.7255,66.060127 19.7255,67.4587 C19.7255,68.0556261 19.9096537,68.6301323 20.2621516,69.1285691 C20.6765478,69.7149478 20.8272426,70.4439614 20.6758628,71.1432703 C20.525356,71.8385464 20.0912338,72.4403681 19.4776056,72.8124101 C18.54682,73.3777199 18.0004983,74.3213451 18.0004983,75.3388609 C18.0028814,76.6346856 19.273913,77.9799892 22.0134297,79.7543138 L22.0134297,79.7543138 Z M77.5395984,79.5066286 C80.0189065,77.8535007 81.1732305,76.5739029 81.1755,75.3407 C81.1755,74.3213451 80.62918,73.3777199 79.6990491,72.8128074 C79.0847662,72.4403681 78.650644,71.8385464 78.5001372,71.1432703 C78.3487574,70.4439614 78.4994522,69.7149478 78.9140421,69.1282951 C79.2663463,68.6301323 79.4505,68.0556261 79.4505,67.4587 C79.4505,66.060127 78.4059265,64.819138 76.9563205,64.524663 C76.1741193,64.365679 75.5048886,63.8711799 75.1331624,63.171548 C74.7594407,62.4636169 74.7381226,61.6264399 75.0774477,60.9035343 C75.2640137,60.5040723 75.3565,60.0982842 75.3565,59.6917 C75.3565,58.066434 73.9840779,56.7228343 72.2679437,56.6864565 C72.151825,56.703662 72.0583648,56.7145172 71.9667094,56.7212321 C71.1782651,56.7870664 70.412566,56.5044971 69.8524202,55.9508323 C69.2915507,55.3915885 69.0171949,54.61388 69.1105744,53.8238785 L69.1420335,53.5803764 C69.1475378,53.5436356 69.1479205,53.5412931 69.1529122,53.5107464 C69.1581627,53.4784855 69.1584938,53.4758528 69.1584999,53.4970454 C69.1581332,51.8640134 67.7699461,50.5155683 66.039758,50.4949399 C66.0692393,51.9670721 66.0947544,53.2485484 66.1017194,53.5849769 C66.1790195,57.3187761 66.2526059,60.367141 66.3409052,63.3060802 C66.4496577,66.9257778 66.5759628,70.1642367 66.7231649,73.0014822 C70.6100696,74.6233674 74.2482203,76.8061922 77.5395984,79.5066286 L77.5395984,79.5066286 Z M53.0827424,51.7292436 L52.8567244,51.8218457 C50.9158352,52.6174046 48.7393648,52.6174046 46.7984756,51.8218457 L46.6241985,51.7504424 C46.6228393,51.8503896 46.6213322,51.9606805 46.6196812,52.0808481 C46.6101149,52.777145 46.5991596,53.5529963 46.5869898,54.3885204 C46.5522179,56.7758045 46.514683,59.1631207 46.475779,61.3914966 C46.4263743,64.2213477 46.3783449,66.5864698 46.3330075,68.3341977 C46.2919747,69.9159847 46.2542505,70.9542372 46.2216,71.3301 C46.2216,73.9867838 45.0601007,76.0970854 43.3194547,76.1621521 C41.417908,76.2332333 40.3426,73.9976979 40.3426,70.4951 C40.3426,60.4900168 40.9001068,54.0617376 42.7812195,48.161635 C42.8670226,47.5082396 43.2109723,46.8802082 43.8318673,46.44967 L48.4091391,43.2764816 C49.262695,42.6851728 50.392505,42.6851728 51.2463327,43.27667 L55.8238214,46.4500089 C56.3544322,46.8183217 56.6826504,47.3310594 56.82016,47.8805373 C56.8475954,47.9321378 56.8708712,47.9868698 56.88942,48.0444426 C58.800682,53.9767225 59.3656,60.4237351 59.3656,70.4951 C59.3656,73.9976979 58.290292,76.2332333 56.3887453,76.1621521 C54.6480993,76.0970854 53.4866,73.9867838 53.4896788,71.4085095 C53.4536301,70.9501761 53.415493,69.8968856 53.3739595,68.2907683 C53.3288683,66.547073 53.2811068,64.1975881 53.2319715,61.3915487 C53.1929514,59.1631737 53.1552885,56.7758583 53.1203863,54.388575 C53.1081709,53.5530511 53.0971729,52.7772 53.0875681,52.0809034 C53.0857921,51.9521543 53.0841819,51.8347428 53.0827424,51.7292436 L53.0827424,51.7292436 Z M55.0401483,50.9272728 C55.0621235,51.0075264 55.0743661,51.0918533 55.0755132,51.1789264 C55.0776055,51.3377371 55.0816201,51.6359127 55.0873778,52.0533177 C55.0969754,52.7490833 55.1079656,53.5243872 55.1201726,54.359338 C55.1550487,56.7448395 55.1926825,59.1303088 55.2316649,61.3565329 C55.280711,64.1574786 55.3283728,66.5020576 55.3732911,68.2390664 C55.4137672,69.8042958 55.4513755,70.8429804 55.4866,71.3301 C55.4866,72.2832854 55.6688591,73.0846198 55.9687635,73.6295094 C56.1749393,74.0041055 56.37435,74.1602171 56.4634547,74.1635792 C56.5220319,74.1657376 56.6669077,74.0533901 56.8583375,73.6554129 C57.1749309,72.9972239 57.3656,71.925431 57.3656,70.4951 C57.3656,61.7837963 56.9367834,55.8644677 55.5797652,50.6928798 C55.5057558,50.732007 55.4287329,50.7680817 55.3487244,50.8008457 L55.0401483,50.9272728 L55.0401483,50.9272728 Z M44.6619921,50.9465047 L44.3066378,50.8009122 C44.2432575,50.7749575 44.1817496,50.746926 44.122128,50.716946 C42.7700876,55.8828342 42.3426,61.7973061 42.3426,70.4951 C42.3426,71.925431 42.5332691,72.9972239 42.8498625,73.6554129 C43.0412923,74.0533901 43.1861681,74.1657376 43.2447453,74.1635792 C43.33385,74.1602171 43.5332607,74.0041055 43.7394365,73.6295094 C44.0393409,73.0846198 44.2216,72.2832854 44.2246788,71.2516905 C44.2565163,70.8468993 44.2937016,69.8234774 44.33368,68.2823336 C44.3788409,66.5414122 44.4267694,64.1812592 44.4760838,61.356585 C44.5149501,59.1303619 44.552456,56.7448933 44.5872019,54.3593926 C44.5993633,53.5244421 44.6103109,52.7491383 44.6198699,52.0533729 C44.6256046,51.6359682 44.6296026,51.3377927 44.631686,51.1789822 C44.6327377,51.0988173 44.6431942,51.0209796 44.6619921,50.9465047 L44.6619921,50.9465047 Z M44.7600094,48.4973161 C44.7607213,48.6839519 44.866004,48.868777 45.0647244,48.9501543 L47.5568693,49.9712137 C49.0118352,50.5675954 50.6433648,50.5675954 52.0983307,49.9712137 L54.5906378,48.9500878 C54.9502997,48.802804 55.003411,48.3151351 54.6838673,48.09333 L50.1071391,44.9205184 C49.938695,44.8038272 49.716505,44.8038272 49.5483327,44.92033 L44.9714253,48.0932659 C44.8595859,48.1708171 44.7933142,48.280768 44.7697826,48.3973039 C44.7682253,48.430545 44.7649862,48.4639186 44.7600094,48.4973161 L44.7600094,48.4973161 Z M61.4000129,23.8119904 C60.5678325,21.6085849 59.300284,19.803527 57.6765533,18.6325998 C55.7631155,17.2516038 54.5541792,17.0003 50.1804,17.0003 C50.0936322,17.0003 50.008585,16.9929328 49.92585,16.9787898 C49.843115,16.9929328 49.7580678,17.0003 49.6713,17.0003 C45.2975208,17.0003 44.0885845,17.2516038 42.1746653,18.6329471 C40.6087257,19.7621991 39.3739155,21.4817657 38.5416202,23.5796345 C39.7150249,22.4551092 41.100584,21.7592822 42.625857,21.5676733 C45.7683524,21.1729047 48.45831,23.0455878 49.85405,26.3926741 C51.24979,23.0455878 53.9397476,21.1729047 57.082243,21.5676733 C58.709957,21.7721511 60.1785598,22.5508504 61.4000129,23.8119904 L61.4000129,23.8119904 Z M47.3009,38.3945 C47.3009,39.5695 46.3489,40.5225 45.1729,40.5225 C43.9979,40.5225 43.0459,39.5695 43.0459,38.3945 C43.0459,37.2195 43.9979,36.2675 45.1729,36.2675 C46.3489,36.2675 47.3009,37.2195 47.3009,38.3945 Z M56.6622,38.3945 C56.6622,39.5695 55.7102,40.5225 54.5342,40.5225 C53.3592,40.5225 52.4072,39.5695 52.4072,38.3945 C52.4072,37.2195 53.3592,36.2675 54.5342,36.2675 C55.7102,36.2675 56.6622,37.2195 56.6622,38.3945 Z M40.0255,80.8389 C39.9715,81.3889 39.4825,81.7909 38.9325,81.7369 C38.3835,81.6829 37.9815,81.1939 38.0355,80.6439 C38.0885,80.0949 38.5785,79.6929 39.1285,79.7469 C39.6775,79.7999 40.0795,80.2899 40.0255,80.8389 Z M43.8116,83.2187 C43.7576,83.7687 43.2686,84.1707 42.7196,84.1167 C42.1696,84.0627 41.7676,83.5737 41.8216,83.0247 C41.8746,82.4747 42.3646,82.0727 42.9146,82.1267 C43.4636,82.1797 43.8666,82.6697 43.8116,83.2187 Z M39.6368,84.8198 C39.5818,85.3698 39.0938,85.7718 38.5438,85.7178 C37.9938,85.6638 37.5918,85.1748 37.6458,84.6258 C37.6998,84.0758 38.1888,83.6738 38.7388,83.7278 C39.2878,83.7808 39.6908,84.2708 39.6368,84.8198 Z" id="Turkey" fill="#2F313A" fill-rule="nonzero"></path>
    </g>
</svg>