<?xml version="1.0" encoding="UTF-8"?>
<svg width="100px" height="100px" viewBox="0 0 100 100" version="1.1" xmlns="http://www.w3.org/2000/svg" xmlns:xlink="http://www.w3.org/1999/xlink">
    <!-- Generator: Sketch 59.1 (86144) - https://sketch.com -->
    <title>Vector Files/100x100/Flattened/Subcategories/Veal</title>
    <desc>Created with Sketch.</desc>
    <g id="100x100/Flattened/Subcategories/Veal" stroke="none" stroke-width="1" fill="none" fill-rule="evenodd">
        <path d="M45.7619942,26.420021 C42.9102084,26.6973658 40.028937,27.2424228 37.0645609,28.0559207 C36.9597717,28.0846774 36.8521679,28.1019624 36.7436442,28.1074712 C35.7811079,28.1563309 34.9043166,28.1877708 34.1298542,28.2052674 C33.6617864,28.2158419 33.3294918,28.2194 33.1496,28.2194 C32.8845593,28.2194 32.6242507,28.1491744 32.3951722,28.0158716 C31.0639709,27.2412344 29.5460641,26.9687389 27.4845839,27.0317253 C22.0188439,27.1957126 17.3907592,28.7347649 8.84158037,32.765008 C10.4598554,34.453389 12.7324491,35.5578582 15.9801138,36.4770995 C18.7991546,37.2750047 21.0637282,37.6715823 23.2186908,37.6674028 C25.7159649,37.6625594 27.9987484,37.085309 29.9313939,35.9021079 C30.4874312,35.5616917 31.1777941,35.6267437 31.6575091,36.0142886 C32.3082747,36.1828989 32.7862274,36.7769559 32.7800419,37.4796042 C32.7268251,43.5248028 33.9455648,57.5716343 34.9916722,66.6771411 C36.948765,64.5996981 40.9048985,62.2491801 45.0250495,60.4497003 C46.6093698,59.7562889 48.31467,59.4008 50.05,59.4008 C51.783425,59.4008 53.488632,59.7563268 55.0732426,60.4493908 C59.1937967,62.2490469 63.1493656,64.5992124 65.106218,66.6765536 C66.152285,57.5673214 67.3713835,43.511347 67.3181581,37.464603 C67.3117954,36.7417592 67.817801,36.1338391 68.4972258,35.9858117 C68.9735591,35.6373217 69.6322551,35.589846 70.1668061,35.9171079 C72.1107313,37.1072146 74.4018894,37.693557 76.8795092,37.6974028 C79.0729438,37.701657 81.3873016,37.3099999 84.1189668,36.5371332 C87.4233915,35.601549 89.6619087,34.5364076 91.2573228,32.8814513 C82.5087134,28.7295033 78.0169964,27.1938339 72.6138139,27.031701 C70.5524504,26.9687505 69.0351219,27.2411422 67.702717,28.0160524 C67.473712,28.1492389 67.2135188,28.2194 66.9486,28.2194 C66.7616091,28.2194 66.4219671,28.2134176 65.9461618,28.1957409 C65.1624954,28.1666269 64.2759378,28.1143689 63.3029178,28.0332091 C63.2130046,28.0257095 63.1239515,28.0101127 63.0368414,27.9866084 C59.7423151,27.0976725 56.5454433,26.5408291 53.3715328,26.3170938 C53.2413169,27.0329846 53.1420338,27.7544921 53.0745969,28.4790702 C53.0234165,29.0289783 52.536138,29.4332772 51.9862298,29.3820969 C51.4363217,29.3309165 51.0320228,28.843638 51.0832031,28.2937298 C51.147857,27.5990549 51.2395895,26.9071097 51.3577231,26.2197842 C50.1790541,26.1890401 49.0013745,26.2044266 47.8208358,26.266065 C47.9844851,26.731365 48.1657252,27.1904462 48.3643396,27.6419172 C48.5867352,28.1474453 48.3572109,28.737544 47.8516828,28.9599396 C47.3461547,29.1823352 46.756056,28.9528109 46.5336604,28.4472828 C46.2422998,27.7849899 45.9848945,27.10806 45.7619942,26.420021 L45.7619942,26.420021 Z M47.0323068,23.3072897 C48.7056819,23.1980937 50.3730196,23.1758629 52.0430987,23.2404727 C52.845598,20.4682775 54.0834068,17.8225654 55.7084771,15.4373501 C56.019441,14.9809293 56.6415292,14.8630132 57.0979499,15.1739771 C57.5543707,15.484941 57.6722868,16.1070292 57.3613229,16.5634499 C55.9405355,18.6488267 54.8386525,20.9508877 54.0938249,23.3632854 C57.2490546,23.6189204 60.4267826,24.1829655 63.6858153,25.0545857 C64.5589805,25.1255412 65.3543881,25.1716863 66.0575382,25.1978091 C66.2579766,25.2052556 66.4300859,25.2104098 66.5722565,25.2138096 C68.3605779,24.2750271 70.3027998,23.9597281 72.7045901,24.0330749 C78.89781,24.2189141 83.8091943,25.9767781 93.690128,30.7184646 C93.9691829,30.8524035 93.9691829,30.8524035 94.2477615,30.9861466 C95.0658428,31.3788739 95.3505691,32.4024006 94.8528129,33.1611697 C92.7397404,36.3822931 89.701572,38.0744528 84.9359633,39.4237431 C81.9578754,40.2663299 79.3818912,40.7022618 76.8742717,40.6973982 C74.5447908,40.6937824 72.3198414,40.2575761 70.3015124,39.3663175 C70.0669534,49.8626524 67.6429884,73.2487482 66.7334493,75.8714406 C65.8400392,78.4501973 60.7373753,81.7283888 55.2727356,84.1158952 C53.6249453,84.8359569 51.8516185,85.2054 50.0491,85.2054 C48.2467874,85.2054 46.4735738,84.8360402 44.8242943,84.1158208 C39.3567367,81.725767 34.2568316,78.4495438 33.3649024,75.8718783 C32.4541274,73.2456219 30.0264425,49.8283885 29.7959983,39.3498865 C27.7851408,40.2339452 25.5650339,40.6628578 23.2245092,40.6673972 C20.7469416,40.6722024 18.2268989,40.2308864 15.1630789,39.3636985 C10.4806823,38.038361 7.36627423,36.2742056 5.2453871,33.0411697 C4.74761185,32.2823716 5.03238113,31.2588044 5.85051638,30.8661092 C15.8757944,26.0540942 21.0197676,24.2243377 27.3937902,24.0330997 C29.7976186,23.9596528 31.741598,24.2755814 33.5303365,25.2160357 C33.6771813,25.2139308 33.8549996,25.2107113 34.0620958,25.2060326 C34.7658353,25.1901338 35.5597868,25.1622063 36.429864,25.1194095 C39.351769,24.3258453 42.2048665,23.7792379 45.0309789,23.4789935 C44.6771938,21.4689532 44.6043675,19.4097109 44.8248516,17.3805766 C44.8845113,16.8315236 45.3779704,16.434792 45.9270234,16.4944516 C46.4760764,16.5541113 46.872808,17.0475704 46.8131484,17.5966234 C46.6067324,19.4962869 46.6839864,21.4268597 47.0323068,23.3072897 L47.0323068,23.3072897 Z M64.7602144,69.5571916 C64.5850053,69.4402536 64.4451701,69.2672211 64.3709755,69.0527995 C63.8115478,67.4360604 59.0080425,64.3503497 54.2722799,62.2820005 C52.9402982,61.6994295 51.5079871,61.4008 50.05,61.4008 C48.5901704,61.4008 47.1579377,61.6993649 45.8262426,62.2822092 C41.0910968,64.3502889 36.287125,67.4361147 35.7268996,69.0531604 C35.6526649,69.2674328 35.5128796,69.4403376 35.3377645,69.5572061 C35.6890957,72.3372674 35.9979986,74.3084687 36.1996368,74.8899008 C36.6922978,76.313685 41.433546,79.3595039 46.0253903,81.366754 C47.2950261,81.9211877 48.6594653,82.2054 50.0491,82.2054 C51.4387815,82.2054 52.8030814,81.9211709 54.0715629,81.3668618 C58.6622604,79.3611817 63.4051375,76.3141341 63.8989024,74.8889217 C64.1003503,74.3080386 64.4090546,72.3371731 64.7602144,69.5571916 L64.7602144,69.5571916 Z M45.9021,71.3781 C45.9021,70.5089792 45.1984098,69.8051 44.3291,69.8051 C43.4603847,69.8051 42.7561,70.5093847 42.7561,71.3781 C42.7561,72.2468153 43.4603847,72.9511 44.3291,72.9511 C45.1984098,72.9511 45.9021,72.2472208 45.9021,71.3781 Z M47.9021,71.3781 C47.9021,73.3516701 46.3030995,74.9511 44.3291,74.9511 C42.3558153,74.9511 40.7561,73.3513847 40.7561,71.3781 C40.7561,69.4048153 42.3558153,67.8051 44.3291,67.8051 C46.3030995,67.8051 47.9021,69.4045299 47.9021,71.3781 Z M57.3426,71.3781 C57.3426,70.5093847 56.6383153,69.8051 55.7696,69.8051 C54.9008847,69.8051 54.1966,70.5093847 54.1966,71.3781 C54.1966,72.2468153 54.9008847,72.9511 55.7696,72.9511 C56.6383153,72.9511 57.3426,72.2468153 57.3426,71.3781 Z M59.3426,71.3781 C59.3426,73.3513847 57.7428847,74.9511 55.7696,74.9511 C53.7963153,74.9511 52.1966,73.3513847 52.1966,71.3781 C52.1966,69.4048153 53.7963153,67.8051 55.7696,67.8051 C57.7428847,67.8051 59.3426,69.4048153 59.3426,71.3781 Z M47.0496,49.0852 C47.0496,50.4662 45.9296,51.5852 44.5496,51.5852 C43.1686,51.5852 42.0496,50.4662 42.0496,49.0852 C42.0496,47.7052 43.1686,46.5852 44.5496,46.5852 C45.9296,46.5852 47.0496,47.7052 47.0496,49.0852 Z M58.0496,49.0852 C58.0496,50.4662 56.9296,51.5852 55.5496,51.5852 C54.1686,51.5852 53.0496,50.4662 53.0496,49.0852 C53.0496,47.7052 54.1686,46.5852 55.5496,46.5852 C56.9296,46.5852 58.0496,47.7052 58.0496,49.0852 Z M36.8474,37.6716 C36.8804,38.2226 36.4614,38.6966 35.9104,38.7306 C35.3594,38.7636 34.8844,38.3446 34.8514,37.7936 C34.8174,37.2416 35.2374,36.7676 35.7874,36.7346 C36.3394,36.7006 36.8134,37.1206 36.8474,37.6716 Z M40.9617,39.424 C40.9947,39.975 40.5757,40.449 40.0247,40.483 C39.4737,40.517 38.9987,40.097 38.9657,39.546 C38.9317,38.995 39.3517,38.521 39.9027,38.487 C40.4537,38.453 40.9287,38.873 40.9617,39.424 Z M37.0906,41.6643 C37.1246,42.2153 36.7046,42.6893 36.1536,42.7233 C35.6026,42.7563 35.1276,42.3373 35.0946,41.7863 C35.0616,41.2343 35.4806,40.7603 36.0316,40.7273 C36.5826,40.6933 37.0576,41.1133 37.0906,41.6643 Z" id="Veal" fill="#2F313A" fill-rule="nonzero"></path>
    </g>
</svg>