<?xml version="1.0" encoding="UTF-8"?>
<svg width="100px" height="100px" viewBox="0 0 100 100" version="1.1" xmlns="http://www.w3.org/2000/svg" xmlns:xlink="http://www.w3.org/1999/xlink">
    <!-- Generator: Sketch 59.1 (86144) - https://sketch.com -->
    <title>Vector Files/100x100/Flattened/Subcategories/Watermelon</title>
    <desc>Created with Sketch.</desc>
    <g id="100x100/Flattened/Subcategories/Watermelon" stroke="none" stroke-width="1" fill="none" fill-rule="evenodd">
        <path d="M86.3799,36.445 C86.3799,34.8268272 86.2604104,33.4820878 85.9854886,31.840673 C85.8080908,30.7810328 84.8816795,30 83.8009,30 L16.5849,30 C15.5016901,30 14.5741971,30.7848701 14.3988746,31.849285 C14.1225312,33.5234822 13.9999,34.9235219 13.9999,36.552 C13.9999,55.4104177 30.1582796,70.659 50.1909,70.659 C70.1944407,70.659 86.3799,55.3172564 86.3799,36.445 Z M89.3799,36.445 C89.3799,57.011091 71.8164429,73.659 50.1909,73.659 C28.5390506,73.659 10.9999,57.1073911 10.9999,36.552 C10.9999,34.7538948 11.1367708,33.1912868 11.4388428,31.3612161 C11.8530804,28.846302 14.0348838,27 16.5849,27 L83.8009,27 C86.3448403,27 88.5244848,28.8376003 88.9442927,31.3452154 C89.2457566,33.1450997 89.3799,34.6547524 89.3799,36.445 Z M18.4422551,39.4071783 C18.4976612,39.9566768 18.0971202,40.4470489 17.5476217,40.5024551 C16.9981232,40.5578612 16.5077511,40.1573202 16.4523449,39.6078217 C16.3632312,38.7240235 16.3183,37.8386441 16.3183,36.9505 C16.3183,36.7471002 16.3174537,36.582138 16.3149521,36.2180441 C16.3018024,34.3042316 16.3338155,33.4653505 16.5240069,32.4049578 C16.6215085,31.8613477 17.1412322,31.4997053 17.6848422,31.5972069 C18.2284523,31.6947085 18.5900947,32.2144322 18.4925931,32.7580422 C18.3315744,33.655785 18.3026093,34.4147968 18.3149048,36.2043026 C18.3174378,36.5729471 18.3183,36.7410166 18.3183,36.9505 C18.3183,37.771327 18.3598332,38.5897479 18.4422551,39.4071783 Z M69.8223845,58.7529453 C70.2790437,58.4423317 70.9010412,58.5607252 71.2116547,59.0173845 C71.5222683,59.4740437 71.4038748,60.0960412 70.9472155,60.4066547 C65.0512988,64.4169786 57.8103662,66.6278 50.1898,66.6278 C35.205419,66.6278 22.1083399,58.0279196 17.7904658,45.6337876 C17.6087709,45.1122463 17.884271,44.5421606 18.4058124,44.3604658 C18.9273537,44.1787709 19.4974394,44.454271 19.6791342,44.9758124 C23.7068515,56.5370711 36.0285249,64.6278 50.1898,64.6278 C57.4107809,64.6278 64.2595393,62.5367183 69.8223845,58.7529453 Z M81.6886069,32.7582422 C81.5911053,32.2146322 81.9527477,31.6949085 82.4963578,31.5974069 C83.0399678,31.4999053 83.5596915,31.8615477 83.6571931,32.4051578 C83.9241521,33.8935601 84.0609,35.4155334 84.0609,36.9507 C84.0609,44.7600984 80.6064982,52.0853805 74.5474373,57.5766707 C74.1382105,57.9475506 73.5058091,57.9164641 73.1349293,57.5072373 C72.7640494,57.0980105 72.7951359,56.4656091 73.2043627,56.0947293 C78.8569884,50.9717888 82.0609,44.1776873 82.0609,36.9507 C82.0609,35.5345155 81.9347667,34.1306805 81.6886069,32.7582422 Z M77.2363,37.8659 C77.0103,38.6119 76.2223,39.0339 75.4763,38.8079 C74.7293,38.5829 74.3073,37.7949 74.5333,37.0489 C74.7583,36.3029 75.5473,35.8799 76.2933,36.1049 C77.0403,36.3309 77.4623,37.1189 77.2363,37.8659 Z M75.3125,44.2321 C75.0865,44.9781 74.2985,45.4011 73.5525,45.1751 C72.8055,44.9501 72.3835,44.1621 72.6095,43.4151 C72.8345,42.6691 73.6235,42.2461 74.3695,42.4711 C75.1165,42.6971 75.5385,43.4851 75.3125,44.2321 Z M69.252,39.8786 C68.506,39.6526 68.083,38.8646 68.309,38.1176 C68.534,37.3716 69.322,36.9486 70.069,37.1746 C70.815,37.3996 71.238,38.1886 71.013,38.9356 C70.787,39.6816 69.999,40.1046 69.252,39.8786 Z" id="Watermelon" fill="#2F313A" fill-rule="nonzero"></path>
    </g>
</svg>