<?xml version="1.0" encoding="UTF-8"?>
<svg width="100px" height="100px" viewBox="0 0 100 100" version="1.1" xmlns="http://www.w3.org/2000/svg" xmlns:xlink="http://www.w3.org/1999/xlink">
    <!-- Generator: Sketch 59.1 (86144) - https://sketch.com -->
    <title>Vector Files/100x100/Flattened/Actions/Block</title>
    <desc>Created with Sketch.</desc>
    <g id="100x100/Flattened/Actions/Block" stroke="none" stroke-width="1" fill="none" fill-rule="evenodd">
        <path d="M70.7511635,22.5057704 C71.8525185,24.0567824 72.5,25.9527107 72.5,28 C72.5,33.2464301 68.2464301,37.5 63,37.5 C61.0251738,37.5 59.1910229,36.8973244 57.6714504,35.8658764 L70.7511635,22.5057704 L70.7511635,22.5057704 Z M68.6510108,20.3625875 L55.4844464,33.8114067 C54.2404183,32.2049706 53.5,30.1888988 53.5,28 C53.5,22.7528716 57.753166,18.5 63,18.5 C65.1167374,18.5 67.0717486,19.1921841 68.6510108,20.3625875 L68.6510108,20.3625875 Z M55.0337303,37.6329353 C57.1966936,39.4237129 59.9727157,40.5 63,40.5 C69.9032843,40.5 75.5,34.9032843 75.5,28 C75.5,21.0959708 69.9036418,15.5 63,15.5 C56.0963582,15.5 50.5,21.0959708 50.5,28 C50.5,31.2786441 51.7624387,34.2625685 53.8277078,36.4921649 C53.8897848,36.7622602 54.0273696,37.0183336 54.2401038,37.226603 C54.4660279,37.4477856 54.7440577,37.5830866 55.0337303,37.6329353 L55.0337303,37.6329353 Z M28.037925,42.1633544 C27.6464545,42.1096622 27.2489931,42.051182 26.8452805,41.9879584 C26.2996461,41.9025092 25.9265923,41.3909149 26.0120416,40.8452805 C26.0974908,40.2996461 26.6090851,39.9265923 27.1547195,40.0120416 C35.3390292,41.2937475 40.6320725,40.5469472 45.6368643,37.4145444 C46.1050154,37.1215377 46.7220558,37.2635202 47.0150626,37.7316713 C47.3080694,38.1998225 47.1660868,38.8168629 46.6979357,39.1098696 C42.1676845,41.9452665 37.4192587,42.9877023 30.9999384,42.486268 C30.9999795,42.4908405 31,42.4954178 31,42.5 L31,53.6170186 C31,60.8303097 36.3141769,63.9993649 46.2939999,63.9999999 C56.0857055,63.9993712 61,60.9205848 61,53.6170186 L61,47.9272461 C61,47.098819 61.6715729,46.4272461 62.5,46.4272461 C63.3284271,46.4272461 64,47.098819 64,47.9272461 L64,53.6170186 C64,62.9468751 57.5351621,66.9981824 46.2985636,66.9999999 L46.2939999,66.9999999 C34.8716586,66.9981949 28,62.8992423 28,53.6170186 L28,42.5 C28,42.384255 28.0131096,42.2715718 28.037925,42.1633544 L28.037925,42.1633544 Z M33.7726218,71 L58.2273782,71 C62.2624556,71 65.2729322,73.198824 67.3472058,76.742204 C68.0469043,77.9374647 68.5909531,79.2066886 69.0020647,80.4749698 C69.2501838,81.2404182 69.4012109,81.8457201 69.4726759,82.214999 C69.6300776,83.0283355 69.0983375,83.8152742 68.285001,83.9726759 C67.4716645,84.1300776 66.6847258,83.5983375 66.5273241,82.785001 C66.5171294,82.7323227 66.4906572,82.6118027 66.4461546,82.4334407 C66.3689601,82.1240528 66.2701903,81.7762191 66.1482492,81.4000302 C65.7996374,80.3245614 65.3390452,79.2500353 64.7581942,78.257796 C63.173755,75.551176 61.0499929,74 58.2273782,74 L33.7726218,74 C30.9500071,74 28.826245,75.551176 27.2418058,78.257796 C26.6609548,79.2500353 26.2003626,80.3245614 25.8517508,81.4000302 C25.7298097,81.7762191 25.6310399,82.1240528 25.5538454,82.4334407 C25.5093428,82.6118027 25.4828706,82.7323227 25.4726759,82.785001 C25.3152742,83.5983375 24.5283355,84.1300776 23.714999,83.9726759 C22.9016625,83.8152742 22.3699224,83.0283355 22.5273241,82.214999 C22.5987891,81.8457201 22.7498162,81.2404182 22.9979353,80.4749698 C23.4090469,79.2066886 23.9530957,77.9374647 24.6527942,76.742204 C26.7270678,73.198824 29.7375444,71 33.7726218,71 Z M46.291,67 L46.297,64 L46.291,67 Z M31,37.5 C31,38.3284271 30.3284271,39 29.5,39 C28.6715729,39 28,38.3284271 28,37.5 L28,35.509158 C28,27.0923835 33.7500396,22.7933988 43.3695085,22.1008689 C44.1957971,22.0413823 44.9138598,22.6629981 44.9733464,23.4892867 C45.032833,24.3155753 44.4112172,25.033638 43.5849286,25.0931246 C35.3591722,25.6853176 31,28.9444282 31,35.509158 L31,37.5 Z M41,49.171875 C39.6198243,49.171875 38.5,49.0520507 38.5,47.671875 C38.5,46.2916993 39.6198243,45.171875 41,45.171875 C42.3812212,45.171875 43.5,46.2916993 43.5,47.671875 C43.5,49.0520507 42.3812212,49.171875 41,49.171875 Z M50.9994771,49.171875 C49.6190128,49.171875 48.5,49.0520507 48.5,47.671875 C48.5,46.2916993 49.6190128,45.171875 50.9994771,45.171875 C52.3809872,45.171875 53.5,46.2916993 53.5,47.671875 C53.5,49.0520507 52.3809872,49.171875 50.9994771,49.171875 Z M79,28 C79,36.839067 71.8363819,44 63,44 C54.1636181,44 47,36.839067 47,28 C47,19.1636181 54.1636181,12 63,12 C71.8363819,12 79,19.1636181 79,28 Z" id="Block" fill="#2F313A" fill-rule="nonzero"></path>
    </g>
</svg>