<?xml version="1.0" encoding="UTF-8"?>
<svg width="100px" height="100px" viewBox="0 0 100 100" version="1.1" xmlns="http://www.w3.org/2000/svg" xmlns:xlink="http://www.w3.org/1999/xlink">
    <!-- Generator: Sketch 59.1 (86144) - https://sketch.com -->
    <title>Vector Files/100x100/Flattened/Actions/Favorite Heart</title>
    <desc>Created with Sketch.</desc>
    <g id="100x100/Flattened/Actions/Favorite-Heart" stroke="none" stroke-width="1" fill="none" fill-rule="evenodd">
        <path d="M66.3617,19.9996 C77.4060414,19.9996 84.6547429,26.0031095 85.8307477,36.161095 C85.9260195,36.9840256 85.3361356,37.7283758 84.513205,37.8236477 C83.6902744,37.9189195 82.9459242,37.3290356 82.8506523,36.506105 C81.8554169,27.9095516 75.9270888,22.9996 66.3617,22.9996 C61.4150516,22.9996 56.2050777,26.1531853 51.5510409,30.7264982 C50.9674496,31.2999673 50.0319504,31.2999673 49.4483591,30.7264982 C44.7937039,26.1525775 39.5852057,22.9996 34.6387,22.9996 C24.1079622,22.9996 17.9997,28.9483629 17.9997,39.1716 C17.9997,42.7956358 19.4663729,46.5024357 21.944548,50.0747336 C23.4838379,52.2936252 25.1822227,54.1257047 26.1905029,55.0065239 L34.9675029,63.4325239 C35.565117,64.0062389 35.584491,64.9557888 35.0107761,65.5534029 C34.4370611,66.151017 33.4875112,66.170391 32.8898971,65.5966761 L24.1663235,57.2195435 C23.8566663,56.9497432 23.2449461,56.3541549 22.5719592,55.6281914 C21.5100233,54.4826613 20.4571862,53.1939074 19.479602,51.7847164 C16.6834742,47.7540886 14.9997,43.4985971 14.9997,39.1716 C14.9997,27.273484 22.4686127,19.9996 34.6387,19.9996 C40.1878965,19.9996 45.6013163,23.0507192 50.4997,27.5837104 C55.3977366,23.0512151 60.8124759,19.9996 66.3617,19.9996 Z M41.2450257,69.4590419 C41.8425747,70.0328247 41.8618409,70.9823767 41.2880581,71.5799257 C40.7142753,72.1774747 39.7647233,72.1967409 39.1671743,71.6229581 L37.0551743,69.5949581 C36.4576253,69.0211753 36.4383591,68.0716233 37.0121419,67.4740743 C37.5859247,66.8765253 38.5354767,66.8572591 39.1330257,67.4310419 L41.2450257,69.4590419 Z M82.6734926,42.1777966 C82.8460283,41.3675355 83.6427424,40.850557 84.4530034,41.0230926 C85.2632645,41.1956283 85.780243,41.9923424 85.6077074,42.8026034 C84.9306701,45.9821021 83.437656,49.0644828 81.3766687,51.9927063 C80.4192516,53.3529917 79.3972482,54.59619 78.3613855,55.7148479 C77.9929001,56.112786 77.6467585,56.4687665 77.3192649,56.7918241 C77.1327533,56.9758093 76.8405905,57.2554303 76.848459,57.2471814 L53.2267539,79.8843549 C52.4972683,80.6090412 51.5157056,81.0002 50.4996,81.0002 C49.484784,81.0002 48.5037378,80.6092471 47.7906557,79.9021403 L43.4876557,75.7701403 C42.8901166,75.1963472 42.8708666,74.2467948 43.4446597,73.6492557 C44.0184528,73.0517166 44.9680052,73.0324666 45.5655443,73.6062597 L49.8855877,77.7548879 C50.0450085,77.9129133 50.2640433,78.0002 50.4996,78.0002 C50.735867,78.0002 50.9542961,77.9131547 51.131741,77.7372186 L74.751718,55.1017647 C74.7499315,55.1035451 75.0496073,54.8167338 75.2124584,54.6560885 C75.5089132,54.3636493 75.8237165,54.0398978 76.1601705,53.6765515 C77.1098315,52.6509852 78.0480113,51.5097527 78.9234015,50.26601 C80.7690221,47.6437767 82.0905398,44.9154565 82.6734926,42.1777966 Z M23.5,39.1719 C23.5,39.7241847 23.0522847,40.1719 22.5,40.1719 C21.9477153,40.1719 21.5,39.7241847 21.5,39.1719 C21.5,32.9626495 24.040792,28.9006669 29.0259565,27.2865277 C29.551385,27.1164 30.1152446,27.4044281 30.2853723,27.9298565 C30.4555,28.455285 30.1674719,29.0191446 29.6420435,29.1892723 C25.5405923,30.5172752 23.5,33.779585 23.5,39.1719 Z M72.6451347,40.6477634 C72.8396697,40.4517767 73.15625,40.4505998 73.3522366,40.6451347 C73.5482233,40.8396697 73.5494002,41.15625 73.3548653,41.3522366 L72.2828653,42.4322366 C72.0883303,42.6282233 71.77175,42.6294002 71.5757634,42.4348653 C71.3797767,42.2403303 71.3785998,41.92375 71.5731347,41.7277634 L72.6451347,40.6477634 Z M76.7171347,36.6477634 C76.9116697,36.4517767 77.22825,36.4505998 77.4242366,36.6451347 C77.6202233,36.8396697 77.6214002,37.15625 77.4268653,37.3522366 L76.3548653,38.4322366 C76.1603303,38.6282233 75.84375,38.6294002 75.6477634,38.4348653 C75.4517767,38.2403303 75.4505998,37.92375 75.6451347,37.7277634 L76.7171347,36.6477634 Z M73.3548653,37.7277634 C73.5494002,37.92375 73.5482233,38.2403303 73.3522366,38.4348653 C73.15625,38.6294002 72.8396697,38.6282233 72.6451347,38.4322366 L71.5731347,37.3522366 C71.3785998,37.15625 71.3797767,36.8396697 71.5757634,36.6451347 C71.77175,36.4505998 72.0883303,36.4517767 72.2828653,36.6477634 L73.3548653,37.7277634 Z M77.4268653,41.7277634 C77.6214002,41.92375 77.6202233,42.2403303 77.4242366,42.4348653 C77.22825,42.6294002 76.9116697,42.6282233 76.7171347,42.4322366 L75.6451347,41.3522366 C75.4505998,41.15625 75.4517767,40.8396697 75.6477634,40.6451347 C75.84375,40.4505998 76.1603303,40.4517767 76.3548653,40.6477634 L77.4268653,41.7277634 Z M75,46 C75,46.2761424 74.7761424,46.5 74.5,46.5 C74.2238576,46.5 74,46.2761424 74,46 L74,41.5 C74,41.2238576 74.2238576,41 74.5,41 C74.7761424,41 75,41.2238576 75,41.5 L75,46 Z M75,37.5 C75,37.7761424 74.7761424,38 74.5,38 C74.2238576,38 74,37.7761424 74,37.5 L74,33 C74,32.7238576 74.2238576,32.5 74.5,32.5 C74.7761424,32.5 75,32.7238576 75,33 L75,37.5 Z M72.5,39 C72.7761424,39 73,39.2238576 73,39.5 C73,39.7761424 72.7761424,40 72.5,40 L68,40 C67.7238576,40 67.5,39.7761424 67.5,39.5 C67.5,39.2238576 67.7238576,39 68,39 L72.5,39 Z M81,39 C81.2761424,39 81.5,39.2238576 81.5,39.5 C81.5,39.7761424 81.2761424,40 81,40 L76.5,40 C76.2238576,40 76,39.7761424 76,39.5 C76,39.2238576 76.2238576,39 76.5,39 L81,39 Z" id="Favorite-Heart" fill="#2F313A" fill-rule="nonzero"></path>
    </g>
</svg>