<?xml version="1.0" encoding="UTF-8"?>
<svg width="100px" height="100px" viewBox="0 0 100 100" version="1.1" xmlns="http://www.w3.org/2000/svg" xmlns:xlink="http://www.w3.org/1999/xlink">
    <!-- Generator: Sketch 59.1 (86144) - https://sketch.com -->
    <title>Vector Files/100x100/Flattened/Actions/Favorite Star</title>
    <desc>Created with Sketch.</desc>
    <g id="100x100/Flattened/Actions/Favorite-Star" stroke="none" stroke-width="1" fill="none" fill-rule="evenodd">
        <path d="M33.2057628,63.5420667 C33.0657212,64.3585713 32.2902874,64.9069531 31.4737827,64.7669116 C30.657278,64.6268701 30.1088963,63.8514362 30.2489378,63.0349315 L31.0470812,58.3813982 C31.1861761,57.570413 30.9173049,56.7429125 30.3280897,56.1685696 L17.6168468,43.7781701 C16.2326543,42.4289158 16.2043312,40.2130194 17.5535854,38.8288269 C18.0908655,38.2776342 18.794864,37.918929 19.5565936,37.8082433 L37.1230992,35.2556806 C37.9373746,35.1373594 38.6412886,34.625936 39.0054436,33.8880773 L46.8614237,17.9701229 C47.7169018,16.2367351 49.8155922,15.5250486 51.54898,16.3805267 C52.2392241,16.7211825 52.7979204,17.2798788 53.1385763,17.9701229 L60.9945564,33.8880773 C61.3587114,34.625936 62.0626254,35.1373594 62.8769008,35.2556806 L80.4434064,37.8082433 C82.3563134,38.0862049 83.6816985,39.8622549 83.4037369,41.7751619 C83.2930511,42.5368915 82.9343459,43.24089 82.3831532,43.7781701 L69.6719103,56.1685696 C69.0826951,56.7429125 68.8138239,57.570413 68.9529188,58.3813982 L71.9536362,75.876923 C72.2803997,77.7821006 71.0008423,79.5914463 69.0956647,79.9182099 C68.337013,80.0483288 67.5566248,79.9247275 66.8753131,79.5665407 L51.1633528,71.3062744 C50.4350428,70.9233791 49.5649572,70.9233791 48.8366472,71.3062744 L33.1246869,79.5665407 C31.4137309,80.4660435 29.2975358,79.8082307 28.398033,78.0972747 C28.0398462,77.415963 27.9162449,76.6355747 28.0463638,75.876923 L29.3249724,68.4220633 C29.4650139,67.6055586 30.2404478,67.0571769 31.0569524,67.1972184 C31.8734571,67.3372599 32.4218389,68.1126938 32.2817973,68.9291984 L31.0031888,76.3840582 C30.9846004,76.492437 31.0022577,76.6039211 31.0534273,76.7012513 C31.1819277,76.9456736 31.4842412,77.0396468 31.7286635,76.9111464 L47.4406238,68.6508801 C49.0429059,67.8085105 50.9570941,67.8085105 52.5593762,68.6508801 L68.2713365,76.9111464 C68.3686667,76.962316 68.4801507,76.9799733 68.5885296,76.9613849 C68.8606978,76.9147044 69.0434917,76.6562264 68.9968112,76.3840582 L65.9960938,58.8885333 C65.6900851,57.104366 66.2816018,55.2838649 67.5778753,54.0203105 L80.2891181,41.629911 C80.36786,41.5531567 80.4191036,41.4525855 80.4349158,41.343767 C80.4746246,41.0704945 80.2852839,40.8167731 80.0120115,40.7770643 L62.4455059,38.2245016 C60.6541,37.9641951 59.1054892,36.8390636 58.3043482,35.2157744 L50.448368,19.2978201 C50.3997029,19.1992138 50.3198892,19.1194 50.2212829,19.0707349 C49.973656,18.9485237 49.6738431,19.0501932 49.551632,19.2978201 L41.6956518,35.2157744 C40.8945108,36.8390636 39.3459,37.9641951 37.5544941,38.2245016 L19.9879885,40.7770643 C19.87917,40.7928766 19.7785988,40.8441201 19.7018445,40.922862 C19.5090939,41.1206037 19.5131401,41.4371604 19.7108819,41.629911 L32.4221247,54.0203105 C33.7183982,55.2838649 34.3099149,57.104366 34.0039062,58.8885333 L33.2057628,63.5420667 Z M60.7171347,48.6477634 C60.9116697,48.4517767 61.22825,48.4505998 61.4242366,48.6451347 C61.6202233,48.8396697 61.6214002,49.15625 61.4268653,49.3522366 L60.3548653,50.4322366 C60.1603303,50.6282233 59.84375,50.6294002 59.6477634,50.4348653 C59.4517767,50.2403303 59.4505998,49.92375 59.6451347,49.7277634 L60.7171347,48.6477634 Z M64.7171347,44.6477634 C64.9116697,44.4517767 65.22825,44.4505998 65.4242366,44.6451347 C65.6202233,44.8396697 65.6214002,45.15625 65.4268653,45.3522366 L64.3548653,46.4322366 C64.1603303,46.6282233 63.84375,46.6294002 63.6477634,46.4348653 C63.4517767,46.2403303 63.4505998,45.92375 63.6451347,45.7277634 L64.7171347,44.6477634 Z M61.4268653,45.7277634 C61.6214002,45.92375 61.6202233,46.2403303 61.4242366,46.4348653 C61.22825,46.6294002 60.9116697,46.6282233 60.7171347,46.4322366 L59.6451347,45.3522366 C59.4505998,45.15625 59.4517767,44.8396697 59.6477634,44.6451347 C59.84375,44.4505998 60.1603303,44.4517767 60.3548653,44.6477634 L61.4268653,45.7277634 Z M65.4268653,49.7277634 C65.6214002,49.92375 65.6202233,50.2403303 65.4242366,50.4348653 C65.22825,50.6294002 64.9116697,50.6282233 64.7171347,50.4322366 L63.6451347,49.3522366 C63.4505998,49.15625 63.4517767,48.8396697 63.6477634,48.6451347 C63.84375,48.4505998 64.1603303,48.4517767 64.3548653,48.6477634 L65.4268653,49.7277634 Z M63,53.5 C63,53.7761424 62.7761424,54 62.5,54 C62.2238576,54 62,53.7761424 62,53.5 L62,49 C62,48.7238576 62.2238576,48.5 62.5,48.5 C62.7761424,48.5 63,48.7238576 63,49 L63,53.5 Z M63,45.5 C63,45.7761424 62.7761424,46 62.5,46 C62.2238576,46 62,45.7761424 62,45.5 L62,41 C62,40.7238576 62.2238576,40.5 62.5,40.5 C62.7761424,40.5 63,40.7238576 63,41 L63,45.5 Z M60.5,47 C60.7761424,47 61,47.2238576 61,47.5 C61,47.7761424 60.7761424,48 60.5,48 L56,48 C55.7238576,48 55.5,47.7761424 55.5,47.5 C55.5,47.2238576 55.7238576,47 56,47 L60.5,47 Z M68.5,47 C68.7761424,47 69,47.2238576 69,47.5 C69,47.7761424 68.7761424,48 68.5,48 L64,48 C63.7238576,48 63.5,47.7761424 63.5,47.5 C63.5,47.2238576 63.7238576,47 64,47 L68.5,47 Z M35.1740643,43.4454277 C34.6302105,43.5415607 34.1113987,43.1786114 34.0152657,42.6347576 C33.9191327,42.0909039 34.282082,41.5720921 34.8259357,41.4759591 L39.609698,40.6303684 C41.1935988,40.3503939 42.5460973,39.3255373 43.2440764,37.8764158 L46.76516,30.5660562 C47.0048206,30.0684808 47.6024684,29.8593995 48.1000438,30.09906 C48.5976192,30.3387206 48.8067005,30.9363684 48.56704,31.4339438 L45.0459563,38.7443033 C44.0687856,40.7730734 42.1752877,42.2078726 39.9578265,42.599837 L35.1740643,43.4454277 Z" id="Favorite-Star" fill="#2F313A" fill-rule="nonzero"></path>
    </g>
</svg>