<?xml version="1.0" encoding="UTF-8"?>
<svg width="100px" height="100px" viewBox="0 0 100 100" version="1.1" xmlns="http://www.w3.org/2000/svg" xmlns:xlink="http://www.w3.org/1999/xlink">
    <!-- Generator: Sketch 59.1 (86144) - https://sketch.com -->
    <title>Vector Files/100x100/Flattened/Actions/Photo</title>
    <desc>Created with Sketch.</desc>
    <g id="100x100/Flattened/Actions/Photo" stroke="none" stroke-width="1" fill="none" fill-rule="evenodd">
        <path d="M49,26 L49,22.0001 C49,21.4478153 49.4477153,21.0001 50,21.0001 C50.5522847,21.0001 51,21.4478153 51,22.0001 L51,26 L78.937803,26 C81.7383595,26 84,28.2968735 84,31.118 L84,75.882 C84,78.7031265 81.7383595,81 78.937803,81 L21.062197,81 C18.2616405,81 16,78.7031265 16,75.882 L16,31.118 C16,28.2968735 18.2616405,26 21.062197,26 L49,26 Z M77,50.5660732 L77,33.3934048 C77,33.1706346 76.8334183,33 76.64,33 L67,33 C66.4477153,33 66,32.5522847 66,32 C66,31.4477153 66.4477153,31 67,31 L76.64,31 C77.9488909,31 79,32.0766821 79,33.3934048 L79,73.6065952 C79,74.9233179 77.9488909,76 76.64,76 L23.36,76 C22.0511091,76 21,74.9233179 21,73.6065952 L21,33.3934048 C21,32.0766821 22.0511091,31 23.36,31 L51,31 C51.5522847,31 52,31.4477153 52,32 C52,32.5522847 51.5522847,33 51,33 L23.36,33 C23.1665817,33 23,33.1706346 23,33.3934048 L23,65.2107514 L38.209479,49.3230798 C39.8291497,47.6303805 42.5081018,47.5515996 44.2234442,49.145629 L57.6715591,61.6329296 L69.456467,49.3225923 C71.0756338,47.6303608 73.7546401,47.5515784 75.4703591,49.1460499 L77,50.5660732 L77,50.5660732 Z M77,53.295037 L74.1092501,50.6114447 C73.1939829,49.7608582 71.7649543,49.8028822 70.9013545,50.7054518 L59.1373288,62.9939759 L60.5994442,64.351629 C61.0041584,64.727428 61.0275988,65.3601589 60.6517999,65.7648731 C60.2760009,66.1695873 59.64327,66.1930277 59.2385558,65.8172287 L42.8622712,50.6109644 C41.9474782,49.7608677 40.5184538,49.8028915 39.6543562,50.70595 L23,68.102926 L23,73.6065952 C23,73.8293654 23.1665817,74 23.36,74 L76.64,74 C76.8334183,74 77,73.8293654 77,73.6065952 L77,53.295037 Z M78.937803,78 C80.071036,78 81,77.0565641 81,75.882 L81,31.118 C81,29.9434359 80.071036,29 78.937803,29 L21.062197,29 C19.928964,29 19,29.9434359 19,31.118 L19,75.882 C19,77.0565641 19.928964,78 21.062197,78 L78.937803,78 Z M59,33 C58.4477153,33 58,32.5522847 58,32 C58,31.4477153 58.4477153,31 59,31 L63,31 C63.5522847,31 64,31.4477153 64,32 C64,32.5522847 63.5522847,33 63,33 L59,33 Z M62.3196194,67.7328589 C61.9148726,67.3570951 61.8913772,66.7243662 62.2671411,66.3196194 C62.6429049,65.9148726 63.2756338,65.8913772 63.6803806,66.2671411 L66.4733806,68.8601411 C66.8781274,69.2359049 66.9016228,69.8686338 66.5258589,70.2733806 C66.1500951,70.6781274 65.5173662,70.7016228 65.1126194,70.3258589 L62.3196194,67.7328589 Z M27,41 C27,43.2090916 28.790661,45 31,45 C33.209339,45 35,43.2090916 35,41 C35,38.7909084 33.209339,37 31,37 C28.790661,37 27,38.7909084 27,41 Z M25,41 C25,37.6864008 27.6860297,35 31,35 C34.3139703,35 37,37.6864008 37,41 C37,44.3135992 34.3139703,47 31,47 C27.6860297,47 25,44.3135992 25,41 Z" id="Photo" fill="#2F313A" fill-rule="nonzero"></path>
    </g>
</svg>