<?xml version="1.0" encoding="UTF-8"?>
<svg width="100px" height="100px" viewBox="0 0 100 100" version="1.1" xmlns="http://www.w3.org/2000/svg" xmlns:xlink="http://www.w3.org/1999/xlink">
    <!-- Generator: Sketch 59.1 (86144) - https://sketch.com -->
    <title>Vector Files/100x100/Flattened/Actions/QR Code</title>
    <desc>Created with Sketch.</desc>
    <g id="100x100/Flattened/Actions/QR-Code" stroke="none" stroke-width="1" fill="none" fill-rule="evenodd">
        <path d="M16,28.5 C16,29.3284271 15.3284271,30 14.5,30 C13.6715729,30 13,29.3284271 13,28.5 L13,19.7360211 C13,16.0329092 15.8909481,13 19.491606,13 L28.5,13 C29.3284271,13 30,13.6715729 30,14.5 C30,15.3284271 29.3284271,16 28.5,16 L19.491606,16 C17.5808227,16 16,17.6584496 16,19.7360211 L16,28.5 Z M16,71.5 L16,80.2639789 C16,82.3415504 17.5808227,84 19.491606,84 L28.5,84 C29.3284271,84 30,84.6715729 30,85.5 C30,86.3284271 29.3284271,87 28.5,87 L19.491606,87 C15.8909481,87 13,83.9670908 13,80.2639789 L13,71.5 C13,70.6715729 13.6715729,70 14.5,70 C15.3284271,70 16,70.6715729 16,71.5 Z M84,28.5 L84,19.7360211 C84,17.6584496 82.4191773,16 80.508394,16 L71.5,16 C70.6715729,16 70,15.3284271 70,14.5 C70,13.6715729 70.6715729,13 71.5,13 L80.508394,13 C84.1090519,13 87,16.0329092 87,19.7360211 L87,28.5 C87,29.3284271 86.3284271,30 85.5,30 C84.6715729,30 84,29.3284271 84,28.5 Z M84,71.5 C84,70.6715729 84.6715729,70 85.5,70 C86.3284271,70 87,70.6715729 87,71.5 L87,80.2639789 C87,83.9670908 84.1090519,87 80.508394,87 L71.5,87 C70.6715729,87 70,86.3284271 70,85.5 C70,84.6715729 70.6715729,84 71.5,84 L80.508394,84 C82.4191773,84 84,82.3415504 84,80.2639789 L84,71.5 Z M26.5,25 C25.6715729,25 25,25.6715729 25,26.5 L25,43.5 C25,44.3284271 25.6715729,45 26.5,45 L43.5,45 C44.3284271,45 45,44.3284271 45,43.5 L45,26.5 C45,25.6715729 44.3284271,25 43.5,25 L26.5,25 Z M26.5,22 L43.5,22 C45.9852814,22 48,24.0147186 48,26.5 L48,43.5 C48,45.9852814 45.9852814,48 43.5,48 L26.5,48 C24.0147186,48 22,45.9852814 22,43.5 L22,26.5 C22,24.0147186 24.0147186,22 26.5,22 Z M56.5,55 C55.6715729,55 55,55.6715729 55,56.5 L55,73.5 C55,74.3284271 55.6715729,75 56.5,75 L73.5,75 C74.3284271,75 75,74.3284271 75,73.5 L75,56.5 C75,55.6715729 74.3284271,55 73.5,55 L56.5,55 Z M56.5,52 L73.5,52 C75.9852814,52 78,54.0147186 78,56.5 L78,73.5 C78,75.9852814 75.9852814,78 73.5,78 L56.5,78 C54.0147186,78 52,75.9852814 52,73.5 L52,56.5 C52,54.0147186 54.0147186,52 56.5,52 Z M71.4871271,25 C70.6587,25 69.9871271,24.3284271 69.9871271,23.5 C69.9871271,22.6715729 70.6587,22 71.4871271,22 L73.3636364,22 C75.9242293,22 78,24.0757707 78,26.6363636 L78,43.3636364 C78,45.9242293 75.9242293,48 73.3636364,48 L56.6363636,48 C54.0757707,48 52,45.9242293 52,43.3636364 L52,40.7341752 C52,39.9057481 52.6715729,39.2341752 53.5,39.2341752 C54.3284271,39.2341752 55,39.9057481 55,40.7341752 L55,43.3636364 C55,44.267375 55.732625,45 56.6363636,45 L73.3636364,45 C74.267375,45 75,44.267375 75,43.3636364 L75,26.6363636 C75,25.732625 74.267375,25 73.3636364,25 L71.4871271,25 Z M55,29.7163197 C55,30.5447468 54.3284271,31.2163197 53.5,31.2163197 C52.6715729,31.2163197 52,30.5447468 52,29.7163197 L52,26.6363636 C52,24.0757707 54.0757707,22 56.6363636,22 L63.5227273,22 C64.3511544,22 65.0227273,22.6715729 65.0227273,23.5 C65.0227273,24.3284271 64.3511544,25 63.5227273,25 L56.6363636,25 C55.732625,25 55,25.732625 55,26.6363636 L55,29.7163197 Z M30,30 L30,40 L40,40 L40,30 L30,30 Z M29.5,28 L40.5,28 C41.3284271,28 42,28.6715729 42,29.5 L42,40.5 C42,41.3284271 41.3284271,42 40.5,42 L29.5,42 C28.6715729,42 28,41.3284271 28,40.5 L28,29.5 C28,28.6715729 28.6715729,28 29.5,28 Z M60,41 C60,41.5522847 59.5522847,42 59,42 C58.4477153,42 58,41.5522847 58,41 L58,29.5217391 C58,28.6906027 58.6618276,28 59.5,28 L70.5,28 C71.3381724,28 72,28.6906027 72,29.5217391 L72,38 C72,38.5522847 71.5522847,39 71,39 C70.4477153,39 70,38.5522847 70,38 L70,30 L60,30 L60,41 Z M60,60 L60,70 L70,70 L70,60 L60,60 Z M59.5,58 L70.5,58 C71.3284271,58 72,58.6715729 72,59.5 L72,70.5 C72,71.3284271 71.3284271,72 70.5,72 L59.5,72 C58.6715729,72 58,71.3284271 58,70.5 L58,59.5 C58,58.6715729 58.6715729,58 59.5,58 Z M64,63 L66,63 C66.5522847,63 67,63.4477153 67,64 L67,66 C67,66.5522847 66.5522847,67 66,67 L64,67 C63.4477153,67 63,66.5522847 63,66 L63,64 C63,63.4477153 63.4477153,63 64,63 Z M45,70.8472273 C45,70.0188001 45.6715729,69.3472273 46.5,69.3472273 C47.3284271,69.3472273 48,70.0188001 48,70.8472273 L48,73.3636364 C48,75.9242293 45.9242293,78 43.3636364,78 L26.6363636,78 C24.0757707,78 22,75.9242293 22,73.3636364 L22,70.8472273 C22,70.0188001 22.6715729,69.3472273 23.5,69.3472273 C24.3284271,69.3472273 25,70.0188001 25,70.8472273 L25,73.3636364 C25,74.267375 25.732625,75 26.6363636,75 L43.3636364,75 C44.267375,75 45,74.267375 45,73.3636364 L45,70.8472273 Z M25,62.6862682 C25,63.5146953 24.3284271,64.1862682 23.5,64.1862682 C22.6715729,64.1862682 22,63.5146953 22,62.6862682 L22,56.6363636 C22,54.0757707 24.0757707,52 26.6363636,52 L30.2918812,52 C31.1203083,52 31.7918812,52.6715729 31.7918812,53.5 C31.7918812,54.3284271 31.1203083,55 30.2918812,55 L26.6363636,55 C25.732625,55 25,55.732625 25,56.6363636 L25,62.6862682 Z M37.5,55 C37.2238576,55 37,55.2238576 37,55.5 L37,62.5 C37,62.7761424 37.2238576,63 37.5,63 L44.5,63 C44.7761424,63 45,62.7761424 45,62.5 L45,55.5 C45,55.2238576 44.7761424,55 44.5,55 L37.5,55 Z M37.5,52 L44.5,52 C46.4329966,52 48,53.5670034 48,55.5 L48,62.5 C48,64.4329966 46.4329966,66 44.5,66 L37.5,66 C35.5670034,66 34,64.4329966 34,62.5 L34,55.5 C34,53.5670034 35.5670034,52 37.5,52 Z" id="QR-Code" fill="#2F313A" fill-rule="nonzero"></path>
    </g>
</svg>