<?xml version="1.0" encoding="UTF-8"?>
<svg width="40px" height="40px" viewBox="0 0 40 40" version="1.1" xmlns="http://www.w3.org/2000/svg" xmlns:xlink="http://www.w3.org/1999/xlink">
    <!-- Generator: Sketch 59.1 (86144) - https://sketch.com -->
    <title>Vector Files/40x40/Flattened/Actions/Add (Filled)</title>
    <desc>Created with Sketch.</desc>
    <g id="40x40/Flattened/Actions/Add-(Filled)" stroke="none" stroke-width="1" fill="none" fill-rule="evenodd">
        <path d="M20,7 C27.1786847,7 33,12.8213153 33,20 C33,27.1794858 27.1790837,33 20,33 C12.8201153,33 7,27.1798847 7,20 C7,12.8209163 12.8205142,7 20,7 Z M20,12 C19.4477153,12 19,12.4477153 19,13 L19,13 L19,19 L13,19 C12.4477153,19 12,19.4477153 12,20 C12,20.5522847 12.4477153,21 13,21 L13,21 L19,21 L19,27 C19,27.5522847 19.4477153,28 20,28 C20.5522847,28 21,27.5522847 21,27 L21,27 L21,21 L27,21 C27.5522847,21 28,20.5522847 28,20 C28,19.4477153 27.5522847,19 27,19 L27,19 L21,19 L21,13 C21,12.4477153 20.5522847,12 20,12 Z" id="Add-(Filled)" fill="#2F313A" fill-rule="nonzero"></path>
    </g>
</svg>