<?xml version="1.0" encoding="UTF-8"?>
<svg width="40px" height="40px" viewBox="0 0 40 40" version="1.1" xmlns="http://www.w3.org/2000/svg" xmlns:xlink="http://www.w3.org/1999/xlink">
    <!-- Generator: Sketch 59.1 (86144) - https://sketch.com -->
    <title>Vector Files/40x40/Flattened/Actions/Add Note</title>
    <desc>Created with Sketch.</desc>
    <g id="40x40/Flattened/Actions/Add-Note" stroke="none" stroke-width="1" fill="none" fill-rule="evenodd">
        <path d="M27,11.9996 L23.0004,11.9996 L23.0004,8.06135015 L22.9316579,8 L11,8 L11,30 L20,30 C20.5522847,30 21,30.4477153 21,31 C21,31.5522847 20.5522847,32 20,32 L10,32 C9.44771525,32 9,31.5522847 9,31 L9,7 C9,6.44771525 9.44771525,6 10,6 L23.313,6 C23.558602,6 23.7956152,6.0903831 23.9788544,6.25391831 L28.6658544,10.4369183 C28.8784444,10.6266482 29,10.898058 29,11.183 L29,20.5914307 C29,21.1437154 28.5522847,21.5914307 28,21.5914307 C27.4477153,21.5914307 27,21.1437154 27,20.5914307 L27,11.9996 Z M28.9995,27.9998 L28.9995,25.9995 C28.9995,25.4472153 28.5517847,24.9995 27.9995,24.9995 C27.4472153,24.9995 26.9995,25.4472153 26.9995,25.9995 L26.9995,27.9998 L24.9995,27.9998 C24.4472153,27.9998 23.9995,28.4475153 23.9995,28.9998 C23.9995,29.5520847 24.4472153,29.9998 24.9995,29.9998 L26.9995,29.9998 L26.9995,31.9998 C26.9995,32.5520847 27.4472153,32.9998 27.9995,32.9998 C28.5517847,32.9998 28.9995,32.5520847 28.9995,31.9998 L28.9995,29.9998 L30.9995,29.9998 C31.5517847,29.9998 31.9995,29.5520847 31.9995,28.9998 C31.9995,28.4475153 31.5517847,27.9998 30.9995,27.9998 L28.9995,27.9998 Z M33.918,28.959 C33.918,32.251 31.25,34.918 27.959,34.918 C24.668,34.918 22,32.251 22,28.959 C22,25.668 24.668,23 27.959,23 C31.25,23 33.918,25.668 33.918,28.959 Z M14,16.25 C13.5857864,16.25 13.25,15.9142136 13.25,15.5 C13.25,15.0857864 13.5857864,14.75 14,14.75 L24,14.75 C24.4142136,14.75 24.75,15.0857864 24.75,15.5 C24.75,15.9142136 24.4142136,16.25 24,16.25 L14,16.25 Z M14,19.25 C13.5857864,19.25 13.25,18.9142136 13.25,18.5 C13.25,18.0857864 13.5857864,17.75 14,17.75 L24,17.75 C24.4142136,17.75 24.75,18.0857864 24.75,18.5 C24.75,18.9142136 24.4142136,19.25 24,19.25 L14,19.25 Z M14,22.25 C13.5857864,22.25 13.25,21.9142136 13.25,21.5 C13.25,21.0857864 13.5857864,20.75 14,20.75 L24,20.75 C24.4142136,20.75 24.75,21.0857864 24.75,21.5 C24.75,21.9142136 24.4142136,22.25 24,22.25 L14,22.25 Z" id="Add-Note" fill="#2F313A" fill-rule="nonzero"></path>
    </g>
</svg>