<?xml version="1.0" encoding="UTF-8"?>
<svg width="40px" height="40px" viewBox="0 0 40 40" version="1.1" xmlns="http://www.w3.org/2000/svg" xmlns:xlink="http://www.w3.org/1999/xlink">
    <!-- Generator: Sketch 59.1 (86144) - https://sketch.com -->
    <title>Vector Files/40x40/Flattened/Actions/Add Note (Filled)</title>
    <desc>Created with Sketch.</desc>
    <g id="40x40/Flattened/Actions/Add-Note-(Filled)" stroke="none" stroke-width="1" fill="none" fill-rule="evenodd">
        <path d="M28.9995,27.9998 L28.9995,25.9995 C28.9995,25.4472153 28.5517847,24.9995 27.9995,24.9995 C27.4472153,24.9995 26.9995,25.4472153 26.9995,25.9995 L26.9995,27.9998 L24.9995,27.9998 C24.4472153,27.9998 23.9995,28.4475153 23.9995,28.9998 C23.9995,29.5520847 24.4472153,29.9998 24.9995,29.9998 L26.9995,29.9998 L26.9995,31.9998 C26.9995,32.5520847 27.4472153,32.9998 27.9995,32.9998 C28.5517847,32.9998 28.9995,32.5520847 28.9995,31.9998 L28.9995,29.9998 L30.9995,29.9998 C31.5517847,29.9998 31.9995,29.5520847 31.9995,28.9998 C31.9995,28.4475153 31.5517847,27.9998 30.9995,27.9998 L28.9995,27.9998 L28.9995,27.9998 Z M10,32 C9.44771525,32 9,31.5522847 9,31 L9,7 C9,6.44771525 9.44771525,6 10,6 L22.9316579,6 C23.422862,6 23.8968884,6.18076621 24.2633668,6.50783663 L28.6658544,10.4369183 C28.8784444,10.6266482 29,10.898058 29,11.183 L29,21.0674689 C28.6593033,21.0229605 28.3118324,21 27.959,21 C23.5634523,21 20,24.5634523 20,28.959 C20,30.0213754 20.2080353,31.0350169 20.5855778,31.9614529 L20.5555556,32 L10,32 Z M33.918,28.959 C33.918,32.251 31.25,34.918 27.959,34.918 C24.668,34.918 22,32.251 22,28.959 C22,25.668 24.668,23 27.959,23 C31.25,23 33.918,25.668 33.918,28.959 Z M13,13.25 L25,13.25 C25.4142136,13.25 25.75,12.9142136 25.75,12.5 C25.75,12.0857864 25.4142136,11.75 25,11.75 L13,11.75 C12.5857864,11.75 12.25,12.0857864 12.25,12.5 C12.25,12.9142136 12.5857864,13.25 13,13.25 Z M13,16.25 L25,16.25 C25.4142136,16.25 25.75,15.9142136 25.75,15.5 C25.75,15.0857864 25.4142136,14.75 25,14.75 L13,14.75 C12.5857864,14.75 12.25,15.0857864 12.25,15.5 C12.25,15.9142136 12.5857864,16.25 13,16.25 Z M13,19.25 L25,19.25 C25.4142136,19.25 25.75,18.9142136 25.75,18.5 C25.75,18.0857864 25.4142136,17.75 25,17.75 L13,17.75 C12.5857864,17.75 12.25,18.0857864 12.25,18.5 C12.25,18.9142136 12.5857864,19.25 13,19.25 Z" id="Add-Note-(Filled)" fill="#2F313A" fill-rule="nonzero"></path>
    </g>
</svg>