<?xml version="1.0" encoding="UTF-8"?>
<svg width="40px" height="40px" viewBox="0 0 40 40" version="1.1" xmlns="http://www.w3.org/2000/svg" xmlns:xlink="http://www.w3.org/1999/xlink">
    <!-- Generator: Sketch 59.1 (86144) - https://sketch.com -->
    <title>Vector Files/40x40/Flattened/Actions/Added Note</title>
    <desc>Created with Sketch.</desc>
    <g id="40x40/Flattened/Actions/Added-Note" stroke="none" stroke-width="1" fill="none" fill-rule="evenodd">
        <path d="M27,11.9996 L23.0004,11.9996 L23.0004,8.06135015 L22.9316579,8 L11,8 L11,30 L20,30 C20.5522847,30 21,30.4477153 21,31 C21,31.5522847 20.5522847,32 20,32 L10,32 C9.44771525,32 9,31.5522847 9,31 L9,7 C9,6.44771525 9.44771525,6 10,6 L23.313,6 C23.558602,6 23.7956152,6.0903831 23.9788544,6.25391831 L28.6658544,10.4369183 C28.8784444,10.6266482 29,10.898058 29,11.183 L29,20.5914307 C29,21.1437154 28.5522847,21.5914307 28,21.5914307 C27.4477153,21.5914307 27,21.1437154 27,20.5914307 L27,11.9996 Z M14,16.25 C13.5857864,16.25 13.25,15.9142136 13.25,15.5 C13.25,15.0857864 13.5857864,14.75 14,14.75 L24,14.75 C24.4142136,14.75 24.75,15.0857864 24.75,15.5 C24.75,15.9142136 24.4142136,16.25 24,16.25 L14,16.25 Z M14,19.25 C13.5857864,19.25 13.25,18.9142136 13.25,18.5 C13.25,18.0857864 13.5857864,17.75 14,17.75 L24,17.75 C24.4142136,17.75 24.75,18.0857864 24.75,18.5 C24.75,18.9142136 24.4142136,19.25 24,19.25 L14,19.25 Z M14,22.25 C13.5857864,22.25 13.25,21.9142136 13.25,21.5 C13.25,21.0857864 13.5857864,20.75 14,20.75 L24,20.75 C24.4142136,20.75 24.75,21.0857864 24.75,21.5 C24.75,21.9142136 24.4142136,22.25 24,22.25 L14,22.25 Z M33.918,28.959 C33.918,32.251 31.25,34.918 27.959,34.918 C24.668,34.918 22,32.251 22,28.959 C22,25.668 24.668,23 27.959,23 C31.25,23 33.918,25.668 33.918,28.959 Z M29.6533857,26.4677931 L27.2943074,30.2205244 L26.3071598,28.8708018 C25.9811279,28.4250198 25.355449,28.3279431 24.909667,28.6539751 C24.4638849,28.980007 24.3668083,29.6056858 24.6928402,30.0514679 L26.5496918,32.590333 C26.9667299,33.1605474 27.8274908,33.1302937 28.2034659,32.5322069 L31.3466143,27.5322069 C31.6405441,27.0646347 31.4997791,26.4473154 31.0322069,26.1533857 C30.5646347,25.8594559 29.9473154,26.0002209 29.6533857,26.4677931 Z" id="Added-Note" fill="#2F313A" fill-rule="nonzero"></path>
    </g>
</svg>