<?xml version="1.0" encoding="UTF-8"?>
<svg width="40px" height="40px" viewBox="0 0 40 40" version="1.1" xmlns="http://www.w3.org/2000/svg" xmlns:xlink="http://www.w3.org/1999/xlink">
    <!-- Generator: Sketch 59.1 (86144) - https://sketch.com -->
    <title>Vector Files/40x40/Flattened/Actions/Arrow Down (Filled)</title>
    <desc>Created with Sketch.</desc>
    <g id="40x40/Flattened/Actions/Arrow-Down-(Filled)" stroke="none" stroke-width="1" fill="none" fill-rule="evenodd">
        <path d="M24.4291981,20.9999941 L20.3242754,24.7628459 C19.9171564,25.1360383 19.8896535,25.7686056 20.2628459,26.1757246 C20.6360383,26.5828436 21.2686056,26.6103465 21.6757246,26.2371541 L27.6757246,20.7371541 C28.1080918,20.3408176 28.1080918,19.6591824 27.6757246,19.2628459 L21.6757246,13.7628459 C21.2686056,13.3896535 20.6360383,13.4171564 20.2628459,13.8242754 C19.8896535,14.2313944 19.9171564,14.8639617 20.3242754,15.2371541 L24.4291981,18.9999941 L14,18.9999941 C13.4477153,18.9999941 13,19.4477153 13,19.9999941 C13,20.5522847 13.4477153,20.9999941 14,20.9999941 L24.4291981,20.9999941 Z M33,20 C33,27.1794858 27.1790837,33 20,33 C12.8201153,33 7,27.1798847 7,20 C7,12.8209163 12.8205142,7 20,7 C27.1786847,7 33,12.8213153 33,20 Z" id="Arrow-Down-(Filled)" fill="#2F313A" fill-rule="nonzero" transform="translate(20.000000, 20.000000) rotate(90.000000) translate(-20.000000, -20.000000) "></path>
    </g>
</svg>