<?xml version="1.0" encoding="UTF-8"?>
<svg width="40px" height="40px" viewBox="0 0 40 40" version="1.1" xmlns="http://www.w3.org/2000/svg" xmlns:xlink="http://www.w3.org/1999/xlink">
    <!-- Generator: Sketch 59.1 (86144) - https://sketch.com -->
    <title>Vector Files/40x40/Flattened/Actions/Attach</title>
    <desc>Created with Sketch.</desc>
    <g id="40x40/Flattened/Actions/Attach" stroke="none" stroke-width="1" fill="none" fill-rule="evenodd">
        <path d="M14.602127,21.1660879 C14.5877292,21.1750829 14.5628249,21.1939707 14.5154583,21.2413373 L25.1350938,10.6217018 C26.2339478,9.52284777 27.9075408,9.52276816 29.0662887,10.681516 L31.990985,13.6062123 C33.1557967,14.771024 33.30296,16.5965261 32.206439,17.693047 L19.7357848,30.1637012 C19.030794,30.8686921 18.0137701,31.1639198 16.9794067,30.9885819 L12.900765,30.2932566 C11.3059707,30.0215134 9.97764537,28.6931881 9.70586094,27.0981515 L9.01223948,23.0214049 C8.83593316,21.9871515 9.13088619,20.96961 9.83628988,20.2642063 L22.1213141,7.97918212 C22.5118384,7.58865783 23.1450033,7.58865783 23.5355276,7.97918212 C23.9260519,8.36970641 23.9260519,9.00287139 23.5355276,9.39339568 L11.2505034,21.6784199 C11.0181223,21.910801 10.9133713,22.2721752 10.983852,22.6856312 L11.6774854,26.7624481 C11.806578,27.5200609 12.4790979,28.1925808 13.2367928,28.3216874 L17.3145899,29.0168691 C17.7275111,29.0868644 18.0891827,28.9818762 18.3215713,28.7494877 L30.7922254,16.2788335 C31.0524573,16.0186017 31.0066433,15.4502978 30.5767714,15.0204259 L27.6520751,12.0957296 C27.2744059,11.7180604 26.8671429,11.7180798 26.5493073,12.0359154 L15.9519536,22.6332691 L16.0747324,23.8761831 L17.4725476,23.9422119 L25.5826772,15.8320824 C25.9732015,15.4415581 26.6063665,15.4415581 26.9968908,15.8320824 C27.387415,16.2226066 27.387415,16.8557716 26.9968908,17.2462959 L18.7451996,25.4979871 C18.4325047,25.810682 18.0050958,25.9662031 17.5576022,25.9484311 L15.7948835,25.8651926 C14.9263091,25.8256309 14.1900083,25.1212798 14.1023448,24.2542244 L13.9154187,22.3619191 C13.8786831,22.0007656 14.0048698,21.6631473 14.2498217,21.4181954 C14.3694672,21.2985499 14.4333626,21.2574073 14.5926319,21.170922 L14.602127,21.1660879 Z" id="Attach" fill="#2F313A" fill-rule="nonzero"></path>
    </g>
</svg>