<?xml version="1.0" encoding="UTF-8"?>
<svg width="40px" height="40px" viewBox="0 0 40 40" version="1.1" xmlns="http://www.w3.org/2000/svg" xmlns:xlink="http://www.w3.org/1999/xlink">
    <!-- Generator: Sketch 59.1 (86144) - https://sketch.com -->
    <title>Vector Files/40x40/Flattened/Actions/Attach (Filled)</title>
    <desc>Created with Sketch.</desc>
    <g id="40x40/Flattened/Actions/Attach-(Filled)" stroke="none" stroke-width="1" fill="none" fill-rule="evenodd">
        <path d="M33,20 C33,27.1794858 27.1790837,33 20,33 C12.8201153,33 7,27.1798847 7,20 C7,12.8209163 12.8205142,7 20,7 C27.1786847,7 33,12.8213153 33,20 Z M16.3582894,20.7060417 L16.3490123,20.7108106 C16.2395117,20.7704349 16.1936823,20.8004772 16.1076217,20.8865378 C15.9269389,21.0672206 15.8336316,21.3168687 15.8607064,21.5830454 L15.9852996,22.8443416 C16.0478996,23.4635007 16.5722634,23.9651113 17.1927968,23.9933752 L18.3678036,24.0488611 C18.6893117,24.0616305 18.9969519,23.9496896 19.2223914,23.7242501 L24.7235189,18.2231226 C25.0164121,17.9302294 25.0164121,17.4553557 24.7235189,17.1624625 C24.4306257,16.8695692 23.9557519,16.8695692 23.6628587,17.1624625 L18.2821571,22.543164 L17.4590061,22.504279 L17.3881075,21.786558 L24.4251299,14.7495356 C24.6044779,14.5701876 24.8232228,14.5701772 25.0424573,14.7894118 L26.9922549,16.7392093 C27.2482136,16.995168 27.2745334,17.321654 27.1358909,17.4602965 L18.8221214,25.774066 C18.6868875,25.9092999 18.4730794,25.9713654 18.2236534,25.9290846 L15.5051993,25.4656432 C15.034945,25.3855148 14.6139237,24.9644934 14.5338057,24.4943008 L14.0713869,21.776443 C14.028807,21.5266592 14.0907158,21.3130834 14.2259273,21.1778719 L22.4159435,12.9878558 C22.7088367,12.6949626 22.7088367,12.2200888 22.4159435,11.9271956 C22.1230502,11.6343024 21.6481765,11.6343024 21.3552833,11.9271956 L13.1652672,20.1172117 C12.6752888,20.6071902 12.4707283,21.3128915 12.5926775,22.0282733 L13.0550874,24.7460783 C13.2422242,25.8443388 14.1550996,26.7572143 15.2531784,26.9443202 L17.972266,27.4078692 C18.6877737,27.5291569 19.3930959,27.3244118 19.8827816,26.8347262 L28.196551,18.5209567 C28.9624104,17.7550973 28.8600787,16.4857127 28.052915,15.6785491 L26.1031175,13.7287516 C25.298074,12.923708 24.1295815,12.9237636 23.3644698,13.6888754 L16.2847127,20.7686324 C16.3223853,20.7309598 16.3434195,20.7151087 16.3582894,20.7060417 Z" id="Attach-(Filled)" fill="#2F313A" fill-rule="nonzero"></path>
    </g>
</svg>