<?xml version="1.0" encoding="UTF-8"?>
<svg width="40px" height="40px" viewBox="0 0 40 40" version="1.1" xmlns="http://www.w3.org/2000/svg" xmlns:xlink="http://www.w3.org/1999/xlink">
    <!-- Generator: Sketch 59.1 (86144) - https://sketch.com -->
    <title>Vector Files/40x40/Flattened/Actions/Block</title>
    <desc>Created with Sketch.</desc>
    <g id="40x40/Flattened/Actions/Block" stroke="none" stroke-width="1" fill="none" fill-rule="evenodd">
        <path d="M10.5104664,31 C9.35562,31 8.46554305,31.7042918 7.7786302,32.975419 C7.51851485,33.4567606 7.31119008,33.9806812 7.15414418,34.5054523 C7.0606147,34.8179824 7.00601333,35.0549974 6.98440567,35.1759133 C6.88725146,35.7195855 6.36775898,36.0815599 5.82408674,35.9844057 C5.2804145,35.8872515 4.91844012,35.367759 5.01559433,34.8240867 C5.14436878,34.1034685 5.45300482,33.0721568 6.01911126,32.024581 C7.02093786,30.1707082 8.50046704,29 10.5104664,29 L21.4895336,29 C23.499533,29 24.9790621,30.1707082 25.9808887,32.024581 C26.5469952,33.0721568 26.8556312,34.1034685 26.9844057,34.8240867 C27.0815599,35.367759 26.7195855,35.8872515 26.1759133,35.9844057 C25.632241,36.0815599 25.1127485,35.7195855 25.0155943,35.1759133 C24.9939867,35.0549974 24.9393853,34.8179824 24.8458558,34.5054523 C24.6888099,33.9806812 24.4814852,33.4567606 24.2213698,32.975419 C23.534457,31.7042918 22.64438,31 21.4895336,31 L10.5104664,31 Z M16.1233366,9 C16.6756213,9 17.1233366,9.44771525 17.1233366,10 C17.1233366,10.5522847 16.6756213,11 16.1233366,11 C12.0933419,11 10,12.2833301 10,15.1472896 L10,20.9072753 C10,23.7552853 12.0653308,24.9995747 16.1243773,25 C18.8140694,24.9997283 20.5766844,24.4146984 21.3954963,23.2176092 C21.7072981,22.7617604 22.3296018,22.6449871 22.7854506,22.9567888 C23.2412994,23.2685905 23.3580726,23.8908943 23.0462709,24.3467431 C21.7675649,26.2161897 19.4077577,26.9995558 16.1271686,27 L16.1243774,27 C11.1037414,26.9993046 8,25.1293558 8,20.9072753 L8,15.1472896 C8,10.9192287 11.1306067,9 16.1233366,9 Z M27,4 C31.9704648,4 36,8.02953516 36,13 C36,17.9719752 31.9704648,22 27,22 C22.0295352,22 18,17.9719752 18,13 C18,8.02953516 22.0295352,4 27,4 Z M27,6 C23.1339646,6 20,9.13374767 20,13 C20,16.8658432 23.1341568,20 27,20 C30.8658432,20 34,16.8658432 34,13 C34,9.13374767 30.8660354,6 27,6 Z M31.1044315,10.1436439 C31.6689562,10.9533489 32,11.9379797 32,13 C32,15.7612737 29.7612737,18 27,18 C25.979179,18 25.0297757,17.6940283 24.2385029,17.1687976 L24.2385029,17.1687976 Z M27,8 C27.976227,8 28.8870945,8.27973071 29.6568124,8.76342269 L29.6568124,8.76342269 L22.8256065,15.7530483 C22.3037991,14.96347 22,14.0171903 22,13 C22,10.2383482 24.2385031,8 27,8 Z" id="Shape" fill="#2F313A" fill-rule="nonzero"></path>
    </g>
</svg>