<?xml version="1.0" encoding="UTF-8"?>
<svg width="40px" height="40px" viewBox="0 0 40 40" version="1.1" xmlns="http://www.w3.org/2000/svg" xmlns:xlink="http://www.w3.org/1999/xlink">
    <!-- Generator: Sketch 59.1 (86144) - https://sketch.com -->
    <title>Vector Files/40x40/Flattened/Actions/Block (Filled)</title>
    <desc>Created with Sketch.</desc>
    <g id="40x40/Flattened/Actions/Block-(Filled)" stroke="none" stroke-width="1" fill="none" fill-rule="evenodd">
        <path d="M18.8190339,9.24361071 C20.2424451,6.14878007 23.3703436,4 27,4 C31.9704648,4 36,8.02953516 36,13 C36,17.9719752 31.9704648,22 27,22 C25.986582,22 25.0122786,21.8325538 24.1032681,21.5238009 C23.8143015,25.2674524 20.8423587,26.9594395 16.1699909,26.9992788 C16.1556417,26.9997578 15.9709624,26.9995219 15.9564681,26.9992788 C11.0349179,26.9573148 8,25.0822824 8,20.9072753 L8,15.1472896 C8,10.9653289 11.0627104,9.0421267 15.9606892,9.000685 C15.9746803,9.00022998 16.1117765,9.00022817 16.1657698,9.000685 C17.0262676,9.02867046 16.9720519,9.02844213 16.0031224,9 C16.1022266,9.00015332 16.1564424,9.00038165 16.1657698,9.000685 C17.1234053,9.00878754 18.0108846,9.08882355 18.8190339,9.24361071 L18.8190339,9.24361071 Z M5.01559433,34.8240867 C5.14436878,34.1034685 5.45300482,33.0721568 6.01911126,32.024581 C7.02093786,30.1707082 8.50046704,29 10.5104664,29 L21.4895336,29 C23.499533,29 24.9790621,30.1707082 25.9808887,32.024581 C26.5469952,33.0721568 26.8556312,34.1034685 26.9844057,34.8240867 C27.0939429,35.4370539 26.6226774,36 26,36 L6,36 C5.37732263,36 4.90605712,35.4370539 5.01559433,34.8240867 Z M31.1042827,10.1434304 C31.668898,10.9531758 32,11.9378864 32,13 C32,15.7612737 29.7612737,18 27,18 C25.9779127,18 25.0274205,17.6932687 24.2355591,17.1668421 L31.1042827,10.1434304 Z M29.6565837,8.76327902 L22.8236537,15.750091 C22.3030412,14.9611077 22,14.0159207 22,13 C22,10.2383482 24.2385031,8 27,8 C27.9761303,8 28.8869141,8.27967532 29.6565837,8.76327902 Z M34,13 C34,9.13374767 30.8660354,6 27,6 C23.1339646,6 20,9.13374767 20,13 C20,16.8658432 23.1341568,20 27,20 C30.8658432,20 34,16.8658432 34,13 Z" id="Block-(Filled)" fill="#2F313A" fill-rule="nonzero"></path>
    </g>
</svg>