<?xml version="1.0" encoding="UTF-8"?>
<svg width="40px" height="40px" viewBox="0 0 40 40" version="1.1" xmlns="http://www.w3.org/2000/svg" xmlns:xlink="http://www.w3.org/1999/xlink">
    <!-- Generator: Sketch 59.1 (86144) - https://sketch.com -->
    <title>Vector Files/40x40/Flattened/Actions/Camera (Filled)</title>
    <desc>Created with Sketch.</desc>
    <g id="40x40/Flattened/Actions/Camera-(Filled)" stroke="none" stroke-width="1" fill="none" fill-rule="evenodd">
        <path d="M27,12 L27,11 C27,10.4477153 27.4477153,10 28,10 C28.5522847,10 29,10.4477153 29,11 L29,12 L30.5889,12 C31.9201847,12 32.9999,13.0797153 32.9999,14.411 L32.9999,27.589 C32.9999,28.9202847 31.9201847,30 30.5889,30 L9.4109,30 C8.07961525,30 6.9999,28.9202847 6.9999,27.589 L6.9999,14.411 C6.9999,13.0797153 8.07961525,12 9.4109,12 L27,12 Z M23,21 C23,22.6567153 21.6567153,24 20,24 C18.3432847,24 17,22.6567153 17,21 C17,19.3432847 18.3432847,18 20,18 C21.6567153,18 23,19.3432847 23,21 Z M25,21 C25,18.2387153 22.7612847,16 20,16 C17.2387153,16 15,18.2387153 15,21 C15,23.7612847 17.2387153,26 20,26 C22.7612847,26 25,23.7612847 25,21 Z M11,17 L14,17 C14.5522847,17 15,16.5522847 15,16 C15,15.4477153 14.5522847,15 14,15 L11,15 C10.4477153,15 10,15.4477153 10,16 C10,16.5522847 10.4477153,17 11,17 Z" id="Camera-(Filled)" fill="#2F313A" fill-rule="nonzero"></path>
    </g>
</svg>