<?xml version="1.0" encoding="UTF-8"?>
<svg width="40px" height="40px" viewBox="0 0 40 40" version="1.1" xmlns="http://www.w3.org/2000/svg" xmlns:xlink="http://www.w3.org/1999/xlink">
    <!-- Generator: Sketch 59.1 (86144) - https://sketch.com -->
    <title>Vector Files/40x40/Flattened/Actions/Check (Filled)</title>
    <desc>Created with Sketch.</desc>
    <g id="40x40/Flattened/Actions/Check-(Filled)" stroke="none" stroke-width="1" fill="none" fill-rule="evenodd">
        <path d="M33,20 C33,27.1794858 27.1790837,33 20,33 C12.8201153,33 7,27.1798847 7,20 C7,12.8209163 12.8205142,7 20,7 C27.1786847,7 33,12.8213153 33,20 Z M24.3149444,15.3366733 L17.9643806,24.3475424 L14.774386,20.4432679 C14.424948,20.0155863 13.7949681,19.9521574 13.3672865,20.3015954 C12.9396049,20.6510334 12.876176,21.2810133 13.225614,21.7086948 L17.2487925,26.6327135 C17.667451,27.1451149 18.4593943,27.1169359 18.8405756,26.5760746 L25.9497387,16.4888225 C26.2678959,16.0373865 26.1598521,15.413508 25.7084161,15.0953508 C25.2569802,14.7771936 24.6331016,14.8852374 24.3149444,15.3366733 Z" id="Shape" fill="#2F313A" fill-rule="nonzero"></path>
    </g>
</svg>