<?xml version="1.0" encoding="UTF-8"?>
<svg width="40px" height="40px" viewBox="0 0 40 40" version="1.1" xmlns="http://www.w3.org/2000/svg" xmlns:xlink="http://www.w3.org/1999/xlink">
    <!-- Generator: Sketch 59.1 (86144) - https://sketch.com -->
    <title>Vector Files/40x40/Flattened/Actions/Favorite Star (Empty)</title>
    <desc>Created with Sketch.</desc>
    <g id="40x40/Flattened/Actions/Favorite-Star-(Empty)" stroke="none" stroke-width="1" fill="none" fill-rule="evenodd">
        <path d="M19.5346589,25.6148686 C19.8259829,25.4617105 20.1740171,25.4617105 20.4653411,25.6148686 L26.3130773,28.6892054 L25.196259,22.1776555 C25.1406211,21.8532615 25.2481696,21.5222613 25.4838557,21.2925241 L30.2147736,16.6810189 L23.6768058,15.7309966 C23.3510957,15.6836681 23.0695301,15.4790987 22.9238681,15.1839552 L20,9.25955146 L17.0761319,15.1839552 C16.9304699,15.4790987 16.6489043,15.6836681 16.3231942,15.7309966 L9.78522643,16.6810189 L14.5161443,21.2925241 C14.7518304,21.5222613 14.8593789,21.8532615 14.803741,22.1776555 L13.6869227,28.6892054 L19.5346589,25.6148686 Z M12.8241328,31.4023523 C12.0905055,31.7880431 11.233073,31.165082 11.3731834,30.3481759 L12.7436521,22.3577304 L6.9382536,16.6988654 C6.34473658,16.1203293 6.67224662,15.1123571 7.49246697,14.9931721 L15.5153303,13.8273818 L19.1032639,6.55743429 C19.4700776,5.81418857 20.5299224,5.81418857 20.8967361,6.55743429 L24.4846697,13.8273818 L32.507533,14.9931721 C33.3277534,15.1123571 33.6552634,16.1203293 33.0617464,16.6988654 L27.2563479,22.3577304 L28.6268166,30.3481759 C28.766927,31.165082 27.9094945,31.7880431 27.1758672,31.4023523 L20,27.6297757 L12.8241328,31.4023523 Z" id="Favorite-Star-(Empty)" fill="#2F313A" fill-rule="nonzero"></path>
    </g>
</svg>