<?xml version="1.0" encoding="UTF-8"?>
<svg width="40px" height="40px" viewBox="0 0 40 40" version="1.1" xmlns="http://www.w3.org/2000/svg" xmlns:xlink="http://www.w3.org/1999/xlink">
    <!-- Generator: Sketch 59.1 (86144) - https://sketch.com -->
    <title>Vector Files/40x40/Flattened/Actions/Favorite Heart (Empty)</title>
    <desc>Created with Sketch.</desc>
    <g id="40x40/Flattened/Actions/Favorite-Heart-(Empty)" stroke="none" stroke-width="1" fill="none" fill-rule="evenodd">
        <path d="M19.9999669,28.9474926 L28.2359573,21.2361301 C28.2977198,21.1782945 28.3459547,21.133213 28.39986,21.0812757 C28.4994444,20.9853268 28.6055144,20.8787727 28.7191022,20.7589469 C29.0402508,20.4201612 29.357733,20.0428901 29.6532602,19.6326986 C30.5016395,18.4551489 31,17.2463301 31,16.09375 C31,12.8435635 29.0624767,11 25.5982143,11 C24.0033777,11 22.2553898,12.0336756 20.6925001,13.5339177 C20.3055463,13.9053608 19.6944537,13.9053608 19.3074999,13.5339177 C17.7446102,12.0336756 15.9966223,11 14.4017857,11 C10.9375233,11 9,12.8435635 9,16.09375 C9,17.2253244 9.48081724,18.4126336 10.3019842,19.5691817 C10.8203315,20.2992325 11.3937515,20.9035823 11.7376853,21.1977082 L19.9999669,28.9474926 Z M25.5982143,9 C30.1454216,9 33,11.7161461 33,16.09375 C33,17.7321366 32.3477998,19.3141075 31.2759737,20.8018012 C30.9245898,21.2895217 30.5501872,21.7344326 30.1705931,22.1348735 C30.0353433,22.2775511 29.9080924,22.4053826 29.7875393,22.5215347 C29.7178069,22.5887214 29.6549384,22.6474797 29.616522,22.6830884 L21.2863641,30.4826199 C20.9395195,30.81983 20.4762251,31 20,31 C19.5237749,31 19.0604805,30.81983 18.7266004,30.4950002 L10.405616,22.6887616 C9.97899337,22.3258361 9.29324058,21.6030944 8.67123009,20.7270423 C7.6310193,19.2619884 7,17.7037768 7,16.09375 C7,11.7161461 9.85457841,9 14.4017857,9 C16.3833317,9 18.2759561,9.97916649 20,11.4610694 C21.7240439,9.97916649 23.6166683,9 25.5982143,9 Z" id="Favorite-Heart-(Empty)" fill="#2F313A" fill-rule="nonzero"></path>
    </g>
</svg>