<?xml version="1.0" encoding="UTF-8"?>
<svg width="40px" height="40px" viewBox="0 0 40 40" version="1.1" xmlns="http://www.w3.org/2000/svg" xmlns:xlink="http://www.w3.org/1999/xlink">
    <!-- Generator: Sketch 59.1 (86144) - https://sketch.com -->
    <title>Vector Files/40x40/Flattened/Actions/Favorite Star (Full)</title>
    <desc>Created with Sketch.</desc>
    <g id="40x40/Flattened/Actions/Favorite-Star-(Full)" stroke="none" stroke-width="1" fill="none" fill-rule="evenodd">
        <path d="M12.8241328,31.4023523 C12.0905055,31.7880431 11.233073,31.165082 11.3731834,30.3481759 L12.7436521,22.3577304 L6.9382536,16.6988654 C6.34473658,16.1203293 6.67224662,15.1123571 7.49246697,14.9931721 L15.5153303,13.8273818 L19.1032639,6.55743429 C19.4700776,5.81418857 20.5299224,5.81418857 20.8967361,6.55743429 L24.4846697,13.8273818 L32.507533,14.9931721 C33.3277534,15.1123571 33.6552634,16.1203293 33.0617464,16.6988654 L27.2563479,22.3577304 L28.6268166,30.3481759 C28.766927,31.165082 27.9094945,31.7880431 27.1758672,31.4023523 L20,27.6297757 L12.8241328,31.4023523 Z M18.098279,12.4312401 L16.239532,15.3256919 L11.6332415,16.0106876 C11.3601027,16.0513057 11.1716075,16.3056559 11.2122256,16.5787946 C11.2528438,16.8519334 11.507194,17.0404286 11.7803327,16.9998105 L16.6111433,16.2814267 C16.7538163,16.26021 16.8803758,16.178412 16.9583172,16.0570412 L18.9397181,12.971592 C19.0889322,12.7392349 19.0215315,12.4299105 18.7891745,12.2806964 C18.5568175,12.1314824 18.247493,12.1988831 18.098279,12.4312401 Z" id="Favorite-Star-(Full)" fill="#2F313A" fill-rule="nonzero"></path>
    </g>
</svg>