<?xml version="1.0" encoding="UTF-8"?>
<svg width="40px" height="40px" viewBox="0 0 40 40" version="1.1" xmlns="http://www.w3.org/2000/svg" xmlns:xlink="http://www.w3.org/1999/xlink">
    <!-- Generator: Sketch 59.1 (86144) - https://sketch.com -->
    <title>Vector Files/40x40/Flattened/Actions/Favorite Star (Half)</title>
    <desc>Created with Sketch.</desc>
    <g id="40x40/Flattened/Actions/Favorite-Star-(Half)" stroke="none" stroke-width="1" fill="none" fill-rule="evenodd">
        <path d="M20,9.25955146 L20,25.5 C20.1598396,25.5 20.3196791,25.5382895 20.4653411,25.6148686 L26.3130773,28.6892054 L25.196259,22.1776555 C25.1406211,21.8532615 25.2481696,21.5222613 25.4838557,21.2925241 L30.2147736,16.6810189 L23.6768058,15.7309966 C23.3510957,15.6836681 23.0695301,15.4790987 22.9238681,15.1839552 L20,9.25955146 L20,9.25955146 Z M12.8241328,31.4023523 C12.0905055,31.7880431 11.233073,31.165082 11.3731834,30.3481759 L12.7436521,22.3577304 L6.9382536,16.6988654 C6.34473658,16.1203293 6.67224662,15.1123571 7.49246697,14.9931721 L15.5153303,13.8273818 L19.1032639,6.55743429 C19.4700776,5.81418857 20.5299224,5.81418857 20.8967361,6.55743429 L24.4846697,13.8273818 L32.507533,14.9931721 C33.3277534,15.1123571 33.6552634,16.1203293 33.0617464,16.6988654 L27.2563479,22.3577304 L28.6268166,30.3481759 C28.766927,31.165082 27.9094945,31.7880431 27.1758672,31.4023523 L20,27.6297757 L12.8241328,31.4023523 Z M17.543668,13.2948836 L16.239532,15.3256919 L11.6332415,16.0106876 C11.3601027,16.0513057 11.1716075,16.3056559 11.2122256,16.5787946 C11.2528438,16.8519334 11.507194,17.0404286 11.7803327,16.9998105 L16.6111433,16.2814267 C16.7538163,16.26021 16.8803758,16.178412 16.9583172,16.0570412 L18.3851071,13.8352354 C18.5343212,13.6028784 18.4669205,13.293554 18.2345635,13.1443399 C18.0022065,12.9951259 17.692882,13.0625266 17.543668,13.2948836 Z" id="Favorite-Star-(Half)" fill="#2F313A" fill-rule="nonzero"></path>
    </g>
</svg>