<?xml version="1.0" encoding="UTF-8"?>
<svg width="40px" height="40px" viewBox="0 0 40 40" version="1.1" xmlns="http://www.w3.org/2000/svg" xmlns:xlink="http://www.w3.org/1999/xlink">
    <!-- Generator: Sketch 59.1 (86144) - https://sketch.com -->
    <title>Vector Files/40x40/Flattened/Actions/Forward (Filled)</title>
    <desc>Created with Sketch.</desc>
    <g id="40x40/Flattened/Actions/Forward-(Filled)" stroke="none" stroke-width="1" fill="none" fill-rule="evenodd">
        <path d="M24.3935004,16.9999914 L18.2625995,16.9999914 C15.9208279,16.9999914 14,18.8124399 14,21.0784983 L14,25.9999914 C14,26.5522847 14.4477153,26.9999914 15,26.9999914 C15.5522847,26.9999914 16,26.5522847 16,25.9999914 L16,21.0784983 C16,19.9438172 17.0002596,18.9999914 18.2625995,18.9999914 L24.3945833,18.9999914 L21.3311006,21.7566471 C20.9205581,22.12607 20.8872241,22.7583569 21.2566471,23.1688994 C21.62607,23.5794419 22.2583569,23.6127759 22.6688994,23.2433529 L27.6688994,18.7441484 C28.1103147,18.3469449 28.1103755,17.6548412 27.6690301,17.2575601 L22.6690301,12.7567647 C22.2585525,12.3872696 21.6262598,12.4204924 21.2567647,12.8309699 C20.8872696,13.2414475 20.9204924,13.8737402 21.3309699,14.2432353 L24.3935004,16.9999914 Z M33,20 C33,27.1794858 27.1790837,33 20,33 C12.8201153,33 7,27.1798847 7,20 C7,12.8209163 12.8205142,7 20,7 C27.1786847,7 33,12.8213153 33,20 Z" id="Forward-(Filled)" fill="#2F313A" fill-rule="nonzero"></path>
    </g>
</svg>