<?xml version="1.0" encoding="UTF-8"?>
<svg width="40px" height="40px" viewBox="0 0 40 40" version="1.1" xmlns="http://www.w3.org/2000/svg" xmlns:xlink="http://www.w3.org/1999/xlink">
    <!-- Generator: Sketch 59.1 (86144) - https://sketch.com -->
    <title>Vector Files/40x40/Flattened/Actions/Forward</title>
    <desc>Created with Sketch.</desc>
    <g id="40x40/Flattened/Actions/Forward" stroke="none" stroke-width="1" fill="none" fill-rule="evenodd">
        <path d="M23.3935004,15.9999914 L20.3309699,13.2432353 C19.9204924,12.8737402 19.8872696,12.2414475 20.2567647,11.8309699 C20.6262598,11.4204924 21.2585525,11.3872696 21.6690301,11.7567647 L26.6690301,16.2575601 C27.1103755,16.6548412 27.1103147,17.3469449 26.6688994,17.7441484 L21.6688994,22.2433529 C21.2583569,22.6127759 20.62607,22.5794419 20.2566471,22.1688994 C19.8872241,21.7583569 19.9205581,21.12607 20.3311006,20.7566471 L23.3945833,17.9999914 L17.2625995,17.9999914 C16.0002596,17.9999914 15,18.9438172 15,20.0784983 L15,27.9999914 C15,28.5522847 14.5522847,28.9999914 14,28.9999914 C13.4477153,28.9999914 13,28.5522847 13,27.9999914 L13,20.0784983 C13,17.8124399 14.9208279,15.9999914 17.2625995,15.9999914 L23.3935004,15.9999914 Z" id="Forward" fill="#2F313A" fill-rule="nonzero"></path>
    </g>
</svg>