<?xml version="1.0" encoding="UTF-8"?>
<svg width="40px" height="40px" viewBox="0 0 40 40" version="1.1" xmlns="http://www.w3.org/2000/svg" xmlns:xlink="http://www.w3.org/1999/xlink">
    <!-- Generator: Sketch 59.1 (86144) - https://sketch.com -->
    <title>Vector Files/40x40/Flattened/Actions/Logout (Filled)</title>
    <desc>Created with Sketch.</desc>
    <g id="40x40/Flattened/Actions/Logout-(Filled)" stroke="none" stroke-width="1" fill="none" fill-rule="evenodd">
        <path d="M27,10 L27,30 L29,30 C29.5522847,30 30,30.4477153 30,31 C30,31.5522847 29.5522847,32 29,32 L12.2352143,32 C10.451465,32 9,30.5713823 9,28.8 L9,11.2 C9,9.42861767 10.451465,8 12.2352143,8 L29,8 C29.5522847,8 30,8.44771525 30,9 C30,9.55228475 29.5522847,10 29,10 L27,10 Z M15.2928932,14.7071068 L20.5857864,20 L15.2928932,25.2928932 C14.9023689,25.6834175 14.9023689,26.3165825 15.2928932,26.7071068 C15.6834175,27.0976311 16.3165825,27.0976311 16.7071068,26.7071068 L22.7071068,20.7071068 C23.0976311,20.3165825 23.0976311,19.6834175 22.7071068,19.2928932 L16.7071068,13.2928932 C16.3165825,12.9023689 15.6834175,12.9023689 15.2928932,13.2928932 C14.9023689,13.6834175 14.9023689,14.3165825 15.2928932,14.7071068 Z" id="Logout-(Filled)" fill="#2F313A" fill-rule="nonzero"></path>
    </g>
</svg>