<?xml version="1.0" encoding="UTF-8"?>
<svg width="40px" height="40px" viewBox="0 0 40 40" version="1.1" xmlns="http://www.w3.org/2000/svg" xmlns:xlink="http://www.w3.org/1999/xlink">
    <!-- Generator: Sketch 61.1 (89650) - https://sketch.com -->
    <title>MdLogout2</title>
    <desc>Created with Sketch.</desc>
    <g id="MdLogout2" stroke="none" stroke-width="1" fill="none" fill-rule="evenodd">
        <path d="M26,8 C27.5976809,8 28.9036609,9.24891996 28.9949073,10.8237272 L29,11 L29,12.0530656 C29,12.6053504 28.5522847,13.0530656 28,13.0530656 C27.4871642,13.0530656 27.0644928,12.6670255 27.0067277,12.1696868 L27,12.0530656 L27,11 C27,10.4871642 26.6139598,10.0644928 26.1166211,10.0067277 L26,10 L13,10 C12.4871642,10 12.0644928,10.3860402 12.0067277,10.8833789 L12,11 L12,29 C12,29.5128358 12.3860402,29.9355072 12.8833789,29.9932723 L13,30 L26,30 C26.5128358,30 26.9355072,29.6139598 26.9932723,29.1166211 L27,29 L27,28.0418433 C27,27.4895586 27.4477153,27.0418433 28,27.0418433 C28.5128358,27.0418433 28.9355072,27.4278835 28.9932723,27.9252222 L29,28.0418433 L29,29 C29,30.5976809 27.75108,31.9036609 26.1762728,31.9949073 L26,32 L13,32 C11.4023191,32 10.0963391,30.75108 10.0050927,29.1762728 L10,29 L10,11 C10,9.40231912 11.24892,8.09633912 12.8237272,8.00509269 L13,8 L26,8 Z M24.5114029,13.1403808 L24.6128994,13.2097046 L24.7071068,13.2928932 L30.7071068,19.2928932 C30.7425008,19.3282873 30.774687,19.3656744 30.8036654,19.4046934 L30.8753288,19.5159379 L30.9287745,19.628664 L30.9641549,19.734007 L30.9930928,19.8819045 L31,20 L30.9972121,20.0752385 L30.9797599,20.2007258 L30.9502619,20.3121425 L30.9063266,20.4232215 L30.8540045,20.5207088 L30.7803112,20.625449 L30.7071068,20.7071068 L24.7071068,26.7071068 C24.3165825,27.0976311 23.6834175,27.0976311 23.2928932,26.7071068 C22.9324093,26.3466228 22.9046797,25.7793918 23.2097046,25.3871006 L23.2928932,25.2928932 L27.585,21 L17.015391,21 C16.4631063,21 16.015391,20.5522847 16.015391,20 C16.015391,19.4871642 16.4014312,19.0644928 16.8987699,19.0067277 L17.015391,19 L27.585,19 L23.2928932,14.7071068 C22.9324093,14.3466228 22.9046797,13.7793918 23.2097046,13.3871006 L23.2928932,13.2928932 C23.6233369,12.9624496 24.1275055,12.9116121 24.5114029,13.1403808 Z" id="Logout-2" fill="#2F313A" fill-rule="nonzero"></path>
    </g>
</svg>