<?xml version="1.0" encoding="UTF-8"?>
<svg width="40px" height="40px" viewBox="0 0 40 40" version="1.1" xmlns="http://www.w3.org/2000/svg" xmlns:xlink="http://www.w3.org/1999/xlink">
    <!-- Generator: Sketch 59.1 (86144) - https://sketch.com -->
    <title>Vector Files/40x40/Flattened/Actions/Merge (Filled)</title>
    <desc>Created with Sketch.</desc>
    <g id="40x40/Flattened/Actions/Merge-(Filled)" stroke="none" stroke-width="1" fill="none" fill-rule="evenodd">
        <path d="M15.581517,21 L22.9297424,21 C23.1148425,20.6800171 23.2784161,20.3460237 23.418483,20 L16.0702576,20 C15.8851575,20.3199829 15.7215839,20.6539763 15.581517,21 Z M15.252035,22 C15.1681888,22.3257654 15.1043459,22.6595612 15.0618938,23 L21.2916488,23 C21.637451,22.6947886 21.9566647,22.360149 22.245371,22 L15.252035,22 L15.252035,22 Z M16.754629,19 L23.747965,19 C23.8318112,18.6742346 23.8956541,18.3404388 23.9381062,18 L17.7083512,18 C17.362549,18.3052114 17.0433353,18.639851 16.754629,19 Z M24,17 C24,16.6803428 23.981252,16.3650644 23.9447956,16.0552044 C23.6349356,16.018748 23.3196572,16 23,16 C21.5937487,16 20.2722426,16.3628371 19.1239928,17 L24,17 Z M19.8760072,24 L15,24 C15,24.3196572 15.018748,24.6349356 15.0552044,24.9447956 C15.3650644,24.981252 15.6803428,25 16,25 C17.4062513,25 18.7277574,24.6371629 19.8760072,24 Z M13.3538497,26.6461503 C9.11513213,25.4860428 6,21.6068105 6,17 C6,11.4771525 10.4771525,7 16,7 C20.6068105,7 24.4860428,10.1151321 25.6461503,14.3538497 C29.8848679,15.5139572 33,19.3931895 33,24 C33,29.5228475 28.5228475,34 23,34 C18.3931895,34 14.5139572,30.8848679 13.3538497,26.6461503 L13.3538497,26.6461503 Z" id="Merge-(Filled)" fill="#2F313A" fill-rule="nonzero"></path>
    </g>
</svg>