<?xml version="1.0" encoding="UTF-8"?>
<svg width="40px" height="40px" viewBox="0 0 40 40" version="1.1" xmlns="http://www.w3.org/2000/svg" xmlns:xlink="http://www.w3.org/1999/xlink">
    <!-- Generator: Sketch 59.1 (86144) - https://sketch.com -->
    <title>40x40/Flatenned/Actions/Minus (Filled)Vector Files/</title>
    <desc>Created with Sketch.</desc>
    <g id="40x40/Flatenned/Actions/Minus-(Filled)" stroke="none" stroke-width="1" fill="none" fill-rule="evenodd">
        <g id="Icon" transform="translate(8.000000, 8.000000)" fill="#2F313A" fill-rule="nonzero">
            <path d="M12,0 C18.6264,0 24,5.3736 24,12 C24,18.6276 18.6264,24 12,24 C5.3724,24 0,18.6276 0,12 C0,5.3736 5.3724,0 12,0 Z M19,11 L5,11 C4.44771525,11 4,11.4477153 4,12 C4,12.5522847 4.44771525,13 5,13 L19,13 C19.5522847,13 20,12.5522847 20,12 C20,11.4477153 19.5522847,11 19,11 Z" id="Stroke"></path>
        </g>
    </g>
</svg>