<?xml version="1.0" encoding="UTF-8"?>
<svg width="40px" height="40px" viewBox="0 0 40 40" version="1.1" xmlns="http://www.w3.org/2000/svg" xmlns:xlink="http://www.w3.org/1999/xlink">
    <!-- Generator: Sketch 59.1 (86144) - https://sketch.com -->
    <title>Vector Files/40x40/Flattened/Actions/More</title>
    <desc>Created with Sketch.</desc>
    <g id="40x40/Flattened/Actions/More" stroke="none" stroke-width="1" fill="none" fill-rule="evenodd">
        <path d="M11.9991201,18.0004 C13.104368,18.0004 13.9997,18.8959916 13.9997,20.0004 C13.9997,21.1048084 13.104368,22.0004 11.9991201,22.0004 C10.895032,22.0004 9.9997,21.1048084 9.9997,20.0004 C9.9997,18.8959916 10.895032,18.0004 11.9991201,18.0004 Z M20,18 C21.1044084,18 22,18.8955916 22,20 C22,21.1044084 21.1044084,22 20,22 C18.8944316,22 18,21.1044084 18,20 C18,18.8955916 18.8944316,18 20,18 Z M28,18 C29.1044084,18 30,18.8955916 30,20 C30,21.1044084 29.1044084,22 28,22 C26.8944316,22 26,21.1044084 26,20 C26,18.8955916 26.8944316,18 28,18 Z" id="More" fill="#2F313A" fill-rule="nonzero"></path>
    </g>
</svg>