<?xml version="1.0" encoding="UTF-8"?>
<svg width="40px" height="40px" viewBox="0 0 40 40" version="1.1" xmlns="http://www.w3.org/2000/svg" xmlns:xlink="http://www.w3.org/1999/xlink">
    <!-- Generator: Sketch 59.1 (86144) - https://sketch.com -->
    <title>Vector Files/40x40/Flattened/Actions/More Menu (Filled)</title>
    <desc>Created with Sketch.</desc>
    <g id="40x40/Flattened/Actions/More-Menu-(Filled)" stroke="none" stroke-width="1" fill="none" fill-rule="evenodd">
        <path d="M33,20 C33,27.1794858 27.1790837,33 20,33 C12.8201153,33 7,27.1798847 7,20 C7,12.8209163 12.8205142,7 20,7 C27.1786847,7 33,12.8213153 33,20 Z M14.9997,20.0004 C14.9997,18.8959916 14.104368,18.0004 12.9991201,18.0004 C11.895032,18.0004 10.9997,18.8959916 10.9997,20.0004 C10.9997,21.1048084 11.895032,22.0004 12.9991201,22.0004 C14.104368,22.0004 14.9997,21.1048084 14.9997,20.0004 Z M18,20 C18,21.1044084 18.8944316,22 20,22 C21.1044084,22 22,21.1044084 22,20 C22,18.8955916 21.1044084,18 20,18 C18.8944316,18 18,18.8955916 18,20 Z M25,20 C25,21.1044084 25.8944316,22 27,22 C28.1044084,22 29,21.1044084 29,20 C29,18.8955916 28.1044084,18 27,18 C25.8944316,18 25,18.8955916 25,20 Z" id="More-Menu-(Filled)" fill="#2F313A" fill-rule="nonzero"></path>
    </g>
</svg>