<?xml version="1.0" encoding="UTF-8"?>
<svg width="40px" height="40px" viewBox="0 0 40 40" version="1.1" xmlns="http://www.w3.org/2000/svg" xmlns:xlink="http://www.w3.org/1999/xlink">
    <!-- Generator: Sketch 59.1 (86144) - https://sketch.com -->
    <title>Vector Files/40x40/Flattened/Actions/Pack Size</title>
    <desc>Created with Sketch.</desc>
    <g id="40x40/Flattened/Actions/Pack-Size" stroke="none" stroke-width="1" fill="none" fill-rule="evenodd">
        <path d="M20.0610138,6.90963691 L20.1110795,6.91949839 C20.1315578,6.92403308 20.1518738,6.92920562 20.1719966,6.93500368 C20.1765705,6.93625468 20.1816058,6.93774921 20.1866363,6.93928556 C20.2158409,6.94825773 20.2440954,6.95828438 20.271848,6.96955054 C20.2753817,6.97098419 20.2790232,6.97248765 20.2826607,6.97401423 L31.3871607,11.6342901 L31.4025609,11.640758 C31.4233995,11.6499025 31.4438456,11.6597297 31.4638738,11.6702091 L31.3871607,11.6342901 C31.7327578,11.7793284 31.9329891,12.0713903 31.9859281,12.3860004 C32.0008612,12.4717638 32.0046212,12.5611138 31.995888,12.6521456 L30.534016,27.8940132 C30.5471373,28.2658529 30.3512997,28.6302285 29.9999622,28.8150327 L20.3612122,33.8850327 L20.3242308,33.9035917 C20.3070314,33.9117321 20.2896145,33.9193767 20.2720038,33.9265183 L20.3612122,33.8850327 C20.3138066,33.9099681 20.265311,33.9307185 20.2161483,33.9474152 C20.2004701,33.9525634 20.1847252,33.9574575 20.1688685,33.9619622 C20.1478229,33.9681769 20.1264248,33.9735123 20.1049618,33.9781167 C20.0902688,33.9810325 20.0752528,33.9839014 20.0601707,33.9864273 C20.0394044,33.9901103 20.0190188,33.9928511 19.9986247,33.9949546 C19.9808816,33.9966492 19.9624748,33.9980703 19.9440179,33.9989809 C19.928256,33.9998168 19.9128651,34.000187 19.897496,34.0002018 C19.8748211,34.0002601 19.8517378,33.9995329 19.8286461,33.9979958 C19.8175459,33.9971307 19.8068444,33.9962238 19.796167,33.9951461 C19.7689559,33.9926034 19.7412415,33.9886803 19.7136141,33.9835594 C19.7049561,33.9817161 19.6966189,33.9800543 19.688306,33.9782874 C19.6644331,33.9734626 19.6404099,33.9674276 19.6165178,33.9604573 C19.6004869,33.9555852 19.5843749,33.9504591 19.5683998,33.9449296 C19.5468515,33.9375975 19.5252315,33.9292417 19.503786,33.9200779 C19.4916753,33.9148832 19.48027,33.9097708 19.4689586,33.9044444 C19.4537237,33.89722 19.4378645,33.889225 19.4221308,33.8807656 L9.99238084,28.8107656 C9.64745534,28.6253129 9.45544332,28.2664848 9.46616507,27.8999747 L8.00502298,12.6520865 C8.0005645,12.6055839 7.99936616,12.5595204 8.00124103,12.5141224 C8.01388584,12.2017175 8.1692837,11.8943612 8.46539116,11.7104603 C8.47092892,11.7080814 8.47537609,11.7053177 8.47984728,11.7025877 C8.49616635,11.6918567 8.51399523,11.6818612 8.53229374,11.6723067 C8.55274671,11.6618903 8.57283105,11.652112 8.59329842,11.6429941 C8.59779844,11.6408918 8.60234722,11.6389093 8.60692174,11.6369527 L19.5024217,6.97667682 C19.5646165,6.95072317 19.6199921,6.9330744 19.6766335,6.92030874 C19.7292458,6.9083211 19.7824252,6.90084392 19.8354331,6.89764721 L19.9491178,6.89725925 C19.9863719,6.89925083 20.0237251,6.90335441 20.0610138,6.90963691 Z M29.8391795,14.1858436 L20.3110133,18.5360502 L20.2698856,18.5537302 C20.2543101,18.5600114 20.2385798,18.5659017 20.2227107,18.5713951 L20.3110133,18.5360502 C20.261426,18.5586903 20.2109539,18.5769397 20.1600342,18.5909615 C20.1458846,18.5947102 20.1318349,18.5982413 20.1177081,18.6014684 C20.0970902,18.6063419 20.076396,18.6103824 20.0556773,18.6137521 C20.0384807,18.6164017 20.0210921,18.6187719 20.0036311,18.6206843 C19.9838803,18.6229612 19.9638535,18.6245268 19.943852,18.6254849 C19.9276141,18.6262133 19.9116141,18.6266095 19.895585,18.6266183 C19.8746133,18.6266111 19.8535396,18.6259264 19.8325484,18.6245804 C19.8173803,18.623705 19.8017342,18.6223554 19.7860896,18.6206292 C19.7610014,18.6177058 19.7366111,18.6140595 19.7124172,18.609528 C19.7021238,18.6077664 19.6914105,18.6055838 19.6807111,18.6032186 C19.6566053,18.5977279 19.6329227,18.5915744 19.6095061,18.5845704 C19.5946081,18.5802206 19.5799184,18.5754401 19.5652835,18.5702978 C19.5471263,18.5638739 19.5286669,18.5568035 19.5104279,18.5491942 C19.4981305,18.5440608 19.4859343,18.5386759 19.4737935,18.5330264 L10.1621795,14.1998436 L11.4191795,27.3068436 L19.4991795,31.6508436 L19.5,22.2413793 C19.5,21.9652369 19.7238576,21.7413793 20,21.7413793 C20.2761424,21.7413793 20.5,21.9652369 20.5,22.2413793 L20.4991795,31.5518436 L28.5811795,27.3008436 L29.8391795,14.1858436 Z M19.8981795,8.98184364 L11.4531123,12.5948351 L19.8991795,16.5248436 L28.50797,12.5949546 L19.8981795,8.98184364 Z" id="Products" fill="#2F313A" fill-rule="nonzero"></path>
    </g>
</svg>