<?xml version="1.0" encoding="UTF-8"?>
<svg width="40px" height="40px" viewBox="0 0 40 40" version="1.1" xmlns="http://www.w3.org/2000/svg" xmlns:xlink="http://www.w3.org/1999/xlink">
    <!-- Generator: Sketch 59.1 (86144) - https://sketch.com -->
    <title>Vector Files/40x40/Flattened/Actions/Pack Size (Filled)</title>
    <desc>Created with Sketch.</desc>
    <g id="40x40/Flattened/Actions/Pack-Size-(Filled)" stroke="none" stroke-width="1" fill="none" fill-rule="evenodd">
        <path d="M19.5,33.7224431 L19.4159707,33.8774257 L9.98649573,28.722074 C9.69558285,28.5630239 9.50241578,28.2701258 9.47077298,27.9400865 L8.05086951,13.1302729 L19.4681195,18.5303645 C19.6090049,18.597 19.763515,18.6297838 19.9193206,18.6260999 L20.0100875,18.6239538 C20.1499439,18.6206471 20.2875505,18.5880327 20.414014,18.5282184 L31.9364739,13.078365 L30.5115937,27.9400865 C30.4799509,28.2701258 30.2867838,28.5630239 29.9958709,28.722074 L20.5663959,33.8774257 L20.5,33.7549658 L20.5,24.2413793 C20.5,23.9652369 20.2761424,23.7413793 20,23.7413793 C19.7238576,23.7413793 19.5,23.9652369 19.5,24.2413793 L19.5,33.7224431 L19.5,33.7224431 Z M9.11331128,11.4203573 L19.5024217,6.97667682 C19.6267152,6.92351343 19.7604975,6.89610345 19.8956833,6.89610345 L20.0866833,6.89610345 C20.2218692,6.89610345 20.3556515,6.92351343 20.4799449,6.97667682 L30.8140383,11.3968251 L19.9387981,16.5405587 L9.11331128,11.4203573 Z" id="Products-(Filled)" fill="#2F313A" fill-rule="nonzero"></path>
    </g>
</svg>