<?xml version="1.0" encoding="UTF-8"?>
<svg width="40px" height="40px" viewBox="0 0 40 40" version="1.1" xmlns="http://www.w3.org/2000/svg" xmlns:xlink="http://www.w3.org/1999/xlink">
    <!-- Generator: Sketch 59.1 (86144) - https://sketch.com -->
    <title>Vector Files/40x40/Flattened/Actions/Photo</title>
    <desc>Created with Sketch.</desc>
    <g id="40x40/Flattened/Actions/Photo" stroke="none" stroke-width="1" fill="none" fill-rule="evenodd">
        <path d="M19,11 L19,9 C19,8.44771525 19.4477153,8 20,8 C20.5522847,8 21,8.44771525 21,9 L21,11 L30.0791,11 C31.6928847,11 33.0001,12.3072153 33.0001,13.92 L33.0001,28.08 C33.0001,29.6927847 31.6928847,31 30.0791,31 L9.9211,31 C8.30731525,31 7.0001,29.6927847 7.0001,28.08 L7.0001,13.92 C7.0001,12.3072153 8.30731525,11 9.9211,11 L19,11 Z M31.0001,22.4167349 L31.0001,13.92 C31.0001,13.4117847 30.5883153,13 30.0791,13 L9.9211,13 C9.41188475,13 9.0001,13.4117847 9.0001,13.92 L9.0001,28.08 C9.0001,28.0933001 9.00038202,28.1065342 9.00094044,28.1196966 L15.7168564,21.1045435 C16.5962633,20.1852977 18.0509245,20.142567 18.9896075,21.0144837 L22.8180337,24.6547778 L26.2170375,21.1038632 C27.0957057,20.1853227 28.5513972,20.1421204 29.4834567,21.0078148 L31.0001,22.4167349 Z M31.0001,24.4641058 L28.462595,22.1068332 C28.131341,21.7991653 27.6129909,21.814549 27.3007926,22.1409143 L23.9050724,25.6883986 L24.7128524,26.4564837 C25.0130282,26.7419086 25.0249862,27.2166317 24.7395613,27.5168075 C24.4541364,27.8169833 23.9794132,27.8289412 23.6792374,27.5435163 L17.962395,22.1075332 C17.6307133,21.7994681 17.1133724,21.814665 16.8005588,22.1416496 L10.234757,29 L30.0791,29 C30.5883153,29 31.0001,28.5882153 31.0001,28.08 L31.0001,24.4641058 L31.0001,24.4641058 Z M11.75,17.5 C11.75,18.1897864 12.3102136,18.75 13,18.75 C13.6897864,18.75 14.25,18.1897864 14.25,17.5 C14.25,16.8102136 13.6897864,16.25 13,16.25 C12.3102136,16.25 11.75,16.8102136 11.75,17.5 Z M10.25,17.5 C10.25,15.9817864 11.4817864,14.75 13,14.75 C14.5182136,14.75 15.75,15.9817864 15.75,17.5 C15.75,19.0182136 14.5182136,20.25 13,20.25 C11.4817864,20.25 10.25,19.0182136 10.25,17.5 Z" id="Photo" fill="#2F313A" fill-rule="nonzero"></path>
    </g>
</svg>