<?xml version="1.0" encoding="UTF-8"?>
<svg width="40px" height="40px" viewBox="0 0 40 40" version="1.1" xmlns="http://www.w3.org/2000/svg" xmlns:xlink="http://www.w3.org/1999/xlink">
    <!-- Generator: Sketch 59.1 (86144) - https://sketch.com -->
    <title>Vector Files/40x40/Flattened/Actions/Photo (Filled)</title>
    <desc>Created with Sketch.</desc>
    <g id="40x40/Flattened/Actions/Photo-(Filled)" stroke="none" stroke-width="1" fill="none" fill-rule="evenodd">
        <path d="M20,8 C20.5522847,8 21,8.44771525 21,9 L20.9991,11 L30.0791,11 C31.6928847,11 33.0001,12.3072153 33.0001,13.92 L33.0001,28.08 C33.0001,29.6927847 31.6928847,31 30.0791,31 L9.9211,31 C8.30731525,31 7.0001,29.6927847 7.0001,28.08 L7.0001,13.92 C7.0001,12.3072153 8.30731525,11 9.9211,11 L18.9991,11 L19,9 C19,8.44771525 19.4477153,8 20,8 Z M29.4834567,21.0078148 C28.5513972,20.1421204 27.0957057,20.1853227 26.2170375,21.1038632 L26.2170375,21.1038632 L22.8171,24.654 L18.9896075,21.0144837 C18.0935919,20.1821996 16.7274391,20.1833029 15.8402387,20.9846283 L15.7168564,21.1045435 C11.8633703,25.1297271 11.8633703,25.1297271 9.41103429,27.6913304 C9.12459202,27.9905356 9.13493835,28.4652966 9.43414346,28.7517388 C9.73334858,29.0381811 10.2081096,29.0278348 10.4945519,28.7286297 L10.4945519,28.7286297 L16.8005588,22.1416496 C17.1133724,21.814665 17.6307133,21.7994681 17.962395,22.1075332 L17.962395,22.1075332 L23.6792374,27.5435163 C23.9794132,27.8289412 24.4541364,27.8169833 24.7395613,27.5168075 C25.0249862,27.2166317 25.0130282,26.7419086 24.7128524,26.4564837 L24.7128524,26.4564837 L23.9041,25.688 L27.3007926,22.1409143 C27.5869744,21.8417461 28.0463809,21.8038889 28.3761112,22.0366395 L28.462595,22.1068332 L29.8170322,23.3650682 C30.1205045,23.6469856 30.5950566,23.629512 30.876974,23.3260397 C31.1588915,23.0225674 31.1414178,22.5480152 30.8379455,22.2660978 L30.8379455,22.2660978 Z M12.5,14 C11.12,14 10,15.12 10,16.5 C10,17.88 11.12,19 12.5,19 C13.88,19 15,17.88 15,16.5 C15,15.12 13.88,14 12.5,14 Z" id="Photo-(Filled)" fill="#2F313A" fill-rule="nonzero"></path>
    </g>
</svg>