<?xml version="1.0" encoding="UTF-8"?>
<svg width="40px" height="40px" viewBox="0 0 40 40" version="1.1" xmlns="http://www.w3.org/2000/svg" xmlns:xlink="http://www.w3.org/1999/xlink">
    <!-- Generator: Sketch 59.1 (86144) - https://sketch.com -->
    <title>Vector Files/40x40/Flattened/Actions/Print (Filled)</title>
    <desc>Created with Sketch.</desc>
    <g id="40x40/Flattened/Actions/Print-(Filled)" stroke="none" stroke-width="1" fill="none" fill-rule="evenodd">
        <path d="M30,23 L30,17 C30,16.4477153 29.5522847,16 29,16 L11,16 C10.4477153,16 10,16.4477153 10,17 L10,23 L8,23 C7.44771525,23 7,22.5522847 7,22 L7,10 C7,9.44771525 7.44771525,9 8,9 L32,9 C32.5522847,9 33,9.44771525 33,10 L33,22 C33,22.5522847 32.5522847,23 32,23 L30,23 Z M28,12 L24,12 C23.7238576,12 23.5,12.2238576 23.5,12.5 C23.5,12.7761424 23.7238576,13 24,13 L28,13 C28.2761424,13 28.5,12.7761424 28.5,12.5 C28.5,12.2238576 28.2761424,12 28,12 Z M28,18.0004 L28,31 C28,31.5522847 27.5522847,32 27,32 L13,32 C12.4477153,32 12,31.5522847 12,31 L12,18.0004 L28,18.0004 Z M16,25 L23,25 C23.2761424,25 23.5,24.7761424 23.5,24.5 C23.5,24.2238576 23.2761424,24 23,24 L16,24 C15.7238576,24 15.5,24.2238576 15.5,24.5 C15.5,24.7761424 15.7238576,25 16,25 Z M16,28 L23,28 C23.2761424,28 23.5,27.7761424 23.5,27.5 C23.5,27.2238576 23.2761424,27 23,27 L16,27 C15.7238576,27 15.5,27.2238576 15.5,27.5 C15.5,27.7761424 15.7238576,28 16,28 Z M16,22 L20.3999023,22 C20.6760447,22 20.8999023,21.7761424 20.8999023,21.5 C20.8999023,21.2238576 20.6760447,21 20.3999023,21 L16,21 C15.7238576,21 15.5,21.2238576 15.5,21.5 C15.5,21.7761424 15.7238576,22 16,22 Z" id="Print-(Filled)" fill="#2F313A" fill-rule="nonzero"></path>
    </g>
</svg>