<?xml version="1.0" encoding="UTF-8"?>
<svg width="40px" height="40px" viewBox="0 0 40 40" version="1.1" xmlns="http://www.w3.org/2000/svg" xmlns:xlink="http://www.w3.org/1999/xlink">
    <!-- Generator: Sketch 59.1 (86144) - https://sketch.com -->
    <title>Vector Files/40x40/Flattened/Actions/Print</title>
    <desc>Created with Sketch.</desc>
    <g id="40x40/Flattened/Actions/Print" stroke="none" stroke-width="1" fill="none" fill-rule="evenodd">
        <path d="M28,21 L31,21 L31,11 L9,11 L9,21 L12,21 L12,18 L11,18 C10.4477153,18 10,17.5522847 10,17 C10,16.4477153 10.4477153,16 11,16 L29,16 C29.5522847,16 30,16.4477153 30,17 C30,17.5522847 29.5522847,18 29,18 L28,18 L28,21 Z M28,23 L28,31 C28,31.5522847 27.5522847,32 27,32 L13,32 C12.4477153,32 12,31.5522847 12,31 L12,23 L8,23 C7.44771525,23 7,22.5522847 7,22 L7,10 C7,9.44771525 7.44771525,9 8,9 L32,9 C32.5522847,9 33,9.44771525 33,10 L33,22 C33,22.5522847 32.5522847,23 32,23 L28,23 Z M26,18 L14,18 L14,30 L26,30 L26,18 Z M16,22 C15.7238576,22 15.5,21.7761424 15.5,21.5 C15.5,21.2238576 15.7238576,21 16,21 L20.3999023,21 C20.6760447,21 20.8999023,21.2238576 20.8999023,21.5 C20.8999023,21.7761424 20.6760447,22 20.3999023,22 L16,22 Z M16,25 C15.7238576,25 15.5,24.7761424 15.5,24.5 C15.5,24.2238576 15.7238576,24 16,24 L23,24 C23.2761424,24 23.5,24.2238576 23.5,24.5 C23.5,24.7761424 23.2761424,25 23,25 L16,25 Z M16,28 C15.7238576,28 15.5,27.7761424 15.5,27.5 C15.5,27.2238576 15.7238576,27 16,27 L23,27 C23.2761424,27 23.5,27.2238576 23.5,27.5 C23.5,27.7761424 23.2761424,28 23,28 L16,28 Z M28,13 C28.2761424,13 28.5,13.2238576 28.5,13.5 C28.5,13.7761424 28.2761424,14 28,14 L24,14 C23.7238576,14 23.5,13.7761424 23.5,13.5 C23.5,13.2238576 23.7238576,13 24,13 L28,13 Z" id="Print" fill="#2F313A" fill-rule="nonzero"></path>
    </g>
</svg>