<?xml version="1.0" encoding="UTF-8"?>
<svg width="40px" height="40px" viewBox="0 0 40 40" version="1.1" xmlns="http://www.w3.org/2000/svg" xmlns:xlink="http://www.w3.org/1999/xlink">
    <!-- Generator: Sketch 59.1 (86144) - https://sketch.com -->
    <title>Vector Files/40x40/Flattened/Actions/QR Code</title>
    <desc>Created with Sketch.</desc>
    <g id="40x40/Flattened/Actions/QR-Code" stroke="none" stroke-width="1" fill="none" fill-rule="evenodd">
        <path d="M13.75,26.25 L17,26.25 L17,23.875 C17,23.3917508 16.6082492,23 16.125,23 L13.75,23 L13.75,26.25 Z M13.75,27.75 L13.75,31 L16.125,31 C16.6082492,31 17,30.6082492 17,30.125 L17,27.75 L13.75,27.75 Z M12.25,31 L12.25,23 L9.875,23 C9.39175084,23 9,23.3917508 9,23.875 L9,24.6132202 C9,25.165505 8.55228475,25.6132202 8,25.6132202 C7.44771525,25.6132202 7,25.165505 7,24.6132202 L7,23.875 C7,22.2871813 8.28718134,21 9.875,21 L16.125,21 C17.7128187,21 19,22.2871813 19,23.875 L19,30.125 C19,31.7128187 17.7128187,33 16.125,33 L9.875,33 C8.28718134,33 7,31.7128187 7,30.125 L7,28.8388367 C7,28.2865519 7.44771525,27.8388367 8,27.8388367 C8.55228475,27.8388367 9,28.2865519 9,28.8388367 L9,30.125 C9,30.6082492 9.39175084,31 9.875,31 L12.25,31 Z M9.5,9 C9.22385763,9 9,9.22385763 9,9.5 L9,16.5 C9,16.7761424 9.22385763,17 9.5,17 L16.5,17 C16.7761424,17 17,16.7761424 17,16.5 L17,9.5 C17,9.22385763 16.7761424,9 16.5,9 L9.5,9 Z M9.5,7 L16.5,7 C17.8807119,7 19,8.11928813 19,9.5 L19,16.5 C19,17.8807119 17.8807119,19 16.5,19 L9.5,19 C8.11928813,19 7,17.8807119 7,16.5 L7,9.5 C7,8.11928813 8.11928813,7 9.5,7 Z M23.5,23 C23.2238576,23 23,23.2238576 23,23.5 L23,30.5 C23,30.7761424 23.2238576,31 23.5,31 L30.5,31 C30.7761424,31 31,30.7761424 31,30.5 L31,23.5 C31,23.2238576 30.7761424,23 30.5,23 L23.5,23 Z M23.5,21 L30.5,21 C31.8807119,21 33,22.1192881 33,23.5 L33,30.5 C33,31.8807119 31.8807119,33 30.5,33 L23.5,33 C22.1192881,33 21,31.8807119 21,30.5 L21,23.5 C21,22.1192881 22.1192881,21 23.5,21 Z M23.5,9 C23.2238576,9 23,9.22385763 23,9.5 L23,16.5 C23,16.7761424 23.2238576,17 23.5,17 L30.5,17 C30.7761424,17 31,16.7761424 31,16.5 L31,9.5 C31,9.22385763 30.7761424,9 30.5,9 L23.5,9 Z M23.5,7 L30.5,7 C31.8807119,7 33,8.11928813 33,9.5 L33,16.5 C33,17.8807119 31.8807119,19 30.5,19 L23.5,19 C22.1192881,19 21,17.8807119 21,16.5 L21,9.5 C21,8.11928813 22.1192881,7 23.5,7 Z M11.2,11 L14.8,11 C14.9104569,11 15,11.0895431 15,11.2 L15,14.8 C15,14.9104569 14.9104569,15 14.8,15 L11.2,15 C11.0895431,15 11,14.9104569 11,14.8 L11,11.2 C11,11.0895431 11.0895431,11 11.2,11 Z M26.2,26 L27.8,26 C27.9104569,26 28,26.0895431 28,26.2 L28,27.8 C28,27.9104569 27.9104569,28 27.8,28 L26.2,28 C26.0895431,28 26,27.9104569 26,27.8 L26,26.2 C26,26.0895431 26.0895431,26 26.2,26 Z M24.6,10 L29.4,10 C29.7313708,10 30,10.2686292 30,10.6 L30,15.4 C30,15.7313708 29.7313708,16 29.4,16 L24.6,16 C24.2686292,16 24,15.7313708 24,15.4 L24,10.6 C24,10.2686292 24.2686292,10 24.6,10 Z" id="QR-Code" fill="#2F313A" fill-rule="nonzero"></path>
    </g>
</svg>