<?xml version="1.0" encoding="UTF-8"?>
<svg width="40px" height="40px" viewBox="0 0 40 40" version="1.1" xmlns="http://www.w3.org/2000/svg" xmlns:xlink="http://www.w3.org/1999/xlink">
    <!-- Generator: Sketch 59.1 (86144) - https://sketch.com -->
    <title>Vector Files/40x40/Flattened/Actions/Remove (Filled)</title>
    <desc>Created with Sketch.</desc>
    <g id="40x40/Flattened/Actions/Remove-(Filled)" stroke="none" stroke-width="1" fill="none" fill-rule="evenodd">
        <path d="M21.4142136,20 L25.6568542,15.7573593 C26.0473785,15.366835 26.0473785,14.73367 25.6568542,14.3431458 C25.26633,13.9526215 24.633165,13.9526215 24.2426407,14.3431458 L20,18.5857864 L15.7573593,14.3431458 C15.366835,13.9526215 14.73367,13.9526215 14.3431458,14.3431458 C13.9526215,14.73367 13.9526215,15.366835 14.3431458,15.7573593 L18.5857864,20 L14.3431458,24.2426407 C13.9526215,24.633165 13.9526215,25.26633 14.3431458,25.6568542 C14.73367,26.0473785 15.366835,26.0473785 15.7573593,25.6568542 L20,21.4142136 L24.2426407,25.6568542 C24.633165,26.0473785 25.26633,26.0473785 25.6568542,25.6568542 C26.0473785,25.26633 26.0473785,24.633165 25.6568542,24.2426407 L21.4142136,20 Z M29.1923882,29.1923882 C24.1157251,34.2690512 15.8839906,34.2687669 10.8076118,29.1923882 C5.73066665,24.115443 5.73066665,15.884557 10.8076118,10.8076118 C15.8839906,5.73123305 24.1157251,5.73094876 29.1923882,10.8076118 C34.2684848,15.8837085 34.2684848,24.1162915 29.1923882,29.1923882 Z" id="Remove-(Filled)" fill="#2F313A" fill-rule="nonzero"></path>
    </g>
</svg>