<?xml version="1.0" encoding="UTF-8"?>
<svg width="40px" height="40px" viewBox="0 0 40 40" version="1.1" xmlns="http://www.w3.org/2000/svg" xmlns:xlink="http://www.w3.org/1999/xlink">
    <!-- Generator: Sketch 59.1 (86144) - https://sketch.com -->
    <title>Vector Files/40x40/Flattened/Actions/Remove</title>
    <desc>Created with Sketch.</desc>
    <g id="40x40/Flattened/Actions/Remove" stroke="none" stroke-width="1" fill="none" fill-rule="evenodd">
        <path d="M21.4142136,20 L25.6568542,24.2426407 C26.0473785,24.633165 26.0473785,25.26633 25.6568542,25.6568542 C25.26633,26.0473785 24.633165,26.0473785 24.2426407,25.6568542 L20,21.4142136 L15.7573593,25.6568542 C15.366835,26.0473785 14.73367,26.0473785 14.3431458,25.6568542 C13.9526215,25.26633 13.9526215,24.633165 14.3431458,24.2426407 L18.5857864,20 L14.3431458,15.7573593 C13.9526215,15.366835 13.9526215,14.73367 14.3431458,14.3431458 C14.73367,13.9526215 15.366835,13.9526215 15.7573593,14.3431458 L20,18.5857864 L24.2426407,14.3431458 C24.633165,13.9526215 25.26633,13.9526215 25.6568542,14.3431458 C26.0473785,14.73367 26.0473785,15.366835 25.6568542,15.7573593 L21.4142136,20 Z" id="Close" fill="#2F313A" fill-rule="nonzero"></path>
    </g>
</svg>