<?xml version="1.0" encoding="UTF-8"?>
<svg width="40px" height="40px" viewBox="0 0 40 40" version="1.1" xmlns="http://www.w3.org/2000/svg" xmlns:xlink="http://www.w3.org/1999/xlink">
    <!-- Generator: Sketch 59.1 (86144) - https://sketch.com -->
    <title>Vector Files/40x40/Flattened/Actions/Search (Filled)</title>
    <desc>Created with Sketch.</desc>
    <g id="40x40/Flattened/Actions/Search-(Filled)" stroke="none" stroke-width="1" fill="none" fill-rule="evenodd">
        <path d="M21.035777,20.8336339 C20.2732527,21.6224958 19.2040934,22.1129803 18.0204302,22.1129803 C15.7037864,22.1129803 13.8260547,20.2352486 13.8260547,17.9186048 C13.8260547,15.6025835 15.7038752,13.7249407 18.0204302,13.7249407 C20.3363626,13.7249407 22.2140943,15.6026723 22.2140943,17.9186048 C22.2140943,18.9809801 21.8191974,19.9510828 21.168222,20.690112 C21.1540706,20.7027532 21.1401926,20.7158669 21.1266081,20.7294532 C21.0935286,20.7625375 21.0632516,20.7973627 21.035777,20.8336339 L21.035777,20.8336339 Z M23.1712616,21.3597046 C23.8299554,20.3754659 24.2140943,19.1919034 24.2140943,17.9186048 C24.2140943,14.4981028 21.4409321,11.7249407 18.0204302,11.7249407 C14.599348,11.7249407 11.8260547,14.4979717 11.8260547,17.9186048 C11.8260547,21.3398181 14.5992169,24.1129803 18.0204302,24.1129803 C19.4457627,24.1129803 20.7586534,23.6314593 21.805331,22.8221943 L26.1724084,27.188656 C26.5629602,27.5791527 27.1961252,27.5791081 27.5866219,27.1885563 C27.9771187,26.7980044 27.9770741,26.1648395 27.5865222,25.7743427 L23.1712616,21.3597046 L23.1712616,21.3597046 Z M33,20 C33,27.1794858 27.1790837,33 20,33 C12.8201153,33 7,27.1798847 7,20 C7,12.8209163 12.8205142,7 20,7 C27.1786847,7 33,12.8213153 33,20 Z" id="Search-(Filled)" fill="#2F313A" fill-rule="nonzero"></path>
    </g>
</svg>