<?xml version="1.0" encoding="UTF-8"?>
<svg width="40px" height="40px" viewBox="0 0 40 40" version="1.1" xmlns="http://www.w3.org/2000/svg" xmlns:xlink="http://www.w3.org/1999/xlink">
    <!-- Generator: Sketch 59.1 (86144) - https://sketch.com -->
    <title>Vector Files/40x40/Flattened/Actions/Search</title>
    <desc>Created with Sketch.</desc>
    <g id="40x40/Flattened/Actions/Search" stroke="none" stroke-width="1" fill="none" fill-rule="evenodd">
        <path d="M22.4596868,22.2713895 C22.4802576,22.2504072 22.5015496,22.2306086 22.5234815,22.2119938 C23.6658777,20.9055433 24.3601735,19.1825842 24.3601735,17.2941828 C24.3601735,13.2131335 21.1158065,9.90431152 17.1142549,9.90431152 C13.1117365,9.90431152 9.86721604,13.212977 9.86721604,17.2941828 C9.86721604,21.3763747 13.111583,24.6851967 17.1142549,24.6851967 C19.1756719,24.6851967 21.0360781,23.8071139 22.3555435,22.3976038 C22.3861161,22.3532812 22.4208306,22.3110233 22.4596868,22.2713895 Z M31.726506,30.374521 C32.0911283,30.7463347 32.09117,31.3492064 31.7265991,31.7210726 C31.3620282,32.0929387 30.7709003,32.0929812 30.406278,31.7211675 L23.1170753,24.2882003 C21.5137246,25.7210542 19.4134086,26.5895082 17.1142549,26.5895082 C12.0803481,26.5895082 8,22.4280969 8,17.2941828 C8,12.1612144 12.0805411,8 17.1142549,8 C22.1470415,8 26.2273896,12.1614113 26.2273896,17.2941828 C26.2273896,19.3964266 25.5431961,21.3356593 24.3895561,22.8928648 L31.726506,30.374521 Z" id="Search" fill="#2F313A" fill-rule="nonzero"></path>
    </g>
</svg>