<?xml version="1.0" encoding="UTF-8"?>
<svg width="40px" height="40px" viewBox="0 0 40 40" version="1.1" xmlns="http://www.w3.org/2000/svg" xmlns:xlink="http://www.w3.org/1999/xlink">
    <!-- Generator: Sketch 59.1 (86144) - https://sketch.com -->
    <title>Vector Files/40x40/Flattened/Actions/Trash</title>
    <desc>Created with Sketch.</desc>
    <g id="40x40/Flattened/Actions/Trash" stroke="none" stroke-width="1" fill="none" fill-rule="evenodd">
        <path d="M19.5,8 L19.5,6 C19.5,5.44771525 19.9477153,5 20.5,5 C21.0522847,5 21.5,5.44771525 21.5,6 L21.5,8 L30,8 C30.5522847,8 31,8.44771525 31,9 L31,14 C31,14.5522847 30.5522847,15 30,15 L29,15 L29,32 C29,32.5522847 28.5522847,33 28,33 L12,33 C11.4477153,33 11,32.5522847 11,32 L11,15 L10,15 C9.44771525,15 9,14.5522847 9,14 L9,9 C9,8.44771525 9.44771525,8 10,8 L19.5,8 Z M24,31 L27,31 L27,15 L13,15 L13,31 L16,31 L16,18 C16,17.7238576 16.2238576,17.5 16.5,17.5 C16.7761424,17.5 17,17.7238576 17,18 L17,31 L19.5,31 L19.5,18 C19.5,17.7238576 19.7238576,17.5 20,17.5 C20.2761424,17.5 20.5,17.7238576 20.5,18 L20.5,31 L23,31 L23,18 C23,17.7238576 23.2238576,17.5 23.5,17.5 C23.7761424,17.5 24,17.7238576 24,18 L24,31 Z M29,13 L29,10 L11,10 L11,13 L29,13 Z" id="Trash" fill="#2F313A" fill-rule="nonzero"></path>
    </g>
</svg>