<?xml version="1.0" encoding="UTF-8"?>
<svg width="40px" height="40px" viewBox="0 0 40 40" version="1.1" xmlns="http://www.w3.org/2000/svg" xmlns:xlink="http://www.w3.org/1999/xlink">
    <!-- Generator: Sketch 59.1 (86144) - https://sketch.com -->
    <title>Vector Files/40x40/Flattened/Actions/Trash (Filled)</title>
    <desc>Created with Sketch.</desc>
    <g id="40x40/Flattened/Actions/Trash-(Filled)" stroke="none" stroke-width="1" fill="none" fill-rule="evenodd">
        <path d="M28,15 C28.5522847,15 29,15.4477153 29,16 L29,32 C29,32.5522847 28.5522847,33 28,33 L12,33 C11.4477153,33 11,32.5522847 11,32 L11,16 C11,15.4477153 11.4477153,15 12,15 L28,15 Z M15.5,17 C15.2238576,17 15,17.2238576 15,17.5 L15,17.5 L15,30.5 C15,30.7761424 15.2238576,31 15.5,31 C15.7761424,31 16,30.7761424 16,30.5 L16,30.5 L16,17.5 C16,17.2238576 15.7761424,17 15.5,17 Z M20,17 C19.7238576,17 19.5,17.2238576 19.5,17.5 L19.5,17.5 L19.5,30.5 C19.5,30.7761424 19.7238576,31 20,31 C20.2761424,31 20.5,30.7761424 20.5,30.5 L20.5,30.5 L20.5,17.5 C20.5,17.2238576 20.2761424,17 20,17 Z M24.5,17 C24.2238576,17 24,17.2238576 24,17.5 L24,17.5 L24,30.5 C24,30.7761424 24.2238576,31 24.5,31 C24.7761424,31 25,30.7761424 25,30.5 L25,30.5 L25,17.5 C25,17.2238576 24.7761424,17 24.5,17 Z M20.5,5 C21.0522847,5 21.5,5.44771525 21.5,6 L21.5,8 L30,8 C30.5522847,8 31,8.44771525 31,9 L31,13 C31,13.5522847 30.5522847,14 30,14 L10,14 C9.44771525,14 9,13.5522847 9,13 L9,9 C9,8.44771525 9.44771525,8 10,8 L19.5,8 L19.5,8 L19.5,6 C19.5,5.44771525 19.9477153,5 20.5,5 Z" id="Trash-(Filled)" fill="#2F313A" fill-rule="nonzero"></path>
    </g>
</svg>