<?xml version="1.0" encoding="UTF-8"?>
<svg width="40px" height="40px" viewBox="0 0 40 40" version="1.1" xmlns="http://www.w3.org/2000/svg" xmlns:xlink="http://www.w3.org/1999/xlink">
    <!-- Generator: Sketch 59.1 (86144) - https://sketch.com -->
    <title>Vector Files/40x40/Flattened/Actions/Video Play (Filled)</title>
    <desc>Created with Sketch.</desc>
    <g id="40x40/Flattened/Actions/Video-Play-(Filled)" stroke="none" stroke-width="1" fill="none" fill-rule="evenodd">
        <path d="M33,20 C33,27.1794858 27.1790837,33 20,33 C12.8201153,33 7,27.1798847 7,20 C7,12.8209163 12.8205142,7 20,7 C27.1786847,7 33,12.8213153 33,20 Z M24.1313564,21.4486099 C24.2961348,21.3387577 24.4375292,21.1973632 24.5473815,21.0325848 C25.0069102,20.3432918 24.8206494,19.4119877 24.1313564,18.9524591 L19.5327442,15.8867176 C19.2863429,15.7224501 18.9968314,15.634793 18.7006939,15.634793 C17.8722668,15.634793 17.2006939,16.3063659 17.2006939,17.134793 L17.2006939,23.266276 C17.2006939,23.5624134 17.288351,23.851925 17.4526185,24.0983262 C17.9121472,24.7876193 18.8434512,24.9738801 19.5327442,24.5143514 L24.1313564,21.4486099 Z" id="Video-Play-(Filled)" fill="#2F313A" fill-rule="nonzero"></path>
    </g>
</svg>