<?xml version="1.0" encoding="UTF-8"?>
<svg width="40px" height="40px" viewBox="0 0 40 40" version="1.1" xmlns="http://www.w3.org/2000/svg" xmlns:xlink="http://www.w3.org/1999/xlink">
    <!-- Generator: Sketch 59.1 (86144) - https://sketch.com -->
    <title>Vector Files/40x40/Flattened/Actions/Video Play</title>
    <desc>Created with Sketch.</desc>
    <g id="40x40/Flattened/Actions/Video-Play" stroke="none" stroke-width="1" fill="none" fill-rule="evenodd">
        <path d="M31,20 C31,13.9258847 26.0741153,9 20,9 C13.9251146,9 9,13.9254548 9,20 C9,26.0753153 13.9246847,31 20,31 C26.0745452,31 31,26.0748854 31,20 Z M33,20 C33,27.1794858 27.1790837,33 20,33 C12.8201153,33 7,27.1798847 7,20 C7,12.8209163 12.8205142,7 20,7 C27.1786847,7 33,12.8213153 33,20 Z M23.5766562,20.6164534 C23.6315823,20.5798359 23.6787138,20.5327045 23.7153312,20.4777783 C23.8685075,20.248014 23.8064205,19.9375793 23.5766562,19.7844031 L18.978044,16.7186616 C18.8959102,16.6639058 18.7994064,16.6346868 18.7006939,16.6346868 C18.4245515,16.6346868 18.2006939,16.8585444 18.2006939,17.1346868 L18.2006939,23.2661697 C18.2006939,23.3648822 18.2299129,23.461386 18.2846688,23.5435198 C18.437845,23.7732841 18.7482797,23.8353711 18.978044,23.6821948 L23.5766562,20.6164534 Z M24.6860566,22.280554 L20.0874444,25.3462954 C18.9386227,26.1121766 17.3864493,25.8017419 16.6205682,24.6529202 C16.346789,24.2422514 16.2006939,23.7597321 16.2006939,23.2661697 L16.2006939,17.1346868 C16.2006939,15.7539749 17.319982,14.6346868 18.7006939,14.6346868 C19.1942564,14.6346868 19.6767756,14.7807818 20.0874444,15.054561 L24.6860566,18.1203025 C25.8348783,18.8861836 26.145313,20.438357 25.3794318,21.5871787 C25.1963447,21.8618094 24.9606873,22.0974668 24.6860566,22.280554 Z" id="Video-Play" fill="#2F313A" fill-rule="nonzero"></path>
    </g>
</svg>