<?xml version="1.0" encoding="UTF-8"?>
<svg width="40px" height="40px" viewBox="0 0 40 40" version="1.1" xmlns="http://www.w3.org/2000/svg" xmlns:xlink="http://www.w3.org/1999/xlink">
    <!-- Generator: Sketch 59.1 (86144) - https://sketch.com -->
    <title>Vector Files/40x40/Flattened/Actions/Video Stop</title>
    <desc>Created with Sketch.</desc>
    <g id="40x40/Flattened/Actions/Video-Stop" stroke="none" stroke-width="1" fill="none" fill-rule="evenodd">
        <path d="M31,20 C31,13.9258847 26.0741153,9 20,9 C13.9251146,9 9,13.9254548 9,20 C9,26.0753153 13.9246847,31 20,31 C26.0745452,31 31,26.0748854 31,20 Z M33,20 C33,27.1794858 27.1790837,33 20,33 C12.8201153,33 7,27.1798847 7,20 C7,12.8209163 12.8205142,7 20,7 C27.1786847,7 33,12.8213153 33,20 Z M17,17 L17,23 L23,23 L23,17 L17,17 Z M17,15 L23,15 C24.1045695,15 25,15.8954305 25,17 L25,23 C25,24.1045695 24.1045695,25 23,25 L17,25 C15.8954305,25 15,24.1045695 15,23 L15,17 C15,15.8954305 15.8954305,15 17,15 Z" id="Video-Play" fill="#2F313A" fill-rule="nonzero"></path>
    </g>
</svg>