<?xml version="1.0" encoding="UTF-8"?>
<svg width="40px" height="40px" viewBox="0 0 40 40" version="1.1" xmlns="http://www.w3.org/2000/svg" xmlns:xlink="http://www.w3.org/1999/xlink">
    <!-- Generator: Sketch 59.1 (86144) - https://sketch.com -->
    <title>Vector Files/40x40/Flattened/Actions/Video Stop (Filled)</title>
    <desc>Created with Sketch.</desc>
    <g id="40x40/Flattened/Actions/Video-Stop-(Filled)" stroke="none" stroke-width="1" fill="none" fill-rule="evenodd">
        <path d="M20,7 C27.1786847,7 33,12.8213153 33,20 C33,27.1794858 27.1790837,33 20,33 C12.8201153,33 7,27.1798847 7,20 C7,12.8209163 12.8205142,7 20,7 Z M22.5,16 L17.5,16 C16.6715729,16 16,16.6715729 16,17.5 L16,17.5 L16,22.5 C16,23.3284271 16.6715729,24 17.5,24 L17.5,24 L22.5,24 C23.3284271,24 24,23.3284271 24,22.5 L24,22.5 L24,17.5 C24,16.6715729 23.3284271,16 22.5,16 L22.5,16 Z" id="Video-Stop-(Filled)" fill="#2F313A" fill-rule="nonzero"></path>
    </g>
</svg>