<?xml version="1.0" encoding="UTF-8"?>
<svg width="40px" height="40px" viewBox="0 0 40 40" version="1.1" xmlns="http://www.w3.org/2000/svg" xmlns:xlink="http://www.w3.org/1999/xlink">
    <!-- Generator: Sketch 59.1 (86144) - https://sketch.com -->
    <title>Vector Files/40x40/Flattened/Actions/Video Pause (Filled)</title>
    <desc>Created with Sketch.</desc>
    <g id="40x40/Flattened/Actions/Video-Pause-(Filled)" stroke="none" stroke-width="1" fill="none" fill-rule="evenodd">
        <path d="M20,7 C27.1786847,7 33,12.8213153 33,20 C33,27.1794858 27.1790837,33 20,33 C12.8201153,33 7,27.1798847 7,20 C7,12.8209163 12.8205142,7 20,7 Z M18,15.5 C17.4477153,15.5 17,15.9477153 17,16.5 L17,16.5 L17,23.5 C17,24.0522847 17.4477153,24.5 18,24.5 C18.5522847,24.5 19,24.0522847 19,23.5 L19,23.5 L19,16.5 C19,15.9477153 18.5522847,15.5 18,15.5 Z M22,15.5 C21.4477153,15.5 21,15.9477153 21,16.5 L21,16.5 L21,23.5 C21,24.0522847 21.4477153,24.5 22,24.5 C22.5522847,24.5 23,24.0522847 23,23.5 L23,23.5 L23,16.5 C23,15.9477153 22.5522847,15.5 22,15.5 Z" id="Video-Pause-(Filled)" fill="#2F313A" fill-rule="nonzero"></path>
    </g>
</svg>