<?xml version="1.0" encoding="UTF-8"?>
<svg width="40px" height="40px" viewBox="0 0 40 40" version="1.1" xmlns="http://www.w3.org/2000/svg" xmlns:xlink="http://www.w3.org/1999/xlink">
    <!-- Generator: Sketch 59.1 (86144) - https://sketch.com -->
    <title>Vector Files/40x40/Flattened/Actions/Video Pause</title>
    <desc>Created with Sketch.</desc>
    <g id="40x40/Flattened/Actions/Video-Pause" stroke="none" stroke-width="1" fill="none" fill-rule="evenodd">
        <path d="M31,20 C31,13.9258847 26.0741153,9 20,9 C13.9251146,9 9,13.9254548 9,20 C9,26.0753153 13.9246847,31 20,31 C26.0745452,31 31,26.0748854 31,20 Z M33,20 C33,27.1794858 27.1790837,33 20,33 C12.8201153,33 7,27.1798847 7,20 C7,12.8209163 12.8205142,7 20,7 C27.1786847,7 33,12.8213153 33,20 Z M17,16 C17,15.4477153 17.4477153,15 18,15 C18.5522847,15 19,15.4477153 19,16 L19,24 C19,24.5522847 18.5522847,25 18,25 C17.4477153,25 17,24.5522847 17,24 L17,16 Z M21,16 C21,15.4477153 21.4477153,15 22,15 C22.5522847,15 23,15.4477153 23,16 L23,24 C23,24.5522847 22.5522847,25 22,25 C21.4477153,25 21,24.5522847 21,24 L21,16 Z" id="Video-Pause" fill="#2F313A" fill-rule="nonzero"></path>
    </g>
</svg>