<?xml version="1.0" encoding="UTF-8"?>
<svg width="24px" height="24px" viewBox="0 0 24 24" version="1.1" xmlns="http://www.w3.org/2000/svg" xmlns:xlink="http://www.w3.org/1999/xlink">
    <!-- Generator: Sketch 59.1 (86144) - https://sketch.com -->
    <title>Vector Files/24x24/Flattened/Actions/Add Note</title>
    <desc>Created with Sketch.</desc>
    <g id="24x24/Flattened/Actions/Add-Note" stroke="none" stroke-width="1" fill="none" fill-rule="evenodd">
        <path d="M19.7071068,5.70710678 C19.8946432,5.89464316 20,6.14899707 20,6.41421356 L20,21 C20,21.5522847 19.5522847,22 19,22 L5,22 C4.44771525,22 4,21.5522847 4,21 L4,3 C4,2.44771525 4.44771525,2 5,2 L15.5857864,2 C15.8510029,2 16.1053568,2.10535684 16.2928932,2.29289322 L19.7071068,5.70710678 Z M13,11 L13,9 C13,8.44771525 12.5522847,8 12,8 C11.4477153,8 11,8.44771525 11,9 L11,11 L9,11 C8.44771525,11 8,11.4477153 8,12 C8,12.5522847 8.44771525,13 9,13 L11,13 L11,15 C11,15.5522847 11.4477153,16 12,16 C12.5522847,16 13,15.5522847 13,15 L13,13 L15,13 C15.5522847,13 16,12.5522847 16,12 C16,11.4477153 15.5522847,11 15,11 L13,11 L13,11 Z" id="Add-Note" fill="#2F313A" fill-rule="nonzero"></path>
    </g>
</svg>