<?xml version="1.0" encoding="UTF-8"?>
<svg width="24px" height="24px" viewBox="0 0 24 24" version="1.1" xmlns="http://www.w3.org/2000/svg" xmlns:xlink="http://www.w3.org/1999/xlink">
    <title>Vector Files/24x24/Actions/Added Note (Filled)</title>
    <g id="Symbols" stroke="none" stroke-width="1" fill="none" fill-rule="evenodd">
        <g id="24x24/Actions/Added-Note-(Filled)" transform="translate(-0.000000, 0.000000)" fill="#2F313A">
            <path d="M19.7071068,5.70710678 C19.8946432,5.89464316 20,6.14899707 20,6.41421356 L20,21 C20,21.5522847 19.5522847,22 19,22 L5,22 C4.44771525,22 4,21.5522847 4,21 L4,3 C4,2.44771525 4.44771525,2 5,2 L15.5857864,2 C15.8510029,2 16.1053568,2.10535684 16.2928932,2.29289322 L19.7071068,5.70710678 Z M13.6533857,8.4677931 L11.2943074,12.2205244 L10.3071598,10.8708018 C9.98112786,10.4250198 9.35544902,10.3279431 8.90966698,10.6539751 C8.46388494,10.980007 8.36680829,11.6056858 8.69284021,12.0514679 L10.5496918,14.590333 C10.9667299,15.1605474 11.8274908,15.1302937 12.2034659,14.5322069 L15.3466143,9.5322069 C15.6405441,9.06463471 15.4997791,8.44731542 15.0322069,8.15338567 C14.5646347,7.85945592 13.9473154,8.00022092 13.6533857,8.4677931 Z" id="Added-Note-(Filled)"></path>
        </g>
    </g>
</svg>