<?xml version="1.0" encoding="UTF-8"?>
<svg width="24px" height="24px" viewBox="0 0 24 24" version="1.1" xmlns="http://www.w3.org/2000/svg" xmlns:xlink="http://www.w3.org/1999/xlink">
    <title>Vector Files/24x24/Actions/Add Note</title>
    <g id="Symbols" stroke="none" stroke-width="1" fill="none" fill-rule="evenodd">
        <g id="24x24/Actions/Add-Note" transform="translate(-0.000000, 0.000000)" fill="#2F313A">
            <path d="M15.5857864,2 C15.8510029,2 16.1053568,2.10535684 16.2928932,2.29289322 L19.7071068,5.70710678 C19.8946432,5.89464316 20,6.14899707 20,6.41421356 L20,21 C20,21.5522847 19.5522847,22 19,22 L5,22 C4.44771525,22 4,21.5522847 4,21 L4,3 C4,2.44771525 4.44771525,2 5,2 L15.5857864,2 Z M15.171,4 L6,4 L6,20 L18,20 L18,6.829 L15.171,4 Z M12,8 C12.5128358,8 12.9355072,8.38604019 12.9932723,8.88337887 L13,9 L13,11 L15,11 C15.5522847,11 16,11.4477153 16,12 C16,12.5128358 15.6139598,12.9355072 15.1166211,12.9932723 L15,13 L13,13 L13,15 C13,15.5522847 12.5522847,16 12,16 C11.4871642,16 11.0644928,15.6139598 11.0067277,15.1166211 L11,15 L11,13 L9,13 C8.44771525,13 8,12.5522847 8,12 C8,11.4871642 8.38604019,11.0644928 8.88337887,11.0067277 L9,11 L11,11 L11,9 C11,8.44771525 11.4477153,8 12,8 Z" id="Add-Note"></path>
        </g>
    </g>
</svg>