<?xml version="1.0" encoding="UTF-8"?>
<svg width="24px" height="24px" viewBox="0 0 24 24" version="1.1" xmlns="http://www.w3.org/2000/svg" xmlns:xlink="http://www.w3.org/1999/xlink">
    <title>Vector Files/24x24/Actions/Alert (Filled)</title>
    <g id="Symbols" stroke="none" stroke-width="1" fill="none" fill-rule="evenodd">
        <g id="24x24/Actions/Alert-(Filled)" fill="#2F313A">
            <path d="M12,2 C17.5220847,2 22,6.47791525 22,12 C22,17.5226894 17.5223801,22 12,22 C6.47701525,22 2,17.5229847 2,12 C2,6.47761987 6.4773106,2 12,2 Z M11.9999998,15.0142279 C12.7895672,15.0142279 13.3871399,15.5644984 13.4547105,16.3012175 L13.4610865,16.4743471 C13.4610865,17.2803638 12.8389151,17.9015676 11.9999998,17.9015676 C11.2104323,17.9015676 10.6128596,17.3512971 10.545289,16.614578 L10.538913,16.4414484 C10.538913,15.6354317 11.1610844,15.0142279 11.9999998,15.0142279 Z M12.8234334,6 C13.2753059,6 13.5443007,6.36865831 13.4939851,6.85536469 L12.7721502,13.1670659 C12.7218347,13.6208737 12.4199412,13.9063178 12,13.9063178 C11.5800583,13.9063178 11.2781648,13.6208737 11.2278493,13.1670659 L10.5060144,6.85536469 C10.4556988,6.36865831 10.7246936,6 11.1775337,6 L12.8234334,6 Z" id="Alert-(Filled)"></path>
        </g>
    </g>
</svg>