<?xml version="1.0" encoding="UTF-8"?>
<svg width="24px" height="24px" viewBox="0 0 24 24" version="1.1" xmlns="http://www.w3.org/2000/svg" xmlns:xlink="http://www.w3.org/1999/xlink">
    <!-- Generator: Sketch 59.1 (86144) - https://sketch.com -->
    <title>Vector Files/24x24/Flattened/Actions/Arrow Right (Filled)</title>
    <desc>Created with Sketch.</desc>
    <g id="24x24/Flattened/Actions/Arrow-Right-(Filled)" stroke="none" stroke-width="1" fill="none" fill-rule="evenodd">
        <path d="M22,12 C22,17.523 17.522,22 12,22 C6.477,22 2,17.523 2,12 C2,6.478 6.477,2 12,2 C17.522,2 22,6.478 22,12 Z M14.0857864,11 L8,11 C7.44771525,11 7,11.4477153 7,12 C7,12.5522847 7.44771525,13 8,13 L14.0857864,13 L11.7928932,15.2928932 C11.4023689,15.6834175 11.4023689,16.3165825 11.7928932,16.7071068 C12.1834175,17.0976311 12.8165825,17.0976311 13.2071068,16.7071068 L17.2071068,12.7071068 C17.5976311,12.3165825 17.5976311,11.6834175 17.2071068,11.2928932 L13.2071068,7.29289322 C12.8165825,6.90236893 12.1834175,6.90236893 11.7928932,7.29289322 C11.4023689,7.68341751 11.4023689,8.31658249 11.7928932,8.70710678 L14.0857864,11 Z" id="Arrow-Right-(Filled)" fill="#2F313A" fill-rule="nonzero"></path>
    </g>
</svg>