<?xml version="1.0" encoding="UTF-8"?>
<svg width="24px" height="24px" viewBox="0 0 24 24" version="1.1" xmlns="http://www.w3.org/2000/svg" xmlns:xlink="http://www.w3.org/1999/xlink">
    <!-- Generator: Sketch 59.1 (86144) - https://sketch.com -->
    <title>Vector Files/24x24/Flattened/Actions/Arrow Down (Filled)</title>
    <desc>Created with Sketch.</desc>
    <g id="24x24/Flattened/Actions/Arrow-Down-(Filled)" stroke="none" stroke-width="1" fill="none" fill-rule="evenodd">
        <path d="M22,12 C22,17.523 17.522,22 12,22 C6.477,22 2,17.523 2,12 C2,6.478 6.477,2 12,2 C17.522,2 22,6.478 22,12 Z M13,14.0857864 L13,8 C13,7.44771525 12.5522847,7 12,7 C11.4477153,7 11,7.44771525 11,8 L11,14.0857864 L8.70710678,11.7928932 C8.31658249,11.4023689 7.68341751,11.4023689 7.29289322,11.7928932 C6.90236893,12.1834175 6.90236893,12.8165825 7.29289322,13.2071068 L11.2928932,17.2071068 C11.6834175,17.5976311 12.3165825,17.5976311 12.7071068,17.2071068 L16.7071068,13.2071068 C17.0976311,12.8165825 17.0976311,12.1834175 16.7071068,11.7928932 C16.3165825,11.4023689 15.6834175,11.4023689 15.2928932,11.7928932 L13,14.0857864 Z" id="Arrow-Down-(Filled)" fill="#2F313A" fill-rule="nonzero"></path>
    </g>
</svg>