<?xml version="1.0" encoding="UTF-8"?>
<svg width="24px" height="24px" viewBox="0 0 24 24" version="1.1" xmlns="http://www.w3.org/2000/svg" xmlns:xlink="http://www.w3.org/1999/xlink">
    <!-- Generator: Sketch 59.1 (86144) - https://sketch.com -->
    <title>Vector Files/24x24/Flattened/Actions/Arrow Left (Filled)</title>
    <desc>Created with Sketch.</desc>
    <g id="24x24/Flattened/Actions/Arrow-Left-(Filled)" stroke="none" stroke-width="1" fill="none" fill-rule="evenodd">
        <path d="M22,12 C22,17.523 17.522,22 12,22 C6.477,22 2,17.523 2,12 C2,6.478 6.477,2 12,2 C17.522,2 22,6.478 22,12 Z M9.91421356,13 L16,13 C16.5522847,13 17,12.5522847 17,12 C17,11.4477153 16.5522847,11 16,11 L9.91421356,11 L12.2071068,8.70710678 C12.5976311,8.31658249 12.5976311,7.68341751 12.2071068,7.29289322 C11.8165825,6.90236893 11.1834175,6.90236893 10.7928932,7.29289322 L6.79289322,11.2928932 C6.40236893,11.6834175 6.40236893,12.3165825 6.79289322,12.7071068 L10.7928932,16.7071068 C11.1834175,17.0976311 11.8165825,17.0976311 12.2071068,16.7071068 C12.5976311,16.3165825 12.5976311,15.6834175 12.2071068,15.2928932 L9.91421356,13 Z" id="Arrow-Left-(Filled)" fill="#2F313A" fill-rule="nonzero"></path>
    </g>
</svg>