<?xml version="1.0" encoding="UTF-8"?>
<svg width="24px" height="24px" viewBox="0 0 24 24" version="1.1" xmlns="http://www.w3.org/2000/svg" xmlns:xlink="http://www.w3.org/1999/xlink">
    <title>Vector Files/24x24/Actions/Arrow Left</title>
    <g id="Symbols" stroke="none" stroke-width="1" fill="none" fill-rule="evenodd">
        <g id="24x24/Actions/Arrow-Left" transform="translate(-0.000000, 0.000000)" fill="#2F313A">
            <path d="M9.91421356,13 L12.2071068,15.2928932 C12.5976311,15.6834175 12.5976311,16.3165825 12.2071068,16.7071068 C11.8165825,17.0976311 11.1834175,17.0976311 10.7928932,16.7071068 L6.79289322,12.7071068 C6.40236893,12.3165825 6.40236893,11.6834175 6.79289322,11.2928932 L10.7928932,7.29289322 C11.1834175,6.90236893 11.8165825,6.90236893 12.2071068,7.29289322 C12.5976311,7.68341751 12.5976311,8.31658249 12.2071068,8.70710678 L9.91421356,11 L16,11 C16.5522847,11 17,11.4477153 17,12 C17,12.5522847 16.5522847,13 16,13 L9.91421356,13 Z" id="Arrow-Left"></path>
        </g>
    </g>
</svg>