<?xml version="1.0" encoding="UTF-8"?>
<svg width="24px" height="24px" viewBox="0 0 24 24" version="1.1" xmlns="http://www.w3.org/2000/svg" xmlns:xlink="http://www.w3.org/1999/xlink">
    <!-- Generator: Sketch 59.1 (86144) - https://sketch.com -->
    <title>Vector Files/24x24/Flattened/Actions/Arrow Up (Filled)</title>
    <desc>Created with Sketch.</desc>
    <g id="24x24/Flattened/Actions/Arrow-Up-(Filled)" stroke="none" stroke-width="1" fill="none" fill-rule="evenodd">
        <path d="M22,12 C22,17.523 17.522,22 12,22 C6.477,22 2,17.523 2,12 C2,6.478 6.477,2 12,2 C17.522,2 22,6.478 22,12 Z M11,9.91421356 L11,16 C11,16.5522847 11.4477153,17 12,17 C12.5522847,17 13,16.5522847 13,16 L13,9.91421356 L15.2928932,12.2071068 C15.6834175,12.5976311 16.3165825,12.5976311 16.7071068,12.2071068 C17.0976311,11.8165825 17.0976311,11.1834175 16.7071068,10.7928932 L12.7071068,6.79289322 C12.3165825,6.40236893 11.6834175,6.40236893 11.2928932,6.79289322 L7.29289322,10.7928932 C6.90236893,11.1834175 6.90236893,11.8165825 7.29289322,12.2071068 C7.68341751,12.5976311 8.31658249,12.5976311 8.70710678,12.2071068 L11,9.91421356 Z" id="Arrow-Up-(Filled)" fill="#2F313A" fill-rule="nonzero"></path>
    </g>
</svg>