<?xml version="1.0" encoding="UTF-8"?>
<svg width="24px" height="24px" viewBox="0 0 24 24" version="1.1" xmlns="http://www.w3.org/2000/svg" xmlns:xlink="http://www.w3.org/1999/xlink">
    <title>Vector Files/24x24/Actions/Arrow Right</title>
    <g id="Symbols" stroke="none" stroke-width="1" fill="none" fill-rule="evenodd">
        <g id="24x24/Actions/Arrow-Right" transform="translate(-0.000000, 0.000000)" fill="#2F313A">
            <path d="M14.0857864,11 L11.7928932,8.70710678 C11.4023689,8.31658249 11.4023689,7.68341751 11.7928932,7.29289322 C12.1834175,6.90236893 12.8165825,6.90236893 13.2071068,7.29289322 L17.2071068,11.2928932 C17.5976311,11.6834175 17.5976311,12.3165825 17.2071068,12.7071068 L13.2071068,16.7071068 C12.8165825,17.0976311 12.1834175,17.0976311 11.7928932,16.7071068 C11.4023689,16.3165825 11.4023689,15.6834175 11.7928932,15.2928932 L14.0857864,13 L8,13 C7.44771525,13 7,12.5522847 7,12 C7,11.4477153 7.44771525,11 8,11 L14.0857864,11 Z" id="Arrow-Right"></path>
        </g>
    </g>
</svg>