<?xml version="1.0" encoding="UTF-8"?>
<svg width="24px" height="24px" viewBox="0 0 24 24" version="1.1" xmlns="http://www.w3.org/2000/svg" xmlns:xlink="http://www.w3.org/1999/xlink">
    <title>Vector Files/24x24/Actions/Arrow Down</title>
    <g id="Symbols" stroke="none" stroke-width="1" fill="none" fill-rule="evenodd">
        <g id="24x24/Actions/Arrow-Down" transform="translate(-0.000000, 0.000000)" fill="#2F313A">
            <path d="M13,14.0857864 L15.2928932,11.7928932 C15.6834175,11.4023689 16.3165825,11.4023689 16.7071068,11.7928932 C17.0976311,12.1834175 17.0976311,12.8165825 16.7071068,13.2071068 L12.7071068,17.2071068 C12.3165825,17.5976311 11.6834175,17.5976311 11.2928932,17.2071068 L7.29289322,13.2071068 C6.90236893,12.8165825 6.90236893,12.1834175 7.29289322,11.7928932 C7.68341751,11.4023689 8.31658249,11.4023689 8.70710678,11.7928932 L11,14.0857864 L11,8 C11,7.44771525 11.4477153,7 12,7 C12.5522847,7 13,7.44771525 13,8 L13,14.0857864 Z" id="Arrow-Down"></path>
        </g>
    </g>
</svg>