<?xml version="1.0" encoding="UTF-8"?>
<svg width="24px" height="24px" viewBox="0 0 24 24" version="1.1" xmlns="http://www.w3.org/2000/svg" xmlns:xlink="http://www.w3.org/1999/xlink">
    <title>Vector Files/24x24/Actions/Arrow Up</title>
    <g id="Symbols" stroke="none" stroke-width="1" fill="none" fill-rule="evenodd">
        <g id="24x24/Actions/Arrow-Up" transform="translate(-0.000000, 0.000000)" fill="#2F313A">
            <path d="M11,10.4142136 L8.70710678,12.7071068 C8.31658249,13.0976311 7.68341751,13.0976311 7.29289322,12.7071068 C6.90236893,12.3165825 6.90236893,11.6834175 7.29289322,11.2928932 L11.2928932,7.29289322 C11.6834175,6.90236893 12.3165825,6.90236893 12.7071068,7.29289322 L16.7071068,11.2928932 C17.0976311,11.6834175 17.0976311,12.3165825 16.7071068,12.7071068 C16.3165825,13.0976311 15.6834175,13.0976311 15.2928932,12.7071068 L13,10.4142136 L13,16.5 C13,17.0522847 12.5522847,17.5 12,17.5 C11.4477153,17.5 11,17.0522847 11,16.5 L11,10.4142136 Z" id="Arrow-Up"></path>
        </g>
    </g>
</svg>