<?xml version="1.0" encoding="UTF-8"?>
<svg width="24px" height="24px" viewBox="0 0 24 24" version="1.1" xmlns="http://www.w3.org/2000/svg" xmlns:xlink="http://www.w3.org/1999/xlink">
    <!-- Generator: Sketch 59.1 (86144) - https://sketch.com -->
    <title>Vector Files/24x24/Flattened/Actions/Attach</title>
    <desc>Created with Sketch.</desc>
    <g id="24x24/Flattened/Actions/Attach" stroke="none" stroke-width="1" fill="none" fill-rule="evenodd">
        <path d="M13.003697,13.0045166 L13.003697,8.47983054 C13.003697,7.92754579 13.4514122,7.47983054 14.003697,7.47983054 C14.5559817,7.47983054 15.003697,7.92754579 15.003697,8.47983054 L15.003697,14.0045166 C15.003697,14.5568014 14.5559817,15.0045166 14.003697,15.0045166 L12.490635,15.0044727 L10.9930764,14.9904474 C10.4444695,14.9853095 10.0024414,14.5391222 10.0024414,13.9904913 L10.0024414,5 C10.0024414,4.44771525 10.4501567,4 11.0024414,4 L17,4 C17.5522847,4 18,4.44771525 18,5 L18,17 C18,17.3682965 17.7975591,17.7067827 17.4730834,17.8810177 L12.9730834,20.2973995 C12.6776441,20.4560426 12.3223559,20.4560426 12.0269166,20.2973995 L7.52691664,17.8810177 C7.20244095,17.7067827 7,17.3682965 7,17 L7,5.1935095 C7,4.64122475 7.44771525,4.1935095 8,4.1935095 C8.55228475,4.1935095 9,4.64122475 9,5.1935095 L9,16.4019227 L12.5,18.2813308 L16,16.4019227 L16,6 L12.0024414,6 L12.0024414,12.9998421 L12.5,13.0045166 L13.003697,13.0045166 Z" id="Attach" fill="#2F313A" fill-rule="nonzero"></path>
    </g>
</svg>