<?xml version="1.0" encoding="UTF-8"?>
<svg width="24px" height="24px" viewBox="0 0 24 24" version="1.1" xmlns="http://www.w3.org/2000/svg" xmlns:xlink="http://www.w3.org/1999/xlink">
    <title>Vector Files/24x24/Actions/Block (Filled)</title>
    <g id="Symbols" stroke="none" stroke-width="1" fill="none" fill-rule="evenodd">
        <g id="24x24/Actions/Block-(Filled)" fill="#2F313A">
            <path d="M22,12 C22,17.5244168 17.5227387,22 12,22 C6.47726129,22 2,17.5244168 2,12 C2,6.47726129 6.47726129,2 12,2 C17.5227387,2 22,6.47726129 22,12 Z M16.1042827,9.14343042 C16.668898,9.95317581 17,10.9378864 17,12 C17,14.7612737 14.7612737,17 12,17 C10.9779127,17 10.0274205,16.6932687 9.23555907,16.1668421 L16.1042827,9.14343042 L16.1042827,9.14343042 Z M14.6565837,7.76327902 L7.82365368,14.750091 C7.30304122,13.9611077 7,13.0159207 7,12 C7,9.23834817 9.23850311,7 12,7 C12.9761303,7 13.8869141,7.27967532 14.6565837,7.76327902 L14.6565837,7.76327902 Z M19,12 C19,8.13374767 15.8660354,5 12,5 C8.1339646,5 5,8.13374767 5,12 C5,15.8658432 8.13415678,19 12,19 C15.8658432,19 19,15.8658432 19,12 Z" id="Block-(Filled)"></path>
        </g>
    </g>
</svg>