<?xml version="1.0" encoding="UTF-8"?>
<svg width="24px" height="24px" viewBox="0 0 24 24" version="1.1" xmlns="http://www.w3.org/2000/svg" xmlns:xlink="http://www.w3.org/1999/xlink">
    <title>Vector Files/24x24/Actions/Camera</title>
    <g id="Symbols" stroke="none" stroke-width="1" fill="none" fill-rule="evenodd">
        <g id="24x24/Actions/Camera" fill="#2F313A">
            <path d="M15,3 C15.5128358,3 15.9355072,3.38604019 15.9932723,3.88337887 L16,4 L16,5 L19,5 C20.6568542,5 22,6.34314575 22,8 L22,18 C22,19.6568542 20.6568542,21 19,21 L5,21 C3.34314575,21 2,19.6568542 2,18 L2,8 C2,6.34314575 3.34314575,5 5,5 L14,5 L14,4 C14,3.44771525 14.4477153,3 15,3 Z M19,7 L5,7 C4.48716416,7 4.06449284,7.38604019 4.00672773,7.88337887 L4,8 L4,18 C4,18.5128358 4.38604019,18.9355072 4.88337887,18.9932723 L5,19 L19,19 C19.5128358,19 19.9355072,18.6139598 19.9932723,18.1166211 L20,18 L20,8 C20,7.48716416 19.6139598,7.06449284 19.1166211,7.00672773 L19,7 Z M14.5,8.5 C16.9852814,8.5 19,10.5147186 19,13 C19,15.4852814 16.9852814,17.5 14.5,17.5 C12.0147186,17.5 10,15.4852814 10,13 C10,10.5147186 12.0147186,8.5 14.5,8.5 Z M14.5,10.5 C13.1192881,10.5 12,11.6192881 12,13 C12,14.3807119 13.1192881,15.5 14.5,15.5 C15.8807119,15.5 17,14.3807119 17,13 C17,11.6192881 15.8807119,10.5 14.5,10.5 Z M8.00214433,8 C8.55442908,8 9.00214433,8.44771525 9.00214433,9 C9.00214433,9.51283584 8.61610414,9.93550716 8.11876545,9.99327227 L8.00214433,10 L6,10 C5.44771525,10 5,9.55228475 5,9 C5,8.48716416 5.38604019,8.06449284 5.88337887,8.00672773 L6,8 L8.00214433,8 Z" id="Camera"></path>
        </g>
    </g>
</svg>