<?xml version="1.0" encoding="UTF-8"?>
<svg width="24px" height="24px" viewBox="0 0 24 24" version="1.1" xmlns="http://www.w3.org/2000/svg" xmlns:xlink="http://www.w3.org/1999/xlink">
    <!-- Generator: Sketch 59.1 (86144) - https://sketch.com -->
    <title>Vector Files/24x24/Flattened/Actions/Camera</title>
    <desc>Created with Sketch.</desc>
    <g id="24x24/Flattened/Actions/Camera" stroke="none" stroke-width="1" fill="none" fill-rule="evenodd">
        <path d="M14,5 L14,4 C14,3.44771525 14.4477153,3 15,3 C15.5522847,3 16,3.44771525 16,4 L16,5 L19,5 C20.6568542,5 22,6.34314575 22,8 L22,18 C22,19.6568542 20.6568542,21 19,21 L5,21 C3.34314575,21 2,19.6568542 2,18 L2,8 C2,6.34314575 3.34314575,5 5,5 L14,5 Z M18,13 C18,14.6567153 16.6567153,16 15,16 C13.3432847,16 12,14.6567153 12,13 C12,11.3432847 13.3432847,10 15,10 C16.6567153,10 18,11.3432847 18,13 Z M20,13 C20,10.2387153 17.7612847,8 15,8 C12.2387153,8 10,10.2387153 10,13 C10,15.7612847 12.2387153,18 15,18 C17.7612847,18 20,15.7612847 20,13 Z M5,9 L8,9 C8.55228475,9 9,8.55228475 9,8 C9,7.44771525 8.55228475,7 8,7 L5,7 C4.44771525,7 4,7.44771525 4,8 C4,8.55228475 4.44771525,9 5,9 Z" id="Camera" fill="#2F313A" fill-rule="nonzero"></path>
    </g>
</svg>