<?xml version="1.0" encoding="UTF-8"?>
<svg width="24px" height="24px" viewBox="0 0 24 24" version="1.1" xmlns="http://www.w3.org/2000/svg" xmlns:xlink="http://www.w3.org/1999/xlink">
    <title>Vector Files/24x24/Actions/Caution</title>
    <g id="Symbols" stroke="none" stroke-width="1" fill="none" fill-rule="evenodd">
        <g id="24x24/Actions/Caution" fill="#2F313A">
            <path d="M8.9180788,4.78863287 C9.78879515,3.08667522 11.8743595,2.412821 13.5763172,3.28353735 C14.1517163,3.57790982 14.6317305,4.02669879 14.9638872,4.57743183 L15.0814127,4.78863287 L20.797617,15.9618901 C21.6683334,17.6638478 20.9944792,19.7494121 19.2925215,20.6201285 C18.8742095,20.8341356 18.4174578,20.9603627 17.9502789,20.99206 L17.7159501,21 L6.28354136,21 C4.37178645,21 2.8220029,19.4502164 2.8220029,17.5384615 C2.8220029,17.0685849 2.91765746,16.6044669 3.1022171,16.1741198 L3.20187442,15.9618901 L8.9180788,4.78863287 Z M12.5370527,5.00590448 C11.8882374,4.74855162 11.1442315,4.98894293 10.7686616,5.57727876 L10.6985975,5.6995408 L4.9823931,16.8727981 C4.87697475,17.0788555 4.8220029,17.3070038 4.8220029,17.5384615 C4.8220029,18.2981654 5.40163744,18.9224885 6.14278545,18.9933095 L6.28354136,19 L17.7159501,19 C17.9474079,19 18.1755562,18.9450281 18.3816136,18.8396098 C19.0579471,18.4935996 19.3497596,17.6932242 19.0752499,17.0011545 L19.0170984,16.8727981 L13.300894,5.6995408 C13.1843716,5.47177862 13.0105461,5.27941323 12.7976729,5.1406998 L12.6654092,5.06405602 L12.5370527,5.00590448 Z M12,15.501965 C12.5331599,15.501965 12.9384106,15.8729846 12.9935834,16.3730024 L13,16.5133591 C13,17.0716701 12.5741722,17.501965 12,17.501965 C11.4668401,17.501965 11.0615894,17.1309454 11.0064166,16.6309276 L11,16.4905709 C11,15.9322599 11.4258278,15.501965 12,15.501965 Z M12.6756377,8.5 C13.0464049,8.5 13.2671185,8.80248887 13.225834,9.2018377 L12.6335594,13.8773791 C12.5922748,14.2497342 12.3445674,14.501965 12,14.501965 C11.6554326,14.501965 11.4077252,14.2497342 11.3664406,13.8773791 L10.7741656,9.2018377 C10.7328811,8.80248887 10.9535947,8.5 11.3251559,8.5 L12.6756377,8.5 Z" id="Caution"></path>
        </g>
    </g>
</svg>