<?xml version="1.0" encoding="UTF-8"?>
<svg width="24px" height="24px" viewBox="0 0 24 24" version="1.1" xmlns="http://www.w3.org/2000/svg" xmlns:xlink="http://www.w3.org/1999/xlink">
    <title>Vector Files/24x24/Actions/Chevron Down (Filled)</title>
    <g id="Symbols" stroke="none" stroke-width="1" fill="none" fill-rule="evenodd">
        <g id="24x24/Actions/Chevron-Down-(Filled)" transform="translate(-0.000000, 0.000000)" fill="#2F313A">
            <path d="M22,12 C22,17.523 17.522,22 12,22 C6.477,22 2,17.523 2,12 C2,6.478 6.477,2 12,2 C17.522,2 22,6.478 22,12 Z M12,13.0857864 L8.70710678,9.79289322 C8.31658249,9.40236893 7.68341751,9.40236893 7.29289322,9.79289322 C6.90236893,10.1834175 6.90236893,10.8165825 7.29289322,11.2071068 L11.2928932,15.2071068 C11.6834175,15.5976311 12.3165825,15.5976311 12.7071068,15.2071068 L16.7071068,11.2071068 C17.0976311,10.8165825 17.0976311,10.1834175 16.7071068,9.79289322 C16.3165825,9.40236893 15.6834175,9.40236893 15.2928932,9.79289322 L12,13.0857864 Z" id="Chevron-Down-(Filled)"></path>
        </g>
    </g>
</svg>