<?xml version="1.0" encoding="UTF-8"?>
<svg width="24px" height="24px" viewBox="0 0 24 24" version="1.1" xmlns="http://www.w3.org/2000/svg" xmlns:xlink="http://www.w3.org/1999/xlink">
    <!-- Generator: Sketch 59.1 (86144) - https://sketch.com -->
    <title>Vector Files/24x24/Flattened/Actions/Chevron Up (Filled)</title>
    <desc>Created with Sketch.</desc>
    <g id="24x24/Flattened/Actions/Chevron-Up-(Filled)" stroke="none" stroke-width="1" fill="none" fill-rule="evenodd">
        <path d="M22,12 C22,17.523 17.522,22 12,22 C6.477,22 2,17.523 2,12 C2,6.478 6.477,2 12,2 C17.522,2 22,6.478 22,12 Z M12,10.9142136 L15.2928932,14.2071068 C15.6834175,14.5976311 16.3165825,14.5976311 16.7071068,14.2071068 C17.0976311,13.8165825 17.0976311,13.1834175 16.7071068,12.7928932 L12.7071068,8.79289322 C12.3165825,8.40236893 11.6834175,8.40236893 11.2928932,8.79289322 L7.29289322,12.7928932 C6.90236893,13.1834175 6.90236893,13.8165825 7.29289322,14.2071068 C7.68341751,14.5976311 8.31658249,14.5976311 8.70710678,14.2071068 L12,10.9142136 Z" id="Shape-Up-(Filled)" fill="#2F313A" fill-rule="nonzero"></path>
    </g>
</svg>