<?xml version="1.0" encoding="UTF-8"?>
<svg width="24px" height="24px" viewBox="0 0 24 24" version="1.1" xmlns="http://www.w3.org/2000/svg" xmlns:xlink="http://www.w3.org/1999/xlink">
    <title>Vector Files/24x24/Actions/Chevron Left (Filled)</title>
    <g id="Symbols" stroke="none" stroke-width="1" fill="none" fill-rule="evenodd">
        <g id="24x24/Actions/Chevron-Left-(Filled)" fill="#2F313A">
            <path d="M22,12 C22,17.523 17.522,22 12,22 C6.477,22 2,17.523 2,12 C2,6.478 6.477,2 12,2 C17.522,2 22,6.478 22,12 Z M10.4142136,12 L13.7071068,8.70710678 C14.0976311,8.31658249 14.0976311,7.68341751 13.7071068,7.29289322 C13.3165825,6.90236893 12.6834175,6.90236893 12.2928932,7.29289322 L8.29289322,11.2928932 C7.90236893,11.6834175 7.90236893,12.3165825 8.29289322,12.7071068 L12.2928932,16.7071068 C12.6834175,17.0976311 13.3165825,17.0976311 13.7071068,16.7071068 C14.0976311,16.3165825 14.0976311,15.6834175 13.7071068,15.2928932 L10.4142136,12 Z" id="Chevron-Left-(Filled)"></path>
        </g>
    </g>
</svg>