<?xml version="1.0" encoding="UTF-8"?>
<svg width="24px" height="24px" viewBox="0 0 24 24" version="1.1" xmlns="http://www.w3.org/2000/svg" xmlns:xlink="http://www.w3.org/1999/xlink">
    <title>Vector Files/24x24/Actions/Check (Filled)</title>
    <g id="Symbols" stroke="none" stroke-width="1" fill="none" fill-rule="evenodd">
        <g id="24x24/Actions/Check-(Filled)" fill="#2F313A">
            <path d="M22,12 C22,17.523 17.522,22 12,22 C6.477,22 2,17.523 2,12 C2,6.478 6.477,2 12,2 C17.522,2 22,6.478 22,12 Z M10.6031641,13.9844128 L9.22383198,12.5373997 C8.8427686,12.1376384 8.20978508,12.1224807 7.81002372,12.503544 C7.41026236,12.8846074 7.39510464,13.5175909 7.77616802,13.9173523 L9.94249488,16.1899763 C10.3594066,16.627345 11.065985,16.597898 11.4450592,16.1273563 L16.2787324,10.1273563 C16.6252117,9.69727428 16.5574383,9.06774695 16.1273563,8.72126764 C15.6972743,8.37478833 15.0677469,8.44256171 14.7212676,8.87264372 L10.6031641,13.9844128 Z" id="Check-(Filled)"></path>
        </g>
    </g>
</svg>