<?xml version="1.0" encoding="UTF-8"?>
<svg width="24px" height="24px" viewBox="0 0 24 24" version="1.1" xmlns="http://www.w3.org/2000/svg" xmlns:xlink="http://www.w3.org/1999/xlink">
    <!-- Generator: Sketch 59.1 (86144) - https://sketch.com -->
    <title>Vector Files/24x24/Flattened/Actions/Chevron Right (Filled)</title>
    <desc>Created with Sketch.</desc>
    <g id="24x24/Flattened/Actions/Chevron-Right-(Filled)" stroke="none" stroke-width="1" fill="none" fill-rule="evenodd">
        <path d="M22,12 C22,17.523 17.522,22 12,22 C6.477,22 2,17.523 2,12 C2,6.478 6.477,2 12,2 C17.522,2 22,6.478 22,12 Z M13.5857864,12 L10.2928932,15.2928932 C9.90236893,15.6834175 9.90236893,16.3165825 10.2928932,16.7071068 C10.6834175,17.0976311 11.3165825,17.0976311 11.7071068,16.7071068 L15.7071068,12.7071068 C16.0976311,12.3165825 16.0976311,11.6834175 15.7071068,11.2928932 L11.7071068,7.29289322 C11.3165825,6.90236893 10.6834175,6.90236893 10.2928932,7.29289322 C9.90236893,7.68341751 9.90236893,8.31658249 10.2928932,8.70710678 L13.5857864,12 Z" id="Chevron-Right-(Filled)" fill="#2F313A" fill-rule="nonzero"></path>
    </g>
</svg>