<?xml version="1.0" encoding="UTF-8"?>
<svg width="24px" height="24px" viewBox="0 0 24 24" version="1.1" xmlns="http://www.w3.org/2000/svg" xmlns:xlink="http://www.w3.org/1999/xlink">
    <title>Vector Files/24x24/Actions/Cross (Filled)</title>
    <g id="Symbols" stroke="none" stroke-width="1" fill="none" fill-rule="evenodd">
        <g id="24x24/Actions/Cross-(Filled)" transform="translate(-0.000000, 0.000000)" fill="#2F313A">
            <path d="M19.0710678,19.0710678 C15.1657171,22.9764186 8.83357583,22.9757115 4.92893219,19.0710678 C1.02358144,15.1657171 1.02358144,8.83428294 4.92893219,4.92893219 C8.83357583,1.02428854 15.1657171,1.02358144 19.0710678,4.92893219 C22.9757115,8.83357583 22.9757115,15.1664242 19.0710678,19.0710678 Z M13.4142136,12 L16.2426407,9.17157288 C16.633165,8.78104858 16.633165,8.1478836 16.2426407,7.75735931 C15.8521164,7.36683502 15.2189514,7.36683502 14.8284271,7.75735931 L12,10.5857864 L9.17157288,7.75735931 C8.78104858,7.36683502 8.1478836,7.36683502 7.75735931,7.75735931 C7.36683502,8.1478836 7.36683502,8.78104858 7.75735931,9.17157288 L10.5857864,12 L7.75735931,14.8284271 C7.36683502,15.2189514 7.36683502,15.8521164 7.75735931,16.2426407 C8.1478836,16.633165 8.78104858,16.633165 9.17157288,16.2426407 L12,13.4142136 L14.8284271,16.2426407 C15.2189514,16.633165 15.8521164,16.633165 16.2426407,16.2426407 C16.633165,15.8521164 16.633165,15.2189514 16.2426407,14.8284271 L13.4142136,12 Z" id="Cross-(Filled)"></path>
        </g>
    </g>
</svg>