<?xml version="1.0" encoding="UTF-8"?>
<svg width="24px" height="24px" viewBox="0 0 24 24" version="1.1" xmlns="http://www.w3.org/2000/svg" xmlns:xlink="http://www.w3.org/1999/xlink">
    <title>Vector Files/ic-download</title>
    <g id="ic-download" stroke="none" stroke-width="1" fill="none" fill-rule="evenodd">
        <path d="M17,17 C17.5522847,17 18,17.4477153 18,18 C18,18.5522847 17.5522847,19 17,19 L7,19 C6.44771525,19 6,18.5522847 6,18 C6,17.4477153 6.44771525,17 7,17 L17,17 Z M12,4 C12.5522847,4 13,4.44771525 13,5 L13,11.0857864 L15.2928932,8.79289322 C15.6834175,8.40236893 16.3165825,8.40236893 16.7071068,8.79289322 C17.0976311,9.18341751 17.0976311,9.81658249 16.7071068,10.2071068 L12.7071068,14.2071068 C12.3165825,14.5976311 11.6834175,14.5976311 11.2928932,14.2071068 L7.29289322,10.2071068 C6.90236893,9.81658249 6.90236893,9.18341751 7.29289322,8.79289322 C7.68341751,8.40236893 8.31658249,8.40236893 8.70710678,8.79289322 L11,11.0857864 L11,5 C11,4.44771525 11.4477153,4 12,4 Z" id="Download" fill="#2F313A"></path>
    </g>
</svg>