<?xml version="1.0" encoding="UTF-8"?>
<svg width="24px" height="24px" viewBox="0 0 24 24" version="1.1" xmlns="http://www.w3.org/2000/svg" xmlns:xlink="http://www.w3.org/1999/xlink">
    <title>Vector Files/24x24/Actions/Edit (Filled)</title>
    <g id="Symbols" stroke="none" stroke-width="1" fill="none" fill-rule="evenodd">
        <g id="24x24/Actions/Edit-(Filled)" fill="#2F313A">
            <path d="M12.0547897,6.46868 L17.5307897,11.94468 L10.2453468,19.2307868 C10.1520116,19.3241219 10.0414419,19.3977429 9.92024694,19.4478398 L9.79575496,19.4899543 L4.25735496,20.9659543 C3.55173992,21.1540028 2.90360277,20.5504441 3.01037565,19.8528296 L3.03360969,19.742 L4.51040969,14.2044 C4.54440868,14.076913 4.60318048,13.957845 4.68291931,13.853797 L4.76950618,13.7550003 L12.0547897,6.46868 Z M15.2311062,3.29260025 C15.5916112,2.93206766 16.1589074,2.90435064 16.551208,3.20943768 L16.6454164,3.29264285 L20.7070164,7.35504285 C21.0674398,7.71553721 21.0951381,8.28272331 20.7901301,8.67498615 L20.7069468,8.76918678 L18.9447897,10.53068 L13.4687897,5.05468 L15.2311062,3.29260025 Z" id="Edit-(Filled)"></path>
        </g>
    </g>
</svg>