<?xml version="1.0" encoding="UTF-8"?>
<svg width="24px" height="24px" viewBox="0 0 24 24" version="1.1" xmlns="http://www.w3.org/2000/svg" xmlns:xlink="http://www.w3.org/1999/xlink">
    <title>Vector Files/24x24/Actions/Edit</title>
    <g id="Symbols" stroke="none" stroke-width="1" fill="none" fill-rule="evenodd">
        <g id="24x24/Actions/Edit" fill="#2F313A">
            <path d="M15.2311062,3.29260025 C15.5916112,2.93206766 16.1589074,2.90435064 16.551208,3.20943768 L16.6454164,3.29264285 L20.7070164,7.35504285 C21.0674398,7.71553721 21.0951381,8.28272331 20.7901301,8.67498615 L20.7069468,8.76918678 L10.2453468,19.2307868 C10.1520116,19.3241219 10.0414419,19.3977429 9.92024694,19.4478398 L9.79575496,19.4899543 L4.25735496,20.9659543 C3.55173992,21.1540028 2.90360277,20.5504441 3.01037565,19.8528296 L3.03360969,19.742 L4.51040969,14.2044 C4.54440868,14.076913 4.60318048,13.957845 4.68291931,13.853797 L4.76950618,13.7550003 L15.2311062,3.29260025 Z M13.2297897,8.12068 L6.373,14.979 L5.411,18.588 L9.021,17.626 L15.8777897,10.76868 L13.2297897,8.12068 Z M15.938,5.413 L14.6437897,6.70668 L17.2917897,9.35468 L18.585,8.061 L15.938,5.413 Z" id="Edit"></path>
        </g>
    </g>
</svg>