<?xml version="1.0" encoding="UTF-8"?>
<svg width="24px" height="24px" viewBox="0 0 24 24" version="1.1" xmlns="http://www.w3.org/2000/svg" xmlns:xlink="http://www.w3.org/1999/xlink">
    <title>Vector Files/24x24/Actions/Favorite Star (Full)</title>
    <g id="Symbols" stroke="none" stroke-width="1" fill="none" fill-rule="evenodd">
        <g id="24x24/Actions/Favorite-Star-(Full)" fill="#2F313A">
            <path d="M11.1032639,2.55743429 C11.4507716,1.85330677 12.4202795,1.81624742 12.8332609,2.44625626 L12.8967361,2.55743429 L15.308,7.445 L20.703307,8.22924004 C21.4433554,8.33677537 21.7823055,9.16784153 21.4055608,9.75421006 L21.3360892,9.84950641 L21.2575203,9.93493341 L17.354,13.739 L18.2756756,19.1121079 C18.4030487,19.8547498 17.7060062,20.4371066 17.0270334,20.247077 L16.9254283,20.2127031 L16.8247261,20.1662844 L12,17.63 L7.17527386,20.1662844 C6.51000721,20.5160357 5.74293329,20.0363533 5.71023447,19.3347591 L5.71129625,19.2222255 L5.72432441,19.1121079 L6.645,13.739 L2.74247966,9.93493341 C2.20697558,9.41294595 2.42124762,8.54136942 3.07069928,8.28843232 L3.18291672,8.25217029 L3.29669304,8.22924004 L8.691,7.445 L11.1032639,2.55743429 Z" id="Favorite-Star-(Full)"></path>
        </g>
    </g>
</svg>