<?xml version="1.0" encoding="UTF-8"?>
<svg width="24px" height="24px" viewBox="0 0 24 24" version="1.1" xmlns="http://www.w3.org/2000/svg" xmlns:xlink="http://www.w3.org/1999/xlink">
    <title>Vector Files/24x24/Actions/Favorite Star</title>
    <g id="Symbols" stroke="none" stroke-width="1" fill="none" fill-rule="evenodd">
        <g id="24x24/Actions/Favorite-Star" fill="#2F313A">
            <path d="M8.691,7.445 L3.29669304,8.22924004 L3.18291672,8.25217029 C2.44736975,8.44344861 2.17722536,9.38394664 2.74247966,9.93493341 L6.645,13.739 L5.72432441,19.1121079 L5.71129625,19.2222255 C5.66190665,19.9835628 6.47499317,20.5344437 7.17527386,20.1662844 L12,17.63 L16.8247261,20.1662844 L16.9254283,20.2127031 C17.6342409,20.4949416 18.4094173,19.8918819 18.2756756,19.1121079 L17.354,13.739 L21.2575203,9.93493341 L21.3360892,9.84950641 C21.8187287,9.26241534 21.4844692,8.34274955 20.703307,8.22924004 L15.308,7.445 L12.8967361,2.55743429 C12.5299224,1.81418857 11.4700776,1.81418857 11.1032639,2.55743429 L8.691,7.445 Z M12,5.258 L13.7482976,8.80198924 L13.8091121,8.90829217 C13.9650407,9.14581816 14.2162389,9.30761814 14.5012353,9.34903054 L18.41,9.917 L15.5817426,12.6744901 L15.4994353,12.7651776 C15.3217192,12.9868741 15.2454628,13.2757767 15.294146,13.5596215 L15.962,17.453 L12.4653411,15.6148686 L12.3536579,15.5646136 C12.0878946,15.4641036 11.7895674,15.4808552 11.5346589,15.6148686 L8.037,17.453 L8.705854,13.5596215 L8.71913732,13.4378748 C8.73260267,13.1540597 8.62448269,12.8755101 8.41825737,12.6744901 L5.589,9.917 L9.49876468,9.34903054 C9.82447484,9.30170208 10.1060404,9.09713271 10.2517024,8.80198924 L12,5.258 Z" id="Favorite-Star"></path>
        </g>
    </g>
</svg>