<?xml version="1.0" encoding="UTF-8"?>
<svg width="24px" height="24px" viewBox="0 0 24 24" version="1.1" xmlns="http://www.w3.org/2000/svg" xmlns:xlink="http://www.w3.org/1999/xlink">
    <title>Vector Files/24x24/Actions/Favorite Heart</title>
    <g id="Symbols" stroke="none" stroke-width="1" fill="none" fill-rule="evenodd">
        <g id="24x24/Actions/Favorite-Heart" fill="#2F313A">
            <path d="M15.9202149,4.00803148 C14.6255171,4.08262469 13.3974127,4.67165754 12.2598366,5.55917104 L12,5.768 L11.9825353,5.75384239 C10.6973681,4.69206894 9.29172669,4 7.80133929,4 C4.25556569,4 2,6.14618239 2,9.5703125 C2,10.8376391 2.49203973,12.0526607 3.2995783,13.1900143 C3.77904407,13.8653035 4.30740027,14.4221588 4.64222313,14.7069907 L10.8739218,20.5535939 C11.1687395,20.8404463 11.5790204,21 12,21 C12.4209796,21 12.8312605,20.8404463 13.1390427,20.5412137 L19.5259506,14.5602876 L19.8093812,14.273146 C20.1013824,13.9651084 20.3892995,13.6229702 20.6598195,13.2474887 C21.4916199,12.0929505 22,10.8598282 22,9.5703125 C22,6.14618239 19.7444343,4 16.1986607,4 L15.9202149,4.00803148 Z M16.1986607,6 C18.6614894,6 20,7.27359977 20,9.5703125 C20,10.3740218 19.6454596,11.2339919 19.037106,12.0783861 C18.8224426,12.3763387 18.5914461,12.6508369 18.3578903,12.8972193 L18.1671936,13.0916539 L12,18.868 L5.97429249,13.2159373 C5.03355702,12.4141156 4,10.9584331 4,9.5703125 C4,7.27359977 5.33851063,6 7.80133929,6 C8.91550848,6 10.1780224,6.74658972 11.3074999,7.83079273 C11.6944537,8.20223576 12.3055463,8.20223576 12.6925001,7.83079273 C13.8219776,6.74658972 15.0844915,6 16.1986607,6 Z" id="Favorite-Heart"></path>
        </g>
    </g>
</svg>