<?xml version="1.0" encoding="UTF-8"?>
<svg width="24px" height="24px" viewBox="0 0 24 24" version="1.1" xmlns="http://www.w3.org/2000/svg" xmlns:xlink="http://www.w3.org/1999/xlink">
    <title>Vector Files/24x24/Actions/Favorite Heart (Half)</title>
    <g id="Symbols" stroke="none" stroke-width="1" fill="none" fill-rule="evenodd">
        <g id="24x24/Actions/Favorite-Heart-(Half)" fill="#2F313A">
            <path d="M16.1986607,4 C19.7444343,4 22,6.14618239 22,9.5703125 C22,10.8598282 21.4916199,12.0929505 20.6598195,13.2474887 C20.4569295,13.5290999 20.2442536,13.7919553 20.0274083,14.0357358 L19.8093812,14.273146 L19.5259506,14.5602876 L13.1390427,20.5412137 C12.8312605,20.8404463 12.4209796,21 12,21 C11.6316428,21 11.2714769,20.8778417 10.9896861,20.6551334 L10.8739218,20.5535939 L4.64222313,14.7069907 C4.30740027,14.4221588 3.77904407,13.8653035 3.2995783,13.1900143 C2.49203973,12.0526607 2,10.8376391 2,9.5703125 C2,6.14618239 4.25556569,4 7.80133929,4 C9.19857748,4 10.5213319,4.60826372 11.7401634,5.55917104 L12,5.768 L12.2598366,5.55917104 C13.3161573,4.73505136 14.4505355,4.1682951 15.6438077,4.03181111 L15.9202149,4.00803148 L16.1986607,4 Z M16.1986607,6 C15.0844915,6 13.8219776,6.74658972 12.6925001,7.83079273 C12.4991526,8.01639002 12.2498454,8.10925073 12.0005007,8.10937488 L12,18.868 L18.1671936,13.0916539 L18.3578903,12.8972193 C18.5914461,12.6508369 18.8224426,12.3763387 19.037106,12.0783861 C19.6454596,11.2339919 20,10.3740218 20,9.5703125 C20,7.27359977 18.6614894,6 16.1986607,6 Z" id="Favorite-Heart-(Half)"></path>
        </g>
    </g>
</svg>