<?xml version="1.0" encoding="UTF-8"?>
<svg width="24px" height="24px" viewBox="0 0 24 24" version="1.1" xmlns="http://www.w3.org/2000/svg" xmlns:xlink="http://www.w3.org/1999/xlink">
    <title>Vector Files/24x24/Actions/Filter</title>
    <g id="Symbols" stroke="none" stroke-width="1" fill="none" fill-rule="evenodd">
        <g id="24x24/Actions/Filter" fill="#2F313A">
            <path d="M14,16 C14.5522847,16 15,16.4477153 15,17 C15,17.5128358 14.6139598,17.9355072 14.1166211,17.9932723 L14,18 L10,18 C9.44771525,18 9,17.5522847 9,17 C9,16.4871642 9.38604019,16.0644928 9.88337887,16.0067277 L10,16 L14,16 Z M17,11 C17.5522847,11 18,11.4477153 18,12 C18,12.5128358 17.6139598,12.9355072 17.1166211,12.9932723 L17,13 L7,13 C6.44771525,13 6,12.5522847 6,12 C6,11.4871642 6.38604019,11.0644928 6.88337887,11.0067277 L7,11 L17,11 Z M20,6 C20.5522847,6 21,6.44771525 21,7 C21,7.51283584 20.6139598,7.93550716 20.1166211,7.99327227 L20,8 L4,8 C3.44771525,8 3,7.55228475 3,7 C3,6.48716416 3.38604019,6.06449284 3.88337887,6.00672773 L4,6 L20,6 Z" id="Filter"></path>
        </g>
    </g>
</svg>