<?xml version="1.0" encoding="UTF-8"?>
<svg width="24px" height="24px" viewBox="0 0 24 24" version="1.1" xmlns="http://www.w3.org/2000/svg" xmlns:xlink="http://www.w3.org/1999/xlink">
    <title>Vector Files/24x24/Actions/Hamburger 2</title>
    <g id="Symbols" stroke="none" stroke-width="1" fill="none" fill-rule="evenodd">
        <g id="24x24/Actions/Hamburger-2" fill="#2F313A">
            <path d="M4,16 C4.55228475,16 5,16.4477153 5,17 C5,17.5522847 4.55228475,18 4,18 C3.44771525,18 3,17.5522847 3,17 C3,16.4477153 3.44771525,16 4,16 Z M20,16 C20.5522847,16 21,16.4477153 21,17 C21,17.5128358 20.6139598,17.9355072 20.1166211,17.9932723 L20,18 L7,18 C6.44771525,18 6,17.5522847 6,17 C6,16.4871642 6.38604019,16.0644928 6.88337887,16.0067277 L7,16 L20,16 Z M4,11 C4.55228475,11 5,11.4477153 5,12 C5,12.5522847 4.55228475,13 4,13 C3.44771525,13 3,12.5522847 3,12 C3,11.4477153 3.44771525,11 4,11 Z M13,11 C13.5522847,11 14,11.4477153 14,12 C14,12.5128358 13.6139598,12.9355072 13.1166211,12.9932723 L13,13 L7,13 C6.44771525,13 6,12.5522847 6,12 C6,11.4871642 6.38604019,11.0644928 6.88337887,11.0067277 L7,11 L13,11 Z M16,6 C16.5522847,6 17,6.44771525 17,7 C17,7.51283584 16.6139598,7.93550716 16.1166211,7.99327227 L16,8 L7,8 C6.44771525,8 6,7.55228475 6,7 C6,6.48716416 6.38604019,6.06449284 6.88337887,6.00672773 L7,6 L16,6 Z M4,6 C4.55228475,6 5,6.44771525 5,7 C5,7.55228475 4.55228475,8 4,8 C3.44771525,8 3,7.55228475 3,7 C3,6.44771525 3.44771525,6 4,6 Z" id="Hamburger-2"></path>
        </g>
    </g>
</svg>