<?xml version="1.0" encoding="UTF-8"?>
<svg width="24px" height="24px" viewBox="0 0 24 24" version="1.1" xmlns="http://www.w3.org/2000/svg" xmlns:xlink="http://www.w3.org/1999/xlink">
    <title>Vector Files/24x24/Actions/Hamburger</title>
    <g id="Symbols" stroke="none" stroke-width="1" fill="none" fill-rule="evenodd">
        <g id="24x24/Actions/Hamburger" fill="#2F313A">
            <path d="M20,16 C20.5522847,16 21,16.4477153 21,17 C21,17.5128358 20.6139598,17.9355072 20.1166211,17.9932723 L20,18 L4,18 C3.44771525,18 3,17.5522847 3,17 C3,16.4871642 3.38604019,16.0644928 3.88337887,16.0067277 L4,16 L20,16 Z M20,11 C20.5522847,11 21,11.4477153 21,12 C21,12.5128358 20.6139598,12.9355072 20.1166211,12.9932723 L20,13 L4,13 C3.44771525,13 3,12.5522847 3,12 C3,11.4871642 3.38604019,11.0644928 3.88337887,11.0067277 L4,11 L20,11 Z M20,6 C20.5522847,6 21,6.44771525 21,7 C21,7.51283584 20.6139598,7.93550716 20.1166211,7.99327227 L20,8 L4,8 C3.44771525,8 3,7.55228475 3,7 C3,6.48716416 3.38604019,6.06449284 3.88337887,6.00672773 L4,6 L20,6 Z" id="Hamburger"></path>
        </g>
    </g>
</svg>