<?xml version="1.0" encoding="UTF-8"?>
<svg width="24px" height="24px" viewBox="0 0 24 24" version="1.1" xmlns="http://www.w3.org/2000/svg" xmlns:xlink="http://www.w3.org/1999/xlink">
    <title>Vector Files/24x24/Actions/Help</title>
    <g id="Symbols" stroke="none" stroke-width="1" fill="none" fill-rule="evenodd">
        <g id="24x24/Actions/Help" fill="#2F313A">
            <path d="M12,2 C17.5228475,2 22,6.4771525 22,12 C22,17.5228475 17.5228475,22 12,22 C6.4771525,22 2,17.5228475 2,12 C2,6.4771525 6.4771525,2 12,2 Z M7.75834651,16.2436277 L6.34414518,17.6578535 C7.7917814,19.1049815 9.79136932,20 12,20 L12,18 C10.3436478,18 8.84405486,17.3288341 7.75834651,16.2436277 Z M20,12 L18,12 C18,13.6568542 17.3284271,15.1568542 16.2426407,16.2426407 L17.6568542,17.6568542 C19.1045695,16.209139 20,14.209139 20,12 Z M12,8 C9.790861,8 8,9.790861 8,12 C8,14.209139 9.790861,16 12,16 C14.209139,16 16,14.209139 16,12 C16,9.790861 14.209139,8 12,8 Z M4,12 L6,12 C6,10.3431458 6.67157288,8.84314575 7.75735931,7.75735931 L6.34314575,6.34314575 C4.8954305,7.790861 4,9.790861 4,12 Z M12,4 L12,6 C13.6573563,6 15.1577633,6.67197995 16.2436277,7.75834651 L17.6578535,6.34414518 C16.2100594,4.89584262 14.2096473,4 12,4 Z" id="Help"></path>
        </g>
    </g>
</svg>