<?xml version="1.0" encoding="UTF-8"?>
<svg width="24px" height="24px" viewBox="0 0 24 24" version="1.1" xmlns="http://www.w3.org/2000/svg" xmlns:xlink="http://www.w3.org/1999/xlink">
    <title>Vector Files/24x24/Actions/Logout</title>
    <g id="Symbols" stroke="none" stroke-width="1" fill="none" fill-rule="evenodd">
        <g id="24x24/Actions/Logout" fill="#2F313A">
            <path d="M16.0526316,2 C17.3641625,2 18.4373014,3.02067766 18.5210541,4.31103879 L18.5263158,4.47368421 L18.5263158,5.24962732 C18.5263158,5.80191207 18.0786005,6.24962732 17.5263158,6.24962732 C17.01348,6.24962732 16.5908086,5.86358713 16.5330435,5.36624844 L16.5263158,5.24962732 L16.5263158,4.47368421 C16.5263158,4.24114326 16.3587498,4.04773944 16.1377769,4.00763169 L16.0526316,4 L6.47368421,4 C6.24114326,4 6.04773944,4.16756594 6.00763169,4.38853887 L6,4.47368421 L6,19.5263158 C6,19.7588567 6.16756594,19.9522606 6.38853887,19.9923683 L6.47368421,20 L16.0526316,20 C16.2851725,20 16.4785764,19.8324341 16.5186841,19.6114611 L16.5263158,19.5263158 L16.5263158,18.8203056 C16.5263158,18.2680209 16.974031,17.8203056 17.5263158,17.8203056 C18.0391516,17.8203056 18.461823,18.2063458 18.5195881,18.7036845 L18.5263158,18.8203056 L18.5263158,19.5263158 C18.5263158,20.8378467 17.5056381,21.9109856 16.215277,21.9947383 L16.0526316,22 L6.47368421,22 C5.16215327,22 4.08901437,20.9793223 4.0052617,19.6889612 L4,19.5263158 L4,4.47368421 C4,3.16215327 5.02067766,2.08901437 6.31103879,2.0052617 L6.47368421,2 L16.0526316,2 Z M15.6128994,7.20970461 L15.7071068,7.29289322 L19.7071068,11.2928932 C20.0675907,11.6533772 20.0953203,12.2206082 19.7902954,12.6128994 L19.7071068,12.7071068 L15.7071068,16.7071068 C15.3165825,17.0976311 14.6834175,17.0976311 14.2928932,16.7071068 C13.9324093,16.3466228 13.9046797,15.7793918 14.2097046,15.3871006 L14.2928932,15.2928932 L16.585,13 L10.5,13 C9.94771525,13 9.5,12.5522847 9.5,12 C9.5,11.4871642 9.88604019,11.0644928 10.3833789,11.0067277 L10.5,11 L16.585,11 L14.2928932,8.70710678 C13.9324093,8.34662282 13.9046797,7.77939176 14.2097046,7.38710056 L14.2928932,7.29289322 C14.6533772,6.93240926 15.2206082,6.90467972 15.6128994,7.20970461 Z" id="Logout"></path>
        </g>
    </g>
</svg>