<?xml version="1.0" encoding="UTF-8"?>
<svg width="24px" height="24px" viewBox="0 0 24 24" version="1.1" xmlns="http://www.w3.org/2000/svg" xmlns:xlink="http://www.w3.org/1999/xlink">
    <title>Vector Files/24x24/Actions/Magnifier</title>
    <g id="Symbols" stroke="none" stroke-width="1" fill="none" fill-rule="evenodd">
        <g id="24x24/Actions/Magnifier" fill="#2F313A">
            <path d="M14,3 C17.8659932,3 21,6.13400675 21,10 C21,13.8659932 17.8659932,17 14,17 C12.4236234,17 10.9689496,16.478928 9.79882332,15.5996286 L9.79029539,15.6128994 L9.79029539,15.6128994 L9.70710678,15.7071068 L4.70710678,20.7071068 C4.31658249,21.0976311 3.68341751,21.0976311 3.29289322,20.7071068 C2.93240926,20.3466228 2.90467972,19.7793918 3.20970461,19.3871006 L3.29289322,19.2928932 L8.29289322,14.2928932 C8.32709756,14.2586889 8.36316325,14.2274804 8.40076424,14.1992676 C7.52107199,13.0310504 7,11.5763766 7,10 C7,6.13400675 10.1340068,3 14,3 Z M14,5 C11.2385763,5 9,7.23857625 9,10 C9,12.7614237 11.2385763,15 14,15 C16.7614237,15 19,12.7614237 19,10 C19,7.23857625 16.7614237,5 14,5 Z" id="Magnifier" transform="translate(12.000000, 12.000000) scale(-1, 1) translate(-12.000000, -12.000000) "></path>
        </g>
    </g>
</svg>