<?xml version="1.0" encoding="UTF-8"?>
<svg width="24px" height="24px" viewBox="0 0 24 24" version="1.1" xmlns="http://www.w3.org/2000/svg" xmlns:xlink="http://www.w3.org/1999/xlink">
    <title>Vector Files/24x24/Actions/Notification</title>
    <g id="Symbols" stroke="none" stroke-width="1" fill="none" fill-rule="evenodd">
        <g id="24x24/Actions/Notification" fill="#2F313A">
            <path d="M12,2.5 C12.5128358,2.5 12.9355072,2.88604019 12.9932723,3.38337887 L13,3.5 L13.001253,4.53820226 C16.9394829,4.84961008 18.8597694,7.04420264 18.9733189,10.3621385 C19.0152462,11.5872592 18.8083429,12.8711626 18.4398576,14.1426924 C18.3729852,14.3734486 18.3059232,14.5871959 18.2409898,14.7815363 L18.107,15.161 L18.314887,15.4530794 L18.7530317,16.0567073 L19.1828208,16.6231899 C19.3715898,16.8640462 19.52253,17.0438982 19.6139197,17.1370533 L19.7384548,17.2606264 C20.078293,17.6433641 20.1067265,18.2403263 19.7164508,18.6515577 C19.5558706,18.8207602 19.4026332,18.8961012 19.2119575,18.956454 C19.0586499,19.0049791 18.8760634,19.0378741 18.6365163,19.0672017 L18.31883,19.100671 C18.0276221,19.1273217 17.6708244,19.1508993 17.2528124,19.1716126 L16.3030239,19.2103282 L15.4295795,19.2351007 C14.9724773,19.2459869 14.4869463,19.2545976 13.9826225,19.2608189 C13.8548019,20.242641 13.0158463,21 12,21 C10.9838847,21 10.1447537,20.2422398 10.0168743,19.2609865 L9.18463185,19.2481237 C8.50882263,19.2355662 7.88092515,19.2184494 7.32791173,19.19705 L6.74718761,19.1716126 L6.27523608,19.1453684 C6.12789988,19.1361532 5.990638,19.1264663 5.86373049,19.1162944 L5.68116999,19.100671 L5.36348369,19.0672017 C5.12393659,19.0378741 4.94135015,19.0049791 4.78804253,18.956454 C4.59736683,18.8961012 4.44412943,18.8207602 4.2835492,18.6515577 C3.89327349,18.2403263 3.92170701,17.6433641 4.26160679,17.2605712 L4.43813314,17.0825241 L4.59768441,16.8999041 C4.6588508,16.827233 4.72755183,16.7432895 4.80244347,16.6496501 L4.91925586,16.5021163 L5.1318407,16.2271186 L5.68825957,15.4796475 L5.889,15.2 L5.7586237,14.8229956 L5.62672251,14.4074479 L5.55993061,14.181521 C5.19175465,12.9047068 4.98506034,11.6155331 5.02700519,10.3856485 C5.14060393,7.05476569 7.06024236,4.85073594 10.9996049,4.53828706 L11,3.5 C11,2.94771525 11.4477153,2.5 12,2.5 Z M12,6.5 C8.48776825,6.5 7.1127464,7.90568443 7.02584307,10.4538183 C6.99203811,11.4450294 7.16699143,12.5362312 7.48163223,13.6273884 C7.55794847,13.892049 7.63829711,14.1416639 7.71942103,14.3723791 L7.83679348,14.6921722 L7.93580659,14.9383125 C8.05845814,15.2183796 8.04541231,15.5366916 7.90566535,15.8034347 L7.83804281,15.914334 L7.30337028,16.6592345 L6.919,17.177 L7.42167038,17.1991802 L8.21848886,17.2253545 C8.91837698,17.244893 9.70234681,17.2586756 10.5283978,17.2661617 L11.5371699,17.2720879 L12.4628301,17.2720879 C13.9982226,17.267836 15.4517048,17.242482 16.5783296,17.1991802 L17.094,17.176 L16.917753,16.9355628 L16.4587056,16.2930549 L16.1559432,15.8588934 C15.9843629,15.6091155 15.9365536,15.2972166 16.0207423,15.0107922 L16.0728255,14.8716621 L16.0728255,14.8716621 L16.0820925,14.8498227 L16.2811759,14.327074 C16.3622752,14.0975742 16.4426009,13.8492709 16.5188949,13.5860036 C16.8333521,12.5009081 17.0082095,11.4158602 16.9744891,10.4305444 C16.8878164,7.89795489 15.5137601,6.5 12,6.5 Z" id="Notification"></path>
        </g>
    </g>
</svg>