<?xml version="1.0" encoding="UTF-8"?>
<svg width="24px" height="24px" viewBox="0 0 24 24" version="1.1" xmlns="http://www.w3.org/2000/svg" xmlns:xlink="http://www.w3.org/1999/xlink">
    <title>Vector Files/24x24/Actions/Notification (Filled)</title>
    <g id="Symbols" stroke="none" stroke-width="1" fill="none" fill-rule="evenodd">
        <g id="24x24/Actions/Notification-(Filled)" fill="#2F313A">
            <path d="M12,2.5 C12.5128358,2.5 12.9355072,2.88604019 12.9932723,3.38337887 L13,3.5 L13.001253,4.53820226 C16.9394829,4.84961008 18.8597694,7.04420264 18.9733189,10.3621385 C19.0152462,11.5872592 18.8083429,12.8711626 18.4398576,14.1426924 L18.3730079,14.3676902 L18.3730079,14.3676902 L18.2409898,14.7815363 L18.2409898,14.7815363 L18.107,15.161 L18.314887,15.4530794 L18.7530317,16.0567073 L19.1828208,16.6231899 L19.4348875,16.9355096 L19.4348875,16.9355096 L19.5633629,17.08337 C19.5818023,17.1035934 19.5986881,17.1215275 19.6139197,17.1370533 L19.7384548,17.2606264 C20.078293,17.6433641 20.1067265,18.2403263 19.7164508,18.6515577 C19.5558706,18.8207602 19.4026332,18.8961012 19.2119575,18.956454 C19.0586499,19.0049791 18.8760634,19.0378741 18.6365163,19.0672017 L18.31883,19.100671 L17.9381775,19.1311901 L17.9381775,19.1311901 L17.2528124,19.1716126 L17.2528124,19.1716126 L16.3030239,19.2103282 L15.4295795,19.2351007 L14.4803252,19.2538054 C14.3167503,19.2564059 14.1507304,19.2587452 13.9826225,19.2608189 C13.8548019,20.242641 13.0158463,21 12,21 C10.9838847,21 10.1447537,20.2422398 10.0168743,19.2609865 L9.18463185,19.2481237 L8.02574595,19.2206559 L8.02574595,19.2206559 L7.32791173,19.19705 L7.32791173,19.19705 L6.74718761,19.1716126 L6.27523608,19.1453684 L5.86373049,19.1162944 L5.86373049,19.1162944 L5.68116999,19.100671 L5.36348369,19.0672017 C5.12393659,19.0378741 4.94135015,19.0049791 4.78804253,18.956454 C4.59736683,18.8961012 4.44412943,18.8207602 4.2835492,18.6515577 C3.89327349,18.2403263 3.92170701,17.6433641 4.26160679,17.2605712 L4.43813314,17.0825241 L4.66131257,16.8235339 L4.66131257,16.8235339 L4.91925586,16.5021163 L5.1318407,16.2271186 L5.68825957,15.4796475 L5.889,15.2 L5.7586237,14.8229956 L5.62672251,14.4074479 L5.55993061,14.181521 C5.19175465,12.9047068 4.98506034,11.6155331 5.02700519,10.3856485 C5.14060393,7.05476569 7.06024236,4.85073594 10.9996049,4.53828706 L11,3.5 C11,2.94771525 11.4477153,2.5 12,2.5 Z" id="Notification-(Filled)"></path>
        </g>
    </g>
</svg>