<?xml version="1.0" encoding="UTF-8"?>
<svg width="24px" height="24px" viewBox="0 0 24 24" version="1.1" xmlns="http://www.w3.org/2000/svg" xmlns:xlink="http://www.w3.org/1999/xlink">
    <title>Vector Files/24x24/Actions/Order</title>
    <g id="Symbols" stroke="none" stroke-width="1" fill="none" fill-rule="evenodd">
        <g id="24x24/Actions/Order" transform="translate(-0.000000, 0.000000)" fill="#2F313A">
            <path d="M15.5857864,2 C15.8510029,2 16.1053568,2.10535684 16.2928932,2.29289322 L19.7071068,5.70710678 C19.8946432,5.89464316 20,6.14899707 20,6.41421356 L20,21 C20,21.5522847 19.5522847,22 19,22 L5,22 C4.44771525,22 4,21.5522847 4,21 L4,3 C4,2.44771525 4.44771525,2 5,2 L15.5857864,2 Z M15.171,4 L6,4 L6,20 L18,20 L18,6.829 L15.171,4 Z M16,14 L16.1166211,14.0067277 C16.6139598,14.0644928 17,14.4871642 17,15 C17,15.5128358 16.6139598,15.9355072 16.1166211,15.9932723 L16.1166211,15.9932723 L16,16 L8,16 L7.88337887,15.9932723 C7.38604019,15.9355072 7,15.5128358 7,15 C7,14.4871642 7.38604019,14.0644928 7.88337887,14.0067277 L7.88337887,14.0067277 L8,14 L16,14 Z M16,10 L16.1166211,10.0067277 C16.6139598,10.0644928 17,10.4871642 17,11 C17,11.5128358 16.6139598,11.9355072 16.1166211,11.9932723 L16.1166211,11.9932723 L16,12 L8,12 L7.88337887,11.9932723 C7.38604019,11.9355072 7,11.5128358 7,11 C7,10.4871642 7.38604019,10.0644928 7.88337887,10.0067277 L7.88337887,10.0067277 L8,10 L16,10 Z M13,6 L13.1166211,6.00672773 C13.6139598,6.06449284 14,6.48716416 14,7 C14,7.51283584 13.6139598,7.93550716 13.1166211,7.99327227 L13.1166211,7.99327227 L13,8 L8,8 L7.88337887,7.99327227 C7.38604019,7.93550716 7,7.51283584 7,7 C7,6.48716416 7.38604019,6.06449284 7.88337887,6.00672773 L7.88337887,6.00672773 L8,6 L13,6 Z" id="Order"></path>
        </g>
    </g>
</svg>