<?xml version="1.0" encoding="UTF-8"?>
<svg width="24px" height="24px" viewBox="0 0 24 24" version="1.1" xmlns="http://www.w3.org/2000/svg" xmlns:xlink="http://www.w3.org/1999/xlink">
    <title>Vector Files/24x24/Actions/Pack Size</title>
    <g id="Symbols" stroke="none" stroke-width="1" fill="none" fill-rule="evenodd">
        <g id="24x24/Actions/Pack-Size" fill="#2F313A">
            <path d="M12.0503358,21.4989578 L11.9496642,21.4989578 L11.8272359,21.4851918 L11.8272359,21.4851918 L11.7304677,21.4630274 L11.7304677,21.4630274 L11.6060807,21.419145 L4.55257575,18.3944708 L4.55257575,18.3944708 L4.47369372,18.3504548 L4.47369372,18.3504548 L4.38474631,18.2886403 L4.38474631,18.2886403 L4.30285074,18.2173021 L4.30285074,18.2173021 L4.218369,18.1240539 L4.218369,18.1240539 L4.14573674,18.0202522 L4.14573674,18.0202522 L4.08095217,17.8948286 L4.08095217,17.8948286 L4.05278308,17.8212033 L4.05278308,17.8212033 L4.0222587,17.710267 L4.0222587,17.710267 L4.00450453,17.5948091 L3.00147107,7.05961846 L3.00147107,7.05961846 L3.00118052,6.94877923 L3.00118052,6.94877923 C3.01441798,6.67886283 3.13400976,6.41362454 3.35984311,6.22915881 L3.4799288,6.14561055 L3.4799288,6.14561055 C3.51731932,6.12266442 3.55702495,6.10217545 3.59892847,6.08384267 L3.50529886,6.13065258 L3.54974775,6.10679806 L3.54974775,6.10679806 L3.59892847,6.08384267 L11.6688972,2.55640115 L11.6688972,2.55640115 L11.7826139,2.52384464 L11.7826139,2.52384464 L11.8684294,2.50852123 L11.8684294,2.50852123 L11.9383185,2.50161603 L11.9383185,2.50161603 L12.0769449,2.50270058 L12.0769449,2.50270058 L12.2123024,2.52259799 L12.2123024,2.52259799 L12.2912789,2.54326238 L12.2912789,2.54326238 L12.4008188,2.58384267 L20.4008188,6.08384267 C20.4554125,6.10774134 20.5029595,6.13373505 20.5478986,6.16321442 C20.7970253,6.32284481 20.9427786,6.56972587 20.9861896,6.8318495 L20.9990508,6.95384604 L20.9990508,6.95384604 L20.9985536,7.05461602 L20.9985536,7.05461602 L19.9954955,17.5948091 L19.9861301,17.6662332 L19.9861301,17.6662332 L19.9472221,17.8212117 L19.9472221,17.8212117 L19.8940242,17.9486184 L19.8940242,17.9486184 L19.8421415,18.0396454 L19.8421415,18.0396454 L19.7814597,18.1241387 L19.7814597,18.1241387 L19.6832839,18.230484 L19.6832839,18.230484 L19.5932335,18.3052714 L19.5932335,18.3052714 L19.4984608,18.367022 L19.4984608,18.367022 L19.3939193,18.419145 L12.3206062,21.4474996 L12.3206062,21.4474996 L12.1869747,21.4825808 L12.1869747,21.4825808 L12.0503358,21.4989578 L12.0503358,21.4989578 Z M5.15574731,8.59674737 L5.93874731,16.8137474 L10.9997473,18.9827474 L11,15 C11,14.4477153 11.4477153,14 12,14 C12.5128358,14 12.9355072,14.3860402 12.9932723,14.8833789 L13,15 L12.9997473,18.9827474 L18.0597473,16.8147474 L18.8427473,8.59774737 L12.3388984,11.4408629 L12.3388984,11.4408629 L12.2304222,11.4730898 L12.2304222,11.4730898 L12.1326383,11.4912777 L12.1326383,11.4912777 L12.042571,11.499308 L12.042571,11.499308 L11.9083897,11.4960837 L11.9083897,11.4960837 L11.8033651,11.4807229 L11.8033651,11.4807229 L11.7266558,11.4619453 L11.7266558,11.4619453 L11.5989285,11.4161573 L5.15574731,8.59674737 Z M11.9997473,4.59074737 L6.49574731,7 L11.9997473,9.40874737 L17.504,7 L11.9997473,4.59074737 Z" id="Pack-Size"></path>
        </g>
    </g>
</svg>