<?xml version="1.0" encoding="UTF-8"?>
<svg width="24px" height="24px" viewBox="0 0 24 24" version="1.1" xmlns="http://www.w3.org/2000/svg" xmlns:xlink="http://www.w3.org/1999/xlink">
    <title>Vector Files/24x24/Actions/Pack Size (Filled)</title>
    <g id="Symbols" stroke="none" stroke-width="1" fill="none" fill-rule="evenodd">
        <g id="24x24/Actions/Pack-Size-(Filled)" fill="#2F313A">
            <path d="M20.9234409,7.83944893 L19.9954955,17.5948091 C19.9646706,17.91847 19.7789594,18.2042181 19.5019523,18.3649154 L19.3939193,18.419145 L13.5573464,20.9200861 C13.3542889,21.0070952 13.1191434,20.9130193 13.0321343,20.7099618 C13.0108002,20.6601733 12.9998006,20.6065704 12.9998025,20.5524037 L13,15 L12.9932723,14.8833789 C12.9355072,14.3860402 12.5128358,14 12,14 C11.4871642,14 11.0644928,14.3860402 11.0067277,14.8833789 L11,15 L10.9998025,20.5524342 C10.9997947,20.7733481 10.8207022,20.9525205 10.5997883,20.9525205 C10.5456278,20.9525205 10.4920317,20.9414172 10.4422495,20.9200843 L4.6060807,18.419145 C4.30724323,18.2910718 4.0917528,18.0270558 4.02319995,17.7142346 L4.00450453,17.5948091 L3.07614545,7.83939052 C3.05521707,7.61947018 3.21653193,7.42422372 3.43645227,7.40329535 C3.51107297,7.39619419 3.58618756,7.41020331 3.65323188,7.44372547 L11.5657809,11.4 L11.6715572,11.4445244 L11.7523248,11.4690328 L11.8529335,11.489383 L11.9475928,11.4988793 L12.0084119,11.5001898 L12.1114789,11.4940404 L12.2504364,11.4683457 L12.3398958,11.4405643 L12.4472136,11.3944272 L20.3463146,7.44381954 C20.5438954,7.34500269 20.7841732,7.4250667 20.8829901,7.62264752 C20.9165234,7.68969623 20.9305398,7.76481905 20.9234409,7.83944893 Z M12.2704603,2.53726341 L12.4008188,2.58384267 L18.6562437,5.31974572 C18.8586457,5.40826922 18.9509624,5.64411087 18.8624389,5.8465128 C18.8249376,5.9322566 18.7585587,6.00213683 18.674854,6.04399231 L12.1786892,9.29232005 C12.0660655,9.34863614 11.9334981,9.34863258 11.8208775,9.29231043 L5.3256047,6.04399207 C5.1280216,5.94517978 5.04795204,5.70490384 5.14676433,5.50732074 C5.18861921,5.42362857 5.25849125,5.35725906 5.34422348,5.3197598 L11.5991812,2.58384267 C11.7695282,2.50931585 11.9554646,2.48447358 12.1362045,2.50931585 L12.2704603,2.53726341 Z" id="Pack-Size-(Filled)"></path>
        </g>
    </g>
</svg>