<?xml version="1.0" encoding="UTF-8"?>
<svg width="24px" height="24px" viewBox="0 0 24 24" version="1.1" xmlns="http://www.w3.org/2000/svg" xmlns:xlink="http://www.w3.org/1999/xlink">
    <title>Vector Files/24x24/Actions/Pending (Filled)</title>
    <g id="Symbols" stroke="none" stroke-width="1" fill="none" fill-rule="evenodd">
        <g id="24x24/Actions/Pending-(Filled)" fill="#2F313A">
            <path d="M12,2 C17.5228475,2 22,6.4771525 22,12 C22,17.5228475 17.5228475,22 12,22 C6.4771525,22 2,17.5228475 2,12 C2,6.4771525 6.4771525,2 12,2 Z M12,5 C8.134107,5 5,8.13432349 5,12 C5,15.8660847 8.13391525,19 12,19 C15.8656765,19 19,15.865893 19,12 C19,8.13451525 15.8654847,5 12,5 Z M12,7 C14.7609153,7 17,9.23908475 17,12 C17,14.7612926 14.7611379,17 12,17 C9.23848475,17 7,14.7615153 7,12 C7,9.23886206 9.23870742,7 12,7 Z M12,8 C11.4871642,8 11.0644928,8.38604019 11.0067277,8.88337887 L11,9 L11,12 L11.0067277,12.1166211 C11.0600494,12.575703 11.424297,12.9399506 11.8833789,12.9932723 L12,13 L14,13 L14.1166211,12.9932723 C14.575703,12.9399506 14.9399506,12.575703 14.9932723,12.1166211 L15,12 L14.9932723,11.8833789 C14.9399506,11.424297 14.575703,11.0600494 14.1166211,11.0067277 L14,11 L13,10.999 L13,9 L12.9932723,8.88337887 C12.9355072,8.38604019 12.5128358,8 12,8 Z" id="Pending-(Filled)"></path>
        </g>
    </g>
</svg>