<?xml version="1.0" encoding="UTF-8"?>
<svg width="24px" height="24px" viewBox="0 0 24 24" version="1.1" xmlns="http://www.w3.org/2000/svg" xmlns:xlink="http://www.w3.org/1999/xlink">
    <title>Vector Files/24x24/Actions/Pending</title>
    <g id="Symbols" stroke="none" stroke-width="1" fill="none" fill-rule="evenodd">
        <g id="24x24/Actions/Pending" fill="#2F313A">
            <path d="M12,5 C15.8654847,5 19,8.13451525 19,12 C19,15.865893 15.8656765,19 12,19 C8.13391525,19 5,15.8660847 5,12 C5,8.13432349 8.134107,5 12,5 Z M12,7 C9.23870742,7 7,9.23886206 7,12 C7,14.7615153 9.23848475,17 12,17 C14.7611379,17 17,14.7612926 17,12 C17,9.23908475 14.7609153,7 12,7 Z M12,8 C12.5128358,8 12.9355072,8.38604019 12.9932723,8.88337887 L13,9 L13,10.999 L14,11 C14.5128358,11 14.9355072,11.3860402 14.9932723,11.8833789 L15,12 C15,12.5128358 14.6139598,12.9355072 14.1166211,12.9932723 L14,13 L12,13 C11.4871642,13 11.0644928,12.6139598 11.0067277,12.1166211 L11,12 L11,9 C11,8.44771525 11.4477153,8 12,8 Z" id="Pending"></path>
        </g>
    </g>
</svg>