<?xml version="1.0" encoding="UTF-8"?>
<svg width="24px" height="24px" viewBox="0 0 24 24" version="1.1" xmlns="http://www.w3.org/2000/svg" xmlns:xlink="http://www.w3.org/1999/xlink">
    <title>Vector Files/24x24/Actions/Question (Filled)</title>
    <g id="Symbols" stroke="none" stroke-width="1" fill="none" fill-rule="evenodd">
        <g id="24x24/Actions/Question-(Filled)" fill="#2F313A">
            <path d="M12,2 C17.5228475,2 22,6.4771525 22,12 C22,17.5228475 17.5228475,22 12,22 C6.4771525,22 2,17.5228475 2,12 C2,6.4771525 6.4771525,2 12,2 Z M11.6462603,14.5944496 C10.9565598,14.5944496 10.4349738,15.0484555 10.3724697,15.6586221 L10.3661762,15.8106343 C10.3661762,16.4822761 10.9105798,17 11.6462603,17 C12.3359608,17 12.8564691,16.5449692 12.9188385,15.9346746 L12.9251182,15.7826493 C12.9251182,15.1110075 12.3819408,14.5944496 11.6462603,14.5944496 Z M11.9405325,7 C10.6469609,7 9.66114906,7.39179104 8.88132773,8.00746269 C8.61648275,8.21735075 8.5,8.49720149 8.5,8.7630597 C8.5,9.29361007 8.96960939,9.74137127 9.52750044,9.74137127 C9.77885794,9.74137127 10.0142757,9.64342351 10.190839,9.51749067 C10.7193029,9.13969216 11.2637064,8.95895522 11.8963917,8.95895522 C12.6952947,8.95895522 13.1859879,9.27870656 13.2442038,9.83654199 L13.2500438,9.9792444 C13.2500438,10.6648787 12.6602733,11.0426772 11.3814153,11.1954291 C10.9498161,11.2467351 10.6799729,11.5214358 10.6937179,11.9225309 L10.7045892,12.0349813 L10.8529515,12.9864739 C10.9053408,13.328867 11.1654637,13.6144034 11.5329078,13.6634895 L11.6462603,13.6709422 L11.7639692,13.6709422 C12.1507588,13.6709422 12.4412816,13.405932 12.5351256,13.0844155 L12.557278,12.9864739 L12.6014188,12.7346082 C14.1458029,12.4381737 15.4036652,11.7524818 15.4947217,10.116313 L15.5,9.89528918 C15.5,8.03544776 14.0580662,7 11.9405325,7 Z" id="Question-(Filled)"></path>
        </g>
    </g>
</svg>