<?xml version="1.0" encoding="UTF-8"?>
<svg width="24px" height="24px" viewBox="0 0 24 24" version="1.1" xmlns="http://www.w3.org/2000/svg" xmlns:xlink="http://www.w3.org/1999/xlink">
    <title>Vector Files/24x24/Actions/Question</title>
    <g id="Symbols" stroke="none" stroke-width="1" fill="none" fill-rule="evenodd">
        <g id="24x24/Actions/Question" fill="#2F313A">
            <path d="M12,2 C17.5228475,2 22,6.4771525 22,12 C22,17.5228475 17.5228475,22 12,22 C6.4771525,22 2,17.5228475 2,12 C2,6.4771525 6.4771525,2 12,2 Z M12,4 C7.581722,4 4,7.581722 4,12 C4,16.418278 7.581722,20 12,20 C16.418278,20 20,16.418278 20,12 C20,7.581722 16.418278,4 12,4 Z M11.6462603,14.5944496 C12.3819408,14.5944496 12.9251182,15.1110075 12.9251182,15.7826493 L12.9251182,15.8106343 C12.9251182,16.4822761 12.3819408,17 11.6462603,17 C10.9105798,17 10.3661762,16.4822761 10.3661762,15.8106343 L10.3661762,15.7826493 C10.3661762,15.1110075 10.9105798,14.5944496 11.6462603,14.5944496 Z M11.9405325,7 C14.0580662,7 15.5,8.03544776 15.5,9.89528918 L15.5,9.92327425 C15.5,11.6991604 14.2052023,12.4267724 12.6014188,12.7346082 L12.557278,12.9864739 C12.4984235,13.3502799 12.1894377,13.6709422 11.7639692,13.6709422 L11.6462603,13.6709422 C11.2195656,13.6709422 10.9105798,13.3631063 10.8529515,12.9864739 L10.7045892,12.0349813 C10.6322473,11.5732276 10.9105798,11.2513993 11.3814153,11.1954291 C12.6602733,11.0426772 13.2500438,10.6648787 13.2500438,9.9792444 L13.2500438,9.95125933 C13.2500438,9.32276119 12.7485549,8.95895522 11.8963917,8.95895522 C11.2637064,8.95895522 10.7193029,9.13969216 10.190839,9.51749067 C10.0142757,9.64342351 9.77885794,9.74137127 9.52750044,9.74137127 C8.96960939,9.74137127 8.5,9.29361007 8.5,8.7630597 C8.5,8.49720149 8.61648275,8.21735075 8.88132773,8.00746269 C9.66114906,7.39179104 10.6469609,7 11.9405325,7 Z" id="Question"></path>
        </g>
    </g>
</svg>