<?xml version="1.0" encoding="UTF-8"?>
<svg width="24px" height="24px" viewBox="0 0 24 24" version="1.1" xmlns="http://www.w3.org/2000/svg" xmlns:xlink="http://www.w3.org/1999/xlink">
    <title>Vector Files/24x24/Actions/Settings (Filled)</title>
    <g id="Symbols" stroke="none" stroke-width="1" fill="none" fill-rule="evenodd">
        <g id="24x24/Actions/Settings-(Filled)" fill="#2F313A">
            <path d="M12.4000502,3.64714662 C12.7557052,2.79271041 13.6750758,2.38492148 14.588774,2.63742264 L14.7409069,2.6856566 L16.6410554,3.4779664 C17.4236977,3.84696443 17.8030024,4.73759244 17.5888795,5.55556801 L17.5417308,5.70794195 L17.362,6.255 L17.490361,6.37908965 L17.490361,6.37908965 L17.637,6.529 L18.182,6.349 L18.242874,6.32465875 C19.0221486,6.04060632 19.8912437,6.3595647 20.3438523,7.0595421 L20.4237121,7.19519873 L20.4895038,7.33122556 L21.2318975,9.13673704 C21.4285556,9.58859884 21.4446847,10.0821473 21.28255,10.4622785 C21.1452127,10.8900253 20.848037,11.2293943 20.5041031,11.4195403 L20.3731569,11.4837314 L19.863,11.754 L19.8666936,11.8034986 L19.8700197,11.9783777 L19.8700197,11.9783777 L19.8687331,12.1528134 L19.867,12.177 L20.322531,12.4115131 C20.6529228,12.5492692 20.927841,12.7766863 21.1175567,13.0498695 L21.2051767,13.1900717 L21.2777704,13.3366823 C21.4762797,13.7381106 21.4916613,14.1978962 21.3581683,14.6175904 L21.3011968,14.7729042 L20.5786575,16.5139296 C20.424198,16.9966135 20.0675319,17.3658517 19.5360719,17.5941249 C19.1537305,17.7267209 18.7531139,17.7467687 18.4158125,17.6466504 L18.2753691,17.5963633 L17.727,17.416 L17.6035816,17.5448552 L17.6035816,17.5448552 L17.480342,17.6669913 L17.453,17.691 L17.637,18.243 L17.6589886,18.2968849 C17.9430425,19.0761604 17.624066,19.9452622 16.9238002,20.3979871 L16.7880863,20.4778701 L16.6519992,20.5436862 L14.8484409,21.2841899 C13.9809865,21.6644227 12.9802563,21.2976776 12.5655279,20.5369931 L12.5019558,20.4066253 L12.231,19.896 L12.1826561,19.8997056 L12.0079557,19.9030969 L12.0079557,19.9030969 L11.8336984,19.9019039 L11.807,19.9 L11.5736767,20.3569715 C11.4234936,20.7154718 11.1841988,21.0106128 10.8610309,21.2018458 L10.7174105,21.2773229 L10.5636116,21.3393672 C10.3487363,21.4142111 10.10476,21.4506296 9.86600507,21.4430878 L9.68845413,21.4291024 L9.59849607,21.4163606 L9.49787972,21.3978175 L9.3697365,21.3645974 L9.3697365,21.3645974 L9.23802784,21.3178584 L7.47244049,20.5917758 C6.99104871,20.4372158 6.62259105,20.0804831 6.39384026,19.5494731 C6.2611781,19.1669438 6.24111701,18.7654994 6.34466992,18.4188091 L6.39665005,18.2737947 L6.582,17.735 L6.34113604,17.4972065 L6.315,17.469 L5.79618005,17.6406938 C5.47505228,17.7672344 5.1252351,17.8022642 4.81668828,17.7465074 L4.66617795,17.7110668 L4.36794415,17.6014967 C4.01267638,17.4467735 3.72858978,17.1747678 3.53984941,16.8235595 L3.46486866,16.6683035 L2.72132998,14.8618104 C2.3447215,13.994604 2.71125012,12.9963614 3.47074862,12.5818362 L3.60091027,12.5182761 L4.11,12.248 L4.10453623,12.023755 L4.10453623,12.023755 L4.106,11.824 L3.65056367,11.590009 C3.29278046,11.4401274 2.99841432,11.2012495 2.80637925,10.877232 L2.73045713,10.7331659 L2.66774605,10.5787421 C2.53514893,10.1964004 2.51510102,9.79578305 2.63103813,9.41554347 L2.68911939,9.25394395 L3.42867612,7.45199906 C3.75313241,6.57048865 4.70669922,6.13178136 5.5757281,6.36380535 L5.71966112,6.40872557 L6.266,6.587 L6.541,6.311 L6.3697526,5.79295248 C6.24292491,5.47109851 6.20759186,5.12071536 6.26355001,4.81262699 L6.29913575,4.66243526 L6.34993104,4.52125999 C6.48706098,4.09415893 6.78283058,3.75594018 7.18601011,3.53705215 L7.34213722,3.46062223 L9.14743429,2.71935841 C10.0154044,2.34097683 11.0157744,2.70808461 11.4287826,3.4679513 L11.4920554,3.59817192 L11.762,4.107 L11.9874483,4.10130683 L11.9874483,4.10130683 L12.175,4.103 L12.4000502,3.64714662 Z M8.03366717,11.4853467 C8.31765046,9.29444233 10.323915,7.74960504 12.5154563,8.03352401 C14.7063837,8.31837082 16.2510483,10.3247485 15.9663268,12.5151775 C15.6822708,14.7058428 13.6755812,16.2510074 11.4840953,15.9662959 C9.29371443,15.68152 7.74891467,13.6752143 8.03366717,11.4853467 Z" id="Settings-(Filled)"></path>
        </g>
    </g>
</svg>