<?xml version="1.0" encoding="UTF-8"?>
<svg width="24px" height="24px" viewBox="0 0 24 24" version="1.1" xmlns="http://www.w3.org/2000/svg" xmlns:xlink="http://www.w3.org/1999/xlink">
    <title>Vector Files/24x24/Actions/Sort</title>
    <g id="Symbols" stroke="none" stroke-width="1" fill="none" fill-rule="evenodd">
        <g id="24x24/Actions/Sort" fill="#2F313A">
            <path d="M16,10.5 C16.5522847,10.5 17,10.9477153 17,11.5 L17,17.5857864 L19.2928932,15.2928932 C19.6834175,14.9023689 20.3165825,14.9023689 20.7071068,15.2928932 C21.0976311,15.6834175 21.0976311,16.3165825 20.7071068,16.7071068 L16.7071068,20.7071068 C16.3165825,21.0976311 15.6834175,21.0976311 15.2928932,20.7071068 L11.2928932,16.7071068 C10.9023689,16.3165825 10.9023689,15.6834175 11.2928932,15.2928932 C11.6834175,14.9023689 12.3165825,14.9023689 12.7071068,15.2928932 L15,17.5857864 L15,11.5 C15,10.9477153 15.4477153,10.5 16,10.5 Z M7.29289322,3.29289322 C7.68341751,2.90236893 8.31658249,2.90236893 8.70710678,3.29289322 L8.70710678,3.29289322 L12.7071068,7.29289322 C13.0976311,7.68341751 13.0976311,8.31658249 12.7071068,8.70710678 C12.3165825,9.09763107 11.6834175,9.09763107 11.2928932,8.70710678 L11.2928932,8.70710678 L9,6.41421356 L9,12.5 C9,13.0522847 8.55228475,13.5 8,13.5 C7.44771525,13.5 7,13.0522847 7,12.5 L7,12.5 L7,6.41421356 L4.70710678,8.70710678 C4.31658249,9.09763107 3.68341751,9.09763107 3.29289322,8.70710678 C2.90236893,8.31658249 2.90236893,7.68341751 3.29289322,7.29289322 L3.29289322,7.29289322 Z" id="Sort"></path>
        </g>
    </g>
</svg>