<?xml version="1.0" encoding="UTF-8"?>
<svg width="24px" height="24px" viewBox="0 0 24 24" version="1.1" xmlns="http://www.w3.org/2000/svg" xmlns:xlink="http://www.w3.org/1999/xlink">
    <title>Vector Files/24x24/Actions/Trash (Filled)</title>
    <g id="Symbols" stroke="none" stroke-width="1" fill="none" fill-rule="evenodd">
        <g id="24x24/Actions/Trash-(Filled)" fill="#2F313A">
            <path d="M18,8 C18.5128358,8 18.9355072,8.38604019 18.9932723,8.88337887 L19,9 L19,20 C19,21.0543618 18.1841222,21.9181651 17.1492623,21.9945143 L17,22 L7,22 C5.9456382,22 5.08183488,21.1841222 5.00548574,20.1492623 L5,20 L5,9 C5,8.48716416 5.38604019,8.06449284 5.88337887,8.00672773 L6,8 L18,8 Z M10,12 C9.48716416,12 9.06449284,12.3860402 9.00672773,12.8833789 L9,13 L9,18 L9.00672773,18.1166211 C9.06449284,18.6139598 9.48716416,19 10,19 C10.5128358,19 10.9355072,18.6139598 10.9932723,18.1166211 L11,18 L11,13 L10.9932723,12.8833789 C10.9355072,12.3860402 10.5128358,12 10,12 Z M14,12 C13.4871642,12 13.0644928,12.3860402 13.0067277,12.8833789 L13,13 L13,18 L13.0067277,18.1166211 C13.0644928,18.6139598 13.4871642,19 14,19 C14.5128358,19 14.9355072,18.6139598 14.9932723,18.1166211 L15,18 L15,13 L14.9932723,12.8833789 C14.9355072,12.3860402 14.5128358,12 14,12 Z M12,1 C12.5128358,1 12.9355072,1.38604019 12.9932723,1.88337887 L13,2 L13,3 L19,3 C19.5128358,3 19.9355072,3.38604019 19.9932723,3.88337887 L20,4 L20,6 C20,6.51283584 19.6139598,6.93550716 19.1166211,6.99327227 L19,7 L5,7 C4.48716416,7 4.06449284,6.61395981 4.00672773,6.11662113 L4,6 L4,4 C4,3.48716416 4.38604019,3.06449284 4.88337887,3.00672773 L5,3 L11,3 L11,2 C11,1.44771525 11.4477153,1 12,1 Z" id="Trash-(Filled)"></path>
        </g>
    </g>
</svg>