<?xml version="1.0" encoding="UTF-8"?>
<svg width="24px" height="24px" viewBox="0 0 24 24" version="1.1" xmlns="http://www.w3.org/2000/svg" xmlns:xlink="http://www.w3.org/1999/xlink">
    <title>Vector Files/24x24/Actions/Trash</title>
    <g id="Symbols" stroke="none" stroke-width="1" fill="none" fill-rule="evenodd">
        <g id="24x24/Actions/Trash" fill="#2F313A">
            <path d="M12,1 C12.5128358,1 12.9355072,1.38604019 12.9932723,1.88337887 L13,2 L13,3 L19,3 C19.5128358,3 19.9355072,3.38604019 19.9932723,3.88337887 L20,4 L20,8 C20,8.51283584 19.6139598,8.93550716 19.1166211,8.99327227 L19,9 L19,20 C19,21.0543618 18.1841222,21.9181651 17.1492623,21.9945143 L17,22 L7,22 C5.9456382,22 5.08183488,21.1841222 5.00548574,20.1492623 L5,20 L5,9 C4.48716416,9 4.06449284,8.61395981 4.00672773,8.11662113 L4,8 L4,4 C4,3.48716416 4.38604019,3.06449284 4.88337887,3.00672773 L5,3 L11,3 L11,2 C11,1.44771525 11.4477153,1 12,1 Z M17,9 L7,9 L7,20 L9,20 L9,13 C9,12.4477153 9.44771525,12 10,12 C10.5128358,12 10.9355072,12.3860402 10.9932723,12.8833789 L11,13 L11,20 L13,20 L13,13 C13,12.4477153 13.4477153,12 14,12 C14.5128358,12 14.9355072,12.3860402 14.9932723,12.8833789 L15,13 L15,20 L17,20 L17,9 Z M18,5 L6,5 L6,7 L18,7 L18,5 Z" id="Trash"></path>
        </g>
    </g>
</svg>