<?xml version="1.0" encoding="UTF-8"?>
<svg width="100px" height="100px" viewBox="0 0 100 100" version="1.1" xmlns="http://www.w3.org/2000/svg" xmlns:xlink="http://www.w3.org/1999/xlink">
    <!-- Generator: Sketch 59.1 (86144) - https://sketch.com -->
    <title>Vector Files/100x100/Flattened/Delivery/At_Work</title>
    <desc>Created with Sketch.</desc>
    <g id="100x100/Flattened/Delivery/At_Work" stroke="none" stroke-width="1" fill="none" fill-rule="evenodd">
        <path d="M52.265531,28.0364226 L55.7899878,28.0364226 C56.6242037,28.0364226 57.3004693,28.7107133 57.3004693,29.542493 L57.3004693,45.1052208 L54.2795063,46.6112912 L54.2795063,31.0485635 L17.020963,31.0485635 L17.020963,66.1902069 C17.020963,67.0219866 16.3446974,67.6962773 15.5104815,67.6962773 C14.6762656,67.6962773 14,67.0219866 14,66.1902069 L14,29.542493 C14,29.4569703 14.0071493,29.3731124 14.0208845,29.2914813 C14.0071493,29.2098501 14,29.1259923 14,29.0404695 L14,20.5060704 C14,19.6742907 14.6762656,19 15.5104815,19 L40.6851729,19 C41.5193888,19 42.1956544,19.6742907 42.1956544,20.5060704 L42.1956544,28.0364226 L50.2515557,28.0364226 L50.2515557,23.0161878 C50.2515557,22.461668 50.7023994,22.0121409 51.2585434,22.0121409 C51.8146873,22.0121409 52.265531,22.461668 52.265531,23.0161878 L52.265531,28.0364226 Z M17.020963,24.0202348 L35.1467408,24.0202348 C35.7028847,24.0202348 36.1537285,24.4697619 36.1537285,25.0242817 C36.1537285,25.5788015 35.7028847,26.0283287 35.1467408,26.0283287 L17.020963,26.0283287 L17.020963,28.0364226 L39.1746915,28.0364226 L39.1746915,22.0121409 L17.020963,22.0121409 L17.020963,24.0202348 Z M26.0838519,69.2023477 L35.1548916,69.2023477 C35.1495373,69.1730068 35.1467408,69.1427767 35.1467408,69.1118953 L35.1467408,64.182113 L23.0628889,64.182113 L23.0628889,69.2023477 L24.0698766,69.2023477 L24.0698766,67.1942538 C24.0698766,66.639734 24.5207203,66.1902069 25.0768642,66.1902069 C25.6330082,66.1902069 26.0838519,66.639734 26.0838519,67.1942538 L26.0838519,69.2023477 Z M48.2375804,69.2023477 L48.2375804,64.182113 L36.1537285,64.182113 L36.1537285,69.1118953 C36.1537285,69.1427767 36.150932,69.1730068 36.1455777,69.2023477 L48.2375804,69.2023477 Z M26.0838519,56.1497373 L35.1467408,56.1497373 L35.1467408,51.1295025 L23.0628889,51.1295025 L23.0628889,56.1497373 L24.0698766,56.1497373 L24.0698766,54.1416434 C24.0698766,53.5871236 24.5207203,53.1375965 25.0768642,53.1375965 C25.6330082,53.1375965 26.0838519,53.5871236 26.0838519,54.1416434 L26.0838519,56.1497373 Z M48.2375804,56.1497373 L48.2375804,51.1295025 L36.1537285,51.1295025 L36.1537285,56.1497373 L48.2375804,56.1497373 Z M26.0838519,43.0971269 L35.1467408,43.0971269 L35.1467408,38.0768921 L23.0628889,38.0768921 L23.0628889,43.0971269 L24.0698766,43.0971269 L24.0698766,41.089033 C24.0698766,40.5345132 24.5207203,40.084986 25.0768642,40.084986 C25.6330082,40.084986 26.0838519,40.5345132 26.0838519,41.089033 L26.0838519,43.0971269 Z M48.2375804,43.0971269 L48.2375804,38.0768921 L36.1537285,38.0768921 L36.1537285,43.0971269 L48.2375804,43.0971269 Z M17.020963,74.2225825 C17.020963,75.0543622 16.3446974,75.7286529 15.5104815,75.7286529 C14.6762656,75.7286529 14,75.0543622 14,74.2225825 L14,71.2104416 C14,70.3786619 14.6762656,69.7043712 15.5104815,69.7043712 C16.3446974,69.7043712 17.020963,70.3786619 17.020963,71.2104416 L17.020963,74.2225825 Z M22.0559013,36.0687982 L49.244568,36.0687982 C49.800712,36.0687982 50.2515557,36.5183254 50.2515557,37.0728452 L50.2515557,44.1011739 C50.2515557,44.6556937 49.800712,45.1052208 49.244568,45.1052208 L22.0559013,45.1052208 C21.4997573,45.1052208 21.0489136,44.6556937 21.0489136,44.1011739 L21.0489136,37.0728452 C21.0489136,36.5183254 21.4997573,36.0687982 22.0559013,36.0687982 Z M22.0559013,49.1214086 L49.244568,49.1214086 C49.800712,49.1214086 50.2515557,49.5709358 50.2515557,50.1254556 L50.2515557,57.1537843 C50.2515557,57.7083041 49.800712,58.1578312 49.244568,58.1578312 L22.0559013,58.1578312 C21.4997573,58.1578312 21.0489136,57.7083041 21.0489136,57.1537843 L21.0489136,50.1254556 C21.0489136,49.5709358 21.4997573,49.1214086 22.0559013,49.1214086 Z M74.1675126,41.5910565 C74.5846205,41.5910565 74.9227533,41.9282018 74.9227533,42.3440917 L74.9227533,44.6152794 C81.8891292,44.8408626 86.2177381,48.217649 84.7582962,54.099018 L84.9722514,54.0166168 C85.5138414,53.8080325 86.0791035,54.2613881 85.990839,54.8335518 L82.2851244,78.8553752 C82.2314595,79.2032511 81.9432735,79.4676591 81.5911285,79.4921101 L59.9006144,80.9981806 C59.7767588,81.0067804 59.652687,80.9848024 59.5393814,80.9341918 L53.0543809,78.0375163 C52.8036993,77.9255436 52.6337566,77.6866911 52.6105962,77.413782 L50.7596949,55.6038297 C50.727194,55.3226805 50.8557762,55.0349334 51.1132428,54.8763895 L51.874651,54.4075263 C51.8500982,54.317315 51.8264821,54.2266721 51.803833,54.135721 C50.5647924,49.1781013 52.6935855,45.3780994 56.8794368,44.3381371 C59.1089888,43.784132 61.1918866,44.1951257 62.8389014,45.449648 L62.8389014,42.3440917 C62.8389014,41.9282018 63.1770342,41.5910565 63.5941422,41.5910565 L74.1675126,41.5910565 Z M80.7590185,55.0165654 L78.9057845,56.1577851 C78.6505385,56.3149617 78.3381405,56.3023453 78.1012959,56.151217 L76.2590424,55.0165654 L74.4058085,56.1577851 C74.1471729,56.3170489 73.8298574,56.3019802 73.5919246,56.1451231 L71.7591108,55.0165654 L69.9058324,56.1577851 C69.647175,56.3170623 69.3298279,56.3019777 69.0918885,56.1450835 L67.2595937,55.0165654 L65.4063598,56.1577851 C65.1477242,56.3170489 64.8304087,56.3019802 64.5924759,56.1451231 L62.7596621,55.0165654 L61.0720165,56.0557911 L60.3752271,79.4555082 L80.8839751,78.0314932 L84.2995909,55.8901979 L83.2809897,56.2824951 C82.9474136,56.4109663 82.594313,56.2872112 82.4012122,56.0280023 L80.7590185,55.0165654 Z M58.2597304,55.0165928 L56.4069753,56.1577456 C56.1517212,56.3149623 55.8392874,56.3023599 55.6024195,56.1512152 L53.7601689,55.0165928 L52.3019432,55.9145453 L54.0003856,75.928011 L55.5318162,74.2833735 L55.2132463,64.4493316 C55.2042693,64.1722162 55.4222963,63.9403137 55.7002233,63.9313629 C55.9781504,63.9224121 56.2107321,64.1398024 56.2197091,64.4169178 L56.5405162,74.3200211 L59.3878701,78.7813677 L60.0624755,56.1266356 L58.2597304,55.0165928 Z M55.9670404,75.2916438 L54.3909542,76.9842378 L58.1065344,78.6438877 L55.9670404,75.2916438 Z M80.334826,71.4653301 C80.6107506,71.4997199 80.8064716,71.7506263 80.771981,72.0257452 L80.2055505,76.5439565 C80.1710599,76.8190754 79.9194186,77.0142248 79.643494,76.9798349 C79.3675693,76.9454451 79.1718483,76.6945387 79.2063389,76.4194198 L79.7727695,71.9012085 C79.80726,71.6260896 80.0589013,71.4309402 80.334826,71.4653301 Z M49.244568,62.174019 C49.800712,62.174019 50.2515557,62.6235462 50.2515557,63.178066 L50.2515557,70.2063947 C50.2515557,70.7609145 49.800712,71.2104416 49.244568,71.2104416 L22.0559013,71.2104416 C21.4997573,71.2104416 21.0489136,70.7609145 21.0489136,70.2063947 L21.0489136,63.178066 C21.0489136,62.6235462 21.4997573,62.174019 22.0559013,62.174019 L49.244568,62.174019 Z M80.7753831,67.9511657 C81.0513077,67.9855556 81.2470287,68.236462 81.2125381,68.5115809 L81.023728,70.0176513 C80.9892374,70.2927702 80.7375961,70.4879196 80.4616714,70.4535297 C80.1857468,70.4191399 79.9900258,70.1682335 80.0245164,69.8931146 L80.2133266,68.3870442 C80.2478171,68.1119253 80.4994584,67.9167759 80.7753831,67.9511657 Z M55.5273679,58.408959 C55.8053757,58.4029992 56.0355909,58.6228796 56.041568,58.9000754 L56.1065188,61.9122163 C56.1124959,62.1894121 55.8919716,62.4189551 55.6139639,62.4249148 C55.3359562,62.4308745 55.1057409,62.2109942 55.0997638,61.9337983 L55.0348131,58.9216575 C55.0288359,58.6444616 55.2493602,58.4149187 55.5273679,58.408959 Z M74.9227533,46.1216274 L74.9227533,46.862303 C74.9227533,46.9090795 74.9184758,46.9548599 74.9102896,46.9992766 C76.9362562,47.7785297 78.2629146,48.9721923 77.9997051,50.1358961 L77.1681772,53.806297 L78.5089063,54.6320377 L80.3622063,53.4908047 C80.6054637,53.3410107 80.9127016,53.3410223 81.1559475,53.4908349 L81.4773904,53.6888081 C81.8922992,52.2503144 81.7483188,51.0681877 81.11901,50.1882121 C81.0357256,50.0713393 80.944205,49.9586985 80.844552,49.8505822 C80.6563893,49.6464392 80.6698286,49.3288581 80.8745695,49.1412449 C81.0793104,48.9536317 81.3978216,48.9670318 81.5859843,49.1711747 C81.7140569,49.3101243 81.8321229,49.4554364 81.9393964,49.6059742 C82.8009454,50.8106946 82.9568084,52.4026041 82.3629875,54.234238 L83.022868,54.6406513 C84.8556555,49.3373523 81.3719949,46.3361616 74.9227533,46.1216274 Z M57.2446685,45.7995173 C53.9422983,46.6199813 52.2795652,49.508703 53.2227275,53.577402 L53.3633567,53.4908047 C53.6066141,53.3410107 53.913852,53.3410223 54.1570979,53.4908349 L56.0099884,54.6320104 L57.862765,53.4908443 C58.1060073,53.341026 58.4132452,53.341007 58.6565061,53.4907953 L60.5097129,54.63191 L62.3628054,53.4908047 C62.6060396,53.3410249 62.9132445,53.3410213 63.1564822,53.4907953 L64.8244159,54.5178278 C64.90923,53.3756368 64.8043379,52.1742102 64.5059619,50.9799478 C63.4640355,46.8097139 60.5987496,44.9660862 57.2446685,45.7995173 Z M67.8468884,49.3824553 L66.9238989,53.4569495 C67.1560402,53.3420216 67.4332409,53.353318 67.6565227,53.4908349 L69.5092059,54.63191 L71.3622541,53.4908047 C71.6054883,53.3410249 71.9126932,53.3410213 72.1559309,53.4907953 L74.0091377,54.63191 L75.8622302,53.4908047 C75.9760607,53.4207097 76.103901,53.3834177 76.2326384,53.3789282 L76.6871678,51.3726153 C75.5642454,51.7758265 73.8598633,51.7773811 72.0425226,51.3680929 C70.2253731,50.9591081 68.6870784,50.2275287 67.8468884,49.3824553 Z M62.5648895,50.7308528 C62.6466665,50.995852 62.4975064,51.2767761 62.2317311,51.3583143 L55.6863113,53.3664082 C55.420536,53.4479464 55.1387891,53.2992219 55.0570121,53.0342227 C54.975235,52.7692235 55.1243951,52.4882994 55.3901705,52.4067612 L61.9355903,50.3986673 C62.2013656,50.3171291 62.4831125,50.4658536 62.5648895,50.7308528 Z M73.4122718,43.0971269 L64.3493829,43.0971269 L64.3493829,46.862303 C64.3493829,46.9065828 64.3455499,46.94997 64.3381966,46.9921527 C65.0543967,47.9709092 65.614208,49.1852585 65.9716488,50.6158892 C66.0824354,51.0593172 66.1696535,51.5041812 66.2333847,51.9479123 L67.1909491,47.7207887 C67.1921852,47.7149849 67.1934608,47.7091817 67.1947759,47.7033793 C67.529065,46.2284527 70.1905115,45.8044439 73.1513864,46.4713943 C73.2390124,46.4911126 73.3259899,46.511581 73.4122718,46.5327761 L73.4122718,43.0971269 Z M62.0613957,48.7227589 C62.1431727,48.9877581 61.9940126,49.2686822 61.7282373,49.3502204 L55.1828175,51.3583143 C54.9170421,51.4398525 54.6352953,51.291128 54.5535182,51.0261288 C54.4717412,50.7611296 54.6209013,50.4802055 54.8866767,50.3986673 L61.4320964,48.3905734 C61.6978718,48.3090352 61.9796187,48.4577597 62.0613957,48.7227589 Z M68.1786284,47.9177964 C68.1781542,47.9200284 68.1776643,47.9222606 68.1771586,47.9244929 L68.175057,47.9337704 C68.0364951,48.6240626 69.8115865,49.8366684 72.264317,50.388703 C74.7279496,50.9435444 76.8610647,50.6037785 77.0174125,49.9149008 C77.1730379,49.2258977 75.3932318,48.0051712 72.929592,47.4507841 C70.4745355,46.8977716 68.3474178,47.2334952 68.1786284,47.9177964 Z M79.3910695,47.7178944 C79.5774393,47.7931857 79.75701,47.8737633 79.9290851,47.9592789 C80.177957,48.0829601 80.2791505,48.3843849 80.1551071,48.6325301 C80.0310637,48.8806753 79.728756,48.9815732 79.4798841,48.8578921 C79.3313133,48.7840573 79.1754448,48.7141155 79.0129259,48.6484596 C78.7552048,48.544343 78.6309309,48.2516258 78.7353524,47.9946573 C78.8397739,47.7376888 79.1333484,47.6137778 79.3910695,47.7178944 Z" id="Businesses" fill="#2F313A" fill-rule="nonzero"></path>
    </g>
</svg>