<?xml version="1.0" encoding="UTF-8"?>
<svg width="100px" height="100px" viewBox="0 0 100 100" version="1.1" xmlns="http://www.w3.org/2000/svg" xmlns:xlink="http://www.w3.org/1999/xlink">
    <!-- Generator: Sketch 59.1 (86144) - https://sketch.com -->
    <title>Vector Files/100x100/Flattened/Delivery/Curbside Pickup</title>
    <desc>Created with Sketch.</desc>
    <g id="100x100/Flattened/Delivery/Curbside-Pickup" stroke="none" stroke-width="1" fill="none" fill-rule="evenodd">
        <path d="M79.2747,48.2626907 L79.2747,67.0096 L88.7747,67.0096 C89.6031271,67.0096 90.2747,67.6811729 90.2747,68.5096 C90.2747,69.3380271 89.6031271,70.0096 88.7747,70.0096 L66.2747,70.0096 L66.2747,76.5096 C66.2747,77.3380271 65.6031271,78.0096 64.7747,78.0096 L14.7747,78.0096 C13.9462729,78.0096 13.2747,77.3380271 13.2747,76.5096 C13.2747,75.6811729 13.9462729,75.0096 14.7747,75.0096 L21.2747,75.0096 L21.2747,70.7508761 C19.5265797,70.1301982 18.2749,68.4616932 18.2749,66.5006 L18.2749,52.0067881 C14.7779991,51.9345056 12.5337169,50.4726807 11.5394846,48.0865231 C11.0390766,46.8855438 10.9290195,45.6626871 11.0309573,44.5753503 C11.0436745,44.4397004 11.0576187,44.3343439 11.0695091,44.2630015 C11.1900561,43.5397196 11.8158413,43.0096 12.5491,43.0096 L18.2749,43.0096 L18.2749,40.3206 C18.2749,32.4163456 24.6813002,26.0096 32.5849,26.0096 L45.9639,26.0096 C53.8676544,26.0096 60.2749,32.4165001 60.2749,40.3206 L60.2749,43.5096 L66.0003,43.5096 C66.7335587,43.5096 67.3593439,44.0397196 67.4798909,44.7630015 C67.4917813,44.8343439 67.5057255,44.9397004 67.5184427,45.0753503 C67.6203805,46.1626871 67.5103234,47.3855438 67.0099154,48.5865231 C66.015721,50.9725897 63.7715721,52.4343941 60.2749,52.5067798 L60.2749,66.5006 C60.2749,68.4615234 59.0227137,70.1301789 57.2747,70.7508868 L57.2747,75.0096 L63.2747,75.0096 L63.2747,68.5096 C63.2747,67.6811729 63.9462729,67.0096 64.7747,67.0096 L76.2747,67.0096 L76.2747,48.2480361 C76.0282099,48.0100925 75.7275773,47.7054804 75.3850766,47.3370394 C74.4276015,46.307047 73.4723105,45.122128 72.5799968,43.7949629 C70.0091262,39.9712291 68.4573,35.7469916 68.4573,31.2364 C68.4573,25.8531731 72.456795,21.9994 77.6923,21.9994 L77.8723,21.9994 C83.107805,21.9994 87.1073,25.8531731 87.1073,31.2364 C87.1073,35.7469916 85.5554738,39.9712291 82.9846032,43.7949629 C82.0922895,45.122128 81.1369985,46.307047 80.1795234,47.3370394 C79.8299504,47.7130884 79.5239924,48.0226452 79.2747,48.2626907 Z M60.2749,49.5062994 C62.5629502,49.4503344 63.7186487,48.6855631 64.2406846,47.4326769 C64.3648463,47.134689 64.4476356,46.8214804 64.4963589,46.5096 L60.2749,46.5096 L60.2749,49.5062994 L60.2749,49.5062994 Z M18.2749,49.0063091 L18.2749,46.0096 L14.0530411,46.0096 C14.1017644,46.3214804 14.1845537,46.634689 14.3087154,46.9326769 C14.8307817,48.1856361 15.9865845,48.9504236 18.2749,49.0063091 Z M50.2747,71.0096 L49.2747,71.0096 L49.2747,75.0096 L54.2747,75.0096 L54.2747,71.0096 L51.7747,71.0096 L51.7747,72.5091 C51.7747,72.9233136 51.4389136,73.2591 51.0247,73.2591 C50.6104864,73.2591 50.2747,72.9233136 50.2747,72.5091 L50.2747,71.0096 Z M46.2747,75.0096 L46.2747,71.0096 L32.2747,71.0096 L32.2747,75.0096 L46.2747,75.0096 Z M25.2747,71.0096 L24.2747,71.0096 L24.2747,75.0096 L29.2747,75.0096 L29.2747,71.0096 L26.7747,71.0096 L26.7747,72.5091 C26.7747,72.9233136 26.4389136,73.2591 26.0247,73.2591 C25.6104864,73.2591 25.2747,72.9233136 25.2747,72.5091 L25.2747,71.0096 L25.2747,71.0096 Z M55.7659,68.0096 C56.5988953,68.0096 57.2749,67.3337505 57.2749,66.5006 L57.2749,40.3206 C57.2749,34.0733906 52.2108364,29.0096 45.9639,29.0096 L32.5849,29.0096 C26.3381906,29.0096 21.2749,34.0731636 21.2749,40.3206 L21.2749,66.5006 C21.2749,67.3341729 21.9503271,68.0096 22.7839,68.0096 L55.7659,68.0096 Z M53.7747,48.0096 L53.7747,41.5406 C53.7747,36.5528847 49.7314153,32.5096 44.7437,32.5096 L33.8057,32.5096 C28.8179847,32.5096 24.7747,36.5528847 24.7747,41.5406 L24.7747,48.0096 L53.7747,48.0096 Z M22.7747,49.0096 L22.7747,41.5406 C22.7747,35.4483153 27.7134153,30.5096 33.8057,30.5096 L44.7437,30.5096 C50.8359847,30.5096 55.7747,35.4483153 55.7747,41.5406 L55.7747,49.0096 C55.7747,49.5618847 55.3269847,50.0096 54.7747,50.0096 L23.7747,50.0096 C23.2224153,50.0096 22.7747,49.5618847 22.7747,49.0096 Z M39.7747,35.2596 C39.3604864,35.2596 39.0247,34.9238136 39.0247,34.5096 C39.0247,34.0953864 39.3604864,33.7596 39.7747,33.7596 L44.7437,33.7596 C45.1579136,33.7596 45.4937,34.0953864 45.4937,34.5096 C45.4937,34.9238136 45.1579136,35.2596 44.7437,35.2596 L39.7747,35.2596 Z M28.661903,37.9405825 C28.4238779,38.2795765 27.9561116,38.361428 27.6171175,38.123403 C27.2781235,37.8853779 27.196272,37.4176116 27.434297,37.0786175 C28.882776,35.0157013 31.2422784,33.7596 33.8061,33.7596 L36.7751,33.7596 C37.1893136,33.7596 37.5251,34.0953864 37.5251,34.5096 C37.5251,34.9238136 37.1893136,35.2596 36.7751,35.2596 L33.8061,35.2596 C31.7366219,35.2596 29.8326668,36.2731868 28.661903,37.9405825 Z M53.2747,64.5096 C53.8264153,64.5096 54.2747,64.0613153 54.2747,63.5096 C54.2747,62.9578847 53.8264153,62.5096 53.2747,62.5096 L25.2747,62.5096 C24.7229847,62.5096 24.2747,62.9578847 24.2747,63.5096 C24.2747,64.0613153 24.7229847,64.5096 25.2747,64.5096 L53.2747,64.5096 Z M53.2747,66.5096 L25.2747,66.5096 C23.6184153,66.5096 22.2747,65.1658847 22.2747,63.5096 C22.2747,61.8533153 23.6184153,60.5096 25.2747,60.5096 L53.2747,60.5096 C54.9309847,60.5096 56.2747,61.8533153 56.2747,63.5096 C56.2747,65.1658847 54.9309847,66.5096 53.2747,66.5096 Z M27.7747,54.2596 L24.5247,54.2596 L24.5247,56.7596 L30.9377163,56.7596 C30.5990916,55.3263301 29.3113561,54.2596 27.7747,54.2596 Z M31.7747,58.2596 L23.7747,58.2596 C23.3604864,58.2596 23.0247,57.9238136 23.0247,57.5096 L23.0247,53.5096 C23.0247,53.0953864 23.3604864,52.7596 23.7747,52.7596 L27.7747,52.7596 C30.3979136,52.7596 32.5247,54.8863864 32.5247,57.5096 C32.5247,57.9238136 32.1889136,58.2596 31.7747,58.2596 Z M46.7747,58.2596 C46.3604864,58.2596 46.0247,57.9238136 46.0247,57.5096 C46.0247,54.8863864 48.1514864,52.7596 50.7747,52.7596 L54.7747,52.7596 C55.1889136,52.7596 55.5247,53.0953864 55.5247,53.5096 L55.5247,57.5096 C55.5247,57.9238136 55.1889136,58.2596 54.7747,58.2596 L46.7747,58.2596 Z M47.6116837,56.7596 L54.0247,56.7596 L54.0247,54.2596 L50.7747,54.2596 C49.2380439,54.2596 47.9503084,55.3263301 47.6116837,56.7596 Z M77.9822641,45.2944794 C78.8376796,44.3742764 79.6952792,43.3105313 80.4949968,42.1210871 C82.7585012,38.7545084 84.1073,35.0829334 84.1073,31.2364 C84.1073,27.5354522 81.4753526,24.9994 77.8723,24.9994 L77.6923,24.9994 C74.0892474,24.9994 71.4573,27.5354522 71.4573,31.2364 C71.4573,35.0829334 72.8060988,38.7545084 75.0696032,42.1210871 C75.8693208,43.3105313 76.7269204,44.3742764 77.5823359,45.2944794 C77.6502089,45.3674929 77.7168937,45.4383216 77.7823,45.5069404 C77.8477063,45.4383216 77.9143911,45.3674929 77.9822641,45.2944794 Z M79.7747,31.4613 C79.7747,30.3115847 78.8424153,29.3793 77.6927,29.3793 C76.5432759,29.3793 75.6117,30.3112936 75.6117,31.4613 C75.6117,32.6113064 76.5432759,33.5433 77.6927,33.5433 C78.8424153,33.5433 79.7747,32.6110153 79.7747,31.4613 Z M81.7747,31.4613 C81.7747,33.7155847 79.9469847,35.5433 77.6927,35.5433 C75.4385056,35.5433 73.6117,33.7156752 73.6117,31.4613 C73.6117,29.2069248 75.4385056,27.3793 77.6927,27.3793 C79.9469847,27.3793 81.7747,29.2070153 81.7747,31.4613 Z" id="Curbside-Pickup" fill="#2F313A" fill-rule="nonzero"></path>
    </g>
</svg>