<?xml version="1.0" encoding="UTF-8"?>
<svg width="100px" height="100px" viewBox="0 0 100 100" version="1.1" xmlns="http://www.w3.org/2000/svg" xmlns:xlink="http://www.w3.org/1999/xlink">
    <!-- Generator: Sketch 59.1 (86144) - https://sketch.com -->
    <title>Vector Files/100x100/Flattened/Delivery/Delivery by Carrier</title>
    <desc>Created with Sketch.</desc>
    <g id="100x100/Flattened/Delivery/Delivery-by-Carrier" stroke="none" stroke-width="1" fill="none" fill-rule="evenodd">
        <path d="M30.993938,45.5479 C34.8596084,51.6334951 41.567658,55.7361361 49.25,55.987736 L49.25,45.7017 C49.25,45.6489863 49.2554383,45.5975429 49.2657844,45.5479 L30.993938,45.5479 L30.993938,45.5479 Z M30.1204624,44.0479 L69.8795376,44.0479 C71.5522467,40.9018595 72.5,37.311627 72.5,33.5 C72.5,21.0734271 62.4265729,11 50,11 C37.5734271,11 27.5,21.0734271 27.5,33.5 C27.5,37.311627 28.4477533,40.9018595 30.1204624,44.0479 L30.1204624,44.0479 Z M69.006062,45.5479 L50.7342156,45.5479 C50.7445617,45.5975429 50.75,45.6489863 50.75,45.7017 L50.75,55.987736 C58.432342,55.7361361 65.1403916,51.6334951 69.006062,45.5479 L69.006062,45.5479 Z M50.75,58.9891877 L50.75,65.6632271 L60.0510916,56.9427254 C57.1837241,58.1737074 54.045212,58.894008 50.75,58.9891824 L50.75,58.9891877 Z M49.25,58.9891824 C45.9544078,58.8939971 42.8155516,58.1735411 39.9479158,56.9422992 L49.25,65.6637271 L49.25,58.9891877 L49.25,58.9891824 Z M52.0505905,66.5 L70,66.5 C70.8284271,66.5 71.5,67.1715729 71.5,68 L71.5,74 C71.5,74.8284271 70.8284271,75.5 70,75.5 L69.5,75.5 L69.5,92 C69.5,92.8284271 68.8284271,93.5 68,93.5 L32,93.5 C31.1715729,93.5 30.5,92.8284271 30.5,92 L30.5,75.5 L30,75.5 C29.1715729,75.5 28.5,74.8284271 28.5,74 L28.5,68 C28.5,67.1715729 29.1715729,66.5 30,66.5 L47.9488762,66.5 L33.3787623,52.8393772 C27.9425163,48.1629305 24.5,41.2335426 24.5,33.5 C24.5,19.4165729 35.9165729,8 50,8 C64.0834271,8 75.5,19.4165729 75.5,33.5 C75.5,41.2365962 72.0547645,48.1684027 66.6147971,52.8449158 L52.0505905,66.5 Z M33.5,75.5 L33.5,90.5 L49.25,90.5 L49.25,82 C49.25,81.5857864 49.5857864,81.25 50,81.25 C50.4142136,81.25 50.75,81.5857864 50.75,82 L50.75,90.5 L66.5,90.5 L66.5,75.5 L33.5,75.5 Z M49.25,78 C49.25,77.5857864 49.5857864,77.25 50,77.25 C50.4142136,77.25 50.75,77.5857864 50.75,78 L50.75,79.151 C50.75,79.5652136 50.4142136,79.901 50,79.901 C49.5857864,79.901 49.25,79.5652136 49.25,79.151 L49.25,78 Z M62.178,80.2021 C62.5124244,80.2021 62.783,79.9312485 62.783,79.5961 C62.783,79.2609515 62.5124244,78.9901 62.178,78.9901 L56.755,78.9901 C56.4205756,78.9901 56.15,79.2609515 56.15,79.5961 C56.15,79.9312485 56.4205756,80.2021 56.755,80.2021 L62.178,80.2021 Z M62.178,81.7021 L56.755,81.7021 C55.591806,81.7021 54.65,80.7593335 54.65,79.5961 C54.65,78.4328665 55.591806,77.4901 56.755,77.4901 L62.178,77.4901 C63.341194,77.4901 64.283,78.4328665 64.283,79.5961 C64.283,80.7593335 63.341194,81.7021 62.178,81.7021 Z M31.5,72.5 L68.5,72.5 L68.5,69.5 L31.5,69.5 L31.5,72.5 Z M44.2220781,16.4471882 C43.6989605,16.6242939 43.1313174,16.3437958 42.9542118,15.8206781 C42.7771061,15.2975605 43.0576042,14.7299174 43.5807219,14.5528118 C45.6317032,13.8584356 47.7923915,13.5 50.0004,13.5 C50.5526847,13.5 51.0004,13.9477153 51.0004,14.5 C51.0004,15.0522847 50.5526847,15.5 50.0004,15.5 C48.011302,15.5 46.067207,15.8225051 44.2220781,16.4471882 Z M32,33.5 C32,34.0522847 31.5522847,34.5 31,34.5 C30.4477153,34.5 30,34.0522847 30,33.5 C30,26.7182956 33.4028249,20.5125881 38.9466889,16.8300253 C39.4067281,16.52444 40.0273894,16.6496497 40.3329747,17.1096889 C40.63856,17.5697281 40.5133503,18.1903894 40.0533111,18.4959747 C35.0617141,21.811689 32,27.3953152 32,33.5 Z" id="Delivery-by-Carrier" fill="#2F313A" fill-rule="nonzero"></path>
    </g>
</svg>