<?xml version="1.0" encoding="UTF-8"?>
<svg width="100px" height="100px" viewBox="0 0 100 100" version="1.1" xmlns="http://www.w3.org/2000/svg" xmlns:xlink="http://www.w3.org/1999/xlink">
    <!-- Generator: Sketch 59.1 (86144) - https://sketch.com -->
    <title>Vector Files/100x100/Flattened/Delivery/Delivery by Farm</title>
    <desc>Created with Sketch.</desc>
    <g id="100x100/Flattened/Delivery/Delivery-by-Farm" stroke="none" stroke-width="1" fill="none" fill-rule="evenodd">
        <path d="M13.25,48.3212 L10.0001,48.3212 L10.0001,59.591 C10.0001,62.0232259 11.9912002,64 14.4521,64 C14.4797037,64 14.5071333,64.0007456 14.5343696,64.0022178 C15.1987378,59.9701284 18.700637,56.8945 22.9209,56.8945 C27.1167195,56.8945 30.6024727,59.934604 31.2956013,63.9322539 C31.4035903,63.9075494 31.5160212,63.8945 31.6315,63.8945 L37.8858689,63.8945 C38.5944782,59.915686 42.0719401,56.8945 46.2539,56.8945 C50.4733891,56.8945 53.974778,59.9690006 54.6400647,64 L57.0001,64 L57.0001,48.3212 L14.75,48.3212 L14.75,54 C14.75,54.4142136 14.4142136,54.75 14,54.75 C13.5857864,54.75 13.25,54.4142136 13.25,54 L13.25,48.3212 Z M13.25,46.8212 L13.25,44 C13.25,43.5857864 13.5857864,43.25 14,43.25 C14.4142136,43.25 14.75,43.5857864 14.75,44 L14.75,46.8212 L57.0001,46.8212 L57.0001,41 L10.0001,41 L10.0001,46.8212 L13.25,46.8212 Z M89.9602017,45.25 L78.9349,45.25 L78.9349,46.1893 C78.9349,46.571438 79.2444652,46.8813 79.6259,46.8813 L89.9995,46.8813 L89.9995,46.348 C89.9995,45.9788244 89.9862534,45.6126787 89.9602017,45.25 L89.9602017,45.25 Z M89.7769905,43.75 C89.3071649,41.0379935 88.1143969,38.5678829 86.4003805,36.5393 L79.6269,36.5393 C79.2444652,36.5393 78.9349,36.8491619 78.9349,37.2323 L78.9349,43.75 L89.7769905,43.75 Z M69.4613,45.2490188 L69.4613,46.1903 C69.4613,46.5725125 69.7699395,46.8813 70.1523,46.8813 L73.1903,46.8813 C73.5720864,46.8813 73.8813,46.5720864 73.8813,46.1903 L73.8813,45.25 L69.5,45.25 C69.4870204,45.25 69.4741177,45.2496703 69.4613,45.2490188 L69.4613,45.2490188 Z M69.4613,43.7509812 C69.4741177,43.7503297 69.4870204,43.75 69.5,43.75 L73.8813,43.75 L73.8813,37.2313 C73.8813,36.8485877 73.5721605,36.5393 73.1903,36.5393 L70.1523,36.5393 C69.7698656,36.5393 69.4613,36.8481615 69.4613,37.2313 L69.4613,43.7509812 L69.4613,43.7509812 Z M89.9995,48.3813 L79.6259,48.3813 C78.4157161,48.3813 77.4349,47.3995435 77.4349,46.1893 L77.4349,37.2323 C77.4349,36.0210562 78.4157163,35.0393 79.6269,35.0393 L84.9493952,35.0393 C82.174646,32.5314416 78.4737616,31 74.4075,31 L66.0965,31 C65.4909925,31 64.9995,31.4913618 64.9995,32.096 L64.9995,64 L67.0347353,64 C67.4394626,61.5477407 68.8938029,59.449472 70.9209,58.18205 L70.9209,52.8916 C70.9209,52.4773864 71.2566864,52.1416 71.6709,52.1416 C72.0851136,52.1416 72.4209,52.4773864 72.4209,52.8916 L72.4209,57.4390518 C73.353782,57.0870855 74.3648502,56.8945 75.4209,56.8945 C79.6403891,56.8945 83.141778,59.9690006 83.8070647,64 L89.9995,64 L89.9995,61.3813 L85.8818,61.3813 C85.0533729,61.3813 84.3818,60.7097271 84.3818,59.8813 C84.3818,59.0528729 85.0533729,58.3813 85.8818,58.3813 L89.9995,58.3813 L89.9995,48.3813 L89.9995,48.3813 Z M57.9792698,38 L58.5001,38 C59.3285271,38 60.0001,38.6715729 60.0001,39.5 L60.0001,65.5 C60.0001,66.3284271 59.3285271,67 58.5001,67 L54.6024926,67 C53.8518555,70.9267977 50.3994557,73.8945 46.2539,73.8945 C42.0719401,73.8945 38.5944782,70.873314 37.8858689,66.8945 L31.6315,66.8945 C31.5160212,66.8945 31.4035903,66.8814506 31.2956013,66.8567461 C30.6024727,70.854396 27.1167195,73.8945 22.9209,73.8945 C18.773699,73.8945 15.3202041,70.9244415 14.5714149,66.995324 C14.532051,66.9984218 14.4922598,67 14.4521,67 C10.339176,67 7.0001,63.6849489 7.0001,59.591 L7.0001,39.5 C7.0001,38.6715729 7.67167288,38 8.5001,38 L9.02073022,38 C9.55614317,31.5690171 20.3938898,27 33.5,27 C46.6061102,27 57.4438568,31.5690171 57.9792698,38 L57.9792698,38 Z M54.9582597,38 C54.2643275,33.8349449 45.0023076,30 33.5,30 C21.9976924,30 12.7356725,33.8349449 12.0417403,38 L54.9582597,38 L54.9582597,38 Z M83.7694926,67 C83.0188555,70.9267977 79.5664557,73.8945 75.4209,73.8945 C71.2753443,73.8945 67.8229445,70.9267977 67.0723074,67 L63.4995,67 C62.6710729,67 61.9995,66.3284271 61.9995,65.5 L61.9995,32.096 C61.9995,29.8343289 63.8343169,28 66.0965,28 L74.4075,28 C84.6710577,28 92.9995,36.209628 92.9995,46.348 L92.9995,65.5 C92.9995,66.3284271 92.3279271,67 91.4995,67 L83.7694926,67 L83.7694926,67 Z M28.4209,65.3945 C28.4209,62.3569271 25.9584729,59.8945 22.9209,59.8945 C19.8833271,59.8945 17.4209,62.3569271 17.4209,65.3945 C17.4209,68.4320729 19.8833271,70.8945 22.9209,70.8945 C25.9584729,70.8945 28.4209,68.4320729 28.4209,65.3945 Z M24.1709,65.5 C24.1709,64.8102136 23.6106864,64.25 22.9209,64.25 C22.2311136,64.25 21.6709,64.8102136 21.6709,65.5 C21.6709,66.1903831 22.2307102,66.75 22.9209,66.75 C23.6110898,66.75 24.1709,66.1903831 24.1709,65.5 Z M25.6709,65.5 C25.6709,67.0189263 24.439401,68.25 22.9209,68.25 C21.402399,68.25 20.1709,67.0189263 20.1709,65.5 C20.1709,63.9817864 21.4026864,62.75 22.9209,62.75 C24.4391136,62.75 25.6709,63.9817864 25.6709,65.5 Z M47.5039,65.3945 C47.5039,64.7043102 46.9442831,64.1445 46.2539,64.1445 C45.5641136,64.1445 45.0039,64.7047136 45.0039,65.3945 C45.0039,66.0848831 45.5637102,66.6445 46.2539,66.6445 C46.9446864,66.6445 47.5039,66.0852864 47.5039,65.3945 Z M49.0039,65.3945 C49.0039,66.9137136 47.7731136,68.1445 46.2539,68.1445 C44.735399,68.1445 43.5039,66.9134263 43.5039,65.3945 C43.5039,63.8762864 44.7356864,62.6445 46.2539,62.6445 C47.7728263,62.6445 49.0039,63.875999 49.0039,65.3945 Z M76.6709,65.3945 C76.6709,64.7047136 76.1106864,64.1445 75.4209,64.1445 C74.7311136,64.1445 74.1709,64.7047136 74.1709,65.3945 C74.1709,66.0848831 74.7307102,66.6445 75.4209,66.6445 C76.1110898,66.6445 76.6709,66.0848831 76.6709,65.3945 Z M78.1709,65.3945 C78.1709,66.9134263 76.939401,68.1445 75.4209,68.1445 C73.902399,68.1445 72.6709,66.9134263 72.6709,65.3945 C72.6709,63.8762864 73.9026864,62.6445 75.4209,62.6445 C76.9391136,62.6445 78.1709,63.8762864 78.1709,65.3945 Z M51.7539,65.3945 C51.7539,62.3569271 49.2914729,59.8945 46.2539,59.8945 C43.2169486,59.8945 40.7539,62.3573056 40.7539,65.3945 C40.7539,68.4316944 43.2169486,70.8945 46.2539,70.8945 C49.2914729,70.8945 51.7539,68.4320729 51.7539,65.3945 Z M80.9209,65.3945 C80.9209,62.3569271 78.4584729,59.8945 75.4209,59.8945 C72.3833271,59.8945 69.9209,62.3569271 69.9209,65.3945 C69.9209,68.4320729 72.3833271,70.8945 75.4209,70.8945 C78.4584729,70.8945 80.9209,68.4320729 80.9209,65.3945 Z M87.4736,54.7368 C87.4736,55.2890847 87.0258847,55.7368 86.4736,55.7368 C85.9213153,55.7368 85.4736,55.2890847 85.4736,54.7368 L85.4736,53.5528 C85.4736,53.0005153 85.9213153,52.5528 86.4736,52.5528 C87.0258847,52.5528 87.4736,53.0005153 87.4736,53.5528 L87.4736,54.7368 Z M70.1523,48.3813 C68.9413513,48.3813 67.9613,47.4007786 67.9613,46.1903 L67.9613,37.2313 C67.9613,36.0200562 68.9411163,35.0393 70.1523,35.0393 L73.1903,35.0393 C74.4007486,35.0393 75.3813,36.0203215 75.3813,37.2313 L75.3813,46.1903 C75.3813,47.4005136 74.4005136,48.3813 73.1903,48.3813 L70.1523,48.3813 Z M44.7363,32.7172 C44.8223,33.2012 44.4993,33.6642 44.0153,33.7502 C43.5313,33.8362 43.0683,33.5132 42.9823,33.0292 C42.8963,32.5452 43.2183,32.0832 43.7033,31.9962 C44.1873,31.9102 44.6493,32.2332 44.7363,32.7172 Z M48.4795,34.0766 C48.5655,34.5606 48.2435,35.0236 47.7585,35.1096 C47.2745,35.1956 46.8125,34.8726 46.7255,34.3886 C46.6395,33.9046 46.9625,33.4426 47.4465,33.3556 C47.9305,33.2696 48.3935,33.5926 48.4795,34.0766 Z M45.1455,36.2558 C45.2325,36.7398 44.9095,37.2028 44.4245,37.2888 C43.9415,37.3748 43.4785,37.0518 43.3925,36.5678 C43.3055,36.0838 43.6285,35.6218 44.1135,35.5348 C44.5965,35.4488 45.0595,35.7718 45.1455,36.2558 Z" id="Delivery-by-Farm" fill="#2F313A" fill-rule="nonzero"></path>
    </g>
</svg>