<?xml version="1.0" encoding="UTF-8"?>
<svg width="100px" height="100px" viewBox="0 0 100 100" version="1.1" xmlns="http://www.w3.org/2000/svg" xmlns:xlink="http://www.w3.org/1999/xlink">
    <!-- Generator: Sketch 59.1 (86144) - https://sketch.com -->
    <title>Vector Files/100x100/Flattened/Delivery/Pickup Point</title>
    <desc>Created with Sketch.</desc>
    <g id="100x100/Flattened/Delivery/Pickup-Point" stroke="none" stroke-width="1" fill="none" fill-rule="evenodd">
        <path d="M81.3175,75.0101 L86.5,75.0101 C87.3284271,75.0101 88,75.6816729 88,76.5101 C88,77.3385271 87.3284271,78.0101 86.5,78.0101 L12,78.0101 C11.1715729,78.0101 10.5,77.3385271 10.5,76.5101 C10.5,75.6816729 11.1715729,75.0101 12,75.0101 L14.6661,75.0101 L14.6661,63.0102 L14.4997,63.0102 C13.6712729,63.0102 12.9997,62.3386271 12.9997,61.5102 L12.9997,56.5102 C12.9997,55.6817729 13.6712729,55.0102 14.4997,55.0102 L25.6661,55.0102 L25.6661,43.0102 L25.4997,43.0102 C24.6712729,43.0102 23.9997,42.3386271 23.9997,41.5102 L23.9997,36.5102 C23.9997,35.6817729 24.6712729,35.0102 25.4997,35.0102 L58.8327,35.0102 C59.6611271,35.0102 60.3327,35.6817729 60.3327,36.5102 L60.3327,41.5102 C60.3327,42.3386271 59.6611271,43.0102 58.8327,43.0102 L58.6661,43.0102 L58.6661,55.0101 L69.8331,55.0101 C70.6615271,55.0101 71.3331,55.6816729 71.3331,56.5101 L71.3331,61.5101 C71.3331,62.3385271 70.6615271,63.0101 69.8331,63.0101 L69.6661,63.0101 L69.6661,75.0101 L78.3175,75.0101 L78.3175,48.2485396 C78.0710286,48.0106101 77.770431,47.7060306 77.4279766,47.3376394 C76.4705015,46.307647 75.5152105,45.122728 74.6228968,43.7955629 C72.0520262,39.9718291 70.5002,35.7475916 70.5002,31.237 C70.5002,25.8537731 74.499695,22 79.7352,22 L79.9152,22 C85.150705,22 89.1502,25.8537731 89.1502,31.237 C89.1502,35.7475916 87.5983738,39.9718291 85.0275032,43.7955629 C84.1351895,45.122728 83.1798985,46.307647 82.2224234,47.3376394 C81.8728037,47.7137386 81.5668106,48.023328 81.3175,48.263387 L81.3175,75.0101 L81.3175,75.0101 Z M17.6661,75.0101 L30.4161,75.0101 L30.4161,68.1766 C30.4161,67.7623864 30.7518864,67.4266 31.1661,67.4266 C31.5803136,67.4266 31.9161,67.7623864 31.9161,68.1766 L31.9161,75.0101 L44.6661,75.0101 L44.6661,63.0102 L17.6661,63.0102 L17.6661,75.0101 Z M47.6661,75.0101 L52.4161,75.0101 L52.4161,68.1766 C52.4161,67.7623864 52.7518864,67.4266 53.1661,67.4266 C53.5803136,67.4266 53.9161,67.7623864 53.9161,68.1766 L53.9161,75.0101 L66.6661,75.0101 L66.6661,63.0101 L47.8502015,63.0101 C47.8443756,63.0101 47.8385417,63.0101 47.8327,63.0101 L47.6661,63.0101 L47.6661,75.0101 Z M45.9825985,60.0102 C45.9884244,60.0101334 45.9942583,60.0101 46.0001,60.0101 L46.3327,60.0101 L46.3327,58.0102 L15.9997,58.0102 L15.9997,60.0102 L16.1485985,60.0102 C16.1544244,60.0101334 16.1602583,60.0101 16.1661,60.0101 C16.1719417,60.0101 16.1777756,60.0101334 16.1836015,60.0102 L45.9825985,60.0102 L45.9825985,60.0102 Z M49.3327,60.0101 L68.3331,60.0101 L68.3331,58.0101 L49.3327,58.0101 L49.3327,60.0101 L49.3327,60.0101 Z M42.9161,55.0101 L55.6661,55.0101 L55.6661,43.0102 L28.6661,43.0102 L28.6661,55.0101 L41.4161,55.0101 L41.4161,48.1766 C41.4161,47.7623864 41.7518864,47.4266 42.1661,47.4266 C42.5803136,47.4266 42.9161,47.7623864 42.9161,48.1766 L42.9161,55.0101 Z M58.0001,67.5101 C57.4478153,67.5101 57.0001,67.0623847 57.0001,66.5101 C57.0001,65.9578153 57.4478153,65.5101 58.0001,65.5101 L64.0001,65.5101 C64.5523847,65.5101 65.0001,65.9578153 65.0001,66.5101 C65.0001,67.0623847 64.5523847,67.5101 64.0001,67.5101 L58.0001,67.5101 Z M52.4161,65.2586 C52.4161,64.8443864 52.7518864,64.5086 53.1661,64.5086 C53.5803136,64.5086 53.9161,64.8443864 53.9161,65.2586 L53.9161,66.2176 C53.9161,66.6318136 53.5803136,66.9676 53.1661,66.9676 C52.7518864,66.9676 52.4161,66.6318136 52.4161,66.2176 L52.4161,65.2586 Z M27.1836015,40.0102 L57.1485985,40.0102 C57.1544244,40.0101334 57.1602583,40.0101 57.1661,40.0101 C57.1719417,40.0101 57.1777756,40.0101334 57.1836015,40.0102 L57.3327,40.0102 L57.3327,38.0102 L26.9997,38.0102 L26.9997,40.0102 L27.1485985,40.0102 C27.1544244,40.0101334 27.1602583,40.0101 27.1661,40.0101 C27.1719417,40.0101 27.1777756,40.0101334 27.1836015,40.0102 L27.1836015,40.0102 Z M41.4161,45.2586 C41.4161,44.8443864 41.7518864,44.5086 42.1661,44.5086 C42.5803136,44.5086 42.9161,44.8443864 42.9161,45.2586 L42.9161,46.2176 C42.9161,46.6318136 42.5803136,46.9676 42.1661,46.9676 C41.7518864,46.9676 41.4161,46.6318136 41.4161,46.2176 L41.4161,45.2586 Z M47.0001,47.5101 C46.4478153,47.5101 46.0001,47.0623847 46.0001,46.5101 C46.0001,45.9578153 46.4478153,45.5101 47.0001,45.5101 L53.0001,45.5101 C53.5523847,45.5101 54.0001,45.9578153 54.0001,46.5101 C54.0001,47.0623847 53.5523847,47.5101 53.0001,47.5101 L47.0001,47.5101 Z M30.4161,65.2586 C30.4161,64.8443864 30.7518864,64.5086 31.1661,64.5086 C31.5803136,64.5086 31.9161,64.8443864 31.9161,65.2586 L31.9161,66.2176 C31.9161,66.6318136 31.5803136,66.9676 31.1661,66.9676 C30.7518864,66.9676 30.4161,66.6318136 30.4161,66.2176 L30.4161,65.2586 Z M36,67.5101 C35.4477153,67.5101 35,67.0623847 35,66.5101 C35,65.9578153 35.4477153,65.5101 36,65.5101 L42,65.5101 C42.5522847,65.5101 43,65.9578153 43,66.5101 C43,67.0623847 42.5522847,67.5101 42,67.5101 L36,67.5101 Z M80.0251641,45.2950794 C80.8805796,44.3748764 81.7381792,43.3111313 82.5378968,42.1216871 C84.8014012,38.7551084 86.1502,35.0835334 86.1502,31.237 C86.1502,27.5360522 83.5182526,25 79.9152,25 L79.7352,25 C76.1321474,25 73.5002,27.5360522 73.5002,31.237 C73.5002,35.0835334 74.8489988,38.7551084 77.1125032,42.1216871 C77.9122208,43.3111313 78.7698204,44.3748764 79.6252359,45.2950794 C79.6931089,45.3680929 79.7597937,45.4389216 79.8252,45.5075404 C79.8906063,45.4389216 79.9572911,45.3680929 80.0251641,45.2950794 Z M81.8175,31.4618 C81.8175,30.3120847 80.8852153,29.3798 79.7355,29.3798 C78.5860759,29.3798 77.6545,30.3117936 77.6545,31.4618 C77.6545,32.6118064 78.5860759,33.5438 79.7355,33.5438 C80.8852153,33.5438 81.8175,32.6115153 81.8175,31.4618 Z M83.8175,31.4618 C83.8175,33.7160847 81.9897847,35.5438 79.7355,35.5438 C77.4813056,35.5438 75.6545,33.7161752 75.6545,31.4618 C75.6545,29.2074248 77.4813056,27.3798 79.7355,27.3798 C81.9897847,27.3798 83.8175,29.2075153 83.8175,31.4618 Z" id="Shape" fill="#2F313A" fill-rule="nonzero"></path>
    </g>
</svg>