<?xml version="1.0" encoding="UTF-8"?>
<svg width="40px" height="40px" viewBox="0 0 40 40" version="1.1" xmlns="http://www.w3.org/2000/svg" xmlns:xlink="http://www.w3.org/1999/xlink">
    <!-- Generator: Sketch 59.1 (86144) - https://sketch.com -->
    <title>Vector Files/Alt/40x40/Flattened/Delivery/At Work(Filled)</title>
    <desc>Created with Sketch.</desc>
    <g id="Alt/40x40/Flattened/Delivery/At-Work(Filled)" stroke="none" stroke-width="1" fill="none" fill-rule="evenodd">
        <path d="M6.85714286,31.625 C6.38375593,31.625 6,31.2332492 6,30.75 C6,30.2667508 6.38375593,29.875 6.85714286,29.875 L10.4020554,29.875 C10.2517494,29.6570582 12.0241214,32.0153063 11.7088892,31.625 L6.85714286,31.625 Z M7.71428571,31.625 C7.24089879,31.625 6.85714286,31.2332492 6.85714286,30.75 L6.85714286,8.875 C6.85714286,8.39175084 7.24089879,8 7.71428571,8 L17.1428571,8 C17.6162441,8 18,8.39175084 18,8.875 L18,11.5 L22.2857143,11.5 C22.7591012,11.5 23.1428571,11.8917508 23.1428571,12.375 L23.1428571,31.625 L7.71428571,31.625 Z M8.57142857,11.5 L16.2857143,11.5 L16.2857143,9.75 L8.57142857,9.75 L8.57142857,11.5 Z M14.5774286,26.375 L10.2857143,26.375 C9.81232736,26.375 9.42857143,26.7667508 9.42857143,27.25 C9.42857143,27.7332492 9.81232736,28.125 10.2857143,28.125 L14.5774286,28.125 L14.5774286,26.375 Z M15.4345714,26.375 L15.4345714,28.125 L19.7142857,28.125 C20.1876726,28.125 20.5714286,27.7332492 20.5714286,27.25 C20.5714286,26.7667508 20.1876726,26.375 19.7142857,26.375 L15.4345714,26.375 Z M14.5774286,21.125 L10.2857143,21.125 C9.81232736,21.125 9.42857143,21.5167508 9.42857143,22 C9.42857143,22.4832492 9.81232736,22.875 10.2857143,22.875 L14.5774286,22.875 L14.5774286,21.125 Z M15.4345714,21.125 L15.4345714,22.875 L19.7142857,22.875 C20.1876726,22.875 20.5714286,22.4832492 20.5714286,22 C20.5714286,21.5167508 20.1876726,21.125 19.7142857,21.125 L15.4345714,21.125 Z M14.5774286,15.875 L10.2857143,15.875 C9.81232736,15.875 9.42857143,16.2667508 9.42857143,16.75 C9.42857143,17.2332492 9.81232736,17.625 10.2857143,17.625 L14.5774286,17.625 L14.5774286,15.875 Z M15.4345714,15.875 L15.4345714,17.625 L19.7142857,17.625 C20.1876726,17.625 20.5714286,17.2332492 20.5714286,16.75 C20.5714286,16.2667508 20.1876726,15.875 19.7142857,15.875 L15.4345714,15.875 Z M30.6347379,22.21875 L31.8461538,22.21875 C32.1778821,22.21875 32.4551373,22.4764197 32.4861885,22.8135722 L33.1365346,29.875 L33.2904576,29.875 C33.7638445,29.875 34.1476004,30.2667508 34.1476004,30.75 C34.1476004,31.2332492 33.7638445,31.625 33.2904576,31.625 L20.5714286,31.625 C20.0980416,31.625 19.7142857,31.2332492 19.7142857,30.75 C19.7142857,30.2667508 20.0980416,29.875 20.5714286,29.875 L22.5777512,29.875 L23.2280972,22.8135722 C23.2591484,22.4764197 23.5364036,22.21875 23.8681319,22.21875 L25.0795478,22.21875 C25.1889674,20.7504021 26.3907365,19.59375 27.8571429,19.59375 C29.3235492,19.59375 30.5253183,20.7504021 30.6347379,22.21875 L30.6347379,22.21875 Z M29.3419524,22.21875 C29.2379746,21.4766857 28.6128154,20.90625 27.8571429,20.90625 C27.1014703,20.90625 26.4763111,21.4766857 26.3723333,22.21875 L29.3419524,22.21875 Z" id="Combined-Shape" fill="#2F313A" fill-rule="nonzero"></path>
    </g>
</svg>