<?xml version="1.0" encoding="UTF-8"?>
<svg width="40px" height="40px" viewBox="0 0 40 40" version="1.1" xmlns="http://www.w3.org/2000/svg" xmlns:xlink="http://www.w3.org/1999/xlink">
    <!-- Generator: Sketch 59.1 (86144) - https://sketch.com -->
    <title>Vector Files/Alt/40x40/Flattened/Delivery/At_Work</title>
    <desc>Created with Sketch.</desc>
    <g id="Alt/40x40/Flattened/Delivery/At_Work" stroke="none" stroke-width="1" fill="none" fill-rule="evenodd">
        <path d="M28.2955661,20.2685185 C29.858477,20.2685185 31.1393347,21.492489 31.2559553,23.0462963 L32.5470947,23.0462963 C32.9006541,23.0462963 33.1961555,23.3189626 33.2292502,23.6757377 L33.9223957,31.1481481 L34.0864484,31.1481481 C34.590989,31.1481481 35,31.5626993 35,32.0740741 C35,32.5854488 34.590989,33 34.0864484,33 L5.91355161,33 C5.40901099,33 5,32.5854488 5,32.0740741 C5,31.5626993 5.40901099,31.1481481 5.91355161,31.1481481 L18.5792766,31.1481481 L22.6687365,31.1481481 L23.3618819,23.6757377 C23.3949766,23.3189626 23.690478,23.0462963 24.0440374,23.0462963 L25.3351769,23.0462963 C25.4517974,21.492489 26.7326552,20.2685185 28.2955661,20.2685185 Z M29.8780912,23.0462963 C29.7672706,22.261043 29.1009696,21.6574074 28.2955661,21.6574074 C27.4901625,21.6574074 26.8238615,22.261043 26.7130409,23.0462963 L29.8780912,23.0462963 Z M25.3265233,24.4351852 L24.6678055,24.4351852 L24.0451069,31.1481481 L32.5460253,31.1481481 L31.9233266,24.4351852 L31.2646088,24.4351852 L31.2646088,24.6666667 C31.2646088,25.0501977 30.9578506,25.3611111 30.5794451,25.3611111 C30.2010396,25.3611111 29.8942814,25.0501977 29.8942814,24.6666667 L29.8942814,24.4351852 L26.6968507,24.4351852 L26.6968507,24.6666667 C26.6968507,25.0501977 26.3900925,25.3611111 26.011687,25.3611111 C25.6332816,25.3611111 25.3265233,25.0501977 25.3265233,24.6666667 L25.3265233,24.4351852 Z M5.91355161,32.0740741 L5.91355161,8.92592593 C5.91355161,8.41455116 6.3225626,8 6.82710322,8 L16.8761709,8 C17.3807116,8 17.7897225,8.41455116 17.7897225,8.92592593 L17.7897225,11.7037037 L22.3574806,11.7037037 C22.8620212,11.7037037 23.2710322,12.1182549 23.2710322,12.6296296 L23.2710322,32.0740741 C23.2710322,32.5854488 22.8620212,33 22.3574806,33 C21.85294,33 21.443929,32.5854488 21.443929,32.0740741 L21.443929,13.5555556 L7.74065483,13.5555556 L7.74065483,32.0740741 C7.74065483,32.5854488 7.33164384,33 6.82710322,33 C6.3225626,33 5.91355161,32.5854488 5.91355161,32.0740741 Z M7.74065483,11.7037037 L15.9626193,11.7037037 L15.9626193,9.85185185 L7.74065483,9.85185185 L7.74065483,11.7037037 Z M14.141911,29.2962963 L14.141911,27.4444444 L9.56775805,27.4444444 L9.56775805,29.2962963 L14.141911,29.2962963 Z M15.0554626,29.2962963 L19.6168258,29.2962963 L19.6168258,27.4444444 L15.0554626,27.4444444 L15.0554626,29.2962963 Z M14.141911,23.7407407 L14.141911,21.8888889 L9.56775805,21.8888889 L9.56775805,23.7407407 L14.141911,23.7407407 Z M15.0554626,23.7407407 L19.6168258,23.7407407 L19.6168258,21.8888889 L15.0554626,21.8888889 L15.0554626,23.7407407 Z M14.141911,18.1851852 L14.141911,16.3333333 L9.56775805,16.3333333 L9.56775805,18.1851852 L14.141911,18.1851852 Z M15.0554626,18.1851852 L19.6168258,18.1851852 L19.6168258,16.3333333 L15.0554626,16.3333333 L15.0554626,18.1851852 Z M9.56775805,15.4074074 L19.6168258,15.4074074 C20.1213664,15.4074074 20.5303774,15.8219586 20.5303774,16.3333333 L20.5303774,18.1851852 C20.5303774,18.69656 20.1213664,19.1111111 19.6168258,19.1111111 L9.56775805,19.1111111 C9.06321743,19.1111111 8.65420644,18.69656 8.65420644,18.1851852 L8.65420644,16.3333333 C8.65420644,15.8219586 9.06321743,15.4074074 9.56775805,15.4074074 Z M9.56775805,20.962963 L19.6168258,20.962963 C20.1213664,20.962963 20.5303774,21.3775141 20.5303774,21.8888889 L20.5303774,23.7407407 C20.5303774,24.2521155 20.1213664,24.6666667 19.6168258,24.6666667 L9.56775805,24.6666667 C9.06321743,24.6666667 8.65420644,24.2521155 8.65420644,23.7407407 L8.65420644,21.8888889 C8.65420644,21.3775141 9.06321743,20.962963 9.56775805,20.962963 Z M9.56775805,26.5185185 L19.6168258,26.5185185 C20.1213664,26.5185185 20.5303774,26.9330697 20.5303774,27.4444444 L20.5303774,29.2962963 C20.5303774,29.8076711 20.1213664,30.2222222 19.6168258,30.2222222 L9.56775805,30.2222222 C9.06321743,30.2222222 8.65420644,29.8076711 8.65420644,29.2962963 L8.65420644,27.4444444 C8.65420644,26.9330697 9.06321743,26.5185185 9.56775805,26.5185185 Z" id="Shape" fill="#2F313A" fill-rule="nonzero"></path>
    </g>
</svg>