<?xml version="1.0" encoding="UTF-8"?>
<svg width="40px" height="40px" viewBox="0 0 40 40" version="1.1" xmlns="http://www.w3.org/2000/svg" xmlns:xlink="http://www.w3.org/1999/xlink">
    <!-- Generator: Sketch 59.1 (86144) - https://sketch.com -->
    <title>Vector Files/40x40/Flattened/Delivery/Curbside Pickup (Filled)</title>
    <desc>Created with Sketch.</desc>
    <g id="40x40/Flattened/Delivery/Curbside-Pickup-(Filled)" stroke="none" stroke-width="1" fill="none" fill-rule="evenodd">
        <path d="M26.6610972,15.0360155 C26.4440063,15.0122161 26.2234305,15 26,15 C24.561609,15 23.2415278,15.5062908 22.2079148,16.3500597 C21.3642028,17.0388068 20.7118474,17.9527761 20.3416919,19 L19.2307692,19 C18.7149972,19 18.2415296,19.1961355 17.8848518,19.5206399 C17.5281739,19.8451444 17.2882858,20.2980179 17.2396727,20.8114938 L16.2750804,31 L6,31 C5.4124289,31 4.95148312,30.4958348 5.00400279,29.9106156 L6.61938741,11.9106156 C6.66565692,11.3950411 7.09773802,11 7.61538462,11 L10.0189448,11 C10.2742573,7.64377614 13.0783851,5 16.5,5 C19.9216149,5 22.7257427,7.64377614 22.9810552,11 L25.3846154,11 C25.902262,11 26.3343431,11.3950411 26.3806126,11.9106156 L26.6610972,15.0360155 L26.6610972,15.0360155 Z M12.0274644,11 L20.9725356,11 C20.7238135,8.75002477 18.8162768,7 16.5,7 C14.1837232,7 12.2761865,8.75002477 12.0274644,11 Z M21.1000181,20 C21.5632884,17.7177597 23.5810421,16 26,16 C28.4189579,16 30.4367116,17.7177597 30.8999819,20 L32.7692308,20 C33.2850028,20 33.7161659,20.392271 33.764779,20.9057469 L34.9955483,33.9057469 C35.0511122,34.492641 34.5895185,35 34,35 L18,35 C17.4104815,35 16.9488878,34.492641 17.0044517,33.9057469 L18.235221,20.9057469 C18.2838341,20.392271 18.7149972,20 19.2307692,20 L21.1000181,20 Z M23.1707057,20 L28.8292943,20 C28.4174579,18.8348076 27.3062188,18 26,18 C24.6937812,18 23.5825421,18.8348076 23.1707057,20 Z" id="Curbside-Pickup-(Filled)" fill="#2F313A" fill-rule="nonzero"></path>
    </g>
</svg>