<?xml version="1.0" encoding="UTF-8"?>
<svg width="40px" height="40px" viewBox="0 0 40 40" version="1.1" xmlns="http://www.w3.org/2000/svg" xmlns:xlink="http://www.w3.org/1999/xlink">
    <!-- Generator: Sketch 59.1 (86144) - https://sketch.com -->
    <title>Vector Files/40x40/Flattened/Delivery/Curbside Pickup 2 (Filled)</title>
    <desc>Created with Sketch.</desc>
    <g id="40x40/Flattened/Delivery/Curbside-Pickup-2-(Filled)" stroke="none" stroke-width="1" fill="none" fill-rule="evenodd">
        <path d="M19.139,32 L19.139,29.9999 L9.139,29.9999 L9.139,32 L19.139,32 L19.139,32 Z M21.139,32 L24,32 L24,29 C24,28.4477153 24.4477153,28 25,28 L28,28 L28,20.4864735 C27.4758824,19.9912464 26.8135029,19.2492331 26.1530856,18.2890893 C24.8116315,16.338824 24,14.1790919 24,11.865 C24,9.02996968 26.1561366,7 28.954,7 L29.046,7 C31.8445412,7 34,9.02968606 34,11.865 C34,14.1790919 33.1883685,16.338824 31.8469144,18.2890893 C31.1864971,19.2492331 30.5241176,19.9912464 30,20.4864735 L30,28 L32.2383,28 C32.7905847,28 33.2383,28.4477153 33.2383,29 C33.2383,29.5522847 32.7905847,30 32.2383,30 L26,30 L26,33 C26,33.5522847 25.5522847,34 25,34 L6.0003,34 C5.44801525,34 5.0003,33.5522847 5.0003,33 C5.0003,32.4477153 5.44801525,32 6.0003,32 L7.139,32 L7.139,29.7737681 C5.88643397,29.2850905 5,28.0582575 5,26.6258566 L5,20 L23,20 L23,26.6258566 C23,27.9497998 22.2427209,29.0981268 21.139,29.6502993 L21.139,32 Z M5,19 L5,18.1254455 C5,14.7455553 7.71285228,11.9999 11.064,11.9999 L16.936,11.9999 C20.2871477,11.9999 23,14.7455553 23,18.1254455 L23,19 L5,19 Z M9,27 L19,27 C19.2761424,27 19.5,26.7761424 19.5,26.5 C19.5,26.2238576 19.2761424,26 19,26 L9,26 C8.72385763,26 8.5,26.2238576 8.5,26.5 C8.5,26.7761424 8.72385763,27 9,27 Z M11,23 C11,22.448 10.553,22 10,22 C9.447,22 9,22.448 9,23 C9,23.552 9.447,24 10,24 C10.553,24 11,23.552 11,23 Z M19,23 C19,22.448 18.553,22 18,22 C17.447,22 17,22.448 17,23 C17,23.552 17.447,24 18,24 C18.553,24 19,23.552 19,23 Z M31,12 C31,10.896 30.106,10 29,10 C27.894,10 27,10.896 27,12 C27,13.104 27.894,14 29,14 C30.106,14 31,13.104 31,12 Z" id="Curbside-Pickup-(Filled)" fill="#2F313A" fill-rule="nonzero"></path>
    </g>
</svg>