<?xml version="1.0" encoding="UTF-8"?>
<svg width="40px" height="40px" viewBox="0 0 40 40" version="1.1" xmlns="http://www.w3.org/2000/svg" xmlns:xlink="http://www.w3.org/1999/xlink">
    <!-- Generator: Sketch 59.1 (86144) - https://sketch.com -->
    <title>Vector Files/40x40/Flattened/Delivery/Curbside Pickup 2</title>
    <desc>Created with Sketch.</desc>
    <g id="40x40/Flattened/Delivery/Curbside-Pickup-2" stroke="none" stroke-width="1" fill="none" fill-rule="evenodd">
        <path d="M21.139,32 L24,32 L24,29 C24,28.4477153 24.4477153,28 25,28 L28,28 L28,20.4864735 C27.4758824,19.9912464 26.8135029,19.2492331 26.1530856,18.2890893 C24.8116315,16.338824 24,14.1790919 24,11.865 C24,9.02996968 26.1561366,7 28.954,7 L29.046,7 C31.8445412,7 34,9.02968606 34,11.865 C34,14.1790919 33.1883685,16.338824 31.8469144,18.2890893 C31.1864971,19.2492331 30.5241176,19.9912464 30,20.4864735 L30,28 L32.2383,28 C32.7905847,28 33.2383,28.4477153 33.2383,29 C33.2383,29.5522847 32.7905847,30 32.2383,30 L26,30 L26,33 C26,33.5522847 25.5522847,34 25,34 L6.0003,34 C5.44801525,34 5.0003,33.5522847 5.0003,33 C5.0003,32.4477153 5.44801525,32 6.0003,32 L7.139,32 L7.139,29.7737681 C5.88643397,29.2850905 5,28.0582575 5,26.6258566 L5,18.1254455 C5,14.7455553 7.71285228,11.9999 11.064,11.9999 L16.936,11.9999 C20.2871477,11.9999 23,14.7455553 23,18.1254455 L23,26.6258566 C23,27.9497998 22.2427209,29.0981268 21.139,29.6502993 L21.139,32 Z M19.139,32 L19.139,29.9999 L9.139,29.9999 L9.139,32 L19.139,32 L19.139,32 Z M21,20 L7,20 L7,26.6258566 C7,27.3871089 7.60537423,27.9999 8.346,27.9999 L19.654,27.9999 C20.3946258,27.9999 21,27.3871089 21,26.6258566 L21,20 Z M21,19 L21,18.1254455 C21,15.8447797 19.1771616,13.9999 16.936,13.9999 L11.064,13.9999 C8.82283844,13.9999 7,15.8447797 7,18.1254455 L7,19 L21,19 Z M30.1990856,17.1556607 C31.3288815,15.5131135 32,13.7272831 32,11.865 C32,10.162033 30.7659597,9 29.046,9 L28.954,9 C27.2346454,9 26,10.1623997 26,11.865 C26,13.7272831 26.6711185,15.5131135 27.8009144,17.1556607 C28.1828927,17.7109977 28.5914313,18.2106761 29,18.6465572 C29.4085687,18.2106761 29.8171073,17.7109977 30.1990856,17.1556607 Z M9,27 C8.72385763,27 8.5,26.7761424 8.5,26.5 C8.5,26.2238576 8.72385763,26 9,26 L19,26 C19.2761424,26 19.5,26.2238576 19.5,26.5 C19.5,26.7761424 19.2761424,27 19,27 L9,27 Z M11,23 C11,23.552 10.553,24 10,24 C9.447,24 9,23.552 9,23 C9,22.448 9.447,22 10,22 C10.553,22 11,22.448 11,23 Z M19,23 C19,23.552 18.553,24 18,24 C17.447,24 17,23.552 17,23 C17,22.448 17.447,22 18,22 C18.553,22 19,22.448 19,23 Z M30,12 C30,12.552 29.553,13 29,13 C28.447,13 28,12.552 28,12 C28,11.448 28.447,11 29,11 C29.553,11 30,11.448 30,12 Z" id="Curbside-Pickup" fill="#2F313A" fill-rule="nonzero"></path>
    </g>
</svg>