<?xml version="1.0" encoding="UTF-8"?>
<svg width="40px" height="40px" viewBox="0 0 40 40" version="1.1" xmlns="http://www.w3.org/2000/svg" xmlns:xlink="http://www.w3.org/1999/xlink">
    <!-- Generator: Sketch 59.1 (86144) - https://sketch.com -->
    <title>Vector Files/Alt/40x40/Flattened/Delivery/Delivery by Farm 2 (Filled)</title>
    <desc>Created with Sketch.</desc>
    <g id="Alt/40x40/Flattened/Delivery/Delivery-by-Farm-2-(Filled)" stroke="none" stroke-width="1" fill="none" fill-rule="evenodd">
        <path d="M15.3708909,27 L12.8529705,27 C12.4109193,28.1059388 11.3294347,28.8877 10.0661,28.8877 C8.79885624,28.8877 7.7152843,28.1019451 7.27563433,26.9913079 C7.23230352,26.9970412 7.18809729,27 7.1432,27 C5.39369162,27 3.9992,25.5216338 3.9992,23.7275907 L3.9992,16 C3.9992,15.4477153 4.44691525,15 4.9992,15 L5.47499089,15 C5.9203615,12.4873477 9.50700417,11.0001 13.9994,11.0001 C18.4934375,11.0001 22.0804288,12.4871939 22.5258112,15 L22.9992,15 C23.5514847,15 23.9992,15.4477153 23.9992,16 L23.9992,19 L4,19 L4,20 L23.9992,20 L23.9992,26 C23.9992,26.5522847 23.5514847,27 22.9992,27 L20.9447705,27 C20.5027193,28.1059388 19.4212347,28.8877 18.1579,28.8877 C16.8939647,28.8877 15.8127434,28.1060425 15.3708909,27 Z M33.2368705,27 C32.7948193,28.1059388 31.7133347,28.8877 30.45,28.8877 C29.1866653,28.8877 28.1051807,28.1059388 27.6631295,27 L26,27 C25.4477153,27 25,26.5522847 25,26 L25,20 L36,20 L36,26 C36,26.5522847 35.5522847,27 35,27 L33.2368705,27 L33.2368705,27 Z M7.58427207,15 L20.4165232,15 C19.784874,13.9178363 17.291411,13.0001 13.9994,13.0001 C10.7088756,13.0001 8.21585606,13.9178864 7.58427207,15 Z M25,19 L25,12 C25,11.4477153 25.4477153,11 26,11 L28.895,11 C32.8361095,11 36,14.3962504 36,18.552 L36,19 L31,19 L31,16.5164044 C31,16.2312021 30.7761424,16 30.5,16 C30.2238576,16 30,16.2312021 30,16.5164044 L30,19 L25,19 Z M11.0661,25.8877 C11.0661,25.3354074 10.618238,24.8877 10.0661,24.8877 C9.51338475,24.8877 9.0661,25.3349847 9.0661,25.8877 C9.0661,26.439838 9.51380738,26.8877 10.0661,26.8877 C10.6178153,26.8877 11.0661,26.4394153 11.0661,25.8877 Z M19.1579,25.8877 C19.1579,25.3354074 18.710038,24.8877 18.1579,24.8877 C17.6051847,24.8877 17.1579,25.3349847 17.1579,25.8877 C17.1579,26.439838 17.6056074,26.8877 18.1579,26.8877 C18.7096153,26.8877 19.1579,26.4394153 19.1579,25.8877 Z M31.45,25.8877 C31.45,25.3354074 31.002138,24.8877 30.45,24.8877 C29.897862,24.8877 29.45,25.3354074 29.45,25.8877 C29.45,26.4394153 29.8982847,26.8877 30.45,26.8877 C31.0017153,26.8877 31.45,26.4394153 31.45,25.8877 Z" id="Delivery-by-Farm-(Filled)" fill="#2F313A" fill-rule="nonzero"></path>
    </g>
</svg>