<?xml version="1.0" encoding="UTF-8"?>
<svg width="40px" height="40px" viewBox="0 0 40 40" version="1.1" xmlns="http://www.w3.org/2000/svg" xmlns:xlink="http://www.w3.org/1999/xlink">
    <!-- Generator: Sketch 59.1 (86144) - https://sketch.com -->
    <title>Vector Files/40x40/Flattened/Delivery/Delivery by Carrier 2 (Filled)</title>
    <desc>Created with Sketch.</desc>
    <g id="40x40/Flattened/Delivery/Delivery-by-Carrier-2-(Filled)" stroke="none" stroke-width="1" fill="none" fill-rule="evenodd">
        <path d="M20.0005,5 C26.0612605,5 31.0005,9.70296128 31.0005,15.5245902 C31.0005,17.2739233 30.5432704,18.9661046 29.6849475,20.4906049 C29.5077743,20.8052891 29.1746976,21 28.8135653,21 L26.9605,21 L22.0815,26 L27,26 C27.5522847,26 28,26.4477153 28,27 C28,27.5128358 27.6139598,27.9355072 27.1166211,27.9932723 L27,28 L27,34 C27,34.5522847 26.5522847,35 26,35 L20.4995,35 L20.5,30 C20.5,29.7545401 20.3231248,29.5503916 20.0898756,29.5080557 L20,29.5 C19.7238576,29.5 19.5,29.7238576 19.5,30 L19.5,30 L19.4995,35 L14,35 C13.4477153,35 13,34.5522847 13,34 L13,28 C12.4477153,28 12,27.5522847 12,27 C12,26.4477153 12.4477153,26 13,26 L17.8165,26 L12.9375,21 L11.1763794,21 C10.8152472,21 10.4821705,20.8052891 10.3049972,20.4906049 C9.45155937,18.9747811 9.0005,17.2823376 9.0005,15.5245902 C9.0005,9.69981853 13.9330135,5 20.0005,5 Z M19.4995,21 L14.3345,21 L19.2135,26 L19.4995,26 L19.4995,21 Z M25.5635,21 L20.4995,21 L20.4995,26 L20.6845,26 L25.5635,21 Z" id="Delivery-by-Carrier-(Filled)" fill="#2F313A" fill-rule="nonzero"></path>
    </g>
</svg>