<?xml version="1.0" encoding="UTF-8"?>
<svg width="40px" height="40px" viewBox="0 0 40 40" version="1.1" xmlns="http://www.w3.org/2000/svg" xmlns:xlink="http://www.w3.org/1999/xlink">
    <!-- Generator: Sketch 59.1 (86144) - https://sketch.com -->
    <title>Vector Files/40x40/Flattened/Delivery/Delivery by Farm (Filled)</title>
    <desc>Created with Sketch.</desc>
    <g id="40x40/Flattened/Delivery/Delivery-by-Farm-(Filled)" stroke="none" stroke-width="1" fill="none" fill-rule="evenodd">
        <path d="M18,17 L19.9848633,17 L19.9848633,10 C19.9848633,9.44771525 20.4325785,9 20.9848633,9 L26.1049234,9 C27.3405886,9 28.4498524,9.75764041 28.8993706,10.9086408 L31.4006945,17.3133309 L33.5195037,18.5579733 C34.4366997,19.0967576 35,20.0809538 35,21.144691 L35,28 C35,28.5522847 34.5522847,29 34,29 L31.2368705,29 C30.7948193,30.1059388 29.7133347,30.8877 28.45,30.8877 C27.1866653,30.8877 26.1051807,30.1059388 25.6631295,29 L17,29 C16.9514491,29 16.9037062,28.99654 16.8570046,28.9898532 C16.4175267,30.1011542 15.3332949,30.8877 14.0661,30.8877 C12.8021647,30.8877 11.7209434,30.1060425 11.2790909,29 L8.9992,29 C6.790061,29 4.9992,27.209139 4.9992,25 L4.9992,19 C4.9992,17.8954305 5.8946305,17 6.9992,17 L8,17 L8,14 C8,13.4477153 8.44771525,13 9,13 L10,13 L10,10 C10,9.44771525 10.4477153,9 11,9 L17,9 C17.5522847,9 18,9.44771525 18,10 L18,17 Z M16,17 L16,11 L12,11 L12,13 L13,13 C13.5522847,13 14,13.4477153 14,14 L14,17 L16,17 L16,17 Z M10,17 L12,17 L12,15 L10,15 L10,17 Z M15.0661,27.8877 C15.0661,27.3354074 14.618238,26.8877 14.0661,26.8877 C13.5133847,26.8877 13.0661,27.3349847 13.0661,27.8877 C13.0661,28.439838 13.5138074,28.8877 14.0661,28.8877 C14.6178153,28.8877 15.0661,28.4394153 15.0661,27.8877 Z M29.45,27.8877 C29.45,27.3354074 29.002138,26.8877 28.45,26.8877 C27.897862,26.8877 27.45,27.3354074 27.45,27.8877 C27.45,28.4394153 27.8982847,28.8877 28.45,28.8877 C29.0017153,28.8877 29.45,28.4394153 29.45,27.8877 Z M31,21.5 L31,23 C31,23.2761424 31.2238576,23.5 31.5,23.5 C31.7761424,23.5 32,23.2761424 32,23 L32,21.5 C32,21.2238576 31.7761424,21 31.5,21 C31.2238576,21 31,21.2238576 31,21.5 Z M21,20 L21,26.2983398 C21,26.5744822 21.2238576,26.7983398 21.5,26.7983398 C21.7761424,26.7983398 22,26.5744822 22,26.2983398 L22,20 C22,19.7238576 21.7761424,19.5 21.5,19.5 C21.2238576,19.5 21,19.7238576 21,20 Z" id="Delivery-by-Farm-(Filled)" fill="#2F313A" fill-rule="nonzero"></path>
    </g>
</svg>