<?xml version="1.0" encoding="UTF-8"?>
<svg width="40px" height="40px" viewBox="0 0 40 40" version="1.1" xmlns="http://www.w3.org/2000/svg" xmlns:xlink="http://www.w3.org/1999/xlink">
    <!-- Generator: Sketch 59.1 (86144) - https://sketch.com -->
    <title>Vector Files/40x40/Flattened/Delivery/Delivery by Carrier (Filled)</title>
    <desc>Created with Sketch.</desc>
    <g id="40x40/Flattened/Delivery/Delivery-by-Carrier-(Filled)" stroke="none" stroke-width="1" fill="none" fill-rule="evenodd">
        <path d="M20.5,9 L20.5,17.5 C20.5,17.7761424 20.7238576,18 21,18 L32.5696413,18 L33.5195037,18.5579733 C34.4366997,19.0967576 35,20.0809538 35,21.144691 L35,28 C35,28.5522847 34.5522847,29 34,29 L31.2368705,29 C30.7948193,30.1059388 29.7133347,30.8877 28.45,30.8877 C27.1866653,30.8877 26.1051807,30.1059388 25.6631295,29 L17,29 C16.9514491,29 16.9037062,28.99654 16.8570046,28.9898532 C16.4175267,30.1011542 15.3332949,30.8877 14.0661,30.8877 C12.8021647,30.8877 11.7209434,30.1060425 11.2790909,29 L8.9992,29 C6.790061,29 4.9992,27.209139 4.9992,25 L4.9992,12 C4.9992,10.3431458 6.34234575,9 7.9992,9 L20.5,9 Z M21.5,9 L26.1049234,9 C27.3405886,9 28.4498524,9.75764041 28.8993706,10.9086408 L31.2783244,17 L21.5,17 L21.5,9 Z M15.0661,27.8877 C15.0661,27.3354074 14.618238,26.8877 14.0661,26.8877 C13.5133847,26.8877 13.0661,27.3349847 13.0661,27.8877 C13.0661,28.439838 13.5138074,28.8877 14.0661,28.8877 C14.6178153,28.8877 15.0661,28.4394153 15.0661,27.8877 Z M29.45,27.8877 C29.45,27.3354074 29.002138,26.8877 28.45,26.8877 C27.897862,26.8877 27.45,27.3354074 27.45,27.8877 C27.45,28.4394153 27.8982847,28.8877 28.45,28.8877 C29.0017153,28.8877 29.45,28.4394153 29.45,27.8877 Z M31,21.5 L31,23 C31,23.2761424 31.2238576,23.5 31.5,23.5 C31.7761424,23.5 32,23.2761424 32,23 L32,21.5 C32,21.2238576 31.7761424,21 31.5,21 C31.2238576,21 31,21.2238576 31,21.5 Z" id="Delivery-by-Carrier-(Filled)" fill="#2F313A" fill-rule="nonzero"></path>
    </g>
</svg>