<?xml version="1.0" encoding="UTF-8"?>
<svg width="40px" height="40px" viewBox="0 0 40 40" version="1.1" xmlns="http://www.w3.org/2000/svg" xmlns:xlink="http://www.w3.org/1999/xlink">
    <!-- Generator: Sketch 59.1 (86144) - https://sketch.com -->
    <title>Vector Files/40x40/Flattened/Delivery/Delivery by Farm 2</title>
    <desc>Created with Sketch.</desc>
    <g id="40x40/Flattened/Delivery/Delivery-by-Farm-2" stroke="none" stroke-width="1" fill="none" fill-rule="evenodd">
        <path d="M30.0090713,19 C30.0031178,18.9691495 30,18.9372889 30,18.9047 L30,17 C30,16.7238576 30.2238576,16.5 30.5,16.5 C30.7761424,16.5 31,16.7238576 31,17 L31,18.9047 C31,18.9372889 30.9968822,18.9691495 30.9909287,19 L34,19 L34,18.552 C34,15.4703909 31.6986248,13 28.895,13 L27,13 L27,19 L30.0090713,19 Z M34,20 L27,20 L27,25 L27.5835137,25 C27.9620225,23.776442 29.1024097,22.8877 30.45,22.8877 C31.7975903,22.8877 32.9379775,23.776442 33.3164863,25 L34,25 L34,20 L34,20 Z M21.9992,20 L5.9992,20 L5.9992,23.7275907 C5.9992,24.4423378 6.52522342,25 7.1432,25 C7.16194065,25 7.1805609,25.0005155 7.19904733,25.0015332 C7.57688671,23.777055 8.71731491,22.8877 10.0661,22.8877 C11.4136903,22.8877 12.5540775,23.776442 12.9325863,25 L15.2913209,25 C15.6696388,23.7763127 16.8096779,22.8877 18.1579,22.8877 C19.5054903,22.8877 20.6458775,23.776442 21.0243863,25 L21.9992,25 L21.9992,20 Z M21.9992,19 L21.9992,17 L5.9992,17 L5.9992,19 L21.9992,19 Z M22.5258112,15 L22.9992,15 C23.5514847,15 23.9992,15.4477153 23.9992,16 L23.9992,26 C23.9992,26.5522847 23.5514847,27 22.9992,27 L20.9447705,27 C20.5027193,28.1059388 19.4212347,28.8877 18.1579,28.8877 C16.8939647,28.8877 15.8127434,28.1060425 15.3708909,27 L12.8529705,27 C12.4109193,28.1059388 11.3294347,28.8877 10.0661,28.8877 C8.79885624,28.8877 7.7152843,28.1019451 7.27563433,26.9913079 C7.23230352,26.9970412 7.18809729,27 7.1432,27 C5.39369162,27 3.9992,25.5216338 3.9992,23.7275907 L3.9992,16 C3.9992,15.4477153 4.44691525,15 4.9992,15 L5.47499089,15 C5.9203615,12.4873477 9.50700417,11.0001 13.9994,11.0001 C18.4934375,11.0001 22.0804288,12.4871939 22.5258112,15 Z M20.4165232,15 C19.784874,13.9178363 17.291411,13.0001 13.9994,13.0001 C10.7088756,13.0001 8.21585606,13.9178864 7.58427207,15 L20.4165232,15 L20.4165232,15 Z M33.2368705,27 C32.7948193,28.1059388 31.7133347,28.8877 30.45,28.8877 C29.1866653,28.8877 28.1051807,28.1059388 27.6631295,27 L26,27 C25.4477153,27 25,26.5522847 25,26 L25,12 C25,11.4477153 25.4477153,11 26,11 L28.895,11 C32.8361095,11 36,14.3962504 36,18.552 L36,26 C36,26.5522847 35.5522847,27 35,27 L33.2368705,27 L33.2368705,27 Z M11.0661,25.8877 C11.0661,25.3354074 10.618238,24.8877 10.0661,24.8877 C9.51338475,24.8877 9.0661,25.3349847 9.0661,25.8877 C9.0661,26.439838 9.51380738,26.8877 10.0661,26.8877 C10.6178153,26.8877 11.0661,26.4394153 11.0661,25.8877 Z M19.1579,25.8877 C19.1579,25.3354074 18.710038,24.8877 18.1579,24.8877 C17.6051847,24.8877 17.1579,25.3349847 17.1579,25.8877 C17.1579,26.439838 17.6056074,26.8877 18.1579,26.8877 C18.7096153,26.8877 19.1579,26.4394153 19.1579,25.8877 Z M31.45,25.8877 C31.45,25.3354074 31.002138,24.8877 30.45,24.8877 C29.897862,24.8877 29.45,25.3354074 29.45,25.8877 C29.45,26.4394153 29.8982847,26.8877 30.45,26.8877 C31.0017153,26.8877 31.45,26.4394153 31.45,25.8877 Z" id="Delivery-by-Farm" fill="#2F313A" fill-rule="nonzero"></path>
    </g>
</svg>