<?xml version="1.0" encoding="UTF-8"?>
<svg width="40px" height="40px" viewBox="0 0 40 40" version="1.1" xmlns="http://www.w3.org/2000/svg" xmlns:xlink="http://www.w3.org/1999/xlink">
    <!-- Generator: Sketch 59.1 (86144) - https://sketch.com -->
    <title>Vector Files/40x40/Flattened/Delivery/Delivery by Farm</title>
    <desc>Created with Sketch.</desc>
    <g id="40x40/Flattened/Delivery/Delivery-by-Farm" stroke="none" stroke-width="1" fill="none" fill-rule="evenodd">
        <path d="M18,17 L19.9848633,17 L19.9848633,10 C19.9848633,9.44771525 20.4325785,9 20.9848633,9 L26.1049234,9 C27.3405886,9 28.4498524,9.75764041 28.8993706,10.9086408 L31.4006945,17.3133309 L33.5195037,18.5579733 C34.4366997,19.0967576 35,20.0809538 35,21.144691 L35,28 C35,28.5522847 34.5522847,29 34,29 L31.2368705,29 C30.7948193,30.1059388 29.7133347,30.8877 28.45,30.8877 C27.1866653,30.8877 26.1051807,30.1059388 25.6631295,29 L17,29 C16.9514491,29 16.9037062,28.99654 16.8570046,28.9898532 C16.4175267,30.1011542 15.3332949,30.8877 14.0661,30.8877 C12.8021647,30.8877 11.7209434,30.1060425 11.2790909,29 L8.9992,29 C6.790061,29 4.9992,27.209139 4.9992,25 L4.9992,19 C4.9992,17.8954305 5.8946305,17 6.9992,17 L8,17 L8,14 C8,13.4477153 8.44771525,13 9,13 L10,13 L10,10 C10,9.44771525 10.4477153,9 11,9 L17,9 C17.5522847,9 18,9.44771525 18,10 L18,17 Z M16,17 L16,11 L12,11 L12,13 L13,13 C13.5522847,13 14,13.4477153 14,14 L14,17 L16,17 L16,17 Z M10,17 L12,17 L12,15 L10,15 L10,17 Z M29.1312093,17 L27.0364058,11.6362136 C26.8865664,11.2525468 26.5168118,11 26.1049234,11 L21.9848633,11 L21.9848633,18 C21.9848633,18.5522847 21.537148,19 20.9848633,19 L6.9992,19 L6.9992,25 C6.9992,26.1045695 7.8946305,27 8.9992,27 L11.1995209,27 C11.5778388,25.7763127 12.7178779,24.8877 14.0661,24.8877 C15.4144947,24.8877 16.5554389,25.7775034 16.9332634,27.0021916 C16.9553212,27.0007382 16.9775744,27 17,27 L21,27 L21,21.5 C21,21.2238576 21.2238576,21 21.5,21 C21.7761424,21 22,21.2238576 22,21.5 L22,27 L25.5835137,27 C25.9620225,25.776442 27.1024097,24.8877 28.45,24.8877 C29.7975903,24.8877 30.9379775,25.776442 31.3164863,27 L33,27 L33,21.144691 C33,20.7901119 32.8122332,20.4620465 32.5065012,20.2824518 L30.3233274,19 L24.6464844,19 C24.0941996,19 23.6464844,18.5522847 23.6464844,18 C23.6464844,17.4477153 24.0941996,17 24.6464844,17 L29.1312093,17 Z M15.0661,27.8877 C15.0661,27.3354074 14.618238,26.8877 14.0661,26.8877 C13.5133847,26.8877 13.0661,27.3349847 13.0661,27.8877 C13.0661,28.439838 13.5138074,28.8877 14.0661,28.8877 C14.6178153,28.8877 15.0661,28.4394153 15.0661,27.8877 Z M29.45,27.8877 C29.45,27.3354074 29.002138,26.8877 28.45,26.8877 C27.897862,26.8877 27.45,27.3354074 27.45,27.8877 C27.45,28.4394153 27.8982847,28.8877 28.45,28.8877 C29.0017153,28.8877 29.45,28.4394153 29.45,27.8877 Z M31,21.5 C31,21.2238576 31.2238576,21 31.5,21 C31.7761424,21 32,21.2238576 32,21.5 L32,23 C32,23.2761424 31.7761424,23.5 31.5,23.5 C31.2238576,23.5 31,23.2761424 31,23 L31,21.5 Z" id="Delivery-by-Farm" fill="#2F313A" fill-rule="nonzero"></path>
    </g>
</svg>