<?xml version="1.0" encoding="UTF-8"?>
<svg width="40px" height="40px" viewBox="0 0 40 40" version="1.1" xmlns="http://www.w3.org/2000/svg" xmlns:xlink="http://www.w3.org/1999/xlink">
    <!-- Generator: Sketch 59.1 (86144) - https://sketch.com -->
    <title>Vector Files/40x40/Flattened/Delivery/Delivery by Carrier 2</title>
    <desc>Created with Sketch.</desc>
    <g id="40x40/Flattened/Delivery/Delivery-by-Carrier-2" stroke="none" stroke-width="1" fill="none" fill-rule="evenodd">
        <path d="M20.5,33 L25,33 L25,28 L15,28 L15,33 L19.5,33 L19.5,30 C19.5,29.7238576 19.7238576,29.5 20,29.5 C20.2761424,29.5 20.5,29.7238576 20.5,30 L20.5,33 Z M20.5,26 L20.6854807,26 L25.5640793,21 L20.5,21 L20.5,26 L20.5,26 Z M19.5,26 L19.5,21 L14.3355207,21 L19.2141193,26 L19.5,26 L19.5,26 Z M22.082631,26 L27,26 C27.5522847,26 28,26.4477153 28,27 C28,27.5522847 27.5522847,28 27,28 L27,34 C27,34.5522847 26.5522847,35 26,35 L14,35 C13.4477153,35 13,34.5522847 13,34 L13,28 C12.4477153,28 12,27.5522847 12,27 C12,26.4477153 12.4477153,26 13,26 L17.816969,26 L12.9383704,21 L11.1763794,21 C10.8152472,21 10.4821705,20.8052891 10.3049972,20.4906049 C9.45155937,18.9747811 9.0005,17.2823376 9.0005,15.5245902 C9.0005,9.69981853 13.9330135,5 20.0005,5 C26.0612605,5 31.0005,9.70296128 31.0005,15.5245902 C31.0005,17.2739233 30.5432704,18.9661046 29.6849475,20.4906049 C29.5077743,20.8052891 29.1746976,21 28.8135653,21 L26.9612296,21 L22.082631,26 Z M29.0005,15.5245902 C29.0005,10.8300531 24.9780238,7 20.0005,7 C15.0165435,7 11.0005,10.8265836 11.0005,15.5245902 C11.0005,16.742031 11.2692718,17.9176312 11.7836521,19 L28.2068875,19 C28.7273279,17.9098568 29.0005,16.7340433 29.0005,15.5245902 Z" id="Delivery-by-Carrier" fill="#2F313A" fill-rule="nonzero"></path>
    </g>
</svg>