<?xml version="1.0" encoding="UTF-8"?>
<svg width="40px" height="40px" viewBox="0 0 40 40" version="1.1" xmlns="http://www.w3.org/2000/svg" xmlns:xlink="http://www.w3.org/1999/xlink">
    <!-- Generator: Sketch 59.1 (86144) - https://sketch.com -->
    <title>Vector Files/40x40/Flattened/Delivery/Pickup Point (Filled)</title>
    <desc>Created with Sketch.</desc>
    <g id="40x40/Flattened/Delivery/Pickup-Point-(Filled)" stroke="none" stroke-width="1" fill="none" fill-rule="evenodd">
        <path d="M6,25.9972521 C5.48260272,25.9590443 5.0747,25.5271575 5.0747,25 C5.0747,24.4477153 5.52241525,24 6.0747,24 L9,24 L9,19 C8.44771525,19 8,18.5522847 8,18 C8,17.4477153 8.44771525,17 9,17 L22,17 C22.5522847,17 23,17.4477153 23,18 C23,18.5522847 22.5522847,19 22,19 L22,24 L25.6607,24 C26.2129847,24 26.6607,24.4477153 26.6607,25 C26.6607,25.4331734 26.3852775,25.8020185 26,25.9409677 L26,31 L29,31 L29,22.4864735 C28.4758824,21.9912464 27.8135029,21.2492331 27.1530856,20.2890893 C25.8116315,18.338824 25,16.1790919 25,13.865 C25,11.0299697 27.1561366,9 29.954,9 L30.046,9 C32.8445412,9 35,11.0296861 35,13.865 C35,16.1790919 34.1883685,18.338824 32.8469144,20.2890893 C32.1864971,21.2492331 31.5241176,21.9912464 31,22.4864735 L31,31 L32,31 C32.5522847,31 33,31.4477153 33,32 C33,32.5522847 32.5522847,33 32,33 L5.9996,33 C5.44731525,33 4.9996,32.5522847 4.9996,32 C4.9996,31.4477153 5.44731525,31 5.9996,31 L6,25.9972521 Z M32,14 C32,12.896 31.106,12 30,12 C28.894,12 28,12.896 28,14 C28,15.104 28.894,16 30,16 C31.106,16 32,15.104 32,14 Z M17,26 L17,31 L18,31 L18,26 L17,26 Z" id="Pickup-Location-(Filled)" fill="#2F313A" fill-rule="nonzero"></path>
    </g>
</svg>