<?xml version="1.0" encoding="UTF-8"?>
<svg width="40px" height="40px" viewBox="0 0 40 40" version="1.1" xmlns="http://www.w3.org/2000/svg" xmlns:xlink="http://www.w3.org/1999/xlink">
    <!-- Generator: Sketch 59.1 (86144) - https://sketch.com -->
    <title>Vector Files/40x40/Flattened/Delivery/Pickup Location</title>
    <desc>Created with Sketch.</desc>
    <g id="40x40/Flattened/Delivery/Pickup-Location" stroke="none" stroke-width="1" fill="none" fill-rule="evenodd">
        <path d="M29.5,19.25 C31.2108074,19.25 32.6128714,20.5718881 32.7405276,22.25 L34.1538462,22.25 C34.5408625,22.25 34.8643269,22.5444796 34.9005533,22.9297968 L35.6592903,31 L35.8388672,31 C36.3911519,31 36.8388672,31.4477153 36.8388672,32 C36.8388672,32.5522847 36.3911519,33 35.8388672,33 L17.3396293,33 C16.9718584,33.4460644 16.6010549,33.8716718 16.2300759,34.2761626 C15.8518051,34.6886038 15.4995251,35.0500966 15.1819077,35.3585476 C14.987674,35.5471757 14.8455828,35.6783915 14.7642979,35.7500641 C14.5816315,35.9111292 14.3464671,36 14.1029327,36 L13.8970673,36 C13.6535329,36 13.4183685,35.9111292 13.2357021,35.7500641 C13.1544172,35.6783915 13.012326,35.5471757 12.8180923,35.3585476 C12.5004749,35.0500966 12.1481949,34.6886038 11.7699241,34.2761626 C11.3989451,33.8716718 11.0281416,33.4460644 10.6603707,33 L5,33 C4.44771525,33 4,32.5522847 4,32 C4,31.4477153 4.44771525,31 5,31 L9.13573128,31 C8.9603743,30.7509237 8.78675048,30.4970445 8.61520823,30.2384429 C5.73438272,25.8955702 4,21.1103393 4,16.0201108 C4,10.1669506 8.26645621,6 13.8970673,6 L14.1029327,6 C19.7327866,6 24,10.167318 24,16.0201108 C24,21.1103393 22.2656173,25.8955702 19.3847918,30.2384429 C19.2132495,30.4970445 19.0396257,30.7509237 18.8642687,31 L23.3407097,31 L24.0994467,22.9297968 C24.1356731,22.5444796 24.4591375,22.25 24.8461538,22.25 L26.2594724,22.25 C26.3871286,20.5718881 27.7891926,19.25 29.5,19.25 Z M31.2322778,22.25 C31.1109704,21.4019265 30.381618,20.75 29.5,20.75 C28.618382,20.75 27.8890296,21.4019265 27.7677222,22.25 L31.2322778,22.25 Z M26.25,23.75 L25.5289484,23.75 L24.8473245,31 L34.1526755,31 L33.4710516,23.75 L32.75,23.75 L32.75,24 C32.75,24.4142136 32.4142136,24.75 32,24.75 C31.5857864,24.75 31.25,24.4142136 31.25,24 L31.25,23.75 L27.75,23.75 L27.75,24 C27.75,24.4142136 27.4142136,24.75 27,24.75 C26.5857864,24.75 26.25,24.4142136 26.25,24 L26.25,23.75 Z M14.7561231,32.9243256 C15.7650673,31.8242402 16.7754898,30.5539332 17.718141,29.1328774 C20.3979825,25.09299 22,20.67296 22,16.0201108 C22,11.2826299 18.6386817,8 14.1029327,8 L13.8970673,8 C9.36060003,8 6,11.2822215 6,16.0201108 C6,20.67296 7.60201751,25.09299 10.281859,29.1328774 C11.2245102,30.5539332 12.2349327,31.8242402 13.2438769,32.9243256 C13.5124694,33.217181 13.7658045,33.4812097 14,33.7153619 C14.2341955,33.4812097 14.4875306,33.217181 14.7561231,32.9243256 Z M17,17 C17,15.3433295 15.6566705,14 14,14 C12.3433295,14 11,15.3433295 11,17 C11,18.6566705 12.3433295,20 14,20 C15.6566705,20 17,18.6566705 17,17 Z M19,17 C19,19.76124 16.76124,22 14,22 C11.23876,22 9,19.76124 9,17 C9,14.23876 11.23876,12 14,12 C16.76124,12 19,14.23876 19,17 Z" id="Pickup-Location" fill="#2F313A" fill-rule="nonzero"></path>
    </g>
</svg>