<?xml version="1.0" encoding="UTF-8"?>
<svg width="40px" height="40px" viewBox="0 0 40 40" version="1.1" xmlns="http://www.w3.org/2000/svg" xmlns:xlink="http://www.w3.org/1999/xlink">
    <!-- Generator: Sketch 59.1 (86144) - https://sketch.com -->
    <title>Vector Files/40x40/Flattened/Delivery/Pickup Location (Filled)</title>
    <desc>Created with Sketch.</desc>
    <g id="40x40/Flattened/Delivery/Pickup-Location-(Filled)" stroke="none" stroke-width="1" fill="none" fill-rule="evenodd">
        <path d="M10.6603707,33 L5,33 C4.44771525,33 4,32.5522847 4,32 C4,31.4477153 4.44771525,31 5,31 L9.13573128,31 C8.9603743,30.7509237 8.78675048,30.4970445 8.61520823,30.2384429 C5.73438272,25.8955702 4,21.1103393 4,16.0201108 C4,10.1669506 8.26645621,6 13.8970673,6 L14.1029327,6 C19.7327866,6 24,10.167318 24,16.0201108 C24,21.1103393 22.2656173,25.8955702 19.3847918,30.2384429 C18.3812094,31.7513532 17.3063818,33.1026306 16.2300759,34.2761626 C15.8518051,34.6886038 15.4995251,35.0500966 15.1819077,35.3585476 C14.987674,35.5471757 14.8455828,35.6783915 14.7642979,35.7500641 C14.5816315,35.9111292 14.3464671,36 14.1029327,36 L13.8970673,36 C13.6535329,36 13.4183685,35.9111292 13.2357021,35.7500641 C13.1544172,35.6783915 13.012326,35.5471757 12.8180923,35.3585476 C12.5004749,35.0500966 12.1481949,34.6886038 11.7699241,34.2761626 C11.3989451,33.8716718 11.0281416,33.4460644 10.6603707,33 L10.6603707,33 Z M18,17 C18,14.7910448 16.2089552,13 14,13 C11.7910448,13 10,14.7910448 10,17 C10,19.2089552 11.7910448,21 14,21 C16.2089552,21 18,19.2089552 18,17 Z M32.7405276,22.25 L34.1538462,22.25 C34.5408625,22.25 34.8643269,22.5444796 34.9005533,22.9297968 L35.6592903,31 L35.8388672,31 C36.3911519,31 36.8388672,31.4477153 36.8388672,32 C36.8388672,32.5522847 36.3911519,33 35.8388672,33 L21,33 C20.4477153,33 20,32.5522847 20,32 C20,31.4477153 20.4477153,31 21,31 L23.3407097,31 L24.0994467,22.9297968 C24.1356731,22.5444796 24.4591375,22.25 24.8461538,22.25 L26.2594724,22.25 C26.3871286,20.5718881 27.7891926,19.25 29.5,19.25 C31.2108074,19.25 32.6128714,20.5718881 32.7405276,22.25 L32.7405276,22.25 Z M31.2322778,22.25 C31.1109704,21.4019265 30.381618,20.75 29.5,20.75 C28.618382,20.75 27.8890296,21.4019265 27.7677222,22.25 L31.2322778,22.25 L31.2322778,22.25 Z" id="Pickup-Location-(Filled)" fill="#2F313A" fill-rule="nonzero"></path>
    </g>
</svg>