<?xml version="1.0" encoding="UTF-8"?>
<svg width="100px" height="100px" viewBox="0 0 100 100" version="1.1" xmlns="http://www.w3.org/2000/svg" xmlns:xlink="http://www.w3.org/1999/xlink">
    <!-- Generator: Sketch 59.1 (86144) - https://sketch.com -->
    <title>Vector Files/100x100/Flattened/States/Bid Hammer</title>
    <desc>Created with Sketch.</desc>
    <g id="100x100/Flattened/States/Bid-Hammer" stroke="none" stroke-width="1" fill="none" fill-rule="evenodd">
        <path d="M56.4422466,27.338967 L55.0278636,28.75335 L64.1314068,37.8568932 C64.5219311,38.2474175 64.5219311,38.8805825 64.1314068,39.2711068 C63.7408825,39.6616311 63.1077175,39.6616311 62.7171932,39.2711068 L53.61365,30.1675636 L38.7646068,45.0166068 L55.7351034,61.987183 L73.412783,44.3095034 L56.4422466,27.338967 Z M55.1654104,25.7873761 L52.2538826,20.9207777 L32.344608,40.8291724 L37.2237836,43.7569538 C37.2600534,43.7023529 37.3022566,43.6505298 37.3503932,43.6023932 L55.1654104,25.7873761 L55.1654104,25.7873761 Z M49.01755,59.5122703 L26.3045602,82.2252602 C24.2962748,84.2335456 21.0940021,84.2149259 18.8855054,82.2821365 C18.8261033,82.2361383 18.7675868,82.1846072 18.7102398,82.1272602 C18.6994359,82.1164562 18.6886829,82.1056245 18.6779808,82.0947653 L18.5781208,81.9941251 C18.5292064,81.9448285 18.4845596,81.8946915 18.4440021,81.8438914 C16.500153,79.6402234 16.5095154,76.4646642 18.5272398,74.4469398 L37.6789708,55.2952089 C37.6870936,55.2864923 37.6954011,55.2778854 37.7038932,55.2693932 C37.7123854,55.2609011 37.7209923,55.2525936 37.7297089,55.2444708 L41.2397297,51.73445 L36.0663907,46.561111 L29.1537029,42.4131073 C28.3169439,41.9110045 28.1748216,40.7562275 28.8648633,40.0662164 L51.4928633,17.4392164 C52.1834619,16.7486483 53.339317,16.8917015 53.8407222,17.7297967 L57.9584198,24.6124994 L63.1598,29.8138797 L63.6266398,29.3470398 C65.6406171,27.3330625 68.8555583,27.3574009 71.0656655,29.3060646 C71.1167826,29.3468181 71.1672294,29.3917096 71.2168251,29.4409208 L71.3196266,29.5429254 C71.3296553,29.5528142 71.3396599,29.5627457 71.34964,29.5727197 C71.4077052,29.6307499 71.459812,29.6899795 71.5062539,29.7501142 C73.4309651,31.9528854 73.4150934,35.114227 71.4044922,37.1248278 L70.9378545,37.5919341 L76.1106093,42.764689 L83.0232971,46.9126927 C83.8600561,47.4147955 84.0021784,48.5695725 83.3121367,49.2595836 L60.6841367,71.8865836 C59.9940689,72.5766209 58.8392472,72.4344063 58.3372125,71.5975634 L54.190233,64.6849533 L49.01755,59.5122703 L49.01755,59.5122703 Z M46.8962297,57.39095 L43.36105,53.8557703 L40.532767,56.6840534 L44.0679466,60.219233 L46.8962297,57.39095 L46.8962297,57.39095 Z M56.9946482,63.5280815 L59.9214182,68.4067215 L79.832392,48.4966276 L74.9711226,45.5795909 L57.1493068,63.4014068 C57.1011414,63.4495722 57.0492851,63.4917971 56.9946482,63.5280815 L56.9946482,63.5280815 Z M68.8165339,35.4706136 L69.2826398,35.0040398 C70.177265,34.1094146 70.1585614,32.6759608 69.1546637,31.6227159 C68.0891431,30.6226568 66.6237835,30.5925368 65.7479602,31.4683602 L65.2811203,31.9352 L68.8165339,35.4706136 L68.8165339,35.4706136 Z M39.1185534,58.098267 L20.6485602,76.5682602 C19.758897,77.4579233 19.7724592,78.8804544 20.7599228,79.9320237 C21.8258188,80.9490852 23.3024342,80.9847454 24.1832398,80.1039398 L42.653733,61.6334466 L39.1185534,58.098267 L39.1185534,58.098267 Z M64.8395932,41.3926068 C64.4490689,41.0020825 64.4490689,40.3689175 64.8395932,39.9783932 C65.2301175,39.5878689 65.8632825,39.5878689 66.2538068,39.9783932 L67.6678068,41.3923932 C68.0583311,41.7829175 68.0583311,42.4160825 67.6678068,42.8066068 C67.2772825,43.1971311 66.6441175,43.1971311 66.2535932,42.8066068 L64.8395932,41.3926068 Z" id="Bid-Hammer" fill="#2F313A" fill-rule="nonzero"></path>
    </g>
</svg>