<?xml version="1.0" encoding="UTF-8"?>
<svg width="100px" height="100px" viewBox="0 0 100 100" version="1.1" xmlns="http://www.w3.org/2000/svg" xmlns:xlink="http://www.w3.org/1999/xlink">
    <!-- Generator: Sketch 59.1 (86144) - https://sketch.com -->
    <title>Vector Files/100x100/Flattened/States/New Bid</title>
    <desc>Created with Sketch.</desc>
    <g id="100x100/Flattened/States/New-Bid" stroke="none" stroke-width="1" fill="none" fill-rule="evenodd">
        <path d="M32.6948749,29.7988954 C43.2597926,24.6667721 47.6603361,26.0249616 51.7312185,32.919428 C51.8275619,33.0825957 51.9256491,33.2500832 52.0558182,33.4733479 C52.2172526,33.7504801 52.3054279,33.9018395 52.3786505,34.0271811 C52.6398364,34.4742764 52.8353377,34.8036058 53.0317984,35.1249695 C54.8797559,38.1477948 56.5763943,39.8703301 59.2341477,40.9588929 C62.73956,42.3946398 67.7191439,42.4660412 74.7556532,40.8463204 C77.1582402,40.2940775 79.1340862,42.6646453 77.2376939,44.6676614 C61.9440908,60.8452438 56.2177242,62.8010359 50.4947191,56.7816669 C50.3465935,56.6258708 49.848957,56.0958859 49.7802208,56.0231774 C47.9771452,54.1159001 46.8490882,53.3423393 45.1312996,53.116087 C42.8666909,52.8178123 39.7924915,53.7015902 35.5634447,56.1444964 L37.7993581,76.6796361 C37.8890291,77.5031959 37.2940949,78.2435157 36.4705352,78.3331868 C35.6469754,78.4228578 34.9066556,77.8279236 34.8169845,77.0043639 L32.4793608,55.5350935 C32.477113,55.5173988 32.4751859,55.4996907 32.4735773,55.4819761 L29.1546294,25 L26.1723838,25 L30.7283558,66.8376152 C30.8180385,67.6611736 30.2231146,68.4015018 29.3995561,68.4911845 C28.5759977,68.5808672 27.8356695,67.9859433 27.7459868,67.1623848 L23.0089868,23.6623848 C22.9123457,22.7749267 23.6074667,22 24.5001713,22 L30.5001713,22 C31.2657573,22 31.9084891,22.5765484 31.9913581,23.3376361 L32.6948749,29.7988954 Z M33.0408334,32.9762578 L35.2099856,52.8982469 C43.3335512,48.4579714 47.5676705,49.3158061 51.9602568,53.9622449 C52.0350391,54.0413489 52.5285972,54.5669902 52.6688867,54.7145445 C54.7453131,56.8984979 55.8731628,57.3825429 58.2102384,56.5843345 C61.4905334,55.4639774 66.3822499,51.6087652 73.5606374,44.1740652 C60.9449198,46.7203277 54.9488503,44.0124743 50.4722074,36.6897359 C50.2633985,36.3481735 50.0586839,36.003324 49.7882732,35.5404377 C49.7139658,35.413239 49.624645,35.2599134 49.4641349,34.9843666 C49.3365111,34.7654675 49.2409504,34.6022941 49.147927,34.4447493 C47.4351802,31.5440329 46.3215985,30.3836986 44.5125118,29.9409334 C42.1343693,29.3588946 38.5069335,30.2210991 33.0408334,32.9762578 L33.0408334,32.9762578 Z M36.245046,41.1082354 C36.1852692,40.5591952 36.5818957,40.0656515 37.1309359,40.0058747 C37.6799761,39.946098 38.1735198,40.3427244 38.2332966,40.8917646 L39.1042966,48.8917646 C39.1640733,49.4408048 38.7674469,49.9343485 38.2184067,49.9941253 C37.6693664,50.053902 37.1758228,49.6572756 37.116046,49.1082354 L36.245046,41.1082354 Z M35.5916535,35.1078047 C35.5318385,34.5587686 35.9284305,34.0651973 36.4774666,34.0053823 C37.0265027,33.9455672 37.520074,34.3421592 37.579889,34.8911953 L37.797889,36.8921953 C37.8577041,37.4412314 37.461112,37.9348027 36.912076,37.9946177 C36.3630399,38.0544328 35.8694686,37.6578408 35.8096535,37.1088047 L35.5916535,35.1078047 Z M31.799665,76.6789995 C31.8893011,77.502563 31.2943353,78.2428576 30.4707718,78.3324937 C29.6472083,78.4221298 28.9069137,77.827164 28.8172776,77.0036005 L28.2902776,72.1616005 C28.2006415,71.338037 28.7956073,70.5977424 29.6191708,70.5081063 C30.4427343,70.4184702 31.1830289,71.013436 31.272665,71.8369995 L31.799665,76.6789995 Z" id="New-Bid" fill="#2F313A" fill-rule="nonzero"></path>
    </g>
</svg>