<?xml version="1.0" encoding="UTF-8"?>
<svg width="40px" height="40px" viewBox="0 0 40 40" version="1.1" xmlns="http://www.w3.org/2000/svg" xmlns:xlink="http://www.w3.org/1999/xlink">
    <!-- Generator: Sketch 59.1 (86144) - https://sketch.com -->
    <title>Vector Files/40x40/Flattened/States/Alert</title>
    <desc>Created with Sketch.</desc>
    <g id="40x40/Flattened/States/Alert" stroke="none" stroke-width="1" fill="none" fill-rule="evenodd">
        <path d="M31,20 C31,13.9258847 26.0741153,9 20,9 C13.9251146,9 9,13.9254548 9,20 C9,26.0753153 13.9246847,31 20,31 C26.0745452,31 31,26.0748854 31,20 Z M33,20 C33,27.1794858 27.1790837,33 20,33 C12.8201153,33 7,27.1798847 7,20 C7,12.8209163 12.8205142,7 20,7 C27.1786847,7 33,12.8213153 33,20 Z M19.9999997,24.0189706 C21.1185535,24.0189706 21.9481153,24.8472423 21.9481153,25.9219312 L21.9481153,25.9657961 C21.9481153,27.0404851 21.1185535,27.8687568 19.9999997,27.8687568 C18.8814458,27.8687568 18.051884,27.0404851 18.051884,25.9657961 L18.051884,25.9219312 C18.051884,24.8472423 18.8814458,24.0189706 19.9999997,24.0189706 Z M18.0080191,13.1404863 C17.9409317,12.4915444 18.2995914,12 18.9033783,12 L21.0979112,12 C21.7004079,12 22.0590676,12.4915444 21.9919802,13.1404863 L21.0295336,21.5560879 C20.9624462,22.1611649 20.5599217,22.541757 20,22.541757 C19.4400777,22.541757 19.0375531,22.1611649 18.9704657,21.5560879 L18.0080191,13.1404863 Z" id="Alert" fill="#2F313A" fill-rule="nonzero"></path>
    </g>
</svg>