<?xml version="1.0" encoding="UTF-8"?>
<svg width="40px" height="40px" viewBox="0 0 40 40" version="1.1" xmlns="http://www.w3.org/2000/svg" xmlns:xlink="http://www.w3.org/1999/xlink">
    <!-- Generator: Sketch 59.1 (86144) - https://sketch.com -->
    <title>Vector Files/40x40/Flattened/States/Bid Hammer (Filled)</title>
    <desc>Created with Sketch.</desc>
    <g id="40x40/Flattened/States/Bid-Hammer-(Filled)" stroke="none" stroke-width="1" fill="none" fill-rule="evenodd">
        <path d="M19.9822955,23.7618371 C19.9556718,23.7966267 19.9266165,23.829853 19.8952188,23.8612508 L9.76879073,33.9876783 C8.7139727,35.0443244 6.9741497,34.9486939 5.87597686,33.852222 C4.78103973,32.7555847 4.68597374,31.0161487 5.74100522,29.9611172 L15.8680452,19.8340772 C15.8994402,19.8026822 15.9326667,19.7736266 15.9674593,19.7470008 L14.72228,18.5018216 L24.8478536,8.376248 L31.352656,14.8810504 L21.2270824,25.006624 L19.9822955,23.7618371 L19.9822955,23.7618371 Z M22.641296,26.4208376 L32.7668696,16.295264 L34.4362908,17.9646852 C34.8268151,18.3552095 34.8268151,18.9883745 34.4362908,19.3788988 L25.7249308,28.0902588 C25.3344065,28.4807831 24.7012415,28.4807831 24.3107172,28.0902588 L22.641296,26.4208376 L22.641296,26.4208376 Z M13.3080664,17.087608 L11.6390372,15.4185788 C11.2485129,15.0280545 11.2485129,14.3948895 11.6390372,14.0043652 L20.3503972,5.29300522 C20.7409215,4.90248093 21.3740865,4.90248093 21.7646108,5.29300522 L23.43364,6.96203444 L13.3080664,17.087608 L13.3080664,17.087608 Z" id="Bid-Hammer-(Filled)" fill="#2F313A" fill-rule="nonzero"></path>
    </g>
</svg>