<?xml version="1.0" encoding="UTF-8"?>
<svg width="40px" height="40px" viewBox="0 0 40 40" version="1.1" xmlns="http://www.w3.org/2000/svg" xmlns:xlink="http://www.w3.org/1999/xlink">
    <!-- Generator: Sketch 59.1 (86144) - https://sketch.com -->
    <title>Vector Files/40x40/Flattened/States/Bid Hammer</title>
    <desc>Created with Sketch.</desc>
    <g id="40x40/Flattened/States/Bid-Hammer" stroke="none" stroke-width="1" fill="none" fill-rule="evenodd">
        <path d="M15.9673838,19.7469254 L11.6390372,15.4185788 C11.2485129,15.0280545 11.2485129,14.3948895 11.6390372,14.0043652 L20.3503972,5.29300522 C20.7409215,4.90248093 21.3740865,4.90248093 21.7646108,5.29300522 L24.1317549,7.66014939 C24.1347851,7.66310492 24.1378011,7.66608354 24.1408028,7.66908522 C24.1438045,7.6720869 24.1467831,7.67510292 24.1497386,7.67813305 L34.4362908,17.9646852 C34.8268151,18.3552095 34.8268151,18.9883745 34.4362908,19.3788988 L25.7249308,28.0902588 C25.3344065,28.4807831 24.7012415,28.4807831 24.3107172,28.0902588 L19.9823706,23.7619122 C19.9558784,23.7964431 19.9268278,23.8296417 19.8952188,23.8612508 L9.76879073,33.9876783 C8.7139727,35.0443244 6.9741497,34.9486939 5.87597686,33.852222 C4.78103973,32.7555847 4.68597374,31.0161487 5.74100522,29.9611172 L15.8680452,19.8340772 C15.8996543,19.8024682 15.9328529,19.7734176 15.9673838,19.7469254 L15.9673838,19.7469254 Z M17.3694106,21.1489522 C17.3429184,21.1834831 17.3138678,21.2166817 17.2822588,21.2482908 L7.15521878,31.3753308 C6.91765683,31.6128927 6.94379083,32.0910701 7.29019,32.4380089 C7.63860757,32.7858863 8.11631029,32.8121435 8.35396522,32.5740772 L18.4810052,22.4470372 C18.5126143,22.4154282 18.5458129,22.3863776 18.5803438,22.3598854 L17.3694106,21.1489522 L17.3694106,21.1489522 Z M29.9384924,16.295314 L23.43364,9.79046156 L16.2212828,17.0028188 C16.1925884,17.0315131 16.1625841,17.0580991 16.1314623,17.0825768 L22.6469208,23.5980353 C22.6714522,23.5668196 22.6981036,23.5367269 22.7268752,23.5079512 L29.9384924,16.295314 Z M31.352706,17.7095276 L24.1411888,24.9220648 C24.112383,24.9508746 24.0822568,24.9775594 24.0510049,25.0021193 L25.017824,25.9689384 L32.3149704,18.671792 L31.352706,17.7095276 L31.352706,17.7095276 Z M22.0194264,8.376248 L21.057504,7.41432556 L13.7603576,14.711472 L14.7273112,15.6784257 C14.7517889,15.6473039 14.7783749,15.6172996 14.8070692,15.5886052 L22.0194264,8.376248 L22.0194264,8.376248 Z" id="Bid-Hammer" fill="#2F313A" fill-rule="nonzero"></path>
    </g>
</svg>