<?xml version="1.0" encoding="UTF-8"?>
<svg width="40px" height="40px" viewBox="0 0 40 40" version="1.1" xmlns="http://www.w3.org/2000/svg" xmlns:xlink="http://www.w3.org/1999/xlink">
    <!-- Generator: Sketch 59.1 (86144) - https://sketch.com -->
    <title>Vector Files/40x40/Flattened/States/Canceled (Filled)</title>
    <desc>Created with Sketch.</desc>
    <g id="40x40/Flattened/States/Canceled-(Filled)" stroke="none" stroke-width="1" fill="none" fill-rule="evenodd">
        <path d="M33,20 C33,27.1794858 27.1790837,33 20,33 C12.8201153,33 7,27.1798847 7,20 C7,12.8209163 12.8205142,7 20,7 C27.1786847,7 33,12.8213153 33,20 Z M27.630127,20 C27.630127,24.213787 24.213787,27.630127 20,27.630127 C18.1632719,27.630127 16.4780556,26.9810358 15.1612386,25.8997411 L25.8998999,15.1610798 C26.9811186,16.4778448 27.630127,18.1630646 27.630127,20 Z M24.4392168,13.7933358 L13.7934829,24.4390696 C12.8973749,23.1884404 12.369873,21.6557853 12.369873,20 C12.369873,15.7856624 15.7858988,12.369873 20,12.369873 C21.6559135,12.369873 23.1885991,12.8972929 24.4392168,13.7933358 Z M29.630127,20 C29.630127,14.6810619 25.3186397,10.369873 20,10.369873 C14.6813603,10.369873 10.369873,14.6810619 10.369873,20 C10.369873,25.3183565 14.6816435,29.630127 20,29.630127 C25.3183565,29.630127 29.630127,25.3183565 29.630127,20 Z" id="Canceled-(Filled)" fill="#2F313A" fill-rule="nonzero"></path>
    </g>
</svg>