<?xml version="1.0" encoding="UTF-8"?>
<svg width="40px" height="40px" viewBox="0 0 40 40" version="1.1" xmlns="http://www.w3.org/2000/svg" xmlns:xlink="http://www.w3.org/1999/xlink">
    <!-- Generator: Sketch 59.1 (86144) - https://sketch.com -->
    <title>Vector Files/40x40/Flattened/States/Caution</title>
    <desc>Created with Sketch.</desc>
    <g id="40x40/Flattened/States/Caution" stroke="none" stroke-width="1" fill="none" fill-rule="evenodd">
        <path d="M22.5804691,10.509853 C22.3078878,9.99934766 21.8909908,9.58106849 21.3821723,9.3075835 C19.9567548,8.54143532 18.1821921,9.07970969 17.4185755,10.509853 L9.29900295,25.7166376 C9.07118715,26.1433036 8.95197988,26.6198379 8.95197988,27.1038716 C8.95197988,28.7263058 10.2628766,30.0415486 11.8799497,30.0415486 L28.1190949,30.0415486 C28.6015292,30.0415486 29.0764888,29.9219462 29.5017449,29.6933751 C30.9271625,28.9272269 31.4636582,27.1467809 30.7000416,25.7166376 L22.5804691,10.509853 Z M24.3011002,9.5850303 L32.4206728,24.7918149 C33.693367,27.175387 32.7992075,30.1427971 30.4235116,31.4197107 C29.7147514,31.8006625 28.923152,32 28.1190949,32 L11.8799497,32 C9.1848279,32 7,29.8079286 7,27.1038716 C7,26.2971487 7.19867878,25.502925 7.57837179,24.7918149 L15.6979444,9.5850303 C16.9706386,7.20145817 19.9282432,6.30433421 22.303939,7.58124785 C23.1519697,8.03705616 23.8467981,8.73418812 24.3011002,9.5850303 Z M19.999522,25.1639967 C21.0912193,25.1639967 21.9008633,25.9750616 21.9008633,27.0274247 L21.9008633,27.0703783 C21.9008633,28.1227413 21.0912193,28.9338062 19.999522,28.9338062 C18.9078247,28.9338062 18.0981807,28.1227413 18.0981807,27.0703783 L18.0981807,27.0274247 C18.0981807,25.9750616 18.9078247,25.1639967 19.999522,25.1639967 Z M18.055369,14.5115055 C17.9898924,13.876045 18.3399406,13.394712 18.9292305,13.394712 L21.0710726,13.394712 C21.6591033,13.394712 22.0091516,13.876045 21.9436749,14.5115055 L21.0043368,22.7522787 C20.9388601,23.3447857 20.5460002,23.7174713 19.999522,23.7174713 C19.4530437,23.7174713 19.0601838,23.3447857 18.9947072,22.7522787 L18.055369,14.5115055 Z" id="Caution" fill="#2F313A" fill-rule="nonzero"></path>
    </g>
</svg>