<?xml version="1.0" encoding="UTF-8"?>
<svg width="40px" height="40px" viewBox="0 0 40 40" version="1.1" xmlns="http://www.w3.org/2000/svg" xmlns:xlink="http://www.w3.org/1999/xlink">
    <!-- Generator: Sketch 59.1 (86144) - https://sketch.com -->
    <title>Vector Files/40x40/Flattened/States/Caution (Filled)</title>
    <desc>Created with Sketch.</desc>
    <g id="40x40/Flattened/States/Caution-(Filled)" stroke="none" stroke-width="1" fill="none" fill-rule="evenodd">
        <path d="M32.7267198,25.6388929 C34.0307232,28.0730327 33.1145667,31.1033964 30.680427,32.4073999 C29.9542307,32.7964336 29.1431575,33 28.31932,33 L11.68068,33 C8.9192563,33 6.68068005,30.7614237 6.68068005,28 C6.68068005,27.1761625 6.88424647,26.3650892 7.2732802,25.6388929 L15.5926001,10.1094957 C16.8966036,7.67535597 19.9269673,6.75919949 22.3611071,8.06320291 C23.2299999,8.52868122 23.9419215,9.24060286 24.4073999,10.1094957 L32.7267198,25.6388929 Z M19.9999997,26.0189706 C18.8814458,26.0189706 18.051884,26.8472423 18.051884,27.9219312 L18.051884,27.9657961 C18.051884,29.0404851 18.8814458,29.8687568 19.9999997,29.8687568 C21.1185535,29.8687568 21.9481153,29.0404851 21.9481153,27.9657961 L21.9481153,27.9219312 C21.9481153,26.8472423 21.1185535,26.0189706 19.9999997,26.0189706 Z M18.0080191,15.1404863 L18.9704657,23.5560879 C19.0375531,24.1611649 19.4400777,24.541757 20,24.541757 C20.5599217,24.541757 20.9624462,24.1611649 21.0295336,23.5560879 L21.9919802,15.1404863 C22.0590676,14.4915444 21.7004079,14 21.0979112,14 L18.9033783,14 C18.2995914,14 17.9409317,14.4915444 18.0080191,15.1404863 Z" id="Caution-(Filled)" fill="#2F313A" fill-rule="nonzero"></path>
    </g>
</svg>