<?xml version="1.0" encoding="UTF-8"?>
<svg width="40px" height="40px" viewBox="0 0 40 40" version="1.1" xmlns="http://www.w3.org/2000/svg" xmlns:xlink="http://www.w3.org/1999/xlink">
    <!-- Generator: Sketch 59.1 (86144) - https://sketch.com -->
    <title>Vector Files/40x40/Flattened/States/Canceled</title>
    <desc>Created with Sketch.</desc>
    <g id="40x40/Flattened/States/Canceled" stroke="none" stroke-width="1" fill="none" fill-rule="evenodd">
        <path d="M28.253884,12.728145 L12.728369,28.25366 C14.6669825,29.9629581 17.2124548,31 20,31 C26.0748322,31 31,26.0748322 31,20 C31,17.2121424 29.9630799,14.6666755 28.253884,12.728145 L28.253884,12.728145 Z M26.8004288,11.353173 C24.9289009,9.87928853 22.5671681,9 20,9 C13.924737,9 9,13.9243961 9,20 C9,22.5669715 9.8794164,24.928664 11.3533868,26.800215 L26.8004288,11.353173 Z M33,20 C33,27.1794017 27.1794017,33 20,33 C12.8205983,33 7,27.1794017 7,20 C7,12.8197956 12.8201985,7 20,7 C27.1798015,7 33,12.8197956 33,20 Z" id="Canceled" fill="#2F313A" fill-rule="nonzero"></path>
    </g>
</svg>