<?xml version="1.0" encoding="UTF-8"?>
<svg width="40px" height="40px" viewBox="0 0 40 40" version="1.1" xmlns="http://www.w3.org/2000/svg" xmlns:xlink="http://www.w3.org/1999/xlink">
    <!-- Generator: Sketch 59.1 (86144) - https://sketch.com -->
    <title>Vector Files/40x40/Flattened/States/Delivered</title>
    <desc>Created with Sketch.</desc>
    <g id="40x40/Flattened/States/Delivered" stroke="none" stroke-width="1" fill="none" fill-rule="evenodd">
        <path d="M24.9866872,16.4012699 L20.3170513,18.5332934 L20.3110211,18.5360673 C20.0319861,18.663446 19.7249429,18.6518179 19.4677755,18.5302261 L10.162627,14.2002639 L11.4192649,27.3071924 L19.25,31.517466 L19.25,22.2413793 C19.25,21.8271657 19.5857864,21.4913793 20,21.4913793 C20.4142136,21.4913793 20.75,21.8271657 20.75,22.2413793 L20.75,31.4207262 L28.5813134,27.3014411 L29.4837065,17.8952235 C29.3108139,17.9103023 29.135806,17.918 28.959,17.918 C27.4329803,17.918 26.0409136,17.3445606 24.9866872,16.4012699 L24.9866872,16.4012699 Z M24.0633802,8.56068595 C25.1397095,7.01305557 26.9310763,6 28.959,6 C32.25,6 34.918,8.668 34.918,11.959 C34.918,14.3232124 33.5419343,16.3650706 31.5472868,17.3282021 L30.533914,27.8912316 C30.548113,28.2640347 30.3521757,28.6297677 29.9999622,28.8150327 L20.3746374,33.877971 C20.0880755,34.0339506 19.7309388,34.0467993 19.4221308,33.8807656 C19.4176285,33.8784648 19.4131908,33.8760406 19.4087703,33.8735822 L9.99238084,28.8107656 C9.6455894,28.6243097 9.45337034,28.2625975 9.46635688,27.8940259 L8.00816815,12.6848911 C7.95627937,12.2711503 8.15731527,11.8292605 8.60692174,11.6369527 L19.5011503,6.97722066 C19.7416946,6.87397123 20.0222249,6.86471597 20.2826607,6.97401423 L20.2839358,6.97454938 L24.0633802,8.56068595 L24.0633802,8.56068595 Z M23.2133963,10.3729568 L19.8993895,8.9821526 L11.4531123,12.5948351 L19.8996602,16.5252649 L23.7112139,14.7850174 C23.2575117,13.9441565 23,12.9817403 23,11.959 C23,11.4098013 23.0743,10.8779523 23.2133963,10.3729568 L23.2133963,10.3729568 Z M30.6533857,9.4677931 L28.2943074,13.2205244 L27.3071598,11.8708018 C26.9811279,11.4250198 26.355449,11.3279431 25.909667,11.6539751 C25.4638849,11.980007 25.3668083,12.6056858 25.6928402,13.0514679 L27.5496918,15.590333 C27.9667299,16.1605474 28.8274908,16.1302937 29.2034659,15.5322069 L32.3466143,10.5322069 C32.6405441,10.0646347 32.4997791,9.44731542 32.0322069,9.15338567 C31.5646347,8.85945592 30.9473154,9.00022092 30.6533857,9.4677931 Z" id="Shape" fill="#2F313A" fill-rule="nonzero"></path>
    </g>
</svg>