<?xml version="1.0" encoding="UTF-8"?>
<svg width="40px" height="40px" viewBox="0 0 40 40" version="1.1" xmlns="http://www.w3.org/2000/svg" xmlns:xlink="http://www.w3.org/1999/xlink">
    <!-- Generator: Sketch 59.1 (86144) - https://sketch.com -->
    <title>Vector Files/40x40/Flattened/States/Info</title>
    <desc>Created with Sketch.</desc>
    <g id="40x40/Flattened/States/Info" stroke="none" stroke-width="1" fill="none" fill-rule="evenodd">
        <path d="M31,20 C31,13.9258847 26.0741153,9 20,9 C13.9251146,9 9,13.9254548 9,20 C9,26.0753153 13.9246847,31 20,31 C26.0745452,31 31,26.0748854 31,20 Z M33,20 C33,27.1794858 27.1790837,33 20,33 C12.8201153,33 7,27.1798847 7,20 C7,12.8209163 12.8205142,7 20,7 C27.1786847,7 33,12.8213153 33,20 Z M19.9999997,15.8497862 C18.8814458,15.8497862 18.051884,15.0215145 18.051884,13.9468255 L18.051884,13.9029607 C18.051884,12.8282717 18.8814458,12 19.9999997,12 C21.1185535,12 21.9481153,12.8282717 21.9481153,13.9029607 L21.9481153,13.9468255 C21.9481153,15.0215145 21.1185535,15.8497862 19.9999997,15.8497862 Z M18.0080191,26.7282705 L18.9704657,18.3126689 C19.0375531,17.7075919 19.4400777,17.3269997 20,17.3269997 C20.5599217,17.3269997 20.9624462,17.7075919 21.0295336,18.3126689 L21.9919802,26.7282705 C22.0590676,27.3772124 21.7004079,27.8687568 21.0979112,27.8687568 L18.9033783,27.8687568 C18.2995914,27.8687568 17.9409317,27.3772124 18.0080191,26.7282705 Z" id="Info" fill="#2F313A" fill-rule="nonzero"></path>
    </g>
</svg>