<?xml version="1.0" encoding="UTF-8"?>
<svg width="40px" height="40px" viewBox="0 0 40 40" version="1.1" xmlns="http://www.w3.org/2000/svg" xmlns:xlink="http://www.w3.org/1999/xlink">
    <!-- Generator: Sketch 59.1 (86144) - https://sketch.com -->
    <title>Vector Files/40x40/Flattened/States/Info (Filled)</title>
    <desc>Created with Sketch.</desc>
    <g id="40x40/Flattened/States/Info-(Filled)" stroke="none" stroke-width="1" fill="none" fill-rule="evenodd">
        <path d="M33,20 C33,27.1794858 27.1790837,33 20,33 C12.8201153,33 7,27.1798847 7,20 C7,12.8209163 12.8205142,7 20,7 C27.1786847,7 33,12.8213153 33,20 Z M19.9999997,15.8497862 C21.1185535,15.8497862 21.9481153,15.0215145 21.9481153,13.9468255 L21.9481153,13.9029607 C21.9481153,12.8282717 21.1185535,12 19.9999997,12 C18.8814458,12 18.051884,12.8282717 18.051884,13.9029607 L18.051884,13.9468255 C18.051884,15.0215145 18.8814458,15.8497862 19.9999997,15.8497862 Z M18.0080191,26.7282705 C17.9409317,27.3772124 18.2995914,27.8687568 18.9033783,27.8687568 L21.0979112,27.8687568 C21.7004079,27.8687568 22.0590676,27.3772124 21.9919802,26.7282705 L21.0295336,18.3126689 C20.9624462,17.7075919 20.5599217,17.3269997 20,17.3269997 C19.4400777,17.3269997 19.0375531,17.7075919 18.9704657,18.3126689 L18.0080191,26.7282705 Z" id="Info-(Filled)" fill="#2F313A" fill-rule="nonzero"></path>
    </g>
</svg>