<?xml version="1.0" encoding="UTF-8"?>
<svg width="40px" height="40px" viewBox="0 0 40 40" version="1.1" xmlns="http://www.w3.org/2000/svg" xmlns:xlink="http://www.w3.org/1999/xlink">
    <!-- Generator: Sketch 59.1 (86144) - https://sketch.com -->
    <title>Vector Files/40x40/Flattened/States/Inactive</title>
    <desc>Created with Sketch.</desc>
    <g id="40x40/Flattened/States/Inactive" stroke="none" stroke-width="1" fill="none" fill-rule="evenodd">
        <path d="M31,20 C31,13.9258847 26.0741153,9 20,9 C13.9251146,9 9,13.9254548 9,20 C9,26.0753153 13.9246847,31 20,31 C26.0745452,31 31,26.0748854 31,20 Z M33,20 C33,27.1794858 27.1790837,33 20,33 C12.8201153,33 7,27.1798847 7,20 C7,12.8209163 12.8205142,7 20,7 C27.1786847,7 33,12.8213153 33,20 Z M25,19 C25.5522847,19 26,19.4477153 26,20 C26,20.5522847 25.5522847,21 25,21 L15,21 C14.4477153,21 14,20.5522847 14,20 C14,19.4477153 14.4477153,19 15,19 L25,19 Z" id="Inactive" fill="#2F313A" fill-rule="nonzero"></path>
    </g>
</svg>