<?xml version="1.0" encoding="UTF-8"?>
<svg width="40px" height="40px" viewBox="0 0 40 40" version="1.1" xmlns="http://www.w3.org/2000/svg" xmlns:xlink="http://www.w3.org/1999/xlink">
    <!-- Generator: Sketch 59.1 (86144) - https://sketch.com -->
    <title>Vector Files/40x40/Flattened/States/Lost Connection</title>
    <desc>Created with Sketch.</desc>
    <g id="40x40/Flattened/States/Lost-Connection" stroke="none" stroke-width="1" fill="none" fill-rule="evenodd">
        <path d="M16.6293968,17 L27,17 C27.5522847,17 28,17.4477153 28,18 C28,18.5522847 27.5522847,19 27,19 L14,19 C13.0805826,19 12.6484274,17.8636924 13.3354846,17.2527254 L24.5808919,7.2527254 C24.9936002,6.8857237 25.6256801,6.92277627 25.9926818,7.33548463 C26.3596835,7.74819299 26.322631,8.38027289 25.9099226,8.7472746 L16.6293968,17 Z M24.2884557,23 L13,23 C12.4477153,23 12,22.5522847 12,22 C12,21.4477153 12.4477153,21 13,21 L27,21 C27.9293914,21 28.356128,22.1571152 27.6492794,22.7605499 L15.9355255,32.7605499 C15.5154854,33.1191371 14.8842833,33.0693196 14.5256961,32.6492794 C14.167109,32.2292393 14.2169265,31.5980372 14.6369667,31.2394501 L24.2884557,23 Z" id="Lost-Connection" fill="#2F313A" fill-rule="nonzero"></path>
    </g>
</svg>