<?xml version="1.0" encoding="UTF-8"?>
<svg width="40px" height="40px" viewBox="0 0 40 40" version="1.1" xmlns="http://www.w3.org/2000/svg" xmlns:xlink="http://www.w3.org/1999/xlink">
    <!-- Generator: Sketch 59.1 (86144) - https://sketch.com -->
    <title>Vector Files/40x40/Flattened/States/Loading</title>
    <desc>Created with Sketch.</desc>
    <g id="40x40/Flattened/States/Loading" stroke="none" stroke-width="1" fill="none" fill-rule="evenodd">
        <path d="M19,8 C19,7.44771525 19.4477153,7 20,7 C20.5522847,7 21,7.44771525 21,8 L21,14 C21,14.5522847 20.5522847,15 20,15 C19.4477153,15 19,14.5522847 19,14 L19,8 Z M21,32 C21,32.5522847 20.5522847,33 20,33 C19.4477153,33 19,32.5522847 19,32 L19,27 C19,26.4477153 19.4477153,26 20,26 C20.5522847,26 21,26.4477153 21,27 L21,32 Z M8,21 C7.44771525,21 7,20.5522847 7,20 C7,19.4477153 7.44771525,19 8,19 L14,19 C14.5522847,19 15,19.4477153 15,20 C15,20.5522847 14.5522847,21 14,21 L8,21 Z M26,20.5 C25.7238576,20.5 25.5,20.2761424 25.5,20 C25.5,19.7238576 25.7238576,19.5 26,19.5 L32,19.5 C32.2761424,19.5 32.5,19.7238576 32.5,20 C32.5,20.2761424 32.2761424,20.5 32,20.5 L26,20.5 Z M29.1973068,27.7830932 C29.5878311,28.1736175 29.5878311,28.8067825 29.1973068,29.1973068 C28.8067825,29.5878311 28.1736175,29.5878311 27.7830932,29.1973068 L23.9230932,25.3373068 C23.5325689,24.9467825 23.5325689,24.3136175 23.9230932,23.9230932 C24.3136175,23.5325689 24.9467825,23.5325689 25.3373068,23.9230932 L29.1973068,27.7830932 Z M16.3272068,14.9129932 C16.7177311,15.3035175 16.7177311,15.9366825 16.3272068,16.3272068 C15.9366825,16.7177311 15.3035175,16.7177311 14.9129932,16.3272068 L10.8029932,12.2172068 C10.4124689,11.8266825 10.4124689,11.1935175 10.8029932,10.8029932 C11.1935175,10.4124689 11.8266825,10.4124689 12.2172068,10.8029932 L16.3272068,14.9129932 Z M14.6629932,23.9227932 C15.0535175,23.5322689 15.6866825,23.5322689 16.0772068,23.9227932 C16.4677311,24.3133175 16.4677311,24.9464825 16.0772068,25.3370068 L12.2172068,29.1970068 C11.8266825,29.5875311 11.1935175,29.5875311 10.8029932,29.1970068 C10.4124689,28.8064825 10.4124689,28.1733175 10.8029932,27.7827932 L14.6629932,23.9227932 Z M27.7830932,10.8026932 C28.1736175,10.4121689 28.8067825,10.4121689 29.1973068,10.8026932 C29.5878311,11.1932175 29.5878311,11.8263825 29.1973068,12.2169068 L25.0873068,16.3269068 C24.6967825,16.7174311 24.0636175,16.7174311 23.6730932,16.3269068 C23.2825689,15.9363825 23.2825689,15.3032175 23.6730932,14.9126932 L27.7830932,10.8026932 Z" id="Loading" fill="#2F313A" fill-rule="nonzero"></path>
    </g>
</svg>