<?xml version="1.0" encoding="UTF-8"?>
<svg width="40px" height="40px" viewBox="0 0 40 40" version="1.1" xmlns="http://www.w3.org/2000/svg" xmlns:xlink="http://www.w3.org/1999/xlink">
    <!-- Generator: Sketch 59.1 (86144) - https://sketch.com -->
    <title>Vector Files/40x40/Flattened/States/Lost Connection (Filled)</title>
    <desc>Created with Sketch.</desc>
    <g id="40x40/Flattened/States/Lost-Connection-(Filled)" stroke="none" stroke-width="1" fill="none" fill-rule="evenodd">
        <path d="M33,20 C33,27.1794858 27.1790837,33 20,33 C12.8201153,33 7,27.1798847 7,20 C7,12.8209163 12.8205142,7 20,7 C27.1786847,7 33,12.8213153 33,20 Z M17.5541049,16.9999952 L24.3292848,10.7341646 C24.7347527,10.3591789 24.7594635,9.72649635 24.3844778,9.32102845 C24.0094922,8.91556055 23.3768096,8.89084979 22.9713417,9.26583542 L14.3210284,17.2658354 C13.6530481,17.8835984 14.090149,18.9999952 15,18.9999952 L25,18.9999952 C25.5522847,18.9999952 26,18.5522847 26,17.9999952 C26,17.4477153 25.5522847,16.9999952 25,16.9999952 L17.5541049,16.9999952 Z M22.2903376,23 L14.9879267,29.2397429 C14.5680483,29.5985194 14.5185154,30.2297439 14.8772919,30.6496223 C15.2360684,31.0695007 15.8672929,31.1190336 16.2871713,30.7602571 L25.6496223,22.7602571 C26.3560289,22.1566488 25.9291681,21 25,21 L14.9291992,21 C14.3769145,21 13.9291992,21.4477153 13.9291992,22 C13.9291992,22.5522847 14.3769145,23 14.9291992,23 L22.2903376,23 Z" id="Lost-Connection-(Filled)" fill="#2F313A" fill-rule="nonzero"></path>
    </g>
</svg>