<?xml version="1.0" encoding="UTF-8"?>
<svg width="40px" height="40px" viewBox="0 0 40 40" version="1.1" xmlns="http://www.w3.org/2000/svg" xmlns:xlink="http://www.w3.org/1999/xlink">
    <!-- Generator: Sketch 59.1 (86144) - https://sketch.com -->
    <title>Vector Files/40x40/Flattened/States/Loading (Filled)</title>
    <desc>Created with Sketch.</desc>
    <g id="40x40/Flattened/States/Loading-(Filled)" stroke="none" stroke-width="1" fill="none" fill-rule="evenodd">
        <path d="M36,20 C36,28.8362822 28.8357874,36 20,36 C11.1632153,36 4,28.8367847 4,20 C4,11.1642126 11.1637178,4 20,4 C28.8352847,4 36,11.1647153 36,20 Z M19,8 L19,14 C19,14.5522847 19.4477153,15 20,15 C20.5522847,15 21,14.5522847 21,14 L21,8 C21,7.44771525 20.5522847,7 20,7 C19.4477153,7 19,7.44771525 19,8 Z M21,32 L21,27 C21,26.4477153 20.5522847,26 20,26 C19.4477153,26 19,26.4477153 19,27 L19,32 C19,32.5522847 19.4477153,33 20,33 C20.5522847,33 21,32.5522847 21,32 Z M8,21 L14,21 C14.5522847,21 15,20.5522847 15,20 C15,19.4477153 14.5522847,19 14,19 L8,19 C7.44771525,19 7,19.4477153 7,20 C7,20.5522847 7.44771525,21 8,21 Z M26,20.5 L32,20.5 C32.2761424,20.5 32.5,20.2761424 32.5,20 C32.5,19.7238576 32.2761424,19.5 32,19.5 L26,19.5 C25.7238576,19.5 25.5,19.7238576 25.5,20 C25.5,20.2761424 25.7238576,20.5 26,20.5 Z M29.1973068,27.7830932 L25.3373068,23.9230932 C24.9467825,23.5325689 24.3136175,23.5325689 23.9230932,23.9230932 C23.5325689,24.3136175 23.5325689,24.9467825 23.9230932,25.3373068 L27.7830932,29.1973068 C28.1736175,29.5878311 28.8067825,29.5878311 29.1973068,29.1973068 C29.5878311,28.8067825 29.5878311,28.1736175 29.1973068,27.7830932 Z M16.3272068,14.9129932 L12.2172068,10.8029932 C11.8266825,10.4124689 11.1935175,10.4124689 10.8029932,10.8029932 C10.4124689,11.1935175 10.4124689,11.8266825 10.8029932,12.2172068 L14.9129932,16.3272068 C15.3035175,16.7177311 15.9366825,16.7177311 16.3272068,16.3272068 C16.7177311,15.9366825 16.7177311,15.3035175 16.3272068,14.9129932 Z M14.6629932,23.9227932 L10.8029932,27.7827932 C10.4124689,28.1733175 10.4124689,28.8064825 10.8029932,29.1970068 C11.1935175,29.5875311 11.8266825,29.5875311 12.2172068,29.1970068 L16.0772068,25.3370068 C16.4677311,24.9464825 16.4677311,24.3133175 16.0772068,23.9227932 C15.6866825,23.5322689 15.0535175,23.5322689 14.6629932,23.9227932 Z M27.7830932,10.8026932 L23.6730932,14.9126932 C23.2825689,15.3032175 23.2825689,15.9363825 23.6730932,16.3269068 C24.0636175,16.7174311 24.6967825,16.7174311 25.0873068,16.3269068 L29.1973068,12.2169068 C29.5878311,11.8263825 29.5878311,11.1932175 29.1973068,10.8026932 C28.8067825,10.4121689 28.1736175,10.4121689 27.7830932,10.8026932 Z" id="Loading-(Filled)" fill="#2F313A" fill-rule="nonzero"></path>
    </g>
</svg>