<?xml version="1.0" encoding="UTF-8"?>
<svg width="40px" height="40px" viewBox="0 0 40 40" version="1.1" xmlns="http://www.w3.org/2000/svg" xmlns:xlink="http://www.w3.org/1999/xlink">
    <!-- Generator: Sketch 59.1 (86144) - https://sketch.com -->
    <title>Vector Files/40x40/Flattened/States/New Bid (Filled)</title>
    <desc>Created with Sketch.</desc>
    <g id="40x40/Flattened/States/New-Bid-(Filled)" stroke="none" stroke-width="1" fill="none" fill-rule="evenodd">
        <path d="M13.2971986,10.3153308 C17.9222606,8.05621699 19.9874361,8.70433739 21.8069674,11.8304825 C21.8729064,11.9437726 21.9461635,12.0712395 22.0828722,12.3093747 C22.1927879,12.5002482 22.2747952,12.6403914 22.3568478,12.7765533 C23.9815787,15.47271 25.96851,16.2982124 31.1922443,15.0781103 C32.5289915,14.7659739 33.6740138,16.1583156 32.6006687,17.3062475 C25.9763506,24.4141252 23.3253301,25.3326877 20.6984413,22.5300505 C20.6345509,22.4618856 20.4225329,22.2328388 20.3940217,22.2022463 C18.9604506,20.6640275 17.9014049,20.4768733 14.7981905,22.3232659 L15.9922779,31.8759653 C16.0607804,32.4239852 15.6720547,32.9237754 15.1240347,32.9922779 C14.5760148,33.0607804 14.0762246,32.6720547 14.0077221,32.1240347 L11.0077221,8.12403473 C10.9392196,7.5760148 11.3279453,7.07622462 11.8759653,7.00772212 C12.4239852,6.93921963 12.9237754,7.32794533 12.9922779,7.87596527 L13.2971986,10.3153308 Z M31.0335166,16.0542083 L31.0519207,16.0564646 C31.0751319,16.0171923 31.1038668,15.9787138 31.1386764,15.9414853 C31.1034667,15.9792652 31.0684137,16.0168393 31.0335166,16.0542083 Z" id="New-Bid-(Filled)" fill="#2F313A" fill-rule="nonzero"></path>
    </g>
</svg>