<?xml version="1.0" encoding="UTF-8"?>
<svg width="40px" height="40px" viewBox="0 0 40 40" version="1.1" xmlns="http://www.w3.org/2000/svg" xmlns:xlink="http://www.w3.org/1999/xlink">
    <!-- Generator: Sketch 59.1 (86144) - https://sketch.com -->
    <title>Vector Files/40x40/Flattened/States/Pending (Filled)</title>
    <desc>Created with Sketch.</desc>
    <g id="40x40/Flattened/States/Pending-(Filled)" stroke="none" stroke-width="1" fill="none" fill-rule="evenodd">
        <path d="M19.6529135,20.9381228 C19.7610353,20.9781402 19.8779649,21 20,21 L25,21 C25.5522847,21 26,20.5522847 26,20 C26,19.4477153 25.5522847,19 25,19 L21,19 L21,12 C21,11.4477153 20.5522847,11 20,11 C19.4477153,11 19,11.4477153 19,12 L19,20 C19,20.0556868 19.0045518,20.1103104 19.0133035,20.1635192 L13.6229043,25.5539184 C13.4276421,25.7491806 13.4276421,26.0657631 13.6229043,26.2610252 C13.8181664,26.4562874 14.1347489,26.4562874 14.330011,26.2610252 L19.6529135,20.9381228 L19.6529135,20.9381228 Z M33,20 C33,27.1794858 27.1790837,33 20,33 C12.8201153,33 7,27.1798847 7,20 C7,12.8209163 12.8205142,7 20,7 C27.1786847,7 33,12.8213153 33,20 Z" id="Pending-(Filled)" fill="#2F313A" fill-rule="nonzero"></path>
    </g>
</svg>