<?xml version="1.0" encoding="UTF-8"?>
<svg width="40px" height="40px" viewBox="0 0 40 40" version="1.1" xmlns="http://www.w3.org/2000/svg" xmlns:xlink="http://www.w3.org/1999/xlink">
    <!-- Generator: Sketch 59.1 (86144) - https://sketch.com -->
    <title>Vector Files/40x40/Flattened/States/Question</title>
    <desc>Created with Sketch.</desc>
    <g id="40x40/Flattened/States/Question" stroke="none" stroke-width="1" fill="none" fill-rule="evenodd">
        <path d="M31,20 C31,13.9258847 26.0741153,9 20,9 C13.9251146,9 9,13.9254548 9,20 C9,26.0753153 13.9246847,31 20,31 C26.0745452,31 31,26.0748854 31,20 Z M33,20 C33,27.1794858 27.1790837,33 20,33 C12.8201153,33 7,27.1798847 7,20 C7,12.8209163 12.8205142,7 20,7 C27.1786847,7 33,12.8213153 33,20 Z M19.4946576,24.4083027 C20.5456297,24.4083027 21.3215975,25.1842705 21.3215975,26.1932037 L21.3215975,26.2352426 C21.3215975,27.2441759 20.5456297,28.0218953 19.4946576,28.0218953 C18.4436854,28.0218953 17.665966,27.2441759 17.665966,26.2352426 L17.665966,26.1932037 C17.665966,25.1842705 18.4436854,24.4083027 19.4946576,24.4083027 Z M19.4946576,23.0210194 C18.8850937,23.0210194 18.4436854,22.5585917 18.3613593,21.9928184 L18.1494132,20.5634962 C18.0460676,19.8698546 18.4436854,19.3864074 19.1163076,19.3023297 C20.9432475,19.0728674 21.7857768,18.5053424 21.7857768,17.4753897 L21.7857768,17.4333508 C21.7857768,16.4892275 21.0693642,15.942722 19.8519881,15.942722 C18.948152,15.942722 18.1704327,16.2142232 17.4154843,16.7817481 C17.163251,16.9709231 16.8269399,17.1180592 16.4678578,17.1180592 C15.6708706,17.1180592 15,16.445437 15,15.6484498 C15,15.2490804 15.1664039,14.8286915 15.5447539,14.5133999 C16.6587844,13.5885444 18.0670871,13 19.9150464,13 C22.9400946,13 25,14.5554388 25,17.3492731 L25,17.391312 C25,20.0590296 23.150289,21.1520406 20.8591697,21.6144684 L20.7961114,21.9928184 C20.7120336,22.5393239 20.2706253,23.0210194 19.6628131,23.0210194 L19.4946576,23.0210194 Z" id="Question" fill="#2F313A" fill-rule="nonzero"></path>
    </g>
</svg>