<?xml version="1.0" encoding="UTF-8"?>
<svg width="40px" height="40px" viewBox="0 0 40 40" version="1.1" xmlns="http://www.w3.org/2000/svg" xmlns:xlink="http://www.w3.org/1999/xlink">
    <!-- Generator: Sketch 59.1 (86144) - https://sketch.com -->
    <title>Vector Files/40x40/Flattened/States/Question (Filled)</title>
    <desc>Created with Sketch.</desc>
    <g id="40x40/Flattened/States/Question-(Filled)" stroke="none" stroke-width="1" fill="none" fill-rule="evenodd">
        <path d="M33,20 C33,27.1794858 27.1790837,33 20,33 C12.8201153,33 7,27.1798847 7,20 C7,12.8209163 12.8205142,7 20,7 C27.1786847,7 33,12.8213153 33,20 Z M19.4946576,24.4083027 C18.4436854,24.4083027 17.665966,25.1842705 17.665966,26.1932037 L17.665966,26.2352426 C17.665966,27.2441759 18.4436854,28.0218953 19.4946576,28.0218953 C20.5456297,28.0218953 21.3215975,27.2441759 21.3215975,26.2352426 L21.3215975,26.1932037 C21.3215975,25.1842705 20.5456297,24.4083027 19.4946576,24.4083027 Z M19.4946576,23.0210194 L19.6628131,23.0210194 C20.2706253,23.0210194 20.7120336,22.5393239 20.7961114,21.9928184 L20.8591697,21.6144684 C23.150289,21.1520406 25,20.0590296 25,17.391312 L25,17.3492731 C25,14.5554388 22.9400946,13 19.9150464,13 C18.0670871,13 16.6587844,13.5885444 15.5447539,14.5133999 C15.1664039,14.8286915 15,15.2490804 15,15.6484498 C15,16.445437 15.6708706,17.1180592 16.4678578,17.1180592 C16.8269399,17.1180592 17.163251,16.9709231 17.4154843,16.7817481 C18.1704327,16.2142232 18.948152,15.942722 19.8519881,15.942722 C21.0693642,15.942722 21.7857768,16.4892275 21.7857768,17.4333508 L21.7857768,17.4753897 C21.7857768,18.5053424 20.9432475,19.0728674 19.1163076,19.3023297 C18.4436854,19.3864074 18.0460676,19.8698546 18.1494132,20.5634962 L18.3613593,21.9928184 C18.4436854,22.5585917 18.8850937,23.0210194 19.4946576,23.0210194 Z" id="Question-(Filled)" fill="#2F313A" fill-rule="nonzero"></path>
    </g>
</svg>