<?xml version="1.0" encoding="UTF-8"?>
<svg width="100px" height="100px" viewBox="0 0 100 100" version="1.1" xmlns="http://www.w3.org/2000/svg" xmlns:xlink="http://www.w3.org/1999/xlink">
    <!-- Generator: Sketch 59.1 (86144) - https://sketch.com -->
    <title>Vector Files/100x100/Flattened/Business/Banks</title>
    <desc>Created with Sketch.</desc>
    <g id="100x100/Flattened/Business/Banks" stroke="none" stroke-width="1" fill="none" fill-rule="evenodd">
        <path d="M35,62 L35,55 L27,55 L27,62 L35,62 Z M35,64 L27,64 L27,69 L29,69 C29.5522847,69 30,69.4477153 30,70 L30,73 L32,73 L32,70 C32,69.4477153 32.4477153,69 33,69 L35,69 L35,64 Z M73,62 L73,55 L65,55 L65,62 L73,62 L73,62 Z M73,64 L65,64 L65,69 L67,69 C67.5522847,69 68,69.4477153 68,70 L68,73 L70,73 L70,70 C70,69.4477153 70.4477153,69 71,69 L73,69 L73,64 L73,64 Z M42,62 L43.782898,62 C44.9414921,59.6338525 47.2692667,58.0076481 49.9717875,58.0000338 C52.6880873,57.9914211 55.0346626,59.6209405 56.1989316,62 L58,62 L58,55 L42,55 L42,62 Z M42,64 L42,69 L43.0092644,69 L43.0000186,65.4276733 C42.9989675,64.9397403 43.0425136,64.4623686 43.1266406,64 L42,64 L42,64 Z M56.8544539,64 C56.9361493,64.4501203 56.9793703,64.9145236 56.9803924,65.3891371 L56.989738,69 L58,69 L58,64 L56.8544539,64 L56.8544539,64 Z M63,62.8103378 L63,54.1896622 C62.9882104,54.1282535 62.9820379,54.0648476 62.9820379,54 C62.9820379,53.9351524 62.9882104,53.8717465 63,53.8103378 L63,50 L60,50 L60,69 L63,69 L63,63.1896622 C62.9882104,63.1282535 62.9820379,63.0648476 62.9820379,63 C62.9820379,62.9351524 62.9882104,62.8717465 63,62.8103378 L63,62.8103378 Z M35,53 L35,50 L33,50 C32.4477153,50 32,49.5522847 32,49 L32,46 L30,46 L30,49 C30,49.5522847 29.5522847,50 29,50 L27,50 L27,53 L35,53 L35,53 Z M73,53 L73,50 L71,50 C70.4477153,50 70,49.5522847 70,49 L70,46 L68,46 L68,49 C68,49.5522847 67.5522847,50 67,50 L65,50 L65,53 L73,53 L73,53 Z M42,53 L58,53 L58,50 L56,50 C55.4477153,50 55,49.5522847 55,49 L55,46 L45,46 L45,49 C45,49.5522847 44.5522847,50 44,50 L42,50 L42,53 L42,53 Z M57,73 L66,73 L66,71 L57,71 L57,72.9658767 L57,72.9666475 L57,73 L57,73 Z M54.999999,73.0000013 L54.999999,72.9675003 L54.9803981,65.3938788 C54.973934,62.3922345 52.7178391,59.9913368 49.9777757,60.0000013 C47.2373292,60.007746 44.9935465,62.4211685 44.999999,65.4229309 L45.0196172,72.9974118 L45.0196206,73.0000013 L54.999999,73.0000013 L54.999999,73.0000013 Z M43,73 L43,71 L34,71 L34,73 L43,73 Z M28,73 L28,71 L19,71 L19,73 L28,73 Z M17,73 L17,70 C17,69.4477153 17.4477153,69 18,69 L20,69 L20,50 L18,50 C17.4477153,50 17,49.5522847 17,49 L17,46 C17,45.9716678 17.0011782,45.9436108 17.0034884,45.9158753 C16.4190707,45.7109452 16,45.1544122 16,44.5 L16,40.127 C16,39.6135092 16.2626644,39.1357011 16.6962078,38.8605411 L32.6622122,28.7272866 C33.3616581,28.2833644 34.2885411,28.4905073 34.7324632,29.1899533 C35.1763854,29.8893992 34.9692425,30.8162822 34.2697966,31.2602043 L22.0749375,39 L28.625,39 C29.1772847,39 29.625,39.4477153 29.625,40 C29.625,40.5522847 29.1772847,41 28.625,41 L19,41 L19,43 L81,43 L81,41 L34.5,41 C33.9477153,41 33.5,40.5522847 33.5,40 C33.5,39.4477153 33.9477153,39 34.5,39 L77.9250625,39 L50,21.2766072 L39.7219673,27.7998374 C39.0225214,28.2437596 38.0956384,28.0366167 37.6517162,27.3371708 C37.207794,26.6377249 37.4149369,25.7108419 38.1143828,25.2669197 L49.1962078,18.2335411 C49.6868325,17.922153 50.3131675,17.922153 50.8037922,18.2335411 L83.3037922,38.8605411 C83.7373356,39.1357011 84,39.6135092 84,40.127 L84,44.5 C84,45.1544122 83.5809293,45.7109452 82.9965116,45.9158753 C82.9988218,45.9436108 83,45.9716678 83,46 L83,49 C83,49.5522847 82.5522847,50 82,50 L80,50 L80,61.7919922 C80,62.3442769 79.5522847,62.7919922 79,62.7919922 C78.4477153,62.7919922 78,62.3442769 78,61.7919922 L78,50 L75,50 L75,69 L78,69 L78,64.8178711 C78,64.2655863 78.4477153,63.8178711 79,63.8178711 C79.5522847,63.8178711 80,64.2655863 80,64.8178711 L80,69 L82,69 C82.5522847,69 83,69.4477153 83,70 L83,73 L84.3496,73 C84.5775008,73 84.8024054,73.0519302 85.0072354,73.1518473 L91.1572354,76.1518473 C91.6726425,76.4032654 91.9996,76.9265408 91.9996,77.5 L91.9996,81.5 C91.9996,82.3284271 91.3280271,83 90.4996,83 L9.4996,83 C8.67117288,83 7.9996,82.3284271 7.9996,81.5 L7.9996,77.5 C7.9996,76.9265062 8.32659665,76.4032054 8.84205092,76.1518052 L14.9930509,73.1518052 C15.1978582,73.0519155 15.4227317,73 15.6506,73 L17,73 Z M81,73 L81,71 L72,71 L72,73 L81,73 Z M57,46 L57,48 L66,48 L66,46 L57,46 Z M72,46 L72,48 L81,48 L81,46 L72,46 Z M40,69 L40,50 L37,50 L37,69 L40,69 Z M34,46 L34,48 L43,48 L43,46 L34,46 Z M25,69 L25,50 L22,50 L22,69 L25,69 Z M19,46 L19,48 L28,48 L28,46 L19,46 Z M46.5,30.003966 C46.5,32.1057805 48.4270708,35 50,35 C51.5729292,35 53.5,32.1057805 53.5,30.003966 C53.5,29.4654624 53.388405,29.3025279 53.0372902,29.1785284 C52.6033673,29.0252843 52.0550717,28.9924811 50.5903527,29.00262 C50.30687,29.0045823 50.1684137,29.005288 50,29.005288 C49.8315863,29.005288 49.69313,29.0045823 49.4096473,29.00262 C47.9449283,28.9924811 47.3966327,29.0252843 46.9627098,29.1785284 C46.611595,29.3025279 46.5,29.4654624 46.5,30.003966 Z M44.5,30.003966 C44.5,28.6294913 45.1344711,27.7031305 46.2967033,27.292677 C47.0429041,27.029149 47.6864983,26.9906443 49.4234912,27.002668 C49.7024728,27.0045991 49.8376412,27.005288 50,27.005288 C50.1623588,27.005288 50.2975272,27.0045991 50.5765088,27.002668 C52.3135017,26.9906443 52.9570959,27.029149 53.7032967,27.292677 C54.8655289,27.7031305 55.5,28.6294913 55.5,30.003966 C55.5,33.0796349 52.8896862,37 50,37 C47.1103138,37 44.5,33.0796349 44.5,30.003966 Z M15.9968978,76 L10.9996,78.4373099 L10.9996,80 L88.9996,80 L88.9996,78.4372431 L84.0032516,76 L15.9968978,76 Z" id="Bank" fill="#2F313A" fill-rule="nonzero"></path>
    </g>
</svg>