<?xml version="1.0" encoding="UTF-8"?>
<svg width="100px" height="100px" viewBox="0 0 100 100" version="1.1" xmlns="http://www.w3.org/2000/svg" xmlns:xlink="http://www.w3.org/1999/xlink">
    <!-- Generator: Sketch 59.1 (86144) - https://sketch.com -->
    <title>Vector Files/100x100/Flattened/Business/Businesses</title>
    <desc>Created with Sketch.</desc>
    <g id="100x100/Flattened/Business/Businesses" stroke="none" stroke-width="1" fill="none" fill-rule="evenodd">
        <path d="M58,30 L61.5,30 C62.3284271,30 63,30.6715729 63,31.5 L63,50 L78.5,50 C79.3284271,50 80,50.6715729 80,51.5 L80,75 C80,75.8284271 79.3284271,76.5 78.5,76.5 C77.6715729,76.5 77,75.8284271 77,75 L77,53 L63,53 L63,59 L71,59 C71.5522847,59 72,59.4477153 72,60 C72,60.5522847 71.5522847,61 71,61 L63,61 L63,66 L71,66 C71.5522847,66 72,66.4477153 72,67 C72,67.5522847 71.5522847,68 71,68 L63,68 L63,73 L71,73 C71.5522847,73 72,73.4477153 72,74 C72,74.5522847 71.5522847,75 71,75 L63,75 L63,78 C63,78.8284271 62.3284271,79.5 61.5,79.5 C60.6715729,79.5 60,78.8284271 60,78 L60,33 L23,33 L23,68 C23,68.8284271 22.3284271,69.5 21.5,69.5 C20.6715729,69.5 20,68.8284271 20,68 L20,31.5 C20,31.4148219 20.0070997,31.3313021 20.0207396,31.25 C20.0070997,31.1686979 20,31.0851781 20,31 L20,22.5 C20,21.6715729 20.6715729,21 21.5,21 L46.5,21 C47.3284271,21 48,21.6715729 48,22.5 L48,30 L56,30 L56,25 C56,24.4477153 56.4477153,24 57,24 C57.5522847,24 58,24.4477153 58,25 L58,30 Z M23,26 L41,26 C41.5522847,26 42,26.4477153 42,27 C42,27.5522847 41.5522847,28 41,28 L23,28 L23,30 L45,30 L45,24 L23,24 L23,26 Z M32,71 L41.0080942,71 C41.0027771,70.9707774 41,70.9406691 41,70.9099121 L41,66 L29,66 L29,71 L30,71 L30,69 C30,68.4477153 30.4477153,68 31,68 C31.5522847,68 32,68.4477153 32,69 L32,71 Z M41.9919058,71 L54,71 L54,66 L42,66 L42,70.9099121 C42,70.9406691 41.9972229,70.9707774 41.9919058,71 L41.9919058,71 Z M32,58 L41,58 L41,53 L29,53 L29,58 L30,58 L30,56 C30,55.4477153 30.4477153,55 31,55 C31.5522847,55 32,55.4477153 32,56 L32,58 Z M42,58 L54,58 L54,53 L42,53 L42,58 L42,58 Z M32,45 L41,45 L41,40 L29,40 L29,45 L30,45 L30,43 C30,42.4477153 30.4477153,42 31,42 C31.5522847,42 32,42.4477153 32,43 L32,45 Z M42,45 L54,45 L54,40 L42,40 L42,45 L42,45 Z M23,76 C23,76.8284271 22.3284271,77.5 21.5,77.5 C20.6715729,77.5 20,76.8284271 20,76 L20,73 C20,72.1715729 20.6715729,71.5 21.5,71.5 C22.3284271,71.5 23,72.1715729 23,73 L23,76 Z M28,38 L55,38 C55.5522847,38 56,38.4477153 56,39 L56,46 C56,46.5522847 55.5522847,47 55,47 L28,47 C27.4477153,47 27,46.5522847 27,46 L27,39 C27,38.4477153 27.4477153,38 28,38 Z M28,51 L55,51 C55.5522847,51 56,51.4477153 56,52 L56,59 C56,59.5522847 55.5522847,60 55,60 L28,60 C27.4477153,60 27,59.5522847 27,59 L27,52 C27,51.4477153 27.4477153,51 28,51 Z M28,64 L55,64 C55.5522847,64 56,64.4477153 56,65 L56,72 C56,72.5522847 55.5522847,73 55,73 L28,73 C27.4477153,73 27,72.5522847 27,72 L27,65 C27,64.4477153 27.4477153,64 28,64 Z" id="Businesses" fill="#2F313A" fill-rule="nonzero"></path>
    </g>
</svg>