<?xml version="1.0" encoding="UTF-8"?>
<svg width="100px" height="100px" viewBox="0 0 100 100" version="1.1" xmlns="http://www.w3.org/2000/svg" xmlns:xlink="http://www.w3.org/1999/xlink">
    <!-- Generator: Sketch 59.1 (86144) - https://sketch.com -->
    <title>Vector Files/100x100/Flattened/Business/Farmers Markets</title>
    <desc>Created with Sketch.</desc>
    <g id="100x100/Flattened/Business/Farmers-Markets" stroke="none" stroke-width="1" fill="none" fill-rule="evenodd">
        <path d="M55.8398,55 L55.8398,52.587 C55.8398,51.0197153 57.1095153,49.75 58.6768,49.75 L65.7928,49.75 C67.3600847,49.75 68.6298,51.0197153 68.6298,52.587 L68.6298,55 L71,55 L71,38.6229331 C70.6330416,38.3359481 70.2976726,38.0104106 70,37.6524278 C68.8074594,39.086584 67.0099008,40 65,40 C62.9900992,40 61.1925406,39.086584 60,37.6524278 C58.8074594,39.086584 57.0099008,40 55,40 C52.9900992,40 51.1925406,39.086584 50,37.6524278 C48.8074594,39.086584 47.0099008,40 45,40 C42.9900992,40 41.1925406,39.086584 40,37.6524278 C38.8074594,39.086584 37.0099008,40 35,40 C32.9900992,40 31.1925406,39.086584 30,37.6524278 C29.7023274,38.0104106 29.3669584,38.3359481 29,38.6229331 L29,55 L55.8398,55 L55.8398,55 Z M57.8398,55 L66.6298,55 L66.6298,52.587 C66.6298,52.1242847 66.2555153,51.75 65.7928,51.75 L58.6768,51.75 C58.2140847,51.75 57.8398,52.1242847 57.8398,52.587 L57.8398,55 Z M24,39.9234659 C20.8859073,39.4421112 18.5,36.7483819 18.5,33.5 C18.5,32.6715729 19.1715729,32 20,32 L80,32 C80.8284271,32 81.5,32.6715729 81.5,33.5 C81.5,36.7483819 79.1140927,39.4421112 76,39.9234659 L76,55 L76.5,55 C78.7094271,55 80.5,56.7905729 80.5,59 C80.5,61.2094271 78.7094271,63 76.5,63 L76,63 L76,77 L80,77 C80.8284271,77 81.5,77.6715729 81.5,78.5 C81.5,79.3284271 80.8284271,80 80,80 L20,80 C19.1715729,80 18.5,79.3284271 18.5,78.5 C18.5,77.6715729 19.1715729,77 20,77 L24,77 L24,63 L23.5,63 C21.2905729,63 19.5,61.2094271 19.5,59 C19.5,56.7905729 21.2905729,55 23.5,55 L24,55 L24,39.9234659 Z M26,39.9234659 L26,55 L27,55 L27,39.6861964 C26.6769712,39.7906352 26.3429001,39.8704628 26,39.9234659 L26,39.9234659 Z M73,39.6861964 L73,55 L74,55 L74,39.9234659 C73.6570999,39.8704628 73.3230288,39.7906352 73,39.6861964 Z M27,72 L73,72 L73,63 L27,63 L27,72 Z M27,75 L27,77 L73,77 L73,75 L27,75 Z M76.5,60 C77.0525729,60 77.5,59.5525729 77.5,59 C77.5,58.4474271 77.0525729,58 76.5,58 L23.5,58 C22.9474271,58 22.5,58.4474271 22.5,59 C22.5,59.5525729 22.9474271,60 23.5,60 L76.5,60 Z M51.8373478,35 C52.3995394,36.1820164 53.6050738,37 55,37 C56.3949262,37 57.6004606,36.1820164 58.1626522,35 L51.8373478,35 Z M21.8373478,35 C22.3995394,36.1820164 23.6050738,37 25,37 C26.3949262,37 27.6004606,36.1820164 28.1626522,35 L21.8373478,35 Z M31.8373478,35 C32.3995394,36.1820164 33.6050738,37 35,37 C36.3949262,37 37.6004606,36.1820164 38.1626522,35 L31.8373478,35 Z M41.8373478,35 C42.3995394,36.1820164 43.6050738,37 45,37 C46.3949262,37 47.6004606,36.1820164 48.1626522,35 L41.8373478,35 Z M61.8373478,35 C62.3995394,36.1820164 63.6050738,37 65,37 C66.3949262,37 67.6004606,36.1820164 68.1626522,35 L61.8373478,35 Z M71.8373478,35 C72.3995394,36.1820164 73.6050738,37 75,37 C76.3949262,37 77.6004606,36.1820164 78.1626522,35 L71.8373478,35 Z M36.0957,24.75 C36.5099136,24.75 36.8457,25.0857864 36.8457,25.5 C36.8457,25.9142136 36.5099136,26.25 36.0957,26.25 L31.6877,26.25 C29.700395,26.25 27.9197198,27.4322275 27.1479864,29.2639005 L26.6909864,30.3499005 C26.5303265,30.7316874 26.0905865,30.9109463 25.7087995,30.7502864 C25.3270126,30.5896265 25.1477537,30.1498865 25.3084136,29.7680995 L25.7655413,28.6817962 C26.7716629,26.2938137 29.0969603,24.75 31.6877,24.75 L36.0957,24.75 Z M41,24.75 C41.4142136,24.75 41.75,25.0857864 41.75,25.5 C41.75,25.9142136 41.4142136,26.25 41,26.25 L39.072,26.25 C38.6577864,26.25 38.322,25.9142136 38.322,25.5 C38.322,25.0857864 38.6577864,24.75 39.072,24.75 L41,24.75 Z M66.4844365,65.8248893 C66.5809701,66.3681814 66.2184077,66.8867783 65.6751253,66.9844362 C65.1318429,67.0809715 64.6121327,66.7184027 64.5155991,66.1751107 C64.4190655,65.6318186 64.7805054,65.1120992 65.3249102,65.0155638 C65.8681926,64.9190285 66.3867803,65.2815973 66.4844365,65.8248893 Z M70.4844365,65.8248893 C70.5809701,66.3681814 70.2184077,66.8867783 69.6751253,66.9844362 C69.1318429,67.0809715 68.6121327,66.7184027 68.5155991,66.1751107 C68.4190655,65.6318186 68.7805054,65.1120992 69.3249102,65.0155638 C69.8681926,64.9190285 70.3867803,65.2815973 70.4844365,65.8248893 Z M68.4844365,69.0748893 C68.5809701,69.6181814 68.2184077,70.1367783 67.6751253,70.2344362 C67.1318429,70.3309715 66.6121327,69.9684027 66.5155991,69.4251107 C66.4190655,68.8818186 66.7805054,68.3620992 67.3249102,68.2655638 C67.8681926,68.1690285 68.3867803,68.5315973 68.4844365,69.0748893 Z M81.3736107,32.8973446 C81.7064481,33.6559688 81.3612797,33.5407733 80.6026554,33.8736107 C79.8440312,34.2064481 78.9592267,34.8612797 78.6263893,34.1026554 L75.8552096,27.7864058 C74.5871168,24.8937432 71.6161933,23 68.312,23 L31.687,23 C28.3836861,23 25.4128373,24.893848 24.1446107,27.7868154 L21.3736107,34.1026554 C21.0407733,34.8612797 20.1559688,34.2064481 19.3973446,33.8736107 C18.6387203,33.5407733 18.2935519,33.6559688 18.6263893,32.8973446 L21.3972096,26.5819142 C23.1489105,22.5860872 27.2056638,20 31.687,20 L68.312,20 C72.7941742,20 76.8510257,22.5859418 78.6026107,26.5815046 L81.3736107,32.8973446 Z" id="Farmers-Markets" fill="#2F313A" fill-rule="nonzero"></path>
    </g>
</svg>