<?xml version="1.0" encoding="UTF-8"?>
<svg width="100px" height="100px" viewBox="0 0 100 100" version="1.1" xmlns="http://www.w3.org/2000/svg" xmlns:xlink="http://www.w3.org/1999/xlink">
    <!-- Generator: Sketch 59.1 (86144) - https://sketch.com -->
    <title>Vector Files/100x100/Flattened/Business/Hospitals</title>
    <desc>Created with Sketch.</desc>
    <g id="100x100/Flattened/Business/Hospitals" stroke="none" stroke-width="1" fill="none" fill-rule="evenodd">
        <path d="M37.0005,44 L37.0005,39.5924 C37.0005,38.7639729 37.6720729,38.0924 38.5005,38.0924 C39.3289271,38.0924 40.0005,38.7639729 40.0005,39.5924 L40.0005,80.2394 C40.0005,81.0678271 39.3289271,81.7394 38.5005,81.7394 C37.6720729,81.7394 37.0005,81.0678271 37.0005,80.2394 L37.0005,75 L29,75 C28.4477153,75 28,74.5522847 28,74 L28,67.0319269 C27.9996675,67.0213254 27.9995,67.0106822 27.9995,67 C27.9995,66.9893178 27.9996675,66.9786746 28,66.9680731 L28,60 C28,59.4477153 28.4477153,59 29,59 L37.0005,59 L37.0005,54 L23,54 L23,76.5 C23,77.3284271 22.3284271,78 21.5,78 C20.6715729,78 20,77.3284271 20,76.5 L20,52.5 C20,51.6715729 20.6715729,51 21.5,51 L27,51 L27,45.5 C27,44.6715729 27.6715729,44 28.5,44 L37.0005,44 L37.0005,44 Z M37.0005,47 L30,47 L30,51 L37.0005,51 L37.0005,47 L37.0005,47 Z M46.0740389,25 L71.0654018,25 C71.0654018,24.9936026 71.0649612,24.9871945 71.0647961,24.980776 L70.9623925,21.0002 L45.974185,21.0002 L46.0746039,24.903624 C46.0754361,24.9359727 46.0752378,24.9681085 46.0740389,25 L46.0740389,25 Z M43.0762115,25 C43.0759664,24.9936026 43.0757612,24.9871945 43.0755961,24.980776 L42.9731925,21.0001901 L38.5005,21.0001901 C37.6720729,21.0001901 37.0005,20.3286271 37.0005,19.5001901 C37.0005,18.6717729 37.6720729,18.0001901 38.5005,18.0001901 L44.430335,18.0001901 C44.4340044,18.0001901 44.4376694,18.0001901 44.4413315,18.0001901 L72.419535,18.0001901 C72.4232044,18.0001901 72.4268694,18.0001901 72.4305315,18.0001901 L78.5005,18.0001901 C79.3289271,18.0001901 80.0005,18.6717729 80.0005,19.5001901 C80.0005,20.3286271 79.3289271,21.0001901 78.5005,21.0001901 L73.963385,21.0001901 L74.0638039,24.903624 C74.0646361,24.9359727 74.0644378,24.9681085 74.0632389,25 L78.5005,25 C79.3289271,25 80.0005,25.6715729 80.0005,26.5 L80.0005,72.5 C80.0005,73.3284271 79.3289271,74 78.5005,74 C77.6720729,74 77.0005,73.3284271 77.0005,72.5 L77.0005,28 L40.0005,28 L40.0005,35.0442294 C40.0005,35.8726565 39.3289271,36.5442294 38.5005,36.5442294 C37.6720729,36.5442294 37.0005,35.8726565 37.0005,35.0442294 L37.0005,26.5 C37.0005,25.6715729 37.6720729,25 38.5005,25 L43.0762115,25 Z M59,73 L59,80.2399 C59,80.5160424 58.7761424,80.7399 58.5,80.7399 C58.2238576,80.7399 58,80.5160424 58,80.2399 L58,73 L46,73 L46,80 C46,80.5522847 45.5522847,81 45,81 C44.4477153,81 44,80.5522847 44,80 L44,72 C44,71.4477153 44.4477153,71 45,71 L72,71 C72.5522847,71 73,71.4477153 73,72 L73,80 C73,80.5522847 72.5522847,81 72,81 C71.4477153,81 71,80.5522847 71,80 L71,73 L59,73 L59,73 Z M50,65 L58,65 L58,60 L46,60 L46,65 L48,65 L48,63.1188 C48,62.5665153 48.4477153,62.1188 49,62.1188 C49.5522847,62.1188 50,62.5665153 50,63.1188 L50,65 L50,65 Z M59,65 L71,65 L71,60 L59,60 L59,65 L59,65 Z M50,52 L58,52 L58,47 L46,47 L46,52 L48,52 L48,50.1188 C48,49.5665153 48.4477153,49.1188 49,49.1188 C49.5522847,49.1188 50,49.5665153 50,50.1188 L50,52 L50,52 Z M59,52 L71,52 L71,47 L59,47 L59,52 Z M37.0005,66 L37.0005,61 L30,61 L30,66 L37.0005,66 Z M37.0005,68 L30,68 L30,73 L37.0005,73 L37.0005,68 Z M79.9995,80.2399 C79.9995,81.0683271 79.3279271,81.7399 78.4995,81.7399 C77.6710729,81.7399 76.9995,81.0683271 76.9995,80.2399 L76.9995,77.1189 C76.9995,76.2904729 77.6710729,75.6189 78.4995,75.6189 C79.3279271,75.6189 79.9995,76.2904729 79.9995,77.1189 L79.9995,80.2399 Z M45,45 L72,45 C72.5522847,45 73,45.4477153 73,46 L73,53 C73,53.5522847 72.5522847,54 72,54 L45,54 C44.4477153,54 44,53.5522847 44,53 L44,46 C44,45.4477153 44.4477153,45 45,45 Z M45,58 L72,58 C72.5522847,58 73,58.4477153 73,59 L73,66 C73,66.5522847 72.5522847,67 72,67 L45,67 C44.4477153,67 44,66.5522847 44,66 L44,59 C44,58.4477153 44.4477153,58 45,58 Z M54.7427,35.3332 C54.1610976,35.3332 53.665415,35.7177537 53.5999046,36.1818237 C53.5129124,36.798769 53.9810982,37.3332 54.5897,37.3332 L55.8887,37.3332 C56.7779847,37.3332 57.4997,38.0549153 57.4997,38.9442 L57.4997,40.2442 C57.4997,40.8519352 58.0344915,41.3204368 58.6510562,41.2339982 C59.1157722,41.1684613 59.4997,40.67322 59.4997,40.0902 L59.4997,38.9442 C59.4997,38.0549153 60.2214153,37.3332 61.1107,37.3332 L62.4107,37.3332 C63.0183806,37.3332 63.4864764,36.7986894 63.3993824,36.1810204 C63.3344078,35.7175039 62.839207,35.3332 62.2577,35.3332 L61.1107,35.3332 C60.2213226,35.3332 59.4997,34.6123928 59.4997,33.7222 L59.4997,32.4222 C59.4997,31.8154738 58.9649492,31.3470276 58.3483862,31.4335364 C57.8839782,31.4985718 57.4997,31.9936934 57.4997,32.5762 L57.4997,33.7222 C57.4997,34.6123928 56.7780774,35.3332 55.8887,35.3332 L54.7427,35.3332 Z M54.5897,39.3332 C52.7692818,39.3332 51.3622337,37.727064 51.6195173,35.902421 C51.8313921,34.4015175 53.2084334,33.3332 54.7427,33.3332 L55.4997,33.3332 L55.4997,32.5762 C55.4997,31.0404647 56.5685865,29.6632627 58.0707528,29.4529002 C59.8938261,29.1971081 61.4997,30.6038671 61.4997,32.4222 L61.4997,33.3332 L62.2577,33.3332 C63.7923514,33.3332 65.1695561,34.401989 65.3799046,35.9025763 C65.6371326,37.7268252 64.2303552,39.3332 62.4107,39.3332 L61.4997,39.3332 L61.4997,40.0902 C61.4997,41.6256763 60.4322684,43.0025919 58.9295367,43.2145153 C57.1054967,43.4702356 55.4997,42.0634849 55.4997,40.2442 L55.4997,39.3332 L54.5897,39.3332 Z" id="Hospitals" fill="#2F313A" fill-rule="nonzero"></path>
    </g>
</svg>