<?xml version="1.0" encoding="UTF-8"?>
<svg width="100px" height="100px" viewBox="0 0 100 100" version="1.1" xmlns="http://www.w3.org/2000/svg" xmlns:xlink="http://www.w3.org/1999/xlink">
    <!-- Generator: Sketch 59.1 (86144) - https://sketch.com -->
    <title>Vector Files/100x100/Flattened/Business/Purchasers</title>
    <desc>Created with Sketch.</desc>
    <g id="100x100/Flattened/Business/Purchasers" stroke="none" stroke-width="1" fill="none" fill-rule="evenodd">
        <path d="M25,28 L25,22.5 C25,21.6715729 25.6715729,21 26.5,21 L35.5,21 C36.3284271,21 37,21.6715729 37,22.5 L37,28 L80.5,28 C81.3284271,28 82,28.6715729 82,29.5 L82,40.5 C82,41.3284271 81.3284271,42 80.5,42 L76,42 L76,75 L80,75 C82,75 82,78 80,78 L20,78 C18,78 18,75 20,75 L25,75 L25,42 L20.5,42 C19.6715729,42 19,41.3284271 19,40.5 L19,29.5 C19,28.6715729 19.6715729,28 20.5,28 L25,28 Z M28,28 L34,28 L34,24 L28,24 L28,28 Z M41,59 L41,75 L47,75 L47,59 L41,59 L41,59 Z M40,59 L34,59 L34,75 L40,75 L40,59 L40,59 Z M73,42 L28,42 L28,75 L32,75 L32,59 C31.1715729,59 30.5,58.3284271 30.5,57.5 C30.5,50.7217046 34.063908,48 40.5009837,48 C46.9356901,48 50.5,50.7222291 50.5,57.5 C50.5,58.3284271 49.8284271,59 49,59 L49,75 L73,75 L73,70 L57,70 C55.3431458,70 54,68.6568542 54,67 L54,51 C54,49.3431458 55.3431458,48 57,48 L73,48 L73,42 Z M73,68 L73,50 L57,50 C56.4477153,50 56,50.4477153 56,51 L56,67 C56,67.5522847 56.4477153,68 57,68 L73,68 Z M40.5009837,51 C36.1119397,51 33.9886824,52.253918 33.5757707,56 L47.4242047,56 C47.011211,52.2542551 44.8878416,51 40.5009837,51 Z M22,39 L79,39 L79,31 L22,31 L22,39 Z M58,53 C58,52.4477153 58.4477153,52 59,52 C59.5522847,52 60,52.4477153 60,53 L60,59 C60,59.5522847 59.5522847,60 59,60 C58.4477153,60 58,59.5522847 58,59 L58,53 Z M25,34 C24.4477153,34 24,33.5522847 24,33 C24,32.4477153 24.4477153,32 25,32 L46,32 C46.5522847,32 47,32.4477153 47,33 C47,33.5522847 46.5522847,34 46,34 L25,34 Z M49,34 C48.4477153,34 48,33.5522847 48,33 C48,32.4477153 48.4477153,32 49,32 L52,32 C52.5522847,32 53,32.4477153 53,33 C53,33.5522847 52.5522847,34 52,34 L49,34 Z M58,63 C58,62.4477153 58.4477153,62 59,62 C59.5522847,62 60,62.4477153 60,63 L60,65 C60,65.5522847 59.5522847,66 59,66 C58.4477153,66 58,65.5522847 58,65 L58,63 Z" id="Purchasers" fill="#2F313A" fill-rule="nonzero"></path>
    </g>
</svg>