<?xml version="1.0" encoding="UTF-8"?>
<svg width="100px" height="100px" viewBox="0 0 100 100" version="1.1" xmlns="http://www.w3.org/2000/svg" xmlns:xlink="http://www.w3.org/1999/xlink">
    <!-- Generator: Sketch 59.1 (86144) - https://sketch.com -->
    <title>Vector Files/100x100/Flattened/Business/Schools</title>
    <desc>Created with Sketch.</desc>
    <g id="100x100/Flattened/Business/Schools" stroke="none" stroke-width="1" fill="none" fill-rule="evenodd">
        <path d="M16,80 L35,80 L35,69 C35,68.4477153 35.4477153,68 36,68 L56,68 C56.5522847,68 57,68.4477153 57,69 C57,69.5522847 56.5522847,70 56,70 L51,70 L51,80 L63,80 L63,70 L60,70 C59.4477153,70 59,69.5522847 59,69 C59,68.4477153 59.4477153,68 60,68 L64,68 C64.5522847,68 65,68.4477153 65,69 L65,80 L84,80 L84,75 C84,74.1715729 84.6715729,73.5 85.5,73.5 C86.3284271,73.5 87,74.1715729 87,75 L87,80 L89,80 C91,80 91,83 89,83 L11,83 C9,83 9,80 11,80 L13,80 L13,51.469 C13,47.4914966 15.7009284,44.5980026 19.7577011,44.1340538 L29.5,43.1858982 L29.5,38.276 C29.5,37.7860797 29.7392527,37.3270332 30.1408492,37.0464229 L49,23.8688394 L49,12 C49,11.3132111 49.6764102,10.8308257 50.325741,11.0545409 L60.325741,14.4998615 C61.1772479,14.7932329 61.237373,15.9745076 60.4200537,16.3528198 L51,20.7130755 L51,23.8688394 L69.8591508,37.0464229 C70.2607473,37.3270332 70.5,37.7860797 70.5,38.276 L70.5,43.1859245 L80.2675133,44.1367231 C84.2990716,44.5980026 87,47.4914966 87,51.469 L87,70.507 C87,71.3354271 86.3284271,72.007 85.5,72.007 C84.6715729,72.007 84,71.3354271 84,70.507 L84,51.469 C84,49.0462909 82.4711397,47.4084289 79.9517011,47.1199462 L68.8547011,46.0399462 C68.0861826,45.9651512 67.5,45.3191496 67.5,44.547 L67.5,39.0577922 L50,26.8298974 L32.5,39.0577922 L32.5,49 C32.5,51 29.5,51 29.5,49 L29.5,46.2000406 L20.0735133,47.1172769 C17.5288603,47.4084289 16,49.0462909 16,51.469 L16,80 Z M37,80 L49,80 L49,70 L37,70 L37,80 Z M72,76 L78,76 L78,70 L69,70 L69,76 L70,76 L70,73 C70,71.6666667 72,71.6666667 72,73 L72,76 Z M72,62 L78,62 L78,56 L69,56 L69,62 L70,62 L70,59 C70,57.6666667 72,57.6666667 72,59 L72,62 Z M25,76 L31,76 L31,70 L22,70 L22,76 L23,76 L23,73 C23,71.6666667 25,71.6666667 25,73 L25,76 Z M41,62 L49,62 L49,56 L37,56 L37,62 L39,62 L39,59 C39,57.6666667 41,57.6666667 41,59 L41,62 Z M25,62 L31,62 L31,56 L22,56 L22,62 L23,62 L23,59 C23,57.6666667 25,57.6666667 25,59 L25,62 Z M51,62 L63,62 L63,56 L51,56 L51,62 Z M64,54 C64.5522847,54 65,54.4477153 65,55 L65,63 C65,63.5522847 64.5522847,64 64,64 L36,64 C35.4477153,64 35,63.5522847 35,63 L35,55 C35,54.4477153 35.4477153,54 36,54 L64,54 Z M45,39 C45,41.7607153 47.2392847,44 50,44 C52.7607153,44 55,41.7607153 55,39 C55,36.2392847 52.7607153,34 50,34 C47.2392847,34 45,36.2392847 45,39 Z M43,39 C43,35.1347153 46.1347153,32 50,32 C53.8652847,32 57,35.1347153 57,39 C57,42.8652847 53.8652847,46 50,46 C46.1347153,46 43,42.8652847 43,39 Z M21,64 C20.4477153,64 20,63.5522847 20,63 L20,55 C20,54.4477153 20.4477153,54 21,54 L32,54 C32.5522847,54 33,54.4477153 33,55 L33,63 C33,63.5522847 32.5522847,64 32,64 L21,64 Z M21,78 C20.4477153,78 20,77.5522847 20,77 L20,69 C20,68.4477153 20.4477153,68 21,68 L32,68 C32.5522847,68 33,68.4477153 33,69 L33,77 C33,77.5522847 32.5522847,78 32,78 L21,78 Z M51,18.5092169 L57.3252262,15.5814625 L51,13.4022193 L51,18.5092169 Z M41,48 L59,48 C60.3333333,48 60.3333333,50 59,50 L41,50 C39.6666667,50 39.6666667,48 41,48 Z M50.5,42.778 C50.5,43.0541424 50.2761424,43.278 50,43.278 C49.7238576,43.278 49.5,43.0541424 49.5,42.778 L49.5,39 C49.5,38.7238576 49.7238576,38.5 50,38.5 L52.615,38.5 C52.8911424,38.5 53.115,38.7238576 53.115,39 C53.115,39.2761424 52.8911424,39.5 52.615,39.5 L50.5,39.5 L50.5,42.778 Z M68,64 C67.4477153,64 67,63.5522847 67,63 L67,55 C67,54.4477153 67.4477153,54 68,54 L79,54 C79.5522847,54 80,54.4477153 80,55 L80,63 C80,63.5522847 79.5522847,64 79,64 L68,64 Z M68,78 C67.4477153,78 67,77.5522847 67,77 L67,69 C67,68.4477153 67.4477153,68 68,68 L79,68 C79.5522847,68 80,68.4477153 80,69 L80,77 C80,77.5522847 79.5522847,78 79,78 L68,78 Z" id="Schools" fill="#2F313A" fill-rule="nonzero"></path>
    </g>
</svg>