<?xml version="1.0" encoding="UTF-8"?>
<svg width="100px" height="100px" viewBox="0 0 100 100" version="1.1" xmlns="http://www.w3.org/2000/svg" xmlns:xlink="http://www.w3.org/1999/xlink">
    <!-- Generator: Sketch 59.1 (86144) - https://sketch.com -->
    <title>Vector Files/100x100/Flattened/Business/Supermarkets</title>
    <desc>Created with Sketch.</desc>
    <g id="100x100/Flattened/Business/Supermarkets" stroke="none" stroke-width="1" fill="none" fill-rule="evenodd">
        <path d="M35,80 L49.5,80 L49.5,77 C49.5,76.4477153 49.9477153,76 50.5,76 C51.0522847,76 51.5,76.4477153 51.5,77 L51.5,80 L65,80 L65,70.5687 C65,70.2824838 64.6831144,70.0007 64.235871,70.0007 L51.5,70.0007 L51.5,73.5 C51.5,74.0522847 51.0522847,74.5 50.5,74.5 C49.9477153,74.5 49.5,74.0522847 49.5,73.5 L49.5,70.0007 L35.764129,70.0007 C35.317484,70.0007 35,70.2829017 35,70.5687 L35,80 Z M33,80 L33,70.5687 C33,69.1224182 34.2619609,68.0007 35.764129,68.0007 L50.4622331,68.0007 C50.4747645,68.0002347 50.4873548,68 50.5,68 C50.5126452,68 50.5252355,68.0002347 50.5377669,68.0007 L64.235871,68.0007 C65.7387922,68.0007 67,69.1222021 67,70.5687 L67,80 L84.4046102,80 L81.5376604,61.4821977 C81.4109123,60.6635241 81.9718287,59.8971085 82.7905023,59.7703604 C83.6091759,59.6436123 84.3755915,60.2045287 84.5023396,61.0232023 L87.4403518,80 L89,80 C91,80 91,83 89,83 L11,83 C9,83 9,80 11,80 L12.637345,80 L18.2651161,43.7697608 C18.3786288,43.0389935 19.0078099,42.5 19.7473408,42.5 L26.2940191,42.5 L26.2940191,38 C26.2940191,34.4481657 28.9027084,31.5 32.2191405,31.5 L67.5097591,31.5 C70.8254756,31.5 73.4348804,34.4485126 73.4348804,38 L73.4348804,42.4865943 C73.6786951,42.4845897 73.9277138,42.482619 74.179988,42.4807096 C74.800709,42.4760117 75.403136,42.471979 75.9730692,42.4688138 C77.2269812,42.46185 78.2497893,42.4594661 78.9627649,42.4628384 C79.3803638,42.4648136 79.6872694,42.4687265 79.8824515,42.4750835 C80.0475926,42.4804621 80.1401933,42.485998 80.2546657,42.5046296 C80.3569896,42.5139499 80.3569896,42.5139499 80.7674298,42.6841858 C80.9538652,42.7946654 80.9538652,42.7946654 81.232315,43.0955598 C81.4756271,43.5155259 81.5185972,43.5896939 81.5015467,44.0193162 L83.4822228,56.7697487 C83.609387,57.5883578 83.0488603,58.3550585 82.2302513,58.4822228 C81.4116422,58.609387 80.6449415,58.0488603 80.5177772,57.2302513 L78.6896552,45.4618726 C78.0075165,45.460109 77.0883391,45.4626662 75.9897298,45.4687675 C75.42196,45.4719207 74.8215119,45.4759402 74.2026929,45.4806237 C73.6446496,45.4848473 73.1025108,45.4893728 72.5975947,45.4938981 C72.2947262,45.4966126 72.0714965,45.4987244 71.9496872,45.4999269 C71.1155123,45.5081616 70.4348804,44.8342155 70.4348804,44 L70.4348804,38 C70.4348804,36.0292949 69.0814694,34.5 67.5097591,34.5 L32.2191405,34.5 C30.6468323,34.5 29.2940191,36.0288587 29.2940191,38 L29.2940191,44 C29.2940191,44.8284271 28.6224463,45.5 27.7940191,45.5 L21.032329,45.5 L15.6733221,80 L33,80 Z M35.25,42 L35.25,40.9182129 C35.25,40.3659281 35.6977153,39.9182129 36.25,39.9182129 C36.8022847,39.9182129 37.25,40.3659281 37.25,40.9182129 L37.25,42 L54.3665714,42 C54.9188562,42 55.3665714,42.4477153 55.3665714,43 C55.3665714,43.5522847 54.9188562,44 54.3665714,44 L33,44 C32.4477153,44 32,43.5522847 32,43 L32,38 C32,37.4477153 32.4477153,37 33,37 L67,37 C67.5522847,37 68,37.4477153 68,38 L68,43 C68,43.5522847 67.5522847,44 67,44 L58.0570286,44 C57.5047438,44 57.0570286,43.5522847 57.0570286,43 C57.0570286,42.4477153 57.5047438,42 58.0570286,42 L66,42 L66,39 L34,39 L34,42 L35.25,42 L35.25,42 Z M57.9999998,50.0007 L57.9999998,58 L66.9999998,58 L66.9999998,50.0007 L57.9999998,50 L57.9999998,50.0007 Z M55.9999998,50 L43.9999998,50 L43.9999998,58 L55.9999998,58 L55.9999998,50.0007 L55.9999998,50 Z M68.9999998,50.0007 L68.9999998,58 L75.8970099,58 L75.1115554,50 L68.9999998,50 L68.9999998,50.0007 Z M41.9999998,50 L32.9999998,50 L32.9999998,58 L41.9999998,58 L41.9999998,50.0007 L41.9999998,50 Z M31.0000002,50 L24.8884446,50 L24.1029901,58 L31.0000002,58 L31.0000002,50.0007 L31.0000002,50 Z M22.9866034,48.902288 C23.0368705,48.3903089 23.4673773,48 23.9818182,48 L76.0181818,48 C76.5326227,48 76.9631295,48.3903089 77.0133966,48.902288 L77.9952147,58.902288 C78.0529531,59.4903641 77.5909037,60 77,60 L23,60 C22.4090963,60 21.9470469,59.4903641 22.0047853,58.902288 L22.9866034,48.902288 Z M79.7462572,42.5183817 C79.7682577,42.5111617 79.6878081,42.5370775 79.3927178,42.6321369 C79.3427874,42.6499316 79.3014415,42.6646669 79.2645096,42.6814075 C79.4108788,42.6018654 79.572891,42.5456502 79.7462572,42.5183817 Z" id="Supermarkets" fill="#2F313A" fill-rule="nonzero"></path>
    </g>
</svg>