<?xml version="1.0" encoding="UTF-8"?>
<svg width="100px" height="100px" viewBox="0 0 100 100" version="1.1" xmlns="http://www.w3.org/2000/svg" xmlns:xlink="http://www.w3.org/1999/xlink">
    <!-- Generator: Sketch 59.1 (86144) - https://sketch.com -->
    <title>Vector Files/100x100/Flattened/Business/Purveyors</title>
    <desc>Created with Sketch.</desc>
    <g id="100x100/Flattened/Business/Purveyors" stroke="none" stroke-width="1" fill="none" fill-rule="evenodd">
        <path d="M58.5,77 L68,77 L68,56 C68,55.8676045 68.0171527,55.7392151 68.0493569,55.616933 L62.8329918,46.2110273 L46.0022634,40.0325623 L29.40605,46.2250369 L23.7272,55.1372388 C23.8990704,55.38126 24,55.6788433 24,56 L24,77 L25,77 L25,70 C25,69.4477153 25.4477153,69 26,69 C26.5522847,69 27,69.4477153 27,70 L27,77 L33.5,77 L33.5,67.247 C33.5,64.6185126 35.8833812,63 38.622,63 L53.378,63 C56.1159642,63 58.5,64.6186602 58.5,67.247 L58.5,77 Z M55.5,77 L55.5,67.247 C55.5,66.577154 54.6499415,66 53.378,66 L47,66 L47,77 L55.5,77 Z M45,66 L38.622,66 C37.3494553,66 36.5,66.5768503 36.5,67.247 L36.5,77 L45,77 L45,66 Z M71,77 L79,77 L79,40 L61,40 L61,42.3423954 L64.3909128,43.5871803 C64.7289812,43.7112833 65.0111171,43.9528718 65.1857766,44.2678097 L73.8117766,59.8218097 C74.2135584,60.5462839 73.9519645,61.4592948 73.2274903,61.8610766 C72.5030161,62.2628584 71.5900052,62.0012645 71.1882234,61.2767903 L71,60.9373947 L71,77 L71,77 Z M21,77 L21,59.4172175 L19.7650131,61.3553656 C19.3198354,62.0540131 18.3925818,62.2594909 17.6939344,61.8143131 C16.9952869,61.3691354 16.7898091,60.4418818 17.2349869,59.7432344 L27.1459869,44.1892344 C27.3211801,43.9142919 27.5811793,43.7039117 27.8866248,43.5899422 L45.2936248,37.0949422 C45.4613676,37.032353 45.6389608,37.0003 45.818,37.0003 L46.181,37.0003 C46.3573659,37.0003 46.5323499,37.0314031 46.6979128,37.0921803 L58,41.2411124 L58,32.592 C58,25.9999784 63.3300929,21.0361125 70.0950755,21 C70.10434,21 70.1136481,21 70.123,21 C70.1306708,21 70.1383396,21 70.1460062,21 C70.1536613,21 70.1613297,21 70.169,21 C70.1783993,21 70.1877544,21 70.1970653,21 C76.9127818,21.0361506 82,25.9604761 82,32.592 L82,78 C82,78.5423446 81.7121705,79.0174631 81.2809335,79.2809335 C81.0174631,79.7121705 80.5423446,80 80,80 L20,80 C19.1715729,80 18.5,79.3284271 18.5,78.5 C18.5,77.6715729 19.1715729,77 20,77 L21,77 Z M79,38 L79,36 L61,36 L61,38 L79,38 Z M79,34 L79,32.592 C79,27.6261082 75.2543789,24.0108485 70.146009,24.0000244 C64.9652769,24.0108957 61,27.6931752 61,32.592 L61,34 L79,34 Z M50,52.3853 C50,50.1765847 48.2087153,48.3853 46,48.3853 C43.790661,48.3853 42,50.1762084 42,52.3853 C42,54.5950153 43.7902847,56.3853 46,56.3853 C48.2090916,56.3853 50,54.594639 50,52.3853 Z M52,52.3853 C52,55.6992703 49.3135992,58.3853 46,58.3853 C42.6857153,58.3853 40,55.6995847 40,52.3853 C40,49.0717008 42.6860297,46.3853 46,46.3853 C49.3132847,46.3853 52,49.0720153 52,52.3853 Z M27,66 C27,66.5522847 26.5522847,67 26,67 C25.4477153,67 25,66.5522847 25,66 L25,63 C25,62.4477153 25.4477153,62 26,62 C26.5522847,62 27,62.4477153 27,63 L27,66 Z" id="Purveyors" fill="#2F313A" fill-rule="nonzero"></path>
    </g>
</svg>