<?xml version="1.0" encoding="UTF-8"?>
<svg width="40px" height="40px" viewBox="0 0 40 40" version="1.1" xmlns="http://www.w3.org/2000/svg" xmlns:xlink="http://www.w3.org/1999/xlink">
    <!-- Generator: Sketch 59.1 (86144) - https://sketch.com -->
    <title>Vector Files/40x40/Flattened/Business/Banks</title>
    <desc>Created with Sketch.</desc>
    <g id="40x40/Flattened/Business/Banks" stroke="none" stroke-width="1" fill="none" fill-rule="evenodd">
        <path d="M9,28 L11,28 L11,21 L9,21 L9,28 Z M9,29 L9,30 L11,30 L11,29 L9,29 Z M16,28 L16,21 L14,21 L14,28 L16,28 L16,28 Z M16,29 L14,29 L14,30 L16,30 L16,29 L16,29 Z M16,20 L16,19 L17,19 L17,30 L18,30 L18,27 C18,25.8954305 18.8954305,25 20,25 C21.1045695,25 22,25.8954305 22,27 L22,30 L23,30 L23,19 L24,19 L24,20 L26,20 L26,19 L12,19 L12,30 L13,30 L13,19 L14,19 L14,20 L16,20 Z M28,30 L28,19 L29,19 L29,20 L31,20 L31,19 L27,19 L27,30 L28,30 Z M31,28 L31,21 L29,21 L29,28 L31,28 Z M31,29 L29,29 L29,30 L31,30 L31,29 Z M26,28 L26,21 L24,21 L24,28 L26,28 Z M26,29 L24,29 L24,30 L26,30 L26,29 Z M32,19 L32,30 L34,30 C35.3333333,30 35.3333333,32 34,32 L6,32 C4.66666667,32 4.66666667,30 6,30 L8,30 L8,19 L7.70583676,19 C6.94231183,19 6.23338332,18.6041206 5.83284938,17.9540876 C5.19546438,16.9196653 5.51732677,15.5643976 6.55174914,14.9270126 L18.9057718,7.31477518 C19.2397664,7.10897612 19.6243632,7 20.0166712,7 C20.3871801,7 20.7504062,7.10292069 21.0658418,7.29728419 L33.4482509,14.9270126 C34.0982838,15.3275466 34.4941632,16.0364751 34.4941632,16.8 C34.4941632,18.0150264 33.5091897,19 32.2941632,19 L32,19 Z M11,20 L11,19 L9,19 L9,20 L11,20 Z M21,30 L21,27 C21,26.4477153 20.5522847,26 20,26 C19.4477153,26 19,26.4477153 19,27 L19,30 L21,30 Z M20.0166712,9 C19.994872,9 19.9735013,9.00605543 19.9549424,9.01749098 L7.60091971,16.6297284 C7.50688131,16.6876725 7.47762109,16.8108787 7.53556518,16.9049171 C7.57197736,16.964011 7.63642541,17 7.70583676,17 L32.2941632,17 C32.4046202,17 32.4941632,16.9104569 32.4941632,16.8 C32.4941632,16.7305886 32.4581742,16.6661406 32.3990803,16.6297284 L20.0166712,9 Z M19,13.5 C19,14.0518576 19.4481424,14.5 20,14.5 C20.5518576,14.5 21,14.0518576 21,13.5 C21,12.9481424 20.5518576,12.5 20,12.5 C19.4481424,12.5 19,12.9481424 19,13.5 Z M18,13.5 C18,12.3958576 18.8958576,11.5 20,11.5 C21.1041424,11.5 22,12.3958576 22,13.5 C22,14.6041424 21.1041424,15.5 20,15.5 C18.8958576,15.5 18,14.6041424 18,13.5 Z" id="Banks" fill="#2F313A" fill-rule="nonzero"></path>
    </g>
</svg>