<?xml version="1.0" encoding="UTF-8"?>
<svg width="40px" height="40px" viewBox="0 0 40 40" version="1.1" xmlns="http://www.w3.org/2000/svg" xmlns:xlink="http://www.w3.org/1999/xlink">
    <!-- Generator: Sketch 59.1 (86144) - https://sketch.com -->
    <title>Vector Files/40x40/Flattened/Business/Banks (Filled)</title>
    <desc>Created with Sketch.</desc>
    <g id="40x40/Flattened/Business/Banks-(Filled)" stroke="none" stroke-width="1" fill="none" fill-rule="evenodd">
        <path d="M8,30 L8,19 L7.70583676,19 C6.94231183,19 6.23338332,18.6041206 5.83284938,17.9540876 C5.19546438,16.9196653 5.51732677,15.5643976 6.55174914,14.9270126 L18.9057718,7.31477518 C19.2397664,7.10897612 19.6243632,7 20.0166712,7 C20.3871801,7 20.7504062,7.10292069 21.0658418,7.29728419 L33.4482509,14.9270126 C34.0982838,15.3275466 34.4941632,16.0364751 34.4941632,16.8 C34.4941632,18.0150264 33.5091897,19 32.2941632,19 L32,19 L32,30 L34,30 C34.5522847,30 35,30.4477153 35,31 C35,31.5522847 34.5522847,32 34,32 L6,32 C5.44771525,32 5,31.5522847 5,31 C5,30.4477153 5.44771525,30 6,30 L8,30 Z M9,30 L11,30 L11,29 L9,29 L9,30 Z M14,30 L16,30 L16,29 L14,29 L14,30 Z M18.5,30 L21.5,30 L21.5,27 C21.5,26.1715729 20.8284271,25.5 20,25.5 C19.1715729,25.5 18.5,26.1715729 18.5,27 L18.5,30 Z M24,30 L26,30 L26,29 L24,29 L24,30 Z M29,30 L31,30 L31,29 L29,29 L29,30 Z M9,19 L9,20 L11,20 L11,19 L9,19 L9,19 Z M14,19 L14,20 L16,20 L16,19 L14,19 L14,19 Z M24,19 L24,20 L26,20 L26,19 L24,19 L24,19 Z M29,19 L29,20 L31,20 L31,19 L29,19 Z M9,21 L9,28 L11,28 L11,21 L9,21 Z M14,21 L14,28 L16,28 L16,21 L14,21 Z M24,21 L24,28 L26,28 L26,21 L24,21 Z M29,21 L29,28 L31,28 L31,21 L29,21 Z M18.5,13.5 C18.5,14.328 19.172,15 20,15 C20.828,15 21.5,14.328 21.5,13.5 C21.5,12.672 20.828,12 20,12 C19.172,12 18.5,12.672 18.5,13.5 Z M8.5,17 C8.22385763,17 8,17.2238576 8,17.5 C8,17.7761424 8.22385763,18 8.5,18 L31.5,18 C31.7761424,18 32,17.7761424 32,17.5 C32,17.2238576 31.7761424,17 31.5,17 L8.5,17 Z" id="Banks-(Filled)" fill="#2F313A" fill-rule="nonzero"></path>
    </g>
</svg>