<?xml version="1.0" encoding="UTF-8"?>
<svg width="40px" height="40px" viewBox="0 0 40 40" version="1.1" xmlns="http://www.w3.org/2000/svg" xmlns:xlink="http://www.w3.org/1999/xlink">
    <!-- Generator: Sketch 59.1 (86144) - https://sketch.com -->
    <title>Vector Files/40x40/Flattened/Business/Businesses (Filled)</title>
    <desc>Created with Sketch.</desc>
    <g id="40x40/Flattened/Business/Businesses-(Filled)" stroke="none" stroke-width="1" fill="none" fill-rule="evenodd">
        <path d="M25,27 L30,27 C30.2761424,27 30.5,26.7761424 30.5,26.5 C30.5,26.2238576 30.2761424,26 30,26 L25,26 L25,27 Z M25,24 L30,24 C30.2761424,24 30.5,23.7761424 30.5,23.5 C30.5,23.2238576 30.2761424,23 30,23 L25,23 L25,24 Z M25,21 L32,21 L32,30.9997637 L25,30.9999705 L32,30.9997637 L32,21 L25,21 Z M24,33 L7,33 C6.44771525,33 6,32.5522847 6,32 L6,7 C6,6.44771525 6.44771525,6 7,6 L18,6 C18.5522847,6 19,6.44771525 19,7 L19,10 L24,10 C24.5522847,10 25,10.4477153 25,11 L25,19 L33,19 C33.5522847,19 34,19.4477153 34,20 L34,31.9997341 C34,32.5520073 33.5523028,32.9997178 33.0000295,33 L24.0000295,33 L24,33 Z M25,30 L30,30 C30.2761424,30 30.5,29.7761424 30.5,29.5 C30.5,29.2238576 30.2761424,29 30,29 L25,29 L25,30 Z M8,10 L17,10 L17,8 L8,8 L8,10 Z M15.007,27 L10,27 C9.44771525,27 9,27.4477153 9,28 C9,28.5522847 9.44771525,29 10,29 L15.007,29 L15.007,27 L15.007,27 Z M16.007,27 L16.007,29 L21,29 C21.5522847,29 22,28.5522847 22,28 C22,27.4477153 21.5522847,27 21,27 L16.007,27 L16.007,27 Z M15.007,21 L10,21 C9.44771525,21 9,21.4477153 9,22 C9,22.5522847 9.44771525,23 10,23 L15.007,23 L15.007,21 Z M16.007,21 L16.007,23 L21,23 C21.5522847,23 22,22.5522847 22,22 C22,21.4477153 21.5522847,21 21,21 L16.007,21 L16.007,21 Z M15.007,15 L10,15 C9.44771525,15 9,15.4477153 9,16 C9,16.5522847 9.44771525,17 10,17 L15.007,17 L15.007,15 L15.007,15 Z M16.007,15 L16.007,17 L21,17 C21.5522847,17 22,16.5522847 22,16 C22,15.4477153 21.5522847,15 21,15 L16.007,15 Z" id="Businesses-(Filled)" fill="#2F313A" fill-rule="nonzero"></path>
    </g>
</svg>