<?xml version="1.0" encoding="UTF-8"?>
<svg width="40px" height="40px" viewBox="0 0 40 40" version="1.1" xmlns="http://www.w3.org/2000/svg" xmlns:xlink="http://www.w3.org/1999/xlink">
    <!-- Generator: Sketch 59.1 (86144) - https://sketch.com -->
    <title>Vector Files/40x40/Flattened/Business/Businesses</title>
    <desc>Created with Sketch.</desc>
    <g id="40x40/Flattened/Business/Businesses" stroke="none" stroke-width="1" fill="none" fill-rule="evenodd">
        <path d="M6,32 L6,7 C6,6.44771525 6.44771525,6 7,6 L18,6 C18.5522847,6 19,6.44771525 19,7 L19,10 L24,10 C24.5522847,10 25,10.4477153 25,11 L25,19 L33,19 C33.5522847,19 34,19.4477153 34,20 L34,31.9997341 C34,32.5520189 33.5522847,33 33,33 C32.4477153,33 32,32.5520189 32,31.9997341 L32,21 L25,21 L25,23 L30,23 C30.2761424,23 30.5,23.2238576 30.5,23.5 C30.5,23.7761424 30.2761424,24 30,24 L25,24 L25,26 L30,26 C30.2761424,26 30.5,26.2238576 30.5,26.5 C30.5,26.7761424 30.2761424,27 30,27 L25,27 L25,29 L30,29 C30.2761424,29 30.5,29.2238576 30.5,29.5 C30.5,29.7761424 30.2761424,30 30,30 L25,30 L25,32 C25,32.5522847 24.5522847,33 24,33 C23.4477153,33 23,32.5522847 23,32 L23,12 L8,12 L8,32 C8,32.5522847 7.55228475,33 7,33 C6.44771525,33 6,32.5522847 6,32 Z M8,10 L17,10 L17,8 L8,8 L8,10 Z M15.007,29 L15.007,27 L10,27 L10,29 L15.007,29 L15.007,29 Z M16.007,29 L21,29 L21,27 L16.007,27 L16.007,29 Z M15.007,23 L15.007,21 L10,21 L10,23 L15.007,23 L15.007,23 Z M16.007,23 L21,23 L21,21 L16.007,21 L16.007,23 L16.007,23 Z M15.007,17 L15.007,15 L10,15 L10,17 L15.007,17 L15.007,17 Z M16.007,17 L21,17 L21,15 L16.007,15 L16.007,17 Z M10,14 L21,14 C21.5522847,14 22,14.4477153 22,15 L22,17 C22,17.5522847 21.5522847,18 21,18 L10,18 C9.44771525,18 9,17.5522847 9,17 L9,15 C9,14.4477153 9.44771525,14 10,14 Z M10,20 L21,20 C21.5522847,20 22,20.4477153 22,21 L22,23 C22,23.5522847 21.5522847,24 21,24 L10,24 C9.44771525,24 9,23.5522847 9,23 L9,21 C9,20.4477153 9.44771525,20 10,20 Z M10,26 L21,26 C21.5522847,26 22,26.4477153 22,27 L22,29 C22,29.5522847 21.5522847,30 21,30 L10,30 C9.44771525,30 9,29.5522847 9,29 L9,27 C9,26.4477153 9.44771525,26 10,26 Z" id="Businesses" fill="#2F313A" fill-rule="nonzero"></path>
    </g>
</svg>