<?xml version="1.0" encoding="UTF-8"?>
<svg width="40px" height="40px" viewBox="0 0 40 40" version="1.1" xmlns="http://www.w3.org/2000/svg" xmlns:xlink="http://www.w3.org/1999/xlink">
    <!-- Generator: Sketch 59.1 (86144) - https://sketch.com -->
    <title>Vector Files/40x40/Flattened/Business/Farmers Markets (Filled)</title>
    <desc>Created with Sketch.</desc>
    <g id="40x40/Flattened/Business/Farmers-Markets-(Filled)" stroke="none" stroke-width="1" fill="none" fill-rule="evenodd">
        <path d="M29,23 L29,16.995 L11,16.995 L11,23 L21,23 L21,21.699952 C21,21.3130101 21.3807522,21 21.8514366,21 L25.1497314,21 C25.6192478,21 26,21.3130101 26,21.699952 L26,23 L29,23 L29,23 Z M31,23 C31.5522847,23 32,23.4477153 32,24 C32,24.5522847 31.5522847,25 31,25 L31.0001,32 L9,32 L9,25 C8.44771525,25 8,24.5522847 8,24 C8,23.4477153 8.44771525,23 9,23 L9,16.995 L8,16.995 C7.44771525,16.995 7,16.5472847 7,15.995 L7,12.958 C7,12.8237437 7.0270344,12.690862 7.07949129,12.567278 L8.90085355,8.27630093 C9.23070849,7.5014782 9.99376771,7 10.8372894,7 L29.1627106,7 C30.0062684,7 30.7682995,7.50151639 31.0984757,8.27709467 L32.9204309,12.5670947 C32.9729386,12.69073 33,12.8236767 33,12.958 L33,15.995 C33,16.5472847 32.5522847,16.995 32,16.995 L31,16.995 L31,23 Z M20.5,15 L20.5,9 L19.5,9 L19.5,15 L20.5,15 Z M16.5958052,15 L17.5956,15 L17.5956,13.2052 L17.8231733,9 L16.8217973,9 L16.5963264,13.1782577 L16.5958052,15 Z M14.7006,15 L14.7006,13.2052 L15.3205694,9 L14.310457,9 L13.7058658,13.1328253 L13.7020613,15 L14.7006,15 Z M11.8466,15 L11.8466,13.2596681 L12.7858101,9 L11.7617909,9 L10.8583279,13.0975414 L10.8466,13.2052 L10.8466,15 L11.8466,15 Z M22.4082096,15 L23.408,15 L23.408,13.2052 L23.1817164,9 L22.1803477,9 L22.4087264,13.2321423 L22.4082096,15 Z M25.308548,15 L26.307,15 L26.307,13.2052 L25.6964676,9 L24.6864992,9 L25.3122658,13.2775747 L25.308548,15 Z M29.166,15 L29.166,13.2052 L29.1542721,13.0975414 L28.2508091,9 L27.2267899,9 L28.166,13.2596681 L28.166,15 L29.166,15 Z M8,32 C7.44771525,32 7,31.5522847 7,31 C7,30.4477153 7.44771525,30 8,30 L32,30 C32.5522847,30 33,30.4477153 33,31 C33,31.5522847 32.5522847,32 32,32 L8,32 Z" id="Farmers-Markets-(Filled)" fill="#2F313A" fill-rule="nonzero"></path>
    </g>
</svg>