<?xml version="1.0" encoding="UTF-8"?>
<svg width="40px" height="40px" viewBox="0 0 40 40" version="1.1" xmlns="http://www.w3.org/2000/svg" xmlns:xlink="http://www.w3.org/1999/xlink">
    <!-- Generator: Sketch 59.1 (86144) - https://sketch.com -->
    <title>Vector Files/40x40/Flattened/Business/Hospitals</title>
    <desc>Created with Sketch.</desc>
    <g id="40x40/Flattened/Business/Hospitals" stroke="none" stroke-width="1" fill="none" fill-rule="evenodd">
        <path d="M10,19 L16,19 L16,17 L10,17 L10,19 L10,19 Z M9,19 L9,17 L7,17 C6.44771525,17 6,16.5522847 6,16 L6,13 C6,12.4477153 6.44771525,12 7,12 L16.0016918,12 C16.0539875,10.3538219 17.3124324,9 18.906,9 L19.0486128,9 C19.3310415,7.2978516 20.8101544,6 22.5923969,6 L27.4080361,6 C29.1901899,6 30.6692079,7.29787898 30.951453,9 L31.094,9 C32.7218479,9 34,10.4126944 34,12.1066316 L34,31 C34,31.5522847 33.5522847,32 33,32 C32.4477153,32 32,31.5522847 32,31 L32,12.1066316 C32,11.4750951 31.5701521,11 31.094,11 L18.906,11 C18.4298479,11 18,11.4750951 18,12.1066316 L18,31 C18,31.5522847 17.5522847,32 17,32 C16.4477153,32 16,31.5522847 16,31 L16,30 L11,30 C10.7238576,30 10.5,29.7761424 10.5,29.5 C10.5,29.2238576 10.7238576,29 11,29 L16,29 L16,27 L11,27 C10.7238576,27 10.5,26.7761424 10.5,26.5 C10.5,26.2238576 10.7238576,26 11,26 L16,26 L16,24 L11,24 C10.7238576,24 10.5,23.7761424 10.5,23.5 C10.5,23.2238576 10.7238576,23 11,23 L16,23 L16,21 L8,21 L8,31 C8,31.5522847 7.55228475,32 7,32 C6.44771525,32 6,31.5522847 6,31 L6,20 C6,19.4477153 6.44771525,19 7,19 L9,19 Z M16,15 L16,14 L8,14 L8,15 L16,15 L16,15 Z M26,14.5 L27,14.5 C27.5522847,14.5 28,14.9477153 28,15.5 C28,16.0522847 27.5522847,16.5 27,16.5 L26,16.5 L26,17.5 C26,18.0522847 25.5522847,18.5 25,18.5 C24.4477153,18.5 24,18.0522847 24,17.5 L24,16.5 L23,16.5 C22.4477153,16.5 22,16.0522847 22,15.5 C22,14.9477153 22.4477153,14.5 23,14.5 L24,14.5 L24,13.5 C24,12.9477153 24.4477153,12.5 25,12.5 C25.5522847,12.5 26,12.9477153 26,13.5 L26,14.5 Z M25.5,27 L25.5,31.5 C25.5,31.7761424 25.2761424,32 25,32 C24.7238576,32 24.5,31.7761424 24.5,31.5 L24.5,27 L20,27 L20,31.5 C20,31.7761424 19.7761424,32 19.5,32 C19.2238576,32 19,31.7761424 19,31.5 L19,26.5 C19,26.2238576 19.2238576,26 19.5,26 L30.5,26 C30.7761424,26 31,26.2238576 31,26.5 L31,31.5 C31,31.7761424 30.7761424,32 30.5,32 C30.2238576,32 30,31.7761424 30,31.5 L30,27 L25.5,27 L25.5,27 Z M24.5,23 L24.5,21 L20,21 L20,23 L24.5,23 L24.5,23 Z M25.5,23 L30,23 L30,21 L25.5,21 L25.5,23 L25.5,23 Z M28.8863038,9 C28.6513971,8.41391983 28.0780547,8 27.4080361,8 L22.5923969,8 C21.9222997,8 21.3488751,8.41390436 21.1138361,9 L28.8863038,9 L28.8863038,9 Z M20,20 L30,20 C30.5522847,20 31,20.4477153 31,21 L31,23 C31,23.5522847 30.5522847,24 30,24 L20,24 C19.4477153,24 19,23.5522847 19,23 L19,21 C19,20.4477153 19.4477153,20 20,20 Z" id="Hospitals" fill="#2F313A" fill-rule="nonzero"></path>
    </g>
</svg>