<?xml version="1.0" encoding="UTF-8"?>
<svg width="40px" height="40px" viewBox="0 0 40 40" version="1.1" xmlns="http://www.w3.org/2000/svg" xmlns:xlink="http://www.w3.org/1999/xlink">
    <!-- Generator: Sketch 59.1 (86144) - https://sketch.com -->
    <title>Vector Files/40x40/Flattened/Business/Hospitals (Filled)</title>
    <desc>Created with Sketch.</desc>
    <g id="40x40/Flattened/Business/Hospitals-(Filled)" stroke="none" stroke-width="1" fill="none" fill-rule="evenodd">
        <path d="M16.0016918,12 C16.0539875,10.3538219 17.3124324,9 18.906,9 L19.0486128,9 C19.3310415,7.2978516 20.8101544,6 22.5923969,6 L27.4080361,6 C29.1901899,6 30.6692079,7.29787898 30.951453,9 L31.094,9 C32.7218479,9 34,10.4126944 34,12.1066316 L34,31 C34,31.5522847 33.5522847,32 33,32 L7,32 C6.44771525,32 6,31.5522847 6,31 L6,20 C6,19.4477153 6.44771525,19 7,19 L9,19 L9,17 L7,17 C6.44771525,17 6,16.5522847 6,16 L6,13 C6,12.4477153 6.44771525,12 7,12 L16.0016918,12 Z M16,14 L8,14 L8,15 L16,15 L16,14 Z M16,17 L10,17 L10,19 L16,19 L16,17 Z M16,23 L11,23 C10.7238576,23 10.5,23.2238576 10.5,23.5 C10.5,23.7761424 10.7238576,24 11,24 L16,24 L16,23 Z M16,25 L11,25 C10.7238576,25 10.5,25.2238576 10.5,25.5 C10.5,25.7761424 10.7238576,26 11,26 L16,26 L16,25 Z M16,27 L11,27 C10.7238576,27 10.5,27.2238576 10.5,27.5 C10.5,27.7761424 10.7238576,28 11,28 L16,28 L16,27 Z M25.5,26 L25.5,31 L30,31 L30,27 C30,26.4477153 29.5522847,26 29,26 L25.5,26 Z M24.5,26 L21,26 C20.4477153,26 20,26.4477153 20,27 L20,31 L24.5,31 L24.5,26 Z M24.5,23 L24.5,21 L21,21 C20.4477153,21 20,21.4477153 20,22 C20,22.5522847 20.4477153,23 21,23 L24.5,23 L24.5,23 Z M25.5,23 L29,23 C29.5522847,23 30,22.5522847 30,22 C30,21.4477153 29.5522847,21 29,21 L25.5,21 L25.5,23 L25.5,23 Z M28.8863038,9 C28.6513971,8.41391983 28.0780547,8 27.4080361,8 L22.5923969,8 C21.9222997,8 21.3488751,8.41390436 21.1138361,9 L28.8863038,9 L28.8863038,9 Z M26,14.5 L26,13.5 C26,12.9477153 25.5522847,12.5 25,12.5 C24.4477153,12.5 24,12.9477153 24,13.5 L24,14.5 L23,14.5 C22.4477153,14.5 22,14.9477153 22,15.5 C22,16.0522847 22.4477153,16.5 23,16.5 L24,16.5 L24,17.5 C24,18.0522847 24.4477153,18.5 25,18.5 C25.5522847,18.5 26,18.0522847 26,17.5 L26,16.5 L27,16.5 C27.5522847,16.5 28,16.0522847 28,15.5 C28,14.9477153 27.5522847,14.5 27,14.5 L26,14.5 Z" id="Hospitals-(Filled)" fill="#2F313A" fill-rule="nonzero"></path>
    </g>
</svg>