<?xml version="1.0" encoding="UTF-8"?>
<svg width="40px" height="40px" viewBox="0 0 40 40" version="1.1" xmlns="http://www.w3.org/2000/svg" xmlns:xlink="http://www.w3.org/1999/xlink">
    <!-- Generator: Sketch 59.1 (86144) - https://sketch.com -->
    <title>Vector Files/40x40/Flattened/Business/Purchasers (Filled)</title>
    <desc>Created with Sketch.</desc>
    <g id="40x40/Flattened/Business/Purchasers-(Filled)" stroke="none" stroke-width="1" fill="none" fill-rule="evenodd">
        <path d="M12,30 L18,30 L18,29 L12,29 L12,30 Z M8,30 L8,15 L7,15 C6.44771525,15 6,14.5522847 6,14 L6,10 C6,9.44771525 6.44771525,9 7,9 L33,9 C33.5522847,9 34,9.44771525 34,10 L34,14 C34,14.5522847 33.5522847,15 33,15 L32,15 L32,30 L33,30 C33.5522847,30 34,30.4477153 34,31 C34,31.5522847 33.5522847,32 33,32 L7,32 C6.44771525,32 6,31.5522847 6,31 C6,30.4477153 6.44771525,30 7,30 L8,30 Z M8,13 L32,13 L32,11 L8,11 L8,13 Z M14.9994491,20 C12.790387,20 11,20.7979626 11,23 L19,23 C19,20.7979626 17.2085112,20 14.9994491,20 Z M12,24 L12,28 L18,28 L18,24 L12,24 Z M22,24 L22,27 C22,27.5522847 22.4477153,28 23,28 L30,28 L30,24 L22,24 Z M22,23 L30,23 L30,21 L23,21 C22.4477153,21 22,21.4477153 22,22 L22,23 Z" id="Purchasers-(Filled)" fill="#2F313A" fill-rule="nonzero"></path>
    </g>
</svg>