<?xml version="1.0" encoding="UTF-8"?>
<svg width="40px" height="40px" viewBox="0 0 40 40" version="1.1" xmlns="http://www.w3.org/2000/svg" xmlns:xlink="http://www.w3.org/1999/xlink">
    <!-- Generator: Sketch 59.1 (86144) - https://sketch.com -->
    <title>Vector Files/40x40/Flattened/Business/Purchasers</title>
    <desc>Created with Sketch.</desc>
    <g id="40x40/Flattened/Business/Purchasers" stroke="none" stroke-width="1" fill="none" fill-rule="evenodd">
        <path d="M19,28 L13,28 L13,30 L19,30 L19,28 L19,28 Z M19,27 L19,23 L13,23 L13,27 L19,27 L19,27 Z M30,23 L23,23 L23,22 L30,22 L30,21 L23.5,21 C23.2238576,21 23,21.2238576 23,21.5 L23,26.5 C23,26.7761424 23.2238576,27 23.5,27 L30,27 L30,23 L30,23 Z M30,16 L10,16 L10,30 L12,30 L12,23 C11.7238576,23 11.5,22.7761424 11.5,22.5 C11.5,20.1548846 13.2605735,19 15.9994491,19 C18.7386291,19 20.5,20.1549681 20.5,22.5 C20.5,22.7761424 20.2761424,23 20,23 L20,30 L30,30 L30,28 L23.5,28 C22.6715729,28 22,27.3284271 22,26.5 L22,21.5 C22,20.6715729 22.6715729,20 23.5,20 L30,20 L30,16 Z M32,16 L32,30 L33,30 C34.3333333,30 34.3333333,32 33,32 L7,32 C5.66666667,32 5.66666667,30 7,30 L8,30 L8,16 L7,16 C6.44771525,16 6,15.5522847 6,15 L6,10 C6,9.44771525 6.44771525,9 7,9 L33,9 C33.5522847,9 34,9.44771525 34,10 L34,15 C34,15.5522847 33.5522847,16 33,16 L32,16 Z M15.9994491,20 C13.9821436,20 12.7719618,20.6553174 12.5406975,22 L19.4592704,22 C19.2278532,20.6554557 18.0170298,20 15.9994491,20 Z M8,14 L32,14 L32,11 L8,11 L8,14 Z" id="Purchasers" fill="#2F313A" fill-rule="nonzero"></path>
    </g>
</svg>