<?xml version="1.0" encoding="UTF-8"?>
<svg width="40px" height="40px" viewBox="0 0 40 40" version="1.1" xmlns="http://www.w3.org/2000/svg" xmlns:xlink="http://www.w3.org/1999/xlink">
    <!-- Generator: Sketch 59.1 (86144) - https://sketch.com -->
    <title>Vector Files/40x40/Flattened/Business/Schools (Filled)</title>
    <desc>Created with Sketch.</desc>
    <g id="40x40/Flattened/Business/Schools-(Filled)" stroke="none" stroke-width="1" fill="none" fill-rule="evenodd">
        <path d="M19.5,26 L16,26 C15.4477153,26 15,26.4477153 15,27 L15,30 L19.5,30 L19.5,26 L19.5,26 Z M20.5,26 L20.5,30 L25,30 L25,27 C25,26.4477153 24.5522847,26 24,26 L20.5,26 L20.5,26 Z M34,30 C35.3333333,30 35.3333333,32 34,32 L6,32 C4.66666667,32 4.66666667,30 6,30 L6,19.7788 C6,18.0757441 7.3804864,16.6948 8.98518186,16.6995957 L12,16.4032707 L12,15.1018 C12,14.7721292 12.1624832,14.4636398 12.4343432,14.2771592 L19.4203432,9.48515925 C19.4461887,9.46743067 19.4727733,9.450981 19.5,9.43584033 L19.5,5.4997 C19.5,5.16084339 19.8299511,4.92012502 20.1526331,5.02356646 L23.8866331,6.22056646 C24.3267127,6.36164181 24.3562502,6.973064 23.9318187,7.15590341 L20.5,8.63428484 L20.5,9.43584033 C20.5272267,9.450981 20.5538113,9.46743067 20.5796568,9.48515925 L27.5656568,14.2771592 C27.8375168,14.4636398 28,14.7721292 28,15.1018 L28,16.404409 L30.917,16.6948 C32.6195136,16.6948 34,18.0757441 34,19.7788 L34,30 Z M25,21 L21,21 L21,23 L25,23 L25,21 Z M19,21 L15,21 L15,23 L19,23 L19,21 Z M18,16.3098 C18,17.4138 18.896,18.3098 20,18.3098 C21.104,18.3098 22,17.4138 22,16.3098 C22,15.2058 21.104,14.3098 20,14.3098 C18.896,14.3098 18,15.2058 18,16.3098 Z M9,23 L13,23 L13,21 L9,21 L9,23 Z M9,27 L13,27 L13,25 L9,25 L9,27 Z M27,23 L31,23 L31,21 L27,21 L27,23 Z M27,27 L31,27 L31,25 L27,25 L27,27 Z" id="Schools-(Filled)" fill="#2F313A" fill-rule="nonzero"></path>
    </g>
</svg>