<?xml version="1.0" encoding="UTF-8"?>
<svg width="40px" height="40px" viewBox="0 0 40 40" version="1.1" xmlns="http://www.w3.org/2000/svg" xmlns:xlink="http://www.w3.org/1999/xlink">
    <!-- Generator: Sketch 59.1 (86144) - https://sketch.com -->
    <title>Vector Files/40x40/Flattened/Business/Schools</title>
    <desc>Created with Sketch.</desc>
    <g id="40x40/Flattened/Business/Schools" stroke="none" stroke-width="1" fill="none" fill-rule="evenodd">
        <path d="M20.5,9.43584033 C20.5272267,9.450981 20.5538113,9.46743067 20.5796568,9.48515925 L27.5656568,14.2771592 C27.8375168,14.4636398 28,14.7721292 28,15.1018 L28,16.404409 L30.917,16.6948 C32.6195136,16.6948 34,18.0757441 34,19.7788 L34,30 C35.3333333,30 35.3333333,32 34,32 L6,32 C4.66666667,32 4.66666667,30 6,30 L6,19.7788 C6,18.0757441 7.3804864,16.6948 8.98518186,16.6995957 L12,16.4032707 L12,15.1018 C12,14.7721292 12.1624832,14.4636398 12.4343432,14.2771592 L19.4203432,9.48515925 C19.4461887,9.46743067 19.4727733,9.450981 19.5,9.43584033 L19.5,5.4997 C19.5,5.16084339 19.8299511,4.92012502 20.1526331,5.02356646 L23.8866331,6.22056646 C24.3267127,6.36164181 24.3562502,6.973064 23.9318187,7.15590341 L20.5,8.63428484 L20.5,9.43584033 L20.5,9.43584033 Z M20.5,27 L20.5,30 L24,30 L24,27 L20.5,27 L20.5,27 Z M19.5,27 L16,27 L16,30 L19.5,30 L19.5,27 L19.5,27 Z M19.5,23 L19.5,22 L16,22 L16,23 L19.5,23 L19.5,23 Z M20.5,23 L24,23 L24,22 L20.5,22 L20.5,23 L20.5,23 Z M15,30 L15,26.5 C15,26.2238576 15.2238576,26 15.5,26 L24.5,26 C24.7761424,26 25,26.2238576 25,26.5 L25,30 L32,30 L32,19.7788 C32,19.1801652 31.5147956,18.6948 30.8191819,18.6900043 L26.9021819,18.3050043 C26.3902488,18.2546867 26,17.8242 26,17.3098 L26,15.6285059 L20,11.5128461 L14,15.6285059 L14,17.3098 C14,17.8242 13.6097512,18.2546867 13.0978181,18.3050043 L9.083,18.6948 C8.48520435,18.6948 8,19.1801652 8,19.7788 L8,30 L15,30 Z M25,21 L25,24 L15,24 L15,21 L25,21 Z M18.5,16.3098 C18.5,17.1376576 19.1721424,17.8098 20,17.8098 C20.8278576,17.8098 21.5,17.1376576 21.5,16.3098 C21.5,15.4819424 20.8278576,14.8098 20,14.8098 C19.1721424,14.8098 18.5,15.4819424 18.5,16.3098 Z M17.5,16.3098 C17.5,14.9296576 18.6198576,13.8098 20,13.8098 C21.3801424,13.8098 22.5,14.9296576 22.5,16.3098 C22.5,17.6899424 21.3801424,18.8098 20,18.8098 C18.6198576,18.8098 17.5,17.6899424 17.5,16.3098 Z M11,23 L13,23 L13,22 L11,22 L11,23 Z M10,24 L10,21 L14,21 L14,24 L10,24 Z M11,28 L13,28 L13,27 L11,27 L11,28 Z M10,29 L10,26 L14,26 L14,29 L10,29 Z M27,23 L29,23 L29,22 L27,22 L27,23 Z M26,24 L26,21 L30,21 L30,24 L26,24 Z M27,28 L29,28 L29,27 L27,27 L27,28 Z M26,29 L26,26 L30,26 L30,29 L26,29 Z M22.3105919,6.76546405 L20.5,6.18504666 L20.5,7.54544276 L22.3105919,6.76546405 Z" id="Schools" fill="#2F313A" fill-rule="nonzero"></path>
    </g>
</svg>