<?xml version="1.0" encoding="UTF-8"?>
<svg width="40px" height="40px" viewBox="0 0 40 40" version="1.1" xmlns="http://www.w3.org/2000/svg" xmlns:xlink="http://www.w3.org/1999/xlink">
    <!-- Generator: Sketch 59.1 (86144) - https://sketch.com -->
    <title>Vector Files/40x40/Flattened/Business/Supermarkets</title>
    <desc>Created with Sketch.</desc>
    <g id="40x40/Flattened/Business/Supermarkets" stroke="none" stroke-width="1" fill="none" fill-rule="evenodd">
        <path d="M24,30 L24,27 L20.5,27 L20.5,30 L24,30 Z M25,30 L32,30 L32,19.982 C32,19.4509632 31.5257734,19 30.916,19 L28,19 C27.4477153,19 27,18.5522847 27,18 L27,14.604 C27,14.2702847 26.7297153,14 26.396,14 L13.604,14 C13.2702847,14 13,14.2702847 13,14.604 L13,18 C13,18.5522847 12.5522847,19 12,19 L9.084,19 C8.47422656,19 8,19.4509632 8,19.982 L8,30 L15,30 L15,26.5 C15,26.2238576 15.2238576,26 15.5,26 L24.5,26 C24.7761424,26 25,26.2238576 25,26.5 L25,30 Z M16,30 L19.5,30 L19.5,27 L16,27 L16,30 Z M34,30 C35.3333333,30 35.3333333,32 34,32 L6,32 C4.66666667,32 4.66666667,30 6,30 L6,19.982 C6,18.3232681 7.39153015,17 9.084,17 L11,17 L11,14.604 C11,13.1657153 12.1657153,12 13.604,12 L26.396,12 C27.8342847,12 29,13.1657153 29,14.604 L29,17 L30.916,17 C32.6084699,17 34,18.3232681 34,19.982 L34,30 Z M26,21 L23,21 L23,23 L26,23 L26,21 Z M27,21 L27,23 L30,23 L30,21 L27,21 Z M22,21 L18,21 L18,23 L22,23 L22,21 Z M17,21 L14,21 L14,23 L17,23 L17,21 Z M13,21 L10,21 L10,23 L13,23 L13,21 Z M30,20 C30.5522847,20 31,20.4477153 31,21 L31,23 C31,23.5522847 30.5522847,24 30,24 L10,24 C9.44771525,24 9,23.5522847 9,23 L9,21 C9,20.4477153 9.44771525,20 10,20 L30,20 Z M15,17 L25,17 L25,16 L15,16 L15,17 Z M15,18 C14.4477153,18 14,17.5522847 14,17 L14,16 C14,15.4477153 14.4477153,15 15,15 L25,15 C25.5522847,15 26,15.4477153 26,16 L26,17 C26,17.5522847 25.5522847,18 25,18 L15,18 Z" id="Supermarkets" fill="#2F313A" fill-rule="nonzero"></path>
    </g>
</svg>