<?xml version="1.0" encoding="UTF-8"?>
<svg width="40px" height="40px" viewBox="0 0 40 40" version="1.1" xmlns="http://www.w3.org/2000/svg" xmlns:xlink="http://www.w3.org/1999/xlink">
    <!-- Generator: Sketch 59.1 (86144) - https://sketch.com -->
    <title>Vector Files/40x40/Flattened/Business/Supermarkets (Filled)</title>
    <desc>Created with Sketch.</desc>
    <g id="40x40/Flattened/Business/Supermarkets-(Filled)" stroke="none" stroke-width="1" fill="none" fill-rule="evenodd">
        <path d="M25,30 L25,28 C25,26.8954305 24.1045695,26 23,26 L20.5,26 L20.5,30 L25,30 Z M15,30 L19.5,30 L19.5,26 L17,26 C15.8954305,26 15,26.8954305 15,28 L15,30 Z M34,30 C35.3333333,30 35.3333333,32 34,32 L6,32 C4.66666667,32 4.66666667,30 6,30 L6,19.982 C6,18.3232681 7.39153015,17 9.084,17 L11,17 L11,14.604 C11,13.1657153 12.1657153,12 13.604,12 L26.396,12 C27.8342847,12 29,13.1657153 29,14.604 L29,17 L30.916,17 C32.6084699,17 34,18.3232681 34,19.982 L34,30 Z M9,21 L9,23 L13,23 L13,21 L9,21 Z M14,21 L14,23 L17,23 L17,21 L14,21 Z M23,21 L23,23 L26,23 L26,21 L23,21 Z M18,21 L18,23 L22,23 L22,21 L18,21 Z M27,21 L27,23 L31,23 L31,21 L27,21 Z M14,15 L14,17 L26,17 L26,15 L14,15 Z" id="Supermarkets-(Filled)" fill="#2F313A" fill-rule="nonzero"></path>
    </g>
</svg>