<?xml version="1.0" encoding="UTF-8"?>
<svg width="40px" height="40px" viewBox="0 0 40 40" version="1.1" xmlns="http://www.w3.org/2000/svg" xmlns:xlink="http://www.w3.org/1999/xlink">
    <!-- Generator: Sketch 59.1 (86144) - https://sketch.com -->
    <title>Vector Files/40x40/Flattened/Business/Purveyors</title>
    <desc>Created with Sketch.</desc>
    <g id="40x40/Flattened/Business/Purveyors" stroke="none" stroke-width="1" fill="none" fill-rule="evenodd">
        <path d="M18.5,30 L22,30 L22,25.4237524 C22,24.627883 21.4259245,24 20.7415547,24 L18.5,24 L18.5,30 L18.5,30 Z M17.5,30 L17.5,24 L15.2572714,24 C14.5732383,24 14,24.6275459 14,25.4237524 L14,30 L17.5,30 L17.5,30 Z M23,30 L28,30 L28,22.5272792 L24.6060053,15.9121983 L18.0757368,13.0610323 L11.6692969,15.9156116 L8,22.5440304 L8,30 L13,30 L13,25.4237524 C13,24.0944502 13.9997368,23 15.2572714,23 L20.7415547,23 C21.9992007,23 23,24.0946032 23,25.4237524 L23,30 Z M22,12.5920796 L22,11.724335 C22,8.54995771 24.6987477,6 28,6 C31.3012523,6 34,8.54995771 34,11.724335 L34,30 L35,30 C36.3333333,30 36.3333333,32 35,32 L5,32 C3.66666667,32 3.66666667,30 5,30 L6,30 L6,22.2857143 C6,22.1162843 6.04304891,21.9496323 6.12510644,21.801399 L10.0816328,14.6541133 C10.1868455,14.4640512 10.3510891,14.31342 10.5495221,14.2250023 L17.5929958,11.0865737 C17.7210926,11.0294964 17.8597623,11 18,11 L18.1447368,11 C18.2824438,11 18.4186667,11.0284416 18.5448692,11.0835427 L22,12.5920796 Z M23.9994298,13.4650462 L25.7330798,14.2219712 C25.9444347,14.3142504 26.117398,14.4767462 26.2226749,14.6819367 L29.8897276,21.8292224 C29.9622003,21.9704756 30,22.1269542 30,22.2857143 L30,30 L32,30 L32,11.724335 C32,9.68068432 30.2212477,8 28,8 C25.7787523,8 24,9.68068432 24,11.724335 L24,13.4309538 C24,13.4423636 23.9998089,13.4537287 23.9994298,13.4650462 L23.9994298,13.4650462 Z M19.5,19 C19.5,18.1719269 18.8280731,17.5 18,17.5 C17.1719269,17.5 16.5,18.1719269 16.5,19 C16.5,19.8287944 17.1714771,20.5 18,20.5 C18.8285229,20.5 19.5,19.8287944 19.5,19 Z M20.5,19 C20.5,20.3811697 19.3807171,21.5 18,21.5 C16.6192829,21.5 15.5,20.3811697 15.5,19 C15.5,17.6196422 16.6196422,16.5 18,16.5 C19.3803578,16.5 20.5,17.6196422 20.5,19 Z" id="Purveyors" fill="#2F313A" fill-rule="nonzero"></path>
    </g>
</svg>