<?xml version="1.0" encoding="UTF-8"?>
<svg width="40px" height="40px" viewBox="0 0 40 40" version="1.1" xmlns="http://www.w3.org/2000/svg" xmlns:xlink="http://www.w3.org/1999/xlink">
    <!-- Generator: Sketch 59.1 (86144) - https://sketch.com -->
    <title>Vector Files/40x40/Flattened/Business/Purveyors (Filled)</title>
    <desc>Created with Sketch.</desc>
    <g id="40x40/Flattened/Business/Purveyors-(Filled)" stroke="none" stroke-width="1" fill="none" fill-rule="evenodd">
        <path d="M34,30 L35,30 C36.3333333,30 36.3333333,32 35,32 L5,32 C3.66666667,32 3.66666667,30 5,30 L6,30 L6,22.2857143 C6,22.1162843 6.04304891,21.9496323 6.12510644,21.801399 L10.0816328,14.6541133 C10.1868455,14.4640512 10.3510891,14.31342 10.5495221,14.2250023 L17.5929958,11.0865737 C17.7210926,11.0294964 17.8597623,11 18,11 L18.1447368,11 C18.2824438,11 18.4186667,11.0284416 18.5448692,11.0835427 L25.7330798,14.2219712 C25.9444347,14.3142504 26.117398,14.4767462 26.2226749,14.6819367 L29.8897276,21.8292224 C29.9622003,21.9704756 30,22.1269542 30,22.2857143 L30,30 L30.8479167,30 L30.8479167,21.8393225 L26.6728194,13.70183 L22.000045,11.701929 C22.0127085,8.53796716 24.7065186,6 28,6 C31.3012523,6 34,8.54995771 34,11.724335 L34,30 L34,30 Z M17.5057768,23.9237524 L16,23.9237524 C14.8954305,23.9237524 14,24.8191829 14,25.9237524 L14,30 L17.5,30 L17.5,24 C17.5,23.974076 17.5019729,23.9486128 17.5057768,23.9237524 L17.5057768,23.9237524 Z M18.4942232,23.9237524 C18.4980271,23.9486128 18.5,23.974076 18.5,24 L18.5,30 L22,30 L22,25.9237524 C22,24.8191829 21.1045695,23.9237524 20,23.9237524 L18.4942232,23.9237524 L18.4942232,23.9237524 Z M20,19 C20,17.8957845 19.1042155,17 18,17 C16.8957845,17 16,17.8957845 16,19 C16,20.1053864 16.8957845,21 18,21 C19.1042155,21 20,20.1053864 20,19 Z" id="Purveyors-(Filled)" fill="#2F313A" fill-rule="nonzero"></path>
    </g>
</svg>