<?xml version="1.0" encoding="UTF-8"?>
<svg width="24px" height="24px" viewBox="0 0 24 24" version="1.1" xmlns="http://www.w3.org/2000/svg" xmlns:xlink="http://www.w3.org/1999/xlink">
    <title>Vector Files/24x24/Business/Businesses</title>
    <g id="Symbols" stroke="none" stroke-width="1" fill="none" fill-rule="evenodd">
        <g id="24x24/Business/Businesses" transform="translate(-0.000000, 0.000000)" fill="#2F313A">
            <path d="M15,19 C15,19.5522847 14.5522847,20 14,20 C13.4871642,20 13.0644928,19.6139598 13.0067277,19.1166211 L13,19 L13,6 L4,6 L4,19 C4,19.5522847 3.55228475,20 3,20 C2.48716416,20 2.06449284,19.6139598 2.00672773,19.1166211 L2,19 L2,6 C2,4.9456382 2.81587779,4.08183488 3.85073766,4.00548574 L4,4 L13,4 C14.0543618,4 14.9181651,4.81587779 14.9945143,5.85073766 L15,6 L15,11 L20,11 C21.0543618,11 21.9181651,11.8158778 21.9945143,12.8507377 L22,13 L22,19 C22,19.5522847 21.5522847,20 21,20 C20.4871642,20 20.0644928,19.6139598 20.0067277,19.1166211 L20,19 L20,13 L15,13 L15,19 Z M10,14 C10.5522847,14 11,14.4477153 11,15 C11,15.5128358 10.6139598,15.9355072 10.1166211,15.9932723 L10,16 L7,16 C6.44771525,16 6,15.5522847 6,15 C6,14.4871642 6.38604019,14.0644928 6.88337887,14.0067277 L7,14 L10,14 Z M10,11 C10.5522847,11 11,11.4477153 11,12 C11,12.5128358 10.6139598,12.9355072 10.1166211,12.9932723 L10,13 L7,13 C6.44771525,13 6,12.5522847 6,12 C6,11.4871642 6.38604019,11.0644928 6.88337887,11.0067277 L7,11 L10,11 Z M10,8 C10.5522847,8 11,8.44771525 11,9 C11,9.51283584 10.6139598,9.93550716 10.1166211,9.99327227 L10,10 L7,10 C6.44771525,10 6,9.55228475 6,9 C6,8.48716416 6.38604019,8.06449284 6.88337887,8.00672773 L7,8 L10,8 Z" id="Businesses"></path>
        </g>
    </g>
</svg>