<?xml version="1.0" encoding="UTF-8"?>
<svg width="24px" height="24px" viewBox="0 0 24 24" version="1.1" xmlns="http://www.w3.org/2000/svg" xmlns:xlink="http://www.w3.org/1999/xlink">
    <title>Vector Files/24x24/Business/Businesses (Filled)</title>
    <g id="Symbols" stroke="none" stroke-width="1" fill="none" fill-rule="evenodd">
        <g id="24x24/Business/Businesses-(Filled)" transform="translate(-0.000000, 0.000000)" fill="#2F313A">
            <path d="M13,4 C14.0543618,4 14.9181651,4.81587779 14.9945143,5.85073766 L15,6 L15,19 C15,19.5128358 14.6139598,19.9355072 14.1166211,19.9932723 L14,20 L3,20 C2.48716416,20 2.06449284,19.6139598 2.00672773,19.1166211 L2,19 L2,6 C2,4.9456382 2.81587779,4.08183488 3.85073766,4.00548574 L4,4 L13,4 Z M20,11 C21.0543618,11 21.9181651,11.8158778 21.9945143,12.8507377 L22,13 L22,19 C22,19.5128358 21.6139598,19.9355072 21.1166211,19.9932723 L21,20 L17,20 C16.4871642,20 16.0644928,19.6139598 16.0067277,19.1166211 L16,19 L16,12 C16,11.4871642 16.3860402,11.0644928 16.8833789,11.0067277 L17,11 L20,11 Z M10,14 L7,14 L6.88337887,14.0067277 C6.38604019,14.0644928 6,14.4871642 6,15 C6,15.5128358 6.38604019,15.9355072 6.88337887,15.9932723 L7,16 L10,16 L10.1166211,15.9932723 C10.6139598,15.9355072 11,15.5128358 11,15 C11,14.4477153 10.5522847,14 10,14 Z M10,11 L7,11 L6.88337887,11.0067277 C6.38604019,11.0644928 6,11.4871642 6,12 C6,12.5128358 6.38604019,12.9355072 6.88337887,12.9932723 L7,13 L10,13 L10.1166211,12.9932723 C10.6139598,12.9355072 11,12.5128358 11,12 C11,11.4477153 10.5522847,11 10,11 Z M10,8 L7,8 L6.88337887,8.00672773 C6.38604019,8.06449284 6,8.48716416 6,9 C6,9.51283584 6.38604019,9.93550716 6.88337887,9.99327227 L7,10 L10,10 L10.1166211,9.99327227 C10.6139598,9.93550716 11,9.51283584 11,9 C11,8.44771525 10.5522847,8 10,8 Z" id="Businesses-(Filled)"></path>
        </g>
    </g>
</svg>