<?xml version="1.0" encoding="UTF-8"?>
<svg width="24px" height="24px" viewBox="0 0 24 24" version="1.1" xmlns="http://www.w3.org/2000/svg" xmlns:xlink="http://www.w3.org/1999/xlink">
    <title>Vector Files/24x24/Business/Market (Filled)</title>
    <g id="Symbols" stroke="none" stroke-width="1" fill="none" fill-rule="evenodd">
        <g id="24x24/Business/Market-(Filled)" fill="#2F313A">
            <path d="M16.7978313,3 C17.8422098,3 18.80631,3.54257847 19.3501707,4.42339021 L19.4471369,4.59245619 L20.8831019,7.29525666 C20.940671,7.40361426 20.9776416,7.52132407 20.9925289,7.64242602 L21,7.76443793 L21,10 C21,10.5128358 20.6139598,10.9355072 20.1166211,10.9932723 L20,11 L19,11 L19,15 C19.5522847,15 20,15.4477153 20,16 C20,16.5128358 19.6139598,16.9355072 19.1166211,16.9932723 L19,17 L19,19 L20,19 C20.5522847,19 21,19.4477153 21,20 C21,20.5128358 20.6139598,20.9355072 20.1166211,20.9932723 L20,21 L4,21 C3.44771525,21 3,20.5522847 3,20 C3,19.4871642 3.38604019,19.0644928 3.88337887,19.0067277 L4,19 L4.999,19 L4.999,17 L4.88337887,16.9932723 C4.38604019,16.9355072 4,16.5128358 4,16 C4,15.4871642 4.38604019,15.0644928 4.88337887,15.0067277 L4.999,15 L5,11 L4,11 C3.48716416,11 3.06449284,10.6139598 3.00672773,10.1166211 L3,10 L3,7.76443793 C3,7.64173679 3.02257838,7.5204411 3.06625018,7.40651092 L3.11689812,7.29525666 L4.55286307,4.59245619 C5.04286593,3.67016352 5.97435572,3.07333254 7.0073715,3.00630845 L7.20216872,3 L16.7978313,3 Z M17,11 L7,11 L7,15 L17,15 L17,11 Z M7.718,5 L7.20216872,5 C6.87338288,5 6.56846583,5.1613222 6.382881,5.42658503 L6.31906684,5.53081873 L5.007,7.999 L7,7.999 L7.00749244,7.87781674 L7.0298575,7.75746437 L7.718,5 Z M11,5 L9.781,5 L9.031,7.999 L11,7.999 L11,5 Z M14.218,5 L13,5 L13,7.999 L14.968,7.999 L14.218,5 Z M16.7978313,5 L16.281,5 L16.9701425,7.75746437 L16.9925076,7.87781674 L17,7.999 L18.992,7.999 L17.6809332,5.53081873 C17.5459555,5.27676126 17.310478,5.09679173 17.0384536,5.02935133 L16.9198207,5.0074499 L16.7978313,5 Z" id="Market-(Filled)"></path>
        </g>
    </g>
</svg>