<?xml version="1.0" encoding="UTF-8"?>
<svg width="24px" height="24px" viewBox="0 0 24 24" version="1.1" xmlns="http://www.w3.org/2000/svg" xmlns:xlink="http://www.w3.org/1999/xlink">
    <title>Vector Files/24x24/Business/Purchaser (Filled)</title>
    <g id="Symbols" stroke="none" stroke-width="1" fill="none" fill-rule="evenodd">
        <g id="24x24/Business/Purchaser-(Filled)" fill="#2F313A">
            <path d="M19.5,9 C19.7761424,9 20,9.22385763 20,9.5 L20,18 L21,18 C21.5522847,18 22,18.4477153 22,19 C22,19.5128358 21.6139598,19.9355072 21.1166211,19.9932723 L21,20 L3,20 C2.44771525,20 2,19.5522847 2,19 C2,18.4871642 2.38604019,18.0644928 2.88337887,18.0067277 L3,18 L4,18 L4,9.5 C4,9.22385763 4.22385763,9 4.5,9 L19.5,9 Z M10,12 C8.9456382,12 8.08183488,12.8158778 8.00548574,13.8507377 L8,14 L8,17.5 C8,17.7454599 8.17687516,17.9496084 8.41012437,17.9919443 L8.5,18 L11.5,18 C11.7454599,18 11.9496084,17.8231248 11.9919443,17.5898756 L12,17.5 L12,14 C12,12.8954305 11.1045695,12 10,12 Z M17.5,12 L15.5,12 C15.2545401,12 15.0503916,12.1768752 15.0080557,12.4101244 L15,12.5 L15,14.5 C15,14.7454599 15.1768752,14.9496084 15.4101244,14.9919443 L15.5,15 L17.5,15 C17.7454599,15 17.9496084,14.8231248 17.9919443,14.5898756 L18,14.5 L18,12.5 C18,12.2545401 17.8231248,12.0503916 17.5898756,12.0080557 L17.5,12 Z M21,4 C21.5128358,4 21.9355072,4.38604019 21.9932723,4.88337887 L22,5 L22,7 C22,7.51283584 21.6139598,7.93550716 21.1166211,7.99327227 L21,8 L3,8 C2.48716416,8 2.06449284,7.61395981 2.00672773,7.11662113 L2,7 L2,5 C2,4.48716416 2.38604019,4.06449284 2.88337887,4.00672773 L3,4 L21,4 Z" id="Purchaser-(Filled)"></path>
        </g>
    </g>
</svg>