<?xml version="1.0" encoding="UTF-8"?>
<svg width="24px" height="24px" viewBox="0 0 24 24" version="1.1" xmlns="http://www.w3.org/2000/svg" xmlns:xlink="http://www.w3.org/1999/xlink">
    <title>Vector Files/24x24/Business/Purveyor (Filled)</title>
    <g id="Symbols" stroke="none" stroke-width="1" fill="none" fill-rule="evenodd">
        <g id="Icon" fill="#2F313A" transform="translate(2.000000, 4.000000)">
            <path d="M1,16 C0.44771525,16 0,15.5522847 0,15 C0,14.4871642 0.38604019,14.0644928 0.883378875,14.0067277 L1,14 L1,9.71428571 C1,9.58045983 1.02685573,9.44846202 1.07847768,9.32595931 L1.13827765,9.20690559 L3.47622502,5.23619131 C3.56383437,5.08739766 3.68807579,4.96447532 3.83619438,4.87855903 L3.95156099,4.82123442 L8.11361362,3.07766299 C8.19519255,3.04348786 8.28076147,3.02036268 8.36805335,3.00874314 L8.5,3 L8.58552632,3 C8.66691108,3 8.74780608,3.00993433 8.82644327,3.02945424 L13.3626228,4.87180688 L13.4403766,4.91160793 C13.4895102,4.94245264 13.5329122,4.98162321 13.5686177,5.02734657 L13.6161583,5.10062458 L15.9416219,9.48085423 L15.9737941,9.55556384 L15.9933835,9.63423847 L16,9.71531126 L16,14 L17,14 L17,9.71531126 L16.9928261,9.56878014 C16.9785204,9.42303636 16.9429458,9.28016224 16.8872399,9.14472681 L16.8248657,9.01194016 L14.499402,4.63171051 L14.4224026,4.50271295 C14.2839015,4.29506886 14.0957025,4.12521778 13.8749885,4.00866746 L13.7387958,3.94525742 L11.1311245,2.88670518 C11.5830805,1.22009445 13.1502799,0 15,0 C17.131045,0 18.8870966,1.6194466 18.9947687,3.67539638 L19,3.8756822 L19,14 C19.5522847,14 20,14.4477153 20,15 C20,15.5128358 19.6139598,15.9355072 19.1166211,15.9932723 L19,16 L1,16 Z M9.5,11 L7.5,11 C6.72030388,11 6.07955132,11.5948881 6.00686658,12.35554 L6,12.5 L6,13.5 C6,13.7454599 6.17687516,13.9496084 6.41012437,13.9919443 L6.5,14 L10.5,14 C10.7454599,14 10.9496084,13.8231248 10.9919443,13.5898756 L11,13.5 L11,12.5 C11,11.6715729 10.3284271,11 9.5,11 Z M8.5,6 C7.67183841,6 7,6.67183841 7,7.5 C7,8.32903981 7.67183841,9 8.5,9 C9.32816159,9 10,8.32903981 10,7.5 C10,6.67183841 9.32816159,6 8.5,6 Z" id="Purveyor-(Filled)"></path>
        </g>
    </g>
</svg>