<?xml version="1.0" encoding="UTF-8"?>
<svg width="24px" height="24px" viewBox="0 0 24 24" version="1.1" xmlns="http://www.w3.org/2000/svg" xmlns:xlink="http://www.w3.org/1999/xlink">
    <title>Vector Files/24x24/Business/Purchaser</title>
    <g id="Symbols" stroke="none" stroke-width="1" fill="none" fill-rule="evenodd">
        <g id="24x24/Business/Purchaser" fill="#2F313A">
            <path d="M3,20 C2.44771525,20 2,19.5522847 2,19 C2,18.4871642 2.38604019,18.0644928 2.88337887,18.0067277 L3,18 L4,18 L4,10 L3,10 C2.48716416,10 2.06449284,9.61395981 2.00672773,9.11662113 L2,9 L2,5 C2,4.44771525 2.44771525,4 3,4 L3,4 L21,4 C21.5522847,4 22,4.44771525 22,5 L22,5 L22,9 C22,9.55228475 21.5522847,10 21,10 L21,10 L20,10 L20,18 L21,18 C21.5522847,18 22,18.4477153 22,19 C22,19.5128358 21.6139598,19.9355072 21.1166211,19.9932723 L21,20 L3,20 Z M18,10 L6,10 L6,18 L7,18 L7,14 C7,12.4023191 8.24891996,11.0963391 9.82372721,11.0050927 L10,11 C11.6568542,11 13,12.3431458 13,14 L13,14 L13,18 L18,18 L18,17 L15,17 C14.4871642,17 14.0644928,16.6139598 14.0067277,16.1166211 L14,16 L14,12 C14,11.4477153 14.4477153,11 15,11 L15,11 L18,11 L18,10 Z M10,13 C9.44771525,13 9,13.4477153 9,14 L9,14 L9,18 L11,18 L11,14 C11,13.4871642 10.6139598,13.0644928 10.1166211,13.0067277 L10.1166211,13.0067277 Z M18,13 L16,13 L16,15 L18,15 L18,13 Z M20,6 L4,6 L4,8 L4.96675029,7.99938724 C4.97778921,7.99902661 4.98887338,7.99884489 5,7.99884489 L5.033,8 L18.9667503,7.99938724 C18.9777892,7.99902661 18.9888734,7.99884489 19,7.99884489 L19.033,8 L20,8 L20,6 Z" id="Purchaser"></path>
        </g>
    </g>
</svg>