<?xml version="1.0" encoding="UTF-8"?>
<svg width="24px" height="24px" viewBox="0 0 24 24" version="1.1" xmlns="http://www.w3.org/2000/svg" xmlns:xlink="http://www.w3.org/1999/xlink">
    <title>Vector Files/24x24/Business/Purveyor</title>
    <g id="Symbols" stroke="none" stroke-width="1" fill="none" fill-rule="evenodd">
        <g id="24x24/Business/Purveyor" fill="#2F313A">
            <path d="M17,4 C19.131045,4 20.8870966,5.6194466 20.9947687,7.67539638 L21,7.8756822 L21,18 C21.5522847,18 22,18.4477153 22,19 C22,19.5128358 21.6139598,19.9355072 21.1166211,19.9932723 L21,20 L3,20 C2.44771525,20 2,19.5522847 2,19 C2,18.4871642 2.38604019,18.0644928 2.88337887,18.0067277 L3,18 L3,13.7142857 C3,13.5804598 3.02685573,13.448462 3.07847768,13.3259593 L3.13827765,13.2069056 L5.47622502,9.23619131 C5.56383437,9.08739766 5.68807579,8.96447532 5.83619438,8.87855903 L5.95156099,8.82123442 L10.1136136,7.07766299 C10.1951925,7.04348786 10.2807615,7.02036268 10.3680533,7.00874314 L10.5,7 L10.5855263,7 C10.6723594,7 10.758635,7.01130898 10.8422056,7.03350333 L10.9652644,7.07490596 L13,7.91 L13,7.8756822 C13,5.72561219 14.8002116,4 17,4 Z M10.545,9.065 L7.03,10.537 L5,13.985 L5,18 L7,18 L7,16.0992871 C7,15.0159914 7.78038388,14.0880255 8.82525158,14.0059032 L8.9762619,14 L12.023086,14 C13.0918716,14 13.9215274,14.878692 13.9947424,15.9456573 L14,16.0992871 L14,18 L16,18 L16,13.969 L14.125,10.533 L10.545,9.065 Z M12.023086,16 L8.9762619,16 C8.99271687,16 8.99980596,16.0031347 9.00238908,16.0119968 L9,16.0992871 L9,18 L12,18 L12,16.0992871 L11.9963809,16.0300464 C11.9955932,16.0147935 11.9968493,16.0065238 12.0050245,16.0027055 L12.023086,16 Z M17,6 C15.9393222,6 15.0849241,6.77057707 15.005958,7.73036725 L15,7.8756822 L15,8.731 L15.2128434,8.81847739 C15.3826687,8.88818829 15.5291808,9.00292773 15.6372734,9.1491665 L15.7109032,9.26454031 L17.8777979,13.2352546 C17.937936,13.3454542 17.9766056,13.4656537 17.9921818,13.5894827 L18,13.7142857 L18,18 L19,18 L19,7.8756822 C19,6.84956122 18.1137116,6 17,6 Z M10.5,10 C11.3281616,10 12,10.6718384 12,11.5 C12,12.3290398 11.3281616,13 10.5,13 C9.67183841,13 9,12.3290398 9,11.5 C9,10.6718384 9.67183841,10 10.5,10 Z" id="Purveyor"></path>
        </g>
    </g>
</svg>