<?xml version="1.0" encoding="UTF-8"?>
<svg width="100px" height="100px" viewBox="0 0 100 100" version="1.1" xmlns="http://www.w3.org/2000/svg" xmlns:xlink="http://www.w3.org/1999/xlink">
    <!-- Generator: Sketch 59.1 (86144) - https://sketch.com -->
    <title>Vector Files/100x100/Flattened/Payment/Cash</title>
    <desc>Created with Sketch.</desc>
    <g id="100x100/Flattened/Payment/Cash" stroke="none" stroke-width="1" fill="none" fill-rule="evenodd">
        <path d="M53.5495,49.0269 L53.5495,45.2962 C53.5495,43.5850656 52.4354684,42.8633019 50.075,42.8632 C47.6658218,42.8633038 46.4505,43.6136 46.4505,45.2962 L46.4505,49.0269 C46.4505,50.699019 47.6491987,51.4258002 50.077,51.4259 C52.4542449,51.4258022 53.5495,50.728013 53.5495,49.0269 Z M55.0495,45.2962 L55.0495,49.0269 C55.0495,51.7345441 53.1796484,52.925772 50.077,52.9259 C46.9278813,52.9257731 44.9505,51.7269165 44.9505,49.0269 L44.9505,45.2962 C44.9505,42.5935108 46.9432084,41.3633309 50.075,41.3632 C53.1626286,41.363332 55.0495,42.5857482 55.0495,45.2962 Z M56.3221426,55.7244304 C57.3700221,53.8719043 58,51.5441045 58,49 C58,42.8726469 54.3457251,38 50,38 C45.6542749,38 42,42.8726469 42,49 C42,51.5441045 42.6299779,53.8719043 43.6778574,55.7244304 C43.7351582,55.6027766 43.7985825,55.479254 43.8685523,55.3552451 C44.4790164,54.2733065 45.3879397,53.5843 46.617,53.5843 L53.383,53.5843 C54.6120603,53.5843 55.5209836,54.2733065 56.1314477,55.3552451 C56.2014175,55.479254 56.2648418,55.6027766 56.3221426,55.7244304 L56.3221426,55.7244304 Z M55.2653602,57.2643236 C55.2644515,57.2598952 55.2635803,57.2554498 55.2627469,57.2509878 C55.2516624,57.1916355 55.2218987,57.0679717 55.1702818,56.9028413 C55.083211,56.6242882 54.9683302,56.3462895 54.8250523,56.0923549 C54.4555164,55.4374185 53.9896897,55.0843 53.383,55.0843 L46.617,55.0843 C46.0103103,55.0843 45.5444836,55.4374185 45.1749477,56.0923549 C45.0316698,56.3462895 44.916789,56.6242882 44.8297182,56.9028413 C44.7781013,57.0679717 44.7483376,57.1916355 44.7372531,57.2509878 C44.7364197,57.2554498 44.7355485,57.2598952 44.7346398,57.2643236 C46.1520912,58.9710878 48.003042,60 50,60 C51.996958,60 53.8479088,58.9710878 55.2653602,57.2643236 L55.2653602,57.2643236 Z M73.8741351,48 L75.9999,48 C76.5521847,48 76.9999,48.4477153 76.9999,49 C76.9999,49.5522847 76.5521847,50 75.9999,50 L73.8741351,50 C73.429962,51.7251462 71.8635488,53 70.0002,53 C68.1362201,53 66.5701924,51.725307 66.126196,50 L64.0002,50 C63.4479153,50 63.0002,49.5522847 63.0002,49 C63.0002,48.4477153 63.4479153,48 64.0002,48 L66.126196,48 C66.5701924,46.274693 68.1362201,45 70.0002,45 C71.8635488,45 73.429962,46.2748538 73.8741351,48 L73.8741351,48 Z M33.8741351,48 L35.9999,48 C36.5521847,48 36.9999,48.4477153 36.9999,49 C36.9999,49.5522847 36.5521847,50 35.9999,50 L33.8741351,50 C33.429962,51.7251462 31.8635488,53 30.0002,53 C28.1362201,53 26.5701924,51.725307 26.126196,50 L24.0002,50 C23.4479153,50 23.0002,49.5522847 23.0002,49 C23.0002,48.4477153 23.4479153,48 24.0002,48 L26.126196,48 C26.5701924,46.274693 28.1362201,45 30.0002,45 C31.8635488,45 33.429962,46.2748538 33.8741351,48 L33.8741351,48 Z M82,59.1146573 L82,40.5692101 C76.6002273,39.6543267 72.4021032,35.3635833 71.5553098,30 L28.444619,30 C27.5978293,35.3635597 23.3997385,39.654289 18,40.5691981 L18,59.1322141 C23.4584578,60.1029375 27.6650142,64.5265835 28.3893799,70 L71.5095384,70 C72.2383692,64.4928447 76.4924521,60.0484417 82,59.1146573 L82,59.1146573 Z M82,61.1487519 C77.6092403,62.0377909 74.2261518,65.5911003 73.5305246,70 L80.1662424,70 C81.1911971,70 82,69.2215401 82,68.2906364 L82,61.1487519 Z M18,61.1697267 L18,68.2906364 C18,69.2219511 18.8082059,70 19.8337576,70 L26.3683938,70 C25.6781141,65.6249934 22.3415338,62.0924732 18,61.1697267 Z M73.585123,30 C74.3890099,34.2643707 77.7159643,37.6682379 82,38.5351431 L82,31.7093636 C82,30.7784599 81.1911971,30 80.1662424,30 L73.585123,30 Z M26.4148058,30 L19.8337576,30 C18.8082059,30 18,30.7780489 18,31.7093636 L18,38.5351287 C22.2840013,37.6682002 25.6109234,34.2643471 26.4148058,30 Z M80.1662424,73 L19.8337576,73 C17.1763396,73 15,70.9048671 15,68.2906364 L15,31.7093636 C15,29.0951329 17.1763396,27 19.8337576,27 L80.1662424,27 C82.8229284,27 85,29.0953969 85,31.7093636 L85,68.2906364 C85,70.9046031 82.8229284,73 80.1662424,73 Z M40,49 C40,41.8726623 44.4042432,36 50,36 C55.5957568,36 60,41.8726623 60,49 C60,56.1273377 55.5957568,62 50,62 C44.4042432,62 40,56.1273377 40,49 Z M32.0002,49 C32.0002,47.8956816 31.1043122,47 30.0002,47 C28.8954847,47 28.0002,47.8952847 28.0002,49 C28.0002,50.1047153 28.8954847,51 30.0002,51 C31.1043122,51 32.0002,50.1043184 32.0002,49 Z M72.0002,49 C72.0002,47.8956816 71.1043122,47 70.0002,47 C68.8954847,47 68.0002,47.8952847 68.0002,49 C68.0002,50.1047153 68.8954847,51 70.0002,51 C71.1043122,51 72.0002,50.1043184 72.0002,49 Z M50.0755,41.3632 L50.0745,42.8632 L50.0755,41.3632 Z M66.7639,33 C66.4877576,33 66.2639,32.7761424 66.2639,32.5 C66.2639,32.2238576 66.4877576,32 66.7639,32 L69.2439,32 C69.5200424,32 69.7439,32.2238576 69.7439,32.5 C69.7439,32.7761424 69.5200424,33 69.2439,33 L66.7639,33 Z M40,67 C39.1715729,67 38.5,66.3284271 38.5,65.5 C38.5,64.6715729 39.1715729,64 40,64 L60,64 C60.8284271,64 61.5,64.6715729 61.5,65.5 C61.5,66.3284271 60.8284271,67 60,67 L40,67 Z M49.7639,33 C49.4877576,33 49.2639,32.7761424 49.2639,32.5 C49.2639,32.2238576 49.4877576,32 49.7639,32 L63.7639,32 C64.0400424,32 64.2639,32.2238576 64.2639,32.5 C64.2639,32.7761424 64.0400424,33 63.7639,33 L49.7639,33 Z M49.2789318,47.3853 C49.2789318,47.7503 48.9929318,48.0463 48.6399318,48.0463 C48.2869318,48.0463 48.0009318,47.7503 48.0009318,47.3853 C48.0009318,47.0193 48.2869318,46.7233 48.6399318,46.7233 C48.9929318,46.7233 49.2789318,47.0193 49.2789318,47.3853 Z M52.0201318,47.3853 C52.0201318,47.7503 51.7341318,48.0463 51.3801318,48.0463 C51.0281318,48.0463 50.7411318,47.7503 50.7411318,47.3853 C50.7411318,47.0193 51.0281318,46.7233 51.3801318,46.7233 C51.7341318,46.7233 52.0201318,47.0193 52.0201318,47.3853 Z" id="Cash" fill="#2F313A" fill-rule="nonzero"></path>
    </g>
</svg>