<?xml version="1.0" encoding="UTF-8"?>
<svg width="100px" height="100px" viewBox="0 0 100 100" version="1.1" xmlns="http://www.w3.org/2000/svg" xmlns:xlink="http://www.w3.org/1999/xlink">
    <!-- Generator: Sketch 59.1 (86144) - https://sketch.com -->
    <title>Vector Files/100x100/Flattened/Payment/Credit Card</title>
    <desc>Created with Sketch.</desc>
    <g id="100x100/Flattened/Payment/Credit-Card" stroke="none" stroke-width="1" fill="none" fill-rule="evenodd">
        <path d="M80,49.0370938 L80,42 L20,42 L20,49 L23,49 L23,45.5 C23,44.9477153 23.4477153,44.5 24,44.5 C24.5522847,44.5 25,44.9477153 25,45.5 L25,49 L79.667,49 C79.7814459,49 79.8928983,49.012817 80,49.0370938 L80,49.0370938 Z M80,51.9629062 C79.8928983,51.987183 79.7814459,52 79.667,52 L25,52 L25,65.278 C25,65.6767153 25.3232847,66 25.722,66 L29.667,66 C30.2192847,66 30.667,66.4477153 30.667,67 C30.667,67.5522847 30.2192847,68 29.667,68 L25.722,68 C24.2187153,68 23,66.7812847 23,65.278 L23,52 L20,52 L20,67.6722826 C20,69.4970914 21.5610857,71 23.5135806,71 L76.4854032,71 C78.4394224,71 80,69.4975805 80,67.6722826 L80,51.9629062 L80,51.9629062 Z M80,39 L80,32.3277174 C80,30.5024195 78.4394224,29 76.4854032,29 L23.5135806,29 C21.5610857,29 20,30.5029086 20,32.3277174 L20,39 L80,39 Z M76.4854032,74 L23.5135806,74 C19.9291885,74 17,71.1799738 17,67.6722826 L17,32.3277174 C17,28.8200262 19.9291885,26 23.5135806,26 L76.4854032,26 C80.0713196,26 83,28.8195371 83,32.3277174 L83,67.6722826 C83,71.1804629 80.0713196,74 76.4854032,74 Z M39.1667,66 C39.7189847,66 40.1667,66.4477153 40.1667,67 C40.1667,67.5522847 39.7189847,68 39.1667,68 L34.1667,68 C33.6144153,68 33.1667,67.5522847 33.1667,67 C33.1667,66.4477153 33.6144153,66 34.1667,66 L39.1667,66 Z M72.1667,34 C71.6144153,34 71.1667,33.5522847 71.1667,33 C71.1667,32.4477153 71.6144153,32 72.1667,32 L74.6467,32 C75.1989847,32 75.6467,32.4477153 75.6467,33 C75.6467,33.5522847 75.1989847,34 74.6467,34 L72.1667,34 Z M54.1667,34 C53.6144153,34 53.1667,33.5522847 53.1667,33 C53.1667,32.4477153 53.6144153,32 54.1667,32 L68.1667,32 C68.7189847,32 69.1667,32.4477153 69.1667,33 C69.1667,33.5522847 68.7189847,34 68.1667,34 L54.1667,34 Z M66.0631197,59 C66.0284037,59 66,59.0284065 66,59.063224 L66,66.936776 C66,66.9715935 66.0284037,67 66.0631197,67 L73.9368803,67 C73.9710963,67 74,66.9711119 74,66.936776 L74,59.063224 C74,59.0288881 73.9710963,59 73.9368803,59 L66.0631197,59 Z M66.0631197,57 L73.9368803,57 C75.0754244,57 76,57.924077 76,59.063224 L76,66.936776 C76,68.075923 75.0754244,69 73.9368803,69 L66.0631197,69 C64.9237903,69 64,68.076119 64,66.936776 L64,59.063224 C64,57.923881 64.9237903,57 66.0631197,57 Z" id="Credit-Card" fill="#2F313A" fill-rule="nonzero"></path>
    </g>
</svg>