<?xml version="1.0" encoding="UTF-8"?>
<svg width="100px" height="100px" viewBox="0 0 100 100" version="1.1" xmlns="http://www.w3.org/2000/svg" xmlns:xlink="http://www.w3.org/1999/xlink">
    <!-- Generator: Sketch 59.1 (86144) - https://sketch.com -->
    <title>Vector Files/100x100/Flattened/Payment/Wallet</title>
    <desc>Created with Sketch.</desc>
    <g id="100x100/Flattened/Payment/Wallet" stroke="none" stroke-width="1" fill="none" fill-rule="evenodd">
        <path d="M80,56 L80,52.5526123 C80,52.2764699 80.2238576,52.0526123 80.5,52.0526123 C80.7761424,52.0526123 81,52.2764699 81,52.5526123 L81,56.0723731 C81.1578529,56.0165768 81.3278178,55.9864593 81.5048653,55.9870336 L84,55.9951267 L84,46.0118963 L81.5118492,46.031552 C81.3154754,46.0331033 81.1276715,45.9968636 80.9553096,45.9296511 C80.8117126,45.9753434 80.6587357,46 80.5,46 L64.885,46 C62.8082857,46 61,48.1826352 61,51 C61,53.8173648 62.8082857,56 64.885,56 L80,56 L80,56 Z M69.7238477,29 L71.0950203,32.9734 L73.75,32.9734 C74.3022847,32.9734 74.75,33.4211153 74.75,33.9734 C74.75,34.5256847 74.3022847,34.9734 73.75,34.9734 L25.9317,34.9734 C25.9012769,34.9734 25.8711711,34.9720414 25.84144,34.9693816 C25.3681806,35.0133863 24.9169679,34.7136973 24.7860597,34.2395185 C24.6390865,33.707149 24.951512,33.1564329 25.4838815,33.0094597 L40.0070354,29 L23.5135806,29 C21.5604655,29 20,30.5025218 20,32.3277174 L20,67.6722826 C20,69.4974782 21.5604655,71 23.5135806,71 L76.4854032,71 C78.4394224,71 80,69.4975805 80,67.6722826 L80,59 L64.885,59 C61.0135463,59 58,55.3625924 58,51 C58,46.6374076 61.0135463,43 64.885,43 L80,43 L80,32.3277174 C80,30.5024195 78.4394224,29 76.4854032,29 L69.7238477,29 Z M67.5163861,22.6031919 L69.2457176,26 L76.4854032,26 C80.0713196,26 83,28.8195371 83,32.3277174 L83,43.0197024 L85.4881508,43.0000468 C86.3211832,42.9934661 87,43.6669416 87,44.5 L87,57.5 C87,58.3303278 86.3254581,59.0026853 85.4951347,58.9999921 L83,58.9918989 L83,67.6722826 C83,71.1804629 80.0713196,74 76.4854032,74 L23.5135806,74 C19.9284784,74 17,71.1802628 17,67.6722826 L17,32.3277174 C17,28.8197372 19.9284784,26 23.5135806,26 L48.3105986,26 L65.6623419,21.5470799 C66.1531094,21.4211359 66.6595085,21.5530171 67.0232645,21.8712163 C67.2142886,21.9884216 67.366908,22.1700326 67.4452971,22.3971893 L67.5163861,22.6031919 L67.5163861,22.6031919 Z M67.5289492,28.7706047 C67.3031848,28.6289569 67.11498,28.4271395 66.9894347,28.1805394 L65.2437963,24.7517007 L48.8728581,28.9529201 C48.7510372,28.9841826 48.6257683,29 48.5,29 L47.5224846,29 L33.1299468,32.9734 L68.9792834,32.9734 L67.5289492,28.7706047 L67.5289492,28.7706047 Z M40,66 C40.5522847,66 41,66.4477153 41,67 C41,67.5522847 40.5522847,68 40,68 L25.719,68 C24.2179599,68 23,66.7825294 23,65.282 L23,58.5 C23,57.9477153 23.4477153,57.5 24,57.5 C24.5522847,57.5 25,57.9477153 25,58.5 L25,65.282 C25,65.67778 25.3223496,66 25.719,66 L40,66 Z M46.9069824,66 C47.4592672,66 47.9069824,66.4477153 47.9069824,67 C47.9069824,67.5522847 47.4592672,68 46.9069824,68 L43.9069824,68 C43.3546977,68 42.9069824,67.5522847 42.9069824,67 C42.9069824,66.4477153 43.3546977,66 43.9069824,66 L46.9069824,66 Z M25,53.7234 C25,54.2756847 24.5522847,54.7234 24,54.7234 C23.4477153,54.7234 23,54.2756847 23,53.7234 L23,45.7234 C23,45.1711153 23.4477153,44.7234 24,44.7234 C24.5522847,44.7234 25,45.1711153 25,45.7234 L25,53.7234 Z M69,51 C69,50.1712847 68.3287153,49.5 67.5,49.5 C66.6712847,49.5 66,50.1712847 66,51 C66,51.8287153 66.6712847,52.5 67.5,52.5 C68.3287153,52.5 69,51.8287153 69,51 Z M71,51 C71,52.9332847 69.4332847,54.5 67.5,54.5 C65.5667153,54.5 64,52.9332847 64,51 C64,49.0667153 65.5667153,47.5 67.5,47.5 C69.4332847,47.5 71,49.0667153 71,51 Z M80,48.5 C80,48.2238576 80.2238576,48 80.5,48 C80.7761424,48 81,48.2238576 81,48.5 L81,49.7234 C81,49.9995424 80.7761424,50.2234 80.5,50.2234 C80.2238576,50.2234 80,49.9995424 80,49.7234 L80,48.5 Z" id="Wallet" fill="#2F313A" fill-rule="nonzero"></path>
    </g>
</svg>