<?xml version="1.0" encoding="UTF-8"?>
<svg width="40px" height="40px" viewBox="0 0 40 40" version="1.1" xmlns="http://www.w3.org/2000/svg" xmlns:xlink="http://www.w3.org/1999/xlink">
    <!-- Generator: Sketch 59.1 (86144) - https://sketch.com -->
    <title>Vector Files/40x40/Flattened/Payment/Cash (Filled)</title>
    <desc>Created with Sketch.</desc>
    <g id="40x40/Flattened/Payment/Cash-(Filled)" stroke="none" stroke-width="1" fill="none" fill-rule="evenodd">
        <path d="M30.0791,30 L9.9211,30 C8.30731525,30 7.0001,28.6927847 7.0001,27.08 L7.0001,12.92 C7.0001,11.3072153 8.30731525,10 9.9211,10 L30.0791,10 C31.6928847,10 33.0001,11.3072153 33.0001,12.92 L33.0001,27.08 C33.0001,28.6927847 31.6928847,30 30.0791,30 Z M31,24.1575634 C29.1606252,24.6310959 27.7307119,26.12517 27.3500458,28 L28.3760591,28 C28.71616,26.6789995 29.7142604,25.621963 31,25.199251 L31,24.1575634 Z M31,15.300749 C29.5557234,14.8259148 28.4743934,13.5506823 28.2809583,12 L27.2746951,12 C27.4838326,14.1058041 28.9998254,15.8275074 31,16.3424366 L31,15.300749 Z M12.6499542,28 C12.2692881,26.12517 10.8393748,24.6310959 9,24.1575634 L9,25.199251 C10.2857396,25.621963 11.28384,26.6789995 11.6239409,28 L12.6499542,28 Z M9,16.3424366 C11.0001746,15.8275074 12.5161674,14.1058041 12.7253049,12 L11.7190417,12 C11.5256066,13.5506823 10.4442766,14.8259148 9,15.300749 L9,16.3424366 Z M20.5526826,20.7668154 C21.4214609,21.0551975 21.6696833,21.3799372 21.6696833,21.9079491 C21.6696833,22.4847133 21.2748546,22.8689473 20.5526826,22.9532309 L20.5526826,20.7668154 Z M19.6621849,19.0968435 C18.7934066,18.7968931 18.5785391,18.4837217 18.5785391,17.9796728 C18.5785391,17.4508346 18.9400129,17.0426376 19.6621849,16.9699223 L19.6621849,19.0968435 Z M20.1128636,15 C19.8421461,15 19.6164189,15.2280615 19.6164189,15.5164436 L19.6164189,15.768468 C18.2069813,15.8891092 17.2482224,16.7782185 17.2482224,18.0639564 C17.2482224,19.4215832 18.0153846,20.0818047 19.6621849,20.5387539 L19.6621849,22.9053049 C19.041629,22.78549 18.5226891,22.5086763 17.9921138,22.1004793 C17.8904977,22.0161957 17.7563025,21.9682697 17.6205559,21.9682697 C17.2707175,21.9682697 17,22.2566518 17,22.6293175 C17,22.8813419 17.1124758,23.0738721 17.3048481,23.2060816 C17.9921138,23.7225252 18.7709114,24.0472649 19.6164189,24.1431168 L19.6164189,24.4835564 C19.6164189,24.7719385 19.8421461,25 20.1128636,25 C20.3835811,25 20.5984486,24.7719385 20.5984486,24.4835564 L20.5984486,24.1670798 C22.0303814,24.0224756 23,23.145761 23,21.8244918 C23,20.5387539 22.2669683,19.8058172 20.5526826,19.348868 L20.5526826,17.0426376 C20.9366516,17.1384895 21.3198449,17.318625 21.7146736,17.5706495 C21.827925,17.6433647 21.9404008,17.6788961 22.0528765,17.6788961 C22.4027149,17.6788961 22.6842922,17.3913403 22.6842922,17.0178483 C22.6842922,16.7302925 22.5268261,16.5493307 22.3468649,16.4419104 C21.827925,16.0932077 21.2639948,15.8651463 20.5984486,15.7808627 L20.5984486,15.5164436 C20.5984486,15.2280615 20.3835811,15 20.1128636,15 Z" id="Cash-(Filled)" fill="#2F313A" fill-rule="nonzero"></path>
    </g>
</svg>