<?xml version="1.0" encoding="UTF-8"?>
<svg width="40px" height="40px" viewBox="0 0 40 40" version="1.1" xmlns="http://www.w3.org/2000/svg" xmlns:xlink="http://www.w3.org/1999/xlink">
    <!-- Generator: Sketch 59.1 (86144) - https://sketch.com -->
    <title>Vector Files/40x40/Flattened/Payment/Cash</title>
    <desc>Created with Sketch.</desc>
    <g id="40x40/Flattened/Payment/Cash" stroke="none" stroke-width="1" fill="none" fill-rule="evenodd">
        <path d="M12.6499542,28 L27.3500458,28 C27.7307188,26.125136 29.160677,24.6310418 31.0001,24.1575377 L31.0001,16.3424623 C28.999876,15.8275648 27.4838361,14.1058392 27.2746951,12 L12.7253049,12 C12.5161709,14.105769 11.0002251,15.8274501 9.0001,16.3424108 L9.0001,24.1575892 C10.8394267,24.6311501 12.269295,26.125204 12.6499542,28 L12.6499542,28 Z M11.6239409,28 C11.2838489,26.6790338 10.2857913,25.6220178 9.0001,25.1992839 L9.0001,27.08 C9.0001,27.5882153 9.41188475,28 9.9211,28 L11.6239409,28 Z M28.3760591,28 L30.0791,28 C30.5883153,28 31.0001,27.5882153 31.0001,27.08 L31.0001,25.1992182 C29.7143122,25.6219082 28.7161688,26.6789653 28.3760591,28 Z M9.0001,15.3007161 C10.4443265,14.825856 11.5256111,13.5506465 11.7190417,12 L9.9211,12 C9.41188475,12 9.0001,12.4117847 9.0001,12.92 L9.0001,15.3007161 Z M31.0001,15.3007818 L31.0001,12.92 C31.0001,12.4117847 30.5883153,12 30.0791,12 L28.2809583,12 C28.4743978,13.5507181 29.5557734,14.8259737 31.0001,15.3007818 Z M30.0791,30 L9.9211,30 C8.30731525,30 7.0001,28.6927847 7.0001,27.08 L7.0001,12.92 C7.0001,11.3072153 8.30731525,10 9.9211,10 L30.0791,10 C31.6928847,10 33.0001,11.3072153 33.0001,12.92 L33.0001,27.08 C33.0001,28.6927847 31.6928847,30 30.0791,30 Z M20.5526826,20.7668154 L20.5526826,22.9532309 C21.2748546,22.8689473 21.6696833,22.4847133 21.6696833,21.9079491 C21.6696833,21.3799372 21.4214609,21.0551975 20.5526826,20.7668154 Z M19.6621849,19.0968435 L19.6621849,16.9699223 C18.9400129,17.0426376 18.5785391,17.4508346 18.5785391,17.9796728 C18.5785391,18.4837217 18.7934066,18.7968931 19.6621849,19.0968435 Z M20.1128636,15 C20.3835811,15 20.5984486,15.2280615 20.5984486,15.5164436 L20.5984486,15.7808627 C21.2639948,15.8651463 21.827925,16.0932077 22.3468649,16.4419104 C22.5268261,16.5493307 22.6842922,16.7302925 22.6842922,17.0178483 C22.6842922,17.3913403 22.4027149,17.6788961 22.0528765,17.6788961 C21.9404008,17.6788961 21.827925,17.6433647 21.7146736,17.5706495 C21.3198449,17.318625 20.9366516,17.1384895 20.5526826,17.0426376 L20.5526826,19.348868 C22.2669683,19.8058172 23,20.5387539 23,21.8244918 C23,23.145761 22.0303814,24.0224756 20.5984486,24.1670798 L20.5984486,24.4835564 C20.5984486,24.7719385 20.3835811,25 20.1128636,25 C19.8421461,25 19.6164189,24.7719385 19.6164189,24.4835564 L19.6164189,24.1431168 C18.7709114,24.0472649 17.9921138,23.7225252 17.3048481,23.2060816 C17.1124758,23.0738721 17,22.8813419 17,22.6293175 C17,22.2566518 17.2707175,21.9682697 17.6205559,21.9682697 C17.7563025,21.9682697 17.8904977,22.0161957 17.9921138,22.1004793 C18.5226891,22.5086763 19.041629,22.78549 19.6621849,22.9053049 L19.6621849,20.5387539 C18.0153846,20.0818047 17.2482224,19.4215832 17.2482224,18.0639564 C17.2482224,16.7782185 18.2069813,15.8891092 19.6164189,15.768468 L19.6164189,15.5164436 C19.6164189,15.2280615 19.8421461,15 20.1128636,15 Z" id="Cash" fill="#2F313A" fill-rule="nonzero"></path>
    </g>
</svg>