<?xml version="1.0" encoding="UTF-8"?>
<svg width="40px" height="40px" viewBox="0 0 40 40" version="1.1" xmlns="http://www.w3.org/2000/svg" xmlns:xlink="http://www.w3.org/1999/xlink">
    <!-- Generator: Sketch 59.1 (86144) - https://sketch.com -->
    <title>Vector Files/40x40/Flattened/Payment/Credit Card (Success)</title>
    <desc>Created with Sketch.</desc>
    <g id="40x40/Flattened/Payment/Credit-Card-(Success)" stroke="none" stroke-width="1" fill="none" fill-rule="evenodd">
        <path d="M31.31056,17.6097953 C31.4863306,17.4423973 31.7229623,17.3383272 31.9838653,17.3341745 C31.9892806,17.3316195 31.9946922,17.3290577 32.0001,17.3264892 L32.0001,17.3340454 C32.5523847,17.3340454 33.0001,17.7817607 33.0001,18.3340454 L33.0001,27.08 C33.0001,28.6927847 31.6928847,30 30.0791,30 L9.9211,30 C8.30731525,30 7.0001,28.6927847 7.0001,27.08 L7.0001,12.92 C7.0001,11.3072153 8.30731525,10 9.9211,10 L21.0827637,10 C21.6350484,10 22.0827637,10.4477153 22.0827637,11 C22.0827637,11.5522847 21.6350484,12 21.0827637,12 L9.9211,12 C9.41188475,12 9.0001,12.4117847 9.0001,12.92 L9.0001,27.08 C9.0001,27.5882153 9.41188475,28 9.9211,28 L30.0791,28 C30.5883153,28 31.0001,27.5882153 31.0001,27.08 L31.0001,20 L9,20 L9,16 L24.1006314,16 C25.3632137,17.2372874 27.0925236,18 29,18 C29.8096413,18 30.5871836,17.862587 31.31056,17.6097953 L31.31056,17.6097953 Z M35,11 C35,14.3146501 32.3136432,17 29,17 C25.6863568,17 23,14.3146501 23,11 C23,7.68635677 25.6863568,5 29,5 C32.3136432,5 35,7.68635677 35,11 Z M30.6758303,8.10084483 L28.1207345,12.1653933 L26.9161609,10.5183851 C26.671637,10.1840486 26.2023778,10.1112411 25.8680413,10.355765 C25.5337048,10.600289 25.4608973,11.0695481 25.7054212,11.4038846 L27.5622728,13.9427498 C27.8750514,14.3704105 28.5206221,14.3477203 28.8026034,13.8991552 L31.9457518,8.89915517 C32.1661991,8.54847603 32.0606254,8.08548657 31.7099462,7.86503925 C31.3592671,7.64459194 30.8962776,7.75016569 30.6758303,8.10084483 Z" id="Credit-Card-(Success)" fill="#2F313A" fill-rule="nonzero"></path>
    </g>
</svg>