<?xml version="1.0" encoding="UTF-8"?>
<svg width="40px" height="40px" viewBox="0 0 40 40" version="1.1" xmlns="http://www.w3.org/2000/svg" xmlns:xlink="http://www.w3.org/1999/xlink">
    <!-- Generator: Sketch 59.1 (86144) - https://sketch.com -->
    <title>Vector Files/40x40/Flattened/Payment/Credit Card (Fail)</title>
    <desc>Created with Sketch.</desc>
    <g id="40x40/Flattened/Payment/Credit-Card-(Fail)" stroke="none" stroke-width="1" fill="none" fill-rule="evenodd">
        <path d="M31.3100544,17.6099719 C31.4860268,17.4421488 31.7231164,17.3378481 31.9845341,17.3338589 C31.9897262,17.3314085 31.9949149,17.328952 32.0001,17.3264892 L32.0001,17.3337402 C32.5523847,17.3337402 33.0001,17.7814555 33.0001,18.3337402 L33.0001,27.08 C33.0001,28.6927847 31.6928847,30 30.0791,30 L9.9211,30 C8.30731525,30 7.0001,28.6927847 7.0001,27.08 L7.0001,12.92 C7.0001,11.3072153 8.30731525,10 9.9211,10 L21.0827637,10 C21.6350484,10 22.0827637,10.4477153 22.0827637,11 C22.0827637,11.5522847 21.6350484,12 21.0827637,12 L9.9211,12 C9.41188475,12 9.0001,12.4117847 9.0001,12.92 L9.0001,27.08 C9.0001,27.5882153 9.41188475,28 9.9211,28 L30.0791,28 C30.5883153,28 31.0001,27.5882153 31.0001,27.08 L31.0001,20 L9,20 L9,16 L24.1006314,16 C25.3632137,17.2372874 27.0925236,18 29,18 C29.8094527,18 30.5868213,17.862651 31.3100544,17.6099719 L31.3100544,17.6099719 Z M35,11 C35,14.3146501 32.3136432,17 29,17 C25.6863568,17 23,14.3146501 23,11 C23,7.68635677 25.6863568,5 29,5 C32.3136432,5 35,7.68635677 35,11 Z M30.0054815,11 L31.791758,9.2137235 C32.069414,8.93606746 32.069414,8.48589807 31.791758,8.20824203 C31.5141019,7.93058599 31.0639325,7.93058599 30.7862765,8.20824203 L29,9.99451853 L27.2141102,8.20862875 C26.9364542,7.93097271 26.4862848,7.93097271 26.2086288,8.20862875 C25.9309727,8.48628479 25.9309727,8.93645418 26.2086288,9.21411022 L27.9945185,11 L26.208242,12.7862765 C25.930586,13.0639325 25.930586,13.5141019 26.208242,13.791758 C26.4858981,14.069414 26.9360675,14.069414 27.2137235,13.791758 L29,12.0054815 L30.7858898,13.7913712 C31.0635458,14.0690273 31.5137152,14.0690273 31.7913712,13.7913712 C32.0690273,13.5137152 32.0690273,13.0635458 31.7913712,12.7858898 L30.0054815,11 L30.0054815,11 Z" id="Credit-Card-(Fail)" fill="#2F313A" fill-rule="nonzero"></path>
    </g>
</svg>