<?xml version="1.0" encoding="UTF-8"?>
<svg width="40px" height="40px" viewBox="0 0 40 40" version="1.1" xmlns="http://www.w3.org/2000/svg" xmlns:xlink="http://www.w3.org/1999/xlink">
    <!-- Generator: Sketch 59.1 (86144) - https://sketch.com -->
    <title>Vector Files/40x40/Flattened/Payment/Credit Card (Success) (Filled)</title>
    <desc>Created with Sketch.</desc>
    <g id="40x40/Flattened/Payment/Credit-Card-(Success)-(Filled)" stroke="none" stroke-width="1" fill="none" fill-rule="evenodd">
        <path d="M24.0308976,17 L7,17 L7,21 L33.0001,21 L33.0001,18.1069913 L33.0001,27.08 C33.0001,28.6927847 31.6928847,30 30.0791,30 L9.9211,30 C8.30731525,30 7,28.6927847 7,27.08 L7,12.92 C7,11.3072153 8.30731525,10 9.9211,10 L21.3848953,10 C21.3440426,10.327595 21.322998,10.6613404 21.322998,11 C21.322998,13.3898306 22.3703286,15.5343157 24.0308976,17 L24.0308976,17 Z M35.322998,11 C35.322998,14.3146501 32.6366412,17 29.322998,17 C26.0093548,17 23.322998,14.3146501 23.322998,11 C23.322998,7.68635677 26.0093548,5 29.322998,5 C32.6366412,5 35.322998,7.68635677 35.322998,11 Z M30.9988283,8.10084483 L28.4437325,12.1653933 L27.2391589,10.5183851 C26.994635,10.1840486 26.5253758,10.1112411 26.1910393,10.355765 C25.8567028,10.600289 25.7838953,11.0695481 26.0284192,11.4038846 L27.8852708,13.9427498 C28.1980494,14.3704105 28.8436201,14.3477203 29.1256014,13.8991552 L32.2687498,8.89915517 C32.4891971,8.54847603 32.3836234,8.08548657 32.0329442,7.86503925 C31.6822651,7.64459194 31.2192756,7.75016569 30.9988283,8.10084483 Z" id="Credit-Card-(Success)-(Filled)" fill="#2F313A" fill-rule="nonzero"></path>
    </g>
</svg>