<?xml version="1.0" encoding="UTF-8"?>
<svg width="40px" height="40px" viewBox="0 0 40 40" version="1.1" xmlns="http://www.w3.org/2000/svg" xmlns:xlink="http://www.w3.org/1999/xlink">
    <!-- Generator: Sketch 59.1 (86144) - https://sketch.com -->
    <title>Vector Files/40x40/Flattened/Payment/Credit Card (Fail) (Filled)</title>
    <desc>Created with Sketch.</desc>
    <g id="40x40/Flattened/Payment/Credit-Card-(Fail)-(Filled)" stroke="none" stroke-width="1" fill="none" fill-rule="evenodd">
        <path d="M24.0308976,17 L7,17 L7,21 L33.0001,21 L33.0001,18.1069913 L33.0001,27.08 C33.0001,28.6927847 31.6928847,30 30.0791,30 L9.9211,30 C8.30731525,30 7,28.6927847 7,27.08 L7,12.92 C7,11.3072153 8.30731525,10 9.9211,10 L21.3848953,10 C21.3440426,10.327595 21.322998,10.6613404 21.322998,11 C21.322998,13.3898306 22.3703286,15.5343157 24.0308976,17 Z M30.2422369,11 L31.8753,9.36693689 C32.1291408,9.1130961 32.1291408,8.70153886 31.8753,8.44769807 C31.6214592,8.19385728 31.2099019,8.19385728 30.9560612,8.44769807 L29.322998,10.0807612 L27.6902885,8.44805163 C27.4364477,8.19421084 27.0248905,8.19421084 26.7710497,8.44805163 C26.5172089,8.70189242 26.5172089,9.11344965 26.7710497,9.36729044 L28.4037592,11 L26.7706961,12.6330631 C26.5168553,12.8869039 26.5168553,13.2984611 26.7706961,13.5523019 C27.0245369,13.8061427 27.4360941,13.8061427 27.6899349,13.5523019 L29.322998,11.9192388 L30.9557076,13.5519484 C31.2095484,13.8057892 31.6211056,13.8057892 31.8749464,13.5519484 C32.1287872,13.2981076 32.1287872,12.8865503 31.8749464,12.6327096 L30.2422369,11 L30.2422369,11 Z M35.322998,11 C35.322998,14.3146501 32.6366412,17 29.322998,17 C26.0093548,17 23.322998,14.3146501 23.322998,11 C23.322998,7.68635677 26.0093548,5 29.322998,5 C32.6366412,5 35.322998,7.68635677 35.322998,11 Z" id="Credit-Card-(Fail)-(Filled)" fill="#2F313A" fill-rule="nonzero"></path>
    </g>
</svg>