<?xml version="1.0" encoding="UTF-8"?>
<svg width="40px" height="40px" viewBox="0 0 40 40" version="1.1" xmlns="http://www.w3.org/2000/svg" xmlns:xlink="http://www.w3.org/1999/xlink">
    <!-- Generator: Sketch 59.1 (86144) - https://sketch.com -->
    <title>Vector Files/40x40/Flattened/Payment/Credit Card</title>
    <desc>Created with Sketch.</desc>
    <g id="40x40/Flattened/Payment/Credit-Card" stroke="none" stroke-width="1" fill="none" fill-rule="evenodd">
        <path d="M9.0001,16 L31.0001,16 L31.0001,20 L9.0001,20 L9.0001,27.08 C9.0001,27.5882153 9.41188475,28 9.9211,28 L30.0791,28 C30.5883153,28 31.0001,27.5882153 31.0001,27.08 L31.0001,12.92 C31.0001,12.4117847 30.5883153,12 30.0791,12 L9.9211,12 C9.41188475,12 9.0001,12.4117847 9.0001,12.92 L9.0001,16 Z M30.0791,30 L9.9211,30 C8.30731525,30 7.0001,28.6927847 7.0001,27.08 L7.0001,12.92 C7.0001,11.3072153 8.30731525,10 9.9211,10 L30.0791,10 C31.6928847,10 33.0001,11.3072153 33.0001,12.92 L33.0001,27.08 C33.0001,28.6927847 31.6928847,30 30.0791,30 Z" id="Credit-Card" fill="#2F313A" fill-rule="nonzero"></path>
    </g>
</svg>