<?xml version="1.0" encoding="UTF-8"?>
<svg width="40px" height="40px" viewBox="0 0 40 40" version="1.1" xmlns="http://www.w3.org/2000/svg" xmlns:xlink="http://www.w3.org/1999/xlink">
    <!-- Generator: Sketch 59.1 (86144) - https://sketch.com -->
    <title>Vector Files/40x40/Flattened/Payment/Credit Card (Pending) (Filled)</title>
    <desc>Created with Sketch.</desc>
    <g id="40x40/Flattened/Payment/Credit-Card-(Pending)-(Filled)" stroke="none" stroke-width="1" fill="none" fill-rule="evenodd">
        <path d="M24.0308976,17 L7,17 L7,21 L33.0001,21 L33.0001,18.1069913 L33.0001,27.08 C33.0001,28.6927847 31.6928847,30 30.0791,30 L9.9211,30 C8.30731525,30 7,28.6927847 7,27.08 L7,12.92 C7,11.3072153 8.30731525,10 9.9211,10 L21.3848953,10 C21.3440426,10.327595 21.322998,10.6613404 21.322998,11 C21.322998,13.3898306 22.3703286,15.5343157 24.0308976,17 L24.0308976,17 Z M35.322998,11 C35.322998,14.3146501 32.6366412,17 29.322998,17 C26.0093548,17 23.322998,14.3146501 23.322998,11 C23.322998,7.68635677 26.0093548,5 29.322998,5 C32.6366412,5 35.322998,7.68635677 35.322998,11 Z M26,12 C26.5522847,12 27,11.5522847 27,11 C27,10.4477153 26.5522847,10 26,10 C25.4477153,10 25,10.4477153 25,11 C25,11.5522847 25.4477153,12 26,12 Z M29.322998,12 C29.8752827,12 30.322998,11.5522847 30.322998,11 C30.322998,10.4477153 29.8752827,10 29.322998,10 C28.7707133,10 28.322998,10.4477153 28.322998,11 C28.322998,11.5522847 28.7707133,12 29.322998,12 Z M32.645996,12 C33.1982807,12 33.645996,11.5522847 33.645996,11 C33.645996,10.4477153 33.1982807,10 32.645996,10 C32.0937113,10 31.645996,10.4477153 31.645996,11 C31.645996,11.5522847 32.0937113,12 32.645996,12 Z" id="Credit-Card-(Pending)-(Filled)" fill="#2F313A" fill-rule="nonzero"></path>
    </g>
</svg>