<?xml version="1.0" encoding="UTF-8"?>
<svg width="40px" height="40px" viewBox="0 0 40 40" version="1.1" xmlns="http://www.w3.org/2000/svg" xmlns:xlink="http://www.w3.org/1999/xlink">
    <!-- Generator: Sketch 59.1 (86144) - https://sketch.com -->
    <title>Vector Files/40x40/Flattened/Payment/Fee 1</title>
    <desc>Created with Sketch.</desc>
    <g id="40x40/Flattened/Payment/Fee-1" stroke="none" stroke-width="1" fill="none" fill-rule="evenodd">
        <path d="M13,19.8076118 L13,19 C13,18.9317457 13.0068381,18.8650885 13.0198666,18.8006761 C13.0067087,18.7022878 13,18.6020426 13,18.5 C13,18.4931813 13.0000682,18.4863786 13.0002041,18.4795925 C13.0000681,18.4693466 13,18.4590824 13,18.4488 L13,16 C13,15.9317457 13.0068381,15.8650885 13.0198666,15.8006761 C13.0067087,15.7022878 13,15.6020426 13,15.5 C13,15.4931813 13.0000682,15.4863786 13.0002041,15.4795925 C13.0000681,15.4693466 13,15.4590824 13,15.4488 L13,13 C13,12.9317457 13.0068381,12.8650885 13.0198666,12.8006761 C13.0067087,12.7022878 13,12.6020426 13,12.5 C13,10.3516462 15.9736216,9 19.5,9 C23.0263784,9 26,10.3516462 26,12.5 C26,12.6020426 25.9932913,12.7022878 25.9801334,12.8006761 C25.9873642,12.8364249 25.9926882,12.8728652 25.9959947,12.9098862 C27.1739827,12.3251171 28.7705129,12 30.5,12 C34.0263784,12 37,13.3516462 37,15.5 C37,15.6020426 36.9932913,15.7022878 36.9801334,15.8006761 C36.9931619,15.8650885 37,15.9317457 37,16 L37,18.4488 C37,18.4590824 37,18.4693466 37,18.4795925 C37,18.4863786 37,18.4931813 37,18.5 C37,18.6020426 36.9932913,18.7022878 36.9801334,18.8006761 C36.9931619,18.8650885 37,18.9317457 37,19 L37,21.4488 C37,21.4590824 37,21.4693466 37,21.4795925 C37,21.4863786 37,21.4931813 37,21.5 C37,21.6020426 36.9932913,21.7022878 36.9801334,21.8006761 C36.9931619,21.8650885 37,21.9317457 37,22 L37,24.4488 C37,24.4590824 37,24.4693466 37,24.4795925 C37,24.4863786 37,24.4931813 37,24.5 C37,26.6483538 34.0263784,28 30.5,28 C28.7724723,28 27.1776004,27.6756191 26,27.0921002 L26,27.4488 C26,29.5971538 23.0263784,30.9488 19.5,30.9488 C15.9736216,30.9488 13,29.5971538 13,27.4488 L13,27.3632681 C12.7569663,27.6528847 12.495302,27.9383869 12.2168445,28.2168445 C9.72331839,30.7103705 6.6648922,31.8572804 5.14577665,30.3381648 L3.41421356,28.6066017 C3.36595046,28.5583386 3.32365197,28.5063696 3.2873181,28.4516106 C3.208443,28.3913436 3.13281519,28.3252033 3.06066017,28.2530483 C1.54154462,26.7339328 2.68845445,23.6755066 5.18198052,21.1819805 C7.67550658,18.6884544 10.7339328,17.5415446 12.2530483,19.0606602 C12.3252033,19.1328152 12.3913436,19.208443 12.4516106,19.2873181 C12.5063696,19.323652 12.5583386,19.3659505 12.6066017,19.4142136 L13,19.8076118 Z M13,22.67944 C12.9809401,22.6316946 12.9556082,22.5916472 12.9239512,22.5599902 L12.6717264,22.3077654 C12.2516474,23.5530647 11.3532746,24.9101814 10.131728,26.131728 C8.91018141,27.3532746 7.55306475,28.2516474 6.30776539,28.6717264 L6.55999021,28.9239512 C6.99349612,29.3574572 9.00038976,28.604872 10.8026309,26.8026309 C12.0698208,25.535441 12.8180857,24.1670758 13,23.3155915 L13,22.67944 L13,22.67944 Z M26,18.0921002 L26,18.4488 C26,19.0618699 27.9512461,19.9488 30.5,19.9488 C33.0487539,19.9488 35,19.0618699 35,18.4488 L35,18.0921002 C33.8223996,18.6756191 32.2275277,19 30.5,19 C28.7724723,19 27.1776004,18.6756191 26,18.0921002 L26,18.0921002 Z M24,18.4488 L24,18.0921002 C22.8223996,18.6756191 21.2275277,19 19.5,19 C17.7724723,19 16.1776004,18.6756191 15,18.0921002 L15,18.4488 C15,19.0618699 16.9512461,19.9488 19.5,19.9488 C22.0487539,19.9488 24,19.0618699 24,18.4488 Z M15,15.0921002 L15,15.4488 C15,16.0618699 16.9512461,16.9488 19.5,16.9488 C22.0487539,16.9488 24,16.0618699 24,15.4488 L24,15.0921002 C22.8223996,15.6756191 21.2275277,16 19.5,16 C17.7724723,16 16.1776004,15.6756191 15,15.0921002 L15,15.0921002 Z M15,27.0921002 L15,27.4488 C15,28.0618699 16.9512461,28.9488 19.5,28.9488 C22.0487539,28.9488 24,28.0618699 24,27.4488 L24,27.0921002 C22.8223996,27.6756191 21.2275277,28 19.5,28 C17.7724723,28 16.1776004,27.6756191 15,27.0921002 L15,27.0921002 Z M24,24.4488 L24,24.0921002 C22.8223996,24.6756191 21.2275277,25 19.5,25 C17.7724723,25 16.1776004,24.6756191 15,24.0921002 L15,24.4488 C15,25.0618699 16.9512461,25.9488 19.5,25.9488 C22.0487539,25.9488 24,25.0618699 24,24.4488 Z M26,24.4488 C26,25.0618699 27.9512461,25.9488 30.5,25.9488 C33.0487539,25.9488 35,25.0618699 35,24.4488 L35,24.0921002 C33.8223996,24.6756191 32.2275277,25 30.5,25 C28.7724723,25 27.1776004,24.6756191 26,24.0921002 L26,24.4488 Z M24,21.4488 L24,21.0921002 C22.8223996,21.6756191 21.2275277,22 19.5,22 C17.7724723,22 16.1776004,21.6756191 15,21.0921002 L15,21.4488 C15,22.0618699 16.9512461,22.9488 19.5,22.9488 C22.0487539,22.9488 24,22.0618699 24,21.4488 Z M26,21.4488 C26,22.0618699 27.9512461,22.9488 30.5,22.9488 C33.0487539,22.9488 35,22.0618699 35,21.4488 L35,21.0921002 C33.8223996,21.6756191 32.2275277,22 30.5,22 C28.7724723,22 27.1776004,21.6756191 26,21.0921002 L26,21.4488 Z M19.5,14 C22.0487539,14 24,13.1130699 24,12.5 C24,11.8869301 22.0487539,11 19.5,11 C16.9512461,11 15,11.8869301 15,12.5 C15,13.1130699 16.9512461,14 19.5,14 Z M30.5,17 C33.0487539,17 35,16.1130699 35,15.5 C35,14.8869301 33.0487539,14 30.5,14 C27.9512461,14 26,14.8869301 26,15.5 C26,16.1130699 27.9512461,17 30.5,17 Z M8.71751442,24.7175144 C10.5197556,22.9152733 11.2723407,20.9083796 10.8388348,20.4748737 C10.4053289,20.0413678 8.39843522,20.7939529 6.59619408,22.5961941 C4.79395294,24.3984352 4.04136782,26.4053289 4.47487373,26.8388348 C4.90837964,27.2723407 6.91527328,26.5197556 8.71751442,24.7175144 Z" id="Fee" fill="#2F313A" fill-rule="nonzero"></path>
    </g>
</svg>