<?xml version="1.0" encoding="UTF-8"?>
<svg width="40px" height="40px" viewBox="0 0 40 40" version="1.1" xmlns="http://www.w3.org/2000/svg" xmlns:xlink="http://www.w3.org/1999/xlink">
    <!-- Generator: Sketch 59.1 (86144) - https://sketch.com -->
    <title>Vector Files/40x40/Flattened/Payment/Fee 2</title>
    <desc>Created with Sketch.</desc>
    <g id="40x40/Flattened/Payment/Fee-2" stroke="none" stroke-width="1" fill="none" fill-rule="evenodd">
        <path d="M20.8838509,23.6745179 C22.0387495,23.5492282 22.6701602,22.9723991 22.6701602,22.1052948 C22.6701602,21.3126201 22.2732026,20.8251065 20.8838509,20.3921746 L20.8838509,23.6745179 Z M19.4597655,14.6921113 C18.3048669,14.8012746 17.7267974,15.414078 17.7267974,16.2079932 C17.7267974,16.9659342 18.0704138,17.4348403 19.4597655,17.8851391 L19.4597655,14.6921113 Z M20.95704,12.5100849 L20.95704,12.9070425 C22.0213826,13.0335727 22.9232207,13.3759487 23.7531102,13.8994365 C24.0409045,14.0607006 24.2927245,14.3323685 24.2927245,14.7653004 C24.2927245,15.3247625 23.8424257,15.7564539 23.2829636,15.7564539 C23.1030921,15.7564539 22.9232207,15.7031127 22.7421088,15.5939494 C22.1106981,15.2155992 21.4978948,14.9451718 20.8838509,14.8012746 L20.8838509,18.2647299 C23.6253395,18.9494818 24.797605,20.0497987 24.797605,21.9800051 C24.797605,23.9635527 23.2469893,25.2797153 20.95704,25.4968015 L20.95704,25.9719101 C20.95704,26.404842 20.6134236,26.747218 20.1804917,26.747218 C19.7475598,26.747218 19.3865764,26.404842 19.3865764,25.9719101 L19.3865764,25.4608272 C18.0344395,25.3169301 16.788985,24.8294165 15.6899086,24.0541086 C15.3822664,23.8556298 15.202395,23.5665951 15.202395,23.1882448 C15.202395,22.6287827 15.6353269,22.1958508 16.1947891,22.1958508 C16.4118753,22.1958508 16.627721,22.2677994 16.788985,22.3943296 C17.6374819,23.0071329 18.4673714,23.4226979 19.4597655,23.6025694 L19.4597655,20.0497987 C16.8261998,19.3638063 15.5993526,18.3726527 15.5993526,16.3345234 C15.5993526,14.404317 17.1326014,13.069547 19.3865764,12.8896756 L19.3865764,12.5100849 C19.3865764,12.077153 19.7475598,11.734777 20.1804917,11.734777 C20.6134236,11.734777 20.95704,12.077153 20.95704,12.5100849 Z M30,29.8385506 L31.7474233,27.8414954 C32.1111054,27.4258588 32.742868,27.3837413 33.1585046,27.7474233 C33.5741412,28.1111054 33.6162587,28.742868 33.2525767,29.1585046 L29.7525767,33.1585046 C29.3541654,33.6138318 28.6458346,33.6138318 28.2474233,33.1585046 L24.7474233,29.1585046 C24.3837413,28.742868 24.4258588,28.1111054 24.8414954,27.7474233 C25.257132,27.3837413 25.8888946,27.4258588 26.2525767,27.8414954 L28,29.8385506 L28,23.5 C28,22.9477153 28.4477153,22.5 29,22.5 C29.5522847,22.5 30,22.9477153 30,23.5 L30,29.8385506 Z M22.6623714,30.6757904 C23.1983497,30.5425776 23.7408364,30.8690835 23.8740492,31.4050618 C24.0072621,31.9410402 23.6807562,32.4835268 23.1447779,32.6167397 C22.1238597,32.8704802 21.0699942,33 20,33 C12.8201153,33 7,27.1798847 7,20 C7,12.8209163 12.8205142,7 20,7 C27.1786847,7 33,12.8213153 33,20 C33,20.5522847 32.5522847,21 32,21 C31.4477153,21 31,20.5522847 31,20 C31,13.9258847 26.0741153,9 20,9 C13.9251146,9 9,13.9254548 9,20 C9,26.0753153 13.9246847,31 20,31 C20.9070633,31 21.798943,30.8903882 22.6623714,30.6757904 Z" id="Fee" fill="#2F313A" fill-rule="nonzero"></path>
    </g>
</svg>