<?xml version="1.0" encoding="UTF-8"?>
<svg width="40px" height="40px" viewBox="0 0 40 40" version="1.1" xmlns="http://www.w3.org/2000/svg" xmlns:xlink="http://www.w3.org/1999/xlink">
    <!-- Generator: Sketch 59.1 (86144) - https://sketch.com -->
    <title>Vector Files/40x40/Flattened/Payment/Fee 2 (Filled)</title>
    <desc>Created with Sketch.</desc>
    <g id="40x40/Flattened/Payment/Fee-2-(Filled)" stroke="none" stroke-width="1" fill="none" fill-rule="evenodd">
        <path d="M31.3314616,26.3763419 C31.2124519,26.462153 31.1011115,26.5624708 31.0000137,26.6771239 L31.0000137,23 C31.0000137,22.4477153 30.7761561,21.9477153 30.4142273,21.5857864 C30.0522985,21.2238576 29.5522985,21 29.0000137,21 C28.447729,21 27.947729,21.2238576 27.5858001,21.5857864 C27.2238713,21.9477153 27.0000137,22.4477153 27.0000137,23 L27.0000137,26.6771239 C26.6367911,26.2652001 26.1413546,26.0383165 25.6330517,26.0044297 C25.1223407,25.9703823 24.5986411,26.1311646 24.1830045,26.4948466 C23.7673679,26.8585287 23.5384908,27.356251 23.5044434,27.866962 C23.470396,28.377673 23.6311783,28.9013726 23.9948603,29.3170092 L25.9560558,31.5583755 C24.171705,32.4797172 22.1466118,33 20,33 C12.8202983,33 7,27.1797017 7,20 C7,12.8202983 12.8202983,7 20,7 C27.1797017,7 33,12.8202983 33,20 C33,22.3169981 32.3938449,24.4924211 31.3314616,26.3763419 Z M20.8838509,23.6745179 L20.8838509,20.3921746 C22.2732026,20.8251065 22.6701602,21.3126201 22.6701602,22.1052948 C22.6701602,22.9723991 22.0387495,23.5492282 20.8838509,23.6745179 Z M19.4597655,14.6921113 L19.4597655,17.8851391 C18.0704138,17.4348403 17.7267974,16.9659342 17.7267974,16.2079932 C17.7267974,15.414078 18.3048669,14.8012746 19.4597655,14.6921113 Z M20.95704,12.5100849 C20.95704,12.077153 20.6134236,11.734777 20.1804917,11.734777 C19.7475598,11.734777 19.3865764,12.077153 19.3865764,12.5100849 L19.3865764,12.8896756 C17.1326014,13.069547 15.5993526,14.404317 15.5993526,16.3345234 C15.5993526,18.3726527 16.8261998,19.3638063 19.4597655,20.0497987 L19.4597655,23.6025694 C18.4673714,23.4226979 17.6374819,23.0071329 16.788985,22.3943296 C16.627721,22.2677994 16.4118753,22.1958508 16.1947891,22.1958508 C15.6353269,22.1958508 15.202395,22.6287827 15.202395,23.1882448 C15.202395,23.5665951 15.3822664,23.8556298 15.6899086,24.0541086 C16.788985,24.8294165 18.0344395,25.3169301 19.3865764,25.4608272 L19.3865764,25.9719101 C19.3865764,26.404842 19.7475598,26.747218 20.1804917,26.747218 C20.6134236,26.747218 20.95704,26.404842 20.95704,25.9719101 L20.95704,25.4968015 C23.2469893,25.2797153 24.797605,23.9635527 24.797605,21.9800051 C24.797605,20.0497987 23.6253395,18.9494818 20.8838509,18.2647299 L20.8838509,14.8012746 C21.4978948,14.9451718 22.1106981,15.2155992 22.7421088,15.5939494 C22.9232207,15.7031127 23.1030921,15.7564539 23.2829636,15.7564539 C23.8424257,15.7564539 24.2927245,15.3247625 24.2927245,14.7653004 C24.2927245,14.3323685 24.0409045,14.0607006 23.7531102,13.8994365 C22.9232207,13.3759487 22.0213826,13.0335727 20.95704,12.9070425 L20.95704,12.5100849 Z M30.0000137,29.3385506 L31.747437,27.3414954 C32.1111191,26.9258588 32.7428817,26.8837413 33.1585183,27.2474233 C33.5741549,27.6111054 33.6162724,28.242868 33.2525904,28.6585046 L29.7525904,32.6585046 C29.3541791,33.1138318 28.6458483,33.1138318 28.247437,32.6585046 L24.747437,28.6585046 C24.383755,28.242868 24.4258725,27.6111054 24.8415091,27.2474233 C25.2571457,26.8837413 25.8889083,26.9258588 26.2525904,27.3414954 L28.0000137,29.3385506 L28.0000137,23 C28.0000137,22.4477153 28.447729,22 29.0000137,22 C29.5522985,22 30.0000137,22.4477153 30.0000137,23 L30.0000137,29.3385506 Z" id="Fee-(Filled)" fill="#2F313A" fill-rule="nonzero"></path>
    </g>
</svg>