<?xml version="1.0" encoding="UTF-8"?>
<svg width="40px" height="40px" viewBox="0 0 40 40" version="1.1" xmlns="http://www.w3.org/2000/svg" xmlns:xlink="http://www.w3.org/1999/xlink">
    <!-- Generator: Sketch 59.1 (86144) - https://sketch.com -->
    <title>Vector Files/40x40/Flattened/Payment/General Payment</title>
    <desc>Created with Sketch.</desc>
    <g id="40x40/Flattened/Payment/General-Payment" stroke="none" stroke-width="1" fill="none" fill-rule="evenodd">
        <path d="M20,7 C27.1797017,7 33,12.8202983 33,20 C33,27.1797017 27.1797017,33 20,33 C12.8202983,33 7,27.1797017 7,20 C7,12.8202983 12.8202983,7 20,7 Z M20,9 C13.9248678,9 9,13.9248678 9,20 C9,26.0751322 13.9248678,31 20,31 C26.0751322,31 31,26.0751322 31,20 C31,13.9248678 26.0751322,9 20,9 Z M20.0780966,12.5 C20.5110285,12.5 20.854645,12.8423759 20.854645,13.2753079 L20.854645,13.6722655 C21.9189876,13.7987957 22.8208257,14.1411717 23.6507152,14.6646595 C23.9385095,14.8259236 24.1903295,15.0975914 24.1903295,15.5305233 C24.1903295,16.0899855 23.7400307,16.5216769 23.1805685,16.5216769 C23.0006971,16.5216769 22.8208257,16.4683357 22.6397138,16.3591724 C22.0083031,15.9808221 21.3954997,15.7103947 20.7814559,15.5664976 L20.7814559,19.0299528 C23.5229445,19.7147047 24.69521,20.8150216 24.69521,22.7452281 C24.69521,24.7287757 23.1445943,26.0449383 20.854645,26.2620245 L20.854645,26.7371331 C20.854645,27.170065 20.5110285,27.512441 20.0780966,27.512441 C19.6451647,27.512441 19.2841814,27.170065 19.2841814,26.7371331 L19.2841814,26.2260502 C17.9320445,26.082153 16.68659,25.5946395 15.5875136,24.8193316 C15.2798714,24.6208528 15.1,24.331818 15.1,23.9534678 C15.1,23.3940057 15.5329319,22.9610738 16.092394,22.9610738 C16.3094802,22.9610738 16.525326,23.0330223 16.68659,23.1595526 C17.5350869,23.7723559 18.3649764,24.1879209 19.3573705,24.3677923 L19.3573705,20.8150216 C16.7238048,20.1290292 15.4969576,19.1378757 15.4969576,17.0997464 C15.4969576,15.16954 17.0302064,13.83477 19.2841814,13.6548986 L19.2841814,13.2753079 C19.2841814,12.8423759 19.6451647,12.5 20.0780966,12.5 Z M20.7814559,21.1573976 L20.7814559,24.4397409 C21.9363545,24.3144511 22.5677652,23.7376221 22.5677652,22.8705178 C22.5677652,22.0778431 22.1708076,21.5903295 20.7814559,21.1573976 Z M19.3573705,15.4573343 C18.2024719,15.5664976 17.6244024,16.1793009 17.6244024,16.9732162 C17.6244024,17.7311571 17.9680188,18.2000633 19.3573705,18.6503621 L19.3573705,15.4573343 Z" id="General-Payment" fill="#2F313A" fill-rule="nonzero"></path>
    </g>
</svg>