<?xml version="1.0" encoding="UTF-8"?>
<svg width="40px" height="40px" viewBox="0 0 40 40" version="1.1" xmlns="http://www.w3.org/2000/svg" xmlns:xlink="http://www.w3.org/1999/xlink">
    <!-- Generator: Sketch 59.1 (86144) - https://sketch.com -->
    <title>Vector Files/40x40/Flattened/Payment/General Payment (Filled)</title>
    <desc>Created with Sketch.</desc>
    <g id="40x40/Flattened/Payment/General-Payment-(Filled)" stroke="none" stroke-width="1" fill="none" fill-rule="evenodd">
        <path d="M20,7 C27.1797017,7 33,12.8202983 33,20 C33,27.1797017 27.1797017,33 20,33 C12.8202983,33 7,27.1797017 7,20 C7,12.8202983 12.8202983,7 20,7 Z M20.0780966,12.5 L20.028,12.503 L19.9780966,12.5 C19.5812424,12.5 19.2448449,12.7876909 19.1915346,13.1691072 L19.1841814,13.2753079 L19.1841814,13.6548986 C16.9302064,13.83477 15.3969576,15.16954 15.3969576,17.0997464 C15.3969576,19.1378757 16.6238048,20.1290292 19.2573705,20.8150216 L19.2573705,20.8150216 L19.257,24.346 L19.0323427,24.2991585 C18.1803268,24.0931381 17.4408095,23.7042666 16.68659,23.1595526 C16.525326,23.0330223 16.3094802,22.9610738 16.092394,22.9610738 L16.037,22.964 L15.992394,22.9610738 C15.4728935,22.9610738 15.062493,23.3343671 15.0065148,23.8356314 L15,23.9534678 C15,24.331818 15.1798714,24.6208528 15.4875136,24.8193316 C16.58659,25.5946395 17.8320445,26.082153 19.1841814,26.2260502 L19.1841814,26.2260502 L19.1841814,26.7371331 C19.1841814,27.170065 19.5451647,27.512441 19.9780966,27.512441 C19.9951144,27.512441 20.0119942,27.5119119 20.0287205,27.5108692 C20.0444883,27.5119218 20.0612379,27.512441 20.0780966,27.512441 C20.4749509,27.512441 20.7967553,27.2247501 20.8476335,26.8433338 L20.854645,26.7371331 L20.854645,26.2620245 C23.1445943,26.0449383 24.69521,24.7287757 24.69521,22.7452281 C24.69521,20.8793618 23.599793,19.7889813 21.0503887,19.0998286 L20.7814559,19.0299528 L20.7815096,15.5910633 C21.3621275,15.7400915 21.9426002,16.0013735 22.5397138,16.3591724 C22.7208257,16.4683357 22.9006971,16.5216769 23.0805685,16.5216769 C23.0981787,16.5216769 23.1156808,16.5212492 23.133064,16.5204032 C23.1485914,16.5212554 23.16458,16.5216769 23.1805685,16.5216769 C23.7400307,16.5216769 24.1903295,16.0899855 24.1903295,15.5305233 C24.1903295,15.0975914 23.9385095,14.8259236 23.6507152,14.6646595 C22.9130356,14.199337 22.1185078,13.8771152 21.2035314,13.7223889 L20.854645,13.6722655 L20.854645,13.2753079 C20.854645,12.8423759 20.5110285,12.5 20.0780966,12.5 Z M20.7833058,21.1898111 C22.0903111,21.6147727 22.4677652,22.0975613 22.4677652,22.8705178 C22.4677652,23.7376221 21.8363545,24.3144511 20.6814559,24.4397409 L20.781,24.426 Z M19.2559657,15.4683887 L19.257,18.616 L19.156723,18.5826439 C17.9345162,18.1524501 17.6244024,17.6932601 17.6244024,16.9732162 C17.6244024,16.2028872 18.1686345,15.6030688 19.2559657,15.4683887 Z" id="General-Payment-(Filled)" fill="#2F313A" fill-rule="nonzero"></path>
    </g>
</svg>