<?xml version="1.0" encoding="UTF-8"?>
<svg width="40px" height="40px" viewBox="0 0 40 40" version="1.1" xmlns="http://www.w3.org/2000/svg" xmlns:xlink="http://www.w3.org/1999/xlink">
    <!-- Generator: Sketch 59.1 (86144) - https://sketch.com -->
    <title>Vector Files/40x40/Flattened/Payment/Pay on Pickup 1 (Filled)</title>
    <desc>Created with Sketch.</desc>
    <g id="40x40/Flattened/Payment/Pay-on-Pickup-1-(Filled)" stroke="none" stroke-width="1" fill="none" fill-rule="evenodd">
        <path d="M31,20.9584489 L31,27.08 C31,28.6932847 29.6932847,30 28.08,30 L7.921,30 C6.30768534,30 5,28.6932551 5,27.08 L5,12.921 C5,11.3077153 6.30771525,10 7.921,10 L24.1860661,10 C24.0644777,10.4741668 24,10.979279 24,11.509 C24,14.1636886 24.900369,16.6478489 26.3911712,18.8952777 C26.908245,19.6747818 27.4618134,20.3707425 28.0168599,20.9759416 C28.3547425,21.3443544 28.6231909,21.6050622 28.7876237,21.7500543 C28.9702916,21.9111255 29.2054605,22 29.449,22 L29.552,22 C29.7955779,22 30.0307812,21.9110975 30.2134599,21.7499805 C30.3778592,21.6049854 30.6462504,21.3442746 30.9840595,20.9758591 C30.9893732,20.970064 30.9946867,20.9642606 31,20.9584489 L31,20.9584489 Z M18.7124,20.7755 C19.8324,21.1245 20.1524,21.5175 20.1524,22.1565 C20.1524,22.8545 19.6434,23.3195 18.7124,23.4215 L18.7124,20.7755 Z M17.5644,18.7545 C16.4444,18.3915 16.1674,18.0125 16.1674,17.4025 C16.1674,16.7625 16.6334,16.2685 17.5644,16.1805 L17.5644,18.7545 Z M18.1454,13.7965 C17.7964,13.7965 17.5054,14.0725 17.5054,14.4215 L17.5054,14.7265 C15.6884,14.8725 14.4524,15.9485 14.4524,17.5045 C14.4524,19.1475 15.4414,19.9465 17.5644,20.4995 L17.5644,23.3635 C16.7644,23.2185 16.0954,22.8835 15.4114,22.3895 C15.2804,22.2875 15.1074,22.2295 14.9324,22.2295 C14.4814,22.2295 14.1324,22.5785 14.1324,23.0295 C14.1324,23.3345 14.2774,23.5675 14.5254,23.7275 C15.4114,24.3525 16.4154,24.7455 17.5054,24.8615 L17.5054,25.2735 C17.5054,25.6225 17.7964,25.8985 18.1454,25.8985 C18.4944,25.8985 18.7714,25.6225 18.7714,25.2735 L18.7714,24.8905 C20.6174,24.7155 21.8674,23.6545 21.8674,22.0555 C21.8674,20.4995 20.9224,19.6125 18.7124,19.0595 L18.7124,16.2685 C19.2074,16.3845 19.7014,16.6025 20.2104,16.9075 C20.3564,16.9955 20.5014,17.0385 20.6464,17.0385 C21.0974,17.0385 21.4604,16.6905 21.4604,16.2385 C21.4604,15.8905 21.2574,15.6715 21.0254,15.5415 C20.3564,15.1195 19.6294,14.8435 18.7714,14.7415 L18.7714,14.4215 C18.7714,14.0725 18.4944,13.7965 18.1454,13.7965 Z M29.5099405,19.6242034 L29.500423,19.6345737 L29.4908276,19.6241209 C29.0031398,19.0923669 28.5139738,18.4773745 28.0578288,17.7897223 C26.768006,15.8452761 26,13.7263114 26,11.509 C26,9.41957781 27.4541191,8 29.449,8 L29.552,8 C31.546926,8 33.0007653,9.41952505 33,11.5086337 C33,13.7263556 32.2321568,15.8453474 30.942614,17.7898086 C30.4865717,18.4774605 29.9975168,19.0924514 29.5099405,19.6242034 Z M31,11.5 C31,10.672 30.3288571,10 29.5,10 C28.672,10 28,10.672 28,11.5 C28,12.328 28.672,13 29.5,13 C30.3288571,13 31,12.328 31,11.5 Z" id="Pay-on-Pickup-(Filled)" fill="#2F313A" fill-rule="nonzero"></path>
    </g>
</svg>