<?xml version="1.0" encoding="UTF-8"?>
<svg width="40px" height="40px" viewBox="0 0 40 40" version="1.1" xmlns="http://www.w3.org/2000/svg" xmlns:xlink="http://www.w3.org/1999/xlink">
    <!-- Generator: Sketch 59.1 (86144) - https://sketch.com -->
    <title>Vector Files/40x40/Flattened/Payment/Pay on Delivery 1</title>
    <desc>Created with Sketch.</desc>
    <g id="40x40/Flattened/Payment/Pay-on-Delivery-1" stroke="none" stroke-width="1" fill="none" fill-rule="evenodd">
        <path d="M20.9990709,8.9998 C20.9996882,9.01422297 21,9.02872507 21,9.0433 L21,16.0183 L25.5005,16.0183 L25.5005,11.5765 C25.5005,11.3003576 25.7243576,11.0765 26.0005,11.0765 C26.2766424,11.0765 26.5005,11.3003576 26.5005,11.5765 L26.5005,16.0183 L31,16.0183 L31,9.0433 C31,9.02872507 31.0003118,9.01422297 31.0009291,8.9998 L20.9990709,8.9998 L20.9990709,8.9998 Z M19.0009291,8.9998 L17.9731,8.9998 C17.4208153,8.9998 16.9731,8.55208475 16.9731,7.9998 C16.9731,7.44751525 17.4208153,6.9998 17.9731,6.9998 L33.9731,6.9998 C34.5253847,6.9998 34.9731,7.44751525 34.9731,7.9998 C34.9731,8.55208475 34.5253847,8.9998 33.9731,8.9998 L32.9990709,8.9998 C32.9996882,9.01422297 33,9.02872507 33,9.0433 L33,17.0183 C33,17.5705847 32.5522847,18.0183 32,18.0183 L31,18.0183 L31,27.08 C31,28.6925199 29.6920496,30 28.079,30 L7.92,30 C6.30698002,30 5,28.6925497 5,27.08 L5,12.92 C5,11.3074503 6.30698002,10 7.92,10 L19,10 L19,9.0433 C19,9.02872507 19.0003118,9.01422297 19.0009291,8.9998 Z M19,12 L7.92,12 C7.41171063,12 7,12.4118588 7,12.92 L7,27.08 C7,27.5881412 7.41171063,28 7.92,28 L28.079,28 C28.5876411,28 29,27.5877893 29,27.08 L29,18.0183 L20,18.0183 C19.4477153,18.0183 19,17.5705847 19,17.0183 L19,12 Z M14.7124,20.9021 L14.7124,23.5481 C15.6434,23.4471 16.1524,22.9821 16.1524,22.2831 C16.1524,21.6441 15.8324,21.2511 14.7124,20.9021 Z M13.5644,18.8811 L13.5644,16.3071 C12.6334,16.3951 12.1674,16.8891 12.1674,17.5291 C12.1674,18.1401 12.4444,18.5181 13.5644,18.8811 Z M14.1454,13.9231 C14.4944,13.9231 14.7714,14.1991 14.7714,14.5481 L14.7714,14.8681 C15.6294,14.9701 16.3564,15.2461 17.0254,15.6681 C17.2574,15.7981 17.4604,16.0171 17.4604,16.3661 C17.4604,16.8171 17.0974,17.1651 16.6464,17.1651 C16.5014,17.1651 16.3564,17.1221 16.2104,17.0341 C15.7014,16.7291 15.2074,16.5111 14.7124,16.3951 L14.7124,19.1871 C16.9224,19.7391 17.8674,20.6261 17.8674,22.1821 C17.8674,23.7811 16.6174,24.8421 14.7714,25.0171 L14.7714,25.4001 C14.7714,25.7491 14.4944,26.0251 14.1454,26.0251 C13.7964,26.0251 13.5054,25.7491 13.5054,25.4001 L13.5054,24.9881 C12.4154,24.8721 11.4114,24.4791 10.5254,23.8541 C10.2774,23.6941 10.1324,23.4611 10.1324,23.1561 C10.1324,22.7051 10.4814,22.3561 10.9324,22.3561 C11.1074,22.3561 11.2814,22.4141 11.4114,22.5161 C12.0954,23.0101 12.7644,23.3451 13.5644,23.4901 L13.5644,20.6261 C11.4414,20.0731 10.4524,19.2741 10.4524,17.6311 C10.4524,16.0751 11.6884,14.9991 13.5054,14.8541 L13.5054,14.5481 C13.5054,14.1991 13.7964,13.9231 14.1454,13.9231 Z" id="Pay-on-Delivery" fill="#2F313A" fill-rule="nonzero"></path>
    </g>
</svg>