<?xml version="1.0" encoding="UTF-8"?>
<svg width="40px" height="40px" viewBox="0 0 40 40" version="1.1" xmlns="http://www.w3.org/2000/svg" xmlns:xlink="http://www.w3.org/1999/xlink">
    <!-- Generator: Sketch 59.1 (86144) - https://sketch.com -->
    <title>Vector Files/40x40/Flattened/Payment/Pay on Pickup 2 (Filled)</title>
    <desc>Created with Sketch.</desc>
    <g id="40x40/Flattened/Payment/Pay-on-Pickup-2-(Filled)" stroke="none" stroke-width="1" fill="none" fill-rule="evenodd">
        <path d="M32.7916876,22.3305042 C31.914044,21.6435812 30.7959304,21.25 29.5519998,21.25 L29.4489998,21.25 C26.494788,21.25 24.25,23.4699258 24.25,26.5675584 C24.25,28.4992375 24.727147,30.2290828 25.5631692,31.7528907 C23.8766527,32.5526073 21.9905734,33 20,33 C12.8202983,33 7,27.1797017 7,20 C7,12.8202983 12.8202983,7 20,7 C27.1797017,7 33,12.8202983 33,20 C33,20.7955481 32.9285396,21.5744058 32.7916876,22.3305042 L32.7916876,22.3305042 Z M20.8838509,23.6745179 L20.8838509,20.3921746 C22.2732026,20.8251065 22.6701602,21.3126201 22.6701602,22.1052948 C22.6701602,22.9723991 22.0387495,23.5492282 20.8838509,23.6745179 Z M19.4597655,14.6921113 L19.4597655,17.8851391 C18.0704138,17.4348403 17.7267974,16.9659342 17.7267974,16.2079932 C17.7267974,15.414078 18.3048669,14.8012746 19.4597655,14.6921113 Z M20.95704,12.5100849 C20.95704,12.077153 20.6134236,11.734777 20.1804917,11.734777 C19.7475598,11.734777 19.3865764,12.077153 19.3865764,12.5100849 L19.3865764,12.8896756 C17.1326014,13.069547 15.5993526,14.404317 15.5993526,16.3345234 C15.5993526,18.3726527 16.8261998,19.3638063 19.4597655,20.0497987 L19.4597655,23.6025694 C18.4673714,23.4226979 17.6374819,23.0071329 16.788985,22.3943296 C16.627721,22.2677994 16.4118753,22.1958508 16.1947891,22.1958508 C15.6353269,22.1958508 15.202395,22.6287827 15.202395,23.1882448 C15.202395,23.5665951 15.3822664,23.8556298 15.6899086,24.0541086 C16.788985,24.8294165 18.0344395,25.3169301 19.3865764,25.4608272 L19.3865764,25.9719101 C19.3865764,26.404842 19.7475598,26.747218 20.1804917,26.747218 C20.6134236,26.747218 20.95704,26.404842 20.95704,25.9719101 L20.95704,25.4968015 C23.2469893,25.2797153 24.797605,23.9635527 24.797605,21.9800051 C24.797605,20.0497987 23.6253395,18.9494818 20.8838509,18.2647299 L20.8838509,14.8012746 C21.4978948,14.9451718 22.1106981,15.2155992 22.7421088,15.5939494 C22.9232207,15.7031127 23.1030921,15.7564539 23.2829636,15.7564539 C23.8424257,15.7564539 24.2927245,15.3247625 24.2927245,14.7653004 C24.2927245,14.3323685 24.0409045,14.0607006 23.7531102,13.8994365 C22.9232207,13.3759487 22.0213826,13.0335727 20.95704,12.9070425 L20.95704,12.5100849 Z M29.7649192,33.901058 C29.6683274,33.9821052 29.5797197,34.0534647 29.5004539,34.1151091 C29.4211522,34.0534521 29.3325014,33.9820748 29.2358606,33.9010047 C28.7516102,33.4947762 28.2656792,33.0049979 27.8122314,32.4329866 C26.521125,30.8042929 25.75,28.8539311 25.75,26.5675584 C25.75,24.3021156 27.3194986,22.75 29.4489998,22.75 L29.5519998,22.75 C31.6815711,22.75 33.2508188,24.3021085 33.25,26.5672872 C33.25,28.8539663 32.4790394,30.8043496 31.1882172,32.4330509 C30.7348737,33.0050594 30.2490557,33.4948337 29.7649192,33.901058 Z M31,26.5 C31,25.672 30.3288571,25 29.5,25 C28.672,25 28,25.672 28,26.5 C28,27.328 28.672,28 29.5,28 C30.3288571,28 31,27.328 31,26.5 Z" id="Pay-on-Pickup-(Filled)" fill="#2F313A" fill-rule="nonzero"></path>
    </g>
</svg>