<?xml version="1.0" encoding="UTF-8"?>
<svg width="40px" height="40px" viewBox="0 0 40 40" version="1.1" xmlns="http://www.w3.org/2000/svg" xmlns:xlink="http://www.w3.org/1999/xlink">
    <!-- Generator: Sketch 59.1 (86144) - https://sketch.com -->
    <title>Vector Files/40x40/Flattened/Payment/Pay on Delivery 2 (Filled)</title>
    <desc>Created with Sketch.</desc>
    <g id="40x40/Flattened/Payment/Pay-on-Delivery-2-(Filled)" stroke="none" stroke-width="1" fill="none" fill-rule="evenodd">
        <path d="M32.6477995,23.0183 L27,23.0183 C26.4477153,23.0183 25.9477153,23.2421576 25.5857864,23.6040864 C25.2238576,23.9660153 25,24.4660153 25,25.0183 L25,32.0036733 C23.4608158,32.6455437 21.7718018,33 20,33 C12.8202983,33 7,27.1797017 7,20 C7,12.8202983 12.8202983,7 20,7 C27.1797017,7 33,12.8202983 33,20 C33,21.0390805 32.8780924,22.0496879 32.6477995,23.0183 L32.6477995,23.0183 Z M20.8838509,23.6745179 L20.8838509,20.3921746 C22.2732026,20.8251065 22.6701602,21.3126201 22.6701602,22.1052948 C22.6701602,22.9723991 22.0387495,23.5492282 20.8838509,23.6745179 Z M19.4597655,14.6921113 L19.4597655,17.8851391 C18.0704138,17.4348403 17.7267974,16.9659342 17.7267974,16.2079932 C17.7267974,15.414078 18.3048669,14.8012746 19.4597655,14.6921113 Z M20.95704,12.5100849 C20.95704,12.077153 20.6134236,11.734777 20.1804917,11.734777 C19.7475598,11.734777 19.3865764,12.077153 19.3865764,12.5100849 L19.3865764,12.8896756 C17.1326014,13.069547 15.5993526,14.404317 15.5993526,16.3345234 C15.5993526,18.3726527 16.8261998,19.3638063 19.4597655,20.0497987 L19.4597655,23.6025694 C18.4673714,23.4226979 17.6374819,23.0071329 16.788985,22.3943296 C16.627721,22.2677994 16.4118753,22.1958508 16.1947891,22.1958508 C15.6353269,22.1958508 15.202395,22.6287827 15.202395,23.1882448 C15.202395,23.5665951 15.3822664,23.8556298 15.6899086,24.0541086 C16.788985,24.8294165 18.0344395,25.3169301 19.3865764,25.4608272 L19.3865764,25.9719101 C19.3865764,26.404842 19.7475598,26.747218 20.1804917,26.747218 C20.6134236,26.747218 20.95704,26.404842 20.95704,25.9719101 L20.95704,25.4968015 C23.2469893,25.2797153 24.797605,23.9635527 24.797605,21.9800051 C24.797605,20.0497987 23.6253395,18.9494818 20.8838509,18.2647299 L20.8838509,14.8012746 C21.4978948,14.9451718 22.1106981,15.2155992 22.7421088,15.5939494 C22.9232207,15.7031127 23.1030921,15.7564539 23.2829636,15.7564539 C23.8424257,15.7564539 24.2927245,15.3247625 24.2927245,14.7653004 C24.2927245,14.3323685 24.0409045,14.0607006 23.7531102,13.8994365 C22.9232207,13.3759487 22.0213826,13.0335727 20.95704,12.9070425 L20.95704,12.5100849 Z M30.9996713,33.0183 C30.9998898,33.012227 31,33.0061264 31,33 L31,27 C31,26.7238576 30.7761424,26.5 30.5,26.5 C30.2238576,26.5 30,26.7238576 30,27 L30,33 C30,33.0061264 30.0001102,33.012227 30.0003287,33.0183 L27,33.0183 C26.4477153,33.0183 26,32.5705847 26,32.0183 L26,25.0183 C26,24.4660153 26.4477153,24.0183 27,24.0183 L37,24.0183 C37.5522847,24.0183 38,24.4660153 38,25.0183 L38,32.0183 C38,32.5705847 37.5522847,33.0183 37,33.0183 L30.9996713,33.0183 Z M33,28 L35.4440918,28 C35.7202342,28 35.9440918,27.7761424 35.9440918,27.5 C35.9440918,27.2238576 35.7202342,27 35.4440918,27 L33,27 C32.7238576,27 32.5,27.2238576 32.5,27.5 C32.5,27.7761424 32.7238576,28 33,28 Z" id="Pay-on-Delivery-(Filled)" fill="#2F313A" fill-rule="nonzero"></path>
    </g>
</svg>