<?xml version="1.0" encoding="UTF-8"?>
<svg width="40px" height="40px" viewBox="0 0 40 40" version="1.1" xmlns="http://www.w3.org/2000/svg" xmlns:xlink="http://www.w3.org/1999/xlink">
    <!-- Generator: Sketch 59.1 (86144) - https://sketch.com -->
    <title>Vector Files/40x40/Flattened/Payment/Pay on Pickup 1</title>
    <desc>Created with Sketch.</desc>
    <g id="40x40/Flattened/Payment/Pay-on-Pickup-1" stroke="none" stroke-width="1" fill="none" fill-rule="evenodd">
        <path d="M29,21.4800122 C28.8629322,21.3446955 28.6998015,21.1762766 28.5161599,20.9760416 C27.9611134,20.3708425 27.407545,19.6748818 26.8904712,18.8953777 C25.4919308,16.7870364 24.6130043,14.4703582 24.5095719,12 L7.921,12 C7.41228475,12 7,12.4122847 7,12.921 L7,27.08 C7,27.5883634 7.41193287,28 7.921,28 L28.08,28 C28.5887153,28 29,27.5887153 29,27.08 L29,21.4800122 L29,21.4800122 Z M24.6853917,10 C25.2994644,7.60543806 27.370041,6.0001 29.9483,6.0001 L30.0513,6.0001 C33.1403701,6.0001 35.5004739,8.30449946 35.4993004,11.5091 C35.4993004,14.1637444 34.5991432,16.6478776 33.108686,18.8952914 C32.5917283,19.6747957 32.0382832,20.3707579 31.4833595,20.9759591 C31.2999259,21.1760122 31.1369608,21.3443076 31,21.4795627 L31,27.08 C31,28.6932847 29.6932847,30 28.08,30 L7.921,30 C6.30768534,30 5,28.6932551 5,27.08 L5,12.921 C5,11.3077153 6.30771525,10 7.921,10 L24.6853917,10 Z M30.0092405,19.6243034 C30.4968168,19.0925514 30.9858717,18.4775605 31.441914,17.7899086 C32.7314568,15.8454474 33.4993,13.7264556 33.4993,11.5087337 C33.5000653,9.41962505 32.046226,8.0001 30.0513,8.0001 L29.9483,8.0001 C27.9534191,8.0001 26.4993,9.41967781 26.4993,11.5091 C26.4993,13.7264114 27.267306,15.8453761 28.5571288,17.7898223 C29.0132738,18.4774745 29.5024398,19.0924669 29.9901276,19.6242209 L29.999723,19.6346737 L30.0092405,19.6243034 Z M31.7495,11.6666 C31.7495,12.6326 30.9665,13.4166 29.9995,13.4166 C29.0335,13.4166 28.2495,12.6326 28.2495,11.6666 C28.2495,10.7006 29.0335,9.9166 29.9995,9.9166 C30.9665,9.9166 31.7495,10.7006 31.7495,11.6666 Z M18.7124,20.7755 L18.7124,23.4215 C19.6434,23.3195 20.1524,22.8545 20.1524,22.1565 C20.1524,21.5175 19.8324,21.1245 18.7124,20.7755 Z M17.5644,18.7545 L17.5644,16.1805 C16.6334,16.2685 16.1674,16.7625 16.1674,17.4025 C16.1674,18.0125 16.4444,18.3915 17.5644,18.7545 Z M18.1454,13.7965 C18.4944,13.7965 18.7714,14.0725 18.7714,14.4215 L18.7714,14.7415 C19.6294,14.8435 20.3564,15.1195 21.0254,15.5415 C21.2574,15.6715 21.4604,15.8905 21.4604,16.2385 C21.4604,16.6905 21.0974,17.0385 20.6464,17.0385 C20.5014,17.0385 20.3564,16.9955 20.2104,16.9075 C19.7014,16.6025 19.2074,16.3845 18.7124,16.2685 L18.7124,19.0595 C20.9224,19.6125 21.8674,20.4995 21.8674,22.0555 C21.8674,23.6545 20.6174,24.7155 18.7714,24.8905 L18.7714,25.2735 C18.7714,25.6225 18.4944,25.8985 18.1454,25.8985 C17.7964,25.8985 17.5054,25.6225 17.5054,25.2735 L17.5054,24.8615 C16.4154,24.7455 15.4114,24.3525 14.5254,23.7275 C14.2774,23.5675 14.1324,23.3345 14.1324,23.0295 C14.1324,22.5785 14.4814,22.2295 14.9324,22.2295 C15.1074,22.2295 15.2804,22.2875 15.4114,22.3895 C16.0954,22.8835 16.7644,23.2185 17.5644,23.3635 L17.5644,20.4995 C15.4414,19.9465 14.4524,19.1475 14.4524,17.5045 C14.4524,15.9485 15.6884,14.8725 17.5054,14.7265 L17.5054,14.4215 C17.5054,14.0725 17.7964,13.7965 18.1454,13.7965 Z" id="Pay-on-Pickup" fill="#2F313A" fill-rule="nonzero"></path>
    </g>
</svg>