<?xml version="1.0" encoding="UTF-8"?>
<svg width="40px" height="40px" viewBox="0 0 40 40" version="1.1" xmlns="http://www.w3.org/2000/svg" xmlns:xlink="http://www.w3.org/1999/xlink">
    <!-- Generator: Sketch 59.1 (86144) - https://sketch.com -->
    <title>Vector Files/40x40/Flattened/Payment/Pay on Delivery 1 (Filled)</title>
    <desc>Created with Sketch.</desc>
    <g id="40x40/Flattened/Payment/Pay-on-Delivery-1-(Filled)" stroke="none" stroke-width="1" fill="none" fill-rule="evenodd">
        <path d="M26.9951387,16 C26.9983432,15.9771265 27,15.9537567 27,15.93 L27,11 C27,10.7238576 26.7761424,10.5 26.5,10.5 C26.2238576,10.5 26,10.7238576 26,11 L26,15.93 C26,15.9537567 26.0016568,15.9771265 26.0048613,16 L22,16 C21.4477153,16 21,15.5522847 21,15 L21,9 L32,9 L32,15 C32,15.5522847 31.5522847,16 31,16 L26.9951387,16 L26.9951387,16 Z M19,10 L19,14.975 C19,16.6318542 20.3431458,17.975 22,17.975 L30.9995329,17.975 L31,27.0799487 C31,28.6925199 29.6920496,30 28.079,30 L7.92,30 C6.30698002,30 5,28.6925497 5,27.08 L5,12.92 C5,11.3074503 6.30698002,10 7.92,10 L19,10 Z M19.9731,8.9998 C19.4208153,8.9998 18.9731,8.55208475 18.9731,7.9998 C18.9731,7.44751525 19.4208153,6.9998 19.9731,6.9998 L32.9731,6.9998 C33.5253847,6.9998 33.9731,7.44751525 33.9731,7.9998 C33.9731,8.55208475 33.5253847,8.9998 32.9731,8.9998 L19.9731,8.9998 Z M14.7124,20.9021 C15.8324,21.2511 16.1524,21.6441 16.1524,22.2831 C16.1524,22.9821 15.6434,23.4471 14.7124,23.5481 L14.7124,20.9021 Z M13.5644,18.8811 C12.4444,18.5181 12.1674,18.1401 12.1674,17.5291 C12.1674,16.8891 12.6334,16.3951 13.5644,16.3071 L13.5644,18.8811 Z M14.1454,13.9231 C13.7964,13.9231 13.5054,14.1991 13.5054,14.5481 L13.5054,14.8541 C11.6884,14.9991 10.4524,16.0751 10.4524,17.6311 C10.4524,19.2741 11.4414,20.0731 13.5644,20.6261 L13.5644,23.4901 C12.7644,23.3451 12.0954,23.0101 11.4114,22.5161 C11.2814,22.4141 11.1074,22.3561 10.9324,22.3561 C10.4814,22.3561 10.1324,22.7051 10.1324,23.1561 C10.1324,23.4611 10.2774,23.6941 10.5254,23.8541 C11.4114,24.4791 12.4154,24.8721 13.5054,24.9881 L13.5054,25.4001 C13.5054,25.7491 13.7964,26.0251 14.1454,26.0251 C14.4944,26.0251 14.7714,25.7491 14.7714,25.4001 L14.7714,25.0171 C16.6174,24.8421 17.8674,23.7811 17.8674,22.1821 C17.8674,20.6261 16.9224,19.7391 14.7124,19.1871 L14.7124,16.3951 C15.2074,16.5111 15.7014,16.7291 16.2104,17.0341 C16.3564,17.1221 16.5014,17.1651 16.6464,17.1651 C17.0974,17.1651 17.4604,16.8171 17.4604,16.3661 C17.4604,16.0171 17.2574,15.7981 17.0254,15.6681 C16.3564,15.2461 15.6294,14.9701 14.7714,14.8681 L14.7714,14.5481 C14.7714,14.1991 14.4944,13.9231 14.1454,13.9231 Z" id="Pay-on-Delivery-(Filled)" fill="#2F313A" fill-rule="nonzero"></path>
    </g>
</svg>