<?xml version="1.0" encoding="UTF-8"?>
<svg width="40px" height="40px" viewBox="0 0 40 40" version="1.1" xmlns="http://www.w3.org/2000/svg" xmlns:xlink="http://www.w3.org/1999/xlink">
    <!-- Generator: Sketch 59.1 (86144) - https://sketch.com -->
    <title>Vector Files/40x40/Flattened/Payment/Refund</title>
    <desc>Created with Sketch.</desc>
    <g id="40x40/Flattened/Payment/Refund" stroke="none" stroke-width="1" fill="none" fill-rule="evenodd">
        <path d="M23.9720136,10 L30.0788,10 C31.6918496,10 32.9998,11.3074801 32.9998,12.92 L32.9998,27.08 C32.9998,28.6925199 31.6918496,30 30.0788,30 L9.9198,30 C8.30751525,30 6.9998,28.6922847 6.9998,27.08 L6.9998,12.92 C6.9998,11.3077153 8.30751525,10 9.9198,10 L16.5578,10 C17.1100847,10 17.5578,10.4477153 17.5578,11 C17.5578,11.5522847 17.1100847,12 16.5578,12 L9.9198,12 C9.41208475,12 8.9998,12.4122847 8.9998,12.92 L8.9998,27.08 C8.9998,27.5877153 9.41208475,28 9.9198,28 L30.0788,28 C30.5874411,28 30.9998,27.5877893 30.9998,27.08 L30.9998,12.92 C30.9998,12.4122107 30.5874411,12 30.0788,12 L23.9720136,12 L26.2649068,14.2928932 C26.6554311,14.6834175 26.6554311,15.3165825 26.2649068,15.7071068 C25.8743825,16.0976311 25.2412175,16.0976311 24.8506932,15.7071068 L20.8506932,11.7071068 C20.4601689,11.3165825 20.4601689,10.6834175 20.8506932,10.2928932 L24.8506932,6.29289322 C25.2412175,5.90236893 25.8743825,5.90236893 26.2649068,6.29289322 C26.6554311,6.68341751 26.6554311,7.31658249 26.2649068,7.70710678 L23.9720136,10 Z M16.7131,20.9282 L16.7131,23.5742 C17.6441,23.4722 18.1521,23.0072 18.1521,22.3092 C18.1521,21.6702 17.8321,21.2772 16.7131,20.9282 Z M15.5641,18.9072 L15.5641,16.3332 C14.6331,16.4212 14.1681,16.9152 14.1681,17.5552 C14.1681,18.1652 14.4441,18.5442 15.5641,18.9072 Z M16.1461,13.9492 C16.4941,13.9492 16.7711,14.2252 16.7711,14.5742 L16.7711,14.8942 C17.6291,14.9962 18.3561,15.2722 19.0251,15.6942 C19.2571,15.8242 19.4601,16.0432 19.4601,16.3912 C19.4601,16.8432 19.0971,17.1912 18.6471,17.1912 C18.5011,17.1912 18.3561,17.1482 18.2101,17.0602 C17.7011,16.7552 17.2071,16.5372 16.7131,16.4212 L16.7131,19.2122 C18.9231,19.7652 19.8671,20.6522 19.8671,22.2082 C19.8671,23.8072 18.6171,24.8682 16.7711,25.0432 L16.7711,25.4262 C16.7711,25.7752 16.4941,26.0512 16.1461,26.0512 C15.7961,26.0512 15.5061,25.7752 15.5061,25.4262 L15.5061,25.0142 C14.4151,24.8982 13.4121,24.5052 12.5261,23.8802 C12.2781,23.7202 12.1321,23.4872 12.1321,23.1822 C12.1321,22.7312 12.4821,22.3822 12.9321,22.3822 C13.1071,22.3822 13.2811,22.4402 13.4121,22.5422 C14.0961,23.0362 14.7641,23.3712 15.5641,23.5162 L15.5641,20.6522 C13.4421,20.0992 12.4521,19.3002 12.4521,17.6572 C12.4521,16.1012 13.6891,15.0252 15.5061,14.8792 L15.5061,14.5742 C15.5061,14.2252 15.7961,13.9492 16.1461,13.9492 Z" id="Refund" fill="#2F313A" fill-rule="nonzero"></path>
    </g>
</svg>