<?xml version="1.0" encoding="UTF-8"?>
<svg width="40px" height="40px" viewBox="0 0 40 40" version="1.1" xmlns="http://www.w3.org/2000/svg" xmlns:xlink="http://www.w3.org/1999/xlink">
    <!-- Generator: Sketch 59.1 (86144) - https://sketch.com -->
    <title>Vector Files/40x40/Flattened/Payment/Refund (Filled)</title>
    <desc>Created with Sketch.</desc>
    <g id="40x40/Flattened/Payment/Refund-(Filled)" stroke="none" stroke-width="1" fill="none" fill-rule="evenodd">
        <path d="M20.7293729,13 L24.1435864,16.4142136 C24.5341107,16.8047379 25.0459554,17 25.5578,17 C26.0696446,17 26.5814893,16.8047379 26.9720136,16.4142136 C27.3625379,16.0236893 27.5578,15.5118446 27.5578,15 C27.5578,14.4881554 27.3625379,13.9763107 26.9720136,13.5857864 L26.3862271,13 L29.4998,13 C29.7759424,13 29.9998,13.2238576 29.9998,13.5 L29.9998,26.5 C29.9998,26.7761424 29.7759424,27 29.4998,27 L10.4998,27 C10.2236576,27 9.9998,26.7761424 9.9998,26.5 L9.9998,13.5 C9.9998,13.2238576 10.2236576,13 10.4998,13 L20.7293729,13 Z M16.5891956,20.7670461 C17.5138731,21.0554397 17.7783028,21.3801924 17.7783028,21.9082254 C17.7783028,22.4850127 17.3585207,22.869262 16.5891956,22.953549 L16.5891956,20.7670461 Z M15.6397277,19.0970074 C14.7142238,18.797045 14.4861532,18.483861 14.4861532,17.979792 C14.4861532,17.4509326 14.8704026,17.0427193 15.6397277,16.9700011 L15.6397277,19.0970074 Z M16.1206592,15 C15.8314392,15 15.5917999,15.2280706 15.5917999,15.5164642 L15.5917999,15.7684988 C14.0903351,15.8891448 13.0681491,16.7782896 13.0681491,18.0640789 C13.0681491,19.4217601 13.8862284,20.0820079 15.6397277,20.5389755 L15.6397277,22.9056211 C14.9786535,22.7858014 14.4266566,22.5089766 13.8614381,22.1007633 C13.7531872,22.0164763 13.6094036,21.9685484 13.4647936,21.9685484 C13.0929394,21.9685484 12.8037194,22.2569421 12.8037194,22.6296226 C12.8037194,22.8816572 12.9243654,23.074195 13.1292984,23.2064099 C13.8614381,23.7228741 14.6902599,24.0476268 15.5917999,24.1434826 L15.5917999,24.4839358 C15.5917999,24.7723294 15.8314392,25.0004 16.1206592,25.0004 C16.4082265,25.0004 16.6371234,24.7723294 16.6371234,24.4839358 L16.6371234,24.1674465 C18.1625522,24.0228365 19.1954806,23.1460869 19.1954806,21.8247648 C19.1954806,20.5389755 18.415413,19.8060095 16.5891956,19.3490419 L16.5891956,17.0427193 C16.9974089,17.138575 17.4056222,17.3187178 17.8262307,17.5707523 C17.9468767,17.6434705 18.0666964,17.6790032 18.1873424,17.6790032 C18.5591967,17.6790032 18.8591591,17.3914359 18.8591591,17.017929 C18.8591591,16.7303617 18.6914115,16.5493927 18.4997,16.4419681 C17.9468767,16.0932515 17.3461255,15.8651809 16.6371234,15.7808939 L16.6371234,15.5164642 C16.6371234,15.2280706 16.4082265,15 16.1206592,15 Z M23.9716185,11.999605 L26.2649068,14.2928932 C26.6554311,14.6834175 26.6554311,15.3165825 26.2649068,15.7071068 C25.8743825,16.0976311 25.2412175,16.0976311 24.8506932,15.7071068 L20.8506932,11.7071068 C20.4601689,11.3165825 20.4601689,10.6834175 20.8506932,10.2928932 L24.8506932,6.29289322 C25.2412175,5.90236893 25.8743825,5.90236893 26.2649068,6.29289322 C26.6554311,6.68341751 26.6554311,7.31658249 26.2649068,7.70710678 L23.9716185,10.000395 C23.9810469,10.0001322 23.990508,10 24,10 L30.0788,10 C31.6918496,10 32.9998,11.3074801 32.9998,12.92 L32.9998,27.08 C32.9998,28.6925199 31.6918496,30 30.0788,30 L9.9198,30 C8.30751525,30 6.9998,28.6922847 6.9998,27.08 L6.9998,12.92 C6.9998,11.3077153 8.30751525,10 9.9198,10 L16.5578,10 C17.1100847,10 17.5578,10.4477153 17.5578,11 C17.5578,11.5522847 17.1100847,12 16.5578,12 L9.9198,12 C9.41208475,12 8.9998,12.4122847 8.9998,12.92 L8.9998,27.08 C8.9998,27.5877153 9.41208475,28 9.9198,28 L30.0788,28 C30.5874411,28 30.9998,27.5877893 30.9998,27.08 L30.9998,12.92 C30.9998,12.4122107 30.5874411,12 30.0788,12 L24,12 C23.990508,12 23.9810469,11.9998678 23.9716185,11.999605 L23.9716185,11.999605 Z" id="Refund-(Filled)" fill="#2F313A" fill-rule="nonzero"></path>
    </g>
</svg>