<?xml version="1.0" encoding="UTF-8"?>
<svg width="40px" height="40px" viewBox="0 0 40 40" version="1.1" xmlns="http://www.w3.org/2000/svg" xmlns:xlink="http://www.w3.org/1999/xlink">
    <!-- Generator: Sketch 59.1 (86144) - https://sketch.com -->
    <title>Vector Files/40x40/Flattened/Payment/Wallet (Filled)</title>
    <desc>Created with Sketch.</desc>
    <g id="40x40/Flattened/Payment/Wallet-(Filled)" stroke="none" stroke-width="1" fill="none" fill-rule="evenodd">
        <path d="M33.0001,18 L26.154,18 C24.6699845,18 23.5,19.3579775 23.5,21 C23.5,22.6420225 24.6699845,24 26.154,24 L33.0001,24 L33.0001,27.08 C33.0001,28.6927847 31.6928847,30 30.0791,30 L9.9211,30 C8.30731525,30 7.0001,28.6927847 7.0001,27.08 L7.0001,12.92 C7.0001,11.3072153 8.30731525,10 9.9211,10 L30.0791,10 C31.6928847,10 33.0001,11.3072153 33.0001,12.92 L33.0001,18 Z M33.0001,19 L33.0001,23 L26.154,23 C25.2581056,23 24.5,22.1200821 24.5,21 C24.5,19.8799179 25.2581056,19 26.154,19 L33.0001,19 Z M10.5,13 L29.5,13 C29.7761424,13 30,12.7761424 30,12.5 C30,12.2238576 29.7761424,12 29.5,12 L10.5,12 C10.2238576,12 10,12.2238576 10,12.5 C10,12.7761424 10.2238576,13 10.5,13 Z M27.5,21 C27.5,20.448 27.053,20 26.5,20 C25.947,20 25.5,20.448 25.5,21 C25.5,21.552 25.947,22 26.5,22 C27.053,22 27.5,21.552 27.5,21 Z" id="Wallet-(Filled)" fill="#2F313A" fill-rule="nonzero"></path>
    </g>
</svg>