<?xml version="1.0" encoding="UTF-8"?>
<svg width="24px" height="24px" viewBox="0 0 24 24" version="1.1" xmlns="http://www.w3.org/2000/svg" xmlns:xlink="http://www.w3.org/1999/xlink">
    <title>Vector Files/24x24/Payment/General Payment (Filled)</title>
    <g id="Symbols" stroke="none" stroke-width="1" fill="none" fill-rule="evenodd">
        <g id="24x24/Payment/General-Payment-(Filled)" transform="translate(-0.000000, 0.000000)" fill="#2F313A">
            <path d="M12,2 C17.5228475,2 22,6.4771525 22,12 C22,17.5228475 17.5228475,22 12,22 C6.4771525,22 2,17.5228475 2,12 C2,6.4771525 6.4771525,2 12,2 Z M12.1316742,6.75 L12.0292007,6.75583744 L11.9212773,6.77500312 C11.6046047,6.85172102 11.356724,7.0976225 11.3103146,7.40999748 L11.3024887,7.51644356 L11.302,7.542 L11.1334943,7.56507243 L10.9329763,7.60040063 C9.55086096,7.87541012 8.62658123,8.72819004 8.54541141,9.89514042 L8.53959276,10.0639564 L8.54364164,10.2283705 L8.55657004,10.3936196 C8.67842939,11.5281632 9.46154133,12.2004595 11.074887,12.6590479 L11.355,12.734 L11.355,14.599 L11.1735288,14.5524878 L10.9436916,14.4792775 C10.5629852,14.3456591 10.1917339,14.153333 9.79509535,13.8917733 C9.64193835,13.7818201 9.43345581,13.7182697 9.2239819,13.7182697 C8.68258438,13.7182697 8.25,14.1132505 8.25,14.6293175 C8.25,14.9248569 8.3831785,15.1722288 8.62067782,15.3497467 L8.72876611,15.4214857 L9.01217011,15.5937679 L9.30337469,15.7504252 C9.7950051,15.9983837 10.3175549,16.1803665 10.8631092,16.2920118 L11.1931389,16.3505235 L11.302,16.363 L11.3024887,16.4835564 L11.3090774,16.5813084 C11.3564852,16.9297497 11.6541398,17.1972991 12.0200391,17.2430647 L12.1316742,17.25 L12.2420936,17.2431649 L12.3481134,17.2232097 C12.6585817,17.1444888 12.8962691,16.8997839 12.9407019,16.5893364 L12.94819,16.4835564 L12.948,16.391 L13.128849,16.3651732 L13.333126,16.3271931 C14.7402766,16.0345083 15.6632005,15.1821122 15.7441953,13.9961585 L15.75,13.8244918 L15.745456,13.6567001 L15.7317682,13.4946266 C15.6037545,12.3798835 14.7975056,11.6777882 13.1835918,11.2277995 L12.894,11.152 L12.894,9.366 L13.0918502,9.43027628 L13.3485018,9.53062694 C13.521466,9.60399361 13.6983656,9.69034215 13.8804571,9.78996911 C14.0472483,9.88176267 14.2196138,9.92889605 14.3950226,9.92889605 C14.9378267,9.92889605 15.3816742,9.53396079 15.3816742,9.0186746 C15.3816742,8.69554345 15.2191146,8.44630283 14.9553958,8.27845995 L14.8518793,8.21934905 L14.6069311,8.08621408 L14.3570765,7.96660566 C14.0204298,7.81613998 13.6692829,7.70171223 13.2979701,7.62319099 L13.0156159,7.57103048 L12.948,7.562 L12.94819,7.51644356 L12.9407019,7.41066364 C12.8913322,7.06572192 12.6033764,6.80194396 12.2420936,6.75683508 L12.1316742,6.75 Z M12.894,13.107 L13.0280123,13.1556346 C13.492057,13.3368509 13.666063,13.5305916 13.6938654,13.8186276 L13.6979638,13.9079491 L13.6916096,14.0057603 C13.653949,14.2877394 13.4488314,14.4992188 13.0748912,14.6166776 L12.9267474,14.6562715 L12.894,14.662 L12.894,13.107 Z M11.355,9.258 L11.355,10.752 L11.2335144,10.7075115 C10.7354046,10.5097102 10.591629,10.308313 10.591629,9.97967278 C10.591629,9.66753786 10.7925021,9.42416611 11.1927666,9.29956886 L11.3335709,9.26250411 L11.355,9.258 Z" id="General-Payment-(Filled)"></path>
        </g>
    </g>
</svg>