<?xml version="1.0" encoding="UTF-8"?>
<svg width="24px" height="24px" viewBox="0 0 24 24" version="1.1" xmlns="http://www.w3.org/2000/svg" xmlns:xlink="http://www.w3.org/1999/xlink">
    <title>Vector Files/24x24/Payment/Invoice (Filled)</title>
    <g id="Symbols" stroke="none" stroke-width="1" fill="none" fill-rule="evenodd">
        <g id="24x24/Payment/Invoice-(Filled)" transform="translate(0.000000, 0.000000)" fill="#2F313A">
            <path d="M15.5857864,2 C15.8510029,2 16.1053568,2.10535684 16.2928932,2.29289322 L19.7071068,5.70710678 C19.8946432,5.89464316 20,6.14899707 20,6.41421356 L20,21 C20,21.5522847 19.5522847,22 19,22 L5,22 C4.44771525,22 4,21.5522847 4,21 L4,3 C4,2.44771525 4.44771525,2 5,2 L15.5857864,2 Z M12.1316742,6.75 C12.5433994,6.75 12.8863952,7.03122775 12.9407019,7.41066364 L12.94819,7.51644356 L12.948,7.562 L13.0156159,7.57103048 C13.4928031,7.64675073 13.9362682,7.77852356 14.3570765,7.96660566 L14.6069311,8.08621408 L14.8518793,8.21934905 C15.1759347,8.38514722 15.3816742,8.65515206 15.3816742,9.0186746 C15.3816742,9.53396079 14.9378267,9.92889605 14.3950226,9.92889605 C14.2196138,9.92889605 14.0472483,9.88176267 13.8804571,9.78996911 C13.6983656,9.69034215 13.521466,9.60399361 13.3485018,9.53062694 L13.0918502,9.43027628 L12.894,9.366 L12.894,11.152 L12.9475244,11.1652131 C14.7191821,11.6118577 15.5976587,12.3268005 15.7317682,13.4946266 L15.745456,13.6567001 L15.75,13.8244918 C15.75,15.0996625 14.8072838,16.020571 13.333126,16.3271931 L13.128849,16.3651732 L12.948,16.391 L12.94819,16.4835564 C12.94819,16.8433558 12.6930782,17.135742 12.3481134,17.2232097 L12.2420936,17.2431649 L12.1316742,17.25 C11.7161732,17.25 11.361226,16.9645939 11.3090774,16.5813084 L11.3024887,16.4835564 L11.302,16.363 L11.1931389,16.3505235 C10.5278117,16.2505206 9.89333118,16.0479754 9.30337469,15.7504252 L9.01217011,15.5937679 L8.72876611,15.4214857 C8.42394743,15.2419235 8.25,14.9670768 8.25,14.6293175 C8.25,14.1132505 8.68258438,13.7182697 9.2239819,13.7182697 C9.43345581,13.7182697 9.64193835,13.7818201 9.79509535,13.8917733 C10.1917339,14.153333 10.5629852,14.3456591 10.9436916,14.4792775 L11.1735288,14.5524878 L11.355,14.599 L11.355,12.734 L11.311031,12.7231336 C9.53762286,12.2634396 8.68423222,11.5821891 8.55657004,10.3936196 L8.54364164,10.2283705 L8.53959276,10.0639564 C8.53959276,8.81071732 9.48504594,7.88850581 10.9329763,7.60040063 L11.1334943,7.56507243 L11.302,7.542 L11.3024887,7.51644356 C11.3024887,7.15435595 11.5694189,6.86024524 11.9212773,6.77500312 L12.0292007,6.75583744 L12.1316742,6.75 Z M12.894,13.107 L12.894,14.662 L12.9267474,14.6562715 C13.3949355,14.5509871 13.6492414,14.3229868 13.6916096,14.0057603 L13.6979638,13.9079491 C13.6979638,13.569465 13.5384615,13.3549725 13.0280123,13.1556346 L12.894,13.107 Z M11.355,9.258 L11.3335709,9.26250411 C10.8396205,9.37093242 10.591629,9.6328562 10.591629,9.97967278 C10.591629,10.308313 10.7354046,10.5097102 11.2335144,10.7075115 L11.355,10.752 L11.355,9.258 Z" id="Invoice-(Filled)"></path>
        </g>
    </g>
</svg>