<?xml version="1.0" encoding="UTF-8"?>
<svg width="24px" height="24px" viewBox="0 0 24 24" version="1.1" xmlns="http://www.w3.org/2000/svg" xmlns:xlink="http://www.w3.org/1999/xlink">
    <title>Vector Files/24x24/Payment/Refund</title>
    <g id="Symbols" stroke="none" stroke-width="1" fill="none" fill-rule="evenodd">
        <g id="24x24/Payment/Refund" transform="translate(-0.000000, 0.000000)" fill="#2F313A">
            <path d="M16.2071068,3.79289322 C16.5675907,4.15337718 16.5953203,4.72060824 16.2902954,5.11289944 L16.2071068,5.20710678 L15.414,6 L19.9998833,6 C21.0542451,6 21.9180485,6.81587779 21.9943976,7.85073766 L21.9998833,8 L21.9998833,18 C21.9998833,19.0543618 21.1840055,19.9181651 20.1491457,19.9945143 L19.9998833,20 L4,20 C2.9456382,20 2.08183488,19.1841222 2.00548574,18.1492623 L2,18 L2,8 C2,6.9456382 2.81587779,6.08183488 3.85073766,6.00548574 L4,6 L9.0306546,6 C9.58293935,6 10.0306546,6.44771525 10.0306546,7 C10.0306546,7.51283584 9.64461441,7.93550716 9.14727573,7.99327227 L9.0306546,8 L4,8 L4,18 L19.9998833,18 L19.9998833,8 L15.415,8 L16.2071068,8.79289322 C16.5675907,9.15337718 16.5953203,9.72060824 16.2902954,10.1128994 L16.2071068,10.2071068 C15.8466228,10.5675907 15.2793918,10.5953203 14.8871006,10.2902954 L14.7928932,10.2071068 L12.2928932,7.70710678 C11.9324093,7.34662282 11.9046797,6.77939176 12.2097046,6.38710056 L12.2928932,6.29289322 L14.7928932,3.79289322 C15.1834175,3.40236893 15.8165825,3.40236893 16.2071068,3.79289322 Z M8.58778281,9 C8.86226628,9 9.09093013,9.21426876 9.12713463,9.50336277 L9.1321267,9.583957 L9.132,9.61866667 L9.17707724,9.62554703 C9.49520206,9.68323865 9.79084545,9.783637 10.0713843,9.92693765 L10.2379541,10.0180679 L10.4012529,10.119504 C10.6172898,10.2458265 10.7544495,10.4515444 10.7544495,10.728514 C10.7544495,11.121113 10.4585511,11.422016 10.0966817,11.422016 C9.97974252,11.422016 9.86483218,11.3861049 9.75363804,11.3161669 C9.63224372,11.2402607 9.51431065,11.1744713 9.39900123,11.1185729 L9.22790014,11.0421153 L9.096,10.9931429 L9.096,12.3539048 L9.13168291,12.3639719 C10.3127881,12.7042725 10.8984391,13.2489908 10.9878455,14.1387631 L10.9969707,14.2622477 L11,14.390089 C11,15.3616476 10.3715226,16.0632922 9.38875064,16.296909 L9.252566,16.3258463 L9.132,16.3455238 L9.1321267,16.416043 C9.1321267,16.6901759 8.96205213,16.9129463 8.73207559,16.9795883 L8.66139574,16.9947923 L8.58778281,17 C8.31078213,17 8.07415069,16.7825477 8.03938491,16.4905207 L8.03499246,16.416043 L8.03466667,16.3241905 L7.96209262,16.3146846 C7.5185411,16.2384919 7.09555412,16.0841718 6.7022498,15.8574668 L6.5081134,15.7381089 L6.3191774,15.6068463 C6.11596495,15.470037 6,15.2606299 6,15.0032895 C6,14.6100956 6.28838958,14.3091579 6.64932127,14.3091579 C6.78897054,14.3091579 6.9279589,14.3575772 7.03006356,14.4413511 C7.29448924,14.6406347 7.5419901,14.7871689 7.7957944,14.8889733 L7.94901922,14.9447526 L8.07,14.9801905 L8.07,13.5592381 L8.04068735,13.5509589 C6.85841524,13.2007159 6.28948814,12.6816679 6.20438003,11.7760911 L6.19576109,11.6501871 L6.19306184,11.5249191 C6.19306184,10.5700703 6.82336396,9.867433 7.78865089,9.64792429 L7.92232954,9.62100757 L8.03466667,9.60342857 L8.03499246,9.583957 C8.03499246,9.30808073 8.21294593,9.08399637 8.44751821,9.01905 L8.51946712,9.00444757 L8.58778281,9 Z M9.096,13.8434286 L9.096,15.0281905 L9.11783163,15.0238259 C9.42995699,14.9436092 9.59949429,14.7698947 9.6277397,14.5281983 L9.63197587,14.4536755 C9.63197587,14.1957828 9.52564097,14.03236 9.18534157,13.8804835 L9.096,13.8434286 Z M8.07,12.0491429 L8.07,10.9108571 L8.05571393,10.9142888 C7.72641365,10.9969009 7.56108597,11.1964619 7.56108597,11.4607031 C7.56108597,11.7110956 7.65693641,11.8645411 7.98900962,12.0152469 L8.07,12.0491429 Z" id="Refund"></path>
        </g>
    </g>
</svg>