<?xml version="1.0" encoding="UTF-8"?>
<svg width="100px" height="100px" viewBox="0 0 100 100" version="1.1" xmlns="http://www.w3.org/2000/svg" xmlns:xlink="http://www.w3.org/1999/xlink">
    <!-- Generator: Sketch 59.1 (86144) - https://sketch.com -->
    <title>Vector Files/100x100/Flattened/Misc/Add Product</title>
    <desc>Created with Sketch.</desc>
    <g id="100x100/Flattened/Misc/Add-Product" stroke="none" stroke-width="1" fill="none" fill-rule="evenodd">
        <path d="M51.5,20.4733 L48.5,20.4733 L48.5,27.9696432 C48.5,28.5785278 48.131927,29.127003 47.5684606,29.3577543 C47.4090594,29.4230325 47.0615002,29.6046524 46.5877336,29.9236273 C45.7641267,30.4781407 44.9330811,31.2130153 44.1526391,32.1501552 C41.8778725,34.881652 40.5,38.7166863 40.5,43.9059728 L40.5,49.5 L43.0395,49.5 L43.0395,42.5053312 C43.0395,40.5988296 44.5451731,39.0395 46.4191228,39.0395 L53.5818055,39.0395 C55.4556965,39.0395 56.9605,40.5987556 56.9605,42.5053312 L56.9605,49.5 L59.5,49.5 L59.5,43.9059728 C59.5,38.7166863 58.1221275,34.881652 55.8473609,32.1501552 C55.0669189,31.2130153 54.2358733,30.4781407 53.4122664,29.9236273 C52.9384998,29.6046524 52.5909406,29.4230325 52.4315394,29.3577543 C51.868073,29.127003 51.5,28.5785278 51.5,27.9696432 L51.5,20.4733 L51.5,20.4733 Z M53.4961762,18.4733 C53.451916,17.9150124 53.0294829,17.5 52.5459503,17.5 L47.4530398,17.5 C46.967029,17.5 46.5421618,17.9209131 46.502949,18.485062 C46.5530997,18.4773179 46.6044807,18.4733 46.6568,18.4733 L53.4961762,18.4733 L53.4961762,18.4733 Z M41.7042233,30.4046152 C41.7515909,30.3461365 41.7993044,30.2880449 41.8473609,30.2303396 C42.8169189,29.0661126 43.8608733,28.1429677 44.9122664,27.4350917 C45.1216766,27.2941011 45.3182866,27.1699484 45.5,27.0617455 L45.5,22.1096877 C44.2818326,21.3972999 43.5,20.0560781 43.5,18.5703704 C43.5,16.3373835 45.2540106,14.5 47.4530398,14.5 L52.5459503,14.5 C54.7457332,14.5 56.5,16.3371296 56.5,18.5703704 C56.5,20.0544949 55.718476,21.3967199 54.5,22.1098829 L54.5,27.0617455 C54.6817134,27.1699484 54.8783234,27.2941011 55.0877336,27.4350917 C55.938659,28.0079979 56.7847118,28.7219089 57.5903963,29.590509 C58.7806176,28.392045 60.3108304,27.7457062 62.0881637,27.6003817 C61.4534577,26.7519996 61.0264773,25.8171827 60.8179586,24.8409293 C60.3622399,22.7073229 61.0796208,20.6334215 62.7197922,20.4201045 C64.9096774,20.1361098 66.1596709,21.8725961 66.7754766,24.6989118 C66.8183792,24.8964417 66.8578464,25.0982623 66.8941588,25.304672 C67.0018797,25.9169858 67.0799617,26.5558355 67.1328361,27.205813 C67.3720703,26.9095774 67.6191081,26.6179251 67.8725434,26.3348641 C68.829799,25.265709 69.7764167,24.4307445 70.7079436,23.9134398 C72.1161132,23.1314413 73.4940278,23.097223 74.5992283,24.0802591 C75.8354532,25.1790204 75.2614011,27.2972195 73.6838384,28.8044831 C72.9113076,29.5425885 71.9586154,30.1006084 70.8677092,30.440337 C72.7733775,32.3589625 73.1804754,35.0888153 72.2684238,38.3002286 C72.7723411,38.6169195 73.246582,38.9808179 73.6918866,39.3834206 C74.0621188,39.71815 74.3877099,40.0529981 74.6690772,40.3740067 C74.6776513,40.3575639 74.6867271,40.3412628 74.6963093,40.3251219 C74.8078915,40.1371638 75.680384,38.302774 76.0567874,37.660104 C77.4233523,35.3268358 79.2480686,33.9580088 81.9898398,33.8493749 C82.1623147,33.842581 82.2995096,33.8369681 82.6103349,33.8240922 C84.8712482,33.730421 85.8769217,33.7145219 87.1551437,33.7929633 C87.3797538,33.8067471 87.6006545,33.8236575 87.8185813,33.8438763 C88.3879693,33.896703 88.7971941,34.4153772 88.716091,34.9814299 C88.5071467,36.4397408 87.3322941,38.3961074 85.6577325,39.5321395 C83.4618313,41.0218513 80.6392266,41.1182123 77.3442531,39.5036758 C76.9738523,40.238259 76.5334607,41.1483707 76.4160907,41.3460781 C76.3941536,41.3830308 76.3702088,41.4180553 76.3444778,41.4510951 C77.1603949,41.6524145 77.9732641,41.9112238 78.7477991,42.2376848 C82.2429239,43.710855 84.0692382,46.2183229 82.9698097,49.5 L83,49.5 C83.8284271,49.5 84.5,50.1715729 84.5,51 L84.5,84 C84.5,84.8284271 83.8284271,85.5 83,85.5 L17,85.5 C16.1715729,85.5 15.5,84.8284271 15.5,84 L15.5,51 C15.5,50.1715729 16.1715729,49.5 17,49.5 L17.596205,49.5 C17.2798937,48.4043149 17.0581957,47.3301692 16.9170379,46.2968384 C16.789413,45.3625735 16.7474419,44.6305413 16.7510632,44.1574558 C16.7511582,44.1469643 16.7511719,44.1454531 16.7515904,44.1256307 C16.7513381,44.1149345 16.7193273,43.9810406 16.6195118,43.8447082 C16.4332205,43.5902631 16.0627182,43.3854542 15.3399019,43.2955233 L15.3448155,43.2560303 C14.6032439,43.0462194 14.603917,43.0432017 14.6135375,43.0000727 C14.5630772,42.9612993 14.5630772,42.9612993 14.5341211,42.9375417 L14.5281234,42.9325915 C14.4813638,42.8932914 14.4813638,42.8932914 14.4648319,42.8789083 C13.8396962,42.335312 13.7735955,41.3878676 14.3171917,40.7627319 C14.7551992,40.2590233 15.4554042,40.1182666 16.037927,40.3669651 C17.3890878,40.5999025 18.3985334,41.1962107 19.040095,42.0724844 C19.5823354,42.8131009 19.7608152,43.5671302 19.7509666,44.1822384 C19.7503481,44.2729756 19.7541363,44.4328772 19.7668773,44.655097 C19.7878299,45.0205378 19.8271562,45.4349082 19.8894325,45.8907956 C20.0468723,47.0433175 20.3215026,48.2603767 20.738481,49.5 L37.5,49.5 L37.5,45.2175413 C37.4380127,45.1689409 37.379055,45.1148126 37.3238142,45.0551825 C36.0360177,43.6650607 34.4431849,42.5671561 32.6058548,41.7331657 C30.8043718,40.9154467 28.8592769,40.3895325 26.8998472,40.1030126 C25.6725245,39.9235459 24.6794618,39.8672907 24.050143,39.8742335 L24.0259314,39.8746005 C23.3794539,39.8831522 22.5804082,39.6776783 21.8060148,39.0662666 C20.9345085,38.3781807 20.3361485,37.3146964 20.0907221,35.8916314 C20.0762006,35.8074309 20.0689,35.7221435 20.0689,35.6367 L20.0689,35.4987 C20.0689,34.6702729 20.7404729,33.9987 21.5689,33.9987 C22.3973271,33.9987 23.0689,34.6702729 23.0689,35.4987 C23.1962614,36.1436922 23.4108768,36.5110201 23.6650385,36.71169 C23.821875,36.8355181 23.9638872,36.8736326 23.9851458,36.8748344 L23.9774016,36.8750062 C23.987791,36.874799 23.9895603,36.8747758 24.0170481,36.8744161 C24.2724238,36.8715987 24.6361271,36.8790929 25.0927576,36.9049602 C25.6149093,36.9345391 26.1720633,36.9839041 26.7576264,37.0566374 C25.831243,32.4926675 27.4321376,27.5075946 31.1017174,25.9963479 C34.6205037,24.5469674 39.0427267,26.6687707 41.7042233,30.4046152 L41.7042233,30.4046152 Z M39.9506867,33.0441926 C39.816854,32.9395421 39.6986587,32.8102028 39.6033429,32.6578427 C37.7041708,29.6220585 34.3777477,27.8914825 32.2442033,28.7702848 C29.8527026,29.7551789 28.7835967,34.0834711 30.0282512,37.6707147 C31.3299541,38.0024465 32.6110479,38.4409297 33.8458347,39.0014172 C35.2118118,39.6214538 36.4750991,40.3718838 37.6152594,41.2633051 C37.902089,38.0704782 38.7150608,35.3394823 39.9506867,33.0441926 L39.9506867,33.0441926 Z M10.524,30.6448 L10.524,27.1207 C10.524,26.5684153 10.9717153,26.1207 11.524,26.1207 C12.0762847,26.1207 12.524,26.5684153 12.524,27.1207 L12.524,31.2309864 L19.8307068,38.5376932 C20.2212311,38.9282175 20.2212311,39.5613825 19.8307068,39.9519068 C19.4401825,40.3424311 18.8070175,40.3424311 18.4164932,39.9519068 L11.1093864,32.6448 L6.9996,32.6448 C6.44731525,32.6448 5.9996,32.1970847 5.9996,31.6448 C5.9996,31.0925153 6.44731525,30.6448 6.9996,30.6448 L10.524,30.6448 L10.524,30.6448 Z M55.6568,82.5 L55.6568,65.4733 C55.6568,64.9210153 56.1045153,64.4733 56.6568,64.4733 C57.2090847,64.4733 57.6568,64.9210153 57.6568,65.4733 L57.6568,82.5 L81.5,82.5 L81.5,52.5 L18.5,52.5 L18.5,82.5 L55.6568,82.5 L55.6568,82.5 Z M79.691171,49.5 C80.9127571,47.3295133 80.1051093,46.0653776 77.5825944,45.0021555 C76.8859825,44.7085385 76.1259489,44.4759709 75.3640991,44.3015082 C74.9084611,44.1971676 74.5611666,44.1367382 74.380504,44.1127549 C74.1789238,44.0859947 73.9848894,44.0185272 73.8101922,43.9144523 L73.6221922,43.8024523 C73.4037965,43.6723442 73.2220505,43.4888653 73.0940207,43.2692447 C73.0494385,43.1927692 72.9370525,43.0218889 72.7605753,42.7888626 C72.456219,42.3869806 72.0940516,41.9831465 71.6799487,41.6087534 C71.5115789,41.4565291 71.3386246,41.3129245 71.1613255,41.1788254 C69.8606201,43.9119595 67.8259007,46.8454296 65.5389962,49.5 L79.691171,49.5 Z M55.0395,49.5 L55.0395,42.5053312 C55.0395,41.644716 54.3791781,40.9605 53.5818055,40.9605 L46.4191228,40.9605 C45.6214549,40.9605 44.9605,41.6450089 44.9605,42.5053312 L44.9605,49.5 L55.0395,49.5 L55.0395,49.5 Z M62.5,48.4084826 C65.2438567,45.3773781 67.7010647,41.8517536 68.9068286,38.8578537 C70.5640721,34.7429343 69.8382204,32.2671477 66.1119849,31.1191188 C63.0141861,30.1647993 60.7555064,30.461004 59.5070345,31.9359077 C59.4864583,31.9602158 59.4652744,31.9837056 59.4435238,32.0063739 C61.3822107,35.0764199 62.5,39.01797 62.5,43.9059728 L62.5,48.4084826 L62.5,48.4084826 Z M68.4279697,28.7915845 C68.4475905,28.8005127 68.4671417,28.8094821 68.4866232,28.8184926 C70.0764345,28.7747488 71.3821549,28.2374742 72.3022116,27.3584169 C73.1513296,26.5471372 73.3867625,25.6784117 73.2702962,25.5748959 C72.8944617,25.2406047 72.416221,25.2524811 71.6789279,25.6619219 C70.9778705,26.05124 70.18416,26.7513325 69.3625807,27.6689515 C69.0403305,28.0288716 68.727111,28.4069955 68.4279697,28.7915845 L68.4279697,28.7915845 Z M65.1701941,27.7954203 C65.12358,27.0550625 65.0436488,26.3289962 64.9244078,25.6511989 C64.8926068,25.4704336 64.8582368,25.2946663 64.8212535,25.1243672 C64.4021667,23.2011472 63.7552834,22.3025651 62.9773716,22.4034483 C62.8228731,22.423542 62.5285048,23.2745415 62.7738414,24.4231707 C63.0404017,25.6711658 63.8210068,26.8533118 65.1171432,27.7854997 C65.1348116,27.7887701 65.1524953,27.792077 65.1701941,27.7954203 L65.1701941,27.7954203 Z M84.5349175,37.8770605 C85.3298691,37.3377608 85.9818233,36.5158411 86.3685956,35.7570659 C85.4349295,35.7248994 84.4677017,35.748856 82.6931253,35.8223779 C82.381599,35.8352831 82.2428353,35.8409603 82.0687907,35.847816 C80.4545773,35.911774 79.3138965,36.5605547 78.3756155,37.7815744 C80.9698462,39.0172098 82.9884556,38.926189 84.5349175,37.8770605 Z M55.6568,57.4733 C55.6568,56.9210153 56.1045153,56.4733 56.6568,56.4733 C57.2090847,56.4733 57.6568,56.9210153 57.6568,57.4733 L57.6568,61.4733 C57.6568,62.0255847 57.2090847,62.4733 56.6568,62.4733 C56.1045153,62.4733 55.6568,62.0255847 55.6568,61.4733 L55.6568,57.4733 Z M76.1008229,60 C76.5853655,60 77,59.5633536 77,59 C77,58.4366464 76.5853655,58 76.1008229,58 L64.8982051,58 C64.4145676,58 64,58.4367304 64,59 C64,59.5632696 64.4145676,60 64.8982051,60 L76.1008229,60 Z M76.1008229,62 L64.8982051,62 C63.2860325,62 62,60.6452162 62,59 C62,57.3547838 63.2860325,56 64.8982051,56 L76.1008229,56 C77.7137338,56 79,57.3545511 79,59 C79,60.6454489 77.7137338,62 76.1008229,62 Z" id="Add-Product" fill="#2F313A" fill-rule="nonzero"></path>
    </g>
</svg>