<?xml version="1.0" encoding="UTF-8"?>
<svg width="100px" height="100px" viewBox="0 0 100 100" version="1.1" xmlns="http://www.w3.org/2000/svg" xmlns:xlink="http://www.w3.org/1999/xlink">
    <!-- Generator: Sketch 59.1 (86144) - https://sketch.com -->
    <title>Vector Files/100x100/Flattened/Misc/Certificate</title>
    <desc>Created with Sketch.</desc>
    <g id="100x100/Flattened/Misc/Certificate" stroke="none" stroke-width="1" fill="none" fill-rule="evenodd">
        <path d="M46.1092,62.179419 L46.1092,67.2815 C46.1092,67.8337847 45.6614847,68.2815 45.1092,68.2815 C44.5569153,68.2815 44.1092,67.8337847 44.1092,67.2815 L44.1092,61.7556083 C43.0415014,61.4800171 42.0032129,61.1312673 41,60.7150237 L41,80.2936376 C41.6840388,79.7017705 42.5059375,78.9429618 43.4348283,78.0496837 C43.6248816,77.8669169 43.8185725,77.6793245 44.0155811,77.4872676 C45.001642,76.525991 46.029029,75.4942179 47.0359848,74.4622115 C47.3885777,74.100847 47.7133158,73.7653826 48.0025643,73.4645285 C48.1755881,73.2845625 48.2979387,73.156541 48.3620004,73.0891571 C48.9320119,72.4895857 49.8798372,72.4647049 50.4805199,73.0335452 C50.5517837,73.1010312 50.6877953,73.2291581 50.8800971,73.4092342 C51.2015242,73.7102263 51.5623771,74.0458335 51.9541788,74.4073484 C53.0731616,75.4398321 54.2148712,76.4721029 55.3108,77.4339695 C55.5297932,77.6261738 55.7451061,77.8139168 55.9563847,77.9968386 C57.1452869,79.0261718 58.1768103,79.8773901 59,80.5018957 L59,60.7150237 C56.2279625,61.8651713 53.1881209,62.5 50,62.5 C48.6745754,62.5 47.3747793,62.3902772 46.1092,62.179419 L46.1092,62.179419 Z M62,59.2095689 L62,82.792976 C62,84.3982843 60.6316962,84.7692092 59.4941023,84.3385669 C59.0553126,84.1724608 58.5454731,83.8690545 57.9103298,83.4223107 C56.9098726,82.7186143 55.5818701,81.6407437 53.9927358,80.2648957 C53.7762417,80.0774585 53.5558461,79.8852836 53.3318756,79.6887107 C52.2152323,78.7086636 51.0557378,77.6603126 49.9197891,76.6121745 C49.7770869,76.4805034 49.6384084,76.3521984 49.5041418,76.227659 C49.3999471,76.3349252 49.292896,76.4448921 49.1832055,76.5573114 C48.1600437,77.6059268 47.1156538,78.6547755 46.1097333,79.6354126 C45.9079411,79.8321328 45.7093631,80.0244584 45.5142921,80.2120505 C44.0810049,81.5903869 42.8830751,82.6703558 41.9780279,83.3774385 C41.3946352,83.8332234 40.9256323,84.1432357 40.5089098,84.3184576 C39.3894469,84.7891652 38,84.3707981 38,82.792976 L38,59.2095689 C31.1139292,55.1120746 26.5,47.5952216 26.5,39.0005021 C26.5,26.0216338 37.0214789,15.5 50,15.5 C62.9785211,15.5 73.5,26.0216338 73.5,39.0005021 C73.5,47.5952216 68.8860708,55.1120746 62,59.2095664 L62,59.2095689 Z M70.5,39.0005021 C70.5,27.6784782 61.321657,18.5 50,18.5 C38.678343,18.5 29.5,27.6784782 29.5,39.0005021 C29.5,50.3223133 38.6781303,59.5 50,59.5 C61.3218697,59.5 70.5,50.3223133 70.5,39.0005021 Z M60.5,39 C60.5,33.2006692 55.7994039,28.5 50,28.5 C44.201208,28.5 39.5,33.2010204 39.5,39 C39.5,44.7989796 44.201208,49.5 50,49.5 C55.7994039,49.5 60.5,44.7993308 60.5,39 Z M63.5,39 C63.5,46.4561747 57.4562685,52.5 50,52.5 C42.5443805,52.5 36.5,46.4558607 36.5,39 C36.5,31.5441393 42.5443805,25.5 50,25.5 C57.4562685,25.5 63.5,31.5438253 63.5,39 Z M43.2919754,36.6539383 C43.1096582,37.1752624 42.5392442,37.4500819 42.01792,37.2677647 C41.4965958,37.0854475 41.2217764,36.5150335 41.4040936,35.9937093 C41.7166036,35.1001072 42.1670348,34.2625787 42.7370364,33.5096112 C43.0703786,33.0692688 43.6975739,32.9825281 44.1379163,33.3158703 C44.5782587,33.6492125 44.6649994,34.2764078 44.3316572,34.7167502 C43.8867689,35.304444 43.5355046,35.9575824 43.2919754,36.6539383 Z M45.7788805,44.7148334 C46.2228249,45.0433632 46.316387,45.6695772 45.9878572,46.1135217 C45.6593275,46.5574661 45.0331134,46.6510281 44.589169,46.3224984 C42.5271755,44.7965726 41.1876446,42.4679635 40.9382361,39.884468 C40.8851657,39.334739 41.2877871,38.8460735 41.8375161,38.7930031 C42.3872451,38.7399328 42.8759106,39.1425542 42.928981,39.6922832 C43.123442,41.7066064 44.1683013,43.5229653 45.7788805,44.7148334 Z M44.1092,70.2815 C44.1092,69.7292153 44.5569153,69.2815 45.1092,69.2815 C45.6614847,69.2815 46.1092,69.7292153 46.1092,70.2815 L46.1092,71.2815 C46.1092,71.8337847 45.6614847,72.2815 45.1092,72.2815 C44.5569153,72.2815 44.1092,71.8337847 44.1092,71.2815 L44.1092,70.2815 Z" id="Certificate" fill="#2F313A" fill-rule="nonzero"></path>
    </g>
</svg>