<?xml version="1.0" encoding="UTF-8"?>
<svg width="100px" height="100px" viewBox="0 0 100 100" version="1.1" xmlns="http://www.w3.org/2000/svg" xmlns:xlink="http://www.w3.org/1999/xlink">
    <!-- Generator: Sketch 59.1 (86144) - https://sketch.com -->
    <title>Vector Files/100x100/Flattened/Misc/Coupon 2</title>
    <desc>Created with Sketch.</desc>
    <g id="100x100/Flattened/Misc/Coupon-2" stroke="none" stroke-width="1" fill="none" fill-rule="evenodd">
        <path d="M35,33.1908775 C34.9633389,33.1641176 34.927599,33.1354903 34.8929154,33.1049957 L29.0866608,28 L17.5,28 C15.0147208,28 13,30.0147165 13,32.5 L13,67.5 C13,69.9852814 15.0147215,72 17.5,72 L29.0866619,72 L34.892925,66.8950123 C34.9276055,66.8645204 34.9633423,66.8358955 35,66.8091376 L35,62 C35,61.4477153 35.4477211,61 36,61 C36.5522906,61 37,61.4477153 37,62 L37,67.0058969 L42.6832798,72 L82.5000152,72 C84.9852966,72 87.0000156,69.9852822 87.0000161,67.5 L87.0000161,32.5 C87.0000161,30.0147186 84.9852975,28 82.5000167,28 L77.2500064,28 C76.4215793,28 75.7500061,27.3284298 75.7500058,26.5 C75.7500054,25.6715756 76.4215781,25 77.2500052,25 L82.5000161,25 C86.6421517,25 90.0000161,28.3578644 90.0000161,32.5 L90.0000161,67.5 C90.0000161,71.642137 86.6421503,75 82.5000146,75 L42.1178686,75 C41.7534431,75 41.401481,74.8673224 41.1277303,74.6267679 L35.8836455,70.0186046 L30.6427544,74.6265055 C30.3689632,74.8672283 30.0168743,75 29.6523073,75 L17.5,75 C13.3578672,75 10,71.6421356 10,67.5 L10,32.5 C10,28.3578608 13.357868,25 17.5,25 L29.6523083,25 C30.0168753,25 30.3689642,25.1327808 30.6427552,25.3735039 L35.8836366,29.9814028 L41.1277206,25.3732328 C41.4014714,25.1326779 41.7534339,25 42.1178598,25 L71.3847711,25 C72.2131983,25 72.8847713,25.6715758 72.8847714,26.5 C72.8847716,27.32843 72.2131988,28 71.3847717,28 L42.6832717,28 L37,32.9941039 L37,38 C37,38.5522847 36.5522906,39 36,39 C35.4477211,39 35,38.5522847 35,38 L35,33.1908775 L35,33.1908775 Z M36.0000058,41 C36.5522906,41 37.0000058,41.4477153 37.0000058,42 L37.0000058,48 C37.0000058,48.5522847 36.5522906,49 36.0000058,49 C35.4477211,49 35.0000058,48.5522847 35.0000058,48 L35.0000058,42 C35.0000058,41.4477153 35.4477211,41 36.0000058,41 Z M36.0000058,51 C36.5522906,51 37.0000058,51.4477153 37.0000058,52 L37.0000058,58 C37.0000058,58.5522847 36.5522906,59 36.0000058,59 C35.4477211,59 35.0000058,58.5522847 35.0000058,58 L35.0000058,52 C35.0000058,51.4477153 35.4477211,51 36.0000058,51 Z M61.0071651,44.4851763 C59.9992958,46.9159131 57.6277975,48.499999 54.9977017,48.499999 C51.411542,48.4959437 48.5040757,45.5881427 48.5000097,42.0000419 C48.5000097,39.3706365 50.0850825,36.9985549 52.5124945,35.9958033 C54.9416543,34.9883136 57.7369329,35.5446669 59.5972087,37.4051547 C61.453911,39.2620791 62.0102106,42.0565033 61.0071651,44.4851763 Z M57.4757645,39.5263512 C56.4735687,38.5240412 54.9692945,38.2246406 53.6598539,38.7677272 C52.3534073,39.3074145 51.5000087,40.5845349 51.5000087,41.9983417 C51.5021989,43.9306203 53.0692146,45.4978163 54.9994573,45.5 C56.4144303,45.5 57.6920159,44.6468455 58.2347391,43.339028 C58.774661,42.0306163 58.4748427,40.5255489 57.4757645,39.5263512 Z M77.0071651,60.4851763 C75.9992958,62.9159131 73.6277975,64.499999 70.9977017,64.499999 C67.411542,64.4959437 64.5040757,61.5881427 64.5000097,58.0000419 C64.5000097,55.3706365 66.0850825,52.9985549 68.5124945,51.9958033 C70.9416543,50.9883136 73.7369329,51.5446669 75.5972087,53.4051547 C77.453911,55.2620791 78.0102106,58.0565033 77.0071651,60.4851763 Z M73.4757645,55.5263512 C72.4735687,54.5240412 70.9692945,54.2246406 69.6598539,54.7677272 C68.3534073,55.3074145 67.5000087,56.5845349 67.5000087,57.9983417 C67.5021989,59.9306203 69.0692146,61.4978163 70.9994573,61.5 C72.4144303,61.5 73.6920159,60.6468455 74.2347391,59.339028 C74.774661,58.0306163 74.4748427,56.5255489 73.4757645,55.5263512 Z M53.560666,62.0606602 C52.9748795,62.6464466 52.0251321,62.6464466 51.4393456,62.0606602 C50.8535592,61.4748737 50.8535592,60.5251263 51.4393456,59.9393398 L73.4393456,37.9393398 C74.0251321,37.3535534 74.9748795,37.3535534 75.560666,37.9393398 C76.1464524,38.5251263 76.1464524,39.4748737 75.560666,40.0606602 L53.560666,62.0606602 Z M18.0000058,37 L30.0000058,37 C30.5522906,37 31.0000058,37.4477153 31.0000058,38 C31.0000058,38.5522847 30.5522906,39 30.0000058,39 L18.0000058,39 C17.4477211,39 17.0000058,38.5522847 17.0000058,38 C17.0000058,37.4477153 17.4477211,37 18.0000058,37 Z M18.0000058,41 L30.0000058,41 C30.5522906,41 31.0000058,41.4477153 31.0000058,42 C31.0000058,42.5522847 30.5522906,43 30.0000058,43 L18.0000058,43 C17.4477211,43 17.0000058,42.5522847 17.0000058,42 C17.0000058,41.4477153 17.4477211,41 18.0000058,41 Z M18.0000058,45 L30.0000058,45 C30.5522906,45 31.0000058,45.4477153 31.0000058,46 C31.0000058,46.5522847 30.5522906,47 30.0000058,47 L18.0000058,47 C17.4477211,47 17.0000058,46.5522847 17.0000058,46 C17.0000058,45.4477153 17.4477211,45 18.0000058,45 Z M18.0000058,49 L25.0000058,49 C25.5522906,49 26.0000058,49.4477153 26.0000058,50 C26.0000058,50.5522847 25.5522906,51 25.0000058,51 L18.0000058,51 C17.4477211,51 17.0000058,50.5522847 17.0000058,50 C17.0000058,49.4477153 17.4477211,49 18.0000058,49 Z" id="Coupon-2" fill="#2F313A" fill-rule="nonzero" transform="translate(50.000008, 50.000000) rotate(-45.000000) translate(-50.000008, -50.000000) "></path>
    </g>
</svg>