<?xml version="1.0" encoding="UTF-8"?>
<svg width="100px" height="100px" viewBox="0 0 100 100" version="1.1" xmlns="http://www.w3.org/2000/svg" xmlns:xlink="http://www.w3.org/1999/xlink">
    <!-- Generator: Sketch 59.1 (86144) - https://sketch.com -->
    <title>Vector Files/100x100/Flattened/Misc/Coupon 1</title>
    <desc>Created with Sketch.</desc>
    <g id="100x100/Flattened/Misc/Coupon-1" stroke="none" stroke-width="1" fill="none" fill-rule="evenodd">
        <path d="M47.4856046,45.8200704 C46.4690182,48.3037415 44.0770088,49.922324 41.4241652,49.922324 C37.8069888,49.9181804 34.8743758,46.9470562 34.8702746,43.2808172 C34.8702746,40.5941513 36.4690568,38.1704128 38.9174634,37.1458243 C41.367633,36.1163945 44.1870881,36.6848634 46.0634534,38.5858672 C47.9362144,40.4832298 48.4973254,43.3385082 47.4856046,45.8200704 Z M43.9236608,40.753257 C42.912797,39.7291196 41.3955123,39.423199 40.0747463,39.9781124 C38.7570003,40.5295525 37.8962207,41.8344847 37.8962207,43.27908 C37.8984298,45.2534379 39.4789986,46.8547628 41.425936,46.856994 C42.8531471,46.856994 44.1417826,45.9852603 44.6891998,44.6489625 C45.2337915,43.3120575 44.9313801,41.7742142 43.9236608,40.753257 Z M63.6239888,63.1902796 C62.6074024,65.6739506 60.2153929,67.2925332 57.5625494,67.2925332 C53.945373,67.2883896 51.01276,64.3172654 51.0086588,60.6510264 C51.0086588,57.9643605 52.6074409,55.540622 55.0558476,54.5160335 C57.5060172,53.4866036 60.3254722,54.0550726 62.2018376,55.9560764 C64.0745986,57.853439 64.6357095,60.7087174 63.6239888,63.1902796 Z M60.062045,58.1234661 C59.0511812,57.0993288 57.5338965,56.7934082 56.2131305,57.3483216 C54.8953845,57.8997617 54.0346048,59.2046939 54.0346048,60.6492892 C54.036814,62.6236471 55.6173828,64.224972 57.5643202,64.2272032 C58.9915313,64.2272032 60.2801667,63.3554695 60.827584,62.0191716 C61.3721756,60.6822667 61.0697643,59.1444234 60.062045,58.1234661 Z M39.9747006,63.7782958 C39.3838477,64.3768389 38.4258858,64.3768389 37.8350329,63.7782958 C37.24418,63.1797527 37.24418,62.2093226 37.8350329,61.6107795 L60.0253111,39.1316852 C60.6161641,38.5331421 61.5741259,38.5331421 62.1649788,39.1316852 C62.7558317,39.7302283 62.7558317,40.7006585 62.1649788,41.2992016 L39.9747006,63.7782958 Z M73.5759386,34.7738747 C73.4528695,33.9366382 74.0230963,33.1568582 74.8495757,33.0321873 C75.6760552,32.9075164 76.4458164,33.485165 76.5688855,34.3224014 C76.663037,34.9629118 76.9938146,35.5432922 77.4943102,35.9461462 L83.9032295,41.1047499 C86.0990833,42.8722148 86.6473196,46.0218848 85.1806337,48.4435596 L80.8998972,55.5115705 C80.5655991,56.063537 80.4507212,56.7235213 80.5785006,57.358025 L82.2147342,65.4829366 C82.7753482,68.2667317 81.1967648,71.036505 78.5365955,71.9365775 L70.7725036,74.5635704 C70.1661777,74.7687217 69.659397,75.1994958 69.3546707,75.7687579 L65.4526068,83.058241 C64.1156635,85.5557977 61.1488971,86.6496666 58.5399671,85.6069829 L50.9254247,82.5637585 C50.3307776,82.3261021 49.6692224,82.3261021 49.0745753,82.5637585 L41.4600329,85.6069829 C38.8511029,86.6496666 35.8843365,85.5557977 34.5473932,83.058241 L30.6453293,75.7687579 C30.340603,75.1994958 29.8338223,74.7687217 29.2274964,74.5635704 L21.4634045,71.9365775 C18.8032352,71.036505 17.2246518,68.2667317 17.7852658,65.4829366 L19.4214994,57.358025 C19.5492788,56.7235213 19.4344009,56.063537 19.1001028,55.5115705 L14.8193663,48.4435596 C13.3526804,46.0218848 13.9009167,42.8722148 16.0967705,41.1047499 L22.5056898,35.9461462 C23.0061854,35.5432922 23.336963,34.9629118 23.4311145,34.3224014 L24.6367376,26.1205733 C25.0498138,23.3104247 27.4683439,21.2546236 30.2719731,21.3305055 L38.4547735,21.5519776 C39.0937979,21.5692732 39.7154564,21.3400631 40.194003,20.9107108 L46.3218612,15.4127919 C48.4214166,13.5290694 51.5785834,13.5290694 53.6781388,15.4127919 L59.805997,20.9107108 C60.2845436,21.3400631 60.9062021,21.5692732 61.5452265,21.5519776 L69.7280269,21.3305055 C72.5316561,21.2546236 74.9501862,23.3104247 75.3632624,26.1205733 L75.8844877,29.6664577 C76.0075568,30.5036942 75.43733,31.2834742 74.6108506,31.4081451 C73.7843711,31.532816 73.0146099,30.9551675 72.8915408,30.117931 L72.3703155,26.5720465 C72.1825536,25.2947063 71.0832217,24.3602512 69.8088448,24.394743 L61.6260444,24.6162152 C60.2201907,24.6542654 58.852542,24.1500031 57.7997395,23.205428 L51.6718813,17.7075092 C50.7175379,16.8512717 49.2824621,16.8512717 48.3281187,17.7075092 L42.2002605,23.205428 C41.147458,24.1500031 39.7798093,24.6542654 38.3739556,24.6162152 L30.1911552,24.394743 C28.9167783,24.3602512 27.8174464,25.2947063 27.6296845,26.5720465 L26.4240614,34.7738747 C26.2169282,36.1829975 25.4892175,37.4598344 24.3881271,38.3461132 L17.9792078,43.504717 C16.9810924,44.3081101 16.7318941,45.7397783 17.3985695,46.8405395 L21.679306,53.9085504 C22.4147619,55.1228767 22.6674932,56.5748421 22.3863785,57.9707502 L20.7501449,66.0956619 C20.4953204,67.3610233 21.2128583,68.6200111 22.4220262,69.029135 L30.186118,71.6561278 C31.5200352,72.1074608 32.6349526,73.0551639 33.3053504,74.3075404 L37.2074143,81.5970236 C37.8151158,82.7322766 39.163646,83.2294897 40.3495233,82.7555426 L47.9640657,79.7123182 C49.2722893,79.1894741 50.7277107,79.1894741 52.0359343,79.7123182 L59.6504767,82.7555426 C60.836354,83.2294897 62.1848842,82.7322766 62.7925857,81.5970236 L66.6946496,74.3075404 C67.3650474,73.0551639 68.4799648,72.1074608 69.813882,71.6561278 L77.5779738,69.029135 C78.7871417,68.6200111 79.5046796,67.3610233 79.2498551,66.0956619 L77.6136215,57.9707502 C77.3325068,56.5748421 77.5852381,55.1228767 78.320694,53.9085504 L82.6014305,46.8405395 C83.2681059,45.7397783 83.0189076,44.3081101 82.0207922,43.504717 L75.6118729,38.3461132 C74.5107825,37.4598344 73.7830718,36.1829975 73.5759386,34.7738747 Z M32.7220335,30.0850217 L31.9111308,35.6015757 C31.8290847,36.1597333 31.3159106,36.5448323 30.7649242,36.4617184 C30.2139379,36.3786045 29.8337867,35.8587511 29.9158328,35.3005935 L30.858309,28.8889481 C30.9334138,28.378012 31.3731465,28.00423 31.8828973,28.0180267 L38.279668,28.191159 C40.580156,28.253423 42.8181266,27.4282666 44.5408943,25.8825981 L49.3312475,21.5846898 C49.7129848,21.2421948 50.2870152,21.2421948 50.6687525,21.5846898 L55.4591057,25.8825981 C57.1818734,27.4282666 59.419844,28.253423 61.720332,28.191159 L68.1171027,28.0180267 C68.6268535,28.00423 69.0665862,28.378012 69.141691,28.8889481 L70.0841672,35.3005935 C70.4231125,37.6064309 71.6139117,39.6958004 73.4156961,41.1460747 L78.4257642,45.1787291 C78.8250103,45.5000863 78.9246897,46.0727536 78.6580195,46.5130581 L75.3116236,52.0383604 C74.1081502,54.0254397 73.6945899,56.4013831 74.1545958,58.6855964 L75.4336947,65.0371135 C75.5356245,65.5432581 75.2486094,66.0468532 74.7649422,66.2105028 L68.69549,68.2641116 C66.5127165,69.0026565 64.6883062,70.5534433 63.5912916,72.6027867 L60.5409168,78.3012213 C60.2978362,78.7553225 59.7584241,78.9542077 59.2840732,78.7646289 L53.3315289,76.3856378 C51.1907993,75.5300749 48.8092007,75.5300749 46.6684711,76.3856378 L40.7159268,78.7646289 C40.2415759,78.9542077 39.7021638,78.7553225 39.4590832,78.3012213 L36.4087084,72.6027867 C35.3116938,70.5534433 33.4872835,69.0026565 31.30451,68.2641116 L25.2350578,66.2105028 C24.7513906,66.0468532 24.4643755,65.5432581 24.5663053,65.0371135 L25.8454042,58.6855964 C26.3054101,56.4013831 25.8918498,54.0254397 24.6883764,52.0383604 L21.3419805,46.5130581 C21.0753103,46.0727536 21.1749897,45.5000863 21.5742358,45.1787291 L26.5843039,41.1460747 C27.020449,40.7950171 27.6549465,40.868596 28.0014936,41.3104177 C28.3480407,41.7522395 28.2754072,42.3949952 27.8392621,42.7460527 L23.5286196,46.2157324 L26.4078452,50.9696803 C27.8787572,53.3983329 28.3842197,56.3022636 27.8219904,59.0940799 L26.7214587,64.5588998 L31.9435911,66.3258166 C34.6114254,67.2284825 36.8412602,69.1238887 38.1820558,71.6286418 L40.8065861,76.531552 L45.9281314,74.4846777 C48.5445787,73.4389896 51.4554213,73.4389896 54.0718686,74.4846777 L59.1934139,76.531552 L61.8179442,71.6286418 C63.1587398,69.1238887 65.3885746,67.2284825 68.0564089,66.3258166 L73.2785413,64.5588998 L72.1780096,59.0940799 C71.6157803,56.3022636 72.1212428,53.3983329 73.5921548,50.9696803 L76.4713804,46.2157324 L72.1607379,42.7460527 C69.958557,40.9734952 68.5031357,38.4198213 68.0888692,35.6015757 L67.2779665,30.0850217 L61.7742106,30.233984 C58.9625031,30.3100845 56.2272057,29.3015599 54.1216007,27.4124096 L50,23.7145065 L45.8783993,27.4124096 C43.7727943,29.3015599 41.0374969,30.3100845 38.2257894,30.233984 L32.7220335,30.0850217 Z" id="Coupon-1" fill="#2F313A" fill-rule="nonzero"></path>
    </g>
</svg>