<?xml version="1.0" encoding="UTF-8"?>
<svg width="100px" height="100px" viewBox="0 0 100 100" version="1.1" xmlns="http://www.w3.org/2000/svg" xmlns:xlink="http://www.w3.org/1999/xlink">
    <!-- Generator: Sketch 59.1 (86144) - https://sketch.com -->
    <title>Vector Files/100x100/Flattened/Misc/Custom Brand</title>
    <desc>Created with Sketch.</desc>
    <g id="100x100/Flattened/Misc/Custom-Brand" stroke="none" stroke-width="1" fill="none" fill-rule="evenodd">
        <path d="M70.9419595,12 C73.3719779,12 74.6245717,15.3676509 75.6845769,21.6729443 C76.5448931,26.7904157 77.0569595,33.3647733 77.0569595,39.425 C77.0569595,46.2275509 76.4728237,49.9570363 74.949995,51.8161904 C76.2937535,53.4282639 77.0925595,55.8732961 77.0925595,58.5154 C77.0925595,59.6656901 76.7883317,60.9647343 76.2329933,62.39584 C75.8239206,63.4500194 75.2866528,64.55401 74.6504821,65.685721 L74.4474983,65.2202073 C76.7715087,70.4887048 77.6299277,75.370364 77.4479988,81.5267975 L86.777,52.099 L78.3159182,49.4171631 C77.7894455,49.2502951 77.4979283,48.6882314 77.6647964,48.1617587 C77.8316645,47.635286 78.3937282,47.3437688 78.9202009,47.5106369 L87.381,50.192 L89.4491677,43.6697336 C89.7261547,42.7978539 89.2426748,41.8654863 88.3694433,41.5887617 L78.7774433,38.5477617 C77.9877525,38.297402 77.5505382,37.4542746 77.8008979,36.6645838 C78.0512575,35.874893 78.894385,35.4376787 79.6840758,35.6880383 L89.2758967,38.7289816 C91.7289087,39.5063341 93.0873439,42.1260105 92.3086323,44.5771813 L79.7124302,84.3118183 C78.9338409,86.7640796 76.3160587,88.1219886 73.8634408,87.3447609 L11.2526224,67.4948184 C8.79988612,66.7175532 7.44158486,64.0994709 8.21895329,61.646409 L9.98495329,56.078409 C10.2354094,55.2887488 11.0785903,54.8516376 11.8682505,55.1020937 C12.6579107,55.3525499 13.095022,56.1957308 12.8445658,56.985391 L11.078678,62.5530371 C10.8019732,63.4262061 11.2855099,64.3582078 12.1590783,64.6350391 L55.8256379,78.4788793 C59.5763834,78.1006512 61.9478397,77.0852612 63.7812082,74.8597398 C66.220688,71.8963639 67.484228,67.8538667 67.0331159,64.2651338 C66.714493,63.628089 66.4359987,63.0036841 66.2001258,62.39584 C65.6447874,60.9647343 65.3405595,59.6656901 65.3405595,58.5154 C65.3405595,56.0471717 66.0366165,53.7479996 67.2274283,52.1391983 C65.484593,50.4065871 64.8259595,46.6483232 64.8259595,39.425 C64.8259595,37.6980568 64.867541,35.9293866 64.9469144,34.1645927 L25.7580224,21.7392184 C24.8847737,21.4624884 23.952341,21.9461645 23.6750398,22.8195577 L21.910029,28.3875917 L21.608,29.34 L45.9157565,37.0469545 C46.4422195,37.2138533 46.7337038,37.775934 46.566805,38.302397 C46.3999063,38.8288599 45.8378255,39.1203443 45.3113626,38.9534455 L21.003,31.247 L16.891029,44.2195917 C16.6406829,45.0092868 15.7975629,45.4465155 15.0078678,45.1961694 C14.2181727,44.9458233 13.780944,44.1027034 14.0312901,43.3130083 L19.0502793,27.4810423 L20.8154889,21.9123817 C21.5940782,19.4601204 24.2118604,18.1022114 26.6644763,18.8794385 L65.1248379,31.0721908 C65.360196,27.7178121 65.727054,24.4766604 66.1984733,21.6729081 C67.2585974,15.367851 68.5115847,12 70.9419595,12 Z M68.9927653,67.6895419 L68.9877876,67.734919 C68.5833993,70.7508305 67.2905157,73.7436133 65.32509,76.1311284 C63.8422336,77.9311641 62.0926192,79.06697 59.8380943,79.7515015 L74.7698967,84.4849816 C74.9390212,84.5385767 75.1103657,84.5636495 75.2787411,84.5628929 L75.2450138,84.9767545 C75.8171371,78.1112745 75.3484235,73.0666439 73.3546346,67.8208676 C73.1716253,68.1032324 72.9876068,68.3786734 72.8035708,68.6474744 C72.5982756,68.9473264 72.4073311,69.2177493 72.2354655,69.4546183 C72.1310561,69.5985177 72.0552778,69.7004605 72.0128675,69.7562914 C71.612691,70.2831029 70.820428,70.2831029 70.4202515,69.7562914 C70.3778413,69.7004605 70.302063,69.5985177 70.1976536,69.4546183 C70.025788,69.2177493 69.8348435,68.9473264 69.6295483,68.6474744 C69.416661,68.3365335 69.2037971,68.0167077 68.9927653,67.6895419 Z M73.3393069,53.00646 L73.3095934,53.0196348 C72.6312632,53.2890075 71.8459224,53.404 70.9419595,53.404 C70.208106,53.404 69.5524203,53.3282523 68.9686907,53.1556924 C67.9747447,54.3849098 67.3405595,56.3487756 67.3405595,58.5154 C67.3405595,59.3817855 67.5913065,60.4524677 68.0646639,61.6723088 C68.2912475,62.256214 68.5644445,62.8637236 68.8775706,63.4880678 L68.8891986,63.5099112 C68.8922257,63.5156856 68.8951989,63.5214956 68.8981174,63.5273405 C69.1266338,63.9827024 69.3773638,64.4474219 69.6466648,64.9183949 C70.1459112,65.7915129 70.6806426,66.6374665 71.2165595,67.4249308 C71.7524764,66.6374665 72.2872079,65.7915129 72.7864543,64.9183949 C73.4326591,63.7882654 73.971934,62.694143 74.3684551,61.6723088 C74.8418126,60.4524677 75.0925595,59.3817855 75.0925595,58.5154 C75.0925595,56.2533891 74.3997557,54.2179115 73.3393069,53.00646 Z M22.6667466,47.5103514 L37.9187466,52.3453514 C38.4452113,52.5122447 38.7367015,53.0743224 38.5698082,53.6007871 C38.4029149,54.1272518 37.8408372,54.418742 37.3143725,54.2518486 L22.0623725,49.4168486 C21.5359078,49.2499553 21.2444176,48.6878776 21.4113109,48.1614129 C21.5782042,47.6349482 22.1402819,47.343458 22.6667466,47.5103514 Z M14.4254349,47.0335571 C15.2151154,47.2839494 15.6522948,48.127095 15.4019025,48.9167754 L14.3549025,52.2187754 C14.1045101,53.0084558 13.2613646,53.4456352 12.4716842,53.1952429 C11.6820037,52.9448506 11.2448243,52.101705 11.4952166,51.3120246 L12.5422166,48.0100246 C12.7926089,47.2203442 13.6357545,46.7831648 14.4254349,47.0335571 Z M73.8475609,45.0418978 L68.0353691,45.0419357 C68.232124,47.2057493 68.5629743,48.6565657 69.0085127,49.5133035 C69.4095549,50.2844785 69.7043841,50.404 70.9419595,50.404 C72.1789052,50.404 72.4735198,50.284535 72.874489,49.513385 C73.3199888,48.6565931 73.6508174,47.2057252 73.8475609,45.0418978 Z M24.1774466,42.7437514 L39.4294466,47.5787514 C39.9559113,47.7456447 40.2474015,48.3077224 40.0805082,48.8341871 C39.9136149,49.3606518 39.3515372,49.652142 38.8250725,49.4852486 L23.5730725,44.6502486 C23.0466078,44.4833553 22.7551176,43.9212776 22.9220109,43.3948129 C23.0889042,42.8683482 23.6509819,42.576858 24.1774466,42.7437514 Z M25.6882466,37.9776514 L40.9402466,42.8126514 C41.4667113,42.9795447 41.7582015,43.5416224 41.5913082,44.0680871 C41.4244149,44.5945518 40.8623372,44.886042 40.3358725,44.7191486 L25.0838725,39.8841486 C24.5574078,39.7172553 24.2659176,39.1551776 24.4328109,38.6287129 C24.5997042,38.1022482 25.1617819,37.810758 25.6882466,37.9776514 Z M51.6351452,38.8601509 L61.0671452,41.8501509 C61.5936101,42.0170434 61.8851012,42.5791207 61.7182086,43.1055856 C61.5513161,43.6320506 60.9892389,43.9235416 60.4627739,43.7566491 L51.0307739,40.7666491 C50.504309,40.5997566 50.2128179,40.0376793 50.3797104,39.5112144 C50.546603,38.9847494 51.1086802,38.6932584 51.6351452,38.8601509 Z M70.9417332,15.4640378 C70.8164689,15.7078043 70.6844024,16.011845 70.5507838,16.3709926 C70.0488603,17.7200912 69.569971,19.7138865 69.1569458,22.1703419 C68.3251507,27.117419 67.8259595,33.5260434 67.8259595,39.425 C67.8259595,40.7658397 67.8515988,41.9684457 67.9014731,43.0414234 L73.9814496,43.0413834 C74.0313213,41.96841 74.0569595,40.7658164 74.0569595,39.425 C74.0569595,33.5262561 73.5577993,27.1175999 72.7260922,22.1703057 C72.3131293,19.7138532 71.8343256,17.7200181 71.3325136,16.3708756 C71.1989528,16.0117917 71.0669439,15.7077904 70.9417332,15.4640378 Z M39.3012622,27.943842 C40.6162564,28.3613402 41.3449448,29.7661432 40.9286003,31.0814418 C40.5112691,32.3984088 39.1053305,33.1276718 37.7897875,32.7099994 C36.4735233,32.2924949 35.7448845,30.887401 36.1623601,29.5712279 C36.5798646,28.2549638 37.9849585,27.526325 39.3012622,27.943842 Z M37.115559,29.8735721 C36.8650831,30.6632459 37.3022426,31.5062565 38.0922622,31.756842 C38.8812339,32.007333 39.7248546,31.5697454 39.975271,30.7795091 C40.2249866,29.9906179 39.7876238,29.1474475 38.9987875,28.8969994 C38.2091136,28.6465236 37.366103,29.0836831 37.115559,29.8735721 Z M33.5815622,26.130342 C34.8966547,26.5478714 35.6251508,27.9526902 35.208859,29.2690721 C34.7913545,30.5853362 33.3862605,31.313975 32.0700875,30.8964994 C30.7538233,30.4789949 30.0251845,29.073901 30.4426601,27.7577279 C30.8601646,26.4414638 32.2652585,25.712825 33.5815622,26.130342 Z M31.395859,28.0600721 C31.1453831,28.8497459 31.5825426,29.6927565 32.3724316,29.9433006 C33.1621055,30.1937764 34.005116,29.7566169 34.2555298,28.9671393 C34.5053198,28.177263 34.0680175,27.3339772 33.2790875,27.0834994 C32.4894136,26.8330236 31.646403,27.2701831 31.395859,28.0600721 Z M27.8616316,24.3173006 C29.1778957,24.7348051 29.9065346,26.139899 29.489059,27.4560721 C29.0715856,28.772238 27.6665073,29.5010692 26.3514178,29.0835407 C25.0342821,28.6661562 24.3053043,27.2611539 24.7228601,25.9447279 C25.1403646,24.6284638 26.5454585,23.899825 27.8616316,24.3173006 Z M25.676059,26.2470721 C25.425546,27.0368629 25.862854,27.8797126 26.6537622,28.130342 C27.4424506,28.3807431 28.2853458,27.9435231 28.5358601,27.1537279 C28.786336,26.3640541 28.3491764,25.5210435 27.5592875,25.2704994 C26.7696136,25.0200236 25.926603,25.4571831 25.676059,26.2470721 Z" id="Custom-Brand" fill="#2F313A" fill-rule="nonzero"></path>
    </g>
</svg>