<?xml version="1.0" encoding="UTF-8"?>
<svg width="100px" height="100px" viewBox="0 0 100 100" version="1.1" xmlns="http://www.w3.org/2000/svg" xmlns:xlink="http://www.w3.org/1999/xlink">
    <!-- Generator: Sketch 59.1 (86144) - https://sketch.com -->
    <title>Vector Files/100x100/Flattened/Misc/Data</title>
    <desc>Created with Sketch.</desc>
    <g id="100x100/Flattened/Misc/Data" stroke="none" stroke-width="1" fill="none" fill-rule="evenodd">
        <path d="M32.7071068,24 L29.8535534,26.8535534 C29.6582912,27.0488155 29.3417088,27.0488155 29.1464466,26.8535534 C28.9511845,26.6582912 28.9511845,26.3417088 29.1464466,26.1464466 L31.2928932,24 L16.0057432,24 C14.8935606,24 14,24.8812944 14,25.958 L14,72 L86,72 L86,30.7071068 L76.5172049,40.1899019 C78.0742747,42.2140268 79.0001,44.7489198 79.0001,47.5 C79.0001,54.1272847 73.6273847,59.5 67.0001,59.5 C60.3728153,59.5 55.0001,54.1272847 55.0001,47.5 C55.0001,45.7856912 55.3600918,44.1219378 56.0478558,42.5903532 C56.2740975,42.0865346 56.8659282,41.8615141 57.3697468,42.0877558 C57.8735654,42.3139975 58.0985859,42.9058282 57.8723442,43.4096468 C57.2997072,44.6848546 57.0001,46.0695321 57.0001,47.5 C57.0001,53.0227153 61.4773847,57.5 67.0001,57.5 C72.3551531,57.5 76.7272878,53.2904374 76.9878166,48 L68,48 L68,56 C68,56.5522847 67.5522847,57 67,57 C66.4477153,57 66,56.5522847 66,56 L66,47 C66,46.4477153 66.4477153,46 67,46 L76.888342,46 C76.6445699,44.3795273 76.0119315,42.8863773 75.0884918,41.618615 L72.8535534,43.8535534 C72.6582912,44.0488155 72.3417088,44.0488155 72.1464466,43.8535534 C71.9511845,43.6582912 71.9511845,43.3417088 72.1464466,43.1464466 L74.4564645,40.8364287 C72.6252916,38.7888167 69.9631629,37.5 67.0001,37.5 C64.1881843,37.5 61.5652282,38.6654109 59.6844037,40.682052 C59.3077168,41.0859398 58.6749359,41.1079906 58.271048,40.7313037 C57.8671602,40.3546168 57.8451094,39.7218359 58.2217963,39.317948 C60.4770212,36.8998707 63.6276689,35.5 67.0001,35.5 C70.5154228,35.5 73.6777625,37.011656 75.8725221,39.4203711 L86,29.2928932 L86,25.958 C86,25.6011961 85.9018729,25.2658515 85.7301805,24.9769263 L82.8535534,27.8535534 C82.6582912,28.0488155 82.3417088,28.0488155 82.1464466,27.8535534 C81.9511845,27.6582912 81.9511845,27.3417088 82.1464466,27.1464466 L85.0186877,24.2742055 C84.719298,24.1001618 84.3692009,24 83.9942568,24 L32.7071068,24 Z M11,72 L11,25.958 C11,23.215087 13.2459176,21 16.0057432,21 L83.9942568,21 C86.7540824,21 89,23.215087 89,25.958 L89,72 L93.5,72 C94.3284271,72 95,72.6715729 95,73.5 L95,78.5 C95,79.3284271 94.3284271,80 93.5,80 L6.5,80 C5.67157288,80 5,79.3284271 5,78.5 L5,73.5 C5,72.6715729 5.67157288,72 6.5,72 L11,72 Z M8,77 L92,77 L92,75 L8,75 L8,77 Z M23,46 L23,52 C23,52.5522847 22.5522847,53 22,53 C21.4477153,53 21,52.5522847 21,52 L21,45 C21,44.4477153 21.4477153,44 22,44 L28,44 C28.5522847,44 29,44.4477153 29,45 L29,62 C29,62.5522847 28.5522847,63 28,63 L22,63 C21.4477153,63 21,62.5522847 21,62 L21,55 C21,54.4477153 21.4477153,54 22,54 C22.5522847,54 23,54.4477153 23,55 L23,61 L27,61 L27,46 L23,46 Z M33,40 L33,53 C33,53.5522847 32.5522847,54 32,54 C31.4477153,54 31,53.5522847 31,53 L31,39 C31,38.4477153 31.4477153,38 32,38 L38,38 C38.5522847,38 39,38.4477153 39,39 L39,62 C39,62.5522847 38.5522847,63 38,63 L32,63 C31.4477153,63 31,62.5522847 31,62 L31,57 C31,56.4477153 31.4477153,56 32,56 C32.5522847,56 33,56.4477153 33,57 L33,61 L37,61 L37,40 L33,40 Z M43,44 C43,44.5522847 42.5522847,45 42,45 C41.4477153,45 41,44.5522847 41,44 L41,43 C41,42.4477153 41.4477153,42 42,42 C42.5522847,42 43,42.4477153 43,43 L43,44 Z M43,34 L43,40 C43,40.5522847 42.5522847,41 42,41 C41.4477153,41 41,40.5522847 41,40 L41,33 C41,32.4477153 41.4477153,32 42,32 L48,32 C48.5522847,32 49,32.4477153 49,33 L49,62 C49,62.5522847 48.5522847,63 48,63 L42,63 C41.4477153,63 41,62.5522847 41,62 L41,48 C41,47.4477153 41.4477153,47 42,47 C42.5522847,47 43,47.4477153 43,48 L43,61 L47,61 L47,34 L43,34 Z M80.1464466,29.1464466 C80.3417088,28.9511845 80.6582912,28.9511845 80.8535534,29.1464466 C81.0488155,29.3417088 81.0488155,29.6582912 80.8535534,29.8535534 L78.8535534,31.8535534 C78.6582912,32.0488155 78.3417088,32.0488155 78.1464466,31.8535534 C77.9511845,31.6582912 77.9511845,31.3417088 78.1464466,31.1464466 L80.1464466,29.1464466 Z M26.1464466,29.1464466 C26.3417088,28.9511845 26.6582912,28.9511845 26.8535534,29.1464466 C27.0488155,29.3417088 27.0488155,29.6582912 26.8535534,29.8535534 L14.8535534,41.8535534 C14.6582912,42.0488155 14.3417088,42.0488155 14.1464466,41.8535534 C13.9511845,41.6582912 13.9511845,41.3417088 14.1464466,41.1464466 L26.1464466,29.1464466 Z M73,61 C73.5522847,61 74,61.4477153 74,62 C74,62.5522847 73.5522847,63 73,63 L61,63 C60.4477153,63 60,62.5522847 60,62 C60,61.4477153 60.4477153,61 61,61 L73,61 Z" id="Data" fill="#2F313A" fill-rule="nonzero"></path>
    </g>
</svg>