<?xml version="1.0" encoding="UTF-8"?>
<svg width="100px" height="100px" viewBox="0 0 100 100" version="1.1" xmlns="http://www.w3.org/2000/svg" xmlns:xlink="http://www.w3.org/1999/xlink">
    <!-- Generator: Sketch 59.1 (86144) - https://sketch.com -->
    <title>Vector Files/100x100/Flattened/Misc/Location</title>
    <desc>Created with Sketch.</desc>
    <g id="100x100/Flattened/Misc/Location" stroke="none" stroke-width="1" fill="none" fill-rule="evenodd">
        <path d="M51.2187287,82.1268547 C50.9449895,82.3673607 50.5930637,82.5 50.2286789,82.5 L49.7713211,82.5 C49.4069363,82.5 49.0550105,82.3673607 48.7812713,82.1268547 C48.6091197,81.975603 48.301831,81.6928458 47.8786752,81.283367 C47.1825825,80.6097729 46.4093931,79.8191876 45.5783888,78.9163382 C43.2107779,76.3440335 40.8453761,73.3807911 38.6370289,70.0634654 C32.3069809,60.5546206 28.5,50.0879517 28.5,38.971 C28.5,26.4082101 37.6556158,17.5 49.7713211,17.5 L50.2286789,17.5 C62.3443842,17.5 71.5,26.4082101 71.5,38.971 C71.5,50.0879517 67.6930191,60.5546206 61.3629711,70.0634654 C59.1546239,73.3807911 56.7892221,76.3440335 54.4216112,78.9163382 C53.5906069,79.8191876 52.8174175,80.6097729 52.1213248,81.283367 C51.698169,81.6928458 51.3908803,81.975603 51.2187287,82.1268547 Z M50,80.7397223 L50.2286789,80.4794446 L50.2286789,79.5 L49.7713211,79.5 L49.7713211,80.4794446 L50,80.7397223 Z M50.0351309,79.1274924 C50.6905934,78.4932154 51.4234225,77.7438984 52.2142845,76.8846618 C54.4805769,74.4224352 56.7490785,71.5805839 58.8657078,68.4010346 C64.8927355,59.3473794 68.5,49.4297983 68.5,38.971 C68.5,28.0837352 60.7056435,20.5 50.2286789,20.5 L49.7713211,20.5 C39.2943565,20.5 31.5,28.0837352 31.5,38.971 C31.5,49.4297983 35.1072645,59.3473794 41.1342922,68.4010346 C43.2509215,71.5805839 45.5194231,74.4224352 47.7857155,76.8846618 C48.5765775,77.7438984 49.3094066,78.4932154 49.9648691,79.1274924 C49.9766871,79.1389285 49.9883976,79.1502485 50,79.1614522 C50.0116024,79.1502485 50.0233129,79.1389285 50.0351309,79.1274924 Z M40.1898295,56.5557914 C40.4104719,57.0620871 40.1789043,57.651387 39.6726086,57.8720295 C39.1663129,58.0926719 38.577013,57.8611043 38.3563705,57.3548086 C37.7714871,56.01271 37.2462679,54.6520887 36.7839674,53.273175 C36.6084099,52.7495358 36.8905858,52.1827249 37.414225,52.0071674 C37.9378642,51.8316099 38.5046751,52.1137858 38.6802326,52.637425 C39.123737,53.9602749 39.6279524,55.2664842 40.1898295,56.5557914 Z M49.3102076,71.0236842 C49.6648384,71.4470699 49.6091015,72.0777769 49.1857158,72.4324076 C48.7623301,72.7870384 48.1316231,72.7313015 47.7769924,72.3079158 C44.9885387,68.9788436 42.4765074,65.3878932 40.3635765,61.4727301 C40.1012798,60.9867066 40.2826463,60.3800732 40.7686699,60.1177765 C41.2546934,59.8554798 41.8613268,60.0368463 42.1236235,60.5228699 C44.1672922,64.3096933 46.6032995,67.7919673 49.3102076,71.0236842 Z M58.5,39 C58.5,34.3053528 54.6943681,30.5 50,30.5 C45.3049614,30.5 41.5,34.3049614 41.5,39 C41.5,43.6943681 45.3053528,47.5 50,47.5 C54.6939768,47.5 58.5,43.6939768 58.5,39 Z M61.5,39 C61.5,45.350831 56.350831,50.5 50,50.5 C43.6484492,50.5 38.5,45.3511731 38.5,39 C38.5,32.6481072 43.6481072,27.5 50,27.5 C56.3511731,27.5 61.5,32.6484492 61.5,39 Z" id="Location" fill="#2F313A" fill-rule="nonzero"></path>
    </g>
</svg>