<?xml version="1.0" encoding="UTF-8"?>
<svg width="100px" height="100px" viewBox="0 0 100 100" version="1.1" xmlns="http://www.w3.org/2000/svg" xmlns:xlink="http://www.w3.org/1999/xlink">
    <!-- Generator: Sketch 59.1 (86144) - https://sketch.com -->
    <title>Vector Files/100x100/Flattened/Misc/Mobile Devices</title>
    <desc>Created with Sketch.</desc>
    <g id="100x100/Flattened/Misc/Mobile-Devices" stroke="none" stroke-width="1" fill="none" fill-rule="evenodd">
        <path d="M80,48.5857864 L80,44.4142136 L68.2071068,56.2071068 C67.8165825,56.5976311 67.1834175,56.5976311 66.7928932,56.2071068 C66.4023689,55.8165825 66.4023689,55.1834175 66.7928932,54.7928932 L80,41.5857864 L80,30.1279 L58.0005,30.1279 L58.0005,70.5852864 L70.7928932,57.7928932 C71.1834175,57.4023689 71.8165825,57.4023689 72.2071068,57.7928932 C72.5976311,58.1834175 72.5976311,58.8165825 72.2071068,59.2071068 L58.3200136,73.0942 L80,73.0942 L80,51.4142136 L76.2071068,55.2071068 C75.8165825,55.5976311 75.1834175,55.5976311 74.7928932,55.2071068 C74.4023689,54.8165825 74.4023689,54.1834175 74.7928932,53.7928932 L80,48.5857864 L80,48.5857864 Z M55.0005,37.4137136 L49.2071068,43.2071068 C48.8165825,43.5976311 48.1834175,43.5976311 47.7928932,43.2071068 C47.4023689,42.8165825 47.4023689,42.1834175 47.7928932,41.7928932 L55.0005,34.5852864 L55.0005,19.689 C55.0005,17.0996928 52.9003385,15 50.3105,15 L47.5,15 L47.5,17.2632 C47.5,19.0504847 46.0502847,20.5002 44.263,20.5002 L30.737,20.5002 C28.9497153,20.5002 27.5,19.0504847 27.5,17.2632 L27.5,15 L24.6895,15 C22.0999271,15 20.0005,17.0994271 20.0005,19.689 L20.0005,79.311 C20.0005,81.9005729 22.0999271,84 24.6895,84 L50.3105,84 C52.9003385,84 55.0005,81.9003072 55.0005,79.311 L55.0005,37.4137136 Z M58.0005,25 L58.0005,28.1279 L80,28.1279 L80,25.689 C80,23.0994271 77.9005729,21 75.311,21 L58.0005,21 L58.0005,24 L67.5,24 C67.7761424,24 68,24.2238576 68,24.5 C68,24.7761424 67.7761424,25 67.5,25 L58.0005,25 L58.0005,25 Z M58.0005,75.0942 L58.0005,79.311 C58.0005,81.0760184 57.4055651,82.7021928 56.4053122,84 L75.311,84 C77.9005729,84 80,81.9005729 80,79.311 L80,75.0942 L58.0005,75.0942 Z M57.8143412,18 L75.311,18 C79.5574271,18 83,21.4425729 83,25.689 L83,79.311 C83,83.5574271 79.5574271,87 75.311,87 L24.6895,87 C20.4430729,87 17.0005,83.5574271 17.0005,79.311 L17.0005,19.689 C17.0005,15.4425729 20.4430729,12 24.6895,12 L50.3105,12 C53.9767609,12 57.0444204,14.5660992 57.8143412,18 Z M45.5,15 L29.5,15 L29.5,17.2632 C29.5,17.9459153 30.0542847,18.5002 30.737,18.5002 L44.263,18.5002 C44.9457153,18.5002 45.5,17.9459153 45.5,17.2632 L45.5,15 Z M29.6143,81.9019 C29.3381576,81.9019 29.1143,81.6780424 29.1143,81.4019 C29.1143,81.1257576 29.3381576,80.9019 29.6143,80.9019 L45.3853,80.9019 C45.6614424,80.9019 45.8853,81.1257576 45.8853,81.4019 C45.8853,81.6780424 45.6614424,81.9019 45.3853,81.9019 L29.6143,81.9019 Z M60,79.5 C60,80.8808576 61.1191424,82 62.5,82 C63.8808576,82 65,80.8808576 65,79.5 C65,78.1191424 63.8808576,77 62.5,77 C61.1191424,77 60,78.1191424 60,79.5 Z M59,79.5 C59,77.5668576 60.5668576,76 62.5,76 C64.4331424,76 66,77.5668576 66,79.5 C66,81.4331424 64.4331424,83 62.5,83 C60.5668576,83 59,81.4331424 59,79.5 Z M37.7928932,51.7928932 C38.1834175,51.4023689 38.8165825,51.4023689 39.2071068,51.7928932 C39.5976311,52.1834175 39.5976311,52.8165825 39.2071068,53.2071068 L24.5481068,67.8661068 C24.1575825,68.2566311 23.5244175,68.2566311 23.1338932,67.8661068 C22.7433689,67.4755825 22.7433689,66.8424175 23.1338932,66.4518932 L37.7928932,51.7928932 Z M44.7928932,44.7928932 C45.1834175,44.4023689 45.8165825,44.4023689 46.2071068,44.7928932 C46.5976311,45.1834175 46.5976311,45.8165825 46.2071068,46.2071068 L44.2071068,48.2071068 C43.8165825,48.5976311 43.1834175,48.5976311 42.7928932,48.2071068 C42.4023689,47.8165825 42.4023689,47.1834175 42.7928932,46.7928932 L44.7928932,44.7928932 Z M34.7928932,61.7928932 C35.1834175,61.4023689 35.8165825,61.4023689 36.2071068,61.7928932 C36.5976311,62.1834175 36.5976311,62.8165825 36.2071068,63.2071068 L32.7071068,66.7071068 C32.3165825,67.0976311 31.6834175,67.0976311 31.2928932,66.7071068 C30.9023689,66.3165825 30.9023689,65.6834175 31.2928932,65.2928932 L34.7928932,61.7928932 Z M51.7928932,44.7928932 C52.1834175,44.4023689 52.8165825,44.4023689 53.2071068,44.7928932 C53.5976311,45.1834175 53.5976311,45.8165825 53.2071068,46.2071068 L40.2071068,59.2071068 C39.8165825,59.5976311 39.1834175,59.5976311 38.7928932,59.2071068 C38.4023689,58.8165825 38.4023689,58.1834175 38.7928932,57.7928932 L51.7928932,44.7928932 Z M64.7928932,56.7928932 C65.1834175,56.4023689 65.8165825,56.4023689 66.2071068,56.7928932 C66.5976311,57.1834175 66.5976311,57.8165825 66.2071068,58.2071068 L64.7071068,59.7071068 C64.3165825,60.0976311 63.6834175,60.0976311 63.2928932,59.7071068 C62.9023689,59.3165825 62.9023689,58.6834175 63.2928932,58.2928932 L64.7928932,56.7928932 Z" id="Mobile-Devices" fill="#2F313A" fill-rule="nonzero"></path>
    </g>
</svg>