<?xml version="1.0" encoding="UTF-8"?>
<svg width="100px" height="100px" viewBox="0 0 100 100" version="1.1" xmlns="http://www.w3.org/2000/svg" xmlns:xlink="http://www.w3.org/1999/xlink">
    <!-- Generator: Sketch 59.1 (86144) - https://sketch.com -->
    <title>Vector Files/100x100/Flattened/Misc/Security</title>
    <desc>Created with Sketch.</desc>
    <g id="100x100/Flattened/Misc/Security" stroke="none" stroke-width="1" fill="none" fill-rule="evenodd">
        <path d="M33.1337822,79 C33.0486971,78.8529133 33,78.6821436 33,78.5 L33,68.5 C33,67.9477153 33.4477153,67.5 34,67.5 C34.5522847,67.5 35,67.9477153 35,68.5 L35,78.5 C35,78.6821436 34.9513029,78.8529133 34.8662178,79 L70,79 L70,59.0749337 C70,50.7460146 63.3207965,44 55.0885248,44 L44.9114752,44 C36.6792035,44 30,50.7460146 30,59.0749337 L30,79 L33.1337822,79 L33.1337822,79 Z M38,42.3945631 C38.978654,41.981156 40.001444,41.6528927 41.0592928,41.4189644 C41.0206922,41.2859984 41,41.1454157 41,41 L41,32.333 C41,27.4818141 45.1070071,23.5 50,23.5 C54.8929929,23.5 59,27.4818141 59,32.333 L59,41 C59,41.1454157 58.9793078,41.2859984 58.9407072,41.4189644 C59.998556,41.6528927 61.021346,41.981156 62,42.3945631 L62,31.833 C62,25.3022724 56.6315931,20 50,20 C43.3684069,20 38,25.3022724 38,31.833 L38,42.3945631 L38,42.3945631 Z M35.0742583,43.9674162 C35.0260646,43.8203223 35,43.663205 35,43.5 L35,31.833 C35,23.6370369 41.7198197,17 50,17 C58.2801803,17 65,23.6370369 65,31.833 L65,43.5 C65,43.663205 64.9739354,43.8203223 64.9257417,43.9674162 C69.7903823,47.1997204 73,52.7602679 73,59.0749337 L73,80.5 C73,81.3284271 72.3284271,82 71.5,82 L28.5,82 C27.6715729,82 27,81.3284271 27,80.5 L27,59.0749337 C27,52.7602679 30.2096177,47.1997204 35.0742583,43.9674162 Z M43.9998272,41.023 C44.3017945,41.0077277 44.6057375,41 44.9114752,41 L55.0885248,41 C55.3942625,41 55.6982055,41.0077277 56.0001728,41.023 C56.0001728,41.0153471 56,41.0076803 56,41 L56,32.333 C56,29.1598069 53.2565655,26.5 50,26.5 C46.7434345,26.5 44,29.1598069 44,32.333 L44,41 C44,41.0076803 43.9998272,41.0153471 43.9998272,41.023 L43.9998272,41.023 Z M35,63.5 C35,64.0522847 34.5522847,64.5 34,64.5 C33.4477153,64.5 33,64.0522847 33,63.5 L33,59.5 C33,58.9477153 33.4477153,58.5 34,58.5 C34.5522847,58.5 35,58.9477153 35,59.5 L35,63.5 Z M44,56.0367222 C44,52.704033 46.6846659,50 50,50 C53.3153341,50 56,52.704033 56,56.0367222 C56,58.2000777 54.8540668,60.1433002 53.067952,61.2118499 L55.617185,67.6309057 C55.8779164,68.2874365 55.3942019,69 54.687793,69 L45.312207,69 C44.6057981,69 44.1220836,68.2874365 44.382815,67.6309057 L46.932048,61.2118499 C45.1459332,60.1433002 44,58.2000777 44,56.0367222 Z M50.8688454,61.0930943 C50.6640853,60.5775013 50.9181647,59.9937707 51.4350462,59.7922854 C52.9693971,59.1941808 54,57.7154029 54,56.0367222 C54,53.8053971 52.2075337,52 50,52 C47.7924663,52 46,53.8053971 46,56.0367222 C46,57.7154029 47.0306029,59.1941808 48.5649538,59.7922854 C49.0818353,59.9937707 49.3359147,60.5775013 49.1311546,61.0930943 L46.7853145,67 L53.2146855,67 L50.8688454,61.0930943 Z" id="Security" fill="#2F313A" fill-rule="nonzero"></path>
    </g>
</svg>