<?xml version="1.0" encoding="UTF-8"?>
<svg width="40px" height="40px" viewBox="0 0 40 40" version="1.1" xmlns="http://www.w3.org/2000/svg" xmlns:xlink="http://www.w3.org/1999/xlink">
    <!-- Generator: Sketch 59.1 (86144) - https://sketch.com -->
    <title>Vector Files/40x40/Flattened/Misc/Calendar</title>
    <desc>Created with Sketch.</desc>
    <g id="40x40/Flattened/Misc/Calendar" stroke="none" stroke-width="1" fill="none" fill-rule="evenodd">
        <path d="M9,16 L31,16 L31,11 L28.5,11 L28.5,13 C28.5,13.5522847 28.0522847,14 27.5,14 C26.9477153,14 26.5,13.5522847 26.5,13 L26.5,11 L13.5,11 L13.5,13 C13.5,13.5522847 13.0522847,14 12.5,14 C11.9477153,14 11.5,13.5522847 11.5,13 L11.5,11 L9,11 L9,16 Z M9,17 L9,29.0763158 C9,30.1299863 9.90165055,31 11.03,31 L28.97,31 C30.0983494,31 31,30.1299863 31,29.0763158 L31,17 L9,17 Z M28.5,9 L32,9 C32.5522847,9 33,9.44771525 33,10 L33,29.0763158 C33,31.2508558 31.1872506,33 28.97,33 L11.03,33 C8.81274945,33 7,31.2508558 7,29.0763158 L7,10 C7,9.44771525 7.44771525,9 8,9 L11.5,9 L11.5,7 C11.5,6.44771525 11.9477153,6 12.5,6 C13.0522847,6 13.5,6.44771525 13.5,7 L13.5,9 L26.5,9 L26.5,7 C26.5,6.44771525 26.9477153,6 27.5,6 C28.0522847,6 28.5,6.44771525 28.5,7 L28.5,9 Z M19,20 C19,19.4477153 19.4477153,19 20,19 C20.5522847,19 21,19.4477153 21,20 L21,28 C21,28.5522847 20.5522847,29 20,29 C19.4477153,29 19,28.5522847 19,28 L19,20 Z" id="Calendar" fill="#2F313A" fill-rule="nonzero"></path>
    </g>
</svg>