<?xml version="1.0" encoding="UTF-8"?>
<svg width="40px" height="40px" viewBox="0 0 40 40" version="1.1" xmlns="http://www.w3.org/2000/svg" xmlns:xlink="http://www.w3.org/1999/xlink">
    <!-- Generator: Sketch 59.1 (86144) - https://sketch.com -->
    <title>Vector Files/40x40/Flattened/Misc/Calendar (Filled)</title>
    <desc>Created with Sketch.</desc>
    <g id="40x40/Flattened/Misc/Calendar-(Filled)" stroke="none" stroke-width="1" fill="none" fill-rule="evenodd">
        <path d="M28.5,9 L32,9 C32.5522847,9 33,9.44771525 33,10 L33,16 L7,16 L7,10 C7,9.44771525 7.44771525,9 8,9 L11.5,9 L11.5,7 C11.5,6.44771525 11.9477153,6 12.5,6 C13.0522847,6 13.5,6.44771525 13.5,7 L13.5,9 L26.5,9 L26.5,7 C26.5,6.44771525 26.9477153,6 27.5,6 C28.0522847,6 28.5,6.44771525 28.5,7 L28.5,9 Z M33,17 L33,29.0763158 C33,31.2508558 31.1872506,33 28.97,33 L11.03,33 C8.81274945,33 7,31.2508558 7,29.0763158 L7,17 L33,17 Z M19,21 L19,29 C19,29.5522847 19.4477153,30 20,30 C20.5522847,30 21,29.5522847 21,29 L21,21 C21,20.4477153 20.5522847,20 20,20 C19.4477153,20 19,20.4477153 19,21 Z" id="Calendar-(Filled)" fill="#2F313A" fill-rule="nonzero"></path>
    </g>
</svg>