<?xml version="1.0" encoding="UTF-8"?>
<svg width="40px" height="40px" viewBox="0 0 40 40" version="1.1" xmlns="http://www.w3.org/2000/svg" xmlns:xlink="http://www.w3.org/1999/xlink">
    <!-- Generator: Sketch 59.1 (86144) - https://sketch.com -->
    <title>Vector Files/40x40/Flattened/Misc/Certificate</title>
    <desc>Created with Sketch.</desc>
    <g id="40x40/Flattened/Misc/Certificate" stroke="none" stroke-width="1" fill="none" fill-rule="evenodd">
        <path d="M26,24.2213322 L26,34.9051804 C26,35.3840725 25.704561,35.8304286 25.1931242,35.9637276 C24.9129686,36.0367463 24.6787771,36.0001907 24.4315065,35.9100711 C24.1964126,35.8243894 23.9372207,35.6759187 23.6173173,35.4593428 C23.1312906,35.1303007 22.4926094,34.6313717 21.7292159,33.9952532 C21.6256515,33.9089553 21.520243,33.8204951 21.4131433,33.7300265 C20.8794553,33.2792127 20.3256465,32.7972954 19.7831254,32.3155148 L19.7744581,32.307817 C19.2945387,32.7806208 18.8053452,33.25299 18.3335051,33.6955067 C18.2369304,33.7860796 18.141876,33.8746461 18.0484785,33.9610533 C17.3590384,34.5988927 16.7821023,35.0992813 16.3412741,35.4306304 C16.0452643,35.6531266 15.8049291,35.8059754 15.578716,35.8975109 C15.3233713,36.0008343 15.0760645,36.0436934 14.7752484,35.956645 C14.2647657,35.8089244 14,35.3648041 14,34.9051804 L14,24.2213322 C10.989689,22.2587546 9,18.8619549 9,15 C9,8.92512645 13.9247485,4 20,4 C26.0752515,4 31,8.92512645 31,15 C31,18.8619549 29.010311,22.2587546 26,24.2213322 L26,24.2213322 Z M16,25.2502577 L16,33.117725 C16.2119916,32.9308929 16.4430363,32.7216992 16.6902715,32.4929683 C16.7802708,32.4097049 16.8720148,32.3242228 16.9653486,32.2366894 C17.433012,31.7980899 17.9206446,31.3269709 18.3986266,30.8557014 C18.6853989,30.5729563 18.9047163,30.3535028 19.0274706,30.2292868 C19.4046342,29.847632 20.0157879,29.8316677 20.4123624,30.1931113 C20.5488365,30.3174957 20.7925314,30.5371253 21.1111441,30.8200662 C21.6422133,31.2916771 22.1840211,31.7631513 22.7037453,32.2021697 C22.8074935,32.2898072 22.9094801,32.3753957 23.0095341,32.4587684 C23.3735423,32.7620883 23.7060711,33.0311814 24,33.2596639 L24,25.2502577 C22.7602987,25.734325 21.4112045,26 20,26 C18.5887955,26 17.2397013,25.734325 16,25.2502577 L16,25.2502577 Z M29,15 C29,10.0296616 24.9706477,6 20,6 C15.0293523,6 11,10.0296616 11,15 C11,19.9710486 15.0289514,24 20,24 C24.9710486,24 29,19.9710486 29,15 Z M24.5,15 C24.5,12.5147141 22.4852859,10.5 20,10.5 C17.5147141,10.5 15.5,12.5147141 15.5,15 C15.5,17.4852859 17.5147141,19.5 20,19.5 C22.4852859,19.5 24.5,17.4852859 24.5,15 Z M25.5,15 C25.5,18.0375707 23.0375707,20.5 20,20.5 C16.9624293,20.5 14.5,18.0375707 14.5,15 C14.5,11.9624293 16.9624293,9.5 20,9.5 C23.0375707,9.5 25.5,11.9624293 25.5,15 Z" id="Certificate" fill="#2F313A" fill-rule="nonzero"></path>
    </g>
</svg>