<?xml version="1.0" encoding="UTF-8"?>
<svg width="40px" height="40px" viewBox="0 0 40 40" version="1.1" xmlns="http://www.w3.org/2000/svg" xmlns:xlink="http://www.w3.org/1999/xlink">
    <!-- Generator: Sketch 59.1 (86144) - https://sketch.com -->
    <title>Vector Files/40x40/Flattened/Misc/Certificate (Filled)</title>
    <desc>Created with Sketch.</desc>
    <g id="40x40/Flattened/Misc/Certificate-(Filled)" stroke="none" stroke-width="1" fill="none" fill-rule="evenodd">
        <path d="M26,26.5358238 L26,34.9051804 C26,35.3840725 25.704561,35.8304286 25.1931242,35.9637276 C24.9129686,36.0367463 24.6787771,36.0001907 24.4315065,35.9100711 C24.1964126,35.8243894 23.9372207,35.6759187 23.6173173,35.4593428 C23.1312906,35.1303007 22.4926094,34.6313717 21.7292159,33.9952532 C21.6256515,33.9089553 21.520243,33.8204951 21.4131433,33.7300265 C20.8794553,33.2792127 20.3256465,32.7972954 19.7831254,32.3155148 L19.7744581,32.307817 C19.2945387,32.7806208 18.8053452,33.25299 18.3335051,33.6955067 C18.2369304,33.7860796 18.141876,33.8746461 18.0484785,33.9610533 C17.3590384,34.5988927 16.7821023,35.0992813 16.3412741,35.4306304 C16.0452643,35.6531266 15.8049291,35.8059754 15.578716,35.8975109 C15.3233713,36.0008343 15.0760645,36.0436934 14.7752484,35.956645 C14.2647657,35.8089244 14,35.3648041 14,34.9051804 L14,26.5358238 C15.794967,27.4712339 17.8356744,28 20,28 C22.1643256,28 24.205033,27.4712339 26,26.5358238 L26,26.5358238 Z M31,15 C31,21.0756181 26.0756181,26 20,26 C13.9243819,26 9,21.0756181 9,15 C9,8.92512645 13.9247485,4 20,4 C26.0752515,4 31,8.92512645 31,15 Z M25,15 C25,12.2385717 22.7614283,10 20,10 C17.2385717,10 15,12.2385717 15,15 C15,17.7614283 17.2385717,20 20,20 C22.7614283,20 25,17.7614283 25,15 Z" id="Certificate-(Filled)" fill="#2F313A" fill-rule="nonzero"></path>
    </g>
</svg>