<?xml version="1.0" encoding="UTF-8"?>
<svg width="40px" height="40px" viewBox="0 0 40 40" version="1.1" xmlns="http://www.w3.org/2000/svg" xmlns:xlink="http://www.w3.org/1999/xlink">
    <!-- Generator: Sketch 59.1 (86144) - https://sketch.com -->
    <title>Vector Files/40x40/Flattened/Misc/Coupon (Filled)</title>
    <desc>Created with Sketch.</desc>
    <g id="40x40/Flattened/Misc/Coupon-(Filled)" stroke="none" stroke-width="1" fill="none" fill-rule="evenodd">
        <path d="M17.2406368,33.4226883 C15.8236208,33.9881903 14.2078567,33.4001002 13.4858571,32.0560603 L12.2687591,29.7903686 C12.1475048,29.5646474 11.9442326,29.3940817 11.700885,29.3138656 L9.25826743,28.5086913 C7.80927253,28.0310506 6.94954241,26.5419544 7.2603909,25.0482676 L7.78439826,22.5303116 C7.83660288,22.2794584 7.79052479,22.0181366 7.65567165,21.8002667 L6.30207412,19.6133831 C5.49910113,18.3160931 5.79768227,16.6227554 6.99592935,15.6783345 L9.01585321,14.0862937 C9.21708961,13.9276855 9.34976618,13.6978829 9.38650673,13.444303 L9.75529256,10.8989772 C9.97406147,9.38905438 11.2912444,8.28380664 12.816217,8.33055667 L15.3869125,8.40936471 C15.6430199,8.41721601 15.8923703,8.3264599 16.0835133,8.15582277 L18.0021235,6.44304107 C19.1402699,5.42699501 20.8597301,5.42699501 21.9978765,6.44304107 L23.9164867,8.15582277 C24.1076297,8.3264599 24.3569801,8.41721601 24.6130875,8.40936471 L27.183783,8.33055667 C28.7087556,8.28380664 30.0259385,9.38905438 30.2447074,10.8989772 L30.6134933,13.444303 C30.6502338,13.6978829 30.7829104,13.9276855 30.9841468,14.0862937 L33.0040706,15.6783345 C34.2023177,16.6227554 34.5008989,18.3160931 33.6979259,19.6133831 L32.3443284,21.8002667 C32.2094752,22.0181366 32.1633971,22.2794584 32.2156017,22.5303116 L32.7396091,25.0482676 C33.0504576,26.5419544 32.1907275,28.0310506 30.7417326,28.5086913 L28.299115,29.3138656 C28.0557674,29.3940817 27.8524952,29.5646474 27.7312409,29.7903686 L26.5141429,32.0560603 C25.7921433,33.4001002 24.1763792,33.9881903 22.7593632,33.4226883 L20.3706535,32.4694033 C20.1326766,32.3744316 19.8673234,32.3744316 19.6293465,32.4694033 L17.2406368,33.4226883 Z M18.8482971,17.7650343 C19.1570081,17.0175526 18.9857811,16.1575598 18.4145902,15.5863006 C17.8421482,15.0137934 16.9822534,14.8425628 16.2348569,15.1525442 C15.4874604,15.4612904 15,16.1912875 15,17.0000167 C15.001251,18.1037515 15.8961463,18.998752 16.9997553,19 C17.8084243,19 18.538351,18.5125481 18.8482971,17.7650343 Z M24.8482971,23.7650343 C25.1570081,23.0175526 24.9857811,22.1575598 24.4145902,21.5863006 C23.8421482,21.0137934 22.9822534,20.8425628 22.2348569,21.1525442 C21.4874604,21.4612904 21,22.1912875 21,23.0000167 C21.001251,24.1037515 21.8961463,24.998752 22.9997553,25 C23.8084243,25 24.538351,24.5125481 24.8482971,23.7650343 Z M15.7289407,25.0994414 C15.9213984,25.0994414 16.1070213,25.0230041 16.2435426,24.8851444 L24.9792306,16.1494565 C25.1184565,16.0143259 25.1976228,15.8286925 25.1990067,15.6334918 C25.2003553,15.4383051 25.1225518,15.251288 24.9860549,15.1134389 C24.8481953,14.9769455 24.6611956,14.899142 24.4660019,14.9004871 C24.2708152,14.901871 24.0851958,14.9810373 23.9500373,15.1202632 L15.2143493,23.8559511 C15.0055105,24.06479 14.9427253,24.3773669 15.0560167,24.6489769 C15.1693081,24.9219671 15.4340973,25.0994414 15.7289442,25.0994414 L15.7289407,25.0994414 Z" id="Coupon-(Filled)" fill="#2F313A" fill-rule="nonzero"></path>
    </g>
</svg>