<?xml version="1.0" encoding="UTF-8"?>
<svg width="40px" height="40px" viewBox="0 0 40 40" version="1.1" xmlns="http://www.w3.org/2000/svg" xmlns:xlink="http://www.w3.org/1999/xlink">
    <!-- Generator: Sketch 59.1 (86144) - https://sketch.com -->
    <title>Vector Files/40x40/Flattened/Misc/Coupon 2 (Filled)</title>
    <desc>Created with Sketch.</desc>
    <g id="40x40/Flattened/Misc/Coupon-2-(Filled)" stroke="none" stroke-width="1" fill="none" fill-rule="evenodd">
        <path d="M14.50023,12.4771233 L16.4423587,10 L33.0000249,10 C34.6568791,10 36.0000249,11.3431458 36.0000249,13 L36.0000249,27 C36.0000249,28.6568548 34.6568786,30 33.0000243,30 L16.4423625,30 L14.5002333,27.5228787 L12.5591726,30 L6.99999436,30 C5.34314105,30 3.99999436,28.6568542 3.99999436,27 L3.99999436,13 C3.99999436,11.3431443 5.34314152,10 6.99999436,10 L12.5591733,10 L14.50023,12.4771233 Z M23.8482971,17.7650343 C24.1570081,17.0175526 23.9857811,16.1575598 23.4145902,15.5863006 C22.8421482,15.0137934 21.9822534,14.8425628 21.2348569,15.1525442 C20.4874604,15.4612904 20,16.1912875 20,17.0000167 C20.001251,18.1037515 20.8961463,18.998752 21.9997553,19 C22.8084243,19 23.538351,18.5125481 23.8482971,17.7650343 Z M29.8482971,23.7650343 C30.1570081,23.0175526 29.9857811,22.1575598 29.4145902,21.5863006 C28.8421482,21.0137934 27.9822534,20.8425628 27.2348569,21.1525442 C26.4874604,21.4612904 26,22.1912875 26,23.0000167 C26.001251,24.1037515 26.8961463,24.998752 27.9997553,25 C28.8084243,25 29.538351,24.5125481 29.8482971,23.7650343 Z M20.7289407,25.0994414 C20.9213984,25.0994414 21.1070213,25.0230041 21.2435426,24.8851444 L29.9792306,16.1494565 C30.1184565,16.0143259 30.1976228,15.8286925 30.1990067,15.6334918 C30.2003553,15.4383051 30.1225518,15.251288 29.9860549,15.1134389 C29.8481953,14.9769455 29.6611956,14.899142 29.4660019,14.9004871 C29.2708152,14.901871 29.0851958,14.9810373 28.9500373,15.1202632 L20.2143493,23.8559511 C20.0055105,24.06479 19.9427253,24.3773669 20.0560167,24.6489769 C20.1693081,24.9219671 20.4340973,25.0994414 20.7289442,25.0994414 L20.7289407,25.0994414 Z M14,24 L14,27 L15,27 L15,24 L14,24 Z M14,13 L14,16 L15,16 L15,13 L14,13 Z M14,18 L14,22 L15,22 L15,18 L14,18 Z" id="Coupon-(Filled)" fill="#2F313A" fill-rule="nonzero"></path>
    </g>
</svg>