<?xml version="1.0" encoding="UTF-8"?>
<svg width="40px" height="40px" viewBox="0 0 40 40" version="1.1" xmlns="http://www.w3.org/2000/svg" xmlns:xlink="http://www.w3.org/1999/xlink">
    <!-- Generator: Sketch 59.1 (86144) - https://sketch.com -->
    <title>Vector Files/40x40/Flattened/Misc/Computer (Filled)</title>
    <desc>Created with Sketch.</desc>
    <g id="40x40/Flattened/Misc/Computer-(Filled)" stroke="none" stroke-width="1" fill="none" fill-rule="evenodd">
        <path d="M16,29 L16,27 L10.05,27 C8.36571525,27 7,25.6342847 7,23.95 L7,23 L33,23 L33,23.95 C33,25.6342847 31.6342847,27 29.95,27 L25,27 L25,29 L26.5,29 C27.0522847,29 27.5,29.4477153 27.5,30 C27.5,30.5522847 27.0522847,31 26.5,31 L14.5,31 C13.9477153,31 13.5,30.5522847 13.5,30 C13.5,29.4477153 13.9477153,29 14.5,29 L16,29 Z M7,22 L7,11.05 C7,9.36571525 8.36571525,8 10.05,8 L29.95,8 C31.6342847,8 33,9.36571525 33,11.05 L33,22 L10.9922,22 L10.9922,15.5 C10.9922,15.2238576 10.7683424,15 10.4922,15 C10.2160576,15 9.9922,15.2238576 9.9922,15.5 L9.9922,22 L7,22 Z" id="Computer-(Filled)" fill="#2F313A" fill-rule="nonzero"></path>
    </g>
</svg>