<?xml version="1.0" encoding="UTF-8"?>
<svg width="40px" height="40px" viewBox="0 0 40 40" version="1.1" xmlns="http://www.w3.org/2000/svg" xmlns:xlink="http://www.w3.org/1999/xlink">
    <!-- Generator: Sketch 59.1 (86144) - https://sketch.com -->
    <title>Vector Files/40x40/Flattened/Misc/Computer</title>
    <desc>Created with Sketch.</desc>
    <g id="40x40/Flattened/Misc/Computer" stroke="none" stroke-width="1" fill="none" fill-rule="evenodd">
        <path d="M11.9922,22 L11.9922,15.5 C11.9922,15.2238576 12.2160576,15 12.4922,15 C12.7683424,15 12.9922,15.2238576 12.9922,15.5 L12.9922,22 L31,22 L31,11.05 C31,10.4702847 30.5297153,10 29.95,10 L10.05,10 C9.47028475,10 9,10.4702847 9,11.05 L9,22 L11.9922,22 Z M31,23 L9,23 L9,23.95 C9,24.5297153 9.47028475,25 10.05,25 L29.95,25 C30.5297153,25 31,24.5297153 31,23.95 L31,23 Z M18,29 L23,29 L23,27 L18,27 L18,29 L18,29 Z M16,29 L16,27 L10.05,27 C8.36571525,27 7,25.6342847 7,23.95 L7,11.05 C7,9.36571525 8.36571525,8 10.05,8 L29.95,8 C31.6342847,8 33,9.36571525 33,11.05 L33,23.95 C33,25.6342847 31.6342847,27 29.95,27 L25,27 L25,29 L26.5,29 C27.0522847,29 27.5,29.4477153 27.5,30 C27.5,30.5522847 27.0522847,31 26.5,31 L14.5,31 C13.9477153,31 13.5,30.5522847 13.5,30 C13.5,29.4477153 13.9477153,29 14.5,29 L16,29 Z" id="Computer" fill="#2F313A" fill-rule="nonzero"></path>
    </g>
</svg>