<?xml version="1.0" encoding="UTF-8"?>
<svg width="40px" height="40px" viewBox="0 0 40 40" version="1.1" xmlns="http://www.w3.org/2000/svg" xmlns:xlink="http://www.w3.org/1999/xlink">
    <!-- Generator: Sketch 59.1 (86144) - https://sketch.com -->
    <title>Vector Files/40x40/Flattened/Misc/Coupon 2</title>
    <desc>Created with Sketch.</desc>
    <g id="40x40/Flattened/Misc/Coupon-2" stroke="none" stroke-width="1" fill="none" fill-rule="evenodd">
        <path d="M14.9999961,26.0123275 L17.3011357,28 L33.000024,28 C33.5523087,28 34.0000242,27.5522849 34.0000242,27 L34.0000242,13 C34.0000242,12.4477153 33.5523089,12 33.0000244,12 L17.3011327,12 L14.9999961,13.9876731 L14.9999961,16 L13.9999961,16 L13.9999961,13.9877244 L11.7000777,12 L6.99999612,12 C6.44771184,12 5.99999612,12.4477148 5.99999612,13 L5.99999612,27 C5.99999612,27.5522847 6.44771231,28 6.99999612,28 L11.7000784,28 L13.9999961,26.0122821 L13.9999961,24 L14.9999961,24 L14.9999961,26.0123275 L14.9999961,26.0123275 Z M16.5569466,10 L33.0000242,10 C34.6568784,10 36.0000242,11.3431458 36.0000242,13 L36.0000242,27 C36.0000242,28.6568548 34.6568779,30 33.0000236,30 L16.5569504,30 L14.5001967,28.223419 L12.4445745,30 L6.99999612,30 C5.34314281,30 3.99999612,28.6568542 3.99999612,27 L3.99999612,13 C3.99999612,11.3431443 5.34314328,10 6.99999612,10 L12.4445751,10 L14.5001932,11.7765835 L16.5569466,10 Z M14,18 L15,18 L15,22 L14,22 L14,18 Z M23.8482971,17.7650343 C23.538351,18.5125481 22.8084243,19 21.9997553,19 C20.8961463,18.998752 20.001251,18.1037515 20,17.0000167 C20,16.1912875 20.4874604,15.4612904 21.2348569,15.1525442 C21.9822534,14.8425628 22.8421482,15.0137934 23.4145902,15.5863006 C23.9857811,16.1575598 24.1570081,17.0175526 23.8482971,17.7650343 Z M29.8482971,23.7650343 C29.538351,24.5125481 28.8084243,25 27.9997553,25 C26.8961463,24.998752 26.001251,24.1037515 26,23.0000167 C26,22.1912875 26.4874604,21.4612904 27.2348569,21.1525442 C27.9822534,20.8425628 28.8421482,21.0137934 29.4145902,21.5863006 C29.9857811,22.1575598 30.1570081,23.0175526 29.8482971,23.7650343 Z M20.7289407,25.0994414 L20.7289442,25.0994414 C20.4340973,25.0994414 20.1693081,24.9219671 20.0560167,24.6489769 C19.9427253,24.3773669 20.0055105,24.06479 20.2143493,23.8559511 L28.9500373,15.1202632 C29.0851958,14.9810373 29.2708152,14.901871 29.4660019,14.9004871 C29.6611956,14.899142 29.8481953,14.9769455 29.9860549,15.1134389 C30.1225518,15.251288 30.2003553,15.4383051 30.1990067,15.6334918 C30.1976228,15.8286925 30.1184565,16.0143259 29.9792306,16.1494565 L21.2435426,24.8851444 C21.1070213,25.0230041 20.9213984,25.0994414 20.7289407,25.0994414 Z" id="Coupon" fill="#2F313A" fill-rule="nonzero"></path>
    </g>
</svg>