<?xml version="1.0" encoding="UTF-8"?>
<svg width="40px" height="40px" viewBox="0 0 40 40" version="1.1" xmlns="http://www.w3.org/2000/svg" xmlns:xlink="http://www.w3.org/1999/xlink">
    <!-- Generator: Sketch 59.1 (86144) - https://sketch.com -->
    <title>Vector Files/40x40/Flattened/Misc/Coupon</title>
    <desc>Created with Sketch.</desc>
    <g id="40x40/Flattened/Misc/Coupon" stroke="none" stroke-width="1" fill="none" fill-rule="evenodd">
        <path d="M21.1003893,30.9702236 L23.4642416,31.925014 C23.9316651,32.1138123 24.4646484,31.9174728 24.7028105,31.468752 L25.9072432,29.1994825 C26.2672207,28.5212496 26.8706917,28.0087444 27.5931374,27.7677161 L30.0103367,26.9612703 C30.4883088,26.8018053 30.7719033,26.3046561 30.6693654,25.8059743 L30.150811,23.284042 C29.9958269,22.530294 30.1326226,21.7450905 30.5329722,21.0904488 L31.8724839,18.9001117 C32.1373563,18.4669989 32.0388649,17.9016616 31.6436056,17.5863575 L29.6447015,15.9918027 C29.0472746,15.5152266 28.6533868,14.8247303 28.5443122,14.0627891 L28.179364,11.513444 C28.1071999,11.0093415 27.6727078,10.6403439 27.1696734,10.6559518 L24.6257289,10.7348843 C23.865402,10.7584754 23.1251352,10.4857771 22.5576735,9.97305733 L20.6590288,8.25757091 C20.2835945,7.91835407 19.7164055,7.91835407 19.3409712,8.25757091 L17.4423265,9.97305733 C16.8748648,10.4857771 16.134598,10.7584754 15.3742711,10.7348843 L12.8303266,10.6559518 C12.3272922,10.6403439 11.8928001,11.0093415 11.820636,11.513444 L11.4556878,14.0627891 C11.3466132,14.8247303 10.9527254,15.5152266 10.3552985,15.9918027 L8.35639439,17.5863575 C7.96113509,17.9016616 7.86264374,18.4669989 8.1275161,18.9001117 L9.46702785,21.0904488 C9.86737736,21.7450905 10.0041731,22.530294 9.84918904,23.284042 L9.3306346,25.8059743 C9.22809668,26.3046561 9.51169122,26.8018053 9.98966335,26.9612703 L12.4068626,27.7677161 C13.1293083,28.0087444 13.7327793,28.5212496 14.0927568,29.1994825 L15.2971895,31.468752 C15.5353516,31.9174728 16.0683349,32.1138123 16.5357584,31.925014 L18.8996107,30.9702236 C19.6061123,30.6848586 20.3938877,30.6848586 21.1003893,30.9702236 Z M17.2693512,33.7854898 C15.867081,34.3518847 14.2681308,33.762866 13.5536445,32.4167036 L12.3492118,30.1474341 C12.2292194,29.9213565 12.0280623,29.7505214 11.7872471,29.6701787 L9.37004786,28.8637329 C7.93613148,28.3853379 7.08534786,26.8938902 7.39296161,25.3978447 L7.91151605,22.8759125 C7.96317742,22.6246632 7.91757883,22.3629287 7.78412899,22.1447147 L6.44461724,19.9543777 C5.65000014,18.6550392 5.94547419,16.9590274 7.13125209,16.0131151 L9.13015626,14.4185603 C9.32929855,14.2597016 9.46059446,14.0295362 9.49695269,13.7755558 L9.86190087,11.2262106 C10.0783932,9.71390338 11.3818693,8.6069103 12.8909727,8.65373415 L15.4349172,8.73266664 C15.6883595,8.74053035 15.9351151,8.64963091 16.124269,8.47872432 L18.0229137,6.7632379 C19.1492164,5.74558737 20.8507836,5.74558737 21.9770863,6.7632379 L23.875731,8.47872432 C24.0648849,8.64963091 24.3116405,8.74053035 24.5650828,8.73266664 L27.1090273,8.65373415 C28.6181307,8.6069103 29.9216068,9.71390338 30.1380991,11.2262106 L30.5030473,13.7755558 C30.5394055,14.0295362 30.6707015,14.2597016 30.8698437,14.4185603 L32.8687479,16.0131151 C34.0545258,16.9590274 34.3499999,18.6550392 33.5553828,19.9543777 L32.215871,22.1447147 C32.0824212,22.3629287 32.0368226,22.6246632 32.0884839,22.8759125 L32.6070384,25.3978447 C32.9146521,26.8938902 32.0638685,28.3853379 30.6299521,28.8637329 L28.2127529,29.6701787 C27.9719377,29.7505214 27.7707806,29.9213565 27.6507882,30.1474341 L26.4463555,32.4167036 C25.7318692,33.762866 24.132919,34.3518847 22.7306488,33.7854898 L20.3667964,32.8306994 C20.1312959,32.7355777 19.8687041,32.7355777 19.6332036,32.8306994 L17.2693512,33.7854898 Z M18.8602819,18.1031102 C18.5535612,18.8518044 17.8312303,19.340026 17.0309764,19.340026 C15.9388518,19.3387761 15.0532689,18.4423622 15.0520309,17.3368845 C15.0520309,16.5268782 15.5344187,15.7957283 16.2740377,15.4864946 C17.0136567,15.1760237 17.8646032,15.3475246 18.4310882,15.9209359 C18.9963352,16.4930972 19.1657805,17.3544481 18.8602819,18.1031102 Z M24.7978448,24.112585 C24.4911241,24.8612792 23.7687932,25.3495009 22.9685393,25.3495009 C21.8764147,25.3482509 20.9908318,24.4518371 20.9895938,23.3463594 C20.9895938,22.536353 21.4719816,21.8052032 22.2116006,21.4959694 C22.9512196,21.1854985 23.8021661,21.3569995 24.3686511,21.9304107 C24.9338981,22.5025721 25.1033434,23.3639229 24.7978448,24.112585 Z M15.7733862,25.4490993 L15.7733896,25.4490993 C15.4816109,25.4490993 15.2195772,25.2713448 15.1074647,24.9979234 C14.9953523,24.7258845 15.057484,24.412814 15.2641497,24.2036454 L23.9089324,15.4541626 C24.0426845,15.3147168 24.2263723,15.2354255 24.4195279,15.2340394 C24.6126904,15.2326922 24.7977441,15.3106186 24.9341691,15.4473275 C25.0692456,15.5853943 25.1462395,15.7727067 25.1449049,15.9682017 C25.1435354,16.1637106 25.0651929,16.3496371 24.9274158,16.4849811 L16.282633,25.2344639 C16.1475324,25.3725413 15.9638411,25.4490993 15.7733862,25.4490993 Z" id="Coupon" fill="#2F313A" fill-rule="nonzero"></path>
    </g>
</svg>