<?xml version="1.0" encoding="UTF-8"?>
<svg width="40px" height="40px" viewBox="0 0 40 40" version="1.1" xmlns="http://www.w3.org/2000/svg" xmlns:xlink="http://www.w3.org/1999/xlink">
    <!-- Generator: Sketch 59.1 (86144) - https://sketch.com -->
    <title>Vector Files/40x40/Flattened/Misc/Custom Brand (Filled)</title>
    <desc>Created with Sketch.</desc>
    <g id="40x40/Flattened/Misc/Custom-Brand-(Filled)" stroke="none" stroke-width="1" fill="none" fill-rule="evenodd">
        <path d="M4,18 L17.1411914,18 L15.3236145,24.8191152 C15.1850553,25.3389561 15.6603047,25.8142867 16.1801692,25.6758163 L23.1031692,23.8318163 C23.2222545,23.800097 23.3308551,23.737501 23.4179937,23.6503558 L29.9555093,17.1123403 C29.9844278,17.2058402 30,17.3052031 30,17.4082031 L30,27.95 C30,29.6342847 28.6342847,31 26.95,31 L7.05,31 C5.36571525,31 4,29.6342847 4,27.95 L4,18 Z M4,17 L4,15.05 C4,13.3657153 5.36571525,12 7.05,12 L22.908,12 C22.9160774,12 22.9241325,12.0000958 22.9321641,12.0002862 L17.9324505,17 L4,17 Z M6,14.5 C6,14.776 6.224,15 6.5,15 C6.776,15 7,14.776 7,14.5 C7,14.224 6.776,14 6.5,14 C6.224,14 6,14.224 6,14.5 Z M8,14.5 C8,14.776 8.224,15 8.5,15 C8.776,15 9,14.776 9,14.5 C9,14.224 8.776,14 8.5,14 C8.224,14 8,14.224 8,14.5 Z M10,14.5 C10,14.776 10.224,15 10.5,15 C10.776,15 11,14.776 11,14.5 C11,14.224 10.776,14 10.5,14 C10.224,14 10,14.224 10,14.5 Z M33.7110507,11.376537 C33.7013384,11.3659611 33.6913571,11.3555436 33.6811068,11.3452932 L29.6240815,7.28826797 L30.9229513,5.98939824 L35.0101182,10.0773702 L33.7110507,11.376537 L33.7110507,11.376537 Z M32.2981933,12.7895024 L22.5610334,22.527407 L16.9876413,24.0119274 L18.4729514,18.4393981 L28.209868,8.70248153 L32.2668932,12.7595068 C32.2771618,12.7697753 32.2875981,12.7797739 32.2981933,12.7895024 Z" id="Custom-Brand-(Filled)" fill="#2F313A" fill-rule="nonzero"></path>
    </g>
</svg>