<?xml version="1.0" encoding="UTF-8"?>
<svg width="40px" height="40px" viewBox="0 0 40 40" version="1.1" xmlns="http://www.w3.org/2000/svg" xmlns:xlink="http://www.w3.org/1999/xlink">
    <!-- Generator: Sketch 59.1 (86144) - https://sketch.com -->
    <title>Vector Files/40x40/Flattened/Misc/Custom Brand</title>
    <desc>Created with Sketch.</desc>
    <g id="40x40/Flattened/Misc/Custom-Brand" stroke="none" stroke-width="1" fill="none" fill-rule="evenodd">
        <path d="M29.8362136,7.5004 L33.4995686,11.163755 L34.5858831,10.0773574 L30.9229304,6.4136832 L29.8362136,7.5004 L29.8362136,7.5004 Z M28.422,8.91461356 L18.7420734,18.5945401 L17.4109161,23.5887248 L22.4059048,22.2582671 L32.0854091,12.5780226 L28.422,8.91461356 Z M20.5081864,14 L7.05,14 C6.47028475,14 6,14.4702847 6,15.05 L6,17 L17.5081864,17 L20.5081864,14 L20.5081864,14 Z M22.5081864,12 L30.2158932,4.29229322 C30.6064447,3.90174173 31.2396634,3.90177291 31.6301764,4.29236285 L36.7071764,9.37036285 C37.0976245,9.76088785 37.0976054,10.3939783 36.7071338,10.7844797 L30,17.4921265 L30,27.95 C30,29.6342847 28.6342847,31 26.95,31 L7.05,31 C5.36571525,31 4,29.6342847 4,27.95 L4,15.05 C4,13.3657153 5.36571525,12 7.05,12 L22.5081864,12 Z M28,19.4922794 L23.6301338,23.8624797 C23.5056502,23.9869729 23.3505064,24.0763957 23.1803846,24.121709 L16.2573846,25.965709 C15.514721,26.1635238 14.8357933,25.4844801 15.0337349,24.7418503 L16.8307176,18 L6,18 L6,27.95 C6,28.5297153 6.47028475,29 7.05,29 L26.95,29 C27.5297153,29 28,28.5297153 28,27.95 L28,19.4922794 Z M7,15.5 C7,15.224 7.224,15 7.5,15 C7.776,15 8,15.224 8,15.5 C8,15.776 7.776,16 7.5,16 C7.224,16 7,15.776 7,15.5 Z M9,15.5 C9,15.224 9.224,15 9.5,15 C9.776,15 10,15.224 10,15.5 C10,15.776 9.776,16 9.5,16 C9.224,16 9,15.776 9,15.5 Z M11,15.5 C11,15.224 11.224,15 11.5,15 C11.776,15 12,15.224 12,15.5 C12,15.776 11.776,16 11.5,16 C11.224,16 11,15.776 11,15.5 Z" id="Custom-Brand" fill="#2F313A" fill-rule="nonzero"></path>
    </g>
</svg>