<?xml version="1.0" encoding="UTF-8"?>
<svg width="40px" height="40px" viewBox="0 0 40 40" version="1.1" xmlns="http://www.w3.org/2000/svg" xmlns:xlink="http://www.w3.org/1999/xlink">
    <!-- Generator: Sketch 59.1 (86144) - https://sketch.com -->
    <title>Vector Files/40x40/Flattened/Misc/Data</title>
    <desc>Created with Sketch.</desc>
    <g id="40x40/Flattened/Misc/Data" stroke="none" stroke-width="1" fill="none" fill-rule="evenodd">
        <path d="M25,24 L31,24 L31,11 L25,11 L25,24 Z M25,25 L25,27 C25,27.5522847 24.5522847,28 24,28 C23.4477153,28 23,27.5522847 23,27 L23,25 L17,25 L17,27 C17,27.5522847 16.5522847,28 16,28 C15.4477153,28 15,27.5522847 15,27 L15,25 L9,25 L9,27 C9,27.5522847 8.55228475,28 8,28 C7.44771525,28 7,27.5522847 7,27 L7,20 C7,19.4477153 7.44771525,19 8,19 L15,19 L15,15 C15,14.4477153 15.4477153,14 16,14 L23,14 L23,10 C23,9.44771525 23.4477153,9 24,9 L32,9 C32.5522847,9 33,9.44771525 33,10 L33,27 C33,27.5522847 32.5522847,28 32,28 C31.4477153,28 31,27.5522847 31,27 L31,25 L25,25 Z M23,24 L23,16 L17,16 L17,24 L23,24 Z M15,24 L15,21 L9,21 L9,24 L15,24 Z M8,32 C7.44771525,32 7,31.5522847 7,31 C7,30.4477153 7.44771525,30 8,30 L32,30 C32.5522847,30 33,30.4477153 33,31 C33,31.5522847 32.5522847,32 32,32 L8,32 Z" id="Data" fill="#2F313A" fill-rule="nonzero"></path>
    </g>
</svg>