<?xml version="1.0" encoding="UTF-8"?>
<svg width="40px" height="40px" viewBox="0 0 40 40" version="1.1" xmlns="http://www.w3.org/2000/svg" xmlns:xlink="http://www.w3.org/1999/xlink">
    <!-- Generator: Sketch 59.1 (86144) - https://sketch.com -->
    <title>Vector Files/40x40/Flattened/Misc/Data 2 (Filled)</title>
    <desc>Created with Sketch.</desc>
    <g id="40x40/Flattened/Misc/Data-2-(Filled)" stroke="none" stroke-width="1" fill="none" fill-rule="evenodd">
        <path d="M19.5001492,6.00875584 L19.5,20.4897611 L19.5,20.5 C19.5,20.5034092 19.5000341,20.5068104 19.500102,20.5102033 L19.5,30.4897611 L19.5,30.5 C19.5,30.5034092 19.5000341,30.5068104 19.500102,30.5102033 L19.5,32.4897611 L19.5,32.5 C19.5,32.5034092 19.5000341,32.5068104 19.500102,32.5102033 L19.5001492,33.9912442 C11.9993959,33.72806 6,27.5649658 6,20 C6,12.4350342 11.9993959,6.27193999 19.5001492,6.00875584 Z M20.5008502,33.9912091 L20.5,32.9997611 L25.2035246,33.0011487 C23.7415786,33.5867664 22.1578552,33.9329518 20.5008502,33.9912091 Z M27.2135922,32.001101 L20.5,31.9997611 L20.5,30.9997611 L28.6606702,31.000607 C28.2007323,31.3632036 27.7175022,31.6975724 27.2135922,32.001101 Z M29.797581,30.0005981 L20.5,29.9997611 L20.5,28.9997611 L30.7240382,29.0004651 C30.4314618,29.3487091 30.1222341,29.6824954 29.797581,30.0005981 Z M31.4907649,28.0000415 L20.5,27.9997611 L20.5,26.9997611 L32.1271379,27.000092 C31.9288638,27.3428611 31.7164746,27.6764425 31.4907649,28.0000415 Z M32.652573,26.0005813 L20.5,25.9997611 L20.5,24.9997611 L33.0806854,25.0003644 C32.9506548,25.3403358 32.8077519,25.6739402 32.652573,26.0005813 Z M33.4201035,24.0006555 L20.5,23.9997611 L20.5,22.9997611 L33.6777499,23.0004757 C33.6039237,23.3385993 33.5178796,23.6721545 33.4201035,24.0006555 Z M33.8581847,22.0003721 L20.5,21.9997611 L20.5,20.9997611 L33.964824,21.0002279 C33.9410508,21.3370393 33.9053648,21.6705602 33.8581847,22.0003721 Z M20.5008502,6.00879094 C28.001137,6.27248743 34,12.4353702 34,20 L20.5,19.9997611 L20.5008502,6.00879094 Z" id="Data-(Filled)" fill="#2F313A" fill-rule="nonzero"></path>
    </g>
</svg>