<?xml version="1.0" encoding="UTF-8"?>
<svg width="40px" height="40px" viewBox="0 0 40 40" version="1.1" xmlns="http://www.w3.org/2000/svg" xmlns:xlink="http://www.w3.org/1999/xlink">
    <!-- Generator: Sketch 59.1 (86144) - https://sketch.com -->
    <title>Vector Files/40x40/Flattened/Misc/Data (Filled)</title>
    <desc>Created with Sketch.</desc>
    <g id="40x40/Flattened/Misc/Data-(Filled)" stroke="none" stroke-width="1" fill="none" fill-rule="evenodd">
        <path d="M8,32 C7.44771525,32 7,31.5522847 7,31 C7,30.4477153 7.44771525,30 8,30 L32,30 C32.5522847,30 33,30.4477153 33,31 C33,31.5522847 32.5522847,32 32,32 L8,32 Z M31,27 L31,11 L30,11 L30,27 L22,27 L22,16 L21,16 L21,27 L14,27 L14,21 L13,21 L13,27 L7,27 L7,20 C7,19.4477153 7.44771525,19 8,19 L15,19 L15,15 C15,14.4477153 15.4477153,14 16,14 L23,14 L23,10 C23,9.44771525 23.4477153,9 24,9 L32,9 C32.5522847,9 33,9.44771525 33,10 L33,27 L31,27 Z" id="Data-(Filled)" fill="#2F313A" fill-rule="nonzero"></path>
    </g>
</svg>