<?xml version="1.0" encoding="UTF-8"?>
<svg width="40px" height="40px" viewBox="0 0 40 40" version="1.1" xmlns="http://www.w3.org/2000/svg" xmlns:xlink="http://www.w3.org/1999/xlink">
    <!-- Generator: Sketch 59.1 (86144) - https://sketch.com -->
    <title>Vector Files/40x40/Flattened/Misc/Data 2</title>
    <desc>Created with Sketch.</desc>
    <g id="40x40/Flattened/Misc/Data-2" stroke="none" stroke-width="1" fill="none" fill-rule="evenodd">
        <path d="M26.6358378,30 C27.0927812,29.6961836 27.5277058,29.3618828 27.937709,29 L21,29 L21,30 L26.6358378,30 L26.6358378,30 Z M24.8036485,31 L21,31 L21,31.9589318 C22.3427408,31.8481724 23.6227794,31.5163727 24.8036485,31 L24.8036485,31 Z M28.944636,28 C29.2296739,27.6815199 29.4979514,27.3477245 29.7480826,27 L21,27 L21,28 L28.944636,28 L28.944636,28 Z M30.3947556,26 C30.582201,25.6759426 30.7549278,25.3423046 30.912022,25 L21,25 L21,26 L30.3947556,26 L30.3947556,26 Z M31.3172504,24 C31.4328382,23.6729427 31.534651,23.339377 31.6219916,23 L21,23 L21,24 L31.3172504,24 L31.3172504,24 Z M31.834104,22 C31.889291,21.6710138 31.9310933,21.3374874 31.9589318,21 L21,21 L21,22 L31.834104,22 L31.834104,22 Z M32,20 C32,13.7090392 27.1597778,8.54917303 21,8.04106821 L21,20 L32,20 L32,20 Z M19,8.04106821 C12.8402222,8.54917303 8,13.7090392 8,20 C8,26.2909608 12.8402222,31.450827 19,31.9589318 L19,8.04106821 L19,8.04106821 Z M34,20 C34,27.7322847 27.7322847,34 20,34 C12.2677153,34 6,27.7322847 6,20 C6,12.2677153 12.2677153,6 20,6 C27.7322847,6 34,12.2677153 34,20 Z" id="Data" fill="#2F313A" fill-rule="nonzero"></path>
    </g>
</svg>