<?xml version="1.0" encoding="UTF-8"?>
<svg width="40px" height="40px" viewBox="0 0 40 40" version="1.1" xmlns="http://www.w3.org/2000/svg" xmlns:xlink="http://www.w3.org/1999/xlink">
    <!-- Generator: Sketch 59.1 (86144) - https://sketch.com -->
    <title>Vector Files/40x40/Flattened/Misc/Email (Filled)</title>
    <desc>Created with Sketch.</desc>
    <g id="40x40/Flattened/Misc/Email-(Filled)" stroke="none" stroke-width="1" fill="none" fill-rule="evenodd">
        <path d="M9,29 C8.44771525,29 8,28.5522847 8,28 L8,12 C8,11.4477153 8.44771525,11 9,11 L31,11 C31.5522847,11 32,11.4477153 32,12 L32,28 C32,28.5522847 31.5522847,29 31,29 L9,29 Z M20,18.7793444 L10.5734623,12.1807681 C10.121013,11.8640536 9.49748259,11.9740884 9.18076808,12.4265377 C8.86405357,12.878987 8.97408836,13.5025174 9.42653766,13.8192319 L19.4265377,20.8192319 C19.7708578,21.060256 20.2291422,21.060256 20.5734623,20.8192319 L30.5734623,13.8192319 C31.0259116,13.5025174 31.1359464,12.878987 30.8192319,12.4265377 C30.5025174,11.9740884 29.878987,11.8640536 29.4265377,12.1807681 L20,18.7793444 Z" id="Email-(Filled)" fill="#2F313A" fill-rule="nonzero"></path>
    </g>
</svg>