<?xml version="1.0" encoding="UTF-8"?>
<svg width="40px" height="40px" viewBox="0 0 40 40" version="1.1" xmlns="http://www.w3.org/2000/svg" xmlns:xlink="http://www.w3.org/1999/xlink">
    <!-- Generator: Sketch 59.1 (86144) - https://sketch.com -->
    <title>Vector Files/40x40/Flattened/Misc/Email</title>
    <desc>Created with Sketch.</desc>
    <g id="40x40/Flattened/Misc/Email" stroke="none" stroke-width="1" fill="none" fill-rule="evenodd">
        <path d="M10,14.2206556 L10,27 L30,27 L30,14.2206556 L20.5734623,20.8192319 C20.2291422,21.060256 19.7708578,21.060256 19.4265377,20.8192319 L10,14.2206556 Z M11.7437937,13 L20,18.7793444 L28.2562063,13 L11.7437937,13 Z M9,29 C8.44771525,29 8,28.5522847 8,28 L8,12 C8,11.4477153 8.44771525,11 9,11 L31,11 C31.5522847,11 32,11.4477153 32,12 L32,28 C32,28.5522847 31.5522847,29 31,29 L9,29 Z" id="Email" fill="#2F313A" fill-rule="nonzero"></path>
    </g>
</svg>