<?xml version="1.0" encoding="UTF-8"?>
<svg width="40px" height="40px" viewBox="0 0 40 40" version="1.1" xmlns="http://www.w3.org/2000/svg" xmlns:xlink="http://www.w3.org/1999/xlink">
    <!-- Generator: Sketch 59.1 (86144) - https://sketch.com -->
    <title>Vector Files/40x40/Flattened/Misc/Link</title>
    <desc>Created with Sketch.</desc>
    <g id="40x40/Flattened/Misc/Link" stroke="none" stroke-width="1" fill="none" fill-rule="evenodd">
        <path d="M12.7323266,19.6266599 C13.1227588,19.2360436 13.7559238,19.2358943 14.1465401,19.6263266 C14.5371564,20.0167588 14.5373057,20.6499238 14.1468734,21.0405401 L12.0255056,23.1629079 C10.6582981,24.5293377 10.6582981,26.7448623 12.0259079,28.1116944 C13.3923377,29.4789019 15.6078623,29.4789019 16.9745647,28.1114218 L21.9242921,23.1626944 C23.291036,21.7951726 23.291036,19.5790274 21.9242921,18.2115056 C21.5338789,17.8208702 21.534059,17.1877053 21.9246944,16.7972921 C22.3153298,16.4068789 22.9484947,16.407059 23.3389079,16.7976944 C25.486164,18.9461726 25.486164,22.4280274 23.3386353,24.5767782 L18.3889079,29.5255056 C16.2413377,31.6742981 12.7588623,31.6742981 10.6116944,29.5259079 C8.46290186,27.3783377 8.46290186,23.8958623 10.6113266,21.7486599 L12.7323266,19.6266599 Z M27.7581734,20.5102401 C27.3677412,20.9008564 26.7345762,20.9010057 26.3439599,20.5105734 C25.9533436,20.1201412 25.9531943,19.4869762 26.3436266,19.0963599 L28.4649944,16.9739921 C29.8322019,15.6075623 29.8322019,13.3920377 28.4645921,12.0252056 C27.0981623,10.6579981 24.8826377,10.6579981 23.5159353,12.0254782 L18.5662079,16.9742056 C17.199464,18.3417274 17.199464,20.5578726 18.5662079,21.9253944 C18.9566211,22.3160298 18.956441,22.9491947 18.5658056,23.3396079 C18.1751702,23.7300211 17.5420053,23.729841 17.1515921,23.3392056 C15.004336,21.1907274 15.004336,17.7088726 17.1518647,15.5601218 L22.1015921,10.6113944 C24.2491623,8.46260186 27.7316377,8.46260186 29.8788056,10.6109921 C32.0275981,12.7585623 32.0275981,16.2410377 29.8791734,18.3882401 L27.7581734,20.5102401 Z" id="Link" fill="#2F313A" fill-rule="nonzero"></path>
    </g>
</svg>