<?xml version="1.0" encoding="UTF-8"?>
<svg width="40px" height="40px" viewBox="0 0 40 40" version="1.1" xmlns="http://www.w3.org/2000/svg" xmlns:xlink="http://www.w3.org/1999/xlink">
    <!-- Generator: Sketch 59.1 (86144) - https://sketch.com -->
    <title>Vector Files/40x40/Flattened/Misc/Link (External)</title>
    <desc>Created with Sketch.</desc>
    <g id="40x40/Flattened/Misc/Link-(External)" stroke="none" stroke-width="1" fill="none" fill-rule="evenodd">
        <path d="M23.5857864,15 L15,15 L15,25 L25,25 L25,16.4142136 L20.7071068,20.7071068 C20.3165825,21.0976311 19.6834175,21.0976311 19.2928932,20.7071068 C18.9023689,20.3165825 18.9023689,19.6834175 19.2928932,19.2928932 L23.5857864,15 Z M29,11 L24,11 C23.4477153,11 23,10.5522847 23,10 C23,9.44771525 23.4477153,9 24,9 L30,9 C30.5522847,9 31,9.44771525 31,10 L31,16 C31,16.5522847 30.5522847,17 30,17 C29.4477153,17 29,16.5522847 29,16 L29,11 Z M14,27 C13.4477153,27 13,26.5522847 13,26 L13,14 C13,13.4477153 13.4477153,13 14,13 L26,13 C26.5522847,13 27,13.4477153 27,14 L27,26 C27,26.5522847 26.5522847,27 26,27 L14,27 Z" id="Link-(External)" fill="#2F313A" fill-rule="nonzero"></path>
    </g>
</svg>