<?xml version="1.0" encoding="UTF-8"?>
<svg width="40px" height="40px" viewBox="0 0 40 40" version="1.1" xmlns="http://www.w3.org/2000/svg" xmlns:xlink="http://www.w3.org/1999/xlink">
    <!-- Generator: Sketch 59.1 (86144) - https://sketch.com -->
    <title>Vector Files/40x40/Flattened/Misc/Link (Filled)</title>
    <desc>Created with Sketch.</desc>
    <g id="40x40/Flattened/Misc/Link-(Filled)" stroke="none" stroke-width="1" fill="none" fill-rule="evenodd">
        <path d="M33,20 C33,27.1794858 27.1790837,33 20,33 C12.8201153,33 7,27.1798847 7,20 C7,12.8209163 12.8205142,7 20,7 C27.1786847,7 33,12.8213153 33,20 Z M14.582707,19.5467765 L13.1007138,21.0294684 C11.4819327,22.6473286 11.4819327,25.271468 13.1010817,26.8896959 C14.7189073,28.5084426 17.3430467,28.5084426 18.9612747,26.8892936 L22.4196849,23.4315822 C24.0378713,21.8124749 24.0378713,19.1889561 22.4199574,17.5701214 C22.0295443,17.179486 21.3963793,17.1793059 21.0057439,17.5697191 C20.6151086,17.9601323 20.6149284,18.5932972 21.0053416,18.9839326 C21.8427432,19.8218108 21.8427432,21.1796202 21.0053416,22.0174984 L17.5469314,25.4752098 C16.7095714,26.3130463 15.3523826,26.3130463 14.5152952,25.4754824 C13.677329,24.6379926 13.677329,23.2808039 14.5148928,22.4437164 L15.9972538,20.9606567 C16.3876861,20.5700404 16.3875368,19.9368754 15.9969205,19.5464432 C15.6063042,19.156011 14.9731392,19.1561602 14.582707,19.5467765 Z M25.507793,20.5901235 L26.9897862,19.1074316 C28.6085673,17.4895714 28.6085673,14.865432 26.9894183,13.2472041 C25.3715927,11.6284574 22.7474533,11.6284574 21.1292253,13.2476064 L17.6708151,16.7053178 C16.0526287,18.3244251 16.0526287,20.9479439 17.6705426,22.5667786 C18.0609557,22.957414 18.6941207,22.9575941 19.0847561,22.5671809 C19.4753914,22.1767677 19.4755716,21.5436028 19.0851584,21.1529674 C18.2477568,20.3150892 18.2477568,18.9572798 19.0851584,18.1194016 L22.5435686,14.6616902 C23.3809286,13.8238537 24.7381174,13.8238537 25.5752048,14.6614176 C26.413171,15.4989074 26.413171,16.8560961 25.5756072,17.6931836 L24.0932462,19.1762433 C23.7028139,19.5668596 23.7029632,20.2000246 24.0935795,20.5904568 C24.4841958,20.980889 25.1173608,20.9807398 25.507793,20.5901235 Z" id="Link-(Filled)" fill="#2F313A" fill-rule="nonzero"></path>
    </g>
</svg>