<?xml version="1.0" encoding="UTF-8"?>
<svg width="40px" height="40px" viewBox="0 0 40 40" version="1.1" xmlns="http://www.w3.org/2000/svg" xmlns:xlink="http://www.w3.org/1999/xlink">
    <!-- Generator: Sketch 59.1 (86144) - https://sketch.com -->
    <title>Vector Files/40x40/Flattened/Misc/Location (Filled)</title>
    <desc>Created with Sketch.</desc>
    <g id="40x40/Flattened/Misc/Location-(Filled)" stroke="none" stroke-width="1" fill="none" fill-rule="evenodd">
        <path d="M20.7642979,34.7500641 C20.5816315,34.9111292 20.3464671,35 20.1029327,35 L19.8970673,35 C19.6535329,35 19.4183685,34.9111292 19.2357021,34.7500641 C19.1544172,34.6783915 19.012326,34.5471757 18.8180923,34.3585476 C18.5004749,34.0500966 18.1481949,33.6886038 17.7699241,33.2761626 C16.6936182,32.1026306 15.6187906,30.7513532 14.6152082,29.2384429 C11.7343827,24.8955702 10,20.1103393 10,15.0201108 C10,9.1669506 14.2664562,5 19.8970673,5 L20.1029327,5 C25.7327866,5 30,9.16731803 30,15.0201108 C30,20.1103393 28.2656173,24.8955702 25.3847918,29.2384429 C24.3812094,30.7513532 23.3063818,32.1026306 22.2300759,33.2761626 C21.8518051,33.6886038 21.4995251,34.0500966 21.1819077,34.3585476 C20.987674,34.5471757 20.8455828,34.6783915 20.7642979,34.7500641 Z M24,16 C24,13.7910448 22.2089552,12 20,12 C17.7910448,12 16,13.7910448 16,16 C16,18.2089552 17.7910448,20 20,20 C22.2089552,20 24,18.2089552 24,16 Z" id="Location-(Filled)" fill="#2F313A" fill-rule="nonzero"></path>
    </g>
</svg>