<?xml version="1.0" encoding="UTF-8"?>
<svg width="40px" height="40px" viewBox="0 0 40 40" version="1.1" xmlns="http://www.w3.org/2000/svg" xmlns:xlink="http://www.w3.org/1999/xlink">
    <!-- Generator: Sketch 59.1 (86144) - https://sketch.com -->
    <title>Vector Files/40x40/Flattened/Misc/Location</title>
    <desc>Created with Sketch.</desc>
    <g id="40x40/Flattened/Misc/Location" stroke="none" stroke-width="1" fill="none" fill-rule="evenodd">
        <path d="M20.7642979,34.7500641 C20.5816315,34.9111292 20.3464671,35 20.1029327,35 L19.8970673,35 C19.6535329,35 19.4183685,34.9111292 19.2357021,34.7500641 C19.1544172,34.6783915 19.012326,34.5471757 18.8180923,34.3585476 C18.5004749,34.0500966 18.1481949,33.6886038 17.7699241,33.2761626 C16.6936182,32.1026306 15.6187906,30.7513532 14.6152082,29.2384429 C11.7343827,24.8955702 10,20.1103393 10,15.0201108 C10,9.1669506 14.2664562,5 19.8970673,5 L20.1029327,5 C25.7327866,5 30,9.16731803 30,15.0201108 C30,20.1103393 28.2656173,24.8955702 25.3847918,29.2384429 C24.3812094,30.7513532 23.3063818,32.1026306 22.2300759,33.2761626 C21.8518051,33.6886038 21.4995251,34.0500966 21.1819077,34.3585476 C20.987674,34.5471757 20.8455828,34.6783915 20.7642979,34.7500641 Z M20,33.8832625 L20.1029327,33.7665249 L20.1029327,33 L19.8970673,33 L19.8970673,33.7665249 L20,33.8832625 Z M20.7561231,31.9243256 C21.7650673,30.8242402 22.7754898,29.5539332 23.718141,28.1328774 C26.3979825,24.09299 28,19.67296 28,15.0201108 C28,10.2826299 24.6386817,7 20.1029327,7 L19.8970673,7 C15.3606,7 12,10.2822215 12,15.0201108 C12,19.67296 13.6020175,24.09299 16.281859,28.1328774 C17.2245102,29.5539332 18.2349327,30.8242402 19.2438769,31.9243256 C19.5124694,32.217181 19.7658045,32.4812097 20,32.7153619 C20.2341955,32.4812097 20.4875306,32.217181 20.7561231,31.9243256 Z M23,16 C23,14.3433295 21.6566705,13 20,13 C18.3433295,13 17,14.3433295 17,16 C17,17.6566705 18.3433295,19 20,19 C21.6566705,19 23,17.6566705 23,16 Z M25,16 C25,18.76124 22.76124,21 20,21 C17.23876,21 15,18.76124 15,16 C15,13.23876 17.23876,11 20,11 C22.76124,11 25,13.23876 25,16 Z" id="Location" fill="#2F313A" fill-rule="nonzero"></path>
    </g>
</svg>