<?xml version="1.0" encoding="UTF-8"?>
<svg width="40px" height="40px" viewBox="0 0 40 40" version="1.1" xmlns="http://www.w3.org/2000/svg" xmlns:xlink="http://www.w3.org/1999/xlink">
    <!-- Generator: Sketch 59.1 (86144) - https://sketch.com -->
    <title>Vector Files/40x40/Flattened/Misc/Mobile Devices</title>
    <desc>Created with Sketch.</desc>
    <g id="40x40/Flattened/Misc/Mobile-Devices" stroke="none" stroke-width="1" fill="none" fill-rule="evenodd">
        <path d="M22.9995,10 L22.9995,11 L31,11 L31,9.478 C31,8.66119262 30.3386231,8 29.521,8 L22.6709042,8 C22.8171649,8.31122117 22.9186572,8.64767327 22.9670906,9.00106576 C22.9779692,9.00035893 22.9889427,9 23,9 L27,9 C27.2761424,9 27.5,9.22385763 27.5,9.5 C27.5,9.77614237 27.2761424,10 27,10 L23,10 L22.9995,10 Z M22.9995,11.9999998 L22.9995,27.9999998 L31,27.9999998 L31,11.9999998 L23,11.9999998 L22.9995,11.9999998 Z M22.9995,29 L22.9995,30.522 C22.9995,31.050528 22.8816956,31.5514671 22.6709042,32 L29.521,32 C30.3386231,32 31,31.3388074 31,30.522 L31,29 L22.9995,29 Z M19,8 L19,8.283 C19,9.24971206 18.1245221,10 17.08,10 L12.92,10 C11.8754779,10 11,9.24971206 11,8.283 L11,8 L10.4785,8 C9.66146918,8 8.9995,8.66160029 8.9995,9.478 L8.9995,30.522 C8.9995,31.3383997 9.66146918,32 10.4785,32 L19.5215,32 C20.3382153,32 20.9995,31.3387153 20.9995,30.522 L20.9995,9.478 C20.9995,8.66128475 20.3382153,8 19.5215,8 L19,8 L19,8 Z M10.4785,6 L29.521,6 C31.4430678,6 33,7.5564983 33,9.478 L33,30.522 C33,32.4435017 31.4430678,34 29.521,34 L10.4785,34 C8.55714916,34 6.9995,32.4432188 6.9995,30.522 L6.9995,9.478 C6.9995,7.55678115 8.55714916,6 10.4785,6 Z M12,8 L12,8.283 C12,8.66023347 12.3964586,9 12.92,9 L17.08,9 C17.6035414,9 18,8.66023347 18,8.283 L18,8 L12,8 Z M11.8857,31 C11.6095576,31 11.3857,30.7761424 11.3857,30.5 C11.3857,30.2238576 11.6095576,30 11.8857,30 L17.8857,30 C18.1618424,30 18.3857,30.2238576 18.3857,30.5 C18.3857,30.7761424 18.1618424,31 17.8857,31 L11.8857,31 Z M26,30 C26.2761424,30 26.5,30.2238576 26.5,30.5 C26.5,30.7761424 26.2761424,31 26,31 L24,31 C23.7238576,31 23.5,30.7761424 23.5,30.5 C23.5,30.2238576 23.7238576,30 24,30 L26,30 Z" id="Mobile-Devices" fill="#2F313A" fill-rule="nonzero"></path>
    </g>
</svg>