<?xml version="1.0" encoding="UTF-8"?>
<svg width="40px" height="40px" viewBox="0 0 40 40" version="1.1" xmlns="http://www.w3.org/2000/svg" xmlns:xlink="http://www.w3.org/1999/xlink">
    <!-- Generator: Sketch 59.1 (86144) - https://sketch.com -->
    <title>Vector Files/40x40/Flattened/Misc/Mobile Devices (Filled)</title>
    <desc>Created with Sketch.</desc>
    <g id="40x40/Flattened/Misc/Mobile-Devices-(Filled)" stroke="none" stroke-width="1" fill="none" fill-rule="evenodd">
        <path d="M23.9995,28 L23.9995,12 L33,12 L33,28 L23.9995,28 Z M23.9995,29 L33,29 L33,30.522 C33,32.4435017 31.4430678,34 29.521,34 L22.3427891,34 C22.4627119,33.9025918 22.5779827,33.7986944 22.6880886,33.6885886 C23.1814536,33.1952235 23.5501666,32.5981567 23.7689742,31.9435423 C23.8380754,31.9796084 23.9166563,32 24,32 L26,32 C26.2761424,32 26.5,31.7761424 26.5,31.5 C26.5,31.2238576 26.2761424,31 26,31 L24,31 C23.9913178,31 23.9826873,31.0002213 23.9741138,31.0006585 C23.9909405,30.842777 23.9995,30.6830462 23.9995,30.522 L23.9995,29 Z M22.3427891,6 L29.521,6 C31.4430678,6 33,7.5564983 33,9.478 L33,11 L23.9995,11 L23.9995,9.478 C23.9995,9.31717771 23.9909643,9.15766712 23.9741839,9 L27,9 C27.2761424,9 27.5,8.77614237 27.5,8.5 C27.5,8.22385763 27.2761424,8 27,8 L23.7496816,8 C23.5288088,7.3675119 23.1672337,6.79055662 22.6880886,6.31141144 C22.5779827,6.20130561 22.4627119,6.09740823 22.3427891,6 L22.3427891,6 Z M11,6 L11,7.283 C11,8.24971206 11.8754779,9 12.92,9 L17.08,9 C18.1245221,9 19,8.24971206 19,7.283 L19,6 L19.5215,6 C21.4427847,6 22.9995,7.55671525 22.9995,9.478 L22.9995,30.522 C22.9995,32.4432847 21.4427847,34 19.5215,34 L10.4785,34 C8.55714916,34 6.9995,32.4432188 6.9995,30.522 L6.9995,9.478 C6.9995,7.55678115 8.55714916,6 10.4785,6 L11,6 Z M12,6 L18,6 L18,7.283 C18,7.66023347 17.6035414,8 17.08,8 L12.92,8 C12.3964586,8 12,7.66023347 12,7.283 L12,6 Z M11.8857,32 L17.8857,32 C18.1618424,32 18.3857,31.7761424 18.3857,31.5 C18.3857,31.2238576 18.1618424,31 17.8857,31 L11.8857,31 C11.6095576,31 11.3857,31.2238576 11.3857,31.5 C11.3857,31.7761424 11.6095576,32 11.8857,32 Z" id="Mobile-Devices-(Filled)" fill="#2F313A" fill-rule="nonzero"></path>
    </g>
</svg>