<?xml version="1.0" encoding="UTF-8"?>
<svg width="40px" height="40px" viewBox="0 0 40 40" version="1.1" xmlns="http://www.w3.org/2000/svg" xmlns:xlink="http://www.w3.org/1999/xlink">
    <!-- Generator: Sketch 59.1 (86144) - https://sketch.com -->
    <title>Vector Files/40x40/Flattened/Misc/Phone (Filled)</title>
    <desc>Created with Sketch.</desc>
    <g id="40x40/Flattened/Misc/Phone-(Filled)" stroke="none" stroke-width="1" fill="none" fill-rule="evenodd">
        <path d="M25.3165996,21.8493941 C25.835449,21.3305447 26.4797082,21.0680922 27.1947987,21.1001051 C27.8073999,21.1309548 28.3879127,21.3361812 28.9499598,21.7230383 L33.5393726,25.1153599 C34.2240309,25.5861735 34.5566004,26.3071468 34.487459,27.1432022 C34.4283635,27.8577819 34.1458003,28.4831947 33.6514368,28.9775581 L31.2910864,31.3379085 C30.4326599,32.196335 29.4051809,32.5895561 28.2827131,32.4618651 C27.3480104,32.3563489 26.4074172,32.0599557 25.4189316,31.5523687 C25.2731851,31.4674068 24.9829837,31.2975051 24.550338,31.0431139 C23.9487229,30.691063 23.1832489,30.197927 22.2551704,29.5650818 C21.3209156,28.9282844 20.2853163,28.1630112 19.1502443,27.2706699 C17.9968887,26.3628041 16.8639832,25.3530741 15.755846,24.2449368 C14.6481297,23.1372205 13.6391726,22.0051823 12.7288786,20.8491851 C11.8377737,19.7154666 11.0725546,18.6799405 10.4350125,17.7449738 C9.80457074,16.8204197 9.31186881,16.0551686 8.95952091,15.4530416 C8.70407287,15.0185942 8.53417114,14.7283928 8.42311502,14.5349486 C7.9407997,13.5934044 7.64428465,12.6524245 7.53980966,11.7197195 C7.41202187,10.596397 7.80524292,9.568918 8.66366945,8.71049148 L11.0240198,6.35014115 C11.5183833,5.85577765 12.143796,5.57321441 12.8566051,5.51426699 C13.6924495,5.4436475 14.4152675,5.77706783 14.8656675,6.43370362 L18.2977477,11.0788901 C18.6655055,11.6141858 18.8714285,12.1966692 18.899982,12.807205 C18.9343792,13.518845 18.6710187,14.1629629 18.1570013,14.6769217 L17.3767529,15.4715069 C17.7699414,15.9830516 18.1908706,16.5126738 18.639826,17.0608656 C19.2779387,17.8398551 19.9595432,18.5921517 20.6840872,19.3166956 C21.4093294,20.0419378 22.1616193,20.7235545 22.9406293,21.3616839 C23.4888204,21.8106387 24.0181066,22.2312955 24.5288251,22.6238069 L25.3165996,21.8493941 Z" id="Phone-(Filled)" fill="#2F313A" fill-rule="nonzero"></path>
    </g>
</svg>