<?xml version="1.0" encoding="UTF-8"?>
<svg width="40px" height="40px" viewBox="0 0 40 40" version="1.1" xmlns="http://www.w3.org/2000/svg" xmlns:xlink="http://www.w3.org/1999/xlink">
    <!-- Generator: Sketch 59.1 (86144) - https://sketch.com -->
    <title>Vector Files/40x40/Flattened/Misc/Phone</title>
    <desc>Created with Sketch.</desc>
    <g id="40x40/Flattened/Misc/Phone" stroke="none" stroke-width="1" fill="none" fill-rule="evenodd">
        <path d="M9.91175391,10.2696803 L9.06168417,11.1197501 C8.61984211,11.5615921 8.45448046,11.9936789 8.51098723,12.4904165 C8.58770015,13.1752645 8.81127438,13.8847694 9.16086186,14.5704528 C9.24456303,14.7140367 9.41320025,15.0020782 9.66843682,15.4361702 C9.9953631,15.9948503 10.4645894,16.7236397 11.0712151,17.613267 C11.6816297,18.5084508 12.4204213,19.5082141 13.2845422,20.6076025 C14.144708,21.6999405 15.101151,22.7730586 16.1538607,23.8257683 C17.2069446,24.8788521 18.2808424,25.8359901 19.3706003,26.6937951 C20.4714355,27.5592209 21.4711305,28.297962 22.3655668,28.9076187 C23.2589163,29.5167826 23.9880956,29.9865367 24.5460556,30.3130441 C24.9783459,30.5672239 25.2663874,30.7358611 25.3619474,30.793301 C26.0948127,31.1683795 26.8046982,31.3920736 27.4917191,31.4696301 C27.9867452,31.5259436 28.418832,31.360582 28.860674,30.9187399 L29.6530061,30.1264079 C27.9275445,29.2714229 25.7321008,27.8227698 23.0573981,25.7783063 C23.0385189,25.7661542 23.0199354,25.7532976 23.0016822,25.739734 C22.2579078,25.1870482 21.4769376,24.5753702 20.6571368,23.9039738 C19.8267783,23.2237821 19.0254975,22.497777 18.2536748,21.7259542 C17.4825441,20.9548236 16.7565516,20.1535354 16.0763823,19.3232042 C15.4055682,18.5041145 14.7938135,17.7231023 14.2400015,16.97809 C14.2344057,16.9705624 14.2289302,16.9629784 14.2235747,16.9553407 C12.1452262,14.2142226 10.7087513,11.9891274 9.91175391,10.2696803 Z M10.6615383,9.51989591 C10.6795423,9.54592648 10.695324,9.57405296 10.7085035,9.60412692 C11.3709043,11.1156386 12.6142335,13.1077634 14.4364165,15.5715184 L15.7201812,14.2642195 C15.8513948,14.1330059 15.892568,14.0323059 15.8860412,13.8972476 C15.8753447,13.6685433 15.7956127,13.4430096 15.6530974,13.2345202 L12.2210172,8.5893338 C12.1620573,8.50351371 12.1359437,8.49146807 12.0070133,8.50235965 C11.7576976,8.52297796 11.5766654,8.6047688 11.4220345,8.75939973 L10.6615383,9.51989591 L10.6615383,9.51989591 Z M30.4020217,29.3773922 L31.2210244,28.5583896 C31.3756553,28.4037587 31.4574461,28.2227265 31.4780644,27.9734108 C31.4887599,27.844082 31.476762,27.8180718 31.3622281,27.7386086 L26.7731758,24.3465348 C26.536845,24.1841713 26.3110752,24.1043558 26.0836041,24.092885 C25.9474417,24.0867923 25.8445662,24.1287008 25.7085539,24.2646616 L24.406506,25.5446723 C26.8604777,27.3788181 28.8618016,28.6570424 30.4020217,29.3773922 L30.4020217,29.3773922 Z M24.3004008,22.8444391 C24.8192501,22.3255897 25.4635093,22.0631372 26.1785999,22.0951502 C26.7912011,22.1259999 27.3717138,22.3312262 27.933761,22.7180833 L32.5231738,26.1104049 C33.2078321,26.5812185 33.5404015,27.3021919 33.4712601,28.1382472 C33.4121647,28.8528269 33.1296014,29.4782397 32.6352379,29.9726032 L30.2748876,32.3329535 C29.4164611,33.19138 28.3889821,33.5846011 27.2665143,33.4569101 C26.3318116,33.3513939 25.3912184,33.0550007 24.4027328,32.5474137 C24.2569863,32.4624518 23.9667849,32.2925501 23.5341392,32.0381589 C22.9325241,31.686108 22.1670501,31.192972 21.2389715,30.5601268 C20.3047168,29.9233295 19.2691175,29.1580563 18.1340455,28.2657149 C16.9806899,27.3578491 15.8477844,26.3481191 14.7396472,25.2399818 C13.6319308,24.1322655 12.6229738,23.0002273 11.7126798,21.8442301 C10.8215748,20.7105116 10.0563558,19.6749855 9.41881371,18.7400188 C8.7883719,17.8154648 8.29566998,17.0502136 7.94332207,16.4480866 C7.68787403,16.0136392 7.5179723,15.7234378 7.40691618,15.5299936 C6.92460086,14.5884495 6.62808582,13.6474695 6.52361083,12.7147646 C6.39582303,11.591442 6.78904408,10.563963 7.64747061,9.7055365 L10.0078209,7.34518617 C10.5021844,6.85082267 11.1275972,6.56825943 11.8404062,6.509312 C12.6762507,6.43869252 13.3990687,6.77211284 13.8494687,7.42874864 L17.2815488,12.0739351 C17.6493067,12.6092308 17.8552297,13.1917143 17.8837832,13.80225 C17.9181804,14.5138901 17.6548199,15.1580079 17.1408025,15.6719667 L16.3605541,16.4665519 C16.7537426,16.9780966 17.1746718,17.5077188 17.6236272,18.0559106 C18.2617398,18.8349001 18.9433444,19.5871967 19.6678883,20.3117407 C20.3931305,21.0369829 21.1454205,21.7185995 21.9244304,22.3567289 C22.4726216,22.8056837 23.0019078,23.2263405 23.5126262,23.6188519 L24.3004008,22.8444391 Z" id="Phone" fill="#2F313A" fill-rule="nonzero"></path>
    </g>
</svg>