<?xml version="1.0" encoding="UTF-8"?>
<svg width="40px" height="40px" viewBox="0 0 40 40" version="1.1" xmlns="http://www.w3.org/2000/svg" xmlns:xlink="http://www.w3.org/1999/xlink">
    <!-- Generator: Sketch 59.1 (86144) - https://sketch.com -->
    <title>Vector Files/40x40/Flattened/Misc/Phone (Mobile)</title>
    <desc>Created with Sketch.</desc>
    <g id="40x40/Flattened/Misc/Phone-(Mobile)" stroke="none" stroke-width="1" fill="none" fill-rule="evenodd">
        <path d="M24,7 L24,8.283 C24,9.24971206 23.1245221,10 22.08,10 L17.92,10 C16.8754779,10 16,9.24971206 16,8.283 L16,7 L14.8331429,7 C13.8076735,7 13,7.76065287 13,8.66861538 L13,31.3313846 C13,32.2393471 13.8076735,33 14.8331429,33 L25.168,33 C26.1931352,33 27,32.2396851 27,31.3313846 L27,8.66861538 C27,7.76031494 26.1931352,7 25.168,7 L24,7 Z M14.8331429,5 L25.168,5 C27.2720077,5 29,6.62830044 29,8.66861538 L29,31.3313846 C29,33.3716996 27.2720077,35 25.168,35 L14.8331429,35 C12.7290331,35 11,33.3716267 11,31.3313846 L11,8.66861538 C11,6.6283733 12.7290331,5 14.8331429,5 Z M17,8.283 C17,8.66023347 17.3964586,9 17.92,9 L22.08,9 C22.6035414,9 23,8.66023347 23,8.283 L23,7 L17,7 L17,8.283 Z M17,32 C16.7238576,32 16.5,31.7761424 16.5,31.5 C16.5,31.2238576 16.7238576,31 17,31 L23,31 C23.2761424,31 23.5,31.2238576 23.5,31.5 C23.5,31.7761424 23.2761424,32 23,32 L17,32 Z" id="Phone-(Mobile)" fill="#2F313A" fill-rule="nonzero"></path>
    </g>
</svg>