<?xml version="1.0" encoding="UTF-8"?>
<svg width="40px" height="40px" viewBox="0 0 40 40" version="1.1" xmlns="http://www.w3.org/2000/svg" xmlns:xlink="http://www.w3.org/1999/xlink">
    <!-- Generator: Sketch 59.1 (86144) - https://sketch.com -->
    <title>Vector Files/40x40/Flattened/Misc/Phone (Mobile) (Filled)</title>
    <desc>Created with Sketch.</desc>
    <g id="40x40/Flattened/Misc/Phone-(Mobile)-(Filled)" stroke="none" stroke-width="1" fill="none" fill-rule="evenodd">
        <path d="M15,5 L15,6.283 C15,7.24971206 15.8754779,8 16.92,8 L23.08,8 C24.1245221,8 25,7.24971206 25,6.283 L25,5 L25.168,5 C27.2720077,5 29,6.62830044 29,8.66861538 L29,31.3313846 C29,33.3716996 27.2720077,35 25.168,35 L14.8331429,35 C12.7290331,35 11,33.3716267 11,31.3313846 L11,8.66861538 C11,6.6283733 12.7290331,5 14.8331429,5 L15,5 Z M16,5 L24,5 L24,6.283 C24,6.66023347 23.6035414,7 23.08,7 L16.92,7 C16.3964586,7 16,6.66023347 16,6.283 L16,5 Z M17,33 L23,33 C23.2761424,33 23.5,32.7761424 23.5,32.5 C23.5,32.2238576 23.2761424,32 23,32 L17,32 C16.7238576,32 16.5,32.2238576 16.5,32.5 C16.5,32.7761424 16.7238576,33 17,33 Z" id="Phone-(Mobile)-(Filled)" fill="#2F313A" fill-rule="nonzero"></path>
    </g>
</svg>