<?xml version="1.0" encoding="UTF-8"?>
<svg width="40px" height="40px" viewBox="0 0 40 40" version="1.1" xmlns="http://www.w3.org/2000/svg" xmlns:xlink="http://www.w3.org/1999/xlink">
    <!-- Generator: Sketch 59.1 (86144) - https://sketch.com -->
    <title>Vector Files/40x40/Flattened/Misc/Security</title>
    <desc>Created with Sketch.</desc>
    <g id="40x40/Flattened/Misc/Security" stroke="none" stroke-width="1" fill="none" fill-rule="evenodd">
        <path d="M20.5,25.4499349 L20.5,28 C20.5,28.2761424 20.2761424,28.5 20,28.5 C19.7238576,28.5 19.5,28.2761424 19.5,28 L19.5,25.4499349 C18.3592352,25.2181361 17.5,24.2089227 17.5,23 C17.5,21.6198576 18.6198576,20.5 20,20.5 C21.3801424,20.5 22.5,21.6198576 22.5,23 C22.5,24.2089227 21.6407648,25.2181361 20.5,25.4499349 L20.5,25.4499349 Z M14,18.3057874 L14,13 C14,9.68640077 16.6860297,7 20,7 C23.3139703,7 26,9.68640077 26,13 L26,18.3057874 C27.815261,19.5932115 29,21.7113547 29,24.106 L29,32 C29,32.5522847 28.5522847,33 28,33 L12,33 C11.4477153,33 11,32.5522847 11,32 L11,24.106 C11,21.7113547 12.184739,19.5932115 14,18.3057874 L14,18.3057874 Z M16,17.3173154 C16.6654699,17.1110752 17.3727732,17 18.106,17 L21.894,17 C22.6272268,17 23.3345301,17.1110752 24,17.3173154 L24,13 C24,10.7909084 22.209339,9 20,9 C17.790661,9 16,10.7909084 16,13 L16,17.3173154 Z M27,31 L27,24.106 C27,21.2862847 24.7137153,19 21.894,19 L18.106,19 C15.2862847,19 13,21.2862847 13,24.106 L13,31 L27,31 Z M20,21.5 C19.1721424,21.5 18.5,22.1721424 18.5,23 C18.5,23.8278576 19.1721424,24.5 20,24.5 C20.8278576,24.5 21.5,23.8278576 21.5,23 C21.5,22.1721424 20.8278576,21.5 20,21.5 Z" id="Security" fill="#2F313A" fill-rule="nonzero"></path>
    </g>
</svg>