<?xml version="1.0" encoding="UTF-8"?>
<svg width="40px" height="40px" viewBox="0 0 40 40" version="1.1" xmlns="http://www.w3.org/2000/svg" xmlns:xlink="http://www.w3.org/1999/xlink">
    <!-- Generator: Sketch 59.1 (86144) - https://sketch.com -->
    <title>Vector Files/40x40/Flattened/Misc/Support (Filled)</title>
    <desc>Created with Sketch.</desc>
    <g id="40x40/Flattened/Misc/Support-(Filled)" stroke="none" stroke-width="1" fill="none" fill-rule="evenodd">
        <path d="M10,26.8106557 C6.77827023,24.9823657 5,22.0618333 5,18.2107437 C5,11.0623183 11.1067074,7 19.999295,7 C28.8931156,7 35,11.0621534 35,18.2107437 C35,25.297429 29.062466,29 19.999295,29 C19.2475357,29 18.5170389,28.9741365 17.8090522,28.92178 L11.6178216,33.7863183 C10.9616927,34.3018481 10,33.8344315 10,33 L10,26.8106557 L10,26.8106557 Z M19.5154658,20.6538303 C18.8103685,20.6538303 18.2885966,21.174427 18.2885966,21.8513204 L18.2885966,21.8795243 C18.2885966,22.5564176 18.8103685,23.0781895 19.5154658,23.0781895 C20.220563,23.0781895 20.7411597,22.5564176 20.7411597,21.8795243 L20.7411597,21.8513204 C20.7411597,21.174427 20.220563,20.6538303 19.5154658,20.6538303 Z M19.5154658,19.7231019 L19.6282813,19.7231019 C20.0360625,19.7231019 20.3322034,19.3999324 20.3886111,19.0332818 L20.430917,18.7794468 C21.9680289,18.4692041 23.209,17.735903 23.209,15.9461312 L23.209,15.9179273 C23.209,14.0435439 21.8270095,13 19.7975046,13 C18.5577087,13 17.6128784,13.3948544 16.8654754,14.01534 C16.6116404,14.2268692 16.5,14.508908 16.5,14.776845 C16.5,15.3115437 16.9500871,15.7628059 17.4847858,15.7628059 C17.725694,15.7628059 17.9513251,15.6640923 18.1205484,15.5371748 C18.6270433,15.1564223 19.1488152,14.9742722 19.7551988,14.9742722 C20.5719364,14.9742722 21.0525777,15.3409228 21.0525777,15.9743351 L21.0525777,16.002539 C21.0525777,16.6935342 20.4873248,17.0742867 19.2616308,17.228233 C18.8103685,17.2846407 18.5436068,17.6089855 18.6129413,18.0743496 L18.7551359,19.0332818 C18.8103685,19.4128592 19.1065094,19.7231019 19.5154658,19.7231019 Z" id="Support-(Filled)" fill="#2F313A" fill-rule="nonzero"></path>
    </g>
</svg>