<?xml version="1.0" encoding="UTF-8"?>
<svg width="40px" height="40px" viewBox="0 0 40 40" version="1.1" xmlns="http://www.w3.org/2000/svg" xmlns:xlink="http://www.w3.org/1999/xlink">
    <!-- Generator: Sketch 59.1 (86144) - https://sketch.com -->
    <title>Vector Files/40x40/Flattened/Misc/Support</title>
    <desc>Created with Sketch.</desc>
    <g id="40x40/Flattened/Misc/Support" stroke="none" stroke-width="1" fill="none" fill-rule="evenodd">
        <path d="M11.3883686,25.3001285 C11.7477501,25.4517286 12,25.8073632 12,26.2219138 L12,30.9726467 L17.0011183,27.1365404 C17.132991,27.0353875 17.2820264,26.9721688 17.4351129,26.9451559 C17.5441281,26.9154206 17.6600761,26.9037972 17.7792085,26.913471 C18.4917214,26.9713285 19.2323503,27 19.999295,27 C28.0979344,27 33,23.943134 33,18.2107437 C33,12.3794739 27.9194296,9 19.999295,9 C12.0804052,9 7,12.3795991 7,18.2107437 C7,21.4313326 8.47475545,23.748801 11.266696,25.2243498 C11.3096166,25.2470335 11.3502065,25.272398 11.3883686,25.3001285 L11.3883686,25.3001285 Z M10,26.8106557 C6.77827023,24.9823657 5,22.0618333 5,18.2107437 C5,11.0623183 11.1067074,7 19.999295,7 C28.8931156,7 35,11.0621534 35,18.2107437 C35,25.297429 29.062466,29 19.999295,29 C19.2962536,29 18.6118082,28.9773801 17.9469792,28.9316253 L11.6086229,33.7934596 C10.9508138,34.2980319 10,33.8290393 10,33 L10,26.8106557 L10,26.8106557 Z M19.5154658,20.6538303 C20.220563,20.6538303 20.7411597,21.174427 20.7411597,21.8513204 L20.7411597,21.8795243 C20.7411597,22.5564176 20.220563,23.0781895 19.5154658,23.0781895 C18.8103685,23.0781895 18.2885966,22.5564176 18.2885966,21.8795243 L18.2885966,21.8513204 C18.2885966,21.174427 18.8103685,20.6538303 19.5154658,20.6538303 Z M19.5154658,19.7231019 C19.1065094,19.7231019 18.8103685,19.4128592 18.7551359,19.0332818 L18.6129413,18.0743496 C18.5436068,17.6089855 18.8103685,17.2846407 19.2616308,17.228233 C20.4873248,17.0742867 21.0525777,16.6935342 21.0525777,16.002539 L21.0525777,15.9743351 C21.0525777,15.3409228 20.5719364,14.9742722 19.7551988,14.9742722 C19.1488152,14.9742722 18.6270433,15.1564223 18.1205484,15.5371748 C17.9513251,15.6640923 17.725694,15.7628059 17.4847858,15.7628059 C16.9500871,15.7628059 16.5,15.3115437 16.5,14.776845 C16.5,14.508908 16.6116404,14.2268692 16.8654754,14.01534 C17.6128784,13.3948544 18.5577087,13 19.7975046,13 C21.8270095,13 23.209,14.0435439 23.209,15.9179273 L23.209,15.9461312 C23.209,17.735903 21.9680289,18.4692041 20.430917,18.7794468 L20.3886111,19.0332818 C20.3322034,19.3999324 20.0360625,19.7231019 19.6282813,19.7231019 L19.5154658,19.7231019 Z" id="Support" fill="#2F313A" fill-rule="nonzero"></path>
    </g>
</svg>