<?xml version="1.0" encoding="UTF-8"?>
<svg width="40px" height="40px" viewBox="0 0 40 40" version="1.1" xmlns="http://www.w3.org/2000/svg" xmlns:xlink="http://www.w3.org/1999/xlink">
    <!-- Generator: Sketch 59.1 (86144) - https://sketch.com -->
    <title>Vector Files/40x40/Flattened/Misc/Tip (Filled)</title>
    <desc>Created with Sketch.</desc>
    <g id="40x40/Flattened/Misc/Tip-(Filled)" stroke="none" stroke-width="1" fill="none" fill-rule="evenodd">
        <path d="M23.6976037,23 C23.6976037,23.5522847 23.2498885,24 22.6976037,24 L16.90177,24 C16.3494853,24 15.90177,23.5522847 15.90177,23 C15.90177,21.3286667 15.4223556,20.3005003 14.1674653,18.7186547 C14.1497881,18.6963719 13.7500866,18.1964125 13.6339985,18.0482383 C12.3800138,16.447659 11.8670981,15.2536252 12.0244616,13.5249778 C12.3555791,9.87077465 15.2320047,7 20.0009311,7 C24.7843979,7 27.6505891,9.75384616 27.9774039,13.3605657 C28.1347283,15.0975129 27.5695602,16.3142795 26.209393,17.9469013 C26.0767154,18.1061554 25.6080503,18.6568868 25.6125437,18.6515706 C24.2248646,20.2933872 23.6976037,21.3402631 23.6976037,23 Z M17,26 C16.7238576,26 16.5,25.7761424 16.5,25.5 C16.5,25.2238576 16.7238576,25 17,25 L23,25 C23.2761424,25 23.5,25.2238576 23.5,25.5 C23.5,25.7761424 23.2761424,26 23,26 L17,26 Z M17,28 C16.7238576,28 16.5,27.7761424 16.5,27.5 C16.5,27.2238576 16.7238576,27 17,27 L23,27 C23.2761424,27 23.5,27.2238576 23.5,27.5 C23.5,27.7761424 23.2761424,28 23,28 L17,28 Z M17,30 C16.7238576,30 16.5,29.7761424 16.5,29.5 C16.5,29.2238576 16.7238576,29 17,29 L23,29 C23.2761424,29 23.5,29.2238576 23.5,29.5 C23.5,29.7761424 23.2761424,30 23,30 L17,30 Z" id="Tip-(Filled)" fill="#2F313A" fill-rule="nonzero"></path>
    </g>
</svg>