<?xml version="1.0" encoding="UTF-8"?>
<svg width="40px" height="40px" viewBox="0 0 40 40" version="1.1" xmlns="http://www.w3.org/2000/svg" xmlns:xlink="http://www.w3.org/1999/xlink">
    <!-- Generator: Sketch 59.1 (86144) - https://sketch.com -->
    <title>Vector Files/40x40/Flattened/Misc/View Grid</title>
    <desc>Created with Sketch.</desc>
    <g id="40x40/Flattened/Misc/View-Grid" stroke="none" stroke-width="1" fill="none" fill-rule="evenodd">
        <path d="M13,19 L19,19 L19,14 L13,14 L13,19 L13,19 Z M13,21 L13,26 L19,26 L19,21 L13,21 L13,21 Z M27,19 L27,14 L21,14 L21,19 L27,19 L27,19 Z M27,21 L21,21 L21,26 L27,26 L27,21 L27,21 Z M12,28 C11.4477153,28 11,27.5522847 11,27 L11,13 C11,12.4477153 11.4477153,12 12,12 L28,12 C28.5522847,12 29,12.4477153 29,13 L29,27 C29,27.5522847 28.5522847,28 28,28 L12,28 Z" id="View-Grid" fill="#2F313A" fill-rule="nonzero"></path>
    </g>
</svg>