<?xml version="1.0" encoding="UTF-8"?>
<svg width="40px" height="40px" viewBox="0 0 40 40" version="1.1" xmlns="http://www.w3.org/2000/svg" xmlns:xlink="http://www.w3.org/1999/xlink">
    <!-- Generator: Sketch 59.1 (86144) - https://sketch.com -->
    <title>Vector Files/40x40/Flattened/Misc/View List</title>
    <desc>Created with Sketch.</desc>
    <g id="40x40/Flattened/Misc/View-List" stroke="none" stroke-width="1" fill="none" fill-rule="evenodd">
        <path d="M28,25 C28.5522847,25 29,25.4477153 29,26 C29,26.5522847 28.5522847,27 28,27 L12,27 C11.4477153,27 11,26.5522847 11,26 C11,25.4477153 11.4477153,25 12,25 L28,25 Z M28,19 C28.5522847,19 29,19.4477153 29,20 C29,20.5522847 28.5522847,21 28,21 L12,21 C11.4477153,21 11,20.5522847 11,20 C11,19.4477153 11.4477153,19 12,19 L28,19 Z M28,13 C28.5522847,13 29,13.4477153 29,14 C29,14.5522847 28.5522847,15 28,15 L12,15 C11.4477153,15 11,14.5522847 11,14 C11,13.4477153 11.4477153,13 12,13 L28,13 Z" id="View-List" fill="#2F313A" fill-rule="nonzero"></path>
    </g>
</svg>