<?xml version="1.0" encoding="UTF-8"?>
<svg width="40px" height="40px" viewBox="0 0 40 40" version="1.1" xmlns="http://www.w3.org/2000/svg" xmlns:xlink="http://www.w3.org/1999/xlink">
    <!-- Generator: Sketch 59.1 (86144) - https://sketch.com -->
    <title>Vector Files/40x40/Flattened/Misc/View Grid (Filled)</title>
    <desc>Created with Sketch.</desc>
    <g id="40x40/Flattened/Misc/View-Grid-(Filled)" stroke="none" stroke-width="1" fill="none" fill-rule="evenodd">
        <path d="M14,19 L14,15 L19,15 L19,19 L14,19 Z M14,21 L19,21 L19,25 L14,25 L14,21 Z M26,19 L21,19 L21,15 L26,15 L26,19 Z M26,21 L26,25 L21,25 L21,21 L26,21 Z M33,20 C33,27.1794858 27.1790837,33 20,33 C12.8201153,33 7,27.1798847 7,20 C7,12.8209163 12.8205142,7 20,7 C27.1786847,7 33,12.8213153 33,20 Z M13,27 L27,27 C27.5522847,27 28,26.5522847 28,26 L28,14 C28,13.4477153 27.5522847,13 27,13 L13,13 C12.4477153,13 12,13.4477153 12,14 L12,26 C12,26.5522847 12.4477153,27 13,27 Z" id="View-Grid-(Filled)" fill="#2F313A" fill-rule="nonzero"></path>
    </g>
</svg>