<?xml version="1.0" encoding="UTF-8"?>
<svg width="24px" height="24px" viewBox="0 0 24 24" version="1.1" xmlns="http://www.w3.org/2000/svg" xmlns:xlink="http://www.w3.org/1999/xlink">
    <title>Vector Files/24x24/Miscellaneous/Calendar</title>
    <g id="Symbols" stroke="none" stroke-width="1" fill="none" fill-rule="evenodd">
        <g id="24x24/Miscellaneous/Calendar" transform="translate(-0.000000, 0.000000)" fill="#2F313A">
            <path d="M16,3 C16.5128358,3 16.9355072,3.38604019 16.9932723,3.88337887 L17,4 L17,5 L20,5 C20.5128358,5 20.9355072,5.38604019 20.9932723,5.88337887 L21,6 L21,18 C21,19.5976809 19.75108,20.9036609 18.1762728,20.9949073 L18,21 L6,21 C4.40231912,21 3.09633912,19.75108 3.00509269,18.1762728 L3,18 L3,6 C3,5.48716416 3.38604019,5.06449284 3.88337887,5.00672773 L4,5 L7,5 L7,4 C7,3.44771525 7.44771525,3 8,3 C8.51283584,3 8.93550716,3.38604019 8.99327227,3.88337887 L9,4 L9,5 L15,5 L15,4 C15,3.44771525 15.4477153,3 16,3 Z M19,12 L5,12 L5,18 C5,18.4733869 5.32893365,18.8699473 5.77070917,18.9735893 L5.88337887,18.9932723 L6,19 L18,19 C18.5128358,19 18.9355072,18.6139598 18.9932723,18.1166211 L19,18 L19,12 Z M8,14.5 C8.55228475,14.5 9,14.9477153 9,15.5 C9,16.0522847 8.55228475,16.5 8,16.5 C7.44771525,16.5 7,16.0522847 7,15.5 C7,14.9477153 7.44771525,14.5 8,14.5 Z M12,14.5 C12.5522847,14.5 13,14.9477153 13,15.5 C13,16.0522847 12.5522847,16.5 12,16.5 C11.4477153,16.5 11,16.0522847 11,15.5 C11,14.9477153 11.4477153,14.5 12,14.5 Z M16,14.5 C16.5522847,14.5 17,14.9477153 17,15.5 C17,16.0522847 16.5522847,16.5 16,16.5 C15.4477153,16.5 15,16.0522847 15,15.5 C15,14.9477153 15.4477153,14.5 16,14.5 Z M7,7 L5,7 L5,10 L19,10 L19,7 L17,7 L17,7.5 C17,8.05228475 16.5522847,8.5 16,8.5 C15.4871642,8.5 15.0644928,8.11395981 15.0067277,7.61662113 L15,7.5 L15,7 L9,7 L9,7.5 C9,8.05228475 8.55228475,8.5 8,8.5 C7.48716416,8.5 7.06449284,8.11395981 7.00672773,7.61662113 L7,7.5 L7,7 Z" id="Calendar"></path>
        </g>
    </g>
</svg>