<?xml version="1.0" encoding="UTF-8"?>
<svg width="24px" height="24px" viewBox="0 0 24 24" version="1.1" xmlns="http://www.w3.org/2000/svg" xmlns:xlink="http://www.w3.org/1999/xlink">
    <title>Vector Files/24x24/Miscellaneous/Location</title>
    <g id="Symbols" stroke="none" stroke-width="1" fill="none" fill-rule="evenodd">
        <g id="24x24/Miscellaneous/Location" transform="translate(0.000000, 0.000000)" fill="#2F313A">
            <path d="M12.0686218,2 C15.9964606,2 19,4.82846847 19,8.79864263 C19,12.1586161 17.8033946,15.3057775 15.8208204,18.1548251 C15.1326964,19.14369 14.3961069,20.0264473 13.6581225,20.7934845 L13.3407614,21.1163959 C13.2910416,21.1658573 13.2429695,21.2131265 13.1966361,21.258183 L12.9402296,21.5018041 L12.9402296,21.5018041 L12.8290416,21.6033918 L12.6434298,21.7655052 C12.2714503,22.0781649 11.7285497,22.0781649 11.3565702,21.7655052 L11.1709584,21.6033918 L11.1709584,21.6033918 L10.9370567,21.3866935 C10.8942919,21.3460831 10.8496973,21.3032394 10.8033639,21.258183 L10.6592386,21.1163959 L10.3418775,20.7934845 C9.60389314,20.0264473 8.86730363,19.14369 8.17917964,18.1548251 C6.19660539,15.3057775 5,12.1586161 5,8.79864263 C5,4.91095704 7.87920613,2.11833908 11.68708,2.00366736 L12.0686218,2 Z M12.0686218,4 L11.9313782,4 C9.08167522,4 7,5.96051317 7,8.79864263 C7,11.7020763 8.05339461,14.4725826 9.82082036,17.0124522 C10.3411337,17.7601657 10.8928946,18.4421089 11.4490896,19.050606 L11.7831225,19.4068293 L12,19.628 L12.2168775,19.4068293 C12.8851431,18.7122554 13.5548036,17.9097084 14.1791796,17.0124522 C15.9466054,14.4725826 17,11.7020763 17,8.79864263 C17,6.03748268 15.0288792,4.10662898 12.2979335,4.00427543 L12.0686218,4 Z M12,6 C13.6567624,6 15,7.34323764 15,9 C15,10.6567624 13.6567624,12 12,12 C10.3432376,12 9,10.6567624 9,9 C9,7.34323764 10.3432376,6 12,6 Z M12,8 C11.4478071,8 11,8.44780714 11,9 C11,9.55219286 11.4478071,10 12,10 C12.5521929,10 13,9.55219286 13,9 C13,8.44780714 12.5521929,8 12,8 Z" id="Location"></path>
        </g>
    </g>
</svg>