<?xml version="1.0" encoding="UTF-8"?>
<svg width="24px" height="24px" viewBox="0 0 24 24" version="1.1" xmlns="http://www.w3.org/2000/svg" xmlns:xlink="http://www.w3.org/1999/xlink">
    <title>Vector Files/24x24/Miscellaneous/Phone</title>
    <g id="Symbols" stroke="none" stroke-width="1" fill="none" fill-rule="evenodd">
        <g id="24x24/Miscellaneous/Phone" transform="translate(-0.000000, 0.000000)" fill="#2F313A">
            <path d="M6.94921599,3.01815661 C6.41504263,3.08874668 5.94104276,3.32134305 5.56067991,3.70169998 L3.92082959,5.34152474 C3.27679734,5.98554695 2.95226416,6.7498974 3.00568346,7.58295326 C3.04688923,8.24369976 3.2247054,8.90384022 3.53357139,9.55488157 L3.86991998,10.1675645 L4.07854736,10.5322138 L4.32977177,10.9466629 L4.70340694,11.5344004 L4.70340694,11.5344004 L4.78605076,11.6612017 C5.18301664,12.2679959 5.66104775,12.9361873 6.21916437,13.6646829 C6.79485076,14.4145766 7.43717946,15.1440584 8.14633415,15.853202 C8.85576424,16.562621 9.58582624,17.2054406 10.3337711,17.7793693 C11.0633893,18.3384485 11.7316708,18.8165292 12.3380726,19.2130461 L12.8282029,19.5287559 L13.2682184,19.8017621 L13.6582385,20.0320374 L14.3930625,20.439718 C15.0958596,20.7747269 15.7556017,20.9524302 16.4180788,20.9943276 C17.2502805,21.0476908 18.0146428,20.7231627 18.6586751,20.0791405 L20.2985254,18.4393157 C20.6788882,18.0589588 20.9114882,17.5849663 20.982307,17.0490903 C21.0660836,16.4151643 20.850967,15.8401209 20.3663298,15.4575518 L17.3280403,13.282146 C16.891111,12.9930653 16.4397704,12.8536087 15.9637127,12.8534376 L15.780551,12.8625261 C15.2980433,12.9082624 14.8640202,13.1248273 14.5048199,13.484022 L14.1364655,13.8454773 L13.6300549,13.4529753 C13.5481262,13.3883075 13.4655145,13.3225804 13.3822171,13.255793 C12.8999862,12.8690486 12.4362805,12.4532604 11.9913046,12.0082915 C11.5467691,11.5637629 11.1309825,11.1000598 10.74421,10.6178088 L10.3096667,10.0661908 L10.1530364,9.86211032 L10.5208078,9.48851156 C10.9203616,9.08901156 11.1447219,8.59008297 11.1456442,8.03745866 C11.1471827,7.56264955 11.0071877,7.10958054 10.7387134,6.70260943 L8.61252632,3.72957922 C8.25534007,3.18684076 7.63612938,2.92616452 6.94921599,3.01815661 Z M7.07488534,5.02426727 L7.0938808,5.01624191 L9.10305519,7.82661159 C9.13862787,7.88182695 9.16090913,7.95393631 9.16065447,8.03258894 L9.15382656,8.04642003 L8.14280525,9.07540079 C7.80372655,9.42010628 7.76240503,9.95899611 8.04496548,10.3513668 C8.39115948,10.8321006 8.77448,11.3343645 9.19562859,11.859605 C9.62790735,12.3985959 10.0920814,12.9162628 10.5877003,13.4118739 C11.0837527,13.9079187 11.6014223,14.3720942 12.1404015,14.8043502 C12.6661563,15.225898 13.168423,15.6091783 13.6484133,15.954683 C14.0409425,16.2372317 14.5799838,16.1957071 14.9246051,15.8563725 L15.9523633,14.8461923 L15.9685824,14.8383891 L16.0255174,14.8428136 C16.0822838,14.8518173 16.1393545,14.8751205 16.2040206,14.9177787 L18.9824095,16.9059889 L18.9759375,16.9251339 C18.956605,16.9649278 18.9301836,17.0004712 18.894921,17.0357333 L17.2550707,18.675558 C16.9957431,18.9348817 16.7758815,19.0282291 16.5442356,19.0133754 C16.139426,18.9877734 15.7243097,18.8759607 15.2957109,18.6728402 L14.6386779,18.306069 L14.2863566,18.0977209 L13.8814074,17.8461913 L13.42459,17.5518405 C12.8621743,17.1840854 12.2335297,16.7343604 11.541651,16.2041999 C10.8640464,15.6842459 10.1990134,15.0986844 9.54993848,14.4496195 C8.90108793,13.8007791 8.31593311,13.1362288 7.79429653,12.4567415 C7.35335991,11.8811973 6.96751858,11.3486681 6.6380648,10.8614233 L6.29526029,10.3405884 L6.023097,9.91079303 L5.79355976,9.5326609 L5.60715201,9.20725139 L5.30030796,8.65189134 C5.12355406,8.27528401 5.01184858,7.86057871 4.9867211,7.45766727 C4.97175736,7.22428898 5.06510626,7.00443081 5.32443392,6.7451072 L6.96428424,5.10528244 C6.99954683,5.0700204 7.03509084,5.04359943 7.07488534,5.02426727 Z" id="Phone"></path>
        </g>
    </g>
</svg>