<?xml version="1.0" encoding="UTF-8"?>
<svg width="24px" height="24px" viewBox="0 0 24 24" version="1.1" xmlns="http://www.w3.org/2000/svg" xmlns:xlink="http://www.w3.org/1999/xlink">
    <title>Vector Files/24x24/Miscellaneous/Phone (Filled)</title>
    <g id="Symbols" stroke="none" stroke-width="1" fill="none" fill-rule="evenodd">
        <g id="24x24/Miscellaneous/Phone-(Filled)" transform="translate(-0.000000, 0.000000)" fill="#2F313A">
            <path d="M6.94921599,3.01815661 C6.41504263,3.08874668 5.94104276,3.32134305 5.56067991,3.70169998 L3.92082959,5.34152474 C3.27679734,5.98554695 2.95226416,6.7498974 3.00568346,7.58295326 C3.04688923,8.24369976 3.2247054,8.90384022 3.53357139,9.55488157 L3.86991998,10.1675645 L4.07854736,10.5322138 L4.32977177,10.9466629 L4.70340694,11.5344004 L4.78605076,11.6612017 C5.18301664,12.2679959 5.66104775,12.9361873 6.21916437,13.6646829 C6.79485076,14.4145766 7.43717946,15.1440584 8.14633415,15.853202 C8.85576424,16.562621 9.58582624,17.2054406 10.3337711,17.7793693 C11.0633893,18.3384485 11.7316708,18.8165292 12.3380726,19.2130461 L12.8282029,19.5287559 L13.2682184,19.8017621 L13.6582385,20.0320374 L14.3930625,20.439718 C15.0958596,20.7747269 15.7556017,20.9524302 16.4180788,20.9943276 C17.2502805,21.0476908 18.0146428,20.7231627 18.6586751,20.0791405 L20.2985254,18.4393157 C20.6788882,18.0589588 20.9114882,17.5849663 20.982307,17.0490903 C21.0660836,16.4151643 20.850967,15.8401209 20.3663298,15.4575518 L17.3280403,13.282146 C16.891111,12.9930653 16.4397704,12.8536087 15.9637127,12.8534376 L15.780551,12.8625261 C15.2980433,12.9082624 14.8640202,13.1248273 14.5048199,13.484022 L14.1364655,13.8454773 L13.6300549,13.4529753 C13.5481262,13.3883075 13.4655145,13.3225804 13.3822171,13.255793 C12.8999862,12.8690486 12.4362805,12.4532604 11.9913046,12.0082915 C11.5467691,11.5637629 11.1309825,11.1000598 10.74421,10.6178088 L10.3096667,10.0661908 L10.1530364,9.86211032 L10.5208078,9.48851156 C10.9203616,9.08901156 11.1447219,8.59008297 11.1456442,8.03745866 C11.1471827,7.56264955 11.0071877,7.10958054 10.7387134,6.70260943 L8.61252632,3.72957922 C8.25534007,3.18684076 7.63612938,2.92616452 6.94921599,3.01815661 Z" id="Phone-(Filled)"></path>
        </g>
    </g>
</svg>