<?xml version="1.0" encoding="UTF-8"?>
<svg width="24px" height="24px" viewBox="0 0 24 24" version="1.1" xmlns="http://www.w3.org/2000/svg" xmlns:xlink="http://www.w3.org/1999/xlink">
    <title>Vector Files/24x24/Miscellaneous/Photo (Filled)</title>
    <g id="Symbols" stroke="none" stroke-width="1" fill="none" fill-rule="evenodd">
        <g id="24x24/Miscellaneous/Photo-(Filled)" transform="translate(-0.000000, 0.000000)" fill="#2F313A">
            <path d="M12,3 C12.5128358,3 12.9355072,3.38604019 12.9932723,3.88337887 L13,4 L13,5 L20,5 C21.0543618,5 21.9181651,5.81587779 21.9945143,6.85073766 L22,7 L22,18 C22,19.0543618 21.1841222,19.9181651 20.1492623,19.9945143 L20,20 L4,20 C2.9456382,20 2.08183488,19.1841222 2.00548574,18.1492623 L2,18 L2,7 C2,5.9456382 2.81587779,5.08183488 3.85073766,5.00548574 L4,5 L11,5 L11,4 C11,3.44771525 11.4477153,3 12,3 Z M11.4541562,10.6842958 C10.7564479,10.0862992 9.73743709,10.0425757 8.99138968,10.5764491 L8.85484967,10.6833248 L3.9997464,14.8300192 L3.9997464,17.4610192 L10.1538742,12.2040192 L14.4499235,16.5000763 L14.5371443,16.5777827 C14.929662,16.8886082 15.5015074,16.862706 15.8641371,16.5000763 C16.224621,16.1395924 16.2523506,15.5723613 15.9473257,15.1800701 L15.8641371,15.0858628 L15.4317464,14.6530192 L17.8535534,12.232233 L19.9748737,14.3535534 L19.9997464,14.3750192 L19.9997464,11.5500192 L19.267767,10.8180195 L19.1583435,10.7163541 C18.4162525,10.0762385 17.3156138,10.0709042 16.567547,10.7003512 L16.4393398,10.8180195 L14.0177464,13.2390192 L11.5680878,10.7898135 L11.4541562,10.6842958 Z" id="Photo-(Filled)"></path>
        </g>
    </g>
</svg>