<?xml version="1.0" encoding="UTF-8"?>
<svg width="24px" height="24px" viewBox="0 0 24 24" version="1.1" xmlns="http://www.w3.org/2000/svg" xmlns:xlink="http://www.w3.org/1999/xlink">
    <title>Vector Files/24x24/Miscellaneous/Photo</title>
    <g id="Symbols" stroke="none" stroke-width="1" fill="none" fill-rule="evenodd">
        <g id="24x24/Miscellaneous/Photo" transform="translate(-0.000000, 0.000000)" fill="#2F313A">
            <path d="M12,3 C12.5128358,3 12.9355072,3.38604019 12.9932723,3.88337887 L13,4 L13,5 L20,5 C21.0543618,5 21.9181651,5.81587779 21.9945143,6.85073766 L22,7 L22,18 C22,19.0543618 21.1841222,19.9181651 20.1492623,19.9945143 L20,20 L4,20 C2.9456382,20 2.08183488,19.1841222 2.00548574,18.1492623 L2,18 L2,7 C2,5.9456382 2.81587779,5.08183488 3.85073766,5.00548574 L4,5 L11,5 L11,4 C11,3.44771525 11.4477153,3 12,3 Z M17.8535534,12.232233 L15.432,14.653 L15.8643718,15.0857864 C16.254896,15.4763107 16.254896,16.1094757 15.8643718,16.5 C15.5017421,16.8626297 14.9298967,16.8885318 14.537379,16.5777064 L14.4501582,16.5 L10.2075175,12.2573593 L4.55066325,17.9142136 C4.51944487,17.9454319 4.48667593,17.9741547 4.45260433,18.0003819 L20,18 L20,14.376 L19.9748737,14.3535534 L17.8535534,12.232233 Z M20,7 L4,7 L4,15.635 L8.79330394,10.8431458 C9.53885032,10.0975994 10.7265642,10.0637109 11.5123076,10.7414803 L11.6217311,10.8431458 L14.017,13.239 L16.4393398,10.8180195 C17.1848862,10.0724731 18.3726001,10.0385846 19.1583435,10.7163541 L19.267767,10.8180195 L20,11.551 L20,7 Z" id="Photo"></path>
        </g>
    </g>
</svg>