<?xml version="1.0" encoding="UTF-8"?>
<svg width="24px" height="24px" viewBox="0 0 24 24" version="1.1" xmlns="http://www.w3.org/2000/svg" xmlns:xlink="http://www.w3.org/1999/xlink">
    <title>Vector Files/24x24/Miscellaneous/Profile (Filled)</title>
    <g id="Symbols" stroke="none" stroke-width="1" fill="none" fill-rule="evenodd">
        <g id="24x24/Miscellaneous/Profile-(Filled)" transform="translate(-0.000000, 0.000000)" fill="#2F313A">
            <path d="M15.6171502,16 C17.4950637,16 18.7745888,16.9768688 19.4603522,18.5231802 C19.8158271,19.3247319 19.9628012,20.1251465 19.9937757,20.7754729 L19.9999311,20.9864852 L19.9947646,21.0972468 C19.9473957,21.5671972 19.5812001,21.9387567 19.1177582,21.9931389 L19,22.0000502 L10,22.0000502 L9.88337887,21.9932723 L9.88337887,21.9932723 L9.77070917,21.9735893 L9.699,21.952 L5.0099995,22.0000502 C4.52616043,22.0047922 4.12063504,21.6656159 4.02259046,21.2124858 L4.00461778,21.0969623 L4.00009609,20.9861372 L4.01099123,20.702751 C4.05317526,20.0211108 4.21444004,19.2202814 4.57947424,18.435501 C5.245759,17.0030675 6.43595,16.0826193 8.14638443,16.0052881 L8.3828498,16 L15.6171502,16 Z M12.0880975,2 C15.5434358,2 17.7554048,3.31099569 17.9811972,6.22641 L17.9890961,6.368 L17.9938973,6.38882633 L18,6.5 L17.999117,9.54201531 C17.869678,12.6200528 15.6331447,14 12.0880975,14 C8.65299834,14 6.35348771,12.7293749 6.03736937,9.96113352 L6.01610126,9.73339519 L6.011,9.646 L6.00672773,9.61662113 L6,9.5 L6.00169756,6.4412424 L6.01,6.358 L6.01933524,6.22858516 C6.24692285,3.47049581 8.34532388,2.1432626 11.5440829,2.01101675 L11.820939,2.00260239 L12.0880975,2 Z" id="Profile-(Filled)"></path>
        </g>
    </g>
</svg>