<?xml version="1.0" encoding="UTF-8"?>
<svg width="24px" height="24px" viewBox="0 0 24 24" version="1.1" xmlns="http://www.w3.org/2000/svg" xmlns:xlink="http://www.w3.org/1999/xlink">
    <title>Vector Files/24x24/Miscellaneous/Profile</title>
    <g id="Symbols" stroke="none" stroke-width="1" fill="none" fill-rule="evenodd">
        <g id="24x24/Miscellaneous/Profile" transform="translate(-0.000000, 0.000000)" fill="#2F313A">
            <path d="M15.6171502,16 C17.5350623,16 18.8239249,17.0159975 19.498184,18.6105324 C19.8772071,19.506873 20,20.3780405 20,21 C20,21.5522847 19.5522847,22 19,22 C18.4871642,22 18.0644928,21.6139598 18.0067277,21.1166211 L17.9942341,20.8607773 C17.9880931,20.7712403 17.9765026,20.6534244 17.9569311,20.5145724 C17.902162,20.1260073 17.8040741,19.7393986 17.6561036,19.3894676 C17.2971521,18.5405941 16.7350777,18.0621466 15.8075719,18.0056566 L15.6171502,18 L8.3828498,18 L8.19242813,18.0056566 C7.26492231,18.0621466 6.70284785,18.5405941 6.3438964,19.3894676 C6.1959259,19.7393986 6.09783795,20.1260073 6.04306889,20.5145724 L6.01381719,20.7620822 L6.01381719,20.7620822 L6.00576595,20.8607773 L5.99327227,21.1166211 C5.93550716,21.6139598 5.51283584,22 5,22 C4.44771525,22 4,21.5522847 4,21 C4,20.3780405 4.12279287,19.506873 4.50181605,18.6105324 C5.14798094,17.0824365 6.35859948,16.0856709 8.14638604,16.00526 L8.3828498,16 L15.6171502,16 Z M18,9.5 C18,9.54747834 17.9966912,9.59418387 17.9902917,9.63989858 C17.8283711,12.6378791 15.6030575,14 12.0880975,14 C8.61709083,14 6.30553766,12.7026721 6.02810723,9.87383203 L6.00672773,9.61662113 L6.00672773,9.61662113 L6,9.5 L6,6.5 L6.010721,6.35305043 C6.18467992,3.36650678 8.52574855,2 12.0880975,2 C15.5097982,2 17.7093788,3.2907999 17.9732451,6.12418825 L17.9975204,6.42826325 L17.9975204,6.42826325 L18,6.5 L18,9.5 Z M12.0880975,4 C9.4360332,4 8.0883933,4.78232503 8.00420848,6.53860528 L8,6.71748692 L8,9.28251308 L8.00420848,9.46139472 C8.0883933,11.217675 9.4360332,12 12.0880975,12 C14.6834882,12 15.9191344,11.2504602 15.9961528,9.46456748 L16,9.28251308 L16,6.71748692 C16,4.80034196 14.7700013,4 12.0880975,4 Z" id="Profile"></path>
        </g>
    </g>
</svg>