<?xml version="1.0" encoding="UTF-8"?>
<svg width="24px" height="24px" viewBox="0 0 24 24" version="1.1" xmlns="http://www.w3.org/2000/svg" xmlns:xlink="http://www.w3.org/1999/xlink">
    <title>Vector Files/24x24/Miscellaneous/Print (Filled)</title>
    <g id="Symbols" stroke="none" stroke-width="1" fill="none" fill-rule="evenodd">
        <g id="24x24/Miscellaneous/Print-(Filled)" transform="translate(-0.000000, 0.000000)" fill="#2F313A">
            <path d="M19,3 C20.0543618,3 20.9181651,3.81587779 20.9945143,4.85073766 L21,5 L21,11 C21,12.0543618 20.1841222,12.9181651 19.1492623,12.9945143 L19,13 L18,13 L18,19 C18,20.0543618 17.1841222,20.9181651 16.1492623,20.9945143 L16,21 L8,21 C6.9456382,21 6.08183488,20.1841222 6.00548574,19.1492623 L6,19 L6,13 L5,13 C3.9456382,13 3.08183488,12.1841222 3.00548574,11.1492623 L3,11 L3,5 C3,3.9456382 3.81587779,3.08183488 4.85073766,3.00548574 L5,3 L19,3 Z M16,12 L8,12 L8,19 L16,19 L16,12 Z M14,16 C14.5522847,16 15,16.4477153 15,17 C15,17.5128358 14.6139598,17.9355072 14.1166211,17.9932723 L14,18 L10,18 C9.44771525,18 9,17.5522847 9,17 C9,16.4871642 9.38604019,16.0644928 9.88337887,16.0067277 L10,16 L14,16 Z M13,13 C13.5522847,13 14,13.4477153 14,14 C14,14.5128358 13.6139598,14.9355072 13.1166211,14.9932723 L13,15 L10,15 C9.44771525,15 9,14.5522847 9,14 C9,13.4871642 9.38604019,13.0644928 9.88337887,13.0067277 L10,13 L13,13 Z M17,6 C17.5522847,6 18,6.44771525 18,7 C18,7.55228475 17.5522847,8 17,8 C16.4477153,8 16,7.55228475 16,7 C16,6.44771525 16.4477153,6 17,6 Z" id="Print-(Filled)"></path>
        </g>
    </g>
</svg>