<?xml version="1.0" encoding="UTF-8"?>
<svg width="100px" height="100px" viewBox="0 0 100 100" version="1.1" xmlns="http://www.w3.org/2000/svg" xmlns:xlink="http://www.w3.org/1999/xlink">
    <!-- Generator: Sketch 59.1 (86144) - https://sketch.com -->
    <title>Vector Files/100x100/Flattened/Categories/Agricultural Supplies</title>
    <desc>Created with Sketch.</desc>
    <g id="100x100/Flattened/Categories/Agricultural-Supplies" stroke="none" stroke-width="1" fill="none" fill-rule="evenodd">
        <path d="M47.2614594,33.7942808 C48.63755,29.4036599 51.3450831,25.7499161 55.7006509,22.9107758 C56.1203784,22.6372204 56.5261468,22.3720053 57.1587431,21.9579968 C57.5624276,21.6937767 57.5624276,21.6937767 57.9664031,21.4294349 C64.446975,17.1898199 67.8386124,15.1416804 72.0140815,13.1469547 C72.7882633,12.7771087 73.7143638,13.1308098 74.0448973,13.9225742 C75.7282404,17.9548757 75.7083237,24.9621275 73.1016453,30.5466316 C69.5064498,38.2489182 61.6636138,43.0294956 49.1779491,43.6160934 C49.2272288,44.7069842 49.3167129,45.9001079 49.4411759,47.2472844 C59.6759919,47.5712811 70.5285034,51.4710306 70.0741794,57.0685206 C70.0141386,57.8098948 69.9151938,58.7389365 69.754334,60.1124584 C69.7046083,60.5370474 69.3893239,63.1738425 69.2945088,63.988835 C69.1355346,65.3553139 69.0074419,66.5235553 68.8968982,67.6371061 C68.306086,73.5885949 68.3312577,77.5716044 68.9777293,78.4728638 C70.703194,80.8771718 69.8895673,83.6972833 66.6034507,85.4985426 C63.3043598,87.3069136 57.4259546,88.3277279 48.7241736,88.4144188 C48.6796064,88.4184031 48.6344781,88.4204382 48.5888744,88.4204382 C48.4060626,88.4204382 48.22443,88.4204382 48.0439744,88.4192653 C47.8635188,88.4204382 47.6818862,88.4204382 47.4990744,88.4204382 C47.4534707,88.4204382 47.4083424,88.4184031 47.3637752,88.4144188 C38.6619942,88.3277279 32.783589,87.3069136 29.4844981,85.4985426 C26.1983815,83.6972833 25.3847548,80.8771718 27.1100132,78.4731514 C27.7566911,77.5716044 27.7818628,73.5885949 27.1910506,67.6371061 C27.0805069,66.5235553 26.9524142,65.3553139 26.79344,63.988835 C26.6986249,63.1738425 26.3833405,60.5370474 26.3336148,60.1124584 C26.172755,58.7389365 26.0738102,57.8098948 26.013791,57.0687876 C25.5626623,51.5106644 36.2588894,47.6265738 46.4293498,47.2547013 C46.3157219,45.9971487 46.2320139,44.8627929 46.1828272,43.8114265 C37.6678721,43.3076083 32.2498934,39.9407352 29.7388538,34.5616858 C27.8859495,30.5924679 27.8717111,25.6282764 29.0809463,22.7315864 C29.4114589,21.9398527 30.3374972,21.5861334 31.1116721,21.9559092 C34.0063861,23.3385365 36.365003,24.7619781 40.8135045,27.6720597 C41.1191479,27.8720568 41.1191479,27.8720568 41.4244189,28.0718722 C41.8451438,28.3472263 42.1219547,28.528157 42.405444,28.7129362 C44.5651984,30.1211481 46.1598109,31.81977 47.2614594,33.7942808 L47.2614594,33.7942808 Z M46.7037565,50.2503306 C38.1717697,50.5687468 28.7651394,53.8837309 29.0039794,56.8263557 C29.0603595,57.5225276 29.1562989,58.4233493 29.3132503,59.7634989 C29.3623608,60.1828358 29.6778287,62.8211661 29.7733417,63.6421573 C29.9341128,65.024081 30.0639539,66.2082679 30.1763768,67.3407488 C30.8717858,74.345883 30.846091,78.411661 29.5475293,80.2220125 C28.921582,81.094224 29.152781,81.8955832 30.9265007,82.8678338 C33.7761736,84.4298599 39.4336089,85.3808699 48.0439744,85.4192316 C56.6543399,85.3808699 62.3117752,84.4298599 65.1614481,82.8678338 C66.9351678,81.8955832 67.1663669,81.094224 66.5402132,80.221725 C65.2418578,78.411661 65.2161631,74.345883 65.9115721,67.3407488 C66.0239949,66.2082679 66.153836,65.024081 66.3146071,63.6421573 C66.4101201,62.8211661 66.725588,60.1828358 66.7746986,59.7634989 C66.9316499,58.4233493 67.0275893,57.5225276 67.083991,56.8260888 C67.3197239,53.9217465 58.1577201,50.6543727 49.7154231,50.264171 C49.782497,51.0987092 49.7921829,51.4729126 49.7936701,52.0968628 C49.7956448,52.9252876 49.1256746,53.5984593 48.2972498,53.6004339 C47.468825,53.6024086 46.7956533,52.9324384 46.7936787,52.1040136 C46.7922912,51.521905 46.7812616,51.1709942 46.7037565,50.2503306 L46.7037565,50.2503306 Z M52.530203,58.9473514 C53.0818729,58.9212993 53.5502092,59.3473968 53.5762612,59.8990668 C53.6023133,60.4507367 53.1762158,60.9190729 52.6245458,60.945125 C51.022153,61.0207964 49.3954579,61.0592382 47.7563744,61.0592382 C43.1361021,61.0592382 38.668262,60.7558854 34.6333799,60.1812486 C34.0866122,60.1033794 33.7064949,59.5970113 33.784364,59.0502436 C33.8622332,58.503476 34.3686013,58.1233587 34.915369,58.2012278 C38.8548209,58.7622737 43.2285722,59.0592382 47.7563744,59.0592382 C49.3639751,59.0592382 50.9592139,59.0215398 52.530203,58.9473514 Z M62.2647373,57.9442007 C62.8094764,57.8532189 63.3248301,58.2210619 63.4158119,58.7658011 C63.5067937,59.3105402 63.1389507,59.8258939 62.5942115,59.9168757 C61.1548893,60.1572699 59.6363304,60.3628922 58.0525813,60.5318929 C57.5034143,60.5904941 57.0107209,60.192812 56.9521197,59.6436451 C56.8935185,59.0944781 57.2912006,58.6017847 57.8403675,58.5431835 C59.3857097,58.3782811 60.8652346,58.1779443 62.2647373,57.9442007 Z M70.3832035,29.2777448 C72.309877,25.1500717 72.5930038,20.0415568 71.7670014,16.6115645 C68.3766752,18.3299138 65.1523957,20.3132778 59.6087802,23.9399324 C59.2053967,24.2038868 59.2053967,24.2038868 58.8015692,24.4682004 C58.1674997,24.8831731 57.7604013,25.1492575 57.3387831,25.4240451 C52.8565817,28.3457305 50.4567868,32.1736751 49.5597315,36.9716198 C49.3341639,38.1780794 49.2036205,39.3499975 49.1553531,40.6137906 C60.5004747,40.0565716 67.2929992,35.8981465 70.3832035,29.2777448 Z M45.9991744,40.4554382 C45.9991744,39.9720888 45.9655059,39.4739626 45.9093417,38.9940396 C45.8759374,38.7086004 45.8434048,38.4983851 45.8342555,38.4439482 C45.1783813,35.4648084 43.6067145,33.0775646 40.7670998,31.2260674 C40.4818738,31.0401562 40.2037348,30.8583574 39.7815642,30.5820571 C39.4761182,30.3821272 39.4761182,30.3821272 39.1711848,30.1825947 C35.6918046,27.9064843 33.5402642,26.5730359 31.4134083,25.4599971 C31.0280362,27.6944812 31.2817052,30.7744959 32.457245,33.2926906 C34.4514231,37.5645397 38.7775571,40.3000118 46.0381119,40.7964689 C46.0126407,40.6869116 45.9991744,40.5727475 45.9991744,40.4554382 Z M35.4230744,66.3924382 C35.4230744,66.9454382 34.9750744,67.3924382 34.4230744,67.3924382 C33.8710744,67.3924382 33.4230744,66.9454382 33.4230744,66.3924382 C33.4230744,65.8394382 33.8710744,65.3924382 34.4230744,65.3924382 C34.9750744,65.3924382 35.4230744,65.8394382 35.4230744,66.3924382 Z M39.4230744,68.3924382 C39.4230744,68.9454382 38.9750744,69.3924382 38.4230744,69.3924382 C37.8710744,69.3924382 37.4230744,68.9454382 37.4230744,68.3924382 C37.4230744,67.8394382 37.8710744,67.3924382 38.4230744,67.3924382 C38.9750744,67.3924382 39.4230744,67.8394382 39.4230744,68.3924382 Z M35.4230744,70.3924382 C35.4230744,70.9454382 34.9750744,71.3924382 34.4230744,71.3924382 C33.8710744,71.3924382 33.4230744,70.9454382 33.4230744,70.3924382 C33.4230744,69.8394382 33.8710744,69.3924382 34.4230744,69.3924382 C34.9750744,69.3924382 35.4230744,69.8394382 35.4230744,70.3924382 Z" id="Ageicultural-Supplies" fill="#2F313A" fill-rule="nonzero"></path>
    </g>
</svg>