<?xml version="1.0" encoding="UTF-8"?>
<svg width="100px" height="100px" viewBox="0 0 100 100" version="1.1" xmlns="http://www.w3.org/2000/svg" xmlns:xlink="http://www.w3.org/1999/xlink">
    <!-- Generator: Sketch 59.1 (86144) - https://sketch.com -->
    <title>Vector Files/100x100/Flattened/Categories/Alternative Proteins</title>
    <desc>Created with Sketch.</desc>
    <g id="100x100/Flattened/Categories/Alternative-Proteins" stroke="none" stroke-width="1" fill="none" fill-rule="evenodd">
        <path d="M80.374033,60.0046406 C83.7264515,60.2805646 86.3613,63.0896458 86.3613,66.5134 C86.3613,70.1198271 83.4377271,73.0434 79.8313,73.0434 C77.6788377,73.0434 75.7694271,72.0025233 74.57938,70.3967389 C73.3894636,72.0024892 71.4803467,73.0434 69.3284,73.0434 C66.69083,73.0434 64.4180534,71.4796818 63.3871971,69.2288212 C59.1415299,70.3948871 54.6241319,70.9998 49.9949939,70.9998 C28.8179689,70.9998 11.5,58.3174412 11.5,42.4092747 C11.5,40.7569015 11.6825334,39.1392035 12.0446274,37.5794129 C12.304887,36.4131345 12.6674294,35.2604312 13.1264078,34.132151 C13.2396065,33.8538811 13.4337526,33.6160118 13.6836988,33.4493537 C18.5958684,30.174037 33.1913344,27.9998 49.9949939,27.9998 C66.8003109,27.9998 81.4049605,30.174528 86.3154282,33.4494392 C86.5688363,33.6184432 86.7647881,33.8605896 86.8772227,34.1436734 C87.3228458,35.265647 87.682814,36.4101658 87.9515376,37.5669635 C88.3169133,39.1411334 88.5,40.7589553 88.5,42.4092747 C88.5,48.9375229 85.5565173,55.0761582 80.374033,60.0046406 L80.374033,60.0046406 Z M73.5545194,61.5342511 C81.1182509,56.6862036 85.5,49.775712 85.5,42.4092747 C85.5,40.9859336 85.3426675,39.5956851 85.0292848,38.24552 C84.9700892,37.9906953 84.9057544,37.7363541 84.8363555,37.482653 C84.7284992,37.8423767 84.5374967,38.1846861 84.2721587,38.504543 C81.3404611,42.0556762 67.0206725,44.4789 49.964,44.4789 C32.9114778,44.4789 18.5853558,42.0546045 15.6683469,38.5063623 C15.4250589,38.2130836 15.244306,37.9016333 15.1325429,37.5755329 C15.0740915,37.7977767 15.0198297,38.0210067 14.969776,38.245253 C14.6568561,39.5934241 14.5,40.9835573 14.5,42.4092747 C14.5,56.4226746 30.3087546,67.9998 49.9949939,67.9998 C54.4330468,67.9998 58.7555504,67.4105509 62.8015644,66.2780251 C62.9255149,62.7805794 65.8007644,59.9824 69.3284,59.9824 C70.9399683,59.9824 72.4153813,60.5663902 73.5545194,61.5342511 L73.5545194,61.5342511 Z M23.2110563,39.8942945 C23.8224494,38.2741204 25.3880582,37.137 27.2,37.137 C27.533674,37.137 27.8608148,37.1756655 28.1763226,37.2496917 C28.665895,35.3103425 30.4221327,33.8749 32.5135,33.8749 C34.0286072,33.8749 35.3678253,34.6282762 36.1769624,35.7808366 C37.2030845,34.1880413 38.9922928,33.1332 41.0277,33.1332 C43.0536052,33.1332 44.8874436,34.1885407 45.9230111,35.8522909 C46.1441329,35.8265392 46.3690714,35.8133 46.5971,35.8133 C46.9439468,35.8133 47.2849818,35.8442101 47.6172217,35.9037386 C47.959053,33.7042267 49.8611262,32.021 52.1565,32.021 C53.7820021,32.021 55.2326887,32.87191 56.0508469,34.1775332 C56.9638772,33.3840587 58.1562759,32.9037 59.4608,32.9037 C61.3252201,32.9037 63.0095768,33.895085 63.932671,35.4488649 C64.4640473,35.2263387 65.0474477,35.1034 65.6595,35.1034 C66.7218133,35.1034 67.6975037,35.473777 68.4646049,36.0924542 C69.4547191,35.3924897 70.6523039,35.0038 71.9115,35.0038 C74.7631223,35.0038 77.149025,36.9900246 77.6917257,39.6347523 C80.2541401,38.9122758 82.0178873,38.0936422 82.7313469,37.2294377 C82.8823417,37.0474166 82.939,36.9075172 82.939,36.7859 C82.939,36.5406775 82.6681096,36.1696371 82.017105,35.7258115 C78.0307018,33.0460145 64.943868,31.0819 49.964,31.0819 C34.9869685,31.0819 21.9089145,33.0456002 17.9268452,35.7224624 C17.2704678,36.1694206 17,36.5400834 17,36.7859 C17,36.9075172 17.0566583,37.0474166 17.2104706,37.2328494 C18.0060173,38.2005462 20.1249659,39.1115688 23.2110563,39.8942945 Z M25.1941334,40.3517952 C27.2375199,40.781529 29.5928232,41.1615287 32.1867778,41.477065 C32.7429758,40.1756386 33.7548741,39.1379755 35.0050067,38.540377 C34.9928627,38.4780916 34.9865,38.4137389 34.9865,38.3479 C34.9865,36.9821847 33.8792153,35.8749 32.5135,35.8749 C31.1894152,35.8749 30.1082457,36.915708 30.0435626,38.2237532 C30.3029567,38.4561664 30.5353929,38.7215901 30.7343616,39.0158062 C31.0437481,39.4732976 30.9236853,40.0949751 30.4661938,40.4043616 C30.0087024,40.7137481 29.3870249,40.5936853 29.0776384,40.1361938 C28.6576064,39.5150902 27.9619957,39.137 27.2,39.137 C26.3343485,39.137 25.5738494,39.6270122 25.1941334,40.3517952 L25.1941334,40.3517952 Z M59.5741551,42.2008218 C65.9735831,41.8233235 71.6042183,41.0847109 75.7497306,40.1289959 C75.4317006,38.35776 73.8383181,37.0038 71.9115,37.0038 C71.1068427,37.0038 70.3439437,37.2399149 69.7047011,37.6667678 C69.9784251,38.2459055 70.1315,38.8932679 70.1315,39.5764 C70.1315,40.1286847 69.6837847,40.5764 69.1315,40.5764 C68.5792153,40.5764 68.1315,40.1286847 68.1315,39.5764 C68.1315,38.2104049 67.0249354,37.1034 65.6595,37.1034 C64.293505,37.1034 63.1855,38.2109645 63.1855,39.5764 C63.1855,40.1286847 62.7377847,40.5764 62.1855,40.5764 C61.6332153,40.5764 61.1855,40.1286847 61.1855,39.5764 C61.1855,38.4450051 61.6058239,37.4116557 62.2988045,36.6238853 C61.753372,35.579504 60.6684761,34.9037 59.4608,34.9037 C57.6930847,34.9037 56.2598,36.3369847 56.2598,38.1047 C56.2598,38.1809896 56.2512571,38.2552839 56.2350757,38.3266785 C57.8750476,39.0040269 59.1377162,40.4305935 59.5741551,42.2008218 L59.5741551,42.2008218 Z M57.5191671,42.3082896 C57.0042833,40.8937306 55.64471,39.8993 54.0745,39.8993 C52.4392427,39.8993 51.037496,40.9759458 50.5728057,42.4778065 C52.9503273,42.4692636 55.2753625,42.4108318 57.5191671,42.3082896 L57.5191671,42.3082896 Z M48.514686,42.4726906 C48.7178051,41.4311802 49.2043011,40.4961808 49.8882134,39.7471316 C49.2336226,38.5729004 47.9867448,37.8133 46.5971,37.8133 C44.5208925,37.8133 42.8367895,39.4939012 42.8311144,41.5687801 C42.9320744,41.8166776 43.0163348,42.073366 43.0824606,42.3375014 C44.8499477,42.4108442 46.6652948,42.4568331 48.514686,42.4726906 L48.514686,42.4726906 Z M51.4876398,38.5236608 C52.2651013,38.1240263 53.1453573,37.8993 54.0745,37.8993 C54.1377819,37.8993 54.2008417,37.900344 54.2636621,37.9024163 C54.2888938,37.2427556 54.4370024,36.6145673 54.6857503,36.040089 C54.4216871,34.8700766 53.3756623,34.021 52.1565,34.021 C50.7237847,34.021 49.5625,35.1822847 49.5625,36.615 C49.5625,36.6212649 49.5624424,36.6275164 49.5623277,36.6337539 C50.338525,37.0995308 51.0009683,37.74538 51.4876398,38.5236608 L51.4876398,38.5236608 Z M37.3749238,37.9791314 C37.4131395,37.9783782 37.4514329,37.978 37.4898,37.978 C38.9276735,37.978 40.2493218,38.5066337 41.2634652,39.3847759 C41.7789494,38.1334022 42.72203,37.1031774 43.9107071,36.4761014 C43.2100963,35.6425413 42.1653563,35.1332 41.0277,35.1332 C39.2653688,35.1332 37.7855487,36.3440719 37.3749238,37.9791314 L37.3749238,37.9791314 Z M34.3154228,41.7158707 C36.405334,41.9313389 38.6249391,42.1063153 40.9408664,42.2340911 C40.3571134,40.9008931 39.024581,39.978 37.4898,39.978 C36.1749344,39.978 34.9920769,40.6584988 34.3154228,41.7158707 L34.3154228,41.7158707 Z M25.1281358,55.9207557 C24.7189725,55.5498058 24.6879944,54.9173991 25.0589443,54.5082358 C25.4298942,54.0990725 26.0623009,54.0680944 26.4714642,54.4390443 C32.1670299,59.6026779 41.0402751,62.7639 50.4498,62.7639 C51.0020847,62.7639 51.4498,63.2116153 51.4498,63.7639 C51.4498,64.3161847 51.0020847,64.7639 50.4498,64.7639 C40.5608656,64.7639 31.2062003,61.431165 25.1281358,55.9207557 Z M19.1855305,47.01164 C19.0236337,46.4836174 19.3204373,45.9243273 19.84846,45.7624305 C20.3764826,45.6005337 20.9357727,45.8973373 21.0976695,46.42536 C21.5621144,47.9401362 22.2948651,49.4202926 23.2783733,50.8386855 C23.5930732,51.2925384 23.4802674,51.9155735 23.0264145,52.2302733 C22.5725616,52.5449732 21.9495265,52.4321674 21.6348267,51.9783145 C20.5366252,50.3945138 19.7120504,48.7288726 19.1855305,47.01164 Z M72.8594,66.5134 C72.8594,64.5638271 71.2779729,62.9824 69.3284,62.9824 C67.3788271,62.9824 65.7974,64.5638271 65.7974,66.5134 C65.7974,68.46269 67.3785442,70.0434 69.3284,70.0434 C71.2782558,70.0434 72.8594,68.46269 72.8594,66.5134 Z M83.3613,66.5134 C83.3613,64.5635442 81.78059,62.9824 79.8313,62.9824 C77.8808357,62.9824 76.2993,64.5637186 76.2993,66.5134 C76.2993,68.4627984 77.8805527,70.0434 79.8313,70.0434 C81.7808729,70.0434 83.3613,68.4629729 83.3613,66.5134 Z" id="Alternative-Proteins" fill="#2F313A" fill-rule="nonzero"></path>
    </g>
</svg>