<?xml version="1.0" encoding="UTF-8"?>
<svg width="100px" height="100px" viewBox="0 0 100 100" version="1.1" xmlns="http://www.w3.org/2000/svg" xmlns:xlink="http://www.w3.org/1999/xlink">
    <!-- Generator: Sketch 59.1 (86144) - https://sketch.com -->
    <title>Vector Files/100x100/Flattened/Categories/Baked Products</title>
    <desc>Created with Sketch.</desc>
    <g id="100x100/Flattened/Categories/Baked-Products" stroke="none" stroke-width="1" fill="none" fill-rule="evenodd">
        <path d="M66.5724525,55.2508635 L69.6213757,56.4722695 C70.1340527,56.6776491 70.3831664,57.259749 70.1777868,57.7724259 C69.9724072,58.2851029 69.3903073,58.5342166 68.8776303,58.328837 L65.7737179,57.0854022 C65.4329734,57.7719666 65.0685801,58.3954259 64.6805228,58.9501847 C64.7157903,58.9716373 64.7527535,58.9936149 64.7913856,59.0159794 C65.30341,59.3123953 65.9996103,59.6247068 66.8267207,59.9363905 C67.5739195,60.2179606 68.3817595,60.4823711 69.1905619,60.7203904 C69.4308789,60.7911124 69.656412,60.8550866 69.8627995,60.9117175 C75.4500225,59.1705784 79.1532088,56.0907482 81.3550996,52.034762 C82.4298934,50.0549414 83.0945127,47.9300224 83.4226375,45.7661717 C83.6474291,44.2837618 83.689919,42.9766116 83.6296484,41.9577558 C83.6266701,41.9074081 83.6237767,41.863776 83.6211259,41.8270759 C82.7799748,39.2269266 79.9040691,36.7006411 75.6054627,34.4508725 C73.686122,33.446344 71.6195171,32.5669383 69.5517659,31.8219174 C69.2494979,31.7130087 68.9563775,31.6103314 68.673712,31.5139427 C69.4734414,35.3219357 69.4795961,40.885723 68.6928026,46.4308031 C68.2119202,49.8199158 67.5052859,52.8151514 66.5724525,55.2508635 L66.5724525,55.2508635 Z M69.9491172,63.9699682 C69.8058348,63.9756669 69.6618351,63.9608171 69.5215787,63.9253305 C69.457675,63.9091621 69.344474,63.8795865 69.1888946,63.837471 C68.9331834,63.7682497 68.6491403,63.688267 68.3436166,63.5983556 C67.4687983,63.3409087 66.5930176,63.0542609 65.768837,62.7436813 C64.3765621,62.2190243 63.2944908,61.7124308 62.5310363,61.1334769 C61.7960397,61.6192259 61.0024592,61.9118988 60.1502361,61.9897357 C59.8992259,62.0126614 59.6464858,61.9719646 59.4153596,61.8714042 C59.2341915,61.79258 58.8933276,61.6500684 58.4282013,61.4652329 C57.6493547,61.1557287 56.8160724,60.8460592 55.9646155,60.5576779 C55.1184487,60.2710883 54.3005169,60.0215229 53.5303637,59.8197521 C52.1875719,59.4679568 51.0495045,59.2779532 50.210803,59.2779532 C49.3496663,59.2779532 48.1605765,59.4778025 46.7490091,59.8463269 C45.9916209,60.0440618 45.1885982,60.2852796 44.3578841,60.5603954 C43.4858294,60.8492024 42.6306373,61.1593077 41.829936,61.4692676 C41.5501982,61.5775571 41.2976846,61.6779152 41.0770113,61.7676711 C40.9465393,61.8207389 40.8569906,61.8579155 40.8129544,61.8765346 C40.5856526,61.9726409 40.3381498,62.0111807 40.092388,61.9887373 C39.280249,61.9145714 38.521364,61.6453766 37.8156818,61.1999743 C37.0579419,61.7514537 36.0058573,62.2392338 34.6668944,62.7437245 C33.8426091,63.0542965 32.9667157,63.3409375 32.0917847,63.5983781 C31.7862214,63.6882873 31.5021418,63.768268 31.2463979,63.8374875 C31.0907991,63.8796018 30.9775845,63.9091764 30.913674,63.925344 C30.7737149,63.9607499 30.630029,63.9756067 30.4870487,63.9700021 C28.9131059,66.3846119 29.7103866,69.6364471 32.5150907,74.9935108 C33.1258911,76.1601567 32.044437,77.4913559 30.7774149,77.1324761 C23.4634359,75.0608156 16.6837061,69.7327723 13.8420276,63.3789184 C10.7909878,56.5604982 10.6752552,48.6958839 13.7638363,42.3590568 C13.771129,42.3440944 13.7786376,42.3293078 13.7863566,42.3146988 C13.7922867,42.1347279 13.800509,41.9565821 13.8109261,41.7803781 C13.8219983,41.5930913 13.8336915,41.456119 13.8427527,41.3735413 C13.8524899,41.2848031 13.8701293,41.1971113 13.895461,41.11151 C14.9710203,37.4769588 18.4082071,34.4257985 23.4392805,31.7928453 C25.4914574,30.7188626 27.6800497,29.7876069 29.8674956,28.9995098 C30.6325875,28.7238611 31.3438133,28.4854608 31.9836926,28.2847343 C32.3718589,28.1629687 32.6531615,28.0799678 32.8100283,28.0362406 C32.8150758,28.0348336 32.8201245,28.0334541 32.8251742,28.0321022 C32.8799087,27.9456815 32.9358506,27.8629578 32.9929999,27.7840366 C34.6068796,25.5559322 37.5126609,24.0813887 41.3400668,23.1329153 C43.2851575,22.6509004 45.3537222,22.3366246 47.4199447,22.1547798 C48.1415816,22.0912697 48.8123561,22.048727 49.4160119,22.0231619 C49.7827478,22.0076304 50.0490927,22.0012149 50.2226496,22 C50.3712316,22.0011735 50.6355137,22.0075584 50.9992531,22.0231061 C51.59778,22.0486894 52.2628058,22.0913759 52.9782368,22.155196 C55.0267557,22.3379345 57.0776473,22.6542865 59.0063937,23.1399827 C62.7731535,24.0885267 65.6416094,25.5614347 67.2485236,27.7799226 C67.2973729,27.84735 67.3453402,27.917555 67.3924255,27.9904719 C67.4702699,27.9993898 67.5484251,28.0145375 67.6263017,28.0362473 C67.7831616,28.0799753 68.0644506,28.1629776 68.4525975,28.2847449 C69.0924442,28.485474 69.8036336,28.7238773 70.5686861,28.9995295 C72.7560192,29.7876364 74.9444988,30.7189036 76.9965703,31.7928996 C82.0273114,34.4258469 85.4642978,37.4769993 86.5398451,41.11151 C86.5651679,41.1970815 86.5828039,41.2847421 86.5925432,41.3734488 C86.6016164,41.4560884 86.6133256,41.5931673 86.6244132,41.7806 C86.6347952,41.9561042 86.6429999,42.133534 86.6489309,42.3127742 C86.6570391,42.3280668 86.6649165,42.3435545 86.6725567,42.3592351 C89.7601848,48.6962342 89.6441628,56.5608455 86.5934797,63.3784685 C83.752897,69.732161 76.9727484,75.0605334 69.658949,77.1324597 C68.3919136,77.4913982 67.3104017,76.1601821 67.9212154,74.9935108 C70.7251777,69.6378639 71.5225491,66.3848957 69.9491172,63.9699682 L69.9491172,63.9699682 Z M72.8846081,63.0218988 C74.3781138,65.7831661 73.9951971,68.8737012 72.2036957,73.01977 C77.3572181,70.7124413 81.8303548,66.6820647 83.8549276,62.153588 C85.685184,58.0633572 86.3222183,53.5588587 85.7080486,49.3665439 C85.2944311,50.725667 84.7315111,52.1031971 83.9916409,53.4660726 C81.7185882,57.6531424 78.0757582,60.9486119 72.8846081,63.0218988 L72.8846081,63.0218988 Z M14.7275864,49.3665203 C14.1131201,53.558739 14.7500867,58.0632782 16.5804975,62.1538541 C18.6058908,66.6825343 23.0789583,70.7127687 28.2325575,73.0199044 C26.4404776,68.8731583 26.0574636,65.7831952 27.5513205,63.0220928 C22.3601704,60.9488166 18.7172773,57.6532753 16.4441023,53.4660867 C15.7042026,52.1031914 15.1412463,50.7256475 14.7275864,49.3665203 L14.7275864,49.3665203 Z M35.6190141,59.0308169 C33.6780862,56.3068474 32.322141,51.8783665 31.549309,46.4327173 C30.7671777,40.9215413 30.7686118,35.3913644 31.5541765,31.5854564 C31.3365175,31.6606938 31.113056,31.7395228 30.8843582,31.8219184 C28.8164899,32.5669339 26.7497681,33.4463332 24.8303184,34.4508546 C20.5314449,36.7006196 17.6553682,39.2269051 16.8141948,41.8270312 C16.8115513,41.8636632 16.8086665,41.9072002 16.8056971,41.957427 C16.7454699,42.9761668 16.7879977,44.2832829 17.0128279,45.7657167 C17.3410257,47.929712 18.0057307,50.0547864 19.0806283,52.034748 C21.2825852,56.0907527 24.9856666,59.1705877 30.5725501,60.9117234 C30.7789877,60.8550879 31.0045785,60.7911075 31.2449588,60.7203778 C32.0538807,60.4823597 32.8618404,60.2179504 33.6091512,59.9363807 C34.4225829,59.6298982 35.1094202,59.3228074 35.6190141,59.0308169 L35.6190141,59.0308169 Z M38.8351598,58.1917332 C39.2355495,58.5783203 39.6443497,58.8338236 40.0548746,58.9449231 C40.2636362,58.8606629 40.4952323,58.7690073 40.7469201,58.6715763 C41.5912188,58.3447394 42.4921517,58.0180478 43.414722,57.712511 C44.3032072,57.4182626 45.166888,57.1588239 45.9911861,56.9436205 C47.628717,56.5161027 49.045691,56.2779532 50.210803,56.2779532 C51.3521725,56.2779532 52.7212347,56.506522 54.2906678,56.9176946 C55.13401,57.13864 56.017996,57.4083597 56.9269905,57.7162285 C57.8310024,58.0224098 58.711892,58.3497715 59.5360923,58.6772986 C59.7748903,58.772194 59.9950659,58.8616341 60.1942024,58.9441321 C62.4716556,58.3190028 64.6954154,53.2483082 65.7225535,46.0093533 C66.7348776,38.8748022 66.2908478,31.5714854 64.8189999,29.5398699 C63.7198158,28.0223485 61.4200205,26.841439 58.2738057,26.0491604 C56.5147348,25.6061918 54.6143936,25.3130624 52.7116797,25.1433304 C52.0441792,25.0837859 51.4250544,25.0440458 50.8711383,25.0203692 C50.543412,25.0063609 50.31379,25.0008134 50.2229632,24.9999039 C50.1065779,25.0008475 49.874294,25.0064426 49.5429494,25.0204751 C48.9831378,25.0441834 48.3574772,25.0838649 47.6829531,25.1432286 C45.7601445,25.3124518 43.8396781,25.6042272 42.0616729,26.0448364 C38.8593747,26.8384012 36.5237788,28.0236032 35.4227202,29.5437125 C33.9511564,31.5758911 33.5072666,38.8783009 34.5195471,46.0111891 C35.3340733,51.7506311 36.9010601,56.1265161 38.6508353,58.0038875 C38.7181619,58.0613453 38.779744,58.1242799 38.8351598,58.1917332 L38.8351598,58.1917332 Z M38.3334157,35.9112507 C38.2964693,36.4282515 37.8474063,36.8174124 37.3304056,36.7804659 C36.8134048,36.7435195 36.4242439,36.2944565 36.4611903,35.7774557 C36.6188897,33.5707302 36.95101,31.9251335 37.4474678,31.1549033 C37.728277,30.7192417 38.3090913,30.5937089 38.7447529,30.874518 C39.1804146,31.1553272 39.3059474,31.7361415 39.0251382,32.1718031 C38.7565724,32.5884699 38.4690716,34.0129849 38.3334157,35.9112507 Z M50.205003,52.1036532 C50.7233223,52.1036532 51.143503,52.523834 51.143503,53.0421532 C51.143503,53.5604725 50.7233223,53.9806532 50.205003,53.9806532 C47.9092078,53.9806532 44.6752579,54.8494974 41.2809851,56.1375956 C40.9034837,56.2808543 40.476665,56.166604 40.2212106,55.8539167 C39.3724565,54.8150046 38.5009497,52.9155453 37.78909,50.1998003 C36.9423885,46.9650395 36.4749433,43.3607219 36.3818356,39.8641349 C36.3680386,39.3459993 36.7768858,38.9147828 37.2950214,38.9009858 C37.8131569,38.8871888 38.2443735,39.296036 38.2581705,39.8141715 C38.3476358,43.1739722 38.7967556,46.6369884 39.6048332,49.7241899 C40.1328851,51.7387077 40.7360729,53.2138622 41.2979036,54.1281843 C44.6409731,52.9052363 47.7786762,52.1036532 50.205003,52.1036532 Z M28.4323308,55.2246441 C28.8871423,55.4732428 29.0543108,56.0434694 28.8057122,56.4982809 C28.5571135,56.9530925 27.9868868,57.120261 27.5320753,56.8716623 C21.269995,53.4488272 19.1350578,47.9207887 19.3363577,42.534106 C19.3409236,42.4119251 19.3693196,42.2918136 19.4199497,42.1805229 C19.7920432,41.3626193 20.4699156,40.5463122 21.4142553,39.7271952 C21.805802,39.3875689 22.3985348,39.4296587 22.7381611,39.8212054 C23.0777873,40.2127521 23.0356975,40.805485 22.6441508,41.1451112 C21.9587646,41.7396129 21.4730933,42.3023978 21.2058577,42.8016337 C21.0871923,47.4874311 22.984922,52.2471061 28.4323308,55.2246441 Z M25.6826147,36.8956254 C26.1392038,36.6503069 26.7082124,36.8215757 26.9535309,37.2781648 C27.1988494,37.734754 27.0275806,38.3037626 26.5709914,38.5490811 C26.0627857,38.8221323 25.570541,39.1036933 25.1012459,39.3897307 C24.6586574,39.6594902 24.0811851,39.5193846 23.8114256,39.0767961 C23.541666,38.6342075 23.6817716,38.0567353 24.1243602,37.7869758 C24.6230386,37.4830292 25.1447919,37.1845894 25.6826147,36.8956254 Z M58.266503,29.9215532 C58.266503,29.3692685 58.7142183,28.9215532 59.266503,28.9215532 C59.8187878,28.9215532 60.266503,29.3692685 60.266503,29.9215532 L60.266503,30.9215532 C60.266503,31.473838 59.8187878,31.9215532 59.266503,31.9215532 C58.7142183,31.9215532 58.266503,31.473838 58.266503,30.9215532 L58.266503,29.9215532 Z M61.266503,33.9215532 C61.266503,33.3692685 61.7142183,32.9215532 62.266503,32.9215532 C62.8187878,32.9215532 63.266503,33.3692685 63.266503,33.9215532 L63.266503,34.9215532 C63.266503,35.473838 62.8187878,35.9215532 62.266503,35.9215532 C61.7142183,35.9215532 61.266503,35.473838 61.266503,34.9215532 L61.266503,33.9215532 Z M58.266503,37.9215532 C58.266503,37.3692685 58.7142183,36.9215532 59.266503,36.9215532 C59.8187878,36.9215532 60.266503,37.3692685 60.266503,37.9215532 L60.266503,38.9215532 C60.266503,39.473838 59.8187878,39.9215532 59.266503,39.9215532 C58.7142183,39.9215532 58.266503,39.473838 58.266503,38.9215532 L58.266503,37.9215532 Z" id="Baked-Products" fill="#2F313A" fill-rule="nonzero"></path>
    </g>
</svg>