<?xml version="1.0" encoding="UTF-8"?>
<svg width="100px" height="100px" viewBox="0 0 100 100" version="1.1" xmlns="http://www.w3.org/2000/svg" xmlns:xlink="http://www.w3.org/1999/xlink">
    <!-- Generator: Sketch 59.1 (86144) - https://sketch.com -->
    <title>Vector Files/100x100/Flattened/Categories/Baking Supplies</title>
    <desc>Created with Sketch.</desc>
    <g id="100x100/Flattened/Categories/Baking-Supplies" stroke="none" stroke-width="1" fill="none" fill-rule="evenodd">
        <path d="M75.6308146,29.8443854 C75.6182267,29.8326265 75.6057919,29.8206104 75.5935168,29.8083371 C75.4985562,29.7133904 75.4189866,29.6088793 75.3548081,29.4979044 C74.6806589,28.664296 73.9337502,27.8313705 73.1182516,27.0158719 C67.6279095,21.5246163 61.3457841,19.1438362 59.4556602,21.0339602 C59.4429918,21.0467179 59.4429918,21.0467179 59.4153377,21.0748139 L59.4054007,21.0849604 C59.3970018,21.0939344 59.388464,21.1028534 59.3797866,21.1117158 L22.2628971,59.0197232 C20.9037345,60.3794931 21.6722291,64.0941436 24.5058643,68.2419154 L26.6935398,66.0542398 C26.7089185,66.0388612 26.724548,66.0238863 26.7404151,66.0093151 C26.7549863,65.993448 26.7699612,65.9778185 26.7853398,65.9624398 C28.2571497,64.4906299 30.7503745,65.4355116 32.7256602,67.4094398 C34.6992017,69.3829814 35.644545,71.8778754 34.1726602,73.3497602 C34.1367486,73.3856717 34.0994692,73.4193817 34.0609896,73.4508902 C34.0294954,73.4893524 33.9958016,73.5266155 33.9599082,73.5625121 L31.8104642,75.7121508 C35.6706187,78.4973692 39.2435635,79.5317217 40.9994473,78.7453676 C41.0476503,78.6403349 41.1150139,78.5419373 41.2015371,78.4554494 C43.1104264,76.5473367 40.5468589,69.8212724 35.4303932,64.7048068 C35.0398689,64.3142825 35.0398689,63.6811175 35.4303932,63.2905932 C35.8209175,62.9000689 36.4540825,62.9000689 36.8446068,63.2905932 C40.9366299,67.3826163 43.6156219,72.4468236 43.7938706,76.1318556 L79.0091219,40.7688624 C79.2500272,40.5269464 79.5649112,40.3756846 79.9007598,40.337101 C79.4599464,40.3831432 79.1432614,40.5877977 79.0687605,40.6651321 C80.6068218,38.9679515 79.2292283,34.4309534 75.6308146,29.8443854 L75.6308146,29.8443854 Z M78.6608472,28.8620358 C82.6902746,34.3490206 84.0528501,39.9707702 81.2226602,42.8009602 C81.1898768,42.8333591 81.1898768,42.8333591 81.1549072,42.8673276 C81.1372889,42.8843781 81.1372889,42.8843781 81.1195819,42.9013453 L43.7106602,80.4669602 C40.8461771,83.3314432 35.2301428,82.0145344 29.6643079,77.8585014 L22.9174955,84.6059247 C20.8767926,86.6452251 17.5706074,86.6452251 15.5291753,84.6051955 C13.4898141,82.5644318 13.4898141,79.2579655 15.5295398,77.2182398 L22.3509095,70.3968702 C18.5110091,65.0088724 17.3720999,59.6691233 20.1302134,56.9098842 L57.2217499,19.027656 C57.2313925,19.0174734 57.2323817,19.0164491 57.2402587,19.0082926 C57.2572775,18.9907621 57.2572775,18.9907621 57.2741623,18.9735361 C57.3080082,18.9391321 57.3080082,18.9391321 57.3343398,18.9126398 C60.1647101,16.0822695 65.7869495,17.4446991 71.2733688,21.4740109 L77.2178045,15.5295753 C79.2585682,13.4902141 82.5650345,13.4902141 84.6043955,15.5295753 C86.6456682,17.569445 86.6456682,20.877755 84.6048371,22.9171832 L78.6608472,28.8620358 L78.6608472,28.8620358 Z M76.7647229,26.5154868 L82.4838045,20.7955753 C83.3525318,19.927445 83.3525318,18.519755 82.4834398,17.6512602 C81.6151655,16.7829859 80.2076318,16.7829859 79.3387602,17.6512602 L73.6197791,23.3702413 C74.1664882,23.8536953 74.7074687,24.3623598 75.2396602,24.8946398 C75.7721807,25.4271603 76.2810672,25.9684635 76.7647229,26.5154868 L76.7647229,26.5154868 Z M31.8468751,71.4329682 C31.8322486,71.3720529 31.809365,71.2969426 31.7766931,71.2107169 C31.5869605,70.7099858 31.1693095,70.0957298 30.6047045,69.5311247 C30.0390496,68.9658586 29.4245765,68.5481121 28.9239241,68.358375 C28.8378846,68.3257678 28.7629328,68.3029153 28.7021286,68.2882917 L17.6508602,79.3395602 C16.7825859,80.2078345 16.7825859,81.6153682 17.6504955,82.4838753 C18.5197926,83.3525749 19.9276074,83.3525749 20.7964918,82.4842879 L31.8384918,71.4412879 C31.841278,71.4385014 31.8440725,71.4357281 31.8468751,71.4329682 L31.8468751,71.4329682 Z M59.3973038,21.0932761 L59.4044938,21.085688 C59.411645,21.0780999 59.411645,21.0780999 59.4330958,21.0542443 C59.4500108,21.0352322 59.4500108,21.0352322 59.5138315,20.9544178 C59.5366865,20.9232113 59.5366865,20.9232113 59.8001202,20.2158494 L58.308,18.5623 C59.6243404,18.5623 60.2967747,20.1325651 59.4054007,21.0849604 C59.4022187,21.0882137 59.4008121,21.0896625 59.3973038,21.0932761 Z M79.1770158,40.5990483 C79.152599,40.6267366 79.1273747,40.653605 79.1013398,40.6796398 C79.0476786,40.7063446 79.0393553,40.6956556 79.0687605,40.6651321 L79.1770158,40.5990483 Z M26.9529493,59.0583295 C26.428152,58.8862649 26.1422058,58.3213466 26.3142705,57.7965493 C26.4863351,57.271752 27.0512534,56.9858058 27.5760507,57.1578705 C28.8802822,57.5854874 30.2706591,58.2564919 31.6791026,59.1358541 C32.1475759,59.4283456 32.2902373,60.0452294 31.9977459,60.5137026 C31.7052544,60.9821759 31.0883706,61.1248373 30.6198974,60.8323459 C29.3419246,60.0344431 28.0956647,59.4329903 26.9529493,59.0583295 Z M62.0916,24.4777 C62.0916,25.0767 61.6066,25.5617 61.0076,25.5617 C60.4086,25.5617 59.9236,25.0767 59.9236,24.4777 C59.9236,23.8787 60.4086,23.3937 61.0076,23.3937 C61.6066,23.3937 62.0916,23.8787 62.0916,24.4777 Z M66.4285,26.6462 C66.4285,27.2452 65.9435,27.7302 65.3445,27.7302 C64.7455,27.7302 64.2605,27.2452 64.2605,26.6462 C64.2605,26.0472 64.7455,25.5622 65.3445,25.5622 C65.9435,25.5622 66.4285,26.0472 66.4285,26.6462 Z M62.0916,28.8146 C62.0916,29.4136 61.6066,29.8986 61.0076,29.8986 C60.4086,29.8986 59.9236,29.4136 59.9236,28.8146 C59.9236,28.2156 60.4086,27.7306 61.0076,27.7306 C61.6066,27.7306 62.0916,28.2156 62.0916,28.8146 Z" id="Baking-Supplies" fill="#2F313A" fill-rule="nonzero"></path>
    </g>
</svg>