<?xml version="1.0" encoding="UTF-8"?>
<svg width="100px" height="100px" viewBox="0 0 100 100" version="1.1" xmlns="http://www.w3.org/2000/svg" xmlns:xlink="http://www.w3.org/1999/xlink">
    <!-- Generator: Sketch 59.1 (86144) - https://sketch.com -->
    <title>Vector Files/100x100/Flattened/Categories/Beverages</title>
    <desc>Created with Sketch.</desc>
    <g id="100x100/Flattened/Categories/Beverages" stroke="none" stroke-width="1" fill="none" fill-rule="evenodd">
        <path d="M65.1704287,37.5801857 C62.2000337,38.4228062 58.7399653,38.9991204 55.0393878,39.2574293 C53.9702675,40.9078251 52.1124869,42 50,42 C47.8475947,42 45.9596128,40.8661589 44.9008531,39.1632755 C41.2242049,38.8347398 37.8285807,38.1883461 34.9660414,37.2843258 C32.7570777,42.0066703 31.5,47.8634202 31.5,55 L31.5,87.2437599 C31.61729,87.3217616 31.7529306,87.408803 31.9072399,87.5037625 C32.7828378,88.042592 33.876356,88.5879876 35.1992642,89.1017384 C39.0481487,90.5964508 43.9499031,91.5 50,91.5 C56.0500969,91.5 60.9518513,90.5964508 64.8007358,89.1017384 C66.123644,88.5879876 67.2171622,88.042592 68.0927601,87.5037625 C68.2470694,87.408803 68.38271,87.3217616 68.5,87.2437599 L68.5,55 C68.5,48.0117174 67.2946233,42.2506279 65.1704287,37.5801857 L65.1704287,37.5801857 Z M64.2649939,35.7560853 C64.0690053,35.3932784 63.8669761,35.0378295 63.6590691,34.689661 C61.321637,35.2529973 58.7338105,35.6621787 55.9991244,35.8964663 C55.9997073,35.9309077 56,35.9654197 56,36 C56,36.4058179 55.9596943,36.802236 55.8828683,37.1854691 C58.9310125,36.9215004 61.7790289,36.4330367 64.2649939,35.7560853 L64.2649939,35.7560853 Z M35.8881046,35.4763804 C38.2799409,36.2042509 41.0714363,36.7515889 44.0960362,37.0748327 C44.0329445,36.726103 44,36.366893 44,36 C44,35.9295577 44.0012144,35.8593986 44.0036235,35.7895425 C41.2971869,35.5060225 38.7578281,35.0490553 36.4905386,34.4420342 C36.2840693,34.7798186 36.0832069,35.1245763 35.8881046,35.4763804 L35.8881046,35.4763804 Z M62.4984874,32.9056935 C62.2755754,32.5906331 62.0473325,32.2823859 61.8139103,31.9808795 C60.3730495,30.1197505 58.8360393,28.6577354 57.3076649,27.5508466 C56.7808887,27.1693415 56.2960392,26.8605283 55.866571,26.6191256 C55.6227543,26.4820769 55.4611299,26.40171 55.3953171,26.3727194 L54.5,25.9783322 L54.5,17.5 L45.5,17.5 L45.5,25.9783322 L44.6046829,26.3727194 C44.5388701,26.40171 44.3772457,26.4820769 44.133429,26.6191256 C43.7039608,26.8605283 43.2191113,27.1693415 42.6923351,27.5508466 C41.1639607,28.6577354 39.6269505,30.1197505 38.1860897,31.9808795 C38.0088803,32.209777 37.8346561,32.4425596 37.6634833,32.6792589 C39.713057,33.1885323 41.9891984,33.5757287 44.4081892,33.8206339 C45.2805022,31.5845858 47.4554803,30 50,30 C52.5822185,30 54.7838642,31.631887 55.6297216,33.9204456 C58.0711446,33.7196347 60.3879344,33.3755597 62.4984874,32.9056935 L62.4984874,32.9056935 Z M54.5,13.5 L45.5,13.5 L45.5,15.5 L54.5,15.5 L54.5,13.5 Z M54.5,11.5 L54.5,9.5 L45.5,9.5 L45.5,11.5 L54.5,11.5 Z M59.0673351,25.1211221 C60.8202107,26.3906006 62.5644505,28.0497339 64.1860897,30.1443705 C68.7669064,36.0613133 71.5,44.2442932 71.5,55 L71.5,88.6834457 L70.9842681,89.1319083 C70.7435821,89.3412005 70.3073931,89.6634509 69.6650524,90.0587375 C68.6363534,90.691783 67.3802622,91.3182624 65.8867642,91.8982616 C61.6887737,93.5285492 56.4186531,94.5 50,94.5 C43.5813469,94.5 38.3112263,93.5285492 34.1132358,91.8982616 C32.6197378,91.3182624 31.3636466,90.691783 30.3349476,90.0587375 C29.6926069,89.6634509 29.2564179,89.3412005 29.0157319,89.1319083 L28.5,88.6834457 L28.5,55 C28.5,44.2442932 31.2330936,36.0613133 35.8139103,30.1443705 C37.4355495,28.0497339 39.1797893,26.3906006 40.9326649,25.1211221 C41.5278137,24.6900998 42.0565193,24.3498896 42.5,24.0924055 L42.5,6.5 L57.5,6.5 L57.5,24.0924055 C57.9434807,24.3498896 58.4721863,24.6900998 59.0673351,25.1211221 Z M54,36 C54,33.7912847 52.2087153,32 50,32 C47.7912847,32 46,33.7912847 46,36 C46,38.2087153 47.7912847,40 50,40 C52.2087153,40 54,38.2087153 54,36 Z M36,83 L36,45 L64,45 L64,83 L36,83 Z M38,81 L62,81 L62,47 L38,47 L38,81 Z M41,51 C41,50.4477153 41.4477153,50 42,50 C42.5522847,50 43,50.4477153 43,51 L43,67 C43,67.5522847 42.5522847,68 42,68 C41.4477153,68 41,67.5522847 41,67 L41,51 Z M41,71 C41,70.4477153 41.4477153,70 42,70 C42.5522847,70 43,70.4477153 43,71 L43,73 C43,73.5522847 42.5522847,74 42,74 C41.4477153,74 41,73.5522847 41,73 L41,71 Z" id="Beverages" fill="#2F313A" fill-rule="nonzero"></path>
    </g>
</svg>