<?xml version="1.0" encoding="UTF-8"?>
<svg width="100px" height="100px" viewBox="0 0 100 100" version="1.1" xmlns="http://www.w3.org/2000/svg" xmlns:xlink="http://www.w3.org/1999/xlink">
    <!-- Generator: Sketch 59.1 (86144) - https://sketch.com -->
    <title>Vector Files/100x100/Flattened/Categories/Dairy &amp; Eggs</title>
    <desc>Created with Sketch.</desc>
    <g id="100x100/Flattened/Categories/Dairy-&amp;-Eggs" stroke="none" stroke-width="1" fill="none" fill-rule="evenodd">
        <path d="M49.2335102,78.5000828 C48.2340013,76.6462454 47.6602,74.4672881 47.6602,72.1450828 C47.6602,65.6329727 51.9401756,59.1344082 57.25,58.3327965 L57.25,33.1987603 L53.6231877,37.28857 C53.1921796,37.7746004 52.41941,37.7270952 52.0511787,37.1919324 L45,26.9442194 L45,78.5000828 L49.2335102,78.5000828 L49.2335102,78.5000828 Z M51.4459463,81.4326793 C51.3050693,81.4764849 51.1552905,81.5000828 51,81.5000828 L18.5,81.5000828 C17.6715729,81.5000828 17,80.8285099 17,80.0000828 L17,25.0000828 C17,24.2180417 17.6008316,23.5672239 18.3803822,23.5048599 L22.5,23.1752905 L22.5,19.5000828 C22.5,18.7146439 23.1058996,18.0622029 23.8891925,18.0041812 L50.8891925,16.0041812 C51.7588885,15.9397593 52.5,16.628004 52.5,17.5000828 L52.5,25.0000828 C52.5,25.1565911 52.4760305,25.307501 52.4315622,25.4493418 L59.3757515,28.6368385 C59.908513,28.8813848 60.25,29.4138766 60.25,30.0000828 L60.25,58.4995085 C62.5407912,59.1029216 64.5991055,60.756897 66.1465727,62.9746578 C67.1968958,62.7193453 68.2894079,62.5884828 69.4009,62.5884828 C76.3561258,62.5884828 83.2959,67.470736 83.2959,73.2754828 C83.2959,79.0803219 76.3558791,83.9634828 69.4009,83.9634828 C67.3698416,83.9634828 65.4088988,83.524255 63.6602321,82.7002332 C62.1003853,83.7170953 60.2889011,84.3000828 58.3472,84.3000828 C55.7031238,84.3000828 53.3004522,83.2187054 51.4459463,81.4326793 L51.4459463,81.4326793 Z M62.5711414,79.7893592 C62.5887313,79.7747515 62.6066188,79.7605813 62.6247863,79.7468533 C64.6710243,78.1106879 66.0352,75.3325967 66.0352,72.1450828 C66.0352,66.6664368 62.2244132,61.2500828 58.3472,61.2500828 C54.4708463,61.2500828 50.6602,66.6666443 50.6602,72.1450828 C50.6602,77.2468833 54.1550171,81.3000828 58.3472,81.3000828 C59.8977645,81.3000828 61.3528639,80.7458412 62.5710678,79.789271 L62.5711414,79.7893592 Z M66.1467921,80.4617304 C67.1720554,80.7905279 68.2700749,80.9634828 69.4009,80.9634828 C74.879043,80.9634828 80.2959,77.1520556 80.2959,73.2754828 C80.2959,69.3991291 74.8793385,65.5884828 69.4009,65.5884828 C68.8159299,65.5884828 68.2391281,65.6344682 67.6759594,65.7246817 C68.5394138,67.713842 69.0352,69.9286543 69.0352,72.1450828 C69.0352,75.3493406 67.9427387,78.2807866 66.1467921,80.4617304 L66.1467921,80.4617304 Z M46.9341274,26.2268781 L52.9745541,35.0056315 L56.7598881,30.7370634 L46.9341274,26.2268781 L46.9341274,26.2268781 Z M25.5,22.9352905 L43.312332,21.5103039 C43.5118959,21.4847268 43.7200854,21.4993915 43.9260168,21.5612778 C44.0055468,21.5848346 44.0824207,21.6148459 44.1560015,21.6507237 L49.5,24.1037067 L49.5,19.1153035 L25.5,20.8930813 L25.5,22.9352905 Z M42,78.5000828 L42,24.6248752 L20,26.3848752 L20,78.5000828 L42,78.5000828 Z M23.1656558,33.0295972 C22.6151304,33.0736452 22.1331335,32.663064 22.0890856,32.1125386 C22.0450377,31.5620132 22.4556188,31.0800163 23.0061442,31.0359684 L38.0041442,29.8359684 C38.5546696,29.7919205 39.0366665,30.2025016 39.0807144,30.753027 C39.1247623,31.3035524 38.7141812,31.7855493 38.1636558,31.8295972 L23.1656558,33.0295972 Z M58.3477,77.8003828 C58.8999847,77.8003828 59.3477,78.2480981 59.3477,78.8003828 C59.3477,79.3526676 58.8999847,79.8003828 58.3477,79.8003828 C54.9213948,79.8003828 52.1607,76.2580631 52.1607,72.1453828 C52.1607,71.2427186 52.281773,70.3244433 52.5124145,69.4154447 C52.6482423,68.8801231 53.1923165,68.5562694 53.7276381,68.6920973 C54.2629597,68.8279252 54.5868134,69.3719993 54.4509855,69.9073209 C54.2600723,70.6597435 54.1607,71.4134306 54.1607,72.1453828 C54.1607,75.2472779 56.1504536,77.8003828 58.3477,77.8003828 Z" id="Dairy-&amp;-Eggs" fill="#2F313A" fill-rule="nonzero"></path>
    </g>
</svg>