<?xml version="1.0" encoding="UTF-8"?>
<svg width="100px" height="100px" viewBox="0 0 100 100" version="1.1" xmlns="http://www.w3.org/2000/svg" xmlns:xlink="http://www.w3.org/1999/xlink">
    <!-- Generator: Sketch 59.1 (86144) - https://sketch.com -->
    <title>Vector Files/100x100/Flattened/Categories/Fats &amp; Oils</title>
    <desc>Created with Sketch.</desc>
    <g id="100x100/Flattened/Categories/Fats-&amp;-Oils" stroke="none" stroke-width="1" fill="none" fill-rule="evenodd">
        <path d="M46.5241741,30.9847442 C46.5423434,31.04708 46.5605058,31.110585 46.5786362,31.1752477 C48.4602953,37.8862366 47.0582644,45.4456686 40.0115494,52.4794937 C37.7874747,54.6995001 35.0455268,56.7908351 31.7531723,58.736877 C29.1236643,60.2911242 26.9825275,61.9185241 25.2982512,63.6059829 C19.6088545,69.3061299 19.3532752,75.223391 22.3091832,80.8537068 C22.7084236,81.6141668 23.1358021,82.2963503 23.5608638,82.887397 C23.8091335,83.232615 23.9948215,83.4635295 24.0869399,83.5679328 C24.2015877,83.6978702 24.2928523,83.8466892 24.3566854,84.007785 C24.32753,83.9341715 24.3108854,83.9038492 24.3182759,83.9140504 C24.3832524,84.0037375 24.495585,84.1249387 24.667734,84.2729727 C25.2655578,84.7870519 26.2436593,85.3375695 27.6898558,85.8737174 C32.0848137,87.5030586 39.3633114,88.5 50.1555469,88.5 C60.9445463,88.5 68.1575148,87.5036329 72.4431463,85.8777157 C73.8448381,85.3459306 74.7766762,84.8026276 75.3304899,84.2997743 C75.4855929,84.1589435 75.5833154,84.0460046 75.6368275,83.9652827 C75.6379473,83.9635934 75.6188445,84.0027746 75.5913641,84.0850262 C75.6552324,83.8938622 75.7569711,83.7175301 75.8905042,83.5665607 C75.9832811,83.4616694 76.170184,83.2297975 76.4200383,82.8831747 C76.8477648,82.2897898 77.2778117,81.6048631 77.6795399,80.8412795 C80.6649789,75.166715 80.3954398,69.2009233 74.6133959,63.4513321 C72.9458929,61.7931883 70.838582,60.1925257 68.2619007,58.6616274 C65.019229,56.7351315 62.3113693,54.6684118 60.1071958,52.4772789 C52.9869681,45.3991767 51.5708813,37.7910681 53.4736862,31.0367568 C53.7476983,30.0641069 54.0288785,29.3516892 54.2328933,28.9384219 C54.3268799,28.7480358 54.4602137,28.5797717 54.6240773,28.4447567 C58.6181655,25.1538404 58.6252265,22.3765891 56.3372804,19.6897572 C55.9882726,19.2799026 55.61156,18.9129823 55.2363969,18.597677 C55.1762524,18.5471286 55.1204516,18.5013966 55.069615,18.4606187 L54.6984194,19.5444963 L54.2660734,19.7131174 C51.5836773,20.7592903 48.4923295,20.768562 45.7965864,19.7374086 L45.3019883,19.5456865 L45.0288665,18.748181 C44.9843244,18.7833951 44.9363605,18.8220091 44.885339,18.8639441 C44.5034671,19.1778081 44.1201292,19.5430714 43.7651525,19.9510319 C41.4830764,22.5737311 41.4534885,25.2755792 45.3141697,28.4944237 C45.425678,28.5493301 45.7475931,28.7121112 45.8554886,28.7573196 C46.5523211,29.0492938 47.7094819,29.1867445 49.9549686,29.0855245 C50.5066931,29.0606544 50.9741154,29.4877542 50.9989856,30.0394787 C51.0238557,30.5912032 50.5967559,31.0586255 50.0450314,31.0834956 C48.5251909,31.1520057 47.4001702,31.1169255 46.5241741,30.9847442 L46.5241741,30.9847442 Z M36.3186779,59.4004886 C38.5184763,58.307208 43.5428876,57.8323 50,57.8323 C56.2033326,57.8323 61.0843681,58.2706116 63.4089454,59.2744399 C63.6443286,59.2433801 63.8915686,59.2955445 64.1031125,59.4399089 C64.9762963,60.0357978 65.896925,60.6214963 66.8642809,61.1962311 C72.6164337,64.6144034 75.9196026,68.3723621 76.5948116,72.421431 C76.9976392,74.8373393 76.4464567,77.2312898 75.2940183,79.4715262 C74.7624286,80.5048887 74.227255,81.2784134 73.835519,81.7463686 L73.292519,82.3603686 C73.2218002,82.4403342 73.1387336,82.5084606 73.0464734,82.5621608 C71.7966905,83.2895985 70.3086902,83.8672849 67.6874208,84.4194275 C63.8847564,85.2204184 58.6228712,85.6878176 51.5855665,85.7099001 C51.0332845,85.7116277 50.5841669,85.2653192 50.5824342,84.7130372 C50.5807016,84.1607552 51.0270101,83.7116375 51.5792921,83.7099049 C58.4892127,83.6882271 63.6185728,83.2325997 67.2751879,82.4623725 C69.5836922,81.9761106 70.8625093,81.4969663 71.9038167,80.911761 L72.3192336,80.4424869 C72.382893,80.3663438 72.5087179,80.2024025 72.6760514,79.9605434 C72.9613905,79.5481223 73.2480128,79.0766898 73.515545,78.5566313 C74.4876461,76.6669544 74.9443512,74.6833476 74.6220498,72.7503853 C74.0614093,69.3883568 71.1377951,66.0622108 65.8426493,62.9156115 C65.2875554,62.5858138 64.7468221,62.2522268 64.2205886,61.9149705 C62.4032624,63.2373385 57.0561102,63.8053 50,63.8053 C43.0281032,63.8053 37.7246156,63.2508146 35.845985,61.9619951 C35.2995943,62.3115351 34.7383255,62.6565 34.1622742,62.9967582 C28.8698025,66.1250863 25.9445928,69.4374874 25.379517,72.7871262 C25.0814754,74.5551692 25.4408511,76.3749844 26.2665361,78.1434759 C26.5610213,78.7742183 26.8945513,79.3526786 27.239129,79.8642878 C27.4441939,80.1687564 27.6136944,80.3918145 27.676719,80.4666576 L27.9598255,80.7869766 C28.5559524,81.1253169 29.5445693,81.5189425 31.0070537,81.9141522 C33.3237804,82.5402054 36.3939099,83.0420847 40.3184418,83.3571061 C40.8689558,83.4012958 41.2794129,83.8833984 41.2352232,84.4339125 C41.1910335,84.9844265 40.7089309,85.3948835 40.1584169,85.3506939 C32.9784285,84.7743575 28.7933121,83.6434062 26.793852,82.421104 C26.7088602,82.3691472 26.6321088,82.3047827 26.5661396,82.2301424 L26.164043,81.7748422 C25.7051048,81.2324606 25.0414388,80.2470877 24.4543226,78.9895741 C23.4705361,76.8824534 23.0337728,74.6707605 23.4073621,72.4545529 C24.0884092,68.417463 27.3943259,64.6739632 33.1448503,61.2748847 C34.0874303,60.7181276 34.9874698,60.1492555 35.8448127,59.5688245 C35.99114,59.4697593 36.1542979,59.4146494 36.3186779,59.4004886 L36.3186779,59.4004886 Z M56.9649075,16.1286096 C57.4578634,16.5201555 58.0394968,17.0614622 58.6213612,17.7447701 C61.8704096,21.5602652 61.9158176,26.1591262 56.8098884,30.5266217 C56.7964259,30.5596357 56.782036,30.5954695 56.7667966,30.6340812 C56.6301564,30.9802821 56.4916494,31.3875018 56.3612872,31.8502433 C54.7342553,37.6256542 55.9402183,44.1048457 62.222213,50.3496741 C64.2459116,52.3613999 66.7576353,54.2784227 69.7942257,56.082484 C72.5753934,57.7348751 74.878765,59.4844606 76.728738,61.3240503 C83.5495213,68.1065508 83.883241,75.4928694 80.3345209,82.2380887 C79.5982104,83.6376288 78.8560469,84.7010835 78.2970495,85.3687088 C77.7590758,86.4354117 76.2935963,87.6255484 73.5072995,88.682636 C68.8317091,90.456499 61.2775253,91.5 50.1555469,91.5 C39.0368046,91.5 31.4225769,90.4570734 26.6470241,88.6866344 C23.782092,87.6245191 22.2692297,86.4394079 21.6988788,85.3918125 C21.1407749,84.7279257 20.3938861,83.6594439 19.652988,82.2482056 C16.1371817,75.551414 16.4538208,68.2204742 23.1749296,61.4866657 C25.04561,59.6124506 27.387549,57.8324283 30.2266589,56.1542897 C33.3091027,54.3323217 35.8514308,52.3932404 37.8921719,50.3562323 C44.104669,44.1550991 45.2981007,37.7203863 43.6900329,31.9851681 C43.5612791,31.5259642 43.4244899,31.1218887 43.2895567,30.7783959 C43.275346,30.7422204 43.2618847,30.7085059 43.2492377,30.6772875 C38.1456724,26.3316267 38.2152731,21.7590368 41.5019634,17.9817745 C42.0182152,17.3884669 42.5340387,16.9031839 42.9897321,16.5308331 C42.9680037,16.4731816 42.9495839,16.413557 42.9347487,16.3521277 L41.541917,10.5847197 C41.3646708,9.85078254 41.7605772,9.09949401 42.4661832,8.83079327 C42.9309784,8.65379534 43.7314569,8.40261673 44.7977865,8.15513297 C48.4544777,7.30645387 52.3101524,7.18626833 55.9711512,8.27904857 C56.5156387,8.44157395 57.0497002,8.63029514 57.5724312,8.84611353 C58.2695467,9.13392953 58.6445579,9.89460171 58.4483499,10.6228259 L56.9649075,16.1286096 Z M45.3002625,13.367743 L46.8882401,18.0045798 C48.8829642,18.6714015 51.1190025,18.6709338 53.111771,18.0045474 L54.2404754,14.7087716 L55.1919188,11.1774977 C55.165675,11.1694982 55.1393968,11.1615715 55.1130844,11.1537175 C52.024758,10.2318756 48.6686309,10.3364897 45.4760273,11.077459 C45.2360178,11.1331627 45.0065735,11.1905216 44.7885167,11.2487169 L45.3002625,13.367743 Z M46.1408653,85.6595471 C45.5887754,85.6448762 45.1531113,85.1854258 45.1677822,84.633336 C45.1824531,84.0812461 45.6419035,83.645582 46.1939934,83.6602529 C46.9198339,83.679541 47.6541906,83.6931769 48.399859,83.7009544 C48.9521137,83.7067145 49.3951351,84.159075 49.3893749,84.7113297 C49.3836148,85.2635844 48.9312544,85.7066058 48.3789996,85.7008456 C47.6225279,85.6929554 46.8774154,85.6791198 46.1408653,85.6595471 Z M40.3172117,61.2332491 C42.8554151,61.5962823 46.3098091,61.8053 50,61.8053 C53.6901909,61.8053 57.1445849,61.5962823 59.6827883,61.2332491 C60.5584555,61.1080046 61.3018203,60.9672919 61.8845993,60.8184213 C61.3018479,60.6696367 60.558524,60.5290182 59.6828847,60.4038646 C57.1449421,60.0411212 53.6905769,59.8323 50,59.8323 C46.3094231,59.8323 42.8550579,60.0411212 40.3171153,60.4038646 C39.441476,60.5290182 38.6981521,60.6696367 38.1154007,60.8184213 C38.6981797,60.9672919 39.4415445,61.1080046 40.3172117,61.2332491 Z" id="Fats-&amp;-Oils" fill="#2F313A" fill-rule="nonzero"></path>
    </g>
</svg>