<?xml version="1.0" encoding="UTF-8"?>
<svg width="100px" height="100px" viewBox="0 0 100 100" version="1.1" xmlns="http://www.w3.org/2000/svg" xmlns:xlink="http://www.w3.org/1999/xlink">
    <!-- Generator: Sketch 59.1 (86144) - https://sketch.com -->
    <title>Vector Files/100x100/Flattened/Categories/Fishes</title>
    <desc>Created with Sketch.</desc>
    <g id="100x100/Flattened/Categories/Fishes" stroke="none" stroke-width="1" fill="none" fill-rule="evenodd">
        <path d="M81.7811272,65.2088374 C81.8340151,65.2031943 81.8877245,65.2003 81.94211,65.2003 C82.7705371,65.2003 83.44211,65.8718729 83.44211,66.7003 C83.44211,71.080295 87.1823949,75.0574982 92.8059791,76.5836627 C93.6054872,76.8006383 94.077723,77.6246611 93.8607473,78.4241691 C93.6437717,79.2236772 92.8197489,79.695913 92.0202409,79.4789373 C87.3511605,78.2118123 83.654242,75.4501978 81.7828235,71.9521767 C79.1635019,76.8499921 72.9855259,80.2232 65.86921,80.2232 C58.5626049,80.2232 52.2445384,76.6665358 49.7527137,71.5548644 C47.9680561,75.2132332 44.2130479,78.1214672 39.4168256,79.4507128 C38.6184909,79.6719666 37.7919511,79.2041502 37.5706973,78.4058156 C37.3494434,77.6074809 37.8172598,76.7809411 38.6155944,76.5596872 C44.1927371,75.0140141 47.89021,71.0556526 47.89021,66.7002 C47.89021,65.8717729 48.5617829,65.2002 49.39021,65.2002 C49.5159215,65.2002 49.638021,65.2156644 49.75471,65.2447947 C49.871399,65.2156644 49.9934986,65.2002 50.11921,65.2002 C50.9476371,65.2002 51.61921,65.8717729 51.61921,66.7002 C51.61921,72.4104986 57.9242498,77.2232 65.86921,77.2232 C69.8947998,77.2232 73.499111,75.9879111 76.0757003,74.0263795 C76.0045092,73.889925 75.9532755,73.7401041 75.9264519,73.5800909 C75.9117214,73.4922181 75.8792904,73.3114053 75.8279607,73.0438843 C75.7411324,72.5913519 75.6330016,72.0645131 75.5023763,71.4696055 C75.1276378,69.7629314 74.6485675,67.8583392 74.0557504,65.8058147 C72.362155,59.9420388 70.1005801,54.0796154 67.2002942,48.6197588 C58.9328444,33.0560895 47.3007259,23.8788325 31.6457125,24.0004727 C31.6497821,24.0243057 31.6538655,24.0482712 31.6579626,24.0723688 C31.9022123,25.5089582 32.1461928,27.1239116 32.3737957,28.8822598 C33.2370499,35.55134 33.6327413,42.3405573 33.2986043,48.697958 C32.6651328,60.7505976 29.5159166,69.5610482 23.0092256,73.688711 C25.3304212,75.6175966 28.6037693,76.9284792 32.3381879,77.180196 C33.1647395,77.2359093 33.7896274,77.9511263 33.7339141,78.7776779 C33.6782007,79.6042295 32.9629837,80.2291174 32.1364321,80.173404 C25.6351814,79.7351901 20.1536781,76.4862871 17.7276922,71.949817 C15.9304411,75.3116921 12.4456849,77.9967347 8.0187887,79.3276821 C7.22544155,79.5662021 6.38894793,79.1164258 6.15042792,78.3230787 C5.91190791,77.5297315 6.36168418,76.6932379 7.15503133,76.4547179 C12.5413837,74.8353098 16.06691,70.9543837 16.06691,66.7002 C16.06691,65.8717729 16.7384829,65.2002 17.56691,65.2002 C17.6209018,65.2002 17.6742273,65.2030526 17.7267441,65.2086153 C17.7804659,65.2027894 17.8350389,65.1998 17.89031,65.1998 C18.7187371,65.1998 19.39031,65.8713729 19.39031,66.6998 C19.39031,68.3874371 19.9433369,70.0023081 20.9313543,71.4383752 C26.7108612,68.0988052 29.6993384,60.0210063 30.3027394,48.5404991 C30.6261055,42.3880289 30.2404454,35.7709271 29.3986168,29.2673708 C29.1762963,27.5498314 28.9382161,25.9739335 28.7004051,24.5752143 C28.6174252,24.0871562 28.5405143,23.6566112 28.471679,23.2880104 C28.4308347,23.0692968 28.4020726,22.9213418 28.3874002,22.848571 C28.2061356,21.9495516 28.8669198,21.0997813 29.7828862,21.0539724 C47.6540566,20.1602061 60.7913156,30.1597811 69.8496942,47.2123926 C72.8561128,52.8720466 75.1905662,58.9233846 76.9379434,64.9733701 C77.5494667,67.0906621 78.0443305,69.0580423 78.4325724,70.8262154 C78.4805079,71.0445285 78.5256098,71.2543907 78.5679319,71.4555343 C79.5611839,70.0186412 80.11921,68.3991704 80.11921,66.7002 C80.11921,65.8717729 80.7907829,65.2002 81.61921,65.2002 C81.6739158,65.2002 81.7279376,65.2031285 81.7811272,65.2088374 L81.7811272,65.2088374 Z M48.2136075,33.5572045 C48.6760882,33.8590819 48.806283,34.4787167 48.5044055,34.9411974 C48.2025281,35.4036782 47.5828933,35.5338729 47.1204126,35.2319955 C45.5112811,34.1816589 43.8329078,33.3044207 42.0864406,32.6098031 C41.5732559,32.4056956 41.3226993,31.8242153 41.5268069,31.3110306 C41.7309144,30.7978459 42.3123947,30.5472893 42.8255794,30.7513969 C44.6979419,31.4960865 46.4946059,32.4351518 48.2136075,33.5572045 Z M70.3750593,70.1631192 C70.510966,70.6984208 70.1871925,71.2425426 69.6518909,71.3784493 C69.1165892,71.514356 68.5724674,71.1905825 68.4365607,70.6552808 C65.1617965,57.7568246 59.4526432,45.6071385 50.7672224,38.0057041 C50.3516259,37.6419762 50.3095781,37.0102089 50.6733059,36.5946124 C51.0370338,36.1790159 51.6688011,36.136968 52.0843976,36.5006959 C61.1485886,44.433628 67.0090732,56.9053635 70.3750593,70.1631192 Z" id="Fishes" fill="#2F313A" fill-rule="nonzero"></path>
    </g>
</svg>