<?xml version="1.0" encoding="UTF-8"?>
<svg width="100px" height="100px" viewBox="0 0 100 100" version="1.1" xmlns="http://www.w3.org/2000/svg" xmlns:xlink="http://www.w3.org/1999/xlink">
    <!-- Generator: Sketch 59.1 (86144) - https://sketch.com -->
    <title>Vector Files/100x100/Flattened/Categories/Fridge</title>
    <desc>Created with Sketch.</desc>
    <g id="100x100/Flattened/Categories/Fridge" stroke="none" stroke-width="1" fill="none" fill-rule="evenodd">
        <path d="M47.6607386,25 C47.7279878,22.918752 48.2435818,20.8404935 49.1591958,18.9343817 C49.5029366,18.2157795 49.8274258,17.6996821 50.2737539,17.2522328 C51.1899544,16.3348928 52.5463311,15.9223662 53.8147926,16.1342601 C53.5077756,15.3632371 53.195429,14.7278576 52.8887606,14.2167436 C52.7424392,13.9728746 52.612002,13.7822356 52.5015967,13.6402859 C52.4511146,13.5753804 52.4290237,13.5503441 52.4393398,13.5606602 C51.8988813,13.0202016 51.8512275,12.1597941 52.3286968,11.5629574 L54.3790627,9 L46.9231288,9 L46.0810235,25 L47.6607386,25 L47.6607386,25 Z M49.6619507,25 L55.8362377,25 C55.5592285,22.6415681 55.1743173,20.6001099 54.7042789,18.8534029 C54.4682919,18.552771 54.1535866,18.3140096 53.8001341,18.1880591 C53.0930008,17.9365019 52.2199027,18.13385 51.6892934,18.665119 C51.4348454,18.9202063 51.2181591,19.2648442 50.9626978,19.798892 C50.1753373,21.4380099 49.7286586,23.2204085 49.6619507,25 L49.6619507,25 Z M44.4906128,28 L24.915,28 C23.3054271,28 22,29.3054271 22,30.915 L22,53.085 C22,54.6945729 23.3054271,56 24.915,56 L34.7879938,56 C34.2884088,55.1937302 34,54.242784 34,53.2244 L34,41.4404 C34,40.8881153 34.4477153,40.4404 35,40.4404 C35.5522847,40.4404 36,40.8881153 36,41.4404 L36,53.2244 C36,54.3941148 36.6126036,55.4204341 37.5343748,56 L76.085,56 C77.6945729,56 79,54.6945729 79,53.085 L79,30.915 C79,29.3054271 77.6945729,28 76.085,28 L57.5152962,28 C57.5039162,28 57.4925603,28 57.4812299,28 L44.5119484,28 C44.5048484,28 44.4977378,28 44.4906169,28 L44.4906128,28 Z M43.0768712,25 L44.0020733,7.42116175 C44.0440042,6.62447469 44.7022103,6 45.5,6 L57.5,6 C58.7577593,6 59.4570192,7.45489755 58.6713032,8.43704257 L55.3839587,12.5462233 C55.4094349,12.5875157 55.4351993,12.6298563 55.4612394,12.6732564 C56.0249962,13.612851 56.5765949,14.8263682 57.0830249,16.3456584 C57.8609067,18.6793037 58.4697032,21.5457563 58.8558281,25 L76.085,25 C79.3514271,25 82,27.6485729 82,30.915 L82,53.085 C82,56.3514271 79.3514271,59 76.085,59 L24.915,59 C21.6485729,59 19,56.3514271 19,53.085 L19,30.915 C19,27.6485729 21.6485729,25 24.915,25 L43.0768712,25 Z M39.1885319,63 C37.4241752,63.0238189 36,64.4629555 36,66.2337 L36,71.7187 C36,72.2709847 35.5522847,72.7187 35,72.7187 C34.4477153,72.7187 34,72.2709847 34,71.7187 L34,66.2337 C34,65.0132836 34.4178897,63.8902615 35.118314,63 L24.279,63 C23.0204271,63 22,64.0204271 22,65.279 L22,82.5 C22,83.3284271 21.3284271,84 20.5,84 C19.6715729,84 19,83.3284271 19,82.5 L19,65.279 C19,62.3635729 21.3635729,60 24.279,60 L76.721,60 C79.6364271,60 82,62.3635729 82,65.279 L82,92.5 C82,93.3284271 81.3284271,94 80.5,94 C79.6715729,94 79,93.3284271 79,92.5 L79,65.279 C79,64.0204271 77.9795729,63 76.721,63 L39.1885319,63 L39.1885319,63 Z M22,92.5 C22,93.3284271 21.3284271,94 20.5,94 C19.6715729,94 19,93.3284271 19,92.5 L19,87.598 C19,86.7695729 19.6715729,86.098 20.5,86.098 C21.3284271,86.098 22,86.7695729 22,87.598 L22,92.5 Z M34,32.5 C34,31.9477153 34.4477153,31.5 35,31.5 C35.5522847,31.5 36,31.9477153 36,32.5 L36,37.151 C36,37.7032847 35.5522847,38.151 35,38.151 C34.4477153,38.151 34,37.7032847 34,37.151 L34,32.5 Z M34,75 C34,74.4477153 34.4477153,74 35,74 C35.5522847,74 36,74.4477153 36,75 L36,92 C36,92.5522847 35.5522847,93 35,93 C34.4477153,93 34,92.5522847 34,92 L34,75 Z M43.5,34 C43.2242847,34 43,34.2242847 43,34.5 L43,49.5 C43,49.7757153 43.2242847,50 43.5,50 C43.7757153,50 44,49.7757153 44,49.5 L44,34.5 C44,34.2242847 43.7757153,34 43.5,34 Z M43.5,32 C44.8802847,32 46,33.1197153 46,34.5 L46,49.5 C46,50.8802847 44.8802847,52 43.5,52 C42.1197153,52 41,50.8802847 41,49.5 L41,34.5 C41,33.1197153 42.1197153,32 43.5,32 Z M73,71 C73,69.8952847 72.1047153,69 71,69 C69.8952847,69 69,69.8952847 69,71 C69,72.1047153 69.8952847,73 71,73 C72.1047153,73 73,72.1047153 73,71 Z M75,71 C75,73.2092847 73.2092847,75 71,75 C68.7907153,75 67,73.2092847 67,71 C67,68.7907153 68.7907153,67 71,67 C73.2092847,67 75,68.7907153 75,71 Z M64,73 C64,72.4482847 63.5517153,72 63,72 C62.4482847,72 62,72.4482847 62,73 C62,73.5517153 62.4482847,74 63,74 C63.5517153,74 64,73.5517153 64,73 Z M66,73 C66,74.6562847 64.6562847,76 63,76 C61.3437153,76 60,74.6562847 60,73 C60,71.3437153 61.3437153,70 63,70 C64.6562847,70 66,71.3437153 66,73 Z" id="Fridge" fill="#2F313A" fill-rule="nonzero"></path>
    </g>
</svg>