<?xml version="1.0" encoding="UTF-8"?>
<svg width="100px" height="100px" viewBox="0 0 100 100" version="1.1" xmlns="http://www.w3.org/2000/svg" xmlns:xlink="http://www.w3.org/1999/xlink">
    <!-- Generator: Sketch 59.1 (86144) - https://sketch.com -->
    <title>Vector Files/100x100/Flattened/Categories/Fruits</title>
    <desc>Created with Sketch.</desc>
    <g id="100x100/Flattened/Categories/Fruits" stroke="none" stroke-width="1" fill="none" fill-rule="evenodd">
        <path d="M51.2131659,38.5841415 C52.1111996,38.3101187 53.1054277,38.0376884 54.1761191,37.7825497 C57.9108344,36.8925918 61.6811259,36.413062 65.2334236,36.5641802 C77.9458646,37.10498 84.2951582,45.4139299 80.3390525,63.2240111 C80.3025518,63.4176813 80.2285826,63.7551938 80.1113456,64.2163282 C79.9196093,64.9704947 79.6730366,65.80716 79.3656425,66.7061653 C78.4883936,69.2717684 77.2960484,71.8376393 75.7362679,74.2415737 C71.4052535,80.9165345 65.1153743,85.0794145 56.644361,85.3847121 C56.6040386,85.3869609 56.5555005,85.3891346 56.4823629,85.3913983 C55.0414535,85.4359964 53.2916278,85.2841704 51.5660347,84.7559772 C51.0138616,84.5869605 50.4897065,84.3840957 49.9978295,84.1438805 C49.5068254,84.3846688 48.9835073,84.5890103 48.4321038,84.7603268 C47.4284214,85.0721626 46.3714313,85.2636708 45.3046517,85.3611188 C44.5935447,85.4260768 43.972471,85.4418383 43.4877273,85.4296606 C43.3965474,85.426957 43.3965474,85.426957 43.3819974,85.4262275 C34.8772691,85.1198254 28.5871555,80.9472702 24.25665,74.2566109 C22.6974332,71.8476109 21.505563,69.2763613 20.6286987,66.7053985 C20.3214464,65.8045359 20.0749956,64.9661529 19.8833622,64.2104531 C19.7661977,63.748419 19.6922837,63.4102817 19.6656794,63.2644007 C15.6998215,45.406809 22.0493166,37.0993068 34.7618983,36.5611809 C38.3133746,36.4108462 42.0827927,36.8908927 45.8167971,37.7812338 C46.6608439,37.9824894 47.457412,38.1944918 48.1968412,38.409553 C48.171967,38.0607306 48.1244189,37.5465845 48.0336921,36.5805983 C47.7524788,33.5864644 47.7291929,31.708896 48.1236302,29.598333 C48.780297,26.0846267 50.587428,23.2017082 53.8607106,21.068111 C54.1078931,20.9069794 54.3489163,20.7494277 54.7173559,20.508278 C54.9774175,20.338045 54.9774175,20.338045 55.2378417,20.1676248 C59.146798,17.6102794 61.2141487,16.3622443 63.7591814,15.1462511 C64.5334216,14.7763263 65.4596301,15.1300895 65.7901235,15.9219647 C66.8672883,18.5028943 66.8545217,22.8994375 65.2111714,26.4198142 C63.005675,31.1444172 58.2749568,34.1159891 50.8843534,34.604242 C50.916914,35.1238619 50.962744,35.6846269 51.0205471,36.3000686 C51.1476573,37.6534352 51.1952696,38.1734663 51.2131659,38.5841415 L51.2131659,38.5841415 Z M50.3420033,41.9462 L49.6530033,41.9462 C49.4779194,41.9462 49.3041874,41.9155474 49.139675,41.8556304 C48.9549638,41.7883568 48.5885896,41.6642699 48.0653699,41.5022028 C47.1834395,41.2290253 46.1936114,40.9551844 45.1209798,40.6994247 C41.6345974,39.868127 38.1269879,39.4214226 34.8887752,39.5584967 C24.045246,40.0175053 19.0325606,46.575963 22.6041849,62.6620927 C22.6294156,62.7963173 22.6900171,63.0735531 22.7913209,63.4730413 C22.9638014,64.1532121 23.1876772,64.9147991 23.4680944,65.7369812 C24.2702858,68.0890031 25.3604028,70.4407383 26.7751449,72.626524 C30.6093286,78.5503629 36.0510997,82.160169 43.5068909,82.428876 C43.5064638,82.4289098 43.5064638,82.4289098 43.563069,82.4306068 C43.9380834,82.4400279 44.4448778,82.4271666 45.0317447,82.3735576 C45.9027721,82.2939912 46.7576858,82.1390957 47.5419996,81.8954159 C48.1698269,81.7003551 48.7290328,81.4549084 49.2037478,81.1591148 C49.6892349,80.8566094 50.3045092,80.8565581 50.7900466,81.1589827 C51.2625766,81.4533054 51.8191374,81.6960565 52.4441021,81.8873543 C53.2107589,82.1220231 54.046106,82.269851 54.8991722,82.3438685 C55.4841243,82.3946227 55.9970552,82.4049826 56.3895532,82.3928342 C56.4355444,82.3914108 56.4693419,82.3898972 56.5039164,82.3881754 C63.9433555,82.1197504 69.3853299,78.5180458 73.2196095,72.6086527 C74.6344743,70.4280626 75.7247024,68.0819429 76.5269955,65.7355554 C76.8074411,64.915364 77.0313407,64.1556324 77.2038392,63.477135 C77.3051432,63.078671 77.3657379,62.8021847 77.4006794,62.6209993 C80.9624728,46.5828421 75.9495859,40.0227697 65.105916,39.5614693 C61.866964,39.4236811 58.3585508,39.8699035 54.8715278,40.700838 C53.7994521,40.9563066 52.8101672,41.2298351 51.9287444,41.5027005 C51.4058301,41.664581 51.0396811,41.7885239 50.8550927,41.8557174 C50.6906504,41.9155773 50.5170017,41.9462 50.3420033,41.9462 Z M38.8302522,45.1066366 C38.2799907,45.0594063 37.8722033,44.5750435 37.9194336,44.024782 C37.9666639,43.4745204 38.4510268,43.0667331 39.0012883,43.1139634 C39.9475047,43.1951795 40.9105272,43.3203441 41.8846033,43.4841462 C42.429241,43.5757332 42.7965112,44.0914953 42.7049241,44.636133 C42.613337,45.1807708 42.0975749,45.5480409 41.5529372,45.4564538 C40.6302187,45.3012882 39.7204397,45.1830436 38.8302522,45.1066366 Z M28.4637968,61.2998475 C28.583506,61.8390025 28.2434779,62.3731175 27.7043228,62.4928266 C27.1651677,62.6125357 26.6310528,62.2725076 26.5113437,61.7333525 C24.9040502,54.4943019 25.2080891,49.0147414 27.5254298,46.1269956 C28.8825266,44.4346704 31.1062005,43.4507713 34.1267705,43.1263194 C34.6758965,43.0673356 35.1688669,43.4646743 35.2278508,44.0138002 C35.2868347,44.5629262 34.889496,45.0558967 34.34037,45.1148806 C31.8038874,45.3873346 30.0653479,46.1565784 29.085497,47.3784708 C27.2497673,49.6660588 26.9760467,54.5992054 28.4637968,61.2998475 Z M62.4927723,25.1508358 C63.4597944,23.0792858 63.7007748,20.5606856 63.4316856,18.6698222 C61.6489627,19.6174736 59.8015169,20.7669297 56.8802598,22.6780954 C56.6205087,22.8480751 56.6205087,22.8480751 56.360282,23.0184162 C55.9904117,23.2605023 55.7480791,23.41891 55.4989381,23.5813183 C52.9402577,25.2491221 51.5840372,27.4127024 51.0725735,30.1494529 C50.9823529,30.6322074 50.9183912,31.1069218 50.8783522,31.5979838 C57.0983212,31.1498424 60.7885051,28.8017081 62.4927723,25.1508358 Z" id="Fruits" fill="#2F313A" fill-rule="nonzero"></path>
    </g>
</svg>