<?xml version="1.0" encoding="UTF-8"?>
<svg width="100px" height="100px" viewBox="0 0 100 100" version="1.1" xmlns="http://www.w3.org/2000/svg" xmlns:xlink="http://www.w3.org/1999/xlink">
    <!-- Generator: Sketch 59.1 (86144) - https://sketch.com -->
    <title>Vector Files/100x100/Flattened/Categories/Fungi</title>
    <desc>Created with Sketch.</desc>
    <g id="100x100/Flattened/Categories/Fungi" stroke="none" stroke-width="1" fill="none" fill-rule="evenodd">
        <path d="M36.8016637,64.9937219 C36.9629542,68.2948809 37.8423171,70.6438526 39.3631585,72.2288465 C39.7455348,72.6273523 39.7324592,73.2603822 39.3339535,73.6427585 C38.9354477,74.0251348 38.3024178,74.0120592 37.9200415,73.6135535 C35.9726003,71.5839649 34.9171203,68.6528076 34.7880706,64.6934029 C33.5672761,64.4915802 32.3958967,64.2602671 31.2747417,63.9986619 C31.3290824,75.6496781 37.8630978,80.7208 49.8464,80.7208 C61.8287859,80.7208 68.3627093,75.6495791 68.4170582,63.9986619 C63.2621203,65.201469 57.0454148,65.7639 49.8456,65.7639 C45.0545637,65.7639 40.698856,65.5148278 36.8016637,64.9937219 L36.8016637,64.9937219 Z M71.4109181,63.1905857 C71.4152356,63.4109083 71.4174,63.6313109 71.4174,63.8518 C71.4174,77.4476709 63.3967819,83.7208 49.8464,83.7208 C36.2951216,83.7208 28.2744,77.4478057 28.2744,63.8518 C28.2744,63.6321588 28.2765899,63.4116936 28.2809359,63.1905469 C18.6498333,60.2033888 13.5006,54.4874656 13.5006,45.3819 C13.5006,29.6098967 29.845836,16.9999 49.8456,16.9999 C69.8462051,16.9999 86.1916,29.6097693 86.1916,45.3819 C86.1916,54.4875338 81.0423118,60.203449 71.4109181,63.1905857 L71.4109181,63.1905857 Z M68.0484501,61.0017065 C67.1898874,59.2494631 66.7301,57.2822815 66.7301,55.2414 C66.7301,48.4727777 71.7838096,42.9534 78.0621,42.9534 C79.8638407,42.9534 81.6010008,43.4107024 83.1594913,44.262743 C82.6820672,35.9563875 76.9171953,28.6312526 68.3227548,24.2586494 C68.8457775,25.123765 69.1271,26.0494303 69.1271,27.0206 C69.1271,32.4205032 60.4297666,36.4136 49.8461,36.4136 C39.2615844,36.4136 30.5641,32.4205848 30.5641,27.0206 C30.5641,26.0496304 30.8453029,25.1241503 31.368116,24.2591937 C22.7745813,28.6318282 17.0102431,35.9566115 16.532725,44.2624607 C18.0910829,43.4106014 19.8280583,42.9534 21.6296,42.9534 C27.9078904,42.9534 32.9616,48.4727777 32.9616,55.2414 C32.9616,57.2822635 32.5018207,59.2494283 31.6432727,61.00166 C36.555052,62.1973104 42.6353882,62.7639 49.8456,62.7639 C57.0560452,62.7639 63.1365465,62.1973276 68.0484501,61.0017065 L68.0484501,61.0017065 Z M69.9381823,60.4934997 C78.2438797,58.0328482 82.7259803,53.4960041 83.1572055,46.5156194 C81.6534967,45.4469959 79.8978016,44.8674 78.0621,44.8674 C72.8803831,44.8674 68.6441,49.4940303 68.6441,55.2414 C68.6441,57.1209275 69.0979768,58.9211914 69.9381823,60.4934997 L69.9381823,60.4934997 Z M29.7535544,60.493431 C30.5937364,58.921139 31.0476,57.1209001 31.0476,55.2414 C31.0476,49.4940303 26.8113169,44.8674 21.6296,44.8674 C19.7940933,44.8674 18.0385761,45.4468728 16.5349735,46.515279 C16.9660691,53.4957716 21.4480753,58.032716 29.7535544,60.493431 L29.7535544,60.493431 Z M61.2269161,21.5195253 C57.6791751,20.5368737 53.8474598,19.9999 49.8456,19.9999 C45.8434916,19.9999 42.0115317,20.536995 38.4635925,21.5198562 C34.8394059,22.9085702 32.5641,24.9130536 32.5641,27.0206 C32.5641,30.8908816 40.2371959,34.4136 49.8461,34.4136 C59.4541624,34.4136 67.1271,30.8908212 67.1271,27.0206 C67.1271,24.9129087 64.8514572,22.908262 61.2269161,21.5195253 L61.2269161,21.5195253 Z M25.0012603,36.4268789 C24.6808915,36.8767481 24.0564903,36.981729 23.6066211,36.6613603 C23.1567519,36.3409915 23.051771,35.7165903 23.3721397,35.2667211 C24.7544303,33.3256766 26.5253686,31.5505274 28.6201368,29.9974915 C29.0637918,29.6685711 29.690088,29.7615818 30.0190085,30.2052368 C30.3479289,30.6488918 30.2549182,31.275188 29.8112632,31.6041085 C27.8807118,33.0353959 26.2584221,34.6615431 25.0012603,36.4268789 Z M22.5937147,41.2973324 C22.4368479,41.8268712 21.8804063,42.1289815 21.3508676,41.9721147 C20.8213288,41.8152479 20.5192185,41.2588063 20.6760853,40.7292676 C20.8600758,40.1081667 21.0787782,39.4971802 21.3316634,38.8982973 C21.5465037,38.3895123 22.1331178,38.1512231 22.6419027,38.3660634 C23.1506877,38.5809037 23.3889769,39.1675178 23.1741366,39.6763027 C22.9501969,40.2066368 22.7565832,40.7475334 22.5937147,41.2973324 Z M41.0172031,75.7748052 C40.5146211,75.5458296 40.2928193,74.952785 40.5217948,74.4502031 C40.7507704,73.9476211 41.343815,73.7258193 41.8463969,73.9547948 C42.5331065,74.2676587 43.2953789,74.5166998 44.1403249,74.7086453 C44.678888,74.8309901 45.0162995,75.3667618 44.8939547,75.9053249 C44.7716099,76.443888 44.2358382,76.7812995 43.6972751,76.6589547 C42.7251702,76.4381227 41.8342554,76.147053 41.0172031,75.7748052 Z" id="Fungi" fill="#2F313A" fill-rule="nonzero"></path>
    </g>
</svg>