<?xml version="1.0" encoding="UTF-8"?>
<svg width="100px" height="100px" viewBox="0 0 100 100" version="1.1" xmlns="http://www.w3.org/2000/svg" xmlns:xlink="http://www.w3.org/1999/xlink">
    <!-- Generator: Sketch 59.1 (86144) - https://sketch.com -->
    <title>Vector Files/100x100/Flattened/Categories/Gardening</title>
    <desc>Created with Sketch.</desc>
    <g id="100x100/Flattened/Categories/Gardening" stroke="none" stroke-width="1" fill="none" fill-rule="evenodd">
        <path d="M43.7123468,26.0449506 C44.7836061,23.4195154 46.6040612,21.1980443 49.3174588,19.4284704 C49.5988681,19.2449072 49.874242,19.0647881 50.2912264,18.7916939 C50.5995324,18.5897525 50.5995324,18.5897525 50.9082144,18.3876282 C55.3717591,15.4657065 57.7400085,14.0354815 60.6453002,12.6466752 C61.4195219,12.2765767 62.3458581,12.6302372 62.6764479,13.4221354 C63.8893343,16.3274955 63.8752386,21.3087068 62.0171878,25.2912348 C59.5014582,30.6834251 54.0755878,34.0605322 45.5490196,34.5706629 C45.5869583,35.2315443 45.6444278,35.9493852 45.7192756,36.746257 C45.831019,37.9359404 45.8889884,38.5619368 45.9191101,39 L62.5,39 C63.3284271,39 64,39.6715729 64,40.5 L64,46.5 C64,46.8398825 63.8869574,47.1533626 63.6964184,47.4048938 C63.9229317,47.9881961 64.1575087,48.6827866 64.4000842,49.4838602 L75.700516,37.1719164 L76.3120417,32.288122 C76.3931398,29.9260885 79.1171089,28.6013039 80.9951435,30.2278252 L89.4969065,38.2701293 C91.1630544,39.710275 90.6792374,42.484504 88.5950566,43.2205199 L82.6233823,45.3219285 L69.9649349,72.630819 C69.841479,72.8971584 69.6497963,73.1101634 69.4202985,73.2586862 C69.7389831,75.0521407 70.0646373,76.9174669 70.3972042,78.8504624 C71.1295046,83.1059698 67.8693166,87 63.5668282,87 L58,87 C57.1715729,87 56.5,86.3284271 56.5,85.5 C56.5,84.6715729 57.1715729,84 58,84 L63.5668282,84 C66.0045583,84 67.8582508,81.7859146 67.4406514,79.3591822 C64.767849,63.8239137 62.0737058,50.7264006 60.7818089,48 L30.438657,48 C30.3921691,48.1569704 30.3189917,48.3089462 30.2180549,48.4493908 C30.095511,48.6198997 29.9438131,48.7570461 29.7746587,48.8589156 C28.4081424,52.8685649 25.9721315,65.0944914 23.558873,79.3556379 C23.1461136,81.7896424 24.9669123,84 27.345716,84 L54,84 C54.8284271,84 55.5,84.6715729 55.5,85.5 C55.5,86.3284271 54.8284271,87 54,87 L27.345716,87 C23.0917668,87 19.8807375,83.1019728 20.6010127,78.8545771 C20.7242019,78.1265906 20.8464361,77.4081693 20.9677115,76.6995412 C20.5371295,75.911925 19.8982571,75.1222428 18.8926241,74.0912234 C18.5950812,73.7861692 18.3471949,73.5400005 17.7687768,72.9714855 C17.7283297,72.9315568 17.7283297,72.9315568 17.6877972,72.8915597 C17.6066094,72.8114591 17.6066094,72.8114591 17.5251243,72.7310552 C17.0774849,72.2892742 16.817366,72.0295584 16.5400598,71.7447054 C13.497861,68.6285349 11.2807546,65.3403938 9.96085923,61.9676385 C8.31393419,57.7634968 8.04639147,53.2928112 9.22509427,49.3666793 C9.75186269,47.614532 10.4895925,46.2703194 11.544881,45.1845759 C13.7224182,42.9472851 17.0777703,42.0905603 20.9297369,42.6823989 C23.4049267,43.0673208 25.8129993,43.9139067 28,45.1550686 L28,40.5 C28,39.6715729 28.6715729,39 29.5,39 L42.9104147,39 C42.8795964,38.6008561 42.8259046,38.0220704 42.7324221,37.0268032 C42.6428703,36.0733847 42.5762373,35.2194516 42.5364323,34.4316506 C36.9117875,33.9657978 33.2647617,31.597914 31.5437418,27.8776522 C30.2340432,25.0465276 30.2240381,21.5224423 31.0908147,19.426711 C31.4202882,18.6300952 32.3518378,18.2744569 33.1283624,18.6488349 C35.1078684,19.6031943 36.7163605,20.5823575 39.7324057,22.5724711 C39.9443266,22.712345 39.9443266,22.712345 40.1558337,22.851991 C40.4421765,23.0410238 40.6312592,23.1656827 40.824639,23.2928113 C42.0241329,24.0817197 42.9788982,25.0010654 43.7123468,26.0449506 Z M83.0229512,42.0009954 L87.4359606,40.4480755 L79.279797,32.732729 L78.6723297,37.5841116 L83.0229512,42.0009954 L83.0229512,42.0009954 Z M76.8473189,40.3590493 L65.3297335,52.9075844 C66.3001673,56.8146825 67.3791395,62.1004246 68.5633488,68.5209684 L80.2019997,43.412151 L77.1907336,40.3550217 C77.0789854,40.3692635 76.9639623,40.3710348 76.8473189,40.3590493 L76.8473189,40.3590493 Z M21.667759,72.6586463 C21.7931286,71.9444174 21.9173989,71.2418424 22.0405655,70.5511983 C21.7900074,70.2902257 21.5029121,69.9973172 21.1017207,69.5912055 C21.0457338,69.534459 21.0457338,69.534459 20.9896234,69.4775717 C20.5313257,69.0128625 20.2597073,68.7340421 19.9707493,68.4285911 C17.4582318,65.7734346 15.6460811,63.0280114 14.5949201,60.2597121 C13.381458,57.0636763 13.1638817,53.7212548 14.0058287,50.8318381 C14.2819351,49.88445 14.6199023,49.182125 15.0983486,48.6765722 C16.1147509,47.5973064 17.9185897,47.2944268 19.9894188,47.6253946 C22.2454301,47.9867212 24.4163274,48.8802325 26.295152,50.2014799 C26.5270442,49.3801431 26.7518018,48.6543519 26.9693577,48.0283245 C24.9792205,46.8210165 22.7546615,46.0022556 20.4714446,45.6471856 C17.5132228,45.1926692 15.1314819,45.800801 13.6954374,47.2762514 C13.0000138,47.9917448 12.4937999,48.9141137 12.0982322,50.2298583 C11.1187459,53.4924218 11.3452111,57.2766936 12.7543645,60.8738707 C13.9199293,63.8522617 15.9124054,66.8072586 18.6881811,69.6505301 C18.9492188,69.9186698 19.1981955,70.1672606 19.6324263,70.5958086 C19.7134856,70.6757923 19.7134856,70.6757923 19.7949021,70.7561186 C19.8356717,70.7963497 19.8356717,70.7963497 19.8741057,70.8342962 C20.4653295,71.4153921 20.722906,71.6711838 21.0402194,71.9965075 C21.2627769,72.2246833 21.4715487,72.4446682 21.667759,72.6586463 L21.667759,72.6586463 Z M22.6959407,66.9337209 C23.7037519,61.4645555 24.632064,56.8843652 25.4782096,53.3606955 C23.7838782,51.9122671 21.6926864,50.9364268 19.5154683,50.5877198 C18.3260108,50.3976162 17.4618323,50.542719 17.2798059,50.7359971 C17.1892681,50.8316656 17.0407255,51.14035 16.8860237,51.6711694 C16.2345158,53.9070322 16.408874,56.5855355 17.3995544,59.1948053 C18.300842,61.5684033 19.8955299,63.9843688 22.1499417,66.3667666 C22.3201383,66.5466776 22.4859957,66.718868 22.6959407,66.9337209 L22.6959407,66.9337209 Z M30.0243667,59.7805927 C30.145542,59.2417653 30.6805799,58.9031913 31.2194073,59.0243667 C31.7582347,59.145542 32.0968087,59.6805799 31.9756333,60.2194073 C30.8147629,65.3814227 29.4698866,72.0766075 27.9835937,80.1803981 C27.8839626,80.7236219 27.3628257,81.0832248 26.8196019,80.9835937 C26.2763781,80.8839626 25.9167752,80.3628257 26.0164063,79.8196019 C27.5071863,71.6913466 28.8571638,64.970766 30.0243667,59.7805927 Z M30.9872154,53.7027015 C31.1514088,53.1753886 31.7119855,52.881022 32.2392985,53.0452154 C32.7666114,53.2094088 33.060978,53.7699855 32.8967846,54.2972985 C32.6368915,55.1319543 32.3490949,56.1096337 32.0202438,57.2721891 C31.8699179,57.8036217 31.3172434,58.1125697 30.7858109,57.9622438 C30.2543783,57.8119179 29.9454303,57.2592434 30.0957562,56.7278109 C30.4290154,55.549672 30.7215598,54.5558641 30.9872154,53.7027015 Z M31,45 L61,45 L61,42 L31,42 L31,45 Z M59.2985174,24.0228375 C60.479492,21.4915483 60.7333546,18.3950205 60.3447204,16.1506819 C58.2073296,17.2696657 56.0463658,18.6097251 52.5513214,20.897648 C52.2433573,21.0993022 52.2433573,21.0993022 51.9348739,21.3013598 C51.51647,21.5753837 51.2397888,21.7563578 50.9563622,21.9412369 C47.9688223,23.8895959 46.37963,26.4256756 45.7819094,29.6236007 C45.6611216,30.2698399 45.5807964,30.902932 45.5367323,31.5659588 C52.9026117,31.0925186 57.284954,28.3386898 59.2985174,24.0228375 Z M42.4424347,30.759599 C42.4211224,30.5752837 42.4006603,30.4414415 42.3994439,30.4298127 C41.9815363,28.5130951 40.9889525,26.9915819 39.1763888,25.7994567 C38.9812926,25.6711998 38.7908464,25.545642 38.5030234,25.355632 C38.2913308,25.2158636 38.2913308,25.2158636 38.0801545,25.0764811 C36.0894466,23.7629282 34.7474,22.9138697 33.5142362,22.2270698 C33.4134359,23.5713173 33.6250821,25.2315258 34.2665117,26.6180792 C35.4889882,29.260659 38.091109,30.9953697 42.4941679,31.4170477 C42.4854796,31.1976503 42.4674377,30.9758327 42.4424347,30.759599 Z" id="Gardening" fill="#2F313A" fill-rule="nonzero"></path>
    </g>
</svg>