<?xml version="1.0" encoding="UTF-8"?>
<svg width="100px" height="100px" viewBox="0 0 100 100" version="1.1" xmlns="http://www.w3.org/2000/svg" xmlns:xlink="http://www.w3.org/1999/xlink">
    <!-- Generator: Sketch 59.1 (86144) - https://sketch.com -->
    <title>Vector Files/100x100/Flattened/Categories/Gifts</title>
    <desc>Created with Sketch.</desc>
    <g id="100x100/Flattened/Categories/Gifts" stroke="none" stroke-width="1" fill="none" fill-rule="evenodd">
        <path d="M30,55 L30,59.7122 C30,60.2644847 29.5522847,60.7122 29,60.7122 C28.4477153,60.7122 28,60.2644847 28,59.7122 L28,55 L22,55 L22,63 L44,63 L44,55 L30,55 L30,55 Z M30,53 L44,53 L44,45.7385455 C43.7590855,45.9035025 43.4675976,46 43.1535714,46 L22,46 L22,53 L28,53 L28,48.7202 C28,48.1679153 28.4477153,47.7202 29,47.7202 C29.5522847,47.7202 30,48.1679153 30,48.7202 L30,53 L30,53 Z M30,77 L44,77 L44,65 L29.5809985,65 C29.834664,65.1813794 30,65.4783816 30,65.814 L30,77 L30,77 Z M28,77 L28,65.814 C28,65.4783816 28.165336,65.1813794 28.4190015,65 L22,65 L22,77 L28,77 L28,77 Z M19,34 L16,34 L16,43 L43.1535714,43 C43.4675976,43 43.7590855,43.0964975 44,43.2614573 L44,34 L21,34 L21,38.7202 C21,39.2724847 20.5522847,39.7202 20,39.7202 C19.4477153,39.7202 19,39.2724847 19,38.7202 L19,34 Z M54,34 L46,34 L46,77 L54,77 L54,34 Z M56,34 L56,43.002408 C56.0283679,43.0008098 56.0569465,43 56.0857143,43 L84,43 L84,34 L56,34 Z M56,45.997592 L56,53 L78,53 L78,46 L56.0857143,46 C56.0569465,46 56.0283679,45.9991902 56,45.997592 L56,45.997592 Z M56,55 L56,63 L78,63 L78,55 L56,55 L56,55 Z M56,65 L56,77 L78,77 L78,65 L56,65 L56,65 Z M64.6878042,31 L85.5,31 C86.3284271,31 87,31.6715729 87,32.5 L87,44.5 C87,45.3284271 86.3284271,46 85.5,46 L81,46 L81,78.5 C81,79.3284271 80.3284271,80 79.5,80 L20.5,80 C19.6715729,80 19,79.3284271 19,78.5 L19,46 L14.5,46 C13.6715729,46 13,45.3284271 13,44.5 L13,32.5 C13,31.6715729 13.6715729,31 14.5,31 L35.2767194,31 C32.7542114,29.8366925 30.8354376,28.2614473 29.5671576,26.3425276 C27.0113881,22.4756237 27.6350883,17.6819622 30.835697,15.0989202 C33.9269486,12.6041346 37.9325818,14.3764174 42.210537,18.8517159 C45.0540212,21.826371 47.9566563,25.9936813 49.9822618,29.8272364 C52.0078673,25.9936813 54.9105023,21.826371 57.7539866,18.8517159 C62.0319418,14.3764174 66.037575,12.6041346 69.1288266,15.0989202 C72.3294353,17.6819622 72.9531355,22.4756237 70.397366,26.3425276 C69.129086,28.2614473 67.2103122,29.8366925 64.6878042,31 L64.6878042,31 Z M52,43 C52.5522847,43 53,43.4477153 53,44 C53,44.5522847 52.5522847,45 52,45 L48,45 C47.4477153,45 47,44.5522847 47,44 C47,43.4477153 47.4477153,43 48,43 L52,43 Z M40.0419422,20.9246841 C36.7347083,17.4648864 34.1163464,16.3063984 32.7197966,17.4334798 C30.7482113,19.024642 30.3499022,22.0859837 32.0699102,24.6883724 C34.2373754,27.967768 39.2099547,30.1195981 46.8182021,30.288478 C44.9563891,26.96076 42.4581658,23.4523687 40.0419422,20.9246841 Z M67.8946133,24.6883724 C69.6146214,22.0859837 69.2163122,19.024642 67.244727,17.4334798 C65.8481772,16.3063984 63.2298153,17.4648864 59.9225813,20.9246841 C57.5063578,23.4523687 55.0081344,26.96076 53.1463215,30.288478 C60.7545689,30.1195981 65.7271482,27.967768 67.8946133,24.6883724 Z" id="Gifts" fill="#2F313A" fill-rule="nonzero"></path>
    </g>
</svg>