<?xml version="1.0" encoding="UTF-8"?>
<svg width="100px" height="100px" viewBox="0 0 100 100" version="1.1" xmlns="http://www.w3.org/2000/svg" xmlns:xlink="http://www.w3.org/1999/xlink">
    <!-- Generator: Sketch 59.1 (86144) - https://sketch.com -->
    <title>Vector Files/100x100/Flattened/Categories/Grocery Items</title>
    <desc>Created with Sketch.</desc>
    <g id="100x100/Flattened/Categories/Grocery-Items" stroke="none" stroke-width="1" fill="none" fill-rule="evenodd">
        <path d="M47.1133021,34.6361317 C47.5743629,34.4072025 48.1249172,34.4297042 48.5683819,34.7036293 L52.2480362,36.9765809 L55.9284154,34.7035692 C56.4115081,34.405217 57.0216543,34.4052098 57.5047541,34.7035504 L61.1854482,36.9765809 L64.8659154,34.7035692 C65.0919966,34.5639442 65.345903,34.4896608 65.6015912,34.480718 L66.5043419,30.4842657 C64.2740812,31.2874377 60.8889712,31.2905343 57.2795114,30.4752573 C53.6704313,29.6605847 50.6151909,28.2033234 48.9464715,26.5199889 L47.1133021,34.6361317 L47.1133021,34.6361317 Z M70.1225361,36.9768354 L73.8034154,34.7035692 C74.2865541,34.4051886 74.8967659,34.4052119 75.3798819,34.7036293 L76.0183066,35.0979799 C76.8423661,32.2325886 76.5564034,29.8778645 75.3065196,28.1250071 C75.1411066,27.8922037 74.9593357,27.6678302 74.7614126,27.452469 C74.3876987,27.0458287 74.4143907,26.4132266 74.821031,26.0395126 C75.2276713,25.6657987 75.8602734,25.6924907 76.2339874,26.099131 C76.4883552,26.3759101 76.7228486,26.6653629 76.9359068,26.965225 C78.6470479,29.3649542 78.9566109,32.5359403 77.7772103,36.1844427 L79.0878132,36.9939931 C82.7279521,26.4301465 75.8089783,20.4519587 63,20.0246196 L63,21.5 C63,21.593176 62.9915044,21.6843678 62.9752456,21.772843 C66.9990617,23.3250674 69.6339667,25.7027702 69.1112006,28.0207969 L67.459685,35.3320105 L70.1225361,36.9768354 Z M60,20.8436027 L60,14 L42,14 L42,21.5 C42,21.5882027 41.9923871,21.6746273 41.9777826,21.7586526 C43.4002431,23.7082757 44.5120965,26.127185 45.2220175,28.9769137 C45.4420531,29.8601951 45.6152789,30.7463369 45.7418567,31.6302221 L47.6436961,23.210051 C47.6461513,23.19849 47.6486847,23.1869305 47.6512967,23.1753724 C48.3152355,20.237409 53.601192,19.3928096 59.4818497,20.7213339 C59.6558858,20.7606115 59.8286336,20.8013834 60,20.8436027 L60,20.8436027 Z M82.5345848,35.9150929 L82.9595257,35.7509546 C84.0351894,35.3354674 85.1578688,36.2385241 84.9825647,37.3782392 L77.6225647,85.2282392 C77.5159797,85.9211866 76.9436072,86.4478712 76.2442045,86.4965761 L33.1642045,89.4965761 C32.9182122,89.5137065 32.6717904,89.4699275 32.4467518,89.3691144 L19.5667518,83.5991144 C19.0688677,83.3760716 18.7313408,82.900292 18.6853414,82.3566738 L15.0092263,38.9125855 C14.9446756,38.3525535 15.2000554,37.7793789 15.7114154,37.4635692 L17.2236648,36.5296224 C17.1748998,36.349927 17.1279954,36.169372 17.0830115,35.9882028 C14.6221263,26.1129283 18.8501683,18.5435574 27.1637782,16.4720163 C31.5919397,15.3684721 35.7288283,16.1871462 39,18.6860779 L39,12.5 C39,11.6715729 39.6715729,11 40.5,11 L61.5,11 C62.3284271,11 63,11.6715729 63,12.5 L63,17.0240666 C76.83607,17.4734146 85.4332139,24.1997662 82.5345848,35.9150929 Z M19.9011086,34.8760657 L20.1804154,34.7035692 C20.6635541,34.4051886 21.2737659,34.4052119 21.7568819,34.7036293 L25.4369479,36.976781 L29.1167877,34.7036481 C29.5998965,34.4052192 30.2101083,34.4051814 30.6932541,34.7035504 L34.3739482,36.9765809 L38.0544154,34.7035692 C38.5375081,34.405217 39.1476543,34.4052098 39.6307541,34.7035504 L42.9434733,36.7493362 C43.1119245,34.4741618 42.9035959,32.0809937 42.310985,29.7020962 C40.2415923,21.3952458 34.550786,17.7228523 27.8891727,19.382996 C21.3302638,21.01731 18.0278736,26.7714666 19.9011086,34.8760657 L19.9011086,34.8760657 Z M26.4906407,76.1940918 L32.1458319,85.0808208 L33.4856803,39.9539828 L29.9052092,37.7428455 L26.2254123,40.0159519 C25.7184464,40.3291179 25.0979149,40.3040149 24.6274666,40.0029439 L20.9685328,37.7428455 L18.072319,39.5315119 L21.4456324,79.397109 L24.4872398,76.121092 L23.8545212,56.5322832 C23.8366917,55.9802863 24.26972,55.5183507 24.8217168,55.5005212 C25.3737137,55.4826917 25.8356493,55.91572 25.8534788,56.4677168 L26.4906407,76.1940918 L26.4906407,76.1940918 Z M22.2213491,81.5010482 L29.6009434,84.8069689 L25.3516479,78.1295045 L22.2213491,81.5010482 L22.2213491,81.5010482 Z M35.4907515,39.8128648 L34.1068431,86.4236674 L74.8397117,83.5871166 L81.6235403,39.4830133 L79.6004743,40.2644454 C78.9379515,40.5203522 78.2366509,40.2738395 77.8531292,39.7575113 L74.5915328,37.742791 L70.9107846,40.0160308 C70.4038348,40.3291168 69.7833745,40.3039857 69.3129722,40.0029474 L65.6540328,37.742791 L61.9732846,40.0160308 C61.4596029,40.3332744 60.8293758,40.3032586 60.3568123,39.9908088 L56.716621,37.742791 L53.0357846,40.0160308 C52.5220596,40.3333011 51.8917698,40.3032535 51.419193,39.9907299 L47.7800328,37.742791 L44.0992846,40.0160308 C43.5856029,40.3332744 42.9553758,40.3032586 42.4828123,39.9908088 L38.842621,37.742791 L35.4907515,39.8128648 Z M25.628669,51.478505 C25.6405403,52.0306621 25.2025522,52.4878976 24.650395,52.499769 C24.0982379,52.5116403 23.6410024,52.0736522 23.629131,51.521495 L23.500131,45.521495 C23.4882597,44.9693379 23.9262478,44.5121024 24.478405,44.500231 C25.0305621,44.4883597 25.4877976,44.9263478 25.499669,45.478505 L25.628669,51.478505 Z M72.6327221,71.3759653 C72.7012246,70.8279453 73.2010148,70.4392196 73.7490347,70.5077221 C74.2970547,70.5762246 74.6857804,71.0760148 74.6172779,71.6240347 L73.4922779,80.6240347 C73.4237754,81.1720547 72.9239852,81.5607804 72.3759653,81.4922779 C71.8279453,81.4237754 71.4392196,80.9239852 71.5077221,80.3759653 L72.6327221,71.3759653 Z M73.5077221,64.3759653 C73.5762246,63.8279453 74.0760148,63.4392196 74.6240347,63.5077221 C75.1720547,63.5762246 75.5607804,64.0760148 75.4922779,64.6240347 L75.1172779,67.6240347 C75.0487754,68.1720547 74.5489852,68.5607804 74.0009653,68.4922779 C73.4529453,68.4237754 73.0642196,67.9239852 73.1327221,67.3759653 L73.5077221,64.3759653 Z M23.7940858,30.455779 C23.2662237,30.6181981 22.7066401,30.321948 22.544221,29.7940858 C22.3818019,29.2662237 22.678052,28.7066401 23.2059142,28.544221 L36.2059142,24.544221 C36.7337763,24.3818019 37.2933599,24.678052 37.455779,25.2059142 C37.6181981,25.7337763 37.321948,26.2933599 36.7940858,26.455779 L23.7940858,30.455779 Z M24.7940858,34.455779 C24.2662237,34.6181981 23.7066401,34.321948 23.544221,33.7940858 C23.3818019,33.2662237 23.678052,32.7066401 24.2059142,32.544221 L37.2059142,28.544221 C37.7337763,28.3818019 38.2933599,28.678052 38.455779,29.2059142 C38.6181981,29.7337763 38.321948,30.2933599 37.7940858,30.455779 L24.7940858,34.455779 Z M72.9431839,23.6851089 C73.4374739,23.9314742 73.6384565,24.531894 73.3920911,25.0261839 C73.1457258,25.5204739 72.545306,25.7214565 72.0510161,25.4750911 C71.7559365,25.3280168 71.4463627,25.188697 71.1235804,25.0579144 C70.6117149,24.8505207 70.3648918,24.2674458 70.5722856,23.7555804 C70.7796793,23.2437149 71.3627542,22.9968918 71.8746196,23.2042856 C72.2447727,23.3542614 72.6014219,23.5147669 72.9431839,23.6851089 Z M49.6024283,23.6158171 L49.5982542,23.6342974 C49.3230533,25.0093171 52.8486009,27.4247537 57.720022,28.5243728 C62.6130961,29.6295828 66.8497222,28.9527898 67.160248,27.5805878 C67.469339,26.2081359 63.9344275,23.7765235 59.0413391,22.6722184 C54.1652983,21.5706514 49.9405838,22.2393922 49.6053475,23.6024782 C49.6044057,23.6069242 49.6034326,23.6113705 49.6024283,23.6158171 Z" id="Grocery-Items" fill="#2F313A" fill-rule="nonzero"></path>
    </g>
</svg>