<?xml version="1.0" encoding="UTF-8"?>
<svg width="100px" height="100px" viewBox="0 0 100 100" version="1.1" xmlns="http://www.w3.org/2000/svg" xmlns:xlink="http://www.w3.org/1999/xlink">
    <!-- Generator: Sketch 59.1 (86144) - https://sketch.com -->
    <title>Vector Files/100x100/Flattened/Categories/Grains</title>
    <desc>Created with Sketch.</desc>
    <g id="100x100/Flattened/Categories/Grains" stroke="none" stroke-width="1" fill="none" fill-rule="evenodd">
        <path d="M78.5683423,67.9524528 C78.4746328,68.0115521 78.3774999,68.0719856 78.2770069,68.1336352 C77.2896609,68.7393442 76.1738203,69.3439261 74.9500602,69.9081309 C71.4396895,71.5265591 67.7544368,72.5 64.0563738,72.5 C63.5040891,72.5 63.0563738,72.0522847 63.0563738,71.5 C63.0563738,70.9477153 63.5040891,70.5 64.0563738,70.5 C67.4318108,70.5 70.8449331,69.5984409 74.1126874,68.0918691 C75.261271,67.5623239 76.3082898,66.9950308 77.2311782,66.4288648 C77.3091138,66.3810535 77.3847425,66.3341115 77.4580246,66.2881086 C77.4706708,66.2006192 77.491282,66.112859 77.5203489,66.0256584 C78.122005,64.2206899 78.3585274,62.1145145 78.2628534,59.7651876 C78.1388332,56.7198017 77.4703987,53.4233961 76.4316538,50.0994125 C76.0235886,48.7936038 75.5863294,47.5751082 75.1498099,46.4789591 C75.1227394,46.4109821 75.0960279,46.3443794 75.0696966,46.2791754 C74.5859144,46.5362519 74.0776,46.7820218 73.5448775,47.0156773 C72.7862165,47.3484309 71.9014501,47.0031647 71.5686965,46.2445037 C71.2359429,45.4858427 71.5812091,44.6010763 72.3398701,44.2683227 C75.9684463,42.6768058 78.0731507,40.569725 78.8072713,38.334562 C79.3370134,36.7216664 79.0398986,35.2024753 78.3853513,34.6197996 C77.8220336,34.1177421 76.3989091,33.7769536 74.4546774,33.6991224 C73.6344049,33.6662853 72.7686504,33.6790051 71.8934075,33.7268229 C72.3803134,34.0905531 72.8331455,34.4333619 73.2473783,34.750795 C73.6007778,35.0216106 73.8509394,35.2161531 73.9849821,35.3217625 C74.0811243,35.3975109 74.1655044,35.4826554 74.2378458,35.5748648 C74.5579204,35.4679044 74.8546427,35.3663348 75.1267522,35.2710431 C75.4128615,35.1708488 75.6084312,35.0999738 75.7065329,35.063303 C76.2238564,34.8699255 76.7999933,35.1325356 76.9933708,35.6498591 C77.1867483,36.1671825 76.9241382,36.7433195 76.4068147,36.936697 C76.2959164,36.9781512 76.087283,37.0537606 75.7877829,37.1586444 C75.2922392,37.3321818 74.7196209,37.5252086 74.0767858,37.7328427 C73.9557126,37.771949 73.8337756,37.8110537 73.7109906,37.8501455 C73.5798965,37.9135589 73.4408721,37.9571513 73.2986903,37.9803564 C71.6741992,38.4892647 69.9086313,38.9938641 68.0368218,39.4692323 C62.5939632,40.8515104 57.1850892,41.7565245 52.1165337,41.9582195 C51.4199244,41.9859399 50.7331358,42 50.0566738,42 C49.3786318,42 48.6902091,41.985872 47.9919153,41.9580186 C42.9250643,41.7559133 37.5180177,40.851033 32.0769067,39.4692338 C30.2051228,38.9938842 28.4395523,38.4893057 26.8150338,37.9804178 C26.6726098,37.9572101 26.5333495,37.9135468 26.4020497,37.8499968 C26.2794212,37.8109561 26.1576386,37.7719026 26.0367174,37.7328475 C25.3938495,37.525214 24.8211989,37.3321879 24.3256249,37.1586511 C24.0261071,37.0537679 23.8174607,36.9781592 23.7065558,36.9367056 C23.1892276,36.7433408 22.9266034,36.1672103 23.1199682,35.649882 C23.313333,35.1325538 23.8894635,34.8699296 24.4067918,35.0632944 C24.5049025,35.0999658 24.7004876,35.1708415 24.9866172,35.2710364 C25.2587286,35.3663226 25.5554503,35.4678858 25.8755219,35.5748392 C25.9478588,35.4826396 26.0322322,35.3975039 26.1283655,35.3217625 C26.2624082,35.2161531 26.5125698,35.0216106 26.8659693,34.750795 C27.2885073,34.4269975 27.7512079,34.0767965 28.249268,33.7049197 C27.5077193,33.6781826 26.7777296,33.6728645 26.0773664,33.6936754 C23.8257536,33.7605811 22.1849167,34.11159 21.6140374,34.6203865 C20.960149,35.2024753 20.6630342,36.7216664 21.1927763,38.334562 C21.9268969,40.569725 24.0316013,42.6768058 27.6601775,44.2683227 C28.4188385,44.6010763 28.7641047,45.4858427 28.4313511,46.2445037 C28.0985975,47.0031647 27.2138311,47.3484309 26.4551701,47.0156773 C25.9224476,46.7820218 25.4141332,46.5362519 24.930351,46.2791754 C24.9040197,46.3443794 24.8773082,46.4109821 24.8502377,46.4789591 C24.4137182,47.5751082 23.976459,48.7936038 23.5683938,50.0994125 C22.5296489,53.4233961 21.8612144,56.7198017 21.7371942,59.7651876 C21.6415202,62.1145145 21.8780426,64.2206899 22.4796987,66.0256584 C22.5156948,66.1336464 22.5387231,66.2424926 22.5497157,66.3506199 C22.5864891,66.3727653 22.6246342,66.3954365 22.6641732,66.4186169 C23.596602,66.9652667 24.8733859,67.5211541 26.5445599,68.0460986 C29.2910768,68.9088269 32.7975587,69.5903897 37.1540768,70.016755 C37.7037355,70.0705492 38.105713,70.5597444 38.0519188,71.109403 C37.9981246,71.6590617 37.5089294,72.0610392 36.9592708,72.007245 C32.4708416,71.5679698 28.8295626,70.8602062 25.9451993,69.954178 C24.1342003,69.385312 22.719227,68.7692596 21.6526604,68.1439695 C21.5501817,68.0838899 21.453525,68.0253538 21.3625295,67.9684982 C21.3509711,67.970898 21.3393517,67.9731715 21.3276725,67.9753168 C21.1449468,68.0088814 20.7968096,68.0862291 20.3408246,68.2109377 C19.5783817,68.4194602 18.8174738,68.6822291 18.1187632,68.9988156 C16.0897511,69.918163 15.2055957,70.9538908 15.508643,72.123456 C16.1716428,74.6800103 29.6031971,75.9975623 50.0000257,75.9999966 C70.3968513,75.9975623 83.8284048,74.6800105 84.4913262,72.1237583 C84.7944519,70.9538908 83.9102965,69.918163 81.8812844,68.9988156 C81.1825738,68.6822291 80.4216659,68.4194602 79.659223,68.2109377 C79.203238,68.0862291 78.8551008,68.0088814 78.6723751,67.9753168 C78.6371427,67.968845 78.6024554,67.9612073 78.5683423,67.9524528 L78.5683423,67.9524528 Z M49.9378879,79 C26.0520192,78.9960357 13.8805479,77.7962485 12.6046262,72.8762417 C11.8298757,69.8862098 13.6834483,67.7148758 16.8806265,66.2662312 C17.6278859,65.9276472 18.4123273,65.6464012 19.2005318,65.4159028 C18.7993342,63.6419468 18.6555187,61.7097127 18.7396788,59.6431169 C18.8757481,56.3018592 19.5940793,52.7593859 20.7049538,49.2045875 C21.1368886,47.8223962 21.5996294,46.5328918 22.0631099,45.3690409 C22.1675915,45.106676 22.2674792,44.8624595 22.3617856,44.6374912 C20.3378388,43.0760489 18.9921829,41.2485479 18.3425713,39.270688 C17.4626838,36.5917113 18.0054984,33.8162225 19.6186513,32.3802004 C20.8923943,31.2449757 23.0560317,30.7821289 25.9882621,30.694999 C27.4832955,30.6505748 29.0708249,30.7137334 30.6332593,30.845911 C31.0589324,30.8819217 31.4507449,30.9205573 31.8003536,30.9593097 C31.8775703,30.9678688 31.9469657,30.9757791 32.0081363,30.9829208 C33.0946261,30.2207288 34.1943853,29.4711644 35.2944578,28.747066 C36.5980099,27.8890318 37.8648805,27.0918182 39.0835521,26.367165 C43.7778414,23.5758208 47.4719291,22 50.0566738,22 C52.6414185,22 56.3355062,23.5758208 61.0297955,26.367165 C62.2484671,27.0918182 63.5153377,27.8890318 64.8188898,28.747066 C65.9919083,29.5191795 67.1645707,30.3202483 68.3211686,31.134707 C68.4463302,31.0777392 68.5814839,31.0371652 68.7243312,31.0160794 C68.8027906,31.004498 68.9416158,30.9855231 69.1334987,30.9616526 C69.4479984,30.9225284 69.8006944,30.8835548 70.1843573,30.8472449 C71.6569436,30.707879 73.157778,30.6448022 74.5746769,30.7015233 C77.1679188,30.8053356 79.1457923,31.2789671 80.3807374,32.3796135 C81.9945492,33.8162225 82.5373638,36.5917113 81.6574763,39.270688 C81.0078647,41.2485479 79.6622088,43.0760489 77.638262,44.6374912 C77.7325684,44.8624595 77.8324561,45.106676 77.9369377,45.3690409 C78.4004182,46.5328918 78.863159,47.8223962 79.2950938,49.2045875 C80.4059683,52.7593859 81.1242995,56.3018592 81.2603688,59.6431169 C81.3445289,61.7097127 81.2007134,63.6419468 80.7995158,65.4159028 C81.5877203,65.6464012 82.3721617,65.9276472 83.1194212,66.2662312 C86.3165993,67.7148758 88.1701719,69.8862098 87.395343,72.876544 C86.1194995,77.796249 73.9480284,78.9960357 50.0621597,79 L50.0566738,79 L50.0000262,79 L49.9433738,79 L49.9378879,79 L49.9378879,79 Z M70.7878668,36.6488053 C70.3827802,36.3423715 69.9473927,36.0165825 69.485239,35.6748954 C67.4451726,34.1665999 65.3047441,32.6584389 63.1694578,31.252934 C61.9023108,30.4188625 60.673687,29.6457169 59.4965104,28.9457376 C55.2623555,26.4280011 51.9147913,25 50.0566738,25 C48.1985563,25 44.8509921,26.4280011 40.6168372,28.9457376 C39.4396606,29.6457169 38.2110368,30.4188625 36.9438898,31.252934 C34.8086035,32.6584389 32.668175,34.1665999 30.6281086,35.6748954 C30.1659832,36.0165616 29.7306206,36.3423318 29.325555,36.6487492 C30.3623084,36.9496788 31.4462358,37.2455858 32.5691909,37.5307662 C37.8856151,38.8809006 43.1608963,39.7637297 48.0716275,39.9596078 C48.7437424,39.9864169 49.4056124,40 50.0566738,40 C50.7062201,40 51.3665186,39.9864823 52.0370099,39.9598011 C56.9493673,39.7643218 62.226413,38.8813653 67.5445258,37.5307677 C68.6673845,37.2456045 69.7512126,36.9497161 70.7878668,36.6488053 L70.7878668,36.6488053 Z M42.0110615,72.3656131 C41.459377,72.3398698 41.0330175,71.8717721 41.0587607,71.3200877 C41.084504,70.7684032 41.5526017,70.3420437 42.1042861,70.3677869 C42.6577701,70.3936142 43.8040242,70.4579286 43.8690874,70.4611006 C44.4432326,70.4890915 44.9931888,70.4997 46.0566738,70.4997 C46.6089586,70.4997 47.0566738,70.9474153 47.0566738,71.4997 C47.0566738,72.0519847 46.6089586,72.4997 46.0566738,72.4997 C44.9632037,72.4997 44.3822409,72.4884934 43.7716986,72.4587281 C43.6960731,72.4550412 42.5526158,72.3908836 42.0110615,72.3656131 Z M27.4296738,59.5015047 C27.4288417,60.0537888 26.9804533,60.5008299 26.4281691,60.5 C25.875885,60.4991679 25.4288439,60.0507795 25.4296738,59.4984953 C25.434698,56.1601689 26.2240276,52.8662722 27.6245446,50.0541933 C27.8707568,49.5598271 28.4711143,49.3586585 28.9654805,49.6048707 C29.4598467,49.851083 29.6610153,50.4514405 29.4148031,50.9458067 C28.150753,53.4838756 27.4342281,56.473956 27.4296738,59.5015047 Z M28.0249964,64.2502976 C28.1629033,64.7850874 27.841166,65.3304158 27.3063762,65.4683226 C26.7715864,65.6062295 26.226258,65.2844922 26.0883512,64.7497024 C25.908702,64.0530398 25.7663333,63.3509331 25.6615744,62.6472494 C25.5802508,62.1009849 25.9571599,61.5922242 26.5034244,61.5109006 C27.0496889,61.429577 27.5584496,61.8064861 27.6397732,62.3527506 C27.7342648,62.9874669 27.8627647,63.6211779 28.0249964,64.2502976 Z M59.3749738,32.375 C59.3749738,32.927 58.9279738,33.375 58.3749738,33.375 C57.8219738,33.375 57.3749738,32.927 57.3749738,32.375 C57.3749738,31.823 57.8219738,31.375 58.3749738,31.375 C58.9279738,31.375 59.3749738,31.823 59.3749738,32.375 Z M63.3749738,34.375 C63.3749738,34.927 62.9279738,35.375 62.3749738,35.375 C61.8219738,35.375 61.3749738,34.927 61.3749738,34.375 C61.3749738,33.823 61.8219738,33.375 62.3749738,33.375 C62.9279738,33.375 63.3749738,33.823 63.3749738,34.375 Z M59.3749738,36.375 C59.3749738,36.927 58.9279738,37.375 58.3749738,37.375 C57.8219738,37.375 57.3749738,36.927 57.3749738,36.375 C57.3749738,35.823 57.8219738,35.375 58.3749738,35.375 C58.9279738,35.375 59.3749738,35.823 59.3749738,36.375 Z" id="Grains" fill="#2F313A" fill-rule="nonzero"></path>
    </g>
</svg>