<?xml version="1.0" encoding="UTF-8"?>
<svg width="100px" height="100px" viewBox="0 0 100 100" version="1.1" xmlns="http://www.w3.org/2000/svg" xmlns:xlink="http://www.w3.org/1999/xlink">
    <!-- Generator: Sketch 59.1 (86144) - https://sketch.com -->
    <title>Vector Files/100x100/Flattened/Categories/Home Beauty</title>
    <desc>Created with Sketch.</desc>
    <g id="100x100/Flattened/Categories/Home-Beauty" stroke="none" stroke-width="1" fill="none" fill-rule="evenodd">
        <path d="M25,89.0313 L25,91 L40,91 L40,89.0313 L25,89.0313 L25,89.0313 Z M25.0105416,87.0313 L39.9894584,87.0313 C39.8330705,84.7788796 37.9561381,83 35.664,83 L29.336,83 C27.0438619,83 25.1669295,84.7788796 25.0105416,87.0313 L25.0105416,87.0313 Z M77,82 L71,82 L71,91 L77,91 L77,82 L77,82 Z M77,80 L77,78 L71,78 L71,80 L77,80 L77,80 Z M69,75.0853529 L69,64.682 C69,62.3233171 71.9563375,61.2726726 73.6881871,62.7571151 L77.2756871,65.8321151 C78.3695857,66.7697425 79,68.0744742 79,69.456 L79,75.0853529 C79.5825962,75.2912711 80,75.8468906 80,76.5 L80,92.5 C80,93.3284271 79.3284271,94 78.5,94 L69.5,94 C68.6715729,94 68,93.3284271 68,92.5 L68,76.5 C68,75.8468906 68.4174038,75.2912711 69,75.0853529 L69,75.0853529 Z M72,75 L76,75 L76,69.456 C76,68.9719211 75.767407,68.4905369 75.3233129,68.1098849 L72,65.261331 L72,75 L72,75 Z M50.0029,87.0313 L54.0029,87.0313 L54.0029,72.2816871 C53.3403431,72.3330668 52.6724283,72.3589 51.9999,72.3589 C51.3294058,72.3589 50.6635036,72.333194 50.0029,72.2820722 L50.0029,87.0313 L50.0029,87.0313 Z M50.0029,89.0313 L50.0029,91.0005 L54.0029,91.0005 L54.0029,89.0313 L50.0029,89.0313 L50.0029,89.0313 Z M67.0413927,28.7865937 C66.7706023,27.6754773 66.4420115,26.6099495 66.0602942,25.5961194 L62.5551068,29.1013068 C62.1645825,29.4918311 61.5314175,29.4918311 61.1408932,29.1013068 C60.7503689,28.7107825 60.7503689,28.0776175 61.1408932,27.6870932 L65.214903,23.6130835 C62.3824338,17.7074805 57.5825541,14 51.97,14 C42.9311087,14 36,23.61586 36,36.543 C36,49.47014 42.9311087,59.086 51.97,59.086 C61.0088913,59.086 67.94,49.47014 67.94,36.543 C67.94,34.665779 67.79384,32.8583848 67.5162901,31.1401235 L61.0149068,37.6415068 C60.6243825,38.0320311 59.9912175,38.0320311 59.6006932,37.6415068 C59.2101689,37.2509825 59.2101689,36.6178175 59.6006932,36.2272932 L67.0413927,28.7865937 L67.0413927,28.7865937 Z M57.0029,71.8676447 L57.0029,92.5005 C57.0029,93.3289271 56.3313271,94.0005 55.5029,94.0005 L48.5029,94.0005 C47.6744729,94.0005 47.0029,93.3289271 47.0029,92.5005 L47.0029,71.8684645 C45.5470156,71.5775746 44.1238842,71.1585454 42.7417208,70.6147518 C41.9708132,70.3114485 41.5917449,69.4406285 41.8950482,68.6697208 C42.1983515,67.8988132 43.0691715,67.5197449 43.8400792,67.8230482 C45.3972808,68.4357083 47.0130424,68.8684619 48.6744094,69.1151981 C48.7063185,69.1188302 48.7379237,69.1234635 48.7691929,69.1290658 C49.8287994,69.2817618 50.9068186,69.3589 51.9999,69.3589 C53.1034937,69.3589 54.1916903,69.2803717 55.2608491,69.124928 C55.2760014,69.1224698 55.2912299,69.1202385 55.3065309,69.1182379 C56.9076809,68.8820473 58.4659743,68.4732315 59.9691647,67.8972162 C60.742741,67.6007854 61.6101531,67.9875884 61.9065838,68.7611647 C62.2030146,69.534741 61.8162116,70.4021531 61.0426353,70.6985838 C59.7306542,71.2013287 58.3816457,71.5919517 57.0029,71.8676447 L57.0029,71.8676447 Z M42.3627412,12.4888875 C41.67507,12.9508397 40.7431161,12.7678584 40.2811639,12.0801872 C39.8192116,11.392516 40.002193,10.4605621 40.6898642,9.99860988 C44.0968079,7.70995033 47.9624039,6.5 52.0004986,6.5 C65.3216549,6.5 75.5,19.3881162 75.5,36.5 C75.5,53.6118838 65.3216549,66.5 52.0004986,66.5 C38.6791614,66.5 28.5,53.6116573 28.5,36.5 C28.5,32.9654127 28.927598,29.5752146 29.7588617,26.4096715 C29.9692709,25.6084103 30.7893917,25.1294301 31.5906529,25.3398393 C32.3919141,25.5502484 32.8708943,26.3703693 32.6604851,27.1716305 C31.8953029,30.085528 31.5,33.2196757 31.5,36.5 C31.5,52.0894876 40.5119769,63.5 52.0004986,63.5 C63.4887889,63.5 72.5,52.0897428 72.5,36.5 C72.5,20.9102572 63.4887889,9.5 52.0004986,9.5 C48.5663894,9.5 45.2814617,10.5281983 42.3627412,12.4888875 Z M30.7171347,17.6477634 C30.9116697,17.4517767 31.22825,17.4505998 31.4242366,17.6451347 C31.6202233,17.8396697 31.6214002,18.15625 31.4268653,18.3522366 L30.3548653,19.4322366 C30.1603303,19.6282233 29.84375,19.6294002 29.6477634,19.4348653 C29.4517767,19.2403303 29.4505998,18.92375 29.6451347,18.7277634 L30.7171347,17.6477634 Z M34.7171347,13.6477634 C34.9116697,13.4517767 35.22825,13.4505998 35.4242366,13.6451347 C35.6202233,13.8396697 35.6214002,14.15625 35.4268653,14.3522366 L34.3548653,15.4322366 C34.1603303,15.6282233 33.84375,15.6294002 33.6477634,15.4348653 C33.4517767,15.2403303 33.4505998,14.92375 33.6451347,14.7277634 L34.7171347,13.6477634 Z M31.4268653,14.7277634 C31.6214002,14.92375 31.6202233,15.2403303 31.4242366,15.4348653 C31.22825,15.6294002 30.9116697,15.6282233 30.7171347,15.4322366 L29.6451347,14.3522366 C29.4505998,14.15625 29.4517767,13.8396697 29.6477634,13.6451347 C29.84375,13.4505998 30.1603303,13.4517767 30.3548653,13.6477634 L31.4268653,14.7277634 Z M35.4268653,18.7277634 C35.6214002,18.92375 35.6202233,19.2403303 35.4242366,19.4348653 C35.22825,19.6294002 34.9116697,19.6282233 34.7171347,19.4322366 L33.6451347,18.3522366 C33.4505998,18.15625 33.4517767,17.8396697 33.6477634,17.6451347 C33.84375,17.4505998 34.1603303,17.4517767 34.3548653,17.6477634 L35.4268653,18.7277634 Z M33,22.5 C33,22.7761424 32.7761424,23 32.5,23 C32.2238576,23 32,22.7761424 32,22.5 L32,18 C32,17.7238576 32.2238576,17.5 32.5,17.5 C32.7761424,17.5 33,17.7238576 33,18 L33,22.5 Z M33,14.5 C33,14.7761424 32.7761424,15 32.5,15 C32.2238576,15 32,14.7761424 32,14.5 L32,10 C32,9.72385763 32.2238576,9.5 32.5,9.5 C32.7761424,9.5 33,9.72385763 33,10 L33,14.5 Z M30.5,16 C30.7761424,16 31,16.2238576 31,16.5 C31,16.7761424 30.7761424,17 30.5,17 L26,17 C25.7238576,17 25.5,16.7761424 25.5,16.5 C25.5,16.2238576 25.7238576,16 26,16 L30.5,16 Z M38.5,16 C38.7761424,16 39,16.2238576 39,16.5 C39,16.7761424 38.7761424,17 38.5,17 L34,17 C33.7238576,17 33.5,16.7761424 33.5,16.5 C33.5,16.2238576 33.7238576,16 34,16 L38.5,16 Z M51.97,61.086 C41.6591048,61.086 34,50.4601561 34,36.543 C34,22.6258439 41.6591048,12 51.97,12 C62.2808952,12 69.94,22.6258439 69.94,36.543 C69.94,50.4601561 62.2808952,61.086 51.97,61.086 Z M58.1678649,30.6591215 C58.5583736,30.2685816 59.1915386,30.2685563 59.5820785,30.6590649 C59.9726184,31.0495736 59.9726437,31.6827386 59.5821351,32.0732785 L47.0781351,44.5782785 C46.6876264,44.9688184 46.0544614,44.9688437 45.6639215,44.5783351 C45.2733816,44.1878264 45.2733563,43.5546614 45.6638649,43.1641215 L58.1678649,30.6591215 Z M57.5946932,38.2332932 C57.9852175,37.8427689 58.6183825,37.8427689 59.0089068,38.2332932 C59.3994311,38.6238175 59.3994311,39.2569825 59.0089068,39.6475068 L57.0779068,41.5785068 C56.6873825,41.9690311 56.0542175,41.9690311 55.6636932,41.5785068 C55.2731689,41.1879825 55.2731689,40.5548175 55.6636932,40.1642932 L57.5946932,38.2332932 Z M23.5,94 C22.6715729,94 22,93.3284271 22,92.5 L22,87.336 C22,83.2845729 25.2845729,80 29.336,80 L35.664,80 C39.7154271,80 43,83.2845729 43,87.336 L43,92.5 C43,93.3284271 42.3284271,94 41.5,94 L23.5,94 Z" id="Home-Beauty" fill="#2F313A" fill-rule="nonzero"></path>
    </g>
</svg>