<?xml version="1.0" encoding="UTF-8"?>
<svg width="100px" height="100px" viewBox="0 0 100 100" version="1.1" xmlns="http://www.w3.org/2000/svg" xmlns:xlink="http://www.w3.org/1999/xlink">
    <!-- Generator: Sketch 59.1 (86144) - https://sketch.com -->
    <title>Vector Files/100x100/Flattened/Categories/Legumes &amp; Nuts</title>
    <desc>Created with Sketch.</desc>
    <g id="100x100/Flattened/Categories/Legumes-&amp;-Nuts" stroke="none" stroke-width="1" fill="none" fill-rule="evenodd">
        <path d="M40.2725368,72.1940171 C39.3668446,74.2561655 37.3064427,75.6961 34.9091,75.6961 C31.6765017,75.6961 29.0551,73.0750713 29.0551,69.8421 C29.0551,66.6091287 31.6765017,63.9881 34.9091,63.9881 C37.813808,63.9881 40.2238658,66.1020148 40.6846593,68.8753165 C40.879506,67.7471789 41.1292704,66.6087417 41.4284956,65.4644099 C41.0219685,63.7095812 40.6083361,61.8573141 40.1887494,59.9167029 C39.2440802,61.880981 37.2351957,63.2366 34.9091,63.2366 C32.6190329,63.2366 30.6357082,61.9211791 29.6738358,60.0046494 C28.9676579,63.2677935 28.279379,66.2756793 27.6142485,68.9867068 C25.9325885,75.8410405 24.4551753,80.5902726 23.1824604,82.9188717 C24.2104654,86.4295729 28.7275289,89.2775833 34.2997,89.2868019 L34.7032023,89.2868019 C34.8835756,89.2868019 34.8835756,89.2868019 35.1015507,89.2868019 C38.6543245,89.2805989 41.8885532,88.1126012 44.0069318,86.2283331 C41.3045999,82.9158162 40.1094909,78.6942259 40.1978022,73.8187052 C40.2075403,73.2810787 40.2326714,72.7393387 40.2725368,72.1940171 L40.2725368,72.1940171 Z M31.1627018,52.8833507 C31.7006224,52.434851 32.3234065,52.0790592 33.0094123,51.843436 C33.6159338,51.6359418 34.2566399,51.5286 34.9091,51.5286 C36.3703208,51.5286 37.7063645,52.0635513 38.7320538,52.9482874 C38.5137338,51.8710247 38.2961537,50.7831905 38.0796009,49.6870307 C37.1503465,50.2862343 36.0564866,50.6184 34.9094,50.6184 C33.7866212,50.6184 32.7135265,50.3005545 31.7950423,49.7222743 C31.5851368,50.7844901 31.3742694,51.8388636 31.1627018,52.8833507 L31.1627018,52.8833507 Z M33.4287316,41.2037579 C33.0330887,43.3266135 32.6311763,45.4401341 32.2249305,47.5291907 C32.9387584,48.2235632 33.8909018,48.6184 34.9094,48.6184 C35.954463,48.6184 36.9294555,48.2016348 37.6467615,47.4781617 C37.2457476,45.415224 36.8489737,43.328556 36.4583033,41.2327197 C35.97703,41.0211415 35.4523337,40.9098 34.9095,40.9098 C34.3924272,40.9098 33.8917349,41.0107907 33.4287316,41.2037579 L33.4287316,41.2037579 Z M33.8351219,39.0081439 C34.1864014,38.9430372 34.5457325,38.9098 34.9095,38.9098 C35.2958486,38.9098 35.6770734,38.9472966 36.0488023,39.0205342 C35.9406165,38.4320535 35.8329612,37.8432547 35.7258773,37.2544582 C35.4460002,35.7155643 35.1836069,34.2509162 34.9408382,32.877213 C34.6980417,34.2510326 34.4356176,35.7158103 34.1557071,37.2548442 C34.0493951,37.8393797 33.9425201,38.4239173 33.8351219,39.0081439 L33.8351219,39.0081439 Z M42.6079069,61.6161804 C42.7091484,61.3266692 42.813129,61.0370963 42.9197621,60.7475315 C43.4806361,59.224464 44.0793408,57.8023724 44.680847,56.5125486 C44.6135682,55.4966117 44.5480191,54.4926633 44.4841746,53.4998921 C44.2694088,52.7766701 44.2196182,52.0191141 44.3389943,51.2146252 C43.7940958,42.5281186 43.3826975,34.6773271 43.0871287,27.0902855 C42.9722986,22.7404527 39.5062211,19.2314626 35.2320375,19.0996188 C35.1582579,19.126712 35.0814478,19.1484508 35.0019686,19.1643153 C34.7136418,19.2218667 34.4280686,19.1945487 34.1711142,19.0996188 C29.8970932,19.2310886 26.4302305,22.7409118 26.3157673,27.1057096 C25.7548685,41.5066463 24.9740914,53.8577491 23.2495293,77.3231357 C23.9933632,75.0021963 24.806048,72.0391202 25.6718536,68.5101546 C26.5726852,64.8384253 27.5177785,60.6117032 28.4930904,55.9377284 C29.7570157,49.8806357 31.0072648,43.3889368 32.1879866,36.8969666 C32.6012773,34.6245681 32.9763367,32.5145528 33.3062065,30.6211281 C33.4216312,29.9586002 33.5231524,29.370531 33.6099007,28.8636947 C33.6618994,28.5598862 33.697388,28.3508517 33.7154971,28.2433644 C33.8072513,27.6987548 34.323126,27.3316429 34.8677356,27.4233971 C34.8924824,27.4275663 34.9168626,27.4326113 34.94085,27.4384949 C34.9648392,27.4326108 34.9892214,27.4275656 35.0139701,27.4233961 C35.5585802,27.3316451 36.0744529,27.69876 36.1662039,28.2433701 C36.1843116,28.3508526 36.2197973,28.5598778 36.271792,28.8636728 C36.3585335,29.3704868 36.4600468,29.95853 36.5754627,30.6210287 C36.9053074,32.5143699 37.2803388,34.6242921 37.6935995,36.8965905 C38.8742359,43.3882743 40.1244006,49.879687 41.3882488,55.9365124 C41.8002194,57.9108267 42.2071388,59.8068711 42.6079069,61.6161804 L42.6079069,61.6161804 Z M33.0365772,16.7248452 C32.9125119,15.25992 32.9908176,13.7045585 33.3969743,12.1976561 C34.4244597,8.38553094 37.3057099,6 42.1806,6 C43.0280809,6 43.7151,6.68701905 43.7151,7.5345 C43.7151,8.38198095 43.0280809,9.069 42.1806,9.069 C38.7429901,9.069 37.0383653,10.4803441 36.3602257,12.9963439 C36.0397111,14.1855011 35.9924299,15.4887856 36.1161902,16.6947656 C41.3190202,17.2576263 45.4063466,21.6493697 45.5477664,27.0098674 C45.7950829,33.356602 46.1242911,39.8982727 46.545722,46.9683686 C50.2392531,43.4061197 57.7716344,43.1535801 65.326686,46.3547691 C65.3567328,46.270562 65.3864477,46.1849367 65.4157369,46.0979912 C65.8456625,44.8217497 66.0894132,43.5499158 66.0571304,42.4018378 C66.004942,40.5458527 65.2565315,39.2352634 63.5571302,38.4698236 C62.9362387,38.1901632 62.6596161,37.4601217 62.9392764,36.8392302 C63.2189368,36.2183387 63.9489783,35.9417161 64.5698698,36.2213764 C67.1974014,37.4048623 68.4450296,39.5896635 68.5221561,42.3325238 C68.563758,43.8120169 68.2678444,45.3560244 67.7526997,46.8852403 C67.690963,47.0685067 67.6291208,47.2430956 67.5680573,47.4082171 C76.0335761,51.7925572 81.3120497,59.3241449 79.2272862,65.1171261 C78.496993,67.1457184 77.1618404,68.2570691 75.3168013,68.5827783 C75.2995984,68.6570434 75.2812967,68.7351503 75.2618849,68.8169972 C75.0692015,69.6294182 74.8314519,70.5323964 74.5460976,71.5037436 C73.7303385,74.2805907 72.6940074,77.0588732 71.4129454,79.6633405 C67.3049515,88.0151109 61.62199,92.8247119 54.1683904,91.9229648 C54.0189469,92.0910352 53.8510056,92.2655622 53.6650688,92.4407967 C52.2891338,93.7375348 50.6690046,94.3331187 48.9551962,93.5601611 C48.9075987,93.5386938 48.861666,93.5150507 48.8174627,93.4894022 C48.7672809,93.4728979 48.7174752,93.4535889 48.6682341,93.4314036 C47.3924819,92.8566208 46.6403607,91.7389899 46.291076,90.3342903 C46.1224894,89.6562948 46.0589014,88.9720985 46.0639064,88.3245389 C45.9427226,88.2212918 45.8235264,88.1168113 45.7063078,88.0111091 C43.118641,90.3451781 39.2719694,91.741524 35.1037,91.7488 L34.7032023,91.7488 C34.5217018,91.7488 34.5217018,91.7488 34.2976642,91.7487983 C26.4763619,91.7358634 20.0979467,86.8164826 20.5200565,80.8589571 C22.4357851,54.9699534 23.2673238,42.1145722 23.8551223,27.0255567 C23.9936846,21.7372722 27.9535188,17.3990936 33.0365772,16.7248452 L33.0365772,16.7248452 Z M47.5710562,57.4170605 C47.5458698,57.469902 47.5204395,57.5235172 47.4947747,57.5778972 C46.8954132,58.8478587 46.2951114,60.2630848 45.734945,61.7842308 C44.2066704,65.9342987 43.2663103,70.0636502 43.1973101,73.8730359 C43.0997554,79.2588742 44.7517938,83.5328373 48.5208038,86.456601 C48.9387849,86.7808448 49.1550698,87.3012823 49.090014,87.826268 C49.0886482,87.8372896 49.0844848,87.8792908 49.0796646,87.9473787 C49.0424588,88.4729262 49.069867,89.077278 49.2024229,89.6103712 C49.3499348,90.2036119 49.58607,90.5545021 49.9005659,90.6961964 C49.9483551,90.7177276 49.9944674,90.7414519 50.0388375,90.7671971 C50.0892025,90.7837617 50.1391881,90.8031516 50.1886038,90.8254389 C50.5461698,90.9867074 51.0178249,90.8133198 51.6075108,90.2575755 C51.9211466,89.9619921 52.1577843,89.6610126 52.2665457,89.4933783 C52.5952636,88.9867239 53.1957763,88.7266286 53.7902035,88.8334484 C60.0532484,89.9589308 64.969543,85.9660809 68.7209677,78.3392346 C69.9190406,75.9034886 70.8970565,73.2815425 71.6677317,70.6581611 C71.8928805,69.8917538 72.0863348,69.1717183 72.2492968,68.5112983 C71.9261239,68.4538886 71.593974,68.3825072 71.2531031,68.2975089 C69.754822,67.9239027 68.0508627,67.3000578 65.8410724,66.3520644 C64.9809362,65.9830686 64.0769456,65.5802157 62.8307332,65.0141946 C63.0762543,65.1257086 60.3922603,63.9029653 59.6438009,63.5658337 C58.9505402,63.2535298 56.1561677,62.0097766 55.4659281,61.6982374 C53.9105749,60.9962296 52.7339482,60.4416019 51.6738333,59.9019355 C50.0428726,59.0716721 48.67213,58.2528494 47.5710562,57.4170605 L47.5710562,57.4170605 Z M64.7509893,49.3769185 C56.6819441,45.7432679 49.0219803,46.6651123 47.5212862,50.8351261 C46.734963,53.0201009 48.2588978,54.7971642 53.0348253,57.2284171 C54.0455449,57.7429381 55.1838152,58.2794857 56.7000898,58.9638554 C57.3811358,59.271245 60.1741928,60.5144128 60.8759406,60.8305399 C70.3905707,65.1162527 69.6909316,64.8161097 71.9789469,65.3866411 C74.6464993,66.0518126 75.8356008,65.6814933 76.4045414,64.1011971 C77.9523217,59.8000959 72.8825503,53.0400684 64.7509893,49.3769185 Z M49.1618939,80.9762762 C49.4888044,81.4214143 49.392962,82.0472834 48.9478238,82.3741939 C48.5026857,82.7011044 47.8768166,82.605262 47.5499061,82.1601238 C45.0965016,78.819442 44.7136766,74.2040385 45.8562956,68.769449 C45.9699287,68.2289808 46.5001827,67.8829625 47.040651,67.9965956 C47.5811192,68.1102287 47.9271375,68.6404827 47.8135044,69.180951 C46.7764454,74.11347 47.1144368,78.1883533 49.1618939,80.9762762 Z M71.5376,58.2933 C71.3546,58.7993 70.8416,59.0433 70.3896,58.8403 C69.9376,58.6363 69.7196,58.0623 69.9006,57.5563 C70.0826,57.0503 70.5966,56.8063 71.0486,57.0093 C71.5006,57.2133 71.7196,57.7883 71.5376,58.2933 Z M74.1508,61.5985 C73.9688,62.1035 73.4558,62.3485 73.0038,62.1455 C72.5508,61.9415 72.3328,61.3675 72.5148,60.8615 C72.6968,60.3555 73.2108,60.1105 73.6628,60.3145 C74.1148,60.5175 74.3338,61.0925 74.1508,61.5985 Z M70.2192,61.9549 C70.0372,62.4599 69.5242,62.7049 69.0722,62.5019 C68.6192,62.2979 68.4012,61.7239 68.5832,61.2179 C68.7652,60.7119 69.2792,60.4679 69.7312,60.6709 C70.1832,60.8739 70.4022,61.4499 70.2192,61.9549 Z M38.7641,57.3826 C38.7641,55.253762 37.0386925,53.5286 34.9091,53.5286 C34.4776933,53.5286 34.055669,53.5993046 33.6579441,53.7353676 C32.1136255,54.2657969 31.0551,55.723461 31.0551,57.3826 C31.0551,59.5109381 32.7810075,61.2366 34.9091,61.2366 C37.0386925,61.2366 38.7641,59.511438 38.7641,57.3826 Z M38.7641,69.8421 C38.7641,67.713262 37.0386925,65.9881 34.9091,65.9881 C32.7810075,65.9881 31.0551,67.7137619 31.0551,69.8421 C31.0551,71.9704381 32.7810075,73.6961 34.9091,73.6961 C37.0386925,73.6961 38.7641,71.970938 38.7641,69.8421 Z M38.7641,82.3016 C38.7641,80.1725075 37.038438,78.4466 34.9091,78.4466 C32.781262,78.4466 31.0551,80.1730076 31.0551,82.3016 C31.0551,84.4299381 32.7810075,86.1556 34.9091,86.1556 C37.0386925,86.1556 38.7641,84.430438 38.7641,82.3016 Z M40.7641,82.3016 C40.7641,85.5350712 38.1431983,88.1556 34.9091,88.1556 C31.6765017,88.1556 29.0551,85.5345713 29.0551,82.3016 C29.0551,79.0685018 31.6766288,76.4466 34.9091,76.4466 C38.1430712,76.4466 40.7641,79.0680017 40.7641,82.3016 Z" id="Legumes-&amp;-Nuts" fill="#2F313A" fill-rule="nonzero"></path>
    </g>
</svg>