<?xml version="1.0" encoding="UTF-8"?>
<svg width="100px" height="100px" viewBox="0 0 100 100" version="1.1" xmlns="http://www.w3.org/2000/svg" xmlns:xlink="http://www.w3.org/1999/xlink">
    <!-- Generator: Sketch 59.1 (86144) - https://sketch.com -->
    <title>Vector Files/100x100/Flattened/Categories/Meats</title>
    <desc>Created with Sketch.</desc>
    <g id="100x100/Flattened/Categories/Meats" stroke="none" stroke-width="1" fill="none" fill-rule="evenodd">
        <path d="M62.6847743,80.5697949 C62.5858923,80.1305207 62.6056736,80.1865555 62.036238,78.6610806 C60.8774336,75.5567307 60.7004043,73.211111 61.9763897,69.7553363 L62.0256484,69.6376025 C62.6943867,68.2127268 63.7422356,66.6295107 65.5107704,64.2584186 C65.2468786,64.612221 69.2028494,59.3963261 70.3549278,57.7955475 C78.1469798,46.9687233 80.9400589,38.3664246 77.486206,29.2152704 C76.2012558,26.089851 75.8328023,25.2480852 75.0262745,23.75653 C72.8613123,19.7527489 70.029328,16.862279 65.6864133,14.8077378 C56.3078906,10.4412378 38.3677183,14.0082255 28.7414063,23.2764667 C16.6119054,34.9547855 18.1557399,53.0467069 37.8666155,76.202499 C44.4015625,83.4510652 49.8024127,86.7836778 54.1718799,87.0096519 C57.3435422,87.1736796 59.8876107,85.7079398 62.1810544,82.9295467 C62.7658619,82.0576862 62.8747059,81.4135482 62.6847743,80.5697949 Z M64.8468079,77.6119395 C64.8912563,77.7310135 65.0467054,78.1424587 65.051034,78.1539667 C65.1345692,78.3760553 65.1967468,78.5450419 65.2555041,78.7114846 C65.4119165,79.1545557 65.5265538,79.5334329 65.6115388,79.9109706 C65.9854561,81.5720627 65.7154354,83.0791755 64.6209786,84.6766792 L64.5436709,84.7797318 C61.6909074,88.260471 58.3052551,90.2274254 54.0169371,90.0056481 C48.7110371,89.7312448 42.6555835,85.9947071 35.6103368,78.17921 C14.9380285,53.894935 13.2432127,34.0336912 26.6606607,21.1153333 C37.1547974,11.011548 56.415323,7.18203854 66.9609846,12.0919721 C71.9283584,14.441896 75.2126824,17.7940472 77.6651855,22.3295932 C78.5416567,23.9504984 78.9317886,24.8417907 80.2768719,28.1151442 C84.1939123,38.4914965 81.1112445,47.9856885 72.7898786,59.5479785 C71.6118059,61.1848755 67.6315424,66.4327999 67.9155251,66.0520615 C66.2886126,68.2332792 65.3300381,69.677203 64.7683512,70.855266 C63.7971621,73.5150894 63.9256601,75.144254 64.8468079,77.6119395 Z M56.7899294,79.764274 C55.4861509,76.0057493 55.3310303,72.4260667 56.9961517,67.9168712 L57.1149971,67.6050157 L57.2203292,67.3814364 C58.2620114,65.1612853 59.4845367,63.3987312 62.9127592,58.8917381 C67.6430403,52.6738257 69.7079231,49.6202439 71.4617992,45.7090325 C73.7921185,40.5123307 74.2560869,35.7527325 72.5402532,31.14724 L72.3953734,30.7935332 C70.3049637,25.6946578 69.1448268,23.6722948 66.6413428,21.6182947 C66.2143744,21.2679856 66.1522298,20.6378777 66.5025388,20.2109093 C66.8528479,19.7839409 67.4829558,19.7217963 67.9099242,20.0721053 C70.7506395,22.4027892 72.0344113,24.6406737 74.2460138,30.03516 L74.4026751,30.4189821 C76.3321883,35.5963637 75.8165836,40.8856691 73.2867178,46.5273675 C71.4487993,50.6259965 69.3282696,53.76187 64.5045482,60.1026087 C61.17194,64.4839003 59.9884924,66.1901149 59.0302699,68.2323843 L58.9581153,68.3765288 L58.8727173,68.6086083 C57.3823223,72.6446414 57.5172515,75.7583711 58.6794737,79.1088181 C58.7895407,79.4261186 58.8793496,79.6692353 59.0708385,80.1760932 C59.1317229,80.3371099 59.1317229,80.3371099 59.1962864,80.5082783 C59.3319937,80.8680607 59.2493859,81.2737877 58.983807,81.5518664 C57.4773273,83.1292507 56.1272253,83.7132 54.6386335,83.7132 C51.3894824,83.7132 46.6711385,81.0110508 40.3608314,74.0260098 C38.4880117,71.8236381 36.7714289,69.6519084 35.2145613,67.5162835 C34.8892195,67.0699975 34.9872641,66.4444696 35.43355,66.1191278 C35.879836,65.793786 36.5053639,65.8918306 36.8307057,66.3381165 C38.3575645,68.4325771 40.0432717,70.5652446 41.8646386,72.7078058 C47.8108575,79.2891943 52.0435226,81.7132 54.6386335,81.7132 C55.4512649,81.7132 56.1809494,81.4449835 57.0954492,80.6056695 C56.9645716,80.256966 56.8848509,80.0379132 56.7899294,79.764274 Z M30.2139181,55.5156915 C30.4544428,56.0128497 30.2464003,56.6108599 29.749242,56.8513846 C29.2520838,57.0919093 28.6540736,56.8838668 28.4135489,56.3867085 C23.9345851,47.128809 23.1790939,38.9469886 26.2778981,32.2398734 C30.7413435,22.5765859 43.4948221,16.3082 55.8557335,16.3082 C57.973619,16.3082 59.9559521,16.5179412 61.6596205,16.9222194 C62.1969828,17.0497348 62.5292294,17.5887246 62.4017141,18.126087 C62.2741987,18.6634493 61.7352089,18.9956959 61.1978465,18.8681806 C59.6533419,18.5016717 57.8247772,18.3082 55.8557335,18.3082 C44.2059398,18.3082 32.1874524,24.2153348 28.0935274,33.0786166 C25.2753185,39.1784055 25.974788,46.7535218 30.2139181,55.5156915 Z M34.5050576,62.989135 C34.8090159,63.4502508 34.6816144,64.0704659 34.2204985,64.3744241 C33.7593827,64.6783824 33.1391676,64.5509809 32.8352093,64.089865 C32.1530552,63.055012 31.5103944,62.0284272 30.9077722,61.0111846 C30.6262811,60.5360201 30.7832845,59.9226297 31.2584489,59.6411387 C31.7336134,59.3596476 32.3470038,59.516651 32.6284948,59.9918154 C33.2146311,60.9812292 33.8403228,61.9807075 34.5050576,62.989135 Z M39.8239335,41.9414 C37.6146487,41.9414 35.8239335,40.1506847 35.8239335,37.9414 C35.8239335,35.7321153 37.6146487,33.9414 39.8239335,33.9414 L59.8239335,33.9414 C62.0332182,33.9414 63.8239335,35.7321153 63.8239335,37.9414 C63.8239335,40.1506847 62.0332182,41.9414 59.8239335,41.9414 L53.8239335,41.9414 L53.8239335,51.9414 C53.8239335,54.1506847 52.0332182,55.9414 49.8239335,55.9414 C47.6146487,55.9414 45.8239335,54.1506847 45.8239335,51.9414 L45.8239335,41.9414 L39.8239335,41.9414 Z M59.8239335,35.9414 L39.8239335,35.9414 C38.7192182,35.9414 37.8239335,36.8366847 37.8239335,37.9414 C37.8239335,39.0461153 38.7192182,39.9414 39.8239335,39.9414 L46.8239335,39.9414 C47.3762182,39.9414 47.8239335,40.3891153 47.8239335,40.9414 L47.8239335,51.9414 C47.8239335,53.0461153 48.7192182,53.9414 49.8239335,53.9414 C50.9286487,53.9414 51.8239335,53.0461153 51.8239335,51.9414 L51.8239335,40.9414 C51.8239335,40.3891153 52.2716487,39.9414 52.8239335,39.9414 L59.8239335,39.9414 C60.9286487,39.9414 61.8239335,39.0461153 61.8239335,37.9414 C61.8239335,36.8366847 60.9286487,35.9414 59.8239335,35.9414 Z" id="Meats" fill="#2F313A" fill-rule="nonzero"></path>
    </g>
</svg>