<?xml version="1.0" encoding="UTF-8"?>
<svg width="100px" height="100px" viewBox="0 0 100 100" version="1.1" xmlns="http://www.w3.org/2000/svg" xmlns:xlink="http://www.w3.org/1999/xlink">
    <!-- Generator: Sketch 59.1 (86144) - https://sketch.com -->
    <title>Vector Files/100x100/Flattened/Categories/Non-edibles</title>
    <desc>Created with Sketch.</desc>
    <g id="100x100/Flattened/Categories/Non-edibles" stroke="none" stroke-width="1" fill="none" fill-rule="evenodd">
        <path d="M35.4128781,71.5 L19.5,71.5 C18.9477153,71.5 18.5,71.0522847 18.5,70.5 C18.5,69.9477153 18.9477153,69.5 19.5,69.5 L35.4961819,69.5 L36.4021635,47.748747 C36.3275205,47.6994716 36.2494888,47.6474147 36.1683405,47.5926574 C35.4266328,47.0921674 34.6845972,46.5380106 33.9863844,45.9411474 C32.2146176,44.4265627 31.0026046,42.8981901 30.6120659,41.2855431 C30.5836854,41.1683521 30.5598977,41.0510057 30.5408459,40.933532 C30.3040675,39.4735567 30.5693544,34.2846597 31.1958767,26.0602182 C31.2759262,25.0093982 31.360925,23.9245339 31.4502402,22.8114774 C31.6675788,20.1029754 31.9004,17.3502602 32.1332199,14.6967135 C32.2147082,13.7679578 32.2903811,12.9178771 32.3583021,12.1644148 C32.399079,11.7120668 32.4282284,11.3922536 32.4438132,11.2229239 C32.5197391,10.3979835 33.2500356,9.79078723 34.0749761,9.86671318 C34.8999165,9.94263913 35.5071128,10.6729356 35.4311868,11.4978761 C35.4157695,11.6653859 35.38679,11.9833355 35.3461866,12.4337581 C35.2784736,13.1849134 35.2030115,14.032626 35.1217389,14.9589236 C34.889528,17.6055291 34.6573183,20.3510149 34.4406281,23.0514355 C34.3516259,24.1605926 34.2669411,25.241448 34.1872098,26.2880923 C33.5980425,34.0221695 33.325071,39.3613736 33.5021541,40.453268 C33.5087736,40.4940835 33.5172989,40.5361396 33.5277842,40.5794363 C33.7319797,41.4226185 34.6042706,42.5225948 35.9357352,43.6607896 C36.5397149,44.1770983 37.1928856,44.6648901 37.8463844,45.1058585 C38.2363999,45.3690334 38.535003,45.5551629 38.6946737,45.6485301 C39.2059475,45.9474969 39.4747416,46.5023112 39.433633,47.055662 L37.6697005,89.4050238 C37.6352248,90.2327332 36.9362857,90.8757762 36.1085762,90.8413005 C35.2808668,90.8068248 34.6378238,90.1078857 34.6722995,89.2801762 L35.4128781,71.5 Z M55.5,69.5 L55.5,10.5 C55.5,9.67157288 56.1715729,9 57,9 C57.5484992,9 58.370375,9.14957986 59.3684159,9.57341021 C60.9376707,10.2398135 62.47858,11.4176725 63.8826424,13.2064295 C69.373646,20.201896 71.5141755,34.5069455 68.6563835,58.399148 C68.6179799,58.7202165 68.476852,59.0202794 68.2540346,59.254613 L66.5418583,61.055282 L67.1242526,69.5 L80.5,69.5 C81.0522847,69.5 81.5,69.9477153 81.5,70.5 C81.5,71.0522847 81.0522847,71.5 80.5,71.5 L67.2621836,71.5 L68.4964455,89.3967969 C68.553443,90.2232609 67.9296672,90.939448 67.1032031,90.9964455 C66.2767391,91.053443 65.560552,90.4296672 65.5035545,89.6032031 L63.6256453,62.3735196 L62.1620627,63.6664484 C61.7481538,64.0320956 61.1161987,63.9929717 60.7505516,63.5790627 C60.3849044,63.1651538 60.4240283,62.5331987 60.8379373,62.1675516 L64.0039739,59.3706748 L65.7361328,57.5489904 C68.4210482,34.6708672 66.3853207,21.2535517 61.5227971,15.0587605 C60.5319115,13.7963853 59.5068981,12.9665885 58.5,12.4737442 L58.5,82.5 C58.5,83.3284271 57.8284271,84 57,84 C56.1715729,84 55.5,83.3284271 55.5,82.5 L55.5,71.5 L47.3186065,71.5 L47.7129384,82.5072976 C47.7425974,83.3351936 47.0954985,84.0303793 46.2676024,84.0600384 C45.4397064,84.0896974 44.7445207,83.4425985 44.7148616,82.6147024 L43.4388616,46.9967024 C43.4165464,46.3737991 43.7773407,45.8260226 44.3100018,45.5803132 C44.480688,45.4764002 44.7335366,45.315575 45.0444764,45.1057973 C45.6980908,44.6648317 46.3513769,44.1770426 46.9554633,43.6607364 C48.2871759,42.522536 49.1596211,41.42255 49.3638193,40.5794138 C49.3743035,40.5361244 49.3828277,40.4940758 49.3894459,40.453268 C49.5665245,39.3614015 49.2933817,34.0221856 48.703941,26.2881454 C48.6241896,25.2417281 48.5394852,24.1611137 48.4504638,23.0522078 C48.2336671,20.3516563 48.0013433,17.6060082 47.7690183,14.9592256 C47.6877058,14.032866 47.6122066,13.185094 47.5444603,12.4338841 C47.503837,11.9834287 47.4748432,11.6654552 47.4594184,11.4979325 C47.3834613,10.6729949 47.9906299,9.94267548 48.8155675,9.86671837 C49.6405051,9.79076126 50.3708245,10.3979299 50.4467816,11.2228675 C50.4623741,11.3922104 50.4915378,11.7120479 50.5323348,12.1644289 C50.6002892,12.9179463 50.6759993,13.7680869 50.7575276,14.696905 C50.9904621,17.3506302 51.2233977,20.1035094 51.4408432,22.8121442 C51.5301777,23.9249493 51.6151963,25.0095724 51.695266,26.0601651 C52.3220849,34.2846436 52.587537,39.4735288 52.3507541,40.933532 C52.331701,41.0510135 52.3079108,41.1683673 52.2795267,41.2855656 C51.8889451,42.8982808 50.6767167,44.426668 48.9046099,45.9412687 C48.2062865,46.5381182 47.4641336,47.0922615 46.722309,47.5927387 C46.6337825,47.6524637 46.5489648,47.7089759 46.4682087,47.7621702 L47.2469574,69.5 L55.5,69.5 Z M39.2172441,32.978138 C39.1988321,33.5301157 38.7364398,33.9626562 38.184462,33.9442441 C37.6324843,33.9258321 37.1999438,33.4634398 37.2183559,32.911462 L37.9383559,11.326462 C37.9567679,10.7744843 38.4191602,10.3419438 38.971138,10.3603559 C39.5231157,10.3787679 39.9556562,10.8411602 39.9372441,11.393138 L39.2172441,32.978138 Z M45.6723441,32.911462 C45.6907562,33.4634398 45.2582157,33.9258321 44.706238,33.9442441 C44.1542602,33.9626562 43.6918679,33.5301157 43.6734559,32.978138 L42.9534559,11.393138 C42.9350438,10.8411602 43.3675843,10.3787679 43.919562,10.3603559 C44.4715398,10.3419438 44.9339321,10.7744843 44.9523441,11.326462 L45.6723441,32.911462 Z" id="Non-edibles" fill="#2F313A" fill-rule="nonzero"></path>
    </g>
</svg>