<?xml version="1.0" encoding="UTF-8"?>
<svg width="100px" height="100px" viewBox="0 0 100 100" version="1.1" xmlns="http://www.w3.org/2000/svg" xmlns:xlink="http://www.w3.org/1999/xlink">
    <!-- Generator: Sketch 59.1 (86144) - https://sketch.com -->
    <title>Vector Files/100x100/Flattened/Categories/Other Seafood</title>
    <desc>Created with Sketch.</desc>
    <g id="100x100/Flattened/Categories/Other-Seafood" stroke="none" stroke-width="1" fill="none" fill-rule="evenodd">
        <path d="M78.304616,62.8557839 C78.6640454,62.9274754 79.0262249,62.9585575 79.3850475,62.9450402 C79.7616849,62.9310064 80.1618866,62.8780305 80.8088113,62.7649684 C80.939594,62.74199 80.939594,62.74199 81.0728976,62.7183115 C83.5231672,62.2829801 84.6476463,62.2739498 86.0505863,63.1119311 C87.3546985,63.8901916 88.1749099,65.3197574 88.3820046,66.8957354 C88.7819246,69.9259448 86.9418285,72.9859434 84.1007251,74.6075837 C81.9022607,75.8629909 79.3898729,76.3207063 76.0288188,76.3499444 C75.0349864,76.3585041 74.088228,76.306094 73.206296,76.1809014 C73.3159336,76.3879384 73.4217974,76.5981016 73.5277512,76.8180115 C74.5652422,78.9656177 74.8160127,81.0773694 73.8109318,82.8368904 C72.7039727,84.7768959 70.4791761,85.5970131 67.836495,85.5985069 C63.1206503,85.6028852 58.4515881,83.5864842 55.2229914,80.1506872 C53.1254898,77.9185751 51.4233717,75.578472 50.3093443,73.2501914 C49.1479919,75.5161924 47.3946702,77.8299718 45.2139086,80.1506872 C41.9851724,83.5866327 37.3170457,85.602885 32.6019564,85.5985069 C29.9590436,85.5970133 27.7342555,84.7770219 26.6259191,82.8368043 C25.6220369,81.0771765 25.8726685,78.9665944 26.9084691,76.8194203 C27.0146701,76.5989976 27.1207616,76.3883861 27.2306252,76.1809336 C26.348874,76.3060996 25.4023968,76.3585035 24.408957,76.3499433 C21.047116,76.3207099 18.5347252,75.86304 16.3361749,74.6075837 C13.4954301,72.9854097 11.6550341,69.9254997 12.0549652,66.895207 C12.2636732,65.3181388 13.0827705,63.8898521 14.3861432,63.1120329 C15.7900195,62.2739837 16.9145284,62.2830143 19.364246,62.7183189 C19.4984912,62.7421685 19.4984912,62.7421685 19.630178,62.7653059 C20.2756282,62.8781018 20.6756036,62.9310209 21.0524668,62.9450632 C21.4112315,62.9585783 21.7733751,62.9274811 22.1327853,62.8557606 C21.6177319,62.6392256 21.1246277,62.3713803 20.6638431,62.0546128 C19.6189966,61.335828 18.8324694,60.431219 18.4444978,59.3388075 C17.9541781,57.9582146 18.208117,56.3649903 19.2230774,55.3335026 C19.9809578,54.5607392 20.8894868,54.248968 22.1742733,54.0943403 C22.3502302,54.0731634 22.4740448,54.0605957 22.7876725,54.0305676 C24.2119428,53.8948133 25.0808001,53.699486 25.7970755,53.3055016 C26.5619227,52.8848006 27.2398533,52.0428396 27.3168797,51.501694 C27.0617601,49.9513379 26.5955549,48.2633751 25.7197902,45.4276169 C25.6806083,45.3007443 25.6591009,45.1726308 25.6538684,45.0459273 C24.6405882,42.0842938 24.1155,38.9435503 24.1155,35.7299 C24.1155,21.5872584 34.3170609,13.9999 49.9375,13.9999 C50.0335246,13.9999 50.1274418,14.008923 50.21845,14.0261673 C50.3094582,14.008923 50.4033754,13.9999 50.4994,13.9999 C66.1198391,13.9999 76.3214,21.5872584 76.3214,35.7299 C76.3214,38.9442981 75.796944,42.0840877 74.7841485,45.0430383 C74.7791191,45.1708504 74.7575341,45.3001162 74.7179566,45.4281126 C73.8425947,48.2590931 73.3756492,49.9494515 73.1204476,51.5026944 C73.1993628,52.0446131 73.8770016,52.885309 74.6409245,53.3055016 C75.3573816,53.6995859 76.2257154,53.894876 77.6498127,54.030614 C77.9576252,54.0600541 78.0800605,54.0724513 78.2532759,54.0931606 C79.5441244,54.2474922 80.4538521,54.5585062 81.2121928,55.3317417 C82.228883,56.3649903 82.4828219,57.9582146 81.9930419,59.3372851 C81.606141,60.4304128 80.8196301,61.3353968 79.7733147,62.0551917 C79.3125404,62.3717115 78.8195262,62.6393723 78.304616,62.8557839 L78.304616,62.8557839 Z M74.6702438,60.5096426 C75.8719627,60.5850985 77.097823,60.2534444 78.0738431,59.5829872 C78.6383095,59.1946719 79.0142582,58.7620936 79.1654978,58.3347925 C79.2922554,57.9778811 79.2313898,57.5960075 79.0720774,57.4340974 C78.9103929,57.2692379 78.5678724,57.1521384 77.8971374,57.0719465 C77.7557674,57.0550445 77.6476775,57.0440999 77.3646725,57.0170324 C75.5650925,56.8455053 74.3588228,56.5742128 73.1950755,55.9340984 C73.1069226,55.8856102 73.0195406,55.8346597 72.9330909,55.7813816 C73.0886772,57.3180444 73.5164924,58.7064571 74.2249073,59.8659634 C74.3618642,60.0901291 74.5108314,60.3050297 74.6702438,60.5096426 L74.6702438,60.5096426 Z M71.7209916,44.9664861 C71.720916,44.7973909 71.7496494,44.6254056 71.8103074,44.4571588 C72.8049146,41.6984223 73.3214,38.7535494 73.3214,35.7299 C73.3214,23.4691793 64.6231492,16.9999 50.4994,16.9999 C50.4033754,16.9999 50.3094582,16.990877 50.21845,16.9736327 C50.1274418,16.990877 50.0335246,16.9999 49.9375,16.9999 C35.8137508,16.9999 27.1155,23.4691793 27.1155,35.7299 C27.1155,38.7514808 27.6322443,41.6964704 28.6267496,44.4575943 C28.6869701,44.6247895 28.7156698,44.7956662 28.7159071,44.9637222 C29.8729604,48.7358173 30.316644,50.5648996 30.509025,52.9179339 C30.7680556,56.0904525 30.2295047,59.0461999 28.7720073,61.4300366 C27.0649038,64.2241579 24.0346946,66.0595353 20.9401475,65.9429598 C20.3943074,65.9226214 19.8834679,65.8550343 19.1137383,65.7205199 C18.9752276,65.6961833 18.9752276,65.6961833 18.8393807,65.6720481 C17.1083127,65.3644446 16.4743413,65.3593533 15.9236863,65.6880689 C15.4724126,65.9573773 15.1250818,66.5630294 15.0291046,67.2882646 C14.8027454,69.0033974 15.9697193,70.943651 17.8238251,72.0024163 C19.483569,72.9501936 21.5404549,73.3248864 24.4349247,73.3500557 C27.0188873,73.3723211 29.1466805,72.8570591 29.9715009,71.8669241 C30.0613088,71.7591164 30.1630391,71.6670971 30.2731695,71.591187 C30.6352269,71.0750058 30.8744794,70.7184307 31.1343574,70.3086821 C32.5706129,68.0458124 33.2192689,66.0016785 32.9315467,64.198908 C32.8009822,63.3808344 33.3583184,62.6118113 34.176392,62.4812467 C34.9944656,62.3506822 35.7634887,62.9080184 35.8940533,63.726092 C36.3183685,66.384709 35.4586995,69.0938162 33.6675106,71.9158955 C33.2405897,72.5890201 32.8773367,73.1128595 32.0720137,74.2404074 L32.0367701,74.2897527 C30.7041615,76.1556057 30.142073,77.0195971 29.6108162,78.1222325 C28.9597687,79.4718288 28.8219891,80.6320783 29.2312685,81.3494733 C29.6830739,82.1403889 30.9234507,82.5975552 32.604195,82.5985065 C36.4909186,82.6021154 40.366677,80.9281019 43.0276914,78.0963128 C46.4429238,74.4619024 48.6451096,70.8757823 48.8686051,67.9141789 C48.8569305,67.6130929 48.8586029,67.3139015 48.8740916,67.0168964 C48.8399038,66.2037032 49.462444,65.5088033 50.2786246,65.4574593 C51.1030141,65.4055988 51.8136866,66.0298862 51.8693705,66.8531198 C51.8739783,66.8981904 51.8765721,66.9438033 51.8770652,66.9898601 C51.8924458,67.3059557 51.8915082,67.6239369 51.8747832,67.943672 C52.0617785,70.9948625 54.1899816,74.6704869 57.4092086,78.0963128 C60.0700491,80.9279169 63.9467274,82.6021156 67.8342564,82.5985065 C69.5143163,82.5975553 70.7542929,82.1404681 71.2056206,81.3494924 C71.6157224,80.6315573 71.4779858,79.4716701 70.8257691,78.1215797 C70.294827,77.0195971 69.7327385,76.1556057 68.4001299,74.2897527 L68.3648863,74.2404074 C67.5595633,73.1128595 67.1963103,72.5890201 66.7696574,71.9163179 C64.9791129,69.0952536 64.1194857,66.3853945 64.5427546,63.7266698 C64.673,62.9085454 65.4418057,62.3509092 66.2599302,62.4811546 C67.0780546,62.6114 67.6356908,63.3802057 67.5054454,64.1983302 C67.2183048,66.0019771 67.8670216,68.0469697 69.3028106,70.3091045 C69.5622831,70.7182139 69.801286,71.0744313 70.1627952,71.5898549 C70.2738083,71.6661148 70.3763206,71.7587148 70.4667335,71.8673256 C71.2906851,72.8571186 73.4182189,73.3723179 76.0028519,73.3500568 C78.8965296,73.3248844 80.9533934,72.950158 82.6133303,72.0022705 C84.4676278,70.9438777 85.6342193,69.0038875 85.4076856,67.2874308 C85.31255,66.5634559 84.9649829,65.9576731 84.512711,65.6877687 C83.9629377,65.3593871 83.3288787,65.364479 81.5976796,65.6720555 C81.4627964,65.6960156 81.4627964,65.6960156 81.3252887,65.7201759 C80.554035,65.8549668 80.0430817,65.9226031 79.4973668,65.9429368 C76.4022054,66.0595353 73.3719962,64.2241579 71.6648927,61.4300366 C70.207663,59.0448993 69.668856,56.0877455 69.9288443,52.9183094 C70.1203929,50.5649985 70.5656602,48.7289068 71.7209916,44.9664861 L71.7209916,44.9664861 Z M27.5042918,55.7817634 C27.4180447,55.834902 27.3308689,55.8857249 27.2429245,55.9340984 C26.0792423,56.574177 24.8726169,56.8454377 23.0729632,57.0169716 C22.7850316,57.0445396 22.6759177,57.0556151 22.532745,57.0728463 C21.8670005,57.1529706 21.5258055,57.2700552 21.3631928,57.4358583 C21.2056102,57.5960075 21.1447446,57.9778811 21.2715022,58.3347925 C21.4230697,58.7615612 21.7995774,59.1945941 22.3637533,59.5827097 C23.3393759,60.2534038 24.5649616,60.585068 25.7666017,60.5096523 C25.926123,60.3049129 26.075194,60.0898703 26.2122464,59.8655482 C26.9208067,58.7066494 27.348577,57.3187977 27.5042918,55.7817634 Z M41.0683673,21.8646524 C41.3985279,21.7668542 41.7363168,21.6755653 42.0828556,21.590216 C42.6191152,21.4581402 43.1609082,21.7857959 43.292984,22.3220556 C43.4250598,22.8583152 43.0974041,23.4001082 42.5611444,23.532184 C42.2343732,23.6126648 41.9172059,23.6986238 41.6084766,23.7905857 C41.5984878,23.7935611 41.5884893,23.796373 41.5784837,23.799023 C35.8725205,25.5042208 32.809,29.2611025 32.809,35.8427 C32.809,36.8904066 32.8679079,37.8796776 32.9898217,38.8270687 C33.0603105,39.3748367 32.6733993,39.8760329 32.1256313,39.9465217 C31.5778633,40.0170105 31.0766671,39.6300993 31.0061783,39.0823313 C30.8729611,38.0471013 30.809,36.9729691 30.809,35.8427 C30.809,28.3262433 34.4973442,23.8166747 41.0381667,21.8731229 C41.0482247,21.8701343 41.0582926,21.8673113 41.0683673,21.8646524 L41.0683673,21.8646524 Z M50.323,20.7272 C50.8752847,20.7272 51.323,21.1749153 51.323,21.7272 C51.323,22.2794847 50.8752847,22.7272 50.323,22.7272 C48.7779315,22.7272 47.3245001,22.7981584 45.958174,22.9482227 C45.4091905,23.0085178 44.9152725,22.6123576 44.8549773,22.063374 C44.7946822,21.5143905 45.1908424,21.0204725 45.739826,20.9601773 C47.1829695,20.8016762 48.7084555,20.7272 50.323,20.7272 Z M45.323,45.4542 C45.323,46.8352 44.204,47.9542 42.823,47.9542 C41.442,47.9542 40.323,46.8352 40.323,45.4542 C40.323,44.0732 41.442,42.9542 42.823,42.9542 C44.204,42.9542 45.323,44.0732 45.323,45.4542 Z M60.323,45.4542 C60.323,46.8352 59.204,47.9542 57.823,47.9542 C56.442,47.9542 55.323,46.8352 55.323,45.4542 C55.323,44.0732 56.442,42.9542 57.823,42.9542 C59.204,42.9542 60.323,44.0732 60.323,45.4542 Z" id="Other-Seafood" fill="#2F313A" fill-rule="nonzero"></path>
    </g>
</svg>