<?xml version="1.0" encoding="UTF-8"?>
<svg width="100px" height="100px" viewBox="0 0 100 100" version="1.1" xmlns="http://www.w3.org/2000/svg" xmlns:xlink="http://www.w3.org/1999/xlink">
    <!-- Generator: Sketch 59.1 (86144) - https://sketch.com -->
    <title>Vector Files/100x100/Flattened/Categories/Pets</title>
    <desc>Created with Sketch.</desc>
    <g id="100x100/Flattened/Categories/Pets" stroke="none" stroke-width="1" fill="none" fill-rule="evenodd">
        <path d="M25.060644,41.7978546 C28.9198685,37.3970421 38.7957518,34.5001 50.0001976,34.5001 C61.211805,34.5001 71.0807327,37.4001877 74.9398568,41.7977149 C78.5049468,40.803056 80.6144578,39.6401876 80.6144578,38.5 C80.6144578,35.5746502 66.728215,32.5 50,32.5 C33.271785,32.5 19.3855422,35.5746502 19.3855422,38.5 C19.3855422,39.640241 21.4952508,40.8031649 25.060644,41.7978546 L25.060644,41.7978546 Z M27.3159266,42.3610073 C32.9461751,43.6234073 41.0679598,44.5 50,44.5 C58.9328492,44.5 67.0552961,43.6232485 72.6856032,42.3606642 C68.8191073,38.9076393 59.9969252,36.5001 50.0001976,36.5001 C40.01613,36.5001 31.1926404,38.8995314 27.3159266,42.3610073 L27.3159266,42.3610073 Z M74.9248641,43.836357 C74.8588334,43.8627019 74.7908643,43.8815949 74.7221371,43.8932023 C68.7704578,45.5449176 59.9489396,46.5 50,46.5 C31.8079729,46.5 17.3855422,43.3066286 17.3855422,38.5 C17.3855422,33.6933714 31.8079729,30.5 50,30.5 C68.1920271,30.5 82.6144578,33.6933714 82.6144578,38.5 C82.6144578,40.6479457 79.734382,42.4737333 74.9248643,43.8363571 L74.9248641,43.836357 Z M16.4421577,64.6114882 C16.770997,64.7981773 17.1131282,64.9836038 17.4688598,65.1674693 C24.4938876,68.7984644 35.0970665,71 50,71 C64.9029335,71 75.5061124,68.7984644 82.5311402,65.1674693 C84.9288187,63.9281917 86.7086345,62.6179947 87.9651196,61.3282739 C88.4018697,60.8799712 88.7094696,60.5081639 88.9087936,60.2332986 L84.1027047,38.8286198 C84.0784858,38.7207573 84.0662651,38.610548 84.0662651,38.5 C84.0662651,34.9553499 80.1242,32.712203 72.8747277,31.1075111 C66.7510661,29.7512561 58.6179935,29 50,29 C41.3820065,29 33.2489339,29.7512561 27.1250405,31.1075624 C19.8757577,32.7119138 15.9337349,34.9551507 15.9337349,38.5 C15.9337349,38.610548 15.9215142,38.7207573 15.8972953,38.8286198 L11.0912064,60.2332986 C11.2905304,60.5081639 11.5981303,60.8799712 12.0348804,61.3282739 C12.7341584,62.0460488 13.5955283,62.7701657 14.6352852,63.4848704 L15.7619935,58.1253706 C15.8756147,57.5848998 16.4058611,57.2388699 16.9463318,57.3524911 C17.4868026,57.4661123 17.8328325,57.9963586 17.7192113,58.5368294 L16.4421577,64.6114882 L16.4421577,64.6114882 Z M91.9695845,60.1713802 C92.0447624,60.506197 92.0028681,60.8566681 91.8508899,61.1643313 C91.5971595,61.6779806 91.0473876,62.4635944 90.1139466,63.4217261 C88.6304091,64.9445053 86.5896301,66.4468083 83.9086188,67.8325307 C76.4231044,71.7015356 65.3530906,74 50,74 C34.6469094,74 23.5768956,71.7015356 16.0913812,67.8325307 C13.4103699,66.4468083 11.3695909,64.9445053 9.88605336,63.4217261 C8.95261243,62.4635944 8.4028405,61.6779806 8.14911013,61.1643313 C7.99713191,60.8566681 7.95523758,60.506197 8.03041551,60.1713802 L12.9356173,38.3252865 C13.0016776,35.2700579 14.8036361,32.9047317 17.8844786,31.1515557 C20.145708,29.8647866 22.9112705,28.9675291 26.476559,28.1784889 C32.8320188,26.7708958 41.1777095,26 50,26 C58.8222905,26 67.1679812,26.7708958 73.5232667,28.1784503 C77.0886563,28.9676597 79.8539145,29.8648481 82.1151224,31.1515395 C85.1961867,32.9047525 86.9983156,35.2700596 87.0643825,38.3252856 L91.9695845,60.1713802 Z M53.9852,49.5 C55.8157835,49.5 57.5542509,50.3028844 58.7504664,51.6990515 C59.8506161,52.9820218 60.3922693,54.6239992 60.2742442,56.3166092 C60.1561915,58.0084315 59.3914445,59.5575113 58.1213071,60.6745661 L57.9114231,60.8582178 L51.2924859,66.673919 C50.9318217,66.9911045 50.4718877,67.162 49.9998024,67.162 C49.5277445,67.162 49.0660585,66.9904535 48.7085024,66.6742667 L42.0894476,60.8593282 L41.8754711,60.6719532 C40.6082012,59.5575716 39.8434168,58.0074819 39.7253606,56.3156092 C39.6072825,54.6234232 40.1493738,52.9813604 41.2495841,51.6996843 C42.4457551,50.3023812 44.1831931,49.5 46.0144048,49.5 L46.0153928,49.5 C47.4675216,49.5 48.8742435,50.0080253 50.0006477,50.9349231 C51.1243881,50.0086157 52.5313057,49.5 53.9852,49.5 Z M56.5928519,59.3544339 L56.802383,59.1710924 C57.6747257,58.4038855 58.1976458,57.3446529 58.2790922,56.1774393 C58.3605998,55.0085303 57.9897664,53.8843793 57.2319539,53.0006349 C56.4147426,52.0468241 55.2307169,51.5 53.9852,51.5 C52.952909,51.5 51.9539901,51.8777833 51.1719015,52.5639667 L50.6601425,53.0139667 C50.2819788,53.3464936 49.7155475,53.3459502 49.3380226,53.0126982 L48.8308862,52.5650263 C48.0470808,51.8780397 47.0470642,51.5 46.0153928,51.5 L46.0144048,51.5 C44.7683893,51.5 43.5856998,52.046188 42.7680279,53.0013473 C42.0100144,53.8843866 41.6389978,55.0082427 41.7205093,56.1763908 C41.8019728,57.3438507 42.3250248,58.4039893 43.1946151,59.1686718 L43.4082349,59.3557333 L50.0002903,65.1469577 L56.5928519,59.3544339 Z M17.4068907,50.2944731 C17.5204001,49.7539788 18.0505748,49.4078392 18.5910691,49.5213485 C19.1315634,49.6348579 19.477703,50.1650326 19.3641936,50.7055269 L18.6291575,54.2055269 C18.5156481,54.7460212 17.9854734,55.0921608 17.4449791,54.9786515 C16.9044848,54.8651421 16.5583452,54.3349674 16.6718546,53.7944731 L17.4068907,50.2944731 Z M58.2384313,39.043 C58.3332747,39.493 58.0487446,39.936 57.6031783,40.03 C57.1586,40.126 56.7219253,39.839 56.6280699,39.389 C56.5332265,38.939 56.8177566,38.496 57.2623349,38.4 C57.7069133,38.305 58.143588,38.592 58.2384313,39.043 Z M61.8013807,39.9814 C61.8962241,40.4314 61.6126819,40.8744 61.1671157,40.9694 C60.7225373,41.0644 60.2858627,40.7774 60.1910193,40.3274 C60.0961759,39.8774 60.380706,39.4344 60.8252843,39.3384 C61.2708506,39.2434 61.7075253,39.5314 61.8013807,39.9814 Z M58.9215012,42.3037 C59.0163446,42.7537 58.7328024,43.1967 58.2872361,43.2907 C57.8426578,43.3867 57.4059831,43.0997 57.3111398,42.6497 C57.2162964,42.1997 57.5008265,41.7567 57.9463928,41.6607 C58.3909711,41.5657 58.8276458,41.8537 58.9215012,42.3037 Z" id="Pets" fill="#2F313A" fill-rule="nonzero"></path>
    </g>
</svg>