<?xml version="1.0" encoding="UTF-8"?>
<svg width="100px" height="100px" viewBox="0 0 100 100" version="1.1" xmlns="http://www.w3.org/2000/svg" xmlns:xlink="http://www.w3.org/1999/xlink">
    <!-- Generator: Sketch 59.1 (86144) - https://sketch.com -->
    <title>Vector Files/100x100/Flattened/Categories/Poultry</title>
    <desc>Created with Sketch.</desc>
    <g id="100x100/Flattened/Categories/Poultry" stroke="none" stroke-width="1" fill="none" fill-rule="evenodd">
        <path d="M75.7940732,24.4487323 L75.6904398,24.3543602 C68.1716746,16.8355949 57.1938045,16.9391819 47.7557602,26.3763602 C45.6946206,28.4374997 43.9174536,30.6795348 42.4050225,33.0757242 C39.6327336,37.4679435 37.8556857,42.1798574 36.8802957,46.9093309 C36.5329805,48.5933934 36.312219,50.1683163 36.193204,51.595365 C36.1188123,52.4873581 36.0960528,53.1550843 36.0997556,53.5597822 C36.099895,53.5723395 36.099895,53.5723395 36.0995913,53.5576373 C36.0998356,53.5677776 36.0998356,53.5677776 36.1000347,53.5806149 C36.1042333,53.8979681 36.0596413,54.3307295 35.9277737,54.8433143 C35.7221367,55.6426494 35.3482976,56.4353008 34.767243,57.1709328 C33.5932483,58.6572442 31.7405816,59.6993194 29.1630457,60.1438755 C29.0788406,60.1583986 28.9935484,60.1657 28.9081,60.1657 L28.6211,60.1657 C27.7926729,60.1657 27.1211,59.4941271 27.1211,58.6657 C27.1211,57.8372729 27.7926729,57.1657 28.6211,57.1657 L28.7757951,57.1657 C30.5775475,56.835058 31.7298994,56.1763118 32.41305,55.3114234 C32.721484,54.920937 32.9164909,54.5074636 33.0223771,54.0958717 C33.0829606,53.8603766 33.100871,53.6895513 33.1003155,53.6220143 C33.1001631,53.6131602 33.1001468,53.6116576 33.0998811,53.5872295 C33.0953584,53.0929206 33.1212534,52.3332056 33.2035831,51.3460324 C33.3322777,49.8029201 33.5696668,48.1093756 33.9421302,46.303374 C34.9863845,41.2399917 36.8897371,36.1931754 39.868101,31.4744655 C41.4972909,28.8932919 43.4129822,26.4764975 45.6344885,24.2549912 C56.2148045,13.6756461 69.0626448,13.5341717 77.761302,22.1827271 L77.8131268,22.2256677 L77.9167602,22.3200398 C86.6251762,31.0284559 86.527654,43.8924941 75.9337602,54.4873602 C73.7250408,56.6960795 71.324075,58.6037359 68.7611682,60.229143 C64.0254917,63.2325305 58.9601698,65.1532175 53.8804162,66.2089589 C52.0727784,66.5846461 50.3794986,66.8244855 48.8390039,66.9550869 C47.8597075,67.0381105 47.1111291,67.0646116 46.6316678,67.0608353 C46.6113925,67.0606456 46.6113925,67.0606456 46.5793713,67.059972 C46.5873136,67.060198 46.5891487,67.0602502 46.5926976,67.0603191 C46.5250973,67.0594253 46.3593583,67.0749694 46.1350253,67.1281213 C45.7524919,67.2187561 45.3704288,67.3856405 45.0132018,67.6473729 C44.1115408,68.308 43.4620323,69.4833011 43.2216035,71.4140569 L43.1812867,71.4090365 C42.9636962,72.1658001 42.9603927,72.1654766 42.9123532,72.1607719 C42.8649645,72.2218527 42.8649645,72.2218527 42.8301342,72.2640623 L42.8229319,72.2727266 C42.7597456,72.3474045 42.7597456,72.3474045 42.7374541,72.3728977 C42.1922399,72.9966227 41.2446274,73.0602684 40.6209023,72.5150541 C40.0771097,72.0397109 39.9590428,71.258498 40.2990286,70.6527289 C40.6882232,68.1344541 41.7249835,66.3375252 43.2401423,65.2274018 C43.9394297,64.7150493 44.6888108,64.3877211 45.4433749,64.2089399 C45.9281169,64.0940885 46.339108,64.0559193 46.6442531,64.0607697 C46.6605791,64.0610742 46.6605791,64.0610742 46.649449,64.0608817 C47.0450538,64.0639981 47.7015523,64.0407568 48.5855764,63.9658103 C50.009869,63.8450604 51.5843929,63.6220418 53.2699614,63.2717247 C58.0153393,62.2854776 62.7453961,60.4919176 67.154437,57.695684 C69.534381,56.1863127 71.7624521,54.4160275 73.8123912,52.3660885 C83.2215407,42.9560754 83.3246362,32.0183359 75.8441415,24.4902165 L75.7940732,24.4487323 Z M52.0093705,27.1574838 C52.433258,26.803453 53.0638854,26.860083 53.4179162,27.2839705 C53.771947,27.707858 53.715317,28.3384854 53.2914295,28.6925162 C52.6790272,29.2039946 52.0705752,29.7610384 51.4675841,30.3640294 C47.4726623,34.3598254 44.742686,38.9964752 43.1498614,43.8668427 C42.9781877,44.391768 42.4134826,44.6781351 41.8885573,44.5064614 C41.363632,44.3347877 41.0772649,43.7700826 41.2489386,43.2451573 C42.9358259,38.0871751 45.8264735,33.1776379 50.0532932,28.9498932 C50.6982624,28.3049241 51.3507712,27.7075459 52.0093705,27.1574838 Z M62.340621,22.7303225 C62.892562,22.7108385 63.3557935,23.1424801 63.3752775,23.694421 C63.3947615,24.246362 62.9631199,24.7095935 62.411179,24.7290775 C60.7574283,24.7874564 59.0638818,25.2140945 57.3464897,26.03577 C56.8482902,26.2741304 56.2511904,26.0634893 56.01283,25.5652897 C55.7744696,25.0670902 55.9851107,24.4699904 56.4833103,24.23163 C58.4451395,23.2930051 60.4078875,22.7985498 62.340621,22.7303225 Z M75.706,38.1662 C74.914,38.3812 74.097,37.9142 73.882,37.1212 C73.666,36.3292 74.134,35.5112 74.927,35.2962 C75.719,35.0812 76.536,35.5482 76.752,36.3412 C76.967,37.1342 76.499,37.9512 75.706,38.1662 Z M74.3965,44.6862 C73.6035,44.9012 72.7865,44.4342 72.5715,43.6412 C72.3555,42.8492 72.8235,42.0312 73.6165,41.8162 C74.4095,41.6012 75.2255,42.0682 75.4415,42.8612 C75.6565,43.6542 75.1885,44.4712 74.3965,44.6862 Z M69.9658,39.7258 C69.1738,39.9418 68.3568,39.4738 68.1418,38.6808 C67.9258,37.8888 68.3938,37.0718 69.1868,36.8558 C69.9788,36.6408 70.7958,37.1088 71.0118,37.9008 C71.2268,38.6938 70.7588,39.5108 69.9658,39.7258 Z M21.4198641,78.5854692 L16.6364571,77.3898289 C15.8327564,77.1889392 15.3440815,76.3745578 15.5449711,75.5708571 L16.9589711,69.9138571 C17.1339049,69.2139984 17.7822427,68.7377838 18.5023853,68.7801945 L23.8408444,69.0945872 L33.2634863,59.6709934 C33.8492431,59.0851774 34.7989906,59.0851294 35.3848066,59.6708863 C35.9706226,60.2566431 35.9706706,61.2063906 35.3849137,61.7922066 L25.4859137,71.6922066 C25.1829205,71.9952305 24.7647924,72.1541982 24.3370147,72.1290055 L19.567784,71.8481359 L18.8191718,74.843114 L23.0103478,75.8907228 C23.5346322,76.018283 23.972202,76.4252508 24.1121289,76.9850571 L25.162386,81.1868282 L28.1575677,80.4381651 L27.8774799,75.668737 C27.8523647,75.2410681 28.0113112,74.8230684 28.3142398,74.5201398 L38.2132398,64.6211398 C38.7990263,64.0353534 39.7487737,64.0353534 40.3345602,64.6211398 C40.9203466,65.2069263 40.9203466,66.1566737 40.3345602,66.7424602 L30.9118045,76.1652158 L31.2253201,81.503863 C31.2676059,82.2239191 30.7914107,82.8721179 30.0916429,83.0470289 L24.4346429,84.4610289 C23.6309422,84.6619185 22.8165608,84.1732436 22.6156711,83.3695429 L21.4198641,78.5854692 Z" id="Poultry" fill="#2F313A" fill-rule="nonzero"></path>
    </g>
</svg>