<?xml version="1.0" encoding="UTF-8"?>
<svg width="100px" height="100px" viewBox="0 0 100 100" version="1.1" xmlns="http://www.w3.org/2000/svg" xmlns:xlink="http://www.w3.org/1999/xlink">
    <!-- Generator: Sketch 59.1 (86144) - https://sketch.com -->
    <title>Vector Files/100x100/Flattened/Categories/Purees, Sauces, &amp; Soups</title>
    <desc>Created with Sketch.</desc>
    <g id="100x100/Flattened/Categories/Purees,-Sauces,-&amp;-Soups" stroke="none" stroke-width="1" fill="none" fill-rule="evenodd">
        <path d="M73.6030937,49.3910208 C73.0741538,48.8389502 73.0423542,47.9646618 73.5521275,47.37423 L88.9343527,29.5581638 L88.6135878,26.8021708 C88.3967275,24.9417383 87.7133085,24.4475428 85.6735307,24.6844867 L83.0000618,24.9949541 L65.6633727,54.1148377 C65.2395838,54.8266625 64.318987,55.0601616 63.6071623,54.6363727 C62.9943976,54.2715598 62.736091,53.5385927 62.9464051,52.8875705 C57.9537927,52.3348722 52.3097262,52.039 46.4498,52.039 C34.3950261,52.039 23.504229,53.3035241 17.6030344,55.2510936 C23.337175,57.1150376 34.2419501,58.4359 46.4504,58.4359 C58.6594686,58.4359 69.5593682,57.1163146 75.2992021,55.2502861 C74.2517892,54.9059808 73.0334145,54.578289 71.6616058,54.2729062 C71.1225173,54.1528979 70.7827856,53.6185943 70.9027938,53.0795058 C71.0228021,52.5404173 71.5571057,52.2006856 72.0961942,52.3206938 C74.4441176,52.8433728 76.3879708,53.4351612 77.8659691,54.0841907 C77.9034441,54.100647 77.9394046,54.1191237 77.9737788,54.1394369 C78.5295312,53.8283162 78.9489981,53.5079274 79.2186172,53.1809933 C79.3679558,53.0026025 79.4244,52.86347 79.4244,52.7419 C79.4244,52.4960834 79.1539322,52.1254206 78.5023053,51.6816772 C77.599386,51.0743884 76.1485586,50.4733822 74.2288307,49.920894 C73.9429146,49.8386087 73.7220966,49.6398539 73.6030937,49.3910208 L73.6030937,49.3910208 Z M77.6108806,47.2638557 C79.8126249,47.9137767 81.5363871,48.639524 82.7317017,49.4414666 C82.9847504,49.6112382 83.1800909,49.8540534 83.2917226,50.1375925 C83.7347266,51.2628012 84.0934893,52.4135647 84.3637373,53.5814635 C84.7016993,55.0489563 84.8828813,56.5558024 84.9071779,58.0933767 C84.9351625,58.2078921 84.95,58.3275633 84.95,58.4507 C84.95,74.4547315 67.6536501,87.2207 46.5,87.2207 C46.4916004,87.2207 46.4832169,87.2207 46.47485,87.2207 C46.4664831,87.2207 46.4580996,87.2207 46.4497,87.2207 C25.2960499,87.2207 7.9997,74.4547315 7.9997,58.4507 C7.9997,58.4402059 7.9997,58.429737 7.9997,58.4192943 C8.00233219,56.7682244 8.18452327,55.1511368 8.54346968,53.5938301 C8.80343469,52.4197259 9.16549308,51.2601169 9.6243055,50.124989 C9.73662743,49.8470982 9.92962634,49.6092301 10.1784119,49.4420617 C15.0853752,46.1448884 29.665734,43.9561 46.45,43.9561 C54.0425912,43.9561 61.3024426,44.4066041 67.4576932,45.2365427 L80.8016273,22.8231623 C81.0406944,22.4216089 81.453258,22.1544217 81.9174693,22.1005133 L85.3274214,21.7045189 C88.9573562,21.2828598 91.177698,22.8884383 91.5934424,26.4550883 L91.9904424,29.8660883 C92.0390046,30.2833318 91.9103873,30.7018203 91.6358725,31.01977 L77.6108806,47.2638557 Z M65.6786205,48.2247943 C60.0975679,47.4589928 53.4383481,47.0389 46.4504,47.0389 C31.4711953,47.0389 18.3939169,49.0018675 14.4126789,51.6781668 C13.7562904,52.1256371 13.4854,52.4966775 13.4854,52.7419 C13.4854,52.8636388 13.5419847,53.0033564 13.6958493,53.1878236 C13.9631655,53.5129627 14.3797335,53.8317038 14.9320613,54.1413332 C14.967314,54.1203427 15.0042456,54.1012883 15.0427782,54.0843699 C20.6404492,51.6266244 32.8183884,50.039 46.4498,50.039 C52.7195927,50.039 58.7500993,50.3738474 64.027411,50.9982783 L65.6786205,48.2247943 L65.6786205,48.2247943 Z M81.2733732,53.5842861 C81.1605119,53.8919985 80.986254,54.1851796 80.7568955,54.4591348 C77.8272659,58.0115902 63.5067,60.4359 46.4504,60.4359 C29.3977645,60.4359 15.0718903,58.0107425 12.1555385,54.4635159 C11.9224287,54.1841034 11.7465046,53.886931 11.6335313,53.5758866 C11.5746762,53.8011801 11.5200568,54.0275218 11.4696872,54.2549538 C11.1569204,55.6121218 10.999723,57.0139751 10.999723,58.4511 C10.999723,58.460828 10.999723,58.4705344 10.999723,58.4802184 C11.0217177,72.5827088 26.8034902,84.2209066 46.4497,84.2209066 C46.4580996,84.2209066 46.4664832,84.2209066 46.47485,84.2209066 C46.4832169,84.2209066 46.4916004,84.2209066 46.5,84.2209066 C66.0049796,84.2209066 81.7008825,72.7494309 81.9470638,58.7839676 C81.9228064,58.6769065 81.91,58.5654988 81.91,58.4511 C81.91,57.0143209 81.7531548,55.613371 81.4406146,54.2562609 C81.3886428,54.0316612 81.332882,53.8076378 81.2733732,53.5842861 L81.2733732,53.5842861 Z M21.1281358,71.8765557 C20.7189725,71.5056058 20.6879944,70.8731991 21.0589443,70.4640358 C21.4298942,70.0548725 22.0623009,70.0238944 22.4714642,70.3948443 C28.1674869,75.5588922 37.0408964,78.7207 46.4498,78.7207 C47.0020847,78.7207 47.4498,79.1684153 47.4498,79.7207 C47.4498,80.2729847 47.0020847,80.7207 46.4498,80.7207 C36.561455,80.7207 27.2066261,77.387351 21.1281358,71.8765557 Z M15.1855305,62.96794 C15.0236337,62.4399174 15.3204373,61.8806273 15.84846,61.7187305 C16.3764826,61.5568337 16.9357727,61.8536373 17.0976695,62.38166 C17.5621969,63.8967055 18.2950199,65.3767714 19.2781934,66.7937261 C19.5930365,67.2474796 19.4804274,67.8705503 19.0266739,68.1853934 C18.5729204,68.5002365 17.9498497,68.3876274 17.6350066,67.9338739 C16.5369348,66.3513273 15.7121746,64.6855778 15.1855305,62.96794 Z M37.8198,15 C37.8198,14.4477153 38.2675153,14 38.8198,14 C39.3720847,14 39.8198,14.4477153 39.8198,15 C39.8198,16.4666131 39.3736131,17.2403981 38.2208096,18.4399251 C37.3936131,19.3006481 37.1798,19.6714465 37.1798,20.494 C37.1798,21.3180966 37.3937742,21.6895795 38.2211873,22.5514682 C39.3737742,23.7520795 39.8198,24.5264299 39.8198,25.994 C39.8198,27.4616558 39.3738827,28.2362776 38.2217358,29.4370853 C37.3939389,30.299844 37.1798,30.6718698 37.1798,31.497 C37.1798,32.321497 37.3938227,32.6932849 38.2210162,33.5554147 C39.373759,34.7568435 39.8198,35.5317552 39.8198,37 C39.8198,37.5522847 39.3720847,38 38.8198,38 C38.2675153,38 37.8198,37.5522847 37.8198,37 C37.8198,36.1748698 37.6056611,35.802844 36.778224,34.9404603 C35.6257173,33.7392776 35.1798,32.9646558 35.1798,31.497 C35.1798,30.0287552 35.625841,29.2538435 36.778224,28.0527897 C37.6057773,27.1902849 37.8198,26.818497 37.8198,25.994 C37.8198,25.1699034 37.6058258,24.7984205 36.7784127,23.9365318 C35.6258258,22.7359205 35.1798,21.9615701 35.1798,20.494 C35.1798,19.0273869 35.6259869,18.2536019 36.7787904,17.0540749 C37.6059869,16.1933519 37.8198,15.8225535 37.8198,15 Z M46.8198,15 C46.8198,14.4477153 47.2675153,14 47.8198,14 C48.3720847,14 48.8198,14.4477153 48.8198,15 C48.8198,16.4666131 48.3736131,17.2403981 47.2208096,18.4399251 C46.3936131,19.3006481 46.1798,19.6714465 46.1798,20.494 C46.1798,21.3180966 46.3937742,21.6895795 47.2211873,22.5514682 C48.3737742,23.7520795 48.8198,24.5264299 48.8198,25.994 C48.8198,27.4616558 48.3738827,28.2362776 47.2217358,29.4370853 C46.3939389,30.299844 46.1798,30.6718698 46.1798,31.497 C46.1798,32.321497 46.3938227,32.6932849 47.2210162,33.5554147 C48.373759,34.7568435 48.8198,35.5317552 48.8198,37 C48.8198,37.5522847 48.3720847,38 47.8198,38 C47.2675153,38 46.8198,37.5522847 46.8198,37 C46.8198,36.1748698 46.6056611,35.802844 45.778224,34.9404603 C44.6257173,33.7392776 44.1798,32.9646558 44.1798,31.497 C44.1798,30.0287552 44.625841,29.2538435 45.778224,28.0527897 C46.6057773,27.1902849 46.8198,26.818497 46.8198,25.994 C46.8198,25.1699034 46.6058258,24.7984205 45.7784127,23.9365318 C44.6258258,22.7359205 44.1798,21.9615701 44.1798,20.494 C44.1798,19.0273869 44.6259869,18.2536019 45.7787904,17.0540749 C46.6059869,16.1933519 46.8198,15.8225535 46.8198,15 Z M55.8198,15 C55.8198,14.4477153 56.2675153,14 56.8198,14 C57.3720847,14 57.8198,14.4477153 57.8198,15 C57.8198,16.4666131 57.3736131,17.2403981 56.2208096,18.4399251 C55.3936131,19.3006481 55.1798,19.6714465 55.1798,20.494 C55.1798,21.3180966 55.3937742,21.6895795 56.2211873,22.5514682 C57.3737742,23.7520795 57.8198,24.5264299 57.8198,25.994 C57.8198,27.4616558 57.3738827,28.2362776 56.2217358,29.4370853 C55.3939389,30.299844 55.1798,30.6718698 55.1798,31.497 C55.1798,32.321497 55.3938227,32.6932849 56.2210162,33.5554147 C57.373759,34.7568435 57.8198,35.5317552 57.8198,37 C57.8198,37.5522847 57.3720847,38 56.8198,38 C56.2675153,38 55.8198,37.5522847 55.8198,37 C55.8198,36.1748698 55.6056611,35.802844 54.778224,34.9404603 C53.6257173,33.7392776 53.1798,32.9646558 53.1798,31.497 C53.1798,30.0287552 53.625841,29.2538435 54.778224,28.0527897 C55.6057773,27.1902849 55.8198,26.818497 55.8198,25.994 C55.8198,25.1699034 55.6058258,24.7984205 54.7784127,23.9365318 C53.6258258,22.7359205 53.1798,21.9615701 53.1798,20.494 C53.1798,19.0273869 53.6259869,18.2536019 54.7787904,17.0540749 C55.6059869,16.1933519 55.8198,15.8225535 55.8198,15 Z" id="Purees,-Sauces,-&amp;-Soups" fill="#2F313A" fill-rule="nonzero"></path>
    </g>
</svg>