<?xml version="1.0" encoding="UTF-8"?>
<svg width="100px" height="100px" viewBox="0 0 100 100" version="1.1" xmlns="http://www.w3.org/2000/svg" xmlns:xlink="http://www.w3.org/1999/xlink">
    <!-- Generator: Sketch 59.1 (86144) - https://sketch.com -->
    <title>Vector Files/100x100/Flattened/Categories/Ready to Serve</title>
    <desc>Created with Sketch.</desc>
    <g id="100x100/Flattened/Categories/Ready-to-Serve" stroke="none" stroke-width="1" fill="none" fill-rule="evenodd">
        <path d="M33.9348834,45.3973423 C34.1218334,45.7390665 34.3166083,46.1021423 34.5181265,46.48572 C35.7144309,48.7628134 36.9096232,51.3025435 38.0252871,54.0439843 C41.3949679,62.3240597 43.3431449,70.6439874 43.1327221,78.4667713 C43.129034,78.6038822 43.1246699,78.7407401 43.1196271,78.8773429 L87.0593702,76.2557201 C86.9740029,69.2948693 85.2454846,62.1533943 82.3995477,55.2141348 C81.3761148,52.7186945 80.2797269,50.4319339 79.1847722,48.4055368 C78.8029611,47.6989314 78.4492852,47.0763692 78.1330713,46.5442535 C77.946275,46.2299181 77.8155153,46.018661 77.7501257,45.9168593 C77.5636831,45.6265962 77.4829911,45.2809387 77.5216458,44.9381279 C78.1282069,39.558818 77.0986775,34.0778563 75.0021441,28.86735 C74.4120228,27.4007237 73.780224,26.069628 73.1501373,24.9011148 C73.0001771,24.6230095 72.8580131,24.3685768 72.7254004,24.1388905 L30.6258285,22.1582264 C30.7644722,22.5178712 30.8959293,22.9093086 31.0197448,23.3325467 C32.1065524,27.047578 32.8409488,33.5116225 33.1003237,43.3892673 L63.0140595,43.6752457 C63.566319,43.6805253 64.0097339,44.1325 64.0044543,44.6847595 C63.9991747,45.237019 63.5472,45.6804339 62.9949405,45.6751543 L33.9348834,45.3973423 L33.9348834,45.3973423 Z M29.217748,29.8873684 C29.1944536,30.1249977 29.1703149,30.3642941 29.1453352,30.6053327 C28.8204821,33.7399582 28.4272925,36.6317816 27.6928007,41.5522398 C26.3894281,50.2837055 26.0550887,52.8158154 25.8242238,56.5813281 C25.5224908,61.5000961 25.5843504,64.7089331 25.8625436,66.5536794 C25.9049258,66.8347231 25.9436926,67.0329741 25.9723405,67.1598836 L40.1464709,77.6805922 C40.211366,70.5324941 38.3701144,62.8500564 35.2465783,55.1748148 C34.1695216,52.5282405 33.0153705,50.0757211 31.8623315,47.8809809 C31.4599,47.1149769 31.0869332,46.4368331 30.7532276,45.8544454 C30.555505,45.509377 30.4165554,45.2756743 30.3461792,45.1612042 C30.2069587,44.9347558 30.1304156,44.675378 30.1243859,44.4096246 C29.9858065,38.3018183 29.6707259,33.5075273 29.217748,29.8873684 L29.217748,29.8873684 Z M27.1005205,30.9256603 C25.8024362,35.314166 23.8428713,40.1699186 21.1005196,45.456292 C19.768437,48.0242878 18.6011827,50.8250272 17.5900255,53.8224667 C15.6846001,59.4708443 14.4133612,65.5398858 13.6591831,71.6116218 C13.4241661,73.5036966 13.2554112,75.2747491 13.1421606,76.888287 L23.9875395,67.4332188 C23.9525346,67.2650763 23.918116,67.0721448 23.8849045,66.8519133 C23.5827542,64.848304 23.5183331,61.5065889 23.8279742,56.4589046 C24.0638817,52.6111444 24.4012923,50.0557751 25.7147175,41.2569653 C26.4035163,36.6426113 26.7896044,33.8286981 27.1005205,30.9256603 L27.1005205,30.9256603 Z M16.634996,76.4965461 C23.2633981,74.9574774 29.623623,75.2029314 35.4576179,76.6910318 L25.1703722,69.0553524 L16.634996,76.4965461 L16.634996,76.4965461 Z M41.6609429,81.9697088 C41.472779,81.9874339 41.2786103,81.9695047 41.0879503,81.9107865 C40.9772687,81.8771377 40.8717648,81.8309716 40.7731971,81.7738485 C40.6004291,81.6814346 40.2649812,81.5171833 39.7777488,81.3036169 C38.8942649,80.9163633 37.8647698,80.5270338 36.7024115,80.1624959 C29.2903035,77.8379161 20.852523,77.6628299 12.037606,81.0469499 C11.0446958,81.4281364 9.98146792,80.6835349 9.99998865,79.620134 C10.0022316,79.5069041 10.008095,79.2971961 10.0197749,78.9974013 C10.0390043,78.503829 10.067955,77.9330169 10.1085837,77.2913485 C10.2242761,75.4641636 10.4101817,73.4306786 10.6820614,71.2418297 C11.4593849,64.9837544 12.7707838,58.7229846 14.7474112,52.8635383 C15.8055162,49.7269283 17.031304,46.7857419 18.4374989,44.0748723 C21.7634258,37.6635531 23.884724,31.9442717 25.0436727,26.9842207 C25.6619253,24.3382332 25.9110328,22.3803688 25.9527571,21.1558321 C25.8463234,20.937263 25.7916274,20.6896587 25.8038573,20.4297073 C25.8427894,19.6021955 26.5451809,18.9629253 27.3726927,19.0018573 L73.6666927,21.1798573 C74.1490321,21.20255 74.5909527,21.4560571 74.8540309,21.8609721 C75.0503543,22.163142 75.3771591,22.7103139 75.7907131,23.4772611 C76.4719642,24.7406601 77.1515033,26.1723367 77.7852972,27.7475023 C79.9864692,33.2180665 81.1053191,38.991522 80.5569694,44.7527303 C80.6043784,44.8312103 80.6561385,44.9175653 80.7120604,45.0116691 C81.0487013,45.5781588 81.4224923,46.2361287 81.8241069,46.9793839 C82.9675115,49.0954456 84.1094828,51.4772804 85.1751853,54.0757871 C88.3535299,61.8255573 90.2070564,69.8420554 90.0539151,77.6984334 C90.0386656,78.4807562 89.4246196,79.1199347 88.6435372,79.1665373 L41.6609429,81.9697088 L41.6609429,81.9697088 Z M68.0783629,45.7232545 C67.5261033,45.7179873 67.0826783,45.2660225 67.087899,44.7137629 C67.0932127,44.1615033 67.5451775,43.7180783 68.0974371,43.7233455 L73.6544371,43.7763455 C74.2066967,43.7816127 74.6501217,44.2335775 74.644901,44.7858371 C74.6395873,45.3380967 74.1876225,45.7815217 73.6353629,45.7762545 L68.0783629,45.7232545 Z M74.963496,49.2516397 C74.6222725,48.817376 74.6976965,48.1887194 75.1319603,47.847496 C75.566224,47.5062725 76.1948806,47.5816965 76.536104,48.0159603 C80.797966,53.4398899 83.8911589,62.8523477 84.7033539,71.4366062 C84.7569344,72.0029103 84.3279817,72.4997922 83.7599217,72.5294407 C81.3817265,72.6535649 78.8403189,72.7925437 76.1578185,72.9446854 C74.4239791,73.0430225 72.6395317,73.1463876 70.812021,73.2542034 C65.6381058,73.5594435 60.348921,73.8865009 55.2294171,74.2135591 C53.4375915,74.3280294 51.7949895,74.4343216 50.3372199,74.5297093 C49.8270419,74.5630922 49.3764229,74.5927267 48.9898138,74.6182718 C48.5988394,74.6441521 48.5988394,74.6441521 48.5172986,74.6495865 C47.9824373,74.6852329 47.5146013,74.2927987 47.4566591,73.7598916 C46.7802169,67.5385099 45.7186599,62.317625 44.3795197,58.0159222 C43.5382734,55.3135977 42.6411287,53.1436058 41.7495858,51.4587961 C41.4425103,50.8784944 41.1598831,50.4018992 40.9093418,50.0231043 C40.7663874,49.8069707 40.6708234,49.6769309 40.6302537,49.6270907 C40.2816015,49.1987683 40.3461869,48.5689059 40.7745093,48.2202537 C41.2028317,47.8716015 41.8326941,47.9361869 42.1813463,48.3645093 C42.468392,48.7171476 42.9343251,49.4215946 43.5173417,50.5233609 C44.4672944,52.3185515 45.4116454,54.6027248 46.2891284,57.4214521 C47.5980443,61.6260657 48.6444359,66.6597529 49.337509,72.591003 C49.60425,72.573449 49.894297,72.5544144 50.2066313,72.5339772 C51.6653961,72.4385244 53.3090202,72.332166 55.1019075,72.2176279 C60.2244404,71.8903762 65.516779,71.5631238 70.6942338,71.2576748 C72.5232135,71.1497724 74.3091674,71.04632 76.0445678,70.9478944 C78.3381367,70.8178115 80.528857,70.6973308 82.6030062,70.5875044 C81.6823461,62.6401739 78.7895624,54.120947 74.963496,49.2516397 Z" id="Ready-to-Serve" fill="#2F313A" fill-rule="nonzero"></path>
    </g>
</svg>