<?xml version="1.0" encoding="UTF-8"?>
<svg width="100px" height="100px" viewBox="0 0 100 100" version="1.1" xmlns="http://www.w3.org/2000/svg" xmlns:xlink="http://www.w3.org/1999/xlink">
    <!-- Generator: Sketch 59.1 (86144) - https://sketch.com -->
    <title>Vector Files/100x100/Flattened/Categories/Shellfishes</title>
    <desc>Created with Sketch.</desc>
    <g id="100x100/Flattened/Categories/Shellfishes" stroke="none" stroke-width="1" fill="none" fill-rule="evenodd">
        <path d="M32.5813685,67.7710883 C32.6609713,67.5640318 32.7460862,67.35094 32.8368483,67.1324406 C33.2581343,66.1182431 33.7511426,65.1041161 34.3210193,64.1118008 L31.6293226,62.5261062 C31.1534707,62.245779 30.9949666,61.6327746 31.2752938,61.1569226 C31.555621,60.6810707 32.1686254,60.5225666 32.6444774,60.8028938 L35.3864986,62.4182349 C35.4827332,62.2783615 35.5806633,62.139218 35.6803047,62.0008716 C39.0830797,57.276314 43.763421,54.4133 49.856,54.4133 C49.8744881,54.4133 49.8928591,54.4138017 49.9111,54.4147923 C49.9293409,54.4138017 49.9477119,54.4133 49.9662,54.4133 C56.0583431,54.4133 60.7385775,57.2763097 64.1415069,62.000853 C65.3199486,63.6369724 66.2590678,65.384579 66.985192,67.1323948 C67.0589658,67.3099718 67.1290095,67.4839771 67.1953956,67.6540736 C69.91815,66.0018232 72.7097617,64.2590574 75.44488,62.5161808 C76.5345039,61.821849 77.5369992,61.1771905 78.4293594,60.5988174 C78.7414424,60.3965444 79.0173835,60.2170601 79.254309,60.0624399 C79.3960617,59.9699306 79.4935872,59.9060854 79.5714413,59.8554405 C82.5665901,57.9858935 83.9296073,56.6319643 83.9317,55.4949 C83.9317,54.6531819 83.4781138,53.8695617 82.6975138,53.3954634 C81.9664179,52.9533609 81.4493044,52.2370021 81.2657951,51.4002529 C81.0868301,50.5624606 81.2670953,49.6903949 81.7605354,48.9968859 C82.0543799,48.5798767 82.2067,48.105015 82.2067,47.6129 C82.2067,46.455503 81.3327971,45.4176498 80.1100633,45.1692588 C79.1827738,44.9789006 78.3871959,44.3919318 77.9477937,43.5613075 C77.4994641,42.7138072 77.4744495,41.7094985 77.8806215,40.8461515 C78.0366438,40.5120876 78.1127,40.1783873 78.1127,39.8459 C78.1127,38.5100882 76.9854574,37.3929367 75.5571002,37.3408019 C75.4502747,37.3563655 75.3564126,37.3669724 75.2652682,37.3737186 C74.3272174,37.4518895 73.4150349,37.115636 72.7555849,36.4581029 C72.0867128,35.7911753 71.7570613,34.8602395 71.8716808,33.9079888 L71.8975866,33.7139638 C71.9068836,33.6407456 71.9075409,33.6355697 71.9131011,33.5986909 C71.8828789,32.2570083 70.7126061,31.1489 69.2547,31.1489 C69.2040821,31.1489 69.1379201,31.1563155 68.9520666,31.1843951 C68.933665,31.1871755 68.933665,31.1871755 68.9145191,31.1900592 C68.8812678,31.1950455 68.8812678,31.1950455 68.847549,31.1999963 C68.0322612,31.3196716 67.2006753,31.1241499 66.5293513,30.6508288 C65.8442492,30.1677933 65.3835573,29.4339842 65.2542633,28.6131561 C65.058233,27.3787284 63.9740228,26.4769 62.6467,26.4769 C62.1916125,26.4769 61.7461299,26.5975348 61.3048616,26.84683 C60.5458126,27.2743837 59.6374477,27.3744831 58.7950853,27.1219497 C57.9493231,26.8646261 57.2482211,26.2714642 56.8702804,25.4827956 C56.4397671,24.5889439 55.4908533,24.0009 54.4597,24.0009 C53.6666451,24.0009 52.9179686,24.3491177 52.3989122,24.9620158 C51.1679058,26.4111752 48.7657255,26.4105573 47.5366293,24.9610043 C47.0182988,24.3497228 46.2684928,24.0009 45.4787,24.0009 C44.4457894,24.0009 43.4969015,24.5885224 43.0671068,25.4828221 C42.6862439,26.2735476 41.985586,26.8672737 41.1346655,27.1242547 C40.2977568,27.3740226 39.3942949,27.2743542 38.6313711,26.8467358 C38.1898217,26.5979474 37.7435701,26.4769 37.2907,26.4769 C35.9618887,26.4769 34.8764817,27.3791026 34.680883,28.6147479 C34.5498068,29.4344631 34.0890609,30.164576 33.4017439,30.6524505 C32.7305021,31.1238282 31.9022843,31.3191673 31.0773459,31.1988752 C31.0365648,31.1926386 31.0365648,31.1926386 30.9987068,31.1867798 C30.8062398,31.1570079 30.7353352,31.1489 30.6807,31.1489 C29.222148,31.1489 28.050461,32.2576822 28.0202959,33.5988794 C28.0250506,33.6289894 28.0252174,33.630144 28.0337192,33.6889888 L28.065703,33.9320094 C28.1739796,34.8651572 27.84657,35.7942213 27.1803602,36.4565602 C26.8624403,36.77448 26.6476253,36.9679359 26.3582025,37.1648842 C26.076636,37.3564864 25.7831386,37.5020185 25.4779371,37.5859242 C25.231249,37.7845269 24.9310417,37.9139 24.5147,37.9139 L24.4977,37.9139 C22.9044906,37.9139 21.8197,38.8530932 21.8197,40.1289 C21.8197,40.4062612 21.8695379,40.5964056 22.0495554,40.9835393 C22.4568556,41.8512657 22.4328151,42.7840356 21.9852771,43.6300379 C21.5445242,44.4651488 20.7526293,45.0142841 19.819313,45.2058763 C18.594001,45.4547878 17.7247,46.4802363 17.7247,47.6309 C17.7247,48.1215679 17.87514,48.5887238 18.1680648,49.0029261 C18.6650995,49.7034711 18.8464284,50.5729064 18.6648981,51.4075437 C18.4854648,52.2383979 17.9677814,52.9525854 17.2358942,53.398247 C16.452224,53.8738185 15.9997,54.6552214 15.9997,55.4969 C15.9997,56.6345692 17.3634427,57.9897611 20.4053016,59.8879235 C20.4522278,59.919787 20.5464558,59.9835515 20.68343,60.0759122 C20.912492,60.2303669 21.1794375,60.4096827 21.4815277,60.611784 C22.3454445,61.189753 23.3171298,61.8339972 24.3746527,62.5279014 C27.0874551,64.3079339 29.8655659,66.0878414 32.5813685,67.7710883 L32.5813685,67.7710883 Z M34.3170157,68.83863 C34.8599854,69.1699023 35.395059,69.4937114 35.9215618,69.8095493 C42.9680149,74.0365684 48.1509934,76.6089 49.7897,76.6089 C51.2572292,76.6089 56.615782,73.931258 63.9485585,69.5993901 C64.443364,69.3070816 64.9457401,69.008232 65.4551403,68.7032338 C65.3594934,68.4466593 65.2539586,68.1782473 65.1382392,67.8997052 C64.4676837,66.285646 63.600217,64.6713776 62.5186431,63.169747 C59.464385,58.9292903 55.3514319,56.4133 49.9662,56.4133 C49.9477119,56.4133 49.9293409,56.4127983 49.9111,56.4118077 C49.8928591,56.4127983 49.8744881,56.4133 49.856,56.4133 C44.470329,56.4133 40.3572953,58.929286 37.3031953,63.1697284 C36.2216801,64.6713501 35.3542971,66.2856093 34.6838392,67.8996594 C34.5476071,68.2276224 34.4254941,68.5415417 34.3170157,68.83863 L34.3170157,68.83863 Z M59.5091852,75.5917874 C54.7311109,78.2024892 51.4624802,79.6089 49.7897,79.6089 C47.9827424,79.6089 44.6917019,78.2144258 40.0153026,75.6411 L27.491,75.6411 C25.5668012,75.6411 24.007,74.0807557 24.007,72.1571 L24.007,65.9271 C24.007,65.9087482 24.0073296,65.8904735 24.0079831,65.8722813 C23.5803176,65.5938067 23.1537794,65.3149762 22.7288411,65.0361486 C21.6635729,64.3371622 20.6844819,63.688008 19.8133841,63.1052348 C19.508219,62.9010763 19.238255,62.7197329 19.0062214,62.5632745 C18.8665384,62.4690873 18.7708597,62.4043411 18.7690071,62.4017124 C14.8790056,59.9760081 12.9997,58.1084858 12.9997,55.4969 C12.9997,53.5925712 14.0111827,51.8459775 15.6775662,50.8347321 C15.713159,50.8130588 15.7287745,50.7915158 15.7329667,50.7721117 C15.7347458,50.763932 15.7329271,50.7552121 15.7200131,50.7370074 C15.0697704,49.8175559 14.7247,48.7460216 14.7247,47.6309 C14.7247,45.0305227 16.6202724,42.7944599 19.2190633,42.2665412 C19.2794938,42.2541357 19.3096097,42.2425502 19.3231956,42.2353339 C18.9756754,41.483855 18.8197,40.8827851 18.8197,40.1289 C18.8197,37.2895357 21.0199707,35.2002991 23.8907667,34.9410689 C24.1261064,34.7708054 24.4115259,34.661898 24.7931829,34.6631133 C24.7344744,34.6668363 24.698942,34.6748311 24.681953,34.6801588 L24.6733165,34.6827052 C24.7615276,34.6221679 24.8700407,34.524239 25.0621276,34.332161 C25.081227,34.3131724 25.0876783,34.2948658 25.0886808,34.3018112 L25.0613973,34.0953658 C25.0602121,34.0872328 25.0602121,34.0872328 25.0565471,34.0638536 C25.0547328,34.0523412 25.0547328,34.0523412 25.0525503,34.0383504 C25.0310339,33.8996892 25.0197,33.7936043 25.0197,33.6519 C25.0197,30.6035074 27.571662,28.1489 30.6807,28.1489 C30.9382485,28.1489 31.115546,28.1691737 31.4573103,28.2220399 C31.4941862,28.2277456 31.4941862,28.2277456 31.5190914,28.2315905 C31.5791447,28.2403454 31.635285,28.2271044 31.6714317,28.2017442 C31.7016452,28.1802969 31.7158379,28.1578066 31.7181471,28.1433772 C32.1468245,25.43529 34.5028921,23.4769 37.2907,23.4769 C38.2683784,23.4769 39.2202308,23.7350934 40.1010969,24.2314165 C40.1524511,24.2602002 40.2171256,24.267335 40.2720265,24.2509588 C40.3182415,24.2370012 40.3504582,24.2097013 40.3637282,24.1821521 C41.2960408,22.24223 43.3005305,21.0009 45.4787,21.0009 C47.1517109,21.0009 48.7376248,21.7386947 49.8247859,23.0208137 C49.8562362,23.0579051 50.0800566,23.0579627 50.1110333,23.0214991 C51.1977325,21.7383268 52.7832183,21.0009 54.4597,21.0009 C56.636031,21.0009 58.6394135,22.2424005 59.5743972,24.1836637 C59.586778,24.2094991 59.6191588,24.2368946 59.6624269,24.2500721 C59.7191379,24.2670728 59.7848505,24.2598314 59.8308742,24.2339088 C60.7142969,23.734815 61.6667303,23.4769 62.6467,23.4769 C65.4331804,23.4769 67.7871371,25.4348829 68.2174304,28.1445009 C68.2200718,28.1612702 68.232378,28.1808719 68.2580487,28.1989712 C68.2978888,28.2270607 68.3541101,28.2402794 68.4135336,28.2315577 C68.4399222,28.2276845 68.4399222,28.2276845 68.4684409,28.2234088 C68.4857955,28.220795 68.4857955,28.220795 68.5038984,28.2180598 C68.8363619,28.1678296 69.0052544,28.1489 69.2547,28.1489 C72.3635704,28.1489 74.9137,30.6033733 74.9137,33.6519 C74.9137,33.7940089 74.903939,33.8829984 74.8819701,34.0300212 C74.8772683,34.0619488 74.8772683,34.0619488 74.8747192,34.0828112 L74.8479706,34.2839895 C74.8466309,34.2951299 74.8529049,34.3128476 74.8738151,34.3336971 C74.9115893,34.3713614 74.9590092,34.3888416 75.0293063,34.3830419 C75.0717918,34.3798781 75.1196389,34.3737196 75.2061015,34.3593091 C75.2875987,34.3457263 75.3700787,34.3389 75.4527,34.3389 C78.5622157,34.3389 81.1127,36.795016 81.1127,39.8459 C81.1127,40.6229689 80.9380634,41.3891957 80.596998,42.119447 C80.5912802,42.1316008 80.5915717,42.1433042 80.5996063,42.1584925 C80.6158606,42.1892189 80.6558828,42.2187468 80.710313,42.2299237 C83.3104358,42.7581162 85.2067,45.0101325 85.2067,47.6129 C85.2067,48.7274035 84.8610111,49.8050978 84.2089174,50.7304888 C84.199112,50.7442703 84.1962788,50.7579766 84.1978694,50.7655303 C84.2025712,50.7869662 84.2189158,50.8096084 84.2523584,50.8298348 C85.9195883,51.8424218 86.9316975,53.5909566 86.9316975,55.4976573 C86.9268991,58.1079589 85.0503134,59.9720323 81.1889695,62.3817849 C81.1367855,62.4160466 81.0379952,62.4807198 80.8938825,62.5747693 C80.6543658,62.7310805 80.3757928,62.9122766 80.0610289,63.1162873 C79.1623978,63.6987248 78.1534371,64.3475409 77.0570512,65.0461817 C76.4797035,65.4140801 75.899839,65.7819834 75.3186,66.1490651 L75.3186,72.1565 C75.3186,74.0809271 73.7580271,75.6415 71.8336,75.6415 L59.8936,75.6415 C59.7607179,75.6415 59.6318716,75.6242211 59.5091852,75.5917874 L59.5091852,75.5917874 Z M64.6945995,72.6415 L71.8336,72.6415 C72.1011729,72.6415 72.3186,72.4240729 72.3186,72.1565 L72.3186,68.0282427 C70.7400103,69.0086418 69.1657258,69.9725906 67.618469,70.9036477 C66.8901024,71.3419402 66.1749436,71.7685253 65.4744497,72.1823449 C65.211555,72.337651 64.9516024,72.4907087 64.6945995,72.6415 L64.6945995,72.6415 Z M34.8109056,72.6411 C34.6675898,72.5555116 34.5233885,72.4691989 34.3783034,72.3821654 C33.5814683,71.9041608 32.7657915,71.4084545 31.9334452,70.8967051 C30.3086746,69.8977514 28.6576374,68.8610043 27.007,67.8067235 L27.007,72.1571 C27.007,72.4241352 27.2238893,72.6411 27.491,72.6411 L34.8109056,72.6411 L34.8109056,72.6411 Z M38.0191097,66.2898574 C37.5432294,66.0095783 37.3846634,65.3965899 37.6649426,64.9207097 C37.9452217,64.4448294 38.5582101,64.2862634 39.0340903,64.5665426 L48.0820903,69.8955426 C48.5579706,70.1758217 48.7165366,70.7888101 48.4362574,71.2646903 C48.1559783,71.7405706 47.5429899,71.8991366 47.0671097,71.6188574 L38.0191097,66.2898574 Z M22.7061135,57.2703597 C22.230232,56.9900826 22.0716632,56.377095 22.3519403,55.9012135 C22.6322174,55.425332 23.245205,55.2667632 23.7210865,55.5470403 L28.1610865,58.1620403 C28.636968,58.4423174 28.7955368,59.055305 28.5152597,59.5311865 C28.2349826,60.007068 27.621995,60.1656368 27.1461135,59.8853597 L22.7061135,57.2703597 Z" id="Shellfishes" fill="#2F313A" fill-rule="nonzero"></path>
    </g>
</svg>