<?xml version="1.0" encoding="UTF-8"?>
<svg width="100px" height="100px" viewBox="0 0 100 100" version="1.1" xmlns="http://www.w3.org/2000/svg" xmlns:xlink="http://www.w3.org/1999/xlink">
    <!-- Generator: Sketch 59.1 (86144) - https://sketch.com -->
    <title>Vector Files/100x100/Flattened/Categories/Sweets</title>
    <desc>Created with Sketch.</desc>
    <g id="100x100/Flattened/Categories/Sweets" stroke="none" stroke-width="1" fill="none" fill-rule="evenodd">
        <path d="M45.2881,47.982 C45.6708741,47.982 45.9821,47.6707741 45.9821,47.288 L45.9821,24.712 C45.9821,24.3292259 45.6708741,24.018 45.2881,24.018 L28.7121,24.018 C28.3293259,24.018 28.0181,24.3292259 28.0181,24.712 L28.0181,47.288 C28.0181,47.6707741 28.3293259,47.982 28.7121,47.982 L45.2881,47.982 Z M45.2881,50.018 L28.7121,50.018 C27.2048741,50.018 25.9821,48.7952259 25.9821,47.288 L25.9821,24.712 C25.9821,23.2047741 27.2048741,21.982 28.7121,21.982 L45.2881,21.982 C46.7953259,21.982 48.0181,23.2047741 48.0181,24.712 L48.0181,47.288 C48.0181,48.7952259 46.7953259,50.018 45.2881,50.018 Z M71.982,42 C71.982,41.4377741 72.4377741,40.982 73,40.982 C73.5622259,40.982 74.018,41.4377741 74.018,42 L74.018,47.288 C74.018,48.7952259 72.7952259,50.018 71.288,50.018 L54.712,50.018 C53.2047741,50.018 51.982,48.7952259 51.982,47.288 L51.982,24.712 C51.982,23.2047741 53.2047741,21.982 54.712,21.982 L56,21.982 C56.5622259,21.982 57.018,22.4377741 57.018,23 C57.018,23.5622259 56.5622259,24.018 56,24.018 L54.712,24.018 C54.3292259,24.018 54.018,24.3292259 54.018,24.712 L54.018,47.288 C54.018,47.6707741 54.3292259,47.982 54.712,47.982 L71.288,47.982 C71.6707741,47.982 71.982,47.6707741 71.982,47.288 L71.982,42 Z M71.982,37 C71.982,36.4377741 72.4377741,35.982 73,35.982 C73.5622259,35.982 74.018,36.4377741 74.018,37 L74.018,39 C74.018,39.5622259 73.5622259,40.018 73,40.018 C72.4377741,40.018 71.982,39.5622259 71.982,39 L71.982,37 Z M28.018,71 C28.018,71.5622259 27.5622259,72.018 27,72.018 C26.4377741,72.018 25.982,71.5622259 25.982,71 L25.982,56.712 C25.982,55.2047741 27.2047741,53.982 28.712,53.982 L45.288,53.982 C46.7952259,53.982 48.018,55.2047741 48.018,56.712 L48.018,79.288 C48.018,79.8502259 47.5622259,80.306 47,80.306 C46.4377741,80.306 45.982,79.8502259 45.982,79.288 L45.982,56.712 C45.982,56.3292259 45.6707741,56.018 45.288,56.018 L28.712,56.018 C28.3292259,56.018 28.018,56.3292259 28.018,56.712 L28.018,71 Z M28.018,79.2881 C28.018,79.8503259 27.5622259,80.3061 27,80.3061 C26.4377741,80.3061 25.982,79.8503259 25.982,79.2881 L25.982,75.0001 C25.982,74.4378741 26.4377741,73.9821 27,73.9821 C27.5622259,73.9821 28.018,74.4378741 28.018,75.0001 L28.018,79.2881 Z M71.982,69.9995 C71.982,69.4372741 72.4377741,68.9815 73,68.9815 C73.5622259,68.9815 74.018,69.4372741 74.018,69.9995 L74.018,79.2885 C74.018,79.8507259 73.5622259,80.3065 73,80.3065 C72.4377741,80.3065 71.982,79.8507259 71.982,79.2885 L71.982,69.9995 Z M54.018,76 C54.018,76.5622259 53.5622259,77.018 53,77.018 C52.4377741,77.018 51.982,76.5622259 51.982,76 L51.982,56.712 C51.982,55.2047741 53.2047741,53.982 54.712,53.982 L71.288,53.982 C72.7952259,53.982 74.018,55.2047741 74.018,56.712 L74.018,66 C74.018,66.5622259 73.5622259,67.018 73,67.018 C72.4377741,67.018 71.982,66.5622259 71.982,66 L71.982,56.712 C71.982,56.3292259 71.6707741,56.018 71.288,56.018 L54.712,56.018 C54.3292259,56.018 54.018,56.3292259 54.018,56.712 L54.018,76 Z M19,69 C19,68.1715729 19.6715729,67.5 20.5,67.5 C21.3284271,67.5 22,68.1715729 22,69 L22,73 C22,73.8284271 21.3284271,74.5 20.5,74.5 C19.6715729,74.5 19,73.8284271 19,73 L19,69 Z M80.1146405,34.6617102 C80.6534055,34.9037253 81,35.439374 81,36.03 L81,73 C81,73.8284271 80.3284271,74.5 79.5,74.5 C78.6715729,74.5 78,73.8284271 78,73 L78,36.9579904 C74.6352933,35.1161139 72.2910285,31.8279267 71.6662718,28.036534 C70.6498924,28.3418094 69.5856434,28.5 68.5,28.5 C62.4718505,28.5 57.6355007,23.9198676 57.5027981,18 L24.5,18 C22.9443715,18 22,18.7741204 22,19.97 L22,64 C22,64.8284271 21.3284271,65.5 20.5,65.5 C19.6715729,65.5 19,64.8284271 19,64 L19,19.97 C19,16.9709986 21.4044771,15 24.5,15 L59.13,15 C60.3887814,15 60.8552975,16.1883979 60.5295483,17.0692606 C60.5114976,17.2664291 60.5,17.5328205 60.5,17.75 C60.5,22.1081996 64.0197639,25.5 68.5,25.5 C69.8439482,25.5 71.1378418,25.168496 72.2943833,24.5440843 C73.3064635,23.9976667 74.5316434,24.7467081 74.5066457,25.896601 C74.5031262,25.9866368 74.5029708,25.9906097 74.5000441,26.0290859 C74.5114454,29.79097 76.7340408,33.1431331 80.1146405,34.6617102 Z M81,84 C81,84.8284271 80.3284271,85.5 79.5,85.5 C78.6715729,85.5 78,84.8284271 78,84 L78,78 C78,77.1715729 78.6715729,76.5 79.5,76.5 C80.3284271,76.5 81,77.1715729 81,78 L81,84 Z" id="Sweets" fill="#2F313A" fill-rule="nonzero"></path>
    </g>
</svg>