<?xml version="1.0" encoding="UTF-8"?>
<svg width="40px" height="40px" viewBox="0 0 40 40" version="1.1" xmlns="http://www.w3.org/2000/svg" xmlns:xlink="http://www.w3.org/1999/xlink">
    <title>Vector Files/40x40/Flattened/Social/Dribbble</title>
    <g id="40x40/Flattened/Social/Dribbble" stroke="none" stroke-width="1" fill="none" fill-rule="evenodd">
        <path d="M31,20 C31,13.9258847 26.0741153,9 20,9 C13.9251146,9 9,13.9254548 9,20 C9,26.0753153 13.9246847,31 20,31 C26.0745452,31 31,26.0748854 31,20 Z M33,20 C33,27.1794858 27.1790837,33 20,33 C12.8201153,33 7,27.1798847 7,20 C7,12.8209163 12.8205142,7 20,7 C27.1786847,7 33,12.8213153 33,20 Z M20,12 C15.5887742,12 12,15.5887742 12,20 C12,24.4112258 15.5887742,28 20,28 C24.4112258,28 28,24.4112258 28,20 C28,15.5887742 24.4112258,12 20,12 Z M25.2893548,15.6892258 C26.2410645,16.852 26.8173871,18.333 26.8324194,19.9458387 C26.607129,19.8981935 24.3479677,19.4399677 22.0742903,19.7259032 C21.8887419,19.2729677 21.7136129,18.8745161 21.4737419,18.3835161 C24.0002258,17.352 25.1452903,15.8840968 25.2893548,15.6892258 L25.2893548,15.6892258 Z M24.5297097,14.8990323 C24.4068065,15.0740968 23.3781935,16.4566452 20.9483871,17.3673871 C19.8286452,15.3100968 18.5875806,13.6200323 18.3987097,13.367129 C20.5656774,12.8447742 22.8492258,13.4080968 24.5297097,14.8990323 L24.5297097,14.8990323 Z M17.094871,13.8264516 C17.2750323,14.0735161 18.4960968,15.7656774 19.6283226,17.7783548 C16.4319677,18.6271613 13.6167097,18.6149355 13.3110968,18.6109032 C13.7541935,16.4904839 15.1831613,14.7281613 17.094871,13.8264516 Z M13.1667742,20.0104194 C13.1667742,19.9405484 13.1681613,19.871 13.1702581,19.8016129 C13.4692258,19.8077419 16.7805806,19.8504194 20.1930323,18.8291613 C20.3886452,19.212 20.5755161,19.6006129 20.7470323,19.9888065 C18.2760968,20.6847742 16.0310968,22.6832258 14.9234516,24.5793226 C13.8320645,23.3679032 13.1667742,21.7654839 13.1667742,20.0104194 Z M15.8057097,25.4011613 C16.5194839,23.9420323 18.4566129,22.0585161 21.2114839,21.1187097 C22.1708387,23.6117097 22.5675806,25.7010645 22.6691935,26.3005806 C20.4720323,27.2364839 17.83,26.9797097 15.8057097,25.4011613 L15.8057097,25.4011613 Z M23.8179677,25.675 C23.7479355,25.2593226 23.3842258,23.2589677 22.4904839,20.8029677 C24.6317742,20.4601935 26.5130645,21.0212903 26.7468387,21.0950645 C26.4422581,22.9963871 25.3509355,24.6384194 23.8179677,25.675 Z" id="Dribbble" fill="#2F313A" fill-rule="nonzero"></path>
    </g>
</svg>