<svg height="40" viewBox="0 0 40 40" width="40" xmlns="http://www.w3.org/2000/svg"><path d="m13 0c7.1786847 0 13 5.82131525 13 13 0 7.1794858-5.8209163 13-13 13-7.17988475 0-13-5.8201153-13-13 0-7.17908374 5.82051421-13 13-13zm0 5c-4.41122581 0-8 3.58877419-8 8 0 4.4112258 3.58877419 8 8 8 4.4112258 0 8-3.5887742 8-8 0-4.41122581-3.5887742-8-8-8zm1.2114839 9.1187097c.9593548 2.493 1.3560967 4.5823548 1.4577096 5.1818709-2.1971612.9359033-4.8391935.6791291-6.86348382-.8994193.71377419-1.459129 2.65090322-3.3426452 5.40577422-4.2824516zm5.5353548-.0236452c-.3045806 1.9013226-1.3959032 3.5433549-2.928871 4.5799355-.0700322-.4156774-.4337419-2.4160323-1.3274838-4.8720323 2.1412903-.3427742 4.0225806.2183226 4.2563548.2920968zm-6.5538064-2.2659032c.1956129.3828387.3824838.7714516.554 1.1596452-2.4709355.6959677-4.71593553 2.6944193-5.82358069 4.5905161-1.09138709-1.2114194-1.75667742-2.8138387-1.75667742-4.5689032 0-.069871.0013871-.1394194.00348387-.2088065.29896775.006129 3.61032259.0488065 7.02277424-.9724516zm5.0963225-3.13993549c.9517097 1.16277419 1.5280323 2.64377419 1.5430646 4.25661289-.2252904-.0476452-2.4844517-.505871-4.7581291-.2199355-.1855484-.4529355-.3606774-.8513871-.6005484-1.3423871 2.5264839-1.0315161 3.6715484-2.49941933 3.8156129-2.69429029zm-8.1944838-1.8627742c.1801613.24706452 1.4012258 1.93922581 2.5334516 3.95190319-3.19635486.8488065-6.01161292.8365807-6.31722583.8325484.44309678-2.12041933 1.87206452-3.88274191 3.78377423-4.78445159zm7.4348387 1.07258065c-.1229032.17506451-1.1515162 1.5576129-3.5813226 2.46835484-1.1197419-2.05729033-2.3608065-3.74735484-2.5496774-4.00025807 2.1669677-.52235484 4.4505161.04096774 6.131 1.53190323z" fill="#2F313A" transform="translate(7 7)"/></svg>