<?xml version="1.0" encoding="UTF-8"?>
<svg width="40px" height="40px" viewBox="0 0 40 40" version="1.1" xmlns="http://www.w3.org/2000/svg" xmlns:xlink="http://www.w3.org/1999/xlink">
    <title>Vector Files/40x40/Flattened/Social/Dribbble (Filled)</title>
    <g id="40x40/Flattened/Social/Dribbble-(Filled)" stroke="none" stroke-width="1" fill="none" fill-rule="evenodd">
        <g id="Icon" transform="translate(7.000000, 7.000000)" fill="#2F313A" fill-rule="nonzero">
            <path d="M13,0 C20.1786847,0 26,5.82131525 26,13 C26,20.1794858 20.1790837,26 13,26 C5.82011525,26 0,20.1798847 0,13 C0,5.82091626 5.82051421,0 13,0 Z M13,5 C8.58877419,5 5,8.58877419 5,13 C5,17.4112258 8.58877419,21 13,21 C17.4112258,21 21,17.4112258 21,13 C21,8.58877419 17.4112258,5 13,5 Z M14.2114839,14.1187097 C15.1708387,16.6117097 15.5675806,18.7010645 15.6691935,19.3005806 C13.4720323,20.2364839 10.83,19.9797097 8.80570968,18.4011613 C9.51948387,16.9420323 11.4566129,15.0585161 14.2114839,14.1187097 Z M19.7468387,14.0950645 C19.4422581,15.9963871 18.3509355,17.6384194 16.8179677,18.675 C16.7479355,18.2593226 16.3842258,16.2589677 15.4904839,13.8029677 C17.6317742,13.4601935 19.5130645,14.0212903 19.7468387,14.0950645 Z M13.1930323,11.8291613 C13.3886452,12.212 13.5755161,12.6006129 13.7470323,12.9888065 C11.2760968,13.6847742 9.03109677,15.6832258 7.92345161,17.5793226 C6.83206452,16.3679032 6.16677419,14.7654839 6.16677419,13.0104194 C6.16677419,12.9405484 6.16816129,12.871 6.17025806,12.8016129 C6.46922581,12.8077419 9.78058065,12.8504194 13.1930323,11.8291613 Z M18.2893548,8.68922581 C19.2410645,9.852 19.8173871,11.333 19.8324194,12.9458387 C19.607129,12.8981935 17.3479677,12.4399677 15.0742903,12.7259032 C14.8887419,12.2729677 14.7136129,11.8745161 14.4737419,11.3835161 C17.0002258,10.352 18.1452903,8.88409677 18.2893548,8.68922581 Z M10.094871,6.82645161 C10.2750323,7.07351613 11.4960968,8.76567742 12.6283226,10.7783548 C9.43196774,11.6271613 6.61670968,11.6149355 6.31109677,11.6109032 C6.75419355,9.49048387 8.18316129,7.72816129 10.094871,6.82645161 Z M17.5297097,7.89903226 C17.4068065,8.07409677 16.3781935,9.45664516 13.9483871,10.3673871 C12.8286452,8.31009677 11.5875806,6.62003226 11.3987097,6.36712903 C13.5656774,5.84477419 15.8492258,6.40809677 17.5297097,7.89903226 Z" id="Combined-Shape"></path>
        </g>
    </g>
</svg>