<svg height="40" viewBox="0 0 40 40" width="40" xmlns="http://www.w3.org/2000/svg"><path d="m31 20c0-6.0741153-4.9258847-11-11-11-6.0748854 0-11 4.9254548-11 11 0 6.0753153 4.9246847 11 11 11 6.0745452 0 11-4.9251146 11-11zm2 0c0 7.1794858-5.8209163 13-13 13-7.1798847 0-13-5.8201153-13-13 0-7.1790837 5.8205142-13 13-13 7.1786847 0 13 5.8213153 13 13zm-13-8c-4.4112258 0-8 3.5887742-8 8s3.5887742 8 8 8 8-3.5887742 8-8-3.5887742-8-8-8zm5.2893548 3.6892258c.9517097 1.1627742 1.5280323 2.6437742 1.5430646 4.2566129-.2252904-.0476452-2.4844517-.505871-4.7581291-.2199355-.1855484-.4529355-.3606774-.8513871-.6005484-1.3423871 2.5264839-1.0315161 3.6715484-2.4994193 3.8156129-2.6942903zm-.7596451-.7901935c-.1229032.1750645-1.1515162 1.5576129-3.5813226 2.4683548-1.1197419-2.0572903-2.3608065-3.7473548-2.5496774-4.0002581 2.1669677-.5223548 4.4505161.0409678 6.131 1.5319033zm-7.4348387-1.0725807c.1801613.2470645 1.4012258 1.9392258 2.5334516 3.9519032-3.1963549.8488065-6.0116129.8365807-6.3172258.8325484.4430967-2.1204193 1.8720645-3.8827419 3.7837742-4.7844516zm-3.9280968 6.1839678c0-.069871.0013871-.1394194.0034839-.2088065.2989677.006129 3.6103225.0488065 7.0227742-.9724516.1956129.3828387.3824838.7714516.554 1.1596452-2.4709355.6959677-4.7159355 2.6944193-5.8235807 4.5905161-1.0913871-1.2114194-1.7566774-2.8138387-1.7566774-4.5689032zm2.6389355 5.3907419c.7137742-1.459129 2.6509032-3.3426452 5.4057742-4.2824516.9593548 2.493 1.3560967 4.5823548 1.4577096 5.1818709-2.1971612.9359033-4.8391935.6791291-6.8634838-.8994193zm8.012258.2738387c-.0700322-.4156774-.4337419-2.4160323-1.3274838-4.8720323 2.1412903-.3427742 4.0225806.2183226 4.2563548.2920968-.3045806 1.9013226-1.3959032 3.5433549-2.928871 4.5799355z" fill="#2f313a"/></svg>