<?xml version="1.0" encoding="UTF-8"?>
<svg width="40px" height="40px" viewBox="0 0 40 40" version="1.1" xmlns="http://www.w3.org/2000/svg" xmlns:xlink="http://www.w3.org/1999/xlink">
    <!-- Generator: Sketch 59.1 (86144) - https://sketch.com -->
    <title>Vector Files/40x40/Flattened/Social/Facebook (Filled)</title>
    <desc>Created with Sketch.</desc>
    <g id="40x40/Flattened/Social/Facebook-(Filled)" stroke="none" stroke-width="1" fill="none" fill-rule="evenodd">
        <g id="Icon" transform="translate(7.000000, 7.000000)" fill="#2F313A" fill-rule="nonzero">
            <path d="M13,0 C20.1786847,0 26,5.82131525 26,13 C26,20.1794858 20.1790837,26 13,26 C5.82011525,26 0,20.1798847 0,13 C0,5.82091626 5.82051421,0 13,0 Z M14.2109443,6.49998569 C12.4453172,6.49998569 11.2343783,7.57811198 11.2343783,9.55467684 L11.2343783,9.55467684 L11.2343783,11.2578039 L9.24218838,11.2578039 L9.24218838,13.5703066 L11.2343783,13.5703066 L11.2343783,19.5000012 L13.6250061,19.5000012 L13.6250061,13.5703066 L15.6093835,13.5703066 L15.9140713,11.2578039 L13.6250061,11.2578039 L13.6250061,9.78123961 C13.6250061,9.11717631 13.8046938,8.65623827 14.7656325,8.65623827 L14.7656325,8.65623827 L15.9921964,8.65623827 L15.9921964,6.59373581 C15.7812587,6.56248577 15.0546953,6.49998569 14.2109443,6.49998569 Z" id="Combined-Shape"></path>
        </g>
    </g>
</svg>