<?xml version="1.0" encoding="UTF-8"?>
<svg width="40px" height="40px" viewBox="0 0 40 40" version="1.1" xmlns="http://www.w3.org/2000/svg" xmlns:xlink="http://www.w3.org/1999/xlink">
    <!-- Generator: Sketch 59.1 (86144) - https://sketch.com -->
    <title>Vector Files/40x40/Flattened/Social/Facebook</title>
    <desc>Created with Sketch.</desc>
    <g id="40x40/Flattened/Social/Facebook" stroke="none" stroke-width="1" fill="none" fill-rule="evenodd">
        <path d="M31,20 C31,13.9258847 26.0741153,9 20,9 C13.9251146,9 9,13.9254548 9,20 C9,26.0753153 13.9246847,31 20,31 C26.0745452,31 31,26.0748854 31,20 Z M33,20 C33,27.1794858 27.1790837,33 20,33 C12.8201153,33 7,27.1798847 7,20 C7,12.8209163 12.8205142,7 20,7 C27.1786847,7 33,12.8213153 33,20 Z M22.9921964,13.5937358 L22.9921964,15.6562383 L21.7656325,15.6562383 C20.8046938,15.6562383 20.6250061,16.1171763 20.6250061,16.7812396 L20.6250061,18.2578039 L22.9140713,18.2578039 L22.6093835,20.5703066 L20.6250061,20.5703066 L20.6250061,26.5000012 L18.2343783,26.5000012 L18.2343783,20.5703066 L16.2421884,20.5703066 L16.2421884,18.2578039 L18.2343783,18.2578039 L18.2343783,16.5546768 C18.2343783,14.578112 19.4453172,13.4999857 21.2109443,13.4999857 C22.0546953,13.4999857 22.7812587,13.5624858 22.9921964,13.5937358 Z" id="Facebook" fill="#2F313A" fill-rule="nonzero"></path>
    </g>
</svg>