<svg height="40" viewBox="0 0 40 40" width="40" xmlns="http://www.w3.org/2000/svg"><path d="m31 20c0-6.0741153-4.9258847-11-11-11-6.0748854 0-11 4.9254548-11 11 0 6.0753153 4.9246847 11 11 11 6.0745452 0 11-4.9251146 11-11zm2 0c0 7.1794858-5.8209163 13-13 13-7.1798847 0-13-5.8201153-13-13 0-7.1790837 5.8205142-13 13-13 7.1786847 0 13 5.8213153 13 13zm-12.8967742-8c4.4741936 0 7.8967742 3.4838174 7.8967742 8.0726633 0 3.6690916-2.2516129 6.8088283-5.4677419 7.9138568-.4129033.0760948-.5580646-.1852742-.5580646-.4003247l.0096775-2.0313997.1806572.0315735c.5222509.0773771 2.0265038.1985285 2.4963487-.8711228l.0977296-.2484869c.101815-.2332073.3791885-.8037549.750702-1.0501285l.1035947-.0586584s.6629971-.4661916.0607989-.5068252l-.1124118-.002679s-.711508.0586137-1.1636593.7219829l-.081502.131602c-.7064516 1.2770689-1.8903225.9098289-2.3516129.69147-.0741935-.529355-.2838709-.896595-.516129-1.114954l.5830764-.0723344c1.59226-.2247994 3.0395042-.7448573 3.0395042-3.5835233 0-.9098289-.2451612-1.3663975-.7612903-1.948688l.0360282-.1031141c.1024471-.3241363.2700439-1.1332801-.1198991-2.1433361-.6741936-.2150504-2.2258065.8932865-2.2258065.8932865-.6451613-.1852742-1.3387097-.2812198-2.0258065-.2812198-.6870967 0-1.3806451.0959456-2.0258064.2812198l-.231094-.1560992c-.458029-.2978586-1.4810412-.903556-1.9947125-.7371873-.4419354 1.1480386-.1677419 2.0313997-.0838709 2.2464502-.5161291.5855989-.8322581 1.0421676-.8322581 1.948688 0 3.1926721 1.9 3.4474242 3.7032258 3.6558577-.2967742.2613691-.5483871.7576393-.5483871 1.5351295l.0096774 2.7658797c0 .2150504-.1483871.4764195-.5580645.4003247-3.2258064-1.0984116-5.4129032-4.2381483-5.4129032-7.9072399 0-4.5888459 3.6290323-8.0726633 8.1032258-8.0726633z" fill="#2F313A"/></svg>