<svg height="40" viewBox="0 0 40 40" width="40" xmlns="http://www.w3.org/2000/svg"><path d="m13 0c7.1786847 0 13 5.82131525 13 13 0 7.1794858-5.8209163 13-13 13-7.17988475 0-13-5.8201153-13-13 0-7.17908374 5.82051421-13 13-13zm.1032258 5c-4.47419354 0-8.1032258 3.4838174-8.1032258 8.0726633 0 3.6690916 2.18709677 6.8088283 5.4129032 7.9072399.4096774.0760948.5580645-.1852743.5580645-.4003247l-.0096774-2.7658797c0-.7774902.2516129-1.2737604.5483871-1.5351295-1.80322579-.2084335-3.70322579-.4631856-3.70322579-3.6558577 0-.9065204.31612904-1.3630891.83225807-1.948688-.08387097-.2150505-.35806452-1.09841157.08387097-2.24645016.51367127-.16636871 1.53668345.43932861 1.99471245.73718724l.231094.15609927c.6451613-.18527424 1.3387097-.28121983 2.0258064-.28121983.6870968 0 1.3806452.09594559 2.0258065.28121983 0 0 1.5516129-1.10833697 2.2258065-.89328651.389943 1.01005599.2223462 1.81919976.1198991 2.14333606l-.0360282.1031141c.5161291.5822905.7612903 1.0388591.7612903 1.948688 0 2.838666-1.4472442 3.3587239-3.0395042 3.5835233l-.5830764.0723344c.2322581.218359.4419355.585599.516129 1.114954.4612904.2183589 1.6451613.5855989 2.3516129-.69147l.081502-.131602c.3956324-.580448.9898348-.6978801 1.1322036-.7181687l.0314557-.0038142.1124118.002679c.6021982.0406336-.0607989.5068252-.0607989.5068252l-.1035947.0586584c-.3715135.2463736-.648887.8169212-.750702 1.0501285l-.0977296.2484869c-.4698449 1.0696513-1.9740978.9484999-2.4963487.8711228l-.1806572-.0315735-.0096775 2.0313997c0 .2150505.1451613.4764195.5580646.4003247 3.216129-1.1050285 5.4677419-4.2447652 5.4677419-7.9138568 0-4.5888459-3.4225806-8.0726633-7.8967742-8.0726633z" fill="#2f313a" transform="translate(7 7)"/></svg>