<?xml version="1.0" encoding="UTF-8"?>
<svg width="40px" height="40px" viewBox="0 0 40 40" version="1.1" xmlns="http://www.w3.org/2000/svg" xmlns:xlink="http://www.w3.org/1999/xlink">
    <!-- Generator: Sketch 59.1 (86144) - https://sketch.com -->
    <title>Vector Files/40x40/Flattened/Social/Instagram (Filled)</title>
    <desc>Created with Sketch.</desc>
    <g id="40x40/Flattened/Social/Instagram-(Filled)" stroke="none" stroke-width="1" fill="none" fill-rule="evenodd">
        <g id="Icon" transform="translate(7.000000, 7.000000)" fill="#2F313A" fill-rule="nonzero">
            <path d="M13,0 C20.1786847,0 26,5.82131525 26,13 C26,20.1794858 20.1790837,26 13,26 C5.82011525,26 0,20.1798847 0,13 C0,5.82091626 5.82051421,0 13,0 Z M13.6198809,6.99949861 L12.3801334,6.99949861 C11.7612361,6.99949861 11.1445362,7.00389314 10.5234417,7.03904943 C9.56250305,7.08592449 8.71093954,7.30467475 8.0078137,8.00780059 C7.30468786,8.71092643 7.0859376,9.56248994 7.03906255,10.5234286 C6.99218749,11.3515546 7,12.1718681 7,12.999994 C7,13.82812 6.99218749,14.6484335 7.03906255,15.4765595 C7.0859376,16.4374981 7.30468786,17.2890617 8.0078137,17.9921875 C8.71093954,18.6953133 9.56250305,18.9140636 10.5234417,18.9609386 C11.3515677,19.0078137 12.1718812,19.0000012 13.0000072,19.0000012 L13.6198809,19.0004895 C14.2387782,19.0004895 14.8554781,18.9960949 15.4765726,18.9609386 C16.4375113,18.9140636 17.2890748,18.6953133 17.9922006,17.9921875 C18.6953264,17.2890617 18.9140767,16.4374981 18.9609518,15.4765595 C19.0078268,14.6484335 19.0000143,13.82812 19.0000143,12.999994 L19.0005026,12.3801203 C19.0005026,11.761223 18.9961081,11.1445231 18.9609518,10.5234286 C18.9140767,9.56248994 18.6953264,8.71092643 17.9922006,8.00780059 C17.2890748,7.30467475 16.4375113,7.08592449 15.4765726,7.03904943 C14.6484466,6.99217438 13.8281331,6.99998689 13.0000072,6.99998689 Z M9.46094043,8.32030096 C10.2500039,8.00780059 12.1250061,8.07811317 13.0000072,8.07811317 C13.8750082,8.07811317 15.7500104,8.00780059 16.5390739,8.32030096 C16.8125117,8.42967609 17.0156369,8.56248875 17.2265747,8.7734265 C17.4375124,8.98436425 17.5703251,9.18748949 17.6797002,9.46092732 C17.9922006,10.2499908 17.921888,12.124993 17.921888,12.999994 C17.921888,13.8749951 17.9922006,15.7499973 17.6797002,16.5390608 C17.5703251,16.8124986 17.4375124,17.0156238 17.2265747,17.2265616 C17.0156369,17.4374993 16.8125117,17.570312 16.5390739,17.6796871 C15.7500104,17.9921875 13.8750082,17.9218749 13.0000072,17.9218749 C12.1250061,17.9218749 10.2500039,17.9921875 9.46094043,17.6796871 C9.18750261,17.570312 8.98437737,17.4374993 8.77343961,17.2265616 C8.56250186,17.0156238 8.4296892,16.8124986 8.32031407,16.5390608 C8.0078137,15.7499973 8.07812629,13.8749951 8.07812629,12.999994 C8.07812629,12.124993 8.0078137,10.2499908 8.32031407,9.46092732 C8.4296892,9.18748949 8.56250186,8.98436425 8.77343961,8.7734265 C8.98437737,8.56248875 9.18750261,8.42967609 9.46094043,8.32030096 Z M13.0000072,9.92186537 C11.2968801,9.92186537 9.92187848,11.296867 9.92187848,12.999994 C9.92187848,14.7031211 11.2968801,16.0781227 13.0000072,16.0781227 C14.7031342,16.0781227 16.0781358,14.7031211 16.0781358,12.999994 C16.0781358,11.296867 14.7031342,9.92186537 13.0000072,9.92186537 Z M13.0000048,10.9999917 C14.101571,10.9999917 15.0000048,11.8984302 15.0000048,12.9999917 C15.0000048,14.1015579 14.101571,14.9999917 13.0000048,14.9999917 C11.8984433,14.9999917 11.0000048,14.1015579 11.0000048,12.9999917 C11.0000048,11.8984302 11.8984433,10.9999917 13.0000048,10.9999917 Z M16.203136,9.07811436 C15.804698,9.07811436 15.4843851,9.39842725 15.4843851,9.79686522 C15.4843851,10.1953032 15.804698,10.5156161 16.203136,10.5156161 C16.6015739,10.5156161 16.9218868,10.1953032 16.9218868,9.79686522 C16.9218868,9.39842725 16.6015739,9.07811436 16.203136,9.07811436 Z" id="Combined-Shape"></path>
        </g>
    </g>
</svg>