<?xml version="1.0" encoding="UTF-8"?>
<svg width="40px" height="40px" viewBox="0 0 40 40" version="1.1" xmlns="http://www.w3.org/2000/svg" xmlns:xlink="http://www.w3.org/1999/xlink">
    <!-- Generator: Sketch 59.1 (86144) - https://sketch.com -->
    <title>Vector Files/40x40/Flattened/Social/Instagram</title>
    <desc>Created with Sketch.</desc>
    <g id="40x40/Flattened/Social/Instagram" stroke="none" stroke-width="1" fill="none" fill-rule="evenodd">
        <path d="M31,20 C31,13.9258847 26.0741153,9 20,9 C13.9251146,9 9,13.9254548 9,20 C9,26.0753153 13.9246847,31 20,31 C26.0745452,31 31,26.0748854 31,20 Z M33,20 C33,27.1794858 27.1790837,33 20,33 C12.8201153,33 7,27.1798847 7,20 C7,12.8209163 12.8205142,7 20,7 C27.1786847,7 33,12.8213153 33,20 Z M22.0000048,19.9999917 C22.0000048,21.1015579 21.101571,21.9999917 20.0000048,21.9999917 C18.8984433,21.9999917 18.0000048,21.1015579 18.0000048,19.9999917 C18.0000048,18.8984302 18.8984433,17.9999917 20.0000048,17.9999917 C21.101571,17.9999917 22.0000048,18.8984302 22.0000048,19.9999917 Z M23.0781358,19.999994 C23.0781358,18.296867 21.7031342,16.9218654 20.0000072,16.9218654 C18.2968801,16.9218654 16.9218785,18.296867 16.9218785,19.999994 C16.9218785,21.7031211 18.2968801,23.0781227 20.0000072,23.0781227 C21.7031342,23.0781227 23.0781358,21.7031211 23.0781358,19.999994 Z M23.9218868,16.7968652 C23.9218868,16.3984272 23.6015739,16.0781144 23.203136,16.0781144 C22.804698,16.0781144 22.4843851,16.3984272 22.4843851,16.7968652 C22.4843851,17.1953032 22.804698,17.5156161 23.203136,17.5156161 C23.6015739,17.5156161 23.9218868,17.1953032 23.9218868,16.7968652 Z M26.0000143,19.999994 C26.0000143,20.82812 26.0078268,21.6484335 25.9609518,22.4765595 C25.9140767,23.4374981 25.6953264,24.2890617 24.9922006,24.9921875 C24.2890748,25.6953133 23.4375113,25.9140636 22.4765726,25.9609386 C21.6484466,26.0078137 20.8281331,26.0000012 20.0000072,26.0000012 C19.1718812,26.0000012 18.3515677,26.0078137 17.5234417,25.9609386 C16.5625031,25.9140636 15.7109395,25.6953133 15.0078137,24.9921875 C14.3046879,24.2890617 14.0859376,23.4374981 14.0390625,22.4765595 C13.9921875,21.6484335 14,20.82812 14,19.999994 C14,19.1718681 13.9921875,18.3515546 14.0390625,17.5234286 C14.0859376,16.5624899 14.3046879,15.7109264 15.0078137,15.0078006 C15.7109395,14.3046748 16.5625031,14.0859245 17.5234417,14.0390494 C18.3515677,13.9921744 19.1718812,13.9999869 20.0000072,13.9999869 C20.8281331,13.9999869 21.6484466,13.9921744 22.4765726,14.0390494 C23.4375113,14.0859245 24.2890748,14.3046748 24.9922006,15.0078006 C25.6953264,15.7109264 25.9140767,16.5624899 25.9609518,17.5234286 C26.0078268,18.3515546 26.0000143,19.1718681 26.0000143,19.999994 Z" id="Instagram" fill="#2F313A" fill-rule="nonzero"></path>
    </g>
</svg>