<?xml version="1.0" encoding="UTF-8"?>
<svg width="40px" height="40px" viewBox="0 0 40 40" version="1.1" xmlns="http://www.w3.org/2000/svg" xmlns:xlink="http://www.w3.org/1999/xlink">
    <!-- Generator: Sketch 59.1 (86144) - https://sketch.com -->
    <title>Vector Files/40x40/Flattened/Social/LinkedIn</title>
    <desc>Created with Sketch.</desc>
    <g id="40x40/Flattened/Social/LinkedIn" stroke="none" stroke-width="1" fill="none" fill-rule="evenodd">
        <path d="M31,20 C31,13.9258847 26.0741153,9 20,9 C13.9251146,9 9,13.9254548 9,20 C9,26.0753153 13.9246847,31 20,31 C26.0745452,31 31,26.0748854 31,20 Z M33,20 C33,27.1794858 27.1790837,33 20,33 C12.8201153,33 7,27.1798847 7,20 C7,12.8209163 12.8205142,7 20,7 C27.1786847,7 33,12.8213153 33,20 Z M16.7265658,16.882804 L16.7265658,24.6250007 L14.1484377,24.6250007 L14.1484377,16.882804 L16.7265658,16.882804 Z M16.8906284,14.4921762 C16.898441,15.2343646 16.3359403,15.8281153 15.4375017,15.8281153 L15.4218767,15.8281153 C14.5546882,15.8281153 14,15.2343646 14,14.4921762 C14,13.7343628 14.5781257,13.1562371 15.4531267,13.1562371 C16.3359403,13.1562371 16.8828159,13.7343628 16.8906284,14.4921762 Z M20.718758,17.9832363 C21.0579146,17.4530514 21.6697388,16.7031163 23.0390733,16.7031163 C24.7343878,16.7031163 26.0000143,17.8124926 26.0000143,20.1874955 L26.0000143,24.6250007 L23.4296987,24.6250007 L23.4296987,20.4843708 C23.4296987,19.4453071 23.0546983,18.7343687 22.1250097,18.7343687 C21.4140713,18.7343687 20.9921958,19.2109318 20.8046956,19.6718698 C20.7421955,19.843745 20.718758,20.0703078 20.718758,20.3046831 L20.718758,24.6250007 L18.1484424,24.6250007 C18.1796925,17.6093674 18.1484424,16.882804 18.1484424,16.882804 L20.718758,16.882804 L20.718758,17.9832363 L20.718758,17.9832363 Z" id="LinkedIn" fill="#2F313A" fill-rule="nonzero"></path>
    </g>
</svg>