<?xml version="1.0" encoding="UTF-8"?>
<svg width="40px" height="40px" viewBox="0 0 40 40" version="1.1" xmlns="http://www.w3.org/2000/svg" xmlns:xlink="http://www.w3.org/1999/xlink">
    <!-- Generator: Sketch 59.1 (86144) - https://sketch.com -->
    <title>Vector Files/40x40/Flattened/Social/LinkedIn (Filled)</title>
    <desc>Created with Sketch.</desc>
    <g id="40x40/Flattened/Social/LinkedIn-(Filled)" stroke="none" stroke-width="1" fill="none" fill-rule="evenodd">
        <g id="Icon" transform="translate(7.000000, 7.000000)" fill="#2F313A" fill-rule="nonzero">
            <path d="M13,0 C20.1786847,0 26,5.82131525 26,13 C26,20.1794858 20.1790837,26 13,26 C5.82011525,26 0,20.1798847 0,13 C0,5.82091626 5.82051421,0 13,0 Z M9.72656575,9.88280402 L7.14843768,9.88280402 L7.14843768,17.6250007 L9.72656575,17.6250007 L9.72656575,9.88280402 Z M16.0390733,9.7031163 C14.6697388,9.7031163 14.0579146,10.4530514 13.718758,10.9832363 L13.718758,10.9832363 L13.718758,9.88280402 L11.1484424,9.88280402 C11.1484424,9.88280402 11.1796925,10.6093674 11.1484424,17.6250007 L11.1484424,17.6250007 L13.718758,17.6250007 L13.718758,13.3046831 C13.718758,13.0703078 13.7421955,12.843745 13.8046956,12.6718698 C13.9921958,12.2109318 14.4140713,11.7343687 15.1250097,11.7343687 C16.0546983,11.7343687 16.4296987,12.4453071 16.4296987,13.4843708 L16.4296987,13.4843708 L16.4296987,17.6250007 L19.0000143,17.6250007 L19.0000143,13.1874955 C19.0000143,10.8124926 17.7343878,9.7031163 16.0390733,9.7031163 Z M8.45312673,6.15623707 C7.57812569,6.15623707 7,6.73436276 7,7.49217617 C7,8.23436455 7.55468816,8.82811526 8.4218767,8.82811526 L8.4218767,8.82811526 L8.43750171,8.82811526 C9.33594028,8.82811526 9.89844096,8.23436455 9.89062845,7.49217617 C9.88281594,6.73436276 9.33594028,6.15623707 8.45312673,6.15623707 Z" id="Combined-Shape"></path>
        </g>
    </g>
</svg>