<?xml version="1.0" encoding="UTF-8"?>
<svg width="40px" height="40px" viewBox="0 0 40 40" version="1.1" xmlns="http://www.w3.org/2000/svg" xmlns:xlink="http://www.w3.org/1999/xlink">
    <!-- Generator: Sketch 59.1 (86144) - https://sketch.com -->
    <title>Vector Files/40x40/Flattened/Social/Twitter</title>
    <desc>Created with Sketch.</desc>
    <g id="40x40/Flattened/Social/Twitter" stroke="none" stroke-width="1" fill="none" fill-rule="evenodd">
        <path d="M31,20 C31,13.9258847 26.0741153,9 20,9 C13.9251146,9 9,13.9254548 9,20 C9,26.0753153 13.9246847,31 20,31 C26.0745452,31 31,26.0748854 31,20 Z M33,20 C33,27.1794858 27.1790837,33 20,33 C12.8201153,33 7,27.1798847 7,20 C7,12.8209163 12.8205142,7 20,7 C27.1786847,7 33,12.8213153 33,20 Z M26.1562651,16.6874895 C25.8125147,17.1874901 25.3828267,17.6328031 24.8906386,17.9921785 C24.8984511,18.1015537 24.8984511,18.2109288 24.8984511,18.3203039 C24.8984511,21.6562454 22.3593856,25.5 17.718755,25.5 C16.2890658,25.5 14.9609392,25.085937 13.8437504,24.3671861 C14.0468757,24.3906237 14.2421884,24.3984362 14.4531261,24.3984362 C15.632815,24.3984362 16.7187538,23.9999982 17.5859424,23.3203099 C16.476566,23.2968724 15.5468774,22.570309 15.2265646,21.5703078 C15.3828147,21.5937453 15.5390649,21.6093704 15.7031276,21.6093704 C15.9296904,21.6093704 16.1562532,21.5781203 16.3671909,21.5234328 C15.2109395,21.2890575 14.3437504,20.2734313 14.3437504,19.0468673 L14.3437504,19.0156173 C14.6796889,19.2031175 15.0703144,19.3203051 15.4843774,19.3359302 C14.8046891,18.8828046 14.359376,18.1093662 14.359376,17.2343651 C14.359376,16.7656146 14.4843762,16.3359266 14.7031264,15.9609261 C15.9453154,17.492178 17.8125051,18.4921791 19.9062576,18.6015543 C19.8671951,18.4140541 19.8437504,18.2187413 19.8437504,18.0234286 C19.8437504,16.6328019 20.9687589,15.4999881 22.3671981,15.4999881 C23.0937614,15.4999881 23.7500122,15.8046759 24.2109503,16.296864 C24.7812634,16.1874889 25.3281391,15.9765511 25.8125147,15.6874883 C25.6250145,16.2734265 25.2265765,16.7656146 24.7031384,17.078115 C25.2109515,17.0234274 25.7031395,16.8828022 26.1562651,16.6874895 Z" id="Twitter" fill="#2F313A" fill-rule="nonzero"></path>
    </g>
</svg>