<?xml version="1.0" encoding="UTF-8"?>
<svg width="40px" height="40px" viewBox="0 0 40 40" version="1.1" xmlns="http://www.w3.org/2000/svg" xmlns:xlink="http://www.w3.org/1999/xlink">
    <!-- Generator: Sketch 59.1 (86144) - https://sketch.com -->
    <title>Vector Files/40x40/Flattened/Social/Twitter (Filled)</title>
    <desc>Created with Sketch.</desc>
    <g id="40x40/Flattened/Social/Twitter-(Filled)" stroke="none" stroke-width="1" fill="none" fill-rule="evenodd">
        <g id="Icon" transform="translate(7.000000, 7.000000)" fill="#2F313A" fill-rule="nonzero">
            <path d="M13,0 C20.1786847,0 26,5.82131525 26,13 C26,20.1794858 20.1790837,26 13,26 C5.82011525,26 0,20.1798847 0,13 C0,5.82091626 5.82051421,0 13,0 Z M15.3671981,8.49998808 C13.9687589,8.49998808 12.8437504,9.63280193 12.8437504,11.0234286 C12.8437504,11.2187413 12.8671951,11.4140541 12.9062576,11.6015543 C10.8125051,11.4921791 8.94531542,10.492178 7.70312643,8.96092613 C7.48437617,9.33592658 7.35937602,9.76561459 7.35937602,10.2343651 C7.35937602,11.1093662 7.80468906,11.8828046 8.48437737,12.3359302 C8.07031437,12.3203051 7.67968891,12.2031175 7.34375041,12.0156173 L7.34375041,12.0156173 L7.34375041,12.0468673 C7.34375041,13.2734313 8.21093954,14.2890575 9.36719092,14.5234328 C9.15625317,14.5781203 8.9296904,14.6093704 8.70312763,14.6093704 C8.53906493,14.6093704 8.38281474,14.5937453 8.22656456,14.5703078 C8.54687744,15.570309 9.47656605,16.2968724 10.5859424,16.3203099 C9.71875384,16.9999982 8.63281504,17.3984362 7.45312614,17.3984362 C7.24218838,17.3984362 7.04687565,17.3906237 6.84375041,17.3671861 C7.96093924,18.085937 9.28906582,18.5 10.718755,18.5 C15.3593856,18.5 17.8984511,14.6562454 17.8984511,11.3203039 C17.8984511,11.2109288 17.8984511,11.1015537 17.8906386,10.9921785 C18.3828267,10.6328031 18.8125147,10.1874901 19.1562651,9.68748949 C18.7031395,9.88280223 18.2109515,10.0234274 17.7031384,10.078115 C18.2265765,9.76561459 18.6250145,9.2734265 18.8125147,8.6874883 C18.3281391,8.97655115 17.7812634,9.1874889 17.2109503,9.29686403 C16.7500122,8.80467594 16.0937614,8.49998808 15.3671981,8.49998808 Z" id="Combined-Shape"></path>
        </g>
    </g>
</svg>