<?xml version="1.0" encoding="UTF-8"?>
<svg width="40px" height="40px" viewBox="0 0 40 40" version="1.1" xmlns="http://www.w3.org/2000/svg" xmlns:xlink="http://www.w3.org/1999/xlink">
    <!-- Generator: Sketch 59.1 (86144) - https://sketch.com -->
    <title>Vector Files/40x40/Flattened/Cart-Bag/Empty Cart (Filled)</title>
    <desc>Created with Sketch.</desc>
    <g id="40x40/Flattened/Cart-Bag/Empty-Cart-(Filled)" stroke="none" stroke-width="1" fill="none" fill-rule="evenodd">
        <path d="M12.0618938,12 C12.5539918,8.05368842 15.9203823,5 20,5 C24.0796177,5 27.4460082,8.05368842 27.9381062,12 L31,12 C31.5137514,12 31.943917,12.3892945 31.9950372,12.9004963 L33.9950372,32.9004963 C34.0539058,33.4891821 33.5916219,34 33,34 L7,34 C6.40837808,34 5.94609423,33.4891821 6.00496281,32.9004963 L8.00496281,12.9004963 C8.05608299,12.3892945 8.48624855,12 9,12 L12.0618938,12 L12.0618938,12 Z M14.0829584,12 L25.9170416,12 C25.4409635,9.16228666 22.9729963,7 20,7 C17.0270037,7 14.5590365,9.16228666 14.0829584,12 Z M16,24 C16.5522847,24 17,23.5522847 17,23 C17,22.4477153 16.5522847,22 16,22 C15.4477153,22 15,22.4477153 15,23 C15,23.5522847 15.4477153,24 16,24 Z M20,24 C20.5522847,24 21,23.5522847 21,23 C21,22.4477153 20.5522847,22 20,22 C19.4477153,22 19,22.4477153 19,23 C19,23.5522847 19.4477153,24 20,24 Z M24,24 C24.5522847,24 25,23.5522847 25,23 C25,22.4477153 24.5522847,22 24,22 C23.4477153,22 23,22.4477153 23,23 C23,23.5522847 23.4477153,24 24,24 Z" id="Shape" fill="#2F313A" fill-rule="nonzero"></path>
    </g>
</svg>