<?xml version="1.0" encoding="UTF-8"?>
<svg width="100px" height="100px" viewBox="0 0 100 100" version="1.1" xmlns="http://www.w3.org/2000/svg" xmlns:xlink="http://www.w3.org/1999/xlink">
    <!-- Generator: Sketch 59.1 (86144) - https://sketch.com -->
    <title>Vector Files/100x100/Flattened/Docs/File</title>
    <desc>Created with Sketch.</desc>
    <g id="100x100/Flattened/Docs/File" stroke="none" stroke-width="1" fill="none" fill-rule="evenodd">
        <path d="M70.5,32.5 L61,32.5 C60.1715729,32.5 59.5,31.8284271 59.5,31 L59.5,21.5 L29.5,21.5 L29.5,78.5 L70.5,78.5 L70.5,32.5 Z M62.5,23.8173005 L62.5,29.5 L68.7255391,29.5 L62.5,23.8173005 L62.5,23.8173005 Z M26.5,20 C26.5,19.1715729 27.1715729,18.5 28,18.5 L60.543,18.5 C60.9171992,18.5 61.277886,18.6398649 61.5542596,18.8921399 L73.0112596,29.3501399 C73.3226108,29.6343426 73.5,30.0364424 73.5,30.458 L73.5,80 C73.5,80.8284271 72.8284271,81.5 72,81.5 L28,81.5 C27.1715729,81.5 26.5,80.8284271 26.5,80 L26.5,20 Z M57.2391692,51.7134274 C57.8203317,51.1230533 58.7700498,51.1155857 59.360424,51.6967482 C59.9507981,52.2779107 59.9582657,53.2276288 59.3771032,53.818003 L49.819933,63.5266586 C47.2311407,66.157738 43.0223824,66.157738 40.4326068,63.5269133 C37.8557977,60.9092606 37.8557977,56.6749778 40.4326068,54.0573251 L54.556033,39.7100361 C56.1442407,38.0966546 58.7303301,38.0966546 60.3190389,39.7105454 C61.8936537,41.3116434 61.8936537,43.8959952 60.3185378,45.4976025 L46.2637877,59.7751268 C45.6826252,60.365501 44.7329071,60.3729685 44.1425329,59.791806 C43.5521587,59.2106436 43.5446912,58.2609254 44.1258537,57.6705513 L58.1801026,43.3935363 C58.6066325,42.9598327 58.6066325,42.2478059 58.1806038,41.8146116 C57.7676668,41.3951295 57.1069039,41.3951295 56.693967,41.8146116 L42.5705408,56.1619006 C41.1431531,57.6119131 41.1431531,59.9723252 42.5705408,61.4223378 C43.9849621,62.8591783 46.2680009,62.8591783 47.6817484,61.4223378 L57.2391692,51.7134274 Z" id="File" fill="#2F313A" fill-rule="nonzero"></path>
    </g>
</svg>