<?xml version="1.0" encoding="UTF-8"?>
<svg width="100px" height="100px" viewBox="0 0 100 100" version="1.1" xmlns="http://www.w3.org/2000/svg" xmlns:xlink="http://www.w3.org/1999/xlink">
    <!-- Generator: Sketch 59.1 (86144) - https://sketch.com -->
    <title>Vector Files/100x100/Flattened/Docs/Internal Notes</title>
    <desc>Created with Sketch.</desc>
    <g id="100x100/Flattened/Docs/Internal-Notes" stroke="none" stroke-width="1" fill="none" fill-rule="evenodd">
        <path d="M70.5,32.5 L61,32.5 C60.1715729,32.5 59.5,31.8284271 59.5,31 L59.5,21.5 L29.5,21.5 L29.5,78.5 L70.5,78.5 L70.5,32.5 Z M62.5,23.8173005 L62.5,29.5 L68.7255391,29.5 L62.5,23.8173005 Z M26.5,20 C26.5,19.1715729 27.1715729,18.5 28,18.5 L60.543,18.5 C60.9171992,18.5 61.277886,18.6398649 61.5542596,18.8921399 L73.0112596,29.3501399 C73.3226108,29.6343426 73.5,30.0364424 73.5,30.458 L73.5,80 C73.5,80.8284271 72.8284271,81.5 72,81.5 L28,81.5 C27.1715729,81.5 26.5,80.8284271 26.5,80 L26.5,20 Z M57.9995,44 C57.4472153,44 56.9995,43.5522847 56.9995,43 C56.9995,42.4477153 57.4472153,42 57.9995,42 L63.9995,42 C64.5517847,42 64.9995,42.4477153 64.9995,43 C64.9995,43.5522847 64.5517847,44 63.9995,44 L57.9995,44 Z M35,44 C34.4477153,44 34,43.5522847 34,43 C34,42.4477153 34.4477153,42 35,42 L52,42 C52.5522847,42 53,42.4477153 53,43 C53,43.5522847 52.5522847,44 52,44 L35,44 Z M40.9995,56 C41.5517847,56 41.9995,56.4477153 41.9995,57 C41.9995,57.5522847 41.5517847,58 40.9995,58 L34.9995,58 C34.4472153,58 33.9995,57.5522847 33.9995,57 C33.9995,56.4477153 34.4472153,56 34.9995,56 L40.9995,56 Z M63.9995,56 C64.5517847,56 64.9995,56.4477153 64.9995,57 C64.9995,57.5522847 64.5517847,58 63.9995,58 L46.9995,58 C46.4472153,58 45.9995,57.5522847 45.9995,57 C45.9995,56.4477153 46.4472153,56 46.9995,56 L63.9995,56 Z M35,51 C34.4477153,51 34,50.5522847 34,50 C34,49.4477153 34.4477153,49 35,49 L64,49 C64.5522847,49 65,49.4477153 65,50 C65,50.5522847 64.5522847,51 64,51 L35,51 Z" id="Internal-Notes" fill="#2F313A" fill-rule="nonzero"></path>
    </g>
</svg>