<?xml version="1.0" encoding="UTF-8"?>
<svg width="100px" height="100px" viewBox="0 0 100 100" version="1.1" xmlns="http://www.w3.org/2000/svg" xmlns:xlink="http://www.w3.org/1999/xlink">
    <!-- Generator: Sketch 59.1 (86144) - https://sketch.com -->
    <title>Vector Files/100x100/Flattened/Docs/Invoice</title>
    <desc>Created with Sketch.</desc>
    <g id="100x100/Flattened/Docs/Invoice" stroke="none" stroke-width="1" fill="none" fill-rule="evenodd">
        <path d="M70.5,32.5 L61,32.5 C60.1715729,32.5 59.5,31.8284271 59.5,31 L59.5,21.5 L29.5,21.5 L29.5,78.5 L70.5,78.5 L70.5,32.5 Z M62.5,23.8173005 L62.5,29.5 L68.7255391,29.5 L62.5,23.8173005 Z M26.5,20 C26.5,19.1715729 27.1715729,18.5 28,18.5 L60.543,18.5 C60.9171992,18.5 61.277886,18.6398649 61.5542596,18.8921399 L73.0112596,29.3501399 C73.3226108,29.6343426 73.5,30.0364424 73.5,30.458 L73.5,80 C73.5,80.8284271 72.8284271,81.5 72,81.5 L28,81.5 C27.1715729,81.5 26.5,80.8284271 26.5,80 L26.5,20 Z M51.746,50.851 L51.746,56.482 C53.726,56.266 54.81,55.275 54.81,53.79 C54.81,52.429 54.129,51.594 51.746,50.851 Z M49.302,46.55 L49.302,41.074 C47.321,41.26 46.332,42.311 46.332,43.673 C46.332,44.973 46.92,45.777 49.302,46.55 Z M50.539,36 C51.282,36 51.87,36.588 51.87,37.33 L51.87,38.011 C53.696,38.227 55.242,38.815 56.667,39.713 C57.161,39.991 57.594,40.455 57.594,41.198 C57.594,42.157 56.82,42.899 55.861,42.899 C55.553,42.899 55.242,42.807 54.934,42.621 C53.85,41.971 52.799,41.507 51.746,41.26 L51.746,47.2 C56.449,48.376 58.46,50.263 58.46,53.574 C58.46,56.977 55.8,59.236 51.87,59.607 L51.87,61.463 C51.87,62.206 51.282,62.794 50.539,62.794 C49.797,62.794 49.178,62.206 49.178,61.463 L49.178,59.545 C46.858,59.298 44.723,58.462 42.836,57.132 C42.31,56.791 42,56.296 42,55.647 C42,54.687 42.742,53.945 43.702,53.945 C44.073,53.945 44.444,54.069 44.723,54.286 C46.178,55.337 47.6,56.049 49.302,56.358 L49.302,50.263 C44.785,49.087 42.682,47.386 42.682,43.89 C42.682,40.579 45.311,38.289 49.178,37.98 L49.178,37.33 C49.178,36.588 49.797,36 50.539,36 Z" id="Invoice" fill="#2F313A" fill-rule="nonzero"></path>
    </g>
</svg>