<?xml version="1.0" encoding="UTF-8"?>
<svg width="40px" height="40px" viewBox="0 0 40 40" version="1.1" xmlns="http://www.w3.org/2000/svg" xmlns:xlink="http://www.w3.org/1999/xlink">
    <!-- Generator: Sketch 59.1 (86144) - https://sketch.com -->
    <title>Vector Files/40x40/Flattened/Docs/Driver's License (Filled)</title>
    <desc>Created with Sketch.</desc>
    <g id="40x40/Flattened/Docs/Driver's-License-(Filled)" stroke="none" stroke-width="1" fill="none" fill-rule="evenodd">
        <path d="M13.120639,26.5 C13.9877481,26.5 14.6291314,26.9872075 15.0611814,27.7547326 C15.3038683,28.1858594 15.43585,28.6092374 15.4915562,28.9084989 C15.5487999,29.2160193 15.3128029,29.5 15,29.5 L7,29.5 C6.68719715,29.5 6.45120013,29.2160193 6.50844375,28.9084989 C6.56415002,28.6092374 6.69613172,28.1858594 6.93881864,27.7547326 C7.37086863,26.9872075 8.01225191,26.5 8.879361,26.5 L13.120639,26.5 Z M8,9 L33,9 C33.5128358,9 33.9355072,9.38604019 33.9932723,9.88337887 L34,10 L34,28 C34,28.5128358 33.6139598,28.9355072 33.1166211,28.9932723 L33,29 L18.0008961,29.0009283 C18.0005714,28.820095 17.9838234,28.6362561 17.9493375,28.4509932 C17.8477821,27.9054245 17.6403949,27.2401565 17.2397355,26.5283959 C16.9150522,25.9516047 16.5073408,25.4404 16.0178312,25.0312537 C16.5832396,24.3107046 16.9311926,23.3832552 16.9908258,22.2363587 L16.9976922,22.1187644 L16.9976922,22.1187644 L17,22 L17,19 C17,18.9035566 16.9954491,18.8081762 16.9865503,18.7140617 C16.7817066,15.4935248 14.260702,14 11.0528585,14 C9.48525922,14 8.06770387,14.3446737 6.9991618,15.069591 L7,10 C7,9.48716416 7.38604019,9.06449284 7.88337887,9.00672773 L8,9 L33,9 Z M11.0528585,16.5 C13.1024743,16.5 14.3865141,17.2483975 14.4928383,18.9151987 C14.4975472,18.9427617 14.5,18.9710944 14.5,19 L14.5,22 C14.5,22.0240842 14.4982972,22.0477707 14.4950053,22.0709457 C14.405876,23.7602076 13.1287161,24.5 11.0533046,24.5 C8.95463541,24.5 7.60956036,23.7609339 7.50639313,22.089405 C7.50219983,22.0610699 7.5,22.0312682 7.5,22 L7.5,19 C7.5,18.9625674 7.5031527,18.9272366 7.50910406,18.8940076 C7.63158779,17.2465537 8.98162134,16.5 11.0528585,16.5 Z M30,20.75 L20,20.75 C19.5857864,20.75 19.25,21.0857864 19.25,21.5 C19.25,21.8796958 19.5321539,22.193491 19.8982294,22.2431534 L20,22.25 L30,22.25 C30.4142136,22.25 30.75,21.9142136 30.75,21.5 C30.75,21.0857864 30.4142136,20.75 30,20.75 Z M30,17.75 L20,17.75 C19.5857864,17.75 19.25,18.0857864 19.25,18.5 C19.25,18.8796958 19.5321539,19.193491 19.8982294,19.2431534 L20,19.25 L30,19.25 C30.4142136,19.25 30.75,18.9142136 30.75,18.5 C30.75,18.0857864 30.4142136,17.75 30,17.75 Z M30,14.75 L20,14.75 C19.5857864,14.75 19.25,15.0857864 19.25,15.5 C19.25,15.8796958 19.5321539,16.193491 19.8982294,16.2431534 L20,16.25 L30,16.25 C30.4142136,16.25 30.75,15.9142136 30.75,15.5 C30.75,15.0857864 30.4142136,14.75 30,14.75 Z" id="Driver's-License-(Filled)" fill="#2F313A" fill-rule="nonzero"></path>
    </g>
</svg>