<?xml version="1.0" encoding="UTF-8"?>
<svg width="40px" height="40px" viewBox="0 0 40 40" version="1.1" xmlns="http://www.w3.org/2000/svg" xmlns:xlink="http://www.w3.org/1999/xlink">
    <!-- Generator: Sketch 59.1 (86144) - https://sketch.com -->
    <title>Vector Files/40x40/Flattened/Docs/Driver's License</title>
    <desc>Created with Sketch.</desc>
    <g id="40x40/Flattened/Docs/Driver's-License" stroke="none" stroke-width="1" fill="none" fill-rule="evenodd">
        <path d="M13,21.8780314 L13,19.144704 C13,18.3312907 12.4706289,18.0000694 11.0524125,18 C9.59946957,18.0000731 9,18.357452 9,19.144704 L9,21.8780314 C9,22.6558408 9.58754938,22.9999302 11.0537506,23 C12.4838926,22.999934 13,22.6823515 13,21.8780314 Z M15,19 L15,22 C15,22.038196 14.9978585,22.0758918 14.9936891,22.112974 C14.8842189,24.1136379 13.3587217,24.9998857 11.0537507,25 C8.71966393,24.9998875 7.12387078,24.1169302 7.00689457,22.1180486 C7.00234145,22.0793325 7,22.0399397 7,22 L7,19 C7,18.9519615 7.0033873,18.9047142 7.00993609,18.8584839 C7.14952293,16.8909603 8.74796068,16.000115 11.0524125,16 C13.3302912,16.0001167 14.8601446,16.8942471 14.9909003,18.864521 C14.9969009,18.9088251 15,18.9540506 15,19 Z M8.879361,26 L13.120639,26 C14.1955143,26 14.9846129,26.599415 15.4968922,27.5094653 C15.7711736,27.9967188 15.9182364,28.4684748 15.9831125,28.8169977 C16.0841818,29.3599558 15.7259603,29.8820431 15.1830023,29.9831125 C14.6400442,30.0841818 14.1179569,29.7259603 14.0168875,29.1830023 C13.9886907,29.0315252 13.9019523,28.7532812 13.7540489,28.4905347 C13.5626867,28.150585 13.3644494,28 13.120639,28 L8.879361,28 C8.63555057,28 8.4373133,28.150585 8.24595113,28.4905347 C8.09804768,28.7532812 8.01130931,29.0315252 7.98311249,29.1830023 C7.88204314,29.7259603 7.35995578,30.0841818 6.81699774,29.9831125 C6.27403971,29.8820431 5.91581815,29.3599558 6.01688751,28.8169977 C6.08176358,28.4684748 6.2288264,27.9967188 6.50310782,27.5094653 C7.01538708,26.599415 7.80448569,26 8.879361,26 Z M32,27 L32,11 L9,11 L9,14 C9,14.5522847 8.55228475,15 8,15 C7.44771525,15 7,14.5522847 7,14 L7,10 C7,9.44771525 7.44771525,9 8,9 L33,9 C33.5522847,9 34,9.44771525 34,10 L34,28 C34,28.5522847 33.5522847,29 33,29 L19,29 C18.4477153,29 18,28.5522847 18,28 C18,27.4477153 18.4477153,27 19,27 L32,27 Z M11.0533046,25 L11.0541967,23 L11.0533046,25 Z M11.0528585,16 L11.0519664,18 L11.0528585,16 Z M18,16.25 C17.5857864,16.25 17.25,15.9142136 17.25,15.5 C17.25,15.0857864 17.5857864,14.75 18,14.75 L28,14.75 C28.4142136,14.75 28.75,15.0857864 28.75,15.5 C28.75,15.9142136 28.4142136,16.25 28,16.25 L18,16.25 Z M18,19.25 C17.5857864,19.25 17.25,18.9142136 17.25,18.5 C17.25,18.0857864 17.5857864,17.75 18,17.75 L28,17.75 C28.4142136,17.75 28.75,18.0857864 28.75,18.5 C28.75,18.9142136 28.4142136,19.25 28,19.25 L18,19.25 Z M18,22.25 C17.5857864,22.25 17.25,21.9142136 17.25,21.5 C17.25,21.0857864 17.5857864,20.75 18,20.75 L28,20.75 C28.4142136,20.75 28.75,21.0857864 28.75,21.5 C28.75,21.9142136 28.4142136,22.25 28,22.25 L18,22.25 Z" id="Driver's-License" fill="#2F313A" fill-rule="nonzero"></path>
    </g>
</svg>