<?xml version="1.0" encoding="UTF-8"?>
<svg width="40px" height="40px" viewBox="0 0 40 40" version="1.1" xmlns="http://www.w3.org/2000/svg" xmlns:xlink="http://www.w3.org/1999/xlink">
    <!-- Generator: Sketch 59.1 (86144) - https://sketch.com -->
    <title>Vector Files/40x40/Flattened/Docs/File</title>
    <desc>Created with Sketch.</desc>
    <g id="40x40/Flattened/Docs/File" stroke="none" stroke-width="1" fill="none" fill-rule="evenodd">
        <path d="M27,11.9996 L23.0004,11.9996 L23.0004,8.06135015 L22.9316579,8 L11,8 L11,30 L18.5681152,30 C19.1204,30 19.5681152,30.4477153 19.5681152,31 C19.5681152,31.5522847 19.1204,32 18.5681152,32 L10,32 C9.44771525,32 9,31.5522847 9,31 L9,7 C9,6.44771525 9.44771525,6 10,6 L23.313,6 C23.558602,6 23.7956152,6.0903831 23.9788544,6.25391831 L28.6658544,10.4369183 C28.8784444,10.6266482 29,10.898058 29,11.183 L29,19.3388672 C29,19.8911519 28.5522847,20.3388672 28,20.3388672 C27.4477153,20.3388672 27,19.8911519 27,19.3388672 L27,11.9996 Z M33.8475699,24.1506699 C34.1404631,23.8577767 34.6153369,23.8577767 34.9082301,24.1506699 C35.2011233,24.4435631 35.2011233,24.9184369 34.9082301,25.2113301 L26.7499715,33.3695886 C25.4310512,34.6872234 23.2951773,34.6872234 21.9788285,33.3695886 C20.6595905,32.0516363 20.6595905,29.9153637 21.9785332,28.5977066 L29.2075699,21.3676699 C30.0135494,20.5616904 31.3198222,20.5616904 32.1237124,21.3671528 C32.9302959,22.1721639 32.9302959,23.4788361 32.1242669,24.2832932 L24.9292669,31.4792932 C24.6363941,31.7722068 24.1615203,31.7722398 23.8686068,31.4793669 C23.5756932,31.1864941 23.5756602,30.7116203 23.8685331,30.4187068 L31.0640876,23.2221528 C31.2835041,23.0031639 31.2835041,22.6478361 31.0630528,22.4278124 C30.8439778,22.2083096 30.4882506,22.2083096 30.2682668,22.4282934 L23.0389715,29.6585886 C22.3062095,30.3906363 22.3062095,31.5763637 23.0394888,32.3089288 C23.7706227,33.0407766 24.9567488,33.0407766 25.6895699,32.3086699 L33.8475699,24.1506699 Z M13.6745,15.6752 C13.2602864,15.6752 12.9245,15.3394136 12.9245,14.9252 C12.9245,14.5109864 13.2602864,14.1752 13.6745,14.1752 L24.3255,14.1752 C24.7397136,14.1752 25.0755,14.5109864 25.0755,14.9252 C25.0755,15.3394136 24.7397136,15.6752 24.3255,15.6752 L13.6745,15.6752 Z M13.6745,18.6077 C13.2602864,18.6077 12.9245,18.2719136 12.9245,17.8577 C12.9245,17.4434864 13.2602864,17.1077 13.6745,17.1077 L24.3255,17.1077 C24.7397136,17.1077 25.0755,17.4434864 25.0755,17.8577 C25.0755,18.2719136 24.7397136,18.6077 24.3255,18.6077 L13.6745,18.6077 Z" id="File" fill="#2F313A" fill-rule="nonzero"></path>
    </g>
</svg>