<?xml version="1.0" encoding="UTF-8"?>
<svg width="40px" height="40px" viewBox="0 0 40 40" version="1.1" xmlns="http://www.w3.org/2000/svg" xmlns:xlink="http://www.w3.org/1999/xlink">
    <!-- Generator: Sketch 59.1 (86144) - https://sketch.com -->
    <title>Vector Files/40x40/Flattened/Docs/File (Filled)</title>
    <desc>Created with Sketch.</desc>
    <g id="40x40/Flattened/Docs/File-(Filled)" stroke="none" stroke-width="1" fill="none" fill-rule="evenodd">
        <path d="M29,19.4420131 C28.0233566,19.4488973 27.0582745,19.8859634 26.4097583,20.7160263 L20.1156723,28.7732375 C19.35586,29.7447759 19.0460988,30.9248074 19.1556796,32.0625 L10.8421802,32.0625 L10.8421802,32 L10,32 C9.44771525,32 9,31.5522847 9,31 L9,7 C9,6.44771525 9.44771525,6 10,6 L23.313,6 C23.558602,6 23.7956152,6.0903831 23.9788544,6.25391831 L28.6658544,10.4369183 C28.8784444,10.6266482 29,10.898058 29,11.183 L29,19.4420131 L29,19.4420131 Z M32.3393419,23.6823895 C32.5943572,23.3559847 33.0656913,23.2981122 33.3920961,23.5531275 C33.7185008,23.8081428 33.7763734,24.2794769 33.521358,24.6058817 L26.4181514,33.6975714 C25.2696415,35.1661207 23.1496881,35.4264182 21.6825719,34.2790275 C20.2125492,33.1316737 19.9522031,31.0113245 21.1007327,29.5427503 L27.3947654,21.4856073 C28.096513,20.5874113 29.3930491,20.4282166 30.2891084,21.1297056 C31.1877858,21.8304185 31.3470291,23.127351 30.6450469,24.024042 L24.3806491,32.0432541 C24.1256565,32.3696765 23.6543264,32.4275818 23.3279039,32.1725892 C23.0014815,31.9175965 22.9435762,31.4462665 23.1985688,31.119844 L29.4634494,23.1000145 C29.6545425,22.8559178 29.6112389,22.5032386 29.3656166,22.3117212 C29.1214239,22.120553 28.7683482,22.1639052 28.5768134,22.4090586 L22.2825555,30.4664898 C21.6444697,31.2823821 21.7889735,32.4592712 22.6060643,33.0970117 C23.4209382,33.7343016 24.5982231,33.5897492 25.2363605,32.7737911 L32.3393419,23.6823895 Z M13.7406798,15.5 L24.2593202,15.5 C24.6683864,15.5 25,15.1642136 25,14.75 C25,14.3357864 24.6683864,14 24.2593202,14 L13.7406798,14 C13.3316136,14 13,14.3357864 13,14.75 C13,15.1642136 13.3316136,15.5 13.7406798,15.5 Z M13.7406798,18.5 L24.2593202,18.5 C24.6683864,18.5 25,18.1642136 25,17.75 C25,17.3357864 24.6683864,17 24.2593202,17 L13.7406798,17 C13.3316136,17 13,17.3357864 13,17.75 C13,18.1642136 13.3316136,18.5 13.7406798,18.5 Z" id="File-(Filled)" fill="#2F313A" fill-rule="nonzero"></path>
    </g>
</svg>