<?xml version="1.0" encoding="UTF-8"?>
<svg width="40px" height="40px" viewBox="0 0 40 40" version="1.1" xmlns="http://www.w3.org/2000/svg" xmlns:xlink="http://www.w3.org/1999/xlink">
    <!-- Generator: Sketch 59.1 (86144) - https://sketch.com -->
    <title>Vector Files/40x40/Flattened/Docs/Health Certificate</title>
    <desc>Created with Sketch.</desc>
    <g id="40x40/Flattened/Docs/Health-Certificate" stroke="none" stroke-width="1" fill="none" fill-rule="evenodd">
        <path d="M27,11.9996 L23.0004,11.9996 L23.0004,8 L11,8 L11,30 L19,30 C19.5522847,30 20,30.4477153 20,31 C20,31.5522847 19.5522847,32 19,32 L10,32 C9.44771525,32 9,31.5522847 9,31 L9,7 C9,6.44771525 9.44771525,6 10,6 L23.313,6 C23.558602,6 23.7956152,6.0903831 23.9788544,6.25391831 L28.6658544,10.4369183 C28.8784444,10.6266482 29,10.898058 29,11.183 L29,19 C29,19.5522847 28.5522847,20 28,20 C27.4477153,20 27,19.5522847 27,19 L27,11.9996 Z M31.529847,21.6232943 C31.9981324,21.9160864 32.1403978,22.5330616 31.8476057,23.001347 L25.4126057,33.293347 C25.0269275,33.9101924 24.1326197,33.9218856 23.7309453,33.3153351 L20.8469453,28.9603351 C20.5420095,28.4998651 20.6680949,27.8793812 21.1285649,27.5744453 C21.5890349,27.2695095 22.2095188,27.3955949 22.5144547,27.8560649 L24.5405418,30.9155689 L30.1517943,21.941053 C30.4445864,21.4727676 31.0615616,21.3305022 31.529847,21.6232943 Z M21.3349,14.0004 C23.41444,14.0004 24.7539,15.2993256 24.7539,17.3394 C24.7539,18.1117745 24.4582976,18.8432596 23.9767171,19.5250834 C23.8213555,19.7450449 23.6562055,19.9452246 23.4885285,20.1256727 C23.3869971,20.2349373 23.3007757,20.3197298 23.2437642,20.3729096 L19.7742278,23.6847024 C19.5666295,23.8892023 19.2886351,24.0004 19.0019,24.0004 C18.7174357,24.0004 18.4415742,23.8909565 18.2345177,23.6895435 L14.7826851,20.3860173 C14.0165898,19.7243895 13.2499,18.6239966 13.2499,17.3394 C13.2499,15.2993256 14.58936,14.0004 16.6689,14.0004 C17.5093185,14.0004 18.2887961,14.3685858 19.001967,14.9416315 C19.7150286,14.3689238 20.495215,14.0004 21.3349,14.0004 Z M21.3349,15.5004 C20.7837462,15.5004 20.1189564,15.9010336 19.5267349,16.4811689 C19.2351426,16.7668104 18.7686574,16.7668104 18.4770651,16.4811689 C17.8841473,15.9003515 17.2206936,15.5004 16.6689,15.5004 C15.4076475,15.5004 14.7499,16.1382429 14.7499,17.3394 C14.7499,18.060879 15.3007153,18.8514376 15.7913523,19.2764524 L19.002207,22.3481055 L22.1955699,19.3000699 C22.2583417,19.2407045 22.3151186,19.1848685 22.3896966,19.1046102 C22.514175,18.970651 22.637304,18.8214053 22.7515135,18.659707 C23.0701054,18.2086433 23.2539,17.7538329 23.2539,17.3394 C23.2539,16.1382429 22.5961525,15.5004 21.3349,15.5004 Z" id="Health-Certificate" fill="#2F313A" fill-rule="nonzero"></path>
    </g>
</svg>