<?xml version="1.0" encoding="UTF-8"?>
<svg width="40px" height="40px" viewBox="0 0 40 40" version="1.1" xmlns="http://www.w3.org/2000/svg" xmlns:xlink="http://www.w3.org/1999/xlink">
    <!-- Generator: Sketch 59.1 (86144) - https://sketch.com -->
    <title>Vector Files/40x40/Flattened/Docs/Health Certificate (Filled)</title>
    <desc>Created with Sketch.</desc>
    <g id="40x40/Flattened/Docs/Health-Certificate-(Filled)" stroke="none" stroke-width="1" fill="none" fill-rule="evenodd">
        <path d="M21.0608041,32 L10,32 C9.44771525,32 9,31.5522847 9,31 L9,7 C9,6.44771525 9.44771525,6 10,6 L23.313,6 C23.558602,6 23.7956152,6.0903831 23.9788544,6.25391831 L28.6658544,10.4369183 C28.8784444,10.6266482 29,10.898058 29,11.183 L29,20.9705625 C28.9579149,21.0267752 28.9178387,21.0852111 28.8799357,21.1458324 L24.5043046,28.1441223 L23.7650866,27.0278622 C23.0027471,25.8766873 21.4515372,25.5614739 20.3003622,26.3238134 C19.1491873,27.0861529 18.8339739,28.6373628 19.5963134,29.7885378 L21.0608041,32 Z M30.1517943,21.941053 C30.4445864,21.4727676 31.0615616,21.3305022 31.529847,21.6232943 C31.9981324,21.9160864 32.1403978,22.5330616 31.8476057,23.001347 L25.4126057,33.293347 C25.0269275,33.9101924 24.1326197,33.9218856 23.7309453,33.3153351 L20.8469453,28.9603351 C20.5420095,28.4998651 20.6680949,27.8793812 21.1285649,27.5744453 C21.5890349,27.2695095 22.2095188,27.3955949 22.5144547,27.8560649 L24.5405418,30.9155689 L30.1517943,21.941053 Z M18.7559,22.1504 C18.8229,22.2164 18.9119,22.2504 19.0019,22.2504 C19.0919,22.2504 19.1809,22.2164 19.2479,22.1504 L22.7259,18.8304 C22.7759,18.7804 24.0039,17.6684 24.0039,16.3394 C24.0039,14.7184 23.0049,13.7504 21.3349,13.7504 C20.3589,13.7504 19.4429,14.5134 19.0019,14.9454 C18.5609,14.5134 17.6459,13.7504 16.6689,13.7504 C14.9989,13.7504 13.9999,14.7184 13.9999,16.3394 C13.9999,17.6684 15.2289,18.7804 15.2729,18.8184 L18.7559,22.1504 Z" id="Health-Certificate-(Filled)" fill="#2F313A" fill-rule="nonzero"></path>
    </g>
</svg>