<?xml version="1.0" encoding="UTF-8"?>
<svg width="40px" height="40px" viewBox="0 0 40 40" version="1.1" xmlns="http://www.w3.org/2000/svg" xmlns:xlink="http://www.w3.org/1999/xlink">
    <!-- Generator: Sketch 59.1 (86144) - https://sketch.com -->
    <title>Vector Files/40x40/Flattened/Docs/Insurance Certificate (Filled)</title>
    <desc>Created with Sketch.</desc>
    <g id="40x40/Flattened/Docs/Insurance-Certificate-(Filled)" stroke="none" stroke-width="1" fill="none" fill-rule="evenodd">
        <path d="M31.529847,21.6232943 C31.9981324,21.9160864 32.1403978,22.5330616 31.8476057,23.001347 L25.4126057,33.293347 C25.0269275,33.9101924 24.1326197,33.9218856 23.7309453,33.3153351 L20.8469453,28.9603351 C20.5420095,28.4998651 20.6680949,27.8793812 21.1285649,27.5744453 C21.5890349,27.2695095 22.2095188,27.3955949 22.5144547,27.8560649 L24.5405418,30.9155689 L30.1517943,21.941053 C30.4445864,21.4727676 31.0615616,21.3305022 31.529847,21.6232943 Z M23.313,6 C23.558602,6 23.7956152,6.0903831 23.9788544,6.25391831 L28.6658544,10.4369183 C28.8784444,10.6266482 29,10.898058 29,11.183 L28.9997811,20.970855 L28.9382955,21.0566962 L28.8799357,21.1458324 L24.5043046,28.1441223 L23.7650866,27.0278622 C23.0027471,25.8766873 21.4515372,25.5614739 20.3003622,26.3238134 C19.1971529,27.0543887 18.861693,28.5094649 19.5066157,29.6426434 L19.5963134,29.7885378 L21.061,32 L10,32 C9.44771525,32 9,31.5522847 9,31 L9,7 C9,6.44771525 9.44771525,6 10,6 L23.313,6 Z M19.5973595,12.4900145 C19.2476926,12.2094479 18.7523074,12.2094479 18.4030865,12.4896562 L18.4030865,12.4896562 L15.2314405,15.040497 C14.7688843,15.4116742 14.5,15.974121 14.5,16.5690295 L14.5,16.5690295 L14.5,21 C14.5,21.2761424 14.7238576,21.5 15,21.5 L15,21.5 L17.4,21.5 C17.6761424,21.5 17.9,21.2761424 17.9,21 L17.9,21 L17.9,20.2817468 C17.9,19.6960712 18.2954743,19.1867269 18.8119484,19.1022085 C19.4955445,18.9903125 20.1,19.5119989 20.1,20.1956851 L20.1,20.1956851 L20.1,21 C20.1,21.2761424 20.3238576,21.5 20.6,21.5 L20.6,21.5 L23,21.5 C23.2761424,21.5 23.5,21.2761424 23.5,21 L23.5,21 L23.5,16.5690295 C23.5,15.974121 23.2311157,15.4116742 22.7681294,15.0401515 L22.7681294,15.0401515 Z" id="Insurance-Certificate-(Filled)" fill="#2F313A" fill-rule="nonzero"></path>
    </g>
</svg>