<?xml version="1.0" encoding="UTF-8"?>
<svg width="40px" height="40px" viewBox="0 0 40 40" version="1.1" xmlns="http://www.w3.org/2000/svg" xmlns:xlink="http://www.w3.org/1999/xlink">
    <!-- Generator: Sketch 59.1 (86144) - https://sketch.com -->
    <title>Vector Files/40x40/Flattened/Docs/Internal Notes</title>
    <desc>Created with Sketch.</desc>
    <g id="40x40/Flattened/Docs/Internal-Notes" stroke="none" stroke-width="1" fill="none" fill-rule="evenodd">
        <path d="M30.9148264,21.2929629 L33.7071764,24.0858629 C34.0976351,24.4763984 34.0976039,25.1095097 33.7071068,25.5 L26.5147568,32.6923568 C26.3903099,32.8168036 26.2352239,32.9062031 26.065165,32.9515243 L22.257515,33.9662743 C21.5147623,34.1642201 20.835697,33.4850388 21.0337697,32.74232 L22.0490697,28.93522 C22.0944017,28.7652373 22.1837742,28.6102217 22.3081662,28.4858203 L29.5005162,21.2929203 C29.8910633,20.9023433 30.5243028,20.9023624 30.9148264,21.2929629 Z M28.957,24.664 L23.9123276,29.7100714 L23.4112448,31.5889963 L25.2905235,31.0881629 L30.335,26.042 L28.957,24.664 Z M30.2076074,23.4143102 L29.664,23.957 L31.042,25.335 L31.5858561,24.7928304 L30.2076074,23.4143102 Z M23.313,6 C23.558602,6 23.7956152,6.0903831 23.9788544,6.25391831 L28.6658544,10.4369183 C28.8784444,10.6266482 29,10.898058 29,11.183 L29,19 C29,19.5522847 28.5522847,20 28,20 C27.4477153,20 27,19.5522847 27,19 L27,11.9996 L23.0004,11.9996 L23.0004,8 L11,8 L11,30 L19,30 C19.5522847,30 20,30.4477153 20,31 C20,31.5522847 19.5522847,32 19,32 L10,32 C9.44771525,32 9,31.5522847 9,31 L9,7 C9,6.44771525 9.44771525,6 10,6 L23.313,6 Z M24,20.75 C24.4142136,20.75 24.75,21.0857864 24.75,21.5 C24.75,21.9142136 24.4142136,22.25 24,22.25 L14,22.25 C13.5857864,22.25 13.25,21.9142136 13.25,21.5 C13.25,21.0857864 13.5857864,20.75 14,20.75 L24,20.75 Z M24,17.75 C24.4142136,17.75 24.75,18.0857864 24.75,18.5 C24.75,18.9142136 24.4142136,19.25 24,19.25 L14,19.25 C13.5857864,19.25 13.25,18.9142136 13.25,18.5 C13.25,18.0857864 13.5857864,17.75 14,17.75 L24,17.75 Z M24,14.75 C24.4142136,14.75 24.75,15.0857864 24.75,15.5 C24.75,15.9142136 24.4142136,16.25 24,16.25 L14,16.25 C13.5857864,16.25 13.25,15.9142136 13.25,15.5 C13.25,15.0857864 13.5857864,14.75 14,14.75 L24,14.75 Z" id="Internal-Notes" fill="#2F313A" fill-rule="nonzero"></path>
    </g>
</svg>