<?xml version="1.0" encoding="UTF-8"?>
<svg width="40px" height="40px" viewBox="0 0 40 40" version="1.1" xmlns="http://www.w3.org/2000/svg" xmlns:xlink="http://www.w3.org/1999/xlink">
    <!-- Generator: Sketch 59.1 (86144) - https://sketch.com -->
    <title>Vector Files/40x40/Flattened/Docs/Invoice</title>
    <desc>Created with Sketch.</desc>
    <g id="40x40/Flattened/Docs/Invoice" stroke="none" stroke-width="1" fill="none" fill-rule="evenodd">
        <path d="M27,11.9996 L23.0004,11.9996 L23.0004,8.06135015 L22.9316579,8 L11,8 L11,30 L21,30 C21.5522847,30 22,30.4477153 22,31 C22,31.5522847 21.5522847,32 21,32 L10,32 C9.44771525,32 9,31.5522847 9,31 L9,7 C9,6.44771525 9.44771525,6 10,6 L23.313,6 C23.558602,6 23.7956152,6.0903831 23.9788544,6.25391831 L28.6658544,10.4369183 C28.8784444,10.6266482 29,10.898058 29,11.183 L29,20 C29,20.5522847 28.5522847,21 28,21 C27.4477153,21 27,20.5522847 27,20 L27,11.9996 Z M28.68,31.0799 C29.276,30.9909 29.579,30.7129 29.579,30.2569 C29.579,29.8389 29.364,29.5599 28.68,29.3199 L28.68,31.0799 Z M27.49,25.3939 C26.882,25.4829 26.616,25.7859 26.616,26.1919 C26.616,26.5839 26.793,26.8499 27.49,27.1039 L27.49,25.3939 Z M28.743,23.6579 L28.743,23.8359 C29.427,23.9369 30.035,24.1399 30.579,24.4439 C30.821,24.5829 31.035,24.8239 31.035,25.2039 C31.035,25.6849 30.656,26.0519 30.174,26.0519 C30.023,26.0519 29.87,26.0139 29.732,25.9379 C29.376,25.7479 29.022,25.5959 28.68,25.5069 L28.68,27.4329 C30.605,27.9519 31.428,28.7369 31.428,30.1549 C31.428,31.5739 30.339,32.4859 28.743,32.6629 L28.743,33.3349 C28.743,33.7019 28.452,33.9929 28.085,33.9929 C27.718,33.9929 27.426,33.7019 27.426,33.3349 L27.426,32.6509 C26.527,32.5369 25.679,32.2199 24.931,31.7639 C24.665,31.5989 24.5,31.3459 24.5,31.0039 C24.5,30.5099 24.881,30.1429 25.374,30.1429 C25.539,30.1429 25.716,30.2059 25.868,30.3079 C26.401,30.6499 26.908,30.8899 27.49,31.0169 L27.49,29.0029 C25.666,28.5089 24.767,27.8129 24.767,26.3049 C24.767,24.9119 25.83,23.9749 27.426,23.8109 L27.426,23.6579 C27.426,23.2909 27.718,22.9999 28.085,22.9999 C28.452,22.9999 28.743,23.2909 28.743,23.6579 Z M14,16.25 C13.5857864,16.25 13.25,15.9142136 13.25,15.5 C13.25,15.0857864 13.5857864,14.75 14,14.75 L24,14.75 C24.4142136,14.75 24.75,15.0857864 24.75,15.5 C24.75,15.9142136 24.4142136,16.25 24,16.25 L14,16.25 Z M14,19.25 C13.5857864,19.25 13.25,18.9142136 13.25,18.5 C13.25,18.0857864 13.5857864,17.75 14,17.75 L24,17.75 C24.4142136,17.75 24.75,18.0857864 24.75,18.5 C24.75,18.9142136 24.4142136,19.25 24,19.25 L14,19.25 Z M14,22.25 C13.5857864,22.25 13.25,21.9142136 13.25,21.5 C13.25,21.0857864 13.5857864,20.75 14,20.75 L24,20.75 C24.4142136,20.75 24.75,21.0857864 24.75,21.5 C24.75,21.9142136 24.4142136,22.25 24,22.25 L14,22.25 Z" id="Invoice" fill="#2F313A" fill-rule="nonzero"></path>
    </g>
</svg>