<?xml version="1.0" encoding="UTF-8"?>
<svg width="40px" height="40px" viewBox="0 0 40 40" version="1.1" xmlns="http://www.w3.org/2000/svg" xmlns:xlink="http://www.w3.org/1999/xlink">
    <!-- Generator: Sketch 59.1 (86144) - https://sketch.com -->
    <title>Vector Files/40x40/Flattened/Docs/Internal Notes (Filled)</title>
    <desc>Created with Sketch.</desc>
    <g id="40x40/Flattened/Docs/Internal-Notes-(Filled)" stroke="none" stroke-width="1" fill="none" fill-rule="evenodd">
        <path d="M19.6793111,32 L10,32 C9.44771525,32 9,31.5522847 9,31 L9,7 C9,6.44771525 9.44771525,6 10,6 L23.313,6 C23.558602,6 23.7956152,6.0903831 23.9788544,6.25391831 L28.6658544,10.4369183 C28.8784444,10.6266482 29,10.898058 29,11.183 L29,19.8102924 C28.7990923,19.9212198 28.6102139,20.0618892 28.4398155,20.2323006 L21.2474655,27.4252006 C20.9364856,27.7362043 20.7130542,28.1237433 20.5997242,28.5486999 L19.6793111,32 L19.6793111,32 Z M13.7406798,15.5 L24.2593202,15.5 C24.6683864,15.5 25,15.1642136 25,14.75 C25,14.3357864 24.6683864,14 24.2593202,14 L13.7406798,14 C13.3316136,14 13,14.3357864 13,14.75 C13,15.1642136 13.3316136,15.5 13.7406798,15.5 Z M13.7406798,18.5 L24.2593202,18.5 C24.6683864,18.5 25,18.1642136 25,17.75 C25,17.3357864 24.6683864,17 24.2593202,17 L13.7406798,17 C13.3316136,17 13,17.3357864 13,17.75 C13,18.1642136 13.3316136,18.5 13.7406798,18.5 Z M32.3109923,26.5425679 L28.6605484,22.4865191 L29.6772996,21.4696902 C29.97021,21.1767575 30.4451396,21.1767718 30.7380323,21.4697221 L33.5303823,24.2626221 C33.8232263,24.5555238 33.8232029,25.0303573 33.5303301,25.3232301 L32.3109923,26.5425679 Z M31.6029068,27.2506534 L26.3379801,32.5155801 C26.2446449,32.6089152 26.1283304,32.6759648 26.0007862,32.7099557 L22.1931362,33.7247057 C21.6360717,33.8731651 21.1267728,33.3637791 21.2753273,32.80674 L22.2906273,28.99964 C22.3246263,28.872153 22.3916557,28.7558913 22.4849496,28.6625902 L27.9524886,23.1946331 L31.6029068,27.2506534 L31.6029068,27.2506534 Z" id="Internal-Notes-(Filled)" fill="#2F313A" fill-rule="nonzero"></path>
    </g>
</svg>