<?xml version="1.0" encoding="UTF-8"?>
<svg width="40px" height="40px" viewBox="0 0 40 40" version="1.1" xmlns="http://www.w3.org/2000/svg" xmlns:xlink="http://www.w3.org/1999/xlink">
    <!-- Generator: Sketch 59.1 (86144) - https://sketch.com -->
    <title>Vector Files/40x40/Flattened/Docs/Invoice (Filled)</title>
    <desc>Created with Sketch.</desc>
    <g id="40x40/Flattened/Docs/Invoice-(Filled)" stroke="none" stroke-width="1" fill="none" fill-rule="evenodd">
        <path d="M23.2126488,32 L10,32 C9.44771525,32 9,31.5522847 9,31 L9,7 C9,6.44771525 9.44771525,6 10,6 L23.313,6 C23.558602,6 23.7956152,6.0903831 23.9788544,6.25391831 L28.6658544,10.4369183 C28.8784444,10.6266482 29,10.898058 29,11.183 L29,21.7016012 C28.7224746,21.572134 28.4124743,21.4999 28.085,21.4999 C27.3086905,21.4999 26.6298095,21.9059669 26.2494285,22.5184228 C24.4647205,23.0464137 23.267,24.4368125 23.267,26.3049 C23.267,27.4085115 23.5877532,28.2673127 24.2160449,28.9360316 C23.4888786,29.3343794 23,30.1014091 23,31.0039 C23,31.3620065 23.0745832,31.6980177 23.2126488,32 Z M13.7406798,15.5 L24.2593202,15.5 C24.6683864,15.5 25,15.1642136 25,14.75 C25,14.3357864 24.6683864,14 24.2593202,14 L13.7406798,14 C13.3316136,14 13,14.3357864 13,14.75 C13,15.1642136 13.3316136,15.5 13.7406798,15.5 Z M13.7406798,18.5 L24.2593202,18.5 C24.6683864,18.5 25,18.1642136 25,17.75 C25,17.3357864 24.6683864,17 24.2593202,17 L13.7406798,17 C13.3316136,17 13,17.3357864 13,17.75 C13,18.1642136 13.3316136,18.5 13.7406798,18.5 Z M28.68,29.3199 L28.68,31.0799 C29.276,30.9909 29.579,30.7129 29.579,30.2569 C29.579,29.8389 29.364,29.5599 28.68,29.3199 Z M27.49,27.1039 L27.49,25.3939 C26.882,25.4829 26.616,25.7859 26.616,26.1919 C26.616,26.5839 26.793,26.8499 27.49,27.1039 Z M28.085,22.9999 C28.452,22.9999 28.743,23.2909 28.743,23.6579 L28.743,23.8359 C29.427,23.9369 30.035,24.1399 30.579,24.4439 C30.821,24.5829 31.035,24.8239 31.035,25.2039 C31.035,25.6849 30.656,26.0519 30.174,26.0519 C30.023,26.0519 29.87,26.0139 29.732,25.9379 C29.376,25.7479 29.022,25.5959 28.68,25.5069 L28.68,27.4329 C30.605,27.9519 31.428,28.7369 31.428,30.1549 C31.428,31.5739 30.339,32.4859 28.743,32.6629 L28.743,33.3349 C28.743,33.7019 28.452,33.9929 28.085,33.9929 C27.718,33.9929 27.426,33.7019 27.426,33.3349 L27.426,32.6509 C26.527,32.5369 25.679,32.2199 24.931,31.7639 C24.665,31.5989 24.5,31.3459 24.5,31.0039 C24.5,30.5099 24.881,30.1429 25.374,30.1429 C25.539,30.1429 25.716,30.2059 25.868,30.3079 C26.401,30.6499 26.908,30.8899 27.49,31.0169 L27.49,29.0029 C25.666,28.5089 24.767,27.8129 24.767,26.3049 C24.767,24.9119 25.83,23.9749 27.426,23.8109 L27.426,23.6579 C27.426,23.2909 27.718,22.9999 28.085,22.9999 Z" id="Invoice-(Filled)" fill="#2F313A" fill-rule="nonzero"></path>
    </g>
</svg>