<?xml version="1.0" encoding="UTF-8"?>
<svg width="40px" height="40px" viewBox="0 0 40 40" version="1.1" xmlns="http://www.w3.org/2000/svg" xmlns:xlink="http://www.w3.org/1999/xlink">
    <!-- Generator: Sketch 59.1 (86144) - https://sketch.com -->
    <title>Vector Files/40x40/Flattened/Docs/Insurance Certificate</title>
    <desc>Created with Sketch.</desc>
    <g id="40x40/Flattened/Docs/Insurance-Certificate" stroke="none" stroke-width="1" fill="none" fill-rule="evenodd">
        <path d="M27,11.9996 L23.0004,11.9996 L23.0004,8 L11,8 L11,30 L19,30 C19.5522847,30 20,30.4477153 20,31 C20,31.5522847 19.5522847,32 19,32 L10,32 C9.44771525,32 9,31.5522847 9,31 L9,7 C9,6.44771525 9.44771525,6 10,6 L23.313,6 C23.558602,6 23.7956152,6.0903831 23.9788544,6.25391831 L28.6658544,10.4369183 C28.8784444,10.6266482 29,10.898058 29,11.183 L29,19 C29,19.5522847 28.5522847,20 28,20 C27.4477153,20 27,19.5522847 27,19 L27,11.9996 Z M14,23.75 C13.5857864,23.75 13.25,23.4142136 13.25,23 L13.25,17.491 C13.25,16.7115868 13.6040529,15.9749591 14.2124967,15.489334 L18.1771664,12.3177989 C18.6588224,11.9334004 19.3411776,11.9334004 19.8235033,12.318334 L23.7868575,15.488818 C24.3959471,15.9749591 24.75,16.7115868 24.75,17.491 L24.75,23 C24.75,23.4142136 24.4142136,23.75 24,23.75 L21,23.75 C20.5857864,23.75 20.25,23.4142136 20.25,23 L20.25,22 C20.25,21.2294996 19.5637412,20.6403889 18.7844896,20.7672582 C18.2013047,20.8621815 17.75,21.4403135 17.75,22.107 L17.75,23 C17.75,23.4142136 17.4142136,23.75 17,23.75 L14,23.75 Z M14.75,22.25 L16.25,22.25 L16.25,22.107 C16.25,20.7300635 17.2068591,19.5043045 18.5434799,19.2867467 C20.2386196,19.0107623 21.75,20.3081889 21.75,22 L21.75,22.25 L23.25,22.25 L23.25,17.491 C23.25,17.1675528 23.103382,16.8625054 22.8504967,16.660666 L19.0000004,13.5804626 L15.1488575,16.661182 C14.896618,16.8625054 14.75,17.1675528 14.75,17.491 L14.75,22.25 Z M30.1517943,21.941053 C30.4445864,21.4727676 31.0615616,21.3305022 31.529847,21.6232943 C31.9981324,21.9160864 32.1403978,22.5330616 31.8476057,23.001347 L25.4126057,33.293347 C25.0269275,33.9101924 24.1326197,33.9218856 23.7309453,33.3153351 L20.8469453,28.9603351 C20.5420095,28.4998651 20.6680949,27.8793812 21.1285649,27.5744453 C21.5890349,27.2695095 22.2095188,27.3955949 22.5144547,27.8560649 L24.5405418,30.9155689 L30.1517943,21.941053 Z" id="Insurance-Certificate" fill="#2F313A" fill-rule="nonzero"></path>
    </g>
</svg>