<?xml version="1.0" encoding="UTF-8"?>
<svg width="40px" height="40px" viewBox="0 0 40 40" version="1.1" xmlns="http://www.w3.org/2000/svg" xmlns:xlink="http://www.w3.org/1999/xlink">
    <!-- Generator: Sketch 59.1 (86144) - https://sketch.com -->
    <title>Vector Files/40x40/Flattened/Docs/Report</title>
    <desc>Created with Sketch.</desc>
    <g id="40x40/Flattened/Docs/Report" stroke="none" stroke-width="1" fill="none" fill-rule="evenodd">
        <path d="M27,11.9996 L23.0004,11.9996 L23.0004,8.06135015 L22.9316579,8 L11,8 L11,30 L21,30 C21.5522847,30 22,30.4477153 22,31 C22,31.5522847 21.5522847,32 21,32 L10,32 C9.44771525,32 9,31.5522847 9,31 L9,7 C9,6.44771525 9.44771525,6 10,6 L23.313,6 C23.558602,6 23.7956152,6.0903831 23.9788544,6.25391831 L28.6658544,10.4369183 C28.8784444,10.6266482 29,10.898058 29,11.183 L29,20 C29,20.5522847 28.5522847,21 28,21 C27.4477153,21 27,20.5522847 27,20 L27,11.9996 Z M18.25,23.1840334 L18.25,19 C18.25,18.5857864 18.5857864,18.25 19,18.25 L23.1840334,18.25 C22.8298002,16.2604918 21.0912972,14.75 19,14.75 C16.6527898,14.75 14.75,16.6527898 14.75,19 C14.75,21.0912972 16.2604918,22.8298002 18.25,23.1840334 Z M23.1840334,19.75 L19.75,19.75 L19.75,23.1840334 C21.4960512,22.8731479 22.8731479,21.4960512 23.1840334,19.75 Z M28.9037864,33.1917142 C28.7432999,33.5295858 28.3989298,33.7631836 28,33.7631836 C27.6010755,33.7631836 27.2567092,33.529592 27.09622,33.1917275 L23.7993523,29.5951446 C23.4261599,29.1880256 23.4536628,28.5554583 23.8607818,28.1822659 C24.2679008,27.8090734 24.9004682,27.8365764 25.2736606,28.2436954 L27,30.1269747 L27,24.4355469 C27,23.8832621 27.4477153,23.4355469 28,23.4355469 C28.5522847,23.4355469 29,23.8832621 29,24.4355469 L29,30.1269683 L30.7263335,28.2436954 C31.0995259,27.8365764 31.7320933,27.8090734 32.1392123,28.1822659 C32.5463313,28.5554583 32.5738342,29.1880256 32.2006418,29.5951446 L28.9037864,33.1917142 L28.9037864,33.1917142 Z M19,24.75 C15.8243627,24.75 13.25,22.1756373 13.25,19 C13.25,15.8243627 15.8243627,13.25 19,13.25 C22.1756373,13.25 24.75,15.8243627 24.75,19 C24.75,22.1756373 22.1756373,24.75 19,24.75 Z" id="Report" fill="#2F313A" fill-rule="nonzero"></path>
    </g>
</svg>