<?xml version="1.0" encoding="UTF-8"?>
<svg width="40px" height="40px" viewBox="0 0 40 40" version="1.1" xmlns="http://www.w3.org/2000/svg" xmlns:xlink="http://www.w3.org/1999/xlink">
    <!-- Generator: Sketch 59.1 (86144) - https://sketch.com -->
    <title>Vector Files/40x40/Flattened/Docs/Report (Filled)</title>
    <desc>Created with Sketch.</desc>
    <g id="40x40/Flattened/Docs/Report-(Filled)" stroke="none" stroke-width="1" fill="none" fill-rule="evenodd">
        <path d="M24.5375475,31.8803413 C24.3963062,31.95667 24.2346132,32 24.0628,32 L10,32 C9.44771525,32 9,31.5522847 9,31 L9,7 C9,6.44771525 9.44771525,6 10,6 L23.313,6 C23.558602,6 23.7956152,6.0903831 23.9788544,6.25391831 L28.6658544,10.4369183 C28.8784444,10.6266482 29,10.898058 29,11.183 L29,22.7031113 C28.7058266,22.5329412 28.3642871,22.4355469 28,22.4355469 C27.4477153,22.4355469 26.9477153,22.6594045 26.5857864,23.0213333 C26.2238576,23.3832621 26,23.8832621 26,24.4355469 L26,27.5562649 C25.6279385,27.1566855 25.1298193,26.9433267 24.6233809,26.9213077 C24.1120193,26.8990746 23.5921762,27.0719193 23.1850572,27.4451117 C22.7779382,27.8183041 22.5606272,28.321184 22.5383941,28.8325455 C22.516161,29.3439071 22.6890057,29.8637503 23.0621981,30.2708692 L24.5375475,31.8803413 L24.5375475,31.8803413 Z M18.2512877,23.9443183 C18.2504332,23.9296547 18.25,23.9148779 18.25,23.9 L18.25,19 C18.25,18.5857864 18.5857864,18.25 19,18.25 L23.9441248,18.25 C23.5822621,15.8443685 21.5065187,14 19,14 C16.2385763,14 14,16.2385763 14,19 C14,21.5069659 15.8450267,23.5830028 18.2512877,23.9443183 L18.2512877,23.9443183 Z M23.9441248,19.75 L19.75,19.75 L19.75,23.9 C19.75,23.9148779 19.7495668,23.9296547 19.7487123,23.9443183 C21.9103078,23.6197409 23.6189978,21.9114156 23.9441248,19.75 L23.9441248,19.75 Z M28.9037864,33.1917142 C28.7432999,33.5295858 28.3989298,33.7631836 28,33.7631836 C27.6010755,33.7631836 27.2567092,33.529592 27.09622,33.1917275 L23.7993523,29.5951446 C23.4261599,29.1880256 23.4536628,28.5554583 23.8607818,28.1822659 C24.2679008,27.8090734 24.9004682,27.8365764 25.2736606,28.2436954 L27,30.1269747 L27,24.4355469 C27,23.8832621 27.4477153,23.4355469 28,23.4355469 C28.5522847,23.4355469 29,23.8832621 29,24.4355469 L29,30.1269683 L30.7263335,28.2436954 C31.0995259,27.8365764 31.7320933,27.8090734 32.1392123,28.1822659 C32.5463313,28.5554583 32.5738342,29.1880256 32.2006418,29.5951446 L28.9037864,33.1917142 L28.9037864,33.1917142 Z" id="Report-(Filled)" fill="#2F313A" fill-rule="nonzero"></path>
    </g>
</svg>