<?xml version="1.0" encoding="UTF-8"?>
<svg width="40px" height="40px" viewBox="0 0 40 40" version="1.1" xmlns="http://www.w3.org/2000/svg" xmlns:xlink="http://www.w3.org/1999/xlink">
    <!-- Generator: Sketch 59.1 (86144) - https://sketch.com -->
    <title>Vector Files/40x40/Flattened/Cart/Add to Cart (Filled)</title>
    <desc>Created with Sketch.</desc>
    <g id="40x40/Flattened/Cart/Add-to-Cart-(Filled)" stroke="none" stroke-width="1" fill="none" fill-rule="evenodd">
        <path d="M30,11 L30,8.9997 C30,8.44741525 29.5522847,7.9997 29,7.9997 C28.4477153,7.9997 28,8.44741525 28,8.9997 L28,11 L26,11 C25.4477153,11 25,11.4477153 25,12 C25,12.5522847 25.4477153,13 26,13 L28,13 L28,15 C28,15.5522847 28.4477153,16 29,16 C29.5522847,16 30,15.5522847 30,15 L30,13 L32,13 C32.5522847,13 33,12.5522847 33,12 C33,11.4477153 32.5522847,11 32,11 L30,11 L30,11 Z M23.0772984,11 C23.53607,8.1650285 25.9950323,6.0002 28.9595,6.0002 C32.2505,6.0002 34.9185,8.6682 34.9185,11.9592 C34.9185,15.2161817 32.3069593,17.8613893 29.0643092,17.9172971 L27.1421835,23.3343988 C27.0006097,23.7333944 26.6231201,24 26.1997519,24 L14.0611177,24 C13.6377495,24 13.2602598,23.7333944 13.118686,23.3343988 L8.7421272,11 L6,11 C5.44771525,11 5,10.5522847 5,10 C5,9.44771525 5.44771525,9 6,9 L9.4483866,9 C9.87175481,9 10.2492445,9.26660563 10.3908183,9.66560124 L10.8673894,11.0087154 C10.9107766,11.0029668 10.9550418,11 11,11 L23.0772984,11 Z M18,28.4991865 C18,29.8805727 16.8818359,31 15.5,31 C14.1181641,31 13,29.8805727 13,28.4991865 C13,27.1194273 14.1181641,26 15.5,26 C16.8818359,26 18,27.1194273 18,28.4991865 Z M27,28.4991865 C27,29.8805727 25.8805727,31 24.4991865,31 C23.1194273,31 22,29.8805727 22,28.4991865 C22,27.1194273 23.1194273,26 24.4991865,26 C25.8805727,26 27,27.1194273 27,28.4991865 Z" id="Add-to-Cart-(Filled)" fill="#2F313A" fill-rule="nonzero"></path>
    </g>
</svg>