<?xml version="1.0" encoding="UTF-8"?>
<svg width="40px" height="40px" viewBox="0 0 40 40" version="1.1" xmlns="http://www.w3.org/2000/svg" xmlns:xlink="http://www.w3.org/1999/xlink">
    <!-- Generator: Sketch 59.1 (86144) - https://sketch.com -->
    <title>Vector Files/40x40/Flattened/Cart-Bag/Add to Cart (Filled)</title>
    <desc>Created with Sketch.</desc>
    <g id="40x40/Flattened/Cart-Bag/Add-to-Cart-(Filled)" stroke="none" stroke-width="1" fill="none" fill-rule="evenodd">
        <path d="M12.0618938,12 C12.5539918,8.05368842 15.9203823,5 20,5 C24.0796177,5 27.4460082,8.05368842 27.9381062,12 L31,12 C31.5137514,12 31.943917,12.3892945 31.9950372,12.9004963 L33.9950372,32.9004963 C34.0539058,33.4891821 33.5916219,34 33,34 L7,34 C6.40837808,34 5.94609423,33.4891821 6.00496281,32.9004963 L8.00496281,12.9004963 C8.05608299,12.3892945 8.48624855,12 9,12 L12.0618938,12 L12.0618938,12 Z M14.0829584,12 L25.9170416,12 C25.4409635,9.16228666 22.9729963,7 20,7 C17.0270037,7 14.5590365,9.16228666 14.0829584,12 L14.0829584,12 Z M21,22 L21,20 C21,19.4477153 20.5522847,19 20,19 C19.4477153,19 19,19.4477153 19,20 L19,22 L17,22 C16.4477153,22 16,22.4477153 16,23 C16,23.5522847 16.4477153,24 17,24 L19,24 L19,26 C19,26.5522847 19.4477153,27 20,27 C20.5522847,27 21,26.5522847 21,26 L21,24 L23,24 C23.5522847,24 24,23.5522847 24,23 C24,22.4477153 23.5522847,22 23,22 L21,22 L21,22 Z" id="Add-to-Cart-(Filled)" fill="#2F313A" fill-rule="nonzero"></path>
    </g>
</svg>