<?xml version="1.0" encoding="UTF-8"?>
<svg width="40px" height="40px" viewBox="0 0 40 40" version="1.1" xmlns="http://www.w3.org/2000/svg" xmlns:xlink="http://www.w3.org/1999/xlink">
    <!-- Generator: Sketch 59.1 (86144) - https://sketch.com -->
    <title>Vector Files/40x40/Flattened/Cart-Bag/Add to Cart</title>
    <desc>Created with Sketch.</desc>
    <g id="40x40/Flattened/Cart-Bag/Add-to-Cart" stroke="none" stroke-width="1" fill="none" fill-rule="evenodd">
        <path d="M28,14 L28,16 C28,16.5522847 27.5522847,17 27,17 C26.4477153,17 26,16.5522847 26,16 L26,14 L14,14 L14,16 C14,16.5522847 13.5522847,17 13,17 C12.4477153,17 12,16.5522847 12,16 L12,14 L9.90498756,14 L8.10498756,32 L31.8950124,32 L30.0950124,14 L28,14 Z M12.0618938,12 C12.5539918,8.05368842 15.9203823,5 20,5 C24.0796177,5 27.4460082,8.05368842 27.9381062,12 L31,12 C31.5137514,12 31.943917,12.3892945 31.9950372,12.9004963 L33.9950372,32.9004963 C34.0539058,33.4891821 33.5916219,34 33,34 L7,34 C6.40837808,34 5.94609423,33.4891821 6.00496281,32.9004963 L8.00496281,12.9004963 C8.05608299,12.3892945 8.48624855,12 9,12 L12.0618938,12 L12.0618938,12 Z M14.0829584,12 L25.9170416,12 C25.4409635,9.16228666 22.9729963,7 20,7 C17.0270037,7 14.5590365,9.16228666 14.0829584,12 L14.0829584,12 Z M21,22 L23,22 C23.5522847,22 24,22.4477153 24,23 C24,23.5522847 23.5522847,24 23,24 L21,24 L21,26 C21,26.5522847 20.5522847,27 20,27 C19.4477153,27 19,26.5522847 19,26 L19,24 L17,24 C16.4477153,24 16,23.5522847 16,23 C16,22.4477153 16.4477153,22 17,22 L19,22 L19,20 C19,19.4477153 19.4477153,19 20,19 C20.5522847,19 21,19.4477153 21,20 L21,22 L21,22 Z" id="Add-to-Cart" fill="#2F313A" fill-rule="nonzero"></path>
    </g>
</svg>