<?xml version="1.0" encoding="UTF-8"?>
<svg width="40px" height="40px" viewBox="0 0 40 40" version="1.1" xmlns="http://www.w3.org/2000/svg" xmlns:xlink="http://www.w3.org/1999/xlink">
    <!-- Generator: Sketch 59.1 (86144) - https://sketch.com -->
    <title>Vector Files/40x40/Flattened/Cart/Empty Cart (Filled)</title>
    <desc>Created with Sketch.</desc>
    <g id="40x40/Flattened/Cart/Empty-Cart-(Filled)" stroke="none" stroke-width="1" fill="none" fill-rule="evenodd">
        <path d="M8.7421272,11 L6,11 C5.44771525,11 5,10.5522847 5,10 C5,9.44771525 5.44771525,9 6,9 L9.4483866,9 C9.87175481,9 10.2492445,9.26660563 10.3908183,9.66560124 L10.8673894,11.0087154 C10.9107766,11.0029668 10.9550418,11 11,11 L29.3268749,11 L29.8860136,9.62362973 C30.3766972,8.41576783 32.1908789,9.10572635 31.7549146,10.3343988 L27.1421835,23.3343988 C27.0006097,23.7333944 26.6231201,24 26.1997519,24 L14.0611177,24 C13.6377495,24 13.2602598,23.7333944 13.118686,23.3343988 L8.7421272,11 Z M18,28.4991865 C18,29.8805727 16.8818359,31 15.5,31 C14.1181641,31 13,29.8805727 13,28.4991865 C13,27.1194273 14.1181641,26 15.5,26 C16.8818359,26 18,27.1194273 18,28.4991865 Z M27,28.4991865 C27,29.8805727 25.8805727,31 24.4991865,31 C23.1194273,31 22,29.8805727 22,28.4991865 C22,27.1194273 23.1194273,26 24.4991865,26 C25.8805727,26 27,27.1194273 27,28.4991865 Z" id="Empty-Cart-(Filled)" fill="#2F313A" fill-rule="nonzero"></path>
    </g>
</svg>