<?xml version="1.0" encoding="UTF-8"?>
<svg width="40px" height="40px" viewBox="0 0 40 40" version="1.1" xmlns="http://www.w3.org/2000/svg" xmlns:xlink="http://www.w3.org/1999/xlink">
    <!-- Generator: Sketch 59.1 (86144) - https://sketch.com -->
    <title>Vector Files/40x40/Flattened/Cart/Empty Cart</title>
    <desc>Created with Sketch.</desc>
    <g id="40x40/Flattened/Cart/Empty-Cart" stroke="none" stroke-width="1" fill="none" fill-rule="evenodd">
        <path d="M10.8673894,11.0087154 C10.9107766,11.0029668 10.9550418,11 11,11 L29.3963001,11 L29.8697788,9.66560124 C30.0544621,9.14511059 30.6261186,8.87288499 31.1466092,9.05756832 C31.6670999,9.24225166 31.9393255,9.81390812 31.7546421,10.3343988 L27.141911,23.3343988 C27.0003372,23.7333944 26.6228475,24 26.1994793,24 L14.0611177,24 C13.6377495,24 13.2602598,23.7333944 13.118686,23.3343988 L8.7421272,11 L6,11 C5.44771525,11 5,10.5522847 5,10 C5,9.44771525 5.44771525,9 6,9 L9.4483866,9 C9.87175481,9 10.2492445,9.26660563 10.3908183,9.66560124 L10.8673894,11.0087154 L10.8673894,11.0087154 Z M11.5739479,13 L14.7673771,22 L22.3043478,22 L25.4932199,22 L28.6866492,13 L11.5739479,13 Z M18,28.4991865 C18,29.8805727 16.8818359,31 15.5,31 C14.1181641,31 13,29.8805727 13,28.4991865 C13,27.1194273 14.1181641,26 15.5,26 C16.8818359,26 18,27.1194273 18,28.4991865 Z M27,28.4991865 C27,29.8805727 25.8805727,31 24.4991865,31 C23.1194273,31 22,29.8805727 22,28.4991865 C22,27.1194273 23.1194273,26 24.4991865,26 C25.8805727,26 27,27.1194273 27,28.4991865 Z" id="Empty-Cart" fill="#2F313A" fill-rule="nonzero"></path>
    </g>
</svg>