<?xml version="1.0" encoding="UTF-8"?>
<svg width="40px" height="40px" viewBox="0 0 40 40" version="1.1" xmlns="http://www.w3.org/2000/svg" xmlns:xlink="http://www.w3.org/1999/xlink">
    <!-- Generator: Sketch 59.1 (86144) - https://sketch.com -->
    <title>Vector Files/40x40/Flattened/Cart/In Cart</title>
    <desc>Created with Sketch.</desc>
    <g id="40x40/Flattened/Cart/In-Cart" stroke="none" stroke-width="1" fill="none" fill-rule="evenodd">
        <path d="M15.5,26 C16.8818359,26 18,27.1194273 18,28.4991865 C18,29.8805727 16.8818359,31 15.5,31 C14.1181641,31 13,29.8805727 13,28.4991865 C13,27.1194273 14.1181641,26 15.5,26 Z M24.4991865,26 C25.8805727,26 27,27.1194273 27,28.4991865 C27,29.8805727 25.8805727,31 24.4991865,31 C23.1194273,31 22,29.8805727 22,28.4991865 C22,27.1194273 23.1194273,26 24.4991865,26 Z M28.959,6 C32.25,6 34.918,8.668 34.918,11.959 C34.918,15.2158811 32.3066205,17.861026 29.0641095,17.9170919 L27.141911,23.3343988 C27.0003372,23.7333944 26.6228475,24 26.1994793,24 L14.0611177,24 C13.6377495,24 13.2602598,23.7333944 13.118686,23.3343988 L8.7421272,11 L6,11 C5.44771525,11 5,10.5522847 5,10 C5,9.44771525 5.44771525,9 6,9 L9.4483866,9 C9.87175481,9 10.2492445,9.26660563 10.3908183,9.66560124 L10.8673894,11.0087154 C10.9107766,11.0029668 10.9550418,11 11,11 L23.076766,11 C23.5354543,8.16493031 25.9944626,6 28.959,6 Z M23.0905771,13 L11.5739479,13 L14.7673771,22 L25.4932199,22 L27.0521575,17.6064666 C25.0150224,16.9190436 23.4710575,15.1604444 23.0905771,13 Z M32.0322069,9.15338567 C31.5646347,8.85945592 30.9473154,9.00022092 30.6533857,9.4677931 L30.6533857,9.4677931 L28.2943074,13.2205244 L27.3071598,11.8708018 C26.9811279,11.4250198 26.355449,11.3279431 25.909667,11.6539751 C25.4638849,11.980007 25.3668083,12.6056858 25.6928402,13.0514679 L25.6928402,13.0514679 L27.5496918,15.590333 C27.9667299,16.1605474 28.8274908,16.1302937 29.2034659,15.5322069 L29.2034659,15.5322069 L32.3466143,10.5322069 C32.6405441,10.0646347 32.4997791,9.44731542 32.0322069,9.15338567 Z" id="In-Cart" fill="#2F313A" fill-rule="nonzero"></path>
    </g>
</svg>