<?xml version="1.0" encoding="UTF-8"?>
<svg width="40px" height="40px" viewBox="0 0 40 40" version="1.1" xmlns="http://www.w3.org/2000/svg" xmlns:xlink="http://www.w3.org/1999/xlink">
    <!-- Generator: Sketch 59.1 (86144) - https://sketch.com -->
    <title>Vector Files/40x40/Flattened/Cart-Bag/In Cart (Filled)</title>
    <desc>Created with Sketch.</desc>
    <g id="40x40/Flattened/Cart-Bag/In-Cart-(Filled)" stroke="none" stroke-width="1" fill="none" fill-rule="evenodd">
        <path d="M12.0618938,12 C12.5539918,8.05368842 15.9203823,5 20,5 C24.0796177,5 27.4460082,8.05368842 27.9381062,12 L31,12 C31.5137514,12 31.943917,12.3892945 31.9950372,12.9004963 L33.9950372,32.9004963 C34.0539058,33.4891821 33.5916219,34 33,34 L7,34 C6.40837808,34 5.94609423,33.4891821 6.00496281,32.9004963 L8.00496281,12.9004963 C8.05608299,12.3892945 8.48624855,12 9,12 L12.0618938,12 L12.0618938,12 Z M14.0829584,12 L25.9170416,12 C25.4409635,9.16228666 22.9729963,7 20,7 C17.0270037,7 14.5590365,9.16228666 14.0829584,12 Z M22.1533857,19.4677931 L19.1656777,24.2205244 L17.8071598,22.3630288 C17.4811279,21.9172468 16.855449,21.8201701 16.409667,22.146202 C15.9638849,22.472234 15.8668083,23.0979128 16.1928402,23.5436949 L18.4210621,26.590333 C18.8381002,27.1605474 19.6988611,27.1302937 20.0748362,26.5322069 L23.8466143,20.5322069 C24.1405441,20.0646347 23.9997791,19.4473154 23.5322069,19.1533857 C23.0646347,18.8594559 22.4473154,19.0002209 22.1533857,19.4677931 Z" id="Shape" fill="#2F313A" fill-rule="nonzero"></path>
    </g>
</svg>