<?xml version="1.0" encoding="UTF-8"?>
<svg width="24px" height="24px" viewBox="0 0 24 24" version="1.1" xmlns="http://www.w3.org/2000/svg" xmlns:xlink="http://www.w3.org/1999/xlink">
    <title>Vector Files/24x24/Shopping &amp; Delivery/Bag - Empty</title>
    <g id="Symbols" stroke="none" stroke-width="1" fill="none" fill-rule="evenodd">
        <g id="24x24/Shopping-&amp;-Delivery/Bag---Empty" transform="translate(-0.000000, 0.000000)" fill="#2F313A">
            <path d="M12,3 C14.1421954,3 15.8910789,4.68396847 15.9951047,6.80035966 L15.9999208,6.999 L18,7 C18.4481026,7 18.836,7.29696513 18.959439,7.71786683 L18.9863939,7.83560101 L20.5982609,17.506803 C20.8706461,19.141114 19.7665871,20.6867966 18.1322761,20.9591818 C18.0236133,20.9772922 17.9140767,20.9893969 17.8041652,20.9954543 L17.6390792,21 L6.36092084,21 C4.70406659,21 3.36092084,19.6568542 3.36092084,18 C3.36092084,17.8898383 3.36698863,17.7798021 3.37908292,17.6703902 L3.40173907,17.506803 L5.01360608,7.83560101 C5.08727368,7.39359537 5.44396823,7.05979644 5.87943636,7.00723277 L6,7 L7.99992084,6.999 L8.00489531,6.80035966 C8.10892112,4.68396847 9.85780461,3 12,3 Z M17.152,8.999 L15.9999208,8.999 L16,10 C16,10.5522847 15.5522847,11 15,11 C14.4871642,11 14.0644928,10.6139598 14.0067277,10.1166211 L14,10 L13.9999208,8.999 L9.99992084,8.999 L10,10 C10,10.5522847 9.55228475,11 9,11 C8.48716416,11 8.06449284,10.6139598 8.00672773,10.1166211 L8,10 L7.99992084,8.999 L6.847,8.999 L5.36858079,17.8764637 L5.36092084,18 C5.36092084,18.5128358 5.74696103,18.9355072 6.24429972,18.9932723 L6.36092084,19 L17.6390792,19 C17.69416,19 17.7491467,18.9954492 17.8034781,18.9863939 C18.3093363,18.9020842 18.6627921,18.4518098 18.6380093,17.9517414 L18.6254731,17.835601 L17.152,8.999 Z M12,5 C10.9456382,5 10.0818349,5.81587779 10.0054857,6.85073766 L9.99992084,6.999 L13.9999208,6.999 L13.9945143,6.85073766 C13.9181651,5.81587779 13.0543618,5 12,5 Z" id="Bag---Empty"></path>
        </g>
    </g>
</svg>