<?xml version="1.0" encoding="UTF-8"?>
<svg width="24px" height="24px" viewBox="0 0 24 24" version="1.1" xmlns="http://www.w3.org/2000/svg" xmlns:xlink="http://www.w3.org/1999/xlink">
    <title>Vector Files/24x24/Shopping &amp; Delivery/Bag - Add (Filled)</title>
    <g id="Symbols" stroke="none" stroke-width="1" fill="none" fill-rule="evenodd">
        <g id="24x24/Shopping-&amp;-Delivery/Bag---Add-(Filled)" transform="translate(-0.000000, 0.000000)" fill="#2F313A">
            <path d="M12,3 C14.1421954,3 15.8910789,4.68396847 15.9951047,6.80035966 L15.9999208,6.999 L18,7 C18.4481026,7 18.836,7.29696513 18.959439,7.71786683 L18.9863939,7.83560101 L20.5982609,17.506803 C20.8706461,19.141114 19.7665871,20.6867966 18.1322761,20.9591818 C18.0236133,20.9772922 17.9140767,20.9893969 17.8041652,20.9954543 L17.6390792,21 L6.36092084,21 C4.70406659,21 3.36092084,19.6568542 3.36092084,18 C3.36092084,17.8898383 3.36698863,17.7798021 3.37908292,17.6703902 L3.40173907,17.506803 L5.01360608,7.83560101 C5.08727368,7.39359537 5.44396823,7.05979644 5.87943636,7.00723277 L6,7 L7.99992084,6.999 L8.00489531,6.80035966 C8.10892112,4.68396847 9.85780461,3 12,3 Z M12,11 C11.4477153,11 11,11.4477153 11,12 L11,12 L11,13 L10,13 L9.88337887,13.0067277 C9.38604019,13.0644928 9,13.4871642 9,14 C9,14.5522847 9.44771525,15 10,15 L10,15 L11,15 L11,16 L11.0067277,16.1166211 C11.0644928,16.6139598 11.4871642,17 12,17 C12.5522847,17 13,16.5522847 13,16 L13,16 L13,15 L14,15 L14.1166211,14.9932723 C14.6139598,14.9355072 15,14.5128358 15,14 C15,13.4477153 14.5522847,13 14,13 L14,13 L13,13 L13,12 L12.9932723,11.8833789 C12.9355072,11.3860402 12.5128358,11 12,11 Z M12,5 C10.9456382,5 10.0818349,5.81587779 10.0054857,6.85073766 L9.99992084,6.999 L13.9999208,6.999 L13.9945143,6.85073766 C13.9181651,5.81587779 13.0543618,5 12,5 Z" id="Bag---Add-(Filled)"></path>
        </g>
    </g>
</svg>