<?xml version="1.0" encoding="UTF-8"?>
<svg width="24px" height="24px" viewBox="0 0 24 24" version="1.1" xmlns="http://www.w3.org/2000/svg" xmlns:xlink="http://www.w3.org/1999/xlink">
    <title>Vector Files/24x24/Shopping &amp; Delivery/Bag - Check (Filled)</title>
    <g id="Symbols" stroke="none" stroke-width="1" fill="none" fill-rule="evenodd">
        <g id="24x24/Shopping-&amp;-Delivery/Bag---Check-(Filled)" transform="translate(-0.000000, 0.000000)" fill="#2F313A">
            <path d="M12,3 C14.1421954,3 15.8910789,4.68396847 15.9951047,6.80035966 L15.9999208,6.999 L18,7 C18.4481026,7 18.836,7.29696513 18.959439,7.71786683 L18.9863939,7.83560101 L20.5982609,17.506803 C20.8706461,19.141114 19.7665871,20.6867966 18.1322761,20.9591818 C18.0236133,20.9772922 17.9140767,20.9893969 17.8041652,20.9954543 L17.6390792,21 L6.36092084,21 C4.70406659,21 3.36092084,19.6568542 3.36092084,18 C3.36092084,17.8898383 3.36698863,17.7798021 3.37908292,17.6703902 L3.40173907,17.506803 L5.01360608,7.83560101 C5.08727368,7.39359537 5.44396823,7.05979644 5.87943636,7.00723277 L6,7 L7.99992084,6.999 L8.00489531,6.80035966 C8.10892112,4.68396847 9.85780461,3 12,3 Z M14.5322069,11.6533857 C14.0646347,11.3594559 13.4473154,11.5002209 13.1533857,11.9677931 L13.1533857,11.9677931 L11.422,14.72 L10.8071598,13.8785749 L10.7268207,13.781926 C10.3859341,13.4203616 9.82115809,13.3607956 9.40966698,13.6617481 C8.96388494,13.98778 8.86680829,14.6134589 9.19284021,15.0592409 L9.19284021,15.0592409 L10.6783215,17.090333 L10.7614893,17.1902194 C11.201061,17.6545476 11.9796189,17.5929133 12.3320956,17.0322069 L12.3320956,17.0322069 L14.8466143,13.0322069 L14.9029851,12.9298932 C15.1187674,12.4780962 14.9663811,11.9263204 14.5322069,11.6533857 Z M12,5 C10.9456382,5 10.0818349,5.81587779 10.0054857,6.85073766 L9.99992084,6.999 L13.9999208,6.999 L13.9945143,6.85073766 C13.9181651,5.81587779 13.0543618,5 12,5 Z" id="Bag---Check-(Filled)"></path>
        </g>
    </g>
</svg>