<?xml version="1.0" encoding="UTF-8"?>
<svg width="24px" height="24px" viewBox="0 0 24 24" version="1.1" xmlns="http://www.w3.org/2000/svg" xmlns:xlink="http://www.w3.org/1999/xlink">
    <title>Vector Files/24x24/Shopping &amp; Delivery/Coupon (Filled)</title>
    <g id="Symbols" stroke="none" stroke-width="1" fill="none" fill-rule="evenodd">
        <g id="24x24/Shopping-&amp;-Delivery/Coupon-(Filled)" transform="translate(-0.000000, 0.000000)" fill="#2F313A">
            <path d="M10.4302399,2.560853 C11.2774316,1.80454804 12.5345565,1.76474251 13.424899,2.44143642 L13.5697601,2.560853 L14.8716742,3.72309772 C14.9228732,3.76880409 14.9857657,3.79846294 15.0525996,3.80925277 L15.1204602,3.81364841 L16.8648607,3.76017153 C18.0085901,3.72510901 19.0035611,4.51477216 19.2411495,5.61846477 L19.2698728,5.77821625 L19.5201203,7.50540159 C19.5299615,7.57332479 19.5590756,7.63647128 19.6033378,7.68769677 L19.6524965,7.73468399 L21.0231592,8.81499738 C21.917565,9.51994009 22.1740113,10.7559451 21.6564958,11.751705 L21.5683311,11.9068213 L20.6498185,13.390778 C20.6136971,13.449136 20.59541,13.5162232 20.5963897,13.5839154 L20.6038447,13.6515083 L20.9594212,15.3601214 C21.1925575,16.4803864 20.587666,17.5973651 19.5419978,18.0229982 L19.389661,18.0790256 L17.7321705,18.6253939 C17.6669882,18.6468804 17.6098566,18.6865174 17.5670954,18.7390024 L17.5293584,18.7955736 L16.7034704,20.3330072 C16.1631986,21.3387514 14.9859712,21.8057558 13.9133088,21.4641289 L13.7532864,21.4067864 L12.1323763,20.7599144 C12.0686324,20.7344756 11.9993889,20.7281158 11.9328953,20.7408353 L11.8676237,20.7599144 L10.2467136,21.4067864 C9.18636149,21.8299511 7.98436836,21.43099 7.38225483,20.4797945 L7.29652958,20.3330072 L6.47064165,18.7955736 C6.43816282,18.7351125 6.38920717,18.6857319 6.33009417,18.6527342 L6.26782946,18.6253939 L4.61033897,18.0790256 C3.5235928,17.7207951 2.85870663,16.6384544 3.01293162,15.5200626 L3.04057884,15.3601214 L3.39615527,13.6515083 C3.41013864,13.5843155 3.40437773,13.5150196 3.38030504,13.4517448 L3.35018147,13.390778 L2.43166886,11.9068213 C1.83230689,10.938487 2.01406481,9.68931236 2.84094029,8.93060493 L2.97684083,8.81499738 L4.34750345,7.73468399 C4.40140606,7.69219965 4.44153549,7.63541287 4.46376697,7.57146795 L4.47987971,7.50540159 L4.73012724,5.77821625 C4.89420392,4.64577412 5.84464521,3.80304257 6.97282705,3.76071783 L7.13513928,3.76017153 L8.87953982,3.81364841 C8.94814003,3.81575144 9.01538279,3.79804494 9.0735161,3.76335042 L9.12832581,3.72309772 L10.4302399,2.560853 Z M13.9261427,13.1144082 C14.4866901,12.8819221 15.1316112,13.010345 15.5609426,13.4397254 C15.9893358,13.8681699 16.1177561,14.5131645 15.8862228,15.0737758 C15.6537633,15.6344111 15.1063183,16 14.4998165,16 C13.6721098,15.999064 13.0009383,15.3278136 13,14.5000126 C13,13.8934656 13.3655953,13.3459678 13.9261427,13.1144082 Z M15.7071068,8.29289322 C16.0675907,8.65337718 16.0953203,9.22060824 15.7902954,9.61289944 L15.7071068,9.70710678 L9.70710678,15.7071068 C9.31658249,16.0976311 8.68341751,16.0976311 8.29289322,15.7071068 C7.93240926,15.3466228 7.90467972,14.7793918 8.20970461,14.3871006 L8.29289322,14.2928932 L14.2928932,8.29289322 C14.6834175,7.90236893 15.3165825,7.90236893 15.7071068,8.29289322 Z M8.92614267,8.11440817 C9.48669008,7.88192211 10.1316112,8.01034504 10.5609426,8.43972544 C10.9893358,8.86816985 11.1177561,9.51316445 10.8862228,10.0737758 C10.6537633,10.6344111 10.1063183,11 9.49981647,11 C8.67210976,10.999064 8.00093829,10.3278136 8,9.50001256 C8,8.89346564 8.36559526,8.34596783 8.92614267,8.11440817 Z" id="Coupon-(Filled)"></path>
        </g>
    </g>
</svg>