<?xml version="1.0" encoding="UTF-8"?>
<svg width="24px" height="24px" viewBox="0 0 24 24" version="1.1" xmlns="http://www.w3.org/2000/svg" xmlns:xlink="http://www.w3.org/1999/xlink">
    <title>Vector Files/24x24/Shopping &amp; Delivery/Delivery by Carrier (Filled)</title>
    <g id="Symbols" stroke="none" stroke-width="1" fill="none" fill-rule="evenodd">
        <g id="24x24/Shopping-&amp;-Delivery/Delivery-by-Carrier-(Filled)" transform="translate(-0.000000, 0.000000)" fill="#2F313A">
            <path d="M16.3233983,5 C17.0862842,5 17.7775149,5.43327656 18.1134642,6.1079276 L18.179912,6.25612025 L19.723661,10.1088816 C19.7746891,10.2362332 19.8511829,10.3512575 19.9479398,10.4471641 L20.0512584,10.5364467 L20.8019784,11.1004545 C21.5023572,11.6266416 21.9350205,12.4302883 21.9932562,13.2977504 L22,13.4989695 L22,17.0021859 C22,17.5150217 21.6139598,17.937693 21.1166211,17.9954581 L21,18.0021859 L19.4494747,18.0023287 C19.2168175,19.1420226 18.2082389,20 17,20 C15.7909072,20 14.782464,19.141656 14.5502967,18.0013727 L10.4498854,18.0003125 C10.2180068,19.1410105 9.20895134,20 8,20 C6.79090721,20 5.78246403,19.141656 5.55029665,18.0013727 L5.00122838,18.0013108 C3.40327489,18.003274 2.09626691,16.7548753 2.00429773,15.1793129 L1.99912604,15.002951 L2,7 C2,5.9456382 2.81587779,5.08183488 3.85073766,5.00548574 L4,5 L16.3233983,5 Z M17.525126,10 L16.3233983,7 L12.999126,7 L13,10 L17.525126,10 Z" id="Delivery-by-Carrier-(Filled)"></path>
        </g>
    </g>
</svg>