<?xml version="1.0" encoding="UTF-8"?>
<svg width="24px" height="24px" viewBox="0 0 24 24" version="1.1" xmlns="http://www.w3.org/2000/svg" xmlns:xlink="http://www.w3.org/1999/xlink">
    <title>Vector Files/24x24/Shopping &amp; Delivery/Pickup Point (Filled)</title>
    <g id="Symbols" stroke="none" stroke-width="1" fill="none" fill-rule="evenodd">
        <g id="24x24/Shopping-&amp;-Delivery/Pickup-Point-(Filled)" transform="translate(-0.000000, 0.000000)" fill="#2F313A">
            <path d="M19.023,4 C20.691916,4 22,5.23175629 22,6.9325 C22,8.20249811 21.559056,9.37583962 20.8354144,10.4279018 C20.5453733,10.8495764 20.2540093,11.1932436 20.0000246,11.4526422 L20,16 C20.5522847,16 21,16.4477153 21,17 C21,17.5128358 20.6139598,17.9355072 20.1166211,17.9932723 L20,18 L3,18 C2.44771525,18 2,17.5522847 2,17 C2,16.4871642 2.38604019,16.0644928 2.88337887,16.0067277 L3,16 L3.998,16 L3.998,13 L3.88337887,12.9932723 C3.38604019,12.9355072 3,12.5128358 3,12 C3,11.4871642 3.38604019,11.0644928 3.88337887,11.0067277 L4,11 L16,11 C16.5522847,11 17,11.4477153 17,12 C17,12.5128358 16.6139598,12.9355072 16.1166211,12.9932723 L15.998,13 L15.998,16 L18,16 L18.0009952,11.4536835 C17.7467708,11.1941636 17.455015,10.8501409 17.1645856,10.4279018 C16.440944,9.37583962 16,8.20249811 16,6.9325 C16,5.29261385 17.21665,4.08858913 18.799647,4.00467905 L19.023,4 Z M11,13 L10,13 L10,16 L11,16 L11,13 Z M14,6 C14.5522847,6 15,6.44771525 15,7 C15,7.51283584 14.6139598,7.93550716 14.1166211,7.99327227 L13.998,8 L13.998,10 L5.998,10 L5.998,8 L5.88337887,7.99327227 C5.38604019,7.93550716 5,7.51283584 5,7 C5,6.48716416 5.38604019,6.06449284 5.88337887,6.00672773 L6,6 L14,6 Z" id="Pickup-Point-(Filled)"></path>
        </g>
    </g>
</svg>