<?xml version="1.0" encoding="UTF-8"?>
<svg width="24px" height="24px" viewBox="0 0 24 24" version="1.1" xmlns="http://www.w3.org/2000/svg" xmlns:xlink="http://www.w3.org/1999/xlink">
    <title>Vector Files/24x24/Shopping &amp; Delivery/Tag (Filled)</title>
    <g id="Symbols" stroke="none" stroke-width="1" fill="none" fill-rule="evenodd">
        <g id="24x24/Shopping-&amp;-Delivery/Tag-(Filled)" transform="translate(-0.000000, 0.000000)" fill="#2F313A">
            <path d="M18.6330713,17.5359643 L18.6340713,18.7230174 C18.6340713,20.2194165 17.4659286,21.4429813 15.9917921,21.5315631 L15.8203905,21.5366981 L8.44775199,21.5366981 C6.95135284,21.5366981 5.72778802,20.3685555 5.63920627,18.894419 L5.63407125,18.7230174 L5.63407125,17.5366981 L18.6330713,17.5359643 Z M10.1786527,3.29549467 C11.2237634,2.28537256 12.8559045,2.24328414 13.9499344,3.16922941 L14.0894898,3.29549467 L17.7758091,6.85840188 C18.2744609,7.34035959 18.5757806,7.98760469 18.6264449,8.67443976 L18.6340713,8.88155228 L18.6330713,15.5359643 L5.63407125,15.5366981 L5.63407125,8.88155228 C5.63407125,8.1880562 5.89005904,7.52158033 6.34871118,7.00782212 L6.49233342,6.85840188 L10.1786527,3.29549467 Z M12.1340713,7.53669811 C11.3056441,7.53669811 10.6340713,8.20827099 10.6340713,9.03669811 C10.6340713,9.86512524 11.3056441,10.5366981 12.1340713,10.5366981 C12.9624984,10.5366981 13.6340713,9.86512524 13.6340713,9.03669811 C13.6340713,8.20827099 12.9624984,7.53669811 12.1340713,7.53669811 Z" id="Tag-(Filled)" transform="translate(12.134071, 12.020831) rotate(33.000000) translate(-12.134071, -12.020831) "></path>
        </g>
    </g>
</svg>