<?xml version="1.0" encoding="UTF-8"?>
<svg width="100px" height="100px" viewBox="0 0 100 100" version="1.1" xmlns="http://www.w3.org/2000/svg" xmlns:xlink="http://www.w3.org/1999/xlink">
    <!-- Generator: Sketch 59.1 (86144) - https://sketch.com -->
    <title>Vector Files/100x100/Flattened/Menu/Bullhorn</title>
    <desc>Created with Sketch.</desc>
    <g id="100x100/Flattened/Menu/Bullhorn" stroke="none" stroke-width="1" fill="none" fill-rule="evenodd">
        <path d="M26.8464855,59.2643 L21.7206,59.2643 C21.0061205,59.2643 20.3908069,58.7603578 20.2500125,58.0598881 L16.0290125,37.0598881 C15.8423667,36.1313022 16.552442,35.2643 17.4996,35.2643 L44.1386,35.2643 L44.1386,33.7015 C44.1386,32.8730729 44.8101729,32.2015 45.6386,32.2015 C53.6214779,32.2015 61.4688068,30.3344306 68.8356684,27.2194314 C69.5924853,26.8994194 70.3281048,26.5727541 71.0414392,26.2414337 C71.2944107,25.9702059 71.6467616,25.7928787 72.0404866,25.7674575 C73.3810203,25.1179198 74.6359826,24.4544658 75.7974654,23.7916246 C76.5100335,23.3849725 77.1343251,23.0084441 77.664987,22.6719915 C77.9777321,22.4737034 78.1863068,22.3353183 78.285381,22.2667993 C79.2802889,21.5787278 80.6386,22.2908371 80.6386,23.5005 L80.6386,41.6047849 C80.6679809,41.6030696 80.6975889,41.6022 80.7274,41.6022 C83.6966662,41.6022 85.1384,43.8313362 85.1384,47.0132 C85.1384,50.1950638 83.6966662,52.4242 80.7274,52.4242 C80.6975889,52.4242 80.6679809,52.4233304 80.6386,52.4216151 L80.6386,70.5275 C80.6386,71.7372255 79.2801642,72.4493209 78.2852678,71.7611224 C78.1861939,71.6925901 77.9776194,71.5541781 77.6648747,71.3558513 C77.1342134,71.0193332 76.5099226,70.6427314 75.7973555,70.2360001 C73.7521999,69.068631 71.4172139,67.8993617 68.8355712,66.8075275 C61.4687341,63.691928 53.6214368,61.8245 45.6386,61.8245 C44.8101729,61.8245 44.1386,61.1529271 44.1386,60.3245 L44.1386,59.2643 L40.943535,59.2643 L45.5915958,77.391737 C45.8349015,78.340629 45.1181886,79.2643 44.1386,79.2643 L33.1386,79.2643 C32.4536655,79.2643 31.855725,78.8003343 31.6856042,78.136863 L26.8464855,59.2643 Z M29.943535,59.2643 L34.3025094,76.2643 L42.2054598,76.2643 L37.8464855,59.2643 L29.943535,59.2643 Z M73.6386,28.3259162 L73.6386,65.7014018 C74.9327612,66.3360173 76.1500863,66.9830239 77.284532,67.6305624 C77.4048473,67.699238 77.5228769,67.767158 77.6386,67.8342843 L77.6386,26.1934445 C77.5228417,26.260576 77.4047754,26.328504 77.2844221,26.3971879 C76.1500084,27.0445811 74.9327201,27.6914425 73.6386,28.3259162 L73.6386,28.3259162 Z M70.6386,29.710717 C70.4286876,29.8018202 70.2171575,29.8924506 70.0040316,29.9825686 C62.7511423,33.0493758 55.0386488,34.9640866 47.1386,35.1808795 L47.1386,58.8451244 C55.0386889,59.0619596 62.7512142,60.9770533 70.0041288,64.0444725 C70.2172212,64.134594 70.4287183,64.2252278 70.6386,64.3163344 L70.6386,29.710717 L70.6386,29.710717 Z M80.6386,49.4267849 C80.6679809,49.4250696 80.6975889,49.4242 80.7274,49.4242 C81.6966432,49.4242 82.1384,48.7411779 82.1384,47.0132 C82.1384,45.2852221 81.6966432,44.6022 80.7274,44.6022 C80.6975889,44.6022 80.6679809,44.6013304 80.6386,44.5996151 L80.6386,49.4267849 L80.6386,49.4267849 Z M44.1386,56.2643 L44.1386,38.2643 L19.3311007,38.2643 L22.9491007,56.2643 L44.1386,56.2643 L44.1386,56.2643 Z M49.6386,37.2643 C49.6386,36.7120153 50.0863153,36.2643 50.6386,36.2643 C51.1908847,36.2643 51.6386,36.7120153 51.6386,37.2643 L51.6386,47.2643 C51.6386,47.8165847 51.1908847,48.2643 50.6386,48.2643 C50.0863153,48.2643 49.6386,47.8165847 49.6386,47.2643 L49.6386,37.2643 Z M49.6386,51.2643 C49.6386,50.7120153 50.0863153,50.2643 50.6386,50.2643 C51.1908847,50.2643 51.6386,50.7120153 51.6386,51.2643 L51.6386,53.2643 C51.6386,53.8165847 51.1908847,54.2643 50.6386,54.2643 C50.0863153,54.2643 49.6386,53.8165847 49.6386,53.2643 L49.6386,51.2643 Z M25.6386,44.2643 C25.0863153,44.2643 24.6386,43.8165847 24.6386,43.2643 C24.6386,42.7120153 25.0863153,42.2643 25.6386,42.2643 L35.6386,42.2643 C36.1908847,42.2643 36.6386,42.7120153 36.6386,43.2643 C36.6386,43.8165847 36.1908847,44.2643 35.6386,44.2643 L25.6386,44.2643 Z M25.6386,48.2643 C25.0863153,48.2643 24.6386,47.8165847 24.6386,47.2643 C24.6386,46.7120153 25.0863153,46.2643 25.6386,46.2643 L35.6386,46.2643 C36.1908847,46.2643 36.6386,46.7120153 36.6386,47.2643 C36.6386,47.8165847 36.1908847,48.2643 35.6386,48.2643 L25.6386,48.2643 Z M25.6386,52.2643 C25.0863153,52.2643 24.6386,51.8165847 24.6386,51.2643 C24.6386,50.7120153 25.0863153,50.2643 25.6386,50.2643 L35.6386,50.2643 C36.1908847,50.2643 36.6386,50.7120153 36.6386,51.2643 C36.6386,51.8165847 36.1908847,52.2643 35.6386,52.2643 L25.6386,52.2643 Z" id="Bullhorn" fill="#2F313A" fill-rule="nonzero"></path>
    </g>
</svg>