<?xml version="1.0" encoding="UTF-8"?>
<svg width="100px" height="100px" viewBox="0 0 100 100" version="1.1" xmlns="http://www.w3.org/2000/svg" xmlns:xlink="http://www.w3.org/1999/xlink">
    <!-- Generator: Sketch 59.1 (86144) - https://sketch.com -->
    <title>Vector Files/100x100/Flattened/Menu/Handshake</title>
    <desc>Created with Sketch.</desc>
    <g id="100x100/Flattened/Menu/Handshake" stroke="none" stroke-width="1" fill="none" fill-rule="evenodd">
        <path d="M69.9561041,64.9613108 C68.8943202,65.5651063 67.95679,66.0071057 66.4410383,66.6549948 C66.2856311,66.7213528 66.2856311,66.7213528 66.1309988,66.787217 C62.1217981,68.4945637 60.2657174,69.5855899 57.1489258,72.5069953 L54.0544296,75.6008907 C52.0336819,77.6230466 48.7566406,77.6231698 46.7357398,75.6012602 C46.1399846,75.0058022 45.7197792,74.3012879 45.4751116,73.5520002 C43.4908178,74.7199678 40.8957434,74.4520372 39.1945094,72.7484295 C38.1776421,71.7322703 37.6720885,70.3984307 37.6777927,69.0664466 C36.345847,69.0722564 35.0122639,68.5671841 33.9963094,67.5512295 C32.9321688,66.48783 32.4279881,65.0762493 32.4837135,63.682973 C31.3296832,63.5601794 30.2286631,63.0507309 29.3728705,62.1958907 C27.3525766,60.1741889 27.3525766,56.8990111 29.3732399,54.8769398 L29.6164724,54.6337074 C28.9537562,54.0655785 28.2822186,53.483808 27.602652,52.8893086 C23.9907958,49.7295798 20.3043723,46.3466592 16.7386161,42.9640167 C15.4907735,41.7802551 14.3469388,40.6808872 13.3316459,39.6939365 C12.9759642,39.3481838 12.6616444,39.0410684 12.3917561,38.7760955 C12.2292807,38.6165791 12.1173875,38.5062264 12.0591476,38.4485435 C11.4705538,37.865578 11.4659911,36.9158414 12.0489566,36.3272476 C12.6319221,35.7386537 13.5816586,35.734091 14.1702525,36.3170565 C14.2254217,36.3716982 14.3341952,36.4789743 14.4934929,36.6353707 C14.7598932,36.8969192 15.0706657,37.2005686 15.4227289,37.5428038 C16.4295641,38.5215329 17.5646519,39.6124939 18.8033156,40.787548 C22.3418631,44.1443791 25.9995533,47.500932 29.5779373,50.6313786 C30.3100646,51.2718591 31.0324833,51.8971542 31.7441247,52.5060551 L35.3396094,48.9105705 C37.3614345,46.8901533 40.6381821,46.8901533 42.6575602,48.9109398 C43.3450282,49.5984078 43.8074549,50.4431281 44.0271848,51.3435745 C45.6956513,50.9744239 47.511466,51.4387456 48.8092602,52.7365398 C49.8258135,53.7530931 50.3312443,55.086657 50.3255525,56.4184459 C51.6573564,56.4128552 52.9910225,56.9183021 54.0074602,57.9347398 C55.023586,58.9508656 55.5287664,60.2845547 55.5230013,61.6164421 C56.8547529,61.6108502 58.1884286,62.1160161 59.2050602,63.1319398 C60.033181,63.9600606 60.5219369,64.9992718 60.6713207,66.0765702 C61.9039349,65.3802737 63.2621995,64.748212 64.9555734,64.0270766 C65.1091969,63.961642 65.1091969,63.961642 65.2619236,63.8964284 C66.216399,63.4884498 66.9131302,63.1737501 67.5533142,62.8486589 C67.4406394,62.3981285 67.5380969,61.9017611 67.8595722,61.518915 C68.3922978,60.8844901 69.3384602,60.8020465 69.9728851,61.3347721 C72.1109054,63.1300645 73.2186924,63.2335379 75.7890783,61.0649914 C76.3384797,60.6015034 76.5778994,60.1561178 76.616071,59.6758469 C76.6785189,58.8901352 76.2073843,57.8682392 75.3217682,56.7754368 C75.0520097,56.4425694 74.7621823,56.1248428 74.4514757,55.8121736 C74.2729554,55.6325256 73.8398898,55.2185129 73.8543823,55.2328815 C72.5129672,53.9034703 69.3372813,51.0522615 64.6108739,46.9024083 C64.4849085,46.7918188 64.4849085,46.7918188 64.3589162,46.6812442 C62.5295325,45.0758596 56.7150249,40.00426 55.0096375,38.5081829 L53.0972573,40.420563 C52.4154294,41.1025158 51.6937653,41.6423567 50.9358881,42.0415219 C47.8292353,43.6777603 44.6027471,42.8688442 41.6024583,40.6510477 C40.5138495,39.8463543 39.695409,39.0421043 39.2146219,38.4765089 C38.7084876,37.881095 38.7442827,36.996847 39.2968878,36.4442919 L48.5255729,27.2164414 C47.2058685,26.5892575 45.427563,26.5169201 43.4005649,26.9534522 C42.6440778,27.1161885 42.028311,27.2865066 40.642249,27.6989312 C40.5908198,27.7142341 40.5908198,27.7142341 40.5392959,27.7295619 C38.4689684,28.3453921 37.4400995,28.6032378 36.1455349,28.7618645 C33.1125609,29.1335036 29.2875699,27.7265896 27.5001292,25.418408 C26.9929065,24.7634144 27.1126985,23.8212519 27.7676921,23.3140292 C28.4226857,22.8068065 29.3648482,22.9265984 29.8720709,23.581592 C30.9802862,25.0126675 33.7531223,26.0325762 35.7806652,25.7841355 C36.8563934,25.6523234 37.7707124,25.4231851 39.6839673,24.8540771 C39.7352691,24.8388154 39.7352691,24.8388154 39.7866671,24.8235217 C41.2467676,24.3890669 41.9123832,24.2049609 42.7693019,24.0206196 C45.8323272,23.3609697 48.6397048,23.6017947 50.7803513,25.0589895 C52.9217468,23.6018308 55.7293742,23.3609316 58.790839,24.0205208 C59.6485179,24.2049486 60.3149759,24.3892379 61.7746623,24.8235041 C61.8347926,24.8413934 61.8347926,24.8413934 61.894791,24.8592382 C63.7908255,25.423072 64.7087471,25.6527572 65.7810089,25.7841446 C67.8076,26.0325708 70.5806362,25.0125885 71.6898256,23.5812094 C72.1972596,22.9263795 73.1394607,22.8068915 73.7942906,23.3143256 C74.4491205,23.8217596 74.5686085,24.7639607 74.0611745,25.4187906 C72.2728052,27.7266329 68.4478968,29.1335164 65.4160652,28.7618645 C64.1256145,28.6037418 63.0922251,28.3451639 61.0396741,27.734786 C60.9793718,27.7168508 60.9793718,27.7168508 60.9191989,27.6989488 C59.5335628,27.2867131 58.9170406,27.116232 58.1595759,26.9533533 C55.7842228,26.4415862 53.7492068,26.6293709 52.3937596,27.5910533 L42.4802152,37.5037013 C42.763456,37.7551179 43.066382,38.0025319 43.3857312,38.238593 C45.559604,39.8455075 47.6653126,40.3734318 49.5378741,39.3871751 C50.0225178,39.1319188 50.5020963,38.7731701 50.9758399,38.2993398 L56.4358399,32.8393398 C57.0216263,32.2535534 57.9713738,32.2535534 58.5571602,32.8393398 C59.1429467,33.4251263 59.1429467,34.3748737 58.5571602,34.9606602 L57.1354969,36.3823235 C58.9856248,38.0038826 64.5466011,42.854592 66.3376907,44.4263714 C66.4639711,44.5371988 66.4639711,44.5371988 66.5902335,44.6480491 C68.8893483,46.6667048 70.8205908,48.3769727 72.3621272,49.7632525 L85.8246399,36.3007398 C86.4104263,35.7149534 87.3601738,35.7149534 87.9459602,36.3007398 C88.5317467,36.8865263 88.5317467,37.8362737 87.9459602,38.4220602 L74.5824382,51.7855822 C75.1530781,52.3148235 75.6151504,52.7541916 75.9655899,53.1014966 C75.9214238,53.0577743 76.3670823,53.483819 76.5794641,53.6975424 C76.9569885,54.0774514 77.31339,54.4681606 77.6524944,54.8865971 C78.9772978,56.5213329 79.7440659,58.1844611 79.6066402,59.9135354 C79.5033345,61.2133158 78.870666,62.3902507 77.7235501,63.3579848 C74.7144005,65.8967013 72.3811198,66.2579866 69.9561041,64.9613108 Z M55.0493285,70.3639562 L57.0837399,68.3299398 C57.9329534,67.4807263 57.9329534,66.1024737 57.0841094,65.2536295 C56.2388599,64.4089687 54.8724772,64.4040143 54.02216,65.2383023 C54.017272,65.243229 54.0123721,65.2481483 54.0074602,65.2530602 L52.9768949,66.2836255 L48.8566907,70.4046295 C48.0069698,71.2537587 48.0069698,72.6304413 48.8566907,73.4795705 C49.7065588,74.3300302 51.0832413,74.3300302 51.9328429,73.4798369 L55.0389201,70.3743627 C55.0423694,70.3708805 55.0458386,70.367412 55.0493282,70.3639565 L55.0493285,70.3639562 Z M33.6208214,60.6488047 C33.7369923,60.5046865 33.8620318,60.3653546 33.9959399,60.2315398 L41.1033685,53.1241112 C41.2976064,52.3838321 41.0914665,51.5874868 40.5358703,51.0318904 C39.687618,50.1830467 38.3103656,50.1830467 37.4605602,51.0322602 L31.4949296,56.9978907 C30.6452235,57.8481889 30.6452235,59.2250111 31.4939692,60.0743491 C32.012981,60.592783 32.742785,60.808706 33.4500254,60.6718996 C33.5071576,60.6608481 33.5641593,60.6531969 33.6208214,60.6488047 L33.6208214,60.6488047 Z M51.9008501,63.1168904 C52.7353248,62.2665465 52.7304214,60.9003417 51.8861399,60.0560602 C51.0359879,59.2059082 49.6590203,59.2059082 48.809531,60.0559894 L41.3150907,67.5514295 C40.4653698,68.4005587 40.4653698,69.7772413 41.3161991,70.6274792 C42.1643671,71.4768302 43.5410496,71.4768302 44.3911399,70.6267398 L50.8557296,64.1621501 L51.8857399,63.1319398 C51.8907689,63.1269108 51.8958056,63.1218944 51.9008501,63.1168904 L51.9008501,63.1168904 Z M41.1194601,63.5041627 L46.6672607,57.9556219 C46.6740706,57.9485438 46.6809637,57.941516 46.6879399,57.9345398 C47.5381534,57.0843263 47.5381534,55.7080737 46.6879399,54.8578602 C45.8387263,54.0086466 44.4614738,54.0086466 43.6122602,54.8578602 L36.1168907,62.3532295 C35.2671698,63.2023587 35.2671698,64.5800413 36.1172602,65.4295398 C36.9665354,66.278815 38.3440728,66.278815 39.1939399,65.4295398 L41.1069399,63.5165398 C41.1110951,63.5123846 41.1152686,63.5082589 41.1194601,63.5041627 L41.1194601,63.5041627 Z" id="Handshake" fill="#2F313A" fill-rule="nonzero"></path>
    </g>
</svg>