<?xml version="1.0" encoding="UTF-8"?>
<svg width="100px" height="100px" viewBox="0 0 100 100" version="1.1" xmlns="http://www.w3.org/2000/svg" xmlns:xlink="http://www.w3.org/1999/xlink">
    <!-- Generator: Sketch 59.1 (86144) - https://sketch.com -->
    <title>Vector Files/100x100/Flattened/Menu/Notification</title>
    <desc>Created with Sketch.</desc>
    <g id="100x100/Flattened/Menu/Notification" stroke="none" stroke-width="1" fill="none" fill-rule="evenodd">
        <path d="M58.4889379,73.4374384 C58.2612522,77.9286805 54.5473722,81.4999968 49.9995175,81.4999968 C45.4524275,81.4999968 41.7387447,77.9285189 41.5110623,73.4374384 C38.0341782,73.3842022 34.8585063,73.2978433 32.2529182,73.1816486 C29.7742683,73.0711146 27.8442943,72.9356216 26.5485388,72.7757753 C25.8100758,72.6846774 25.2610881,72.5850185 24.8649845,72.4586908 C24.4938313,72.3403204 24.2072305,72.1983408 23.9398869,71.9145162 C23.2881208,71.2225704 23.3876048,70.2114618 24.0419017,69.6197515 C24.6079701,69.1081019 25.7052824,67.7774332 27.11197,65.9182289 C27.2512283,65.7341727 27.392978,65.5456766 27.5370164,65.3530517 C28.3166195,64.3104751 29.1304372,63.1914681 29.929149,62.0722008 C30.1388917,61.7782798 30.3362907,61.5001494 30.5187744,61.2417912 C30.4354385,61.0246944 30.3474255,60.7894631 30.2555402,60.5369848 C29.8323824,59.3742512 29.4100327,58.0764106 29.0159907,56.6733726 C27.7662126,52.2233743 27.0723358,47.739239 27.2287988,43.5154649 C27.6566226,31.9662151 34.3076452,24.7027249 48.6031947,24.2269422 L48.4996586,17.0215517 C48.487756,16.19321 49.1496105,15.5120575 49.9779522,15.4999968 C50.8062938,15.4882522 51.4874463,16.1501067 51.499349,16.9784483 L51.6023907,24.1494391 C65.7550978,24.6869032 72.3450654,31.9195184 72.7710715,43.3881131 C72.9276262,47.6027538 72.2336625,52.0769813 70.9837038,56.5170838 C70.5896295,57.9169147 70.1672453,59.2117856 69.7440507,60.3718638 C69.6511552,60.6265127 69.5622166,60.8635783 69.4780663,61.0821463 C69.6622528,61.3486557 69.8618796,61.6360459 70.0742604,61.9400536 C70.8691858,63.0779318 71.6796512,64.2155412 72.4567187,65.2754202 C72.6057128,65.4786402 72.7522721,65.6773325 72.8961718,65.8711438 C74.3003241,67.7623276 75.3969275,69.1125286 75.9583922,69.6200172 C76.6123952,70.2114618 76.7118792,71.2225704 76.0601131,71.9145162 C75.7927695,72.1983408 75.5061687,72.3403204 75.1350155,72.4586908 C74.7389119,72.5850185 74.1899242,72.6846774 73.4514612,72.7757753 C72.1557057,72.9356216 70.2257317,73.0711146 67.7470818,73.1816486 C65.1414937,73.2978433 61.965822,73.3842022 58.4889379,73.4374384 L58.4889379,73.4374384 Z M44.5201865,73.4745179 C44.7607908,76.2898658 47.1223999,78.5 49.9995175,78.5 C52.8774439,78.5 55.2392041,76.2899623 55.4798139,73.4745179 C53.697042,73.4913757 51.8597807,73.5 50,73.5 C48.1402194,73.5 46.3029582,73.4913757 44.5201865,73.4745179 L44.5201865,73.4745179 Z M48.6247004,25.7235881 L50.1245455,24.2020365 C49.608118,24.2020365 49.1010211,24.2103736 48.6031947,24.2269422 L48.6247004,25.7235881 Z M50.1245455,27.2020365 C36.4418836,27.2020365 30.6114295,33.2417641 30.2267426,43.626519 C30.0833671,47.4969903 30.7318406,51.6877093 31.9042451,55.8622089 C32.2770072,57.189477 32.6762332,58.4162608 33.0746513,59.5110158 C33.2133088,59.8920127 33.3415948,60.2284678 33.4560876,60.516475 C33.5232193,60.6853451 33.5697515,60.7980743 33.5922593,60.850772 C33.795369,61.3263161 33.739217,61.8729446 33.4436694,62.2972644 C33.389945,62.3743969 33.2898804,62.5173592 33.1495205,62.716779 C32.9162191,63.0482478 32.6547482,63.4173763 32.3711384,63.8148102 C31.5604364,64.9508799 30.7340203,66.0872099 29.9395905,67.1496145 C29.7922342,67.3466765 29.6470958,67.5396787 29.5043612,67.7283296 C28.8789914,68.5548744 28.3145125,69.2796713 27.8138539,69.8945351 C28.972209,70.0035175 30.514806,70.101157 32.3865687,70.1846271 C36.9584802,70.3885088 43.3320509,70.5 50,70.5 C56.6679491,70.5 63.0415198,70.3885088 67.6134313,70.1846271 C69.4933012,70.1007954 71.0411478,70.0026714 72.2011762,69.8931183 C71.694566,69.262076 71.1224728,68.5147367 70.487497,67.6595191 C70.3399291,67.4607671 70.1897987,67.2572334 70.037311,67.0492483 C69.245224,65.9688835 68.4220066,64.8133747 67.614952,63.6581347 C67.3326202,63.2539972 67.0723912,62.8786412 66.8402455,62.5415769 C66.7005748,62.3387818 66.6010144,62.1933911 66.5475598,62.1149338 C66.2592373,61.6917529 66.2067116,61.1507278 66.4082472,60.6799887 C66.4307361,60.6274601 66.4772487,60.5150457 66.5443603,60.3466267 C66.658829,60.0593632 66.7870906,59.7237695 66.9257237,59.3437428 C67.3240793,58.2517544 67.7232453,57.0280613 68.0959511,55.704136 C69.2681875,51.5401184 69.9165389,47.3599695 69.773139,43.4994726 C69.3953293,33.3283806 63.7666537,27.3356277 50.6061078,27.1230884 C50.4550081,27.1742704 50.293058,27.2020365 50.1245455,27.2020365 Z M49.8167,30 C50.3689847,30 50.8167,30.4477153 50.8167,31 C50.8167,31.5522847 50.3689847,32 49.8167,32 C48.0846122,32 46.5015953,32.1136612 45.0745252,32.3387846 C44.5289868,32.4248445 44.0169752,32.0523636 43.9309154,31.5068252 C43.8448555,30.9612868 44.2173364,30.4492752 44.7628748,30.3632154 C46.2976952,30.1210941 47.9842334,30 49.8167,30 Z M39.2396819,32.0766512 C39.7291989,31.8209333 40.333331,32.010465 40.5890488,32.4999819 C40.8447667,32.9894989 40.655235,33.593631 40.1657181,33.8493488 C38.7720281,34.5773958 37.7076143,35.5103206 36.9648774,36.643459 C33.8925045,41.3275807 35.2491916,50.9359643 38.1879118,57.7016001 C38.407942,58.2081622 38.175662,58.7971816 37.6690999,59.0172118 C37.1625378,59.237242 36.5735184,59.004962 36.3534882,58.4983999 C33.164686,51.1570157 31.7278758,40.9811806 35.2923525,35.5468003 C36.2285514,34.1185112 37.5527757,32.9578708 39.2396819,32.0766512 Z" id="Notification" fill="#2F313A" fill-rule="nonzero"></path>
    </g>
</svg>