<?xml version="1.0" encoding="UTF-8"?>
<svg width="100px" height="100px" viewBox="0 0 100 100" version="1.1" xmlns="http://www.w3.org/2000/svg" xmlns:xlink="http://www.w3.org/1999/xlink">
    <!-- Generator: Sketch 59.1 (86144) - https://sketch.com -->
    <title>Vector Files/100x100/Flattened/Menu/Profile</title>
    <desc>Created with Sketch.</desc>
    <g id="100x100/Flattened/Menu/Profile" stroke="none" stroke-width="1" fill="none" fill-rule="evenodd">
        <path d="M67,36.6654799 C66.9903,37.0959839 66.7010538,37.4872006 66.2645029,37.6069339 C61.2060224,38.9943289 57.1703798,37.8261166 54.3719487,34.1112894 C49.4475775,38.2226334 42.9720431,40.0046335 34.9994923,39.4605873 C34.9998301,39.4736838 35,39.4868221 35,39.5 L35,50.6170186 C35,57.8048414 40.6815605,60.9993626 51.311818,60.9999999 C61.7448125,60.9993689 67,57.8951611 67,50.6170186 L67,36.6654821 L67,36.6654799 Z M67,36.620776 L67,31.509158 C67,24.199777 61.6722975,21 51.3086364,21 C40.7480953,21 35,24.2887356 35,31.509158 L35,33.5 C35,34.3284271 34.3284271,35 33.5,35 C32.6715729,35 32,34.3284271 32,33.5 L32,31.509158 C32,22.1828141 39.3107773,18 51.3086364,18 C63.1136825,18 70,22.1358691 70,31.509158 L70,50.6170186 C70,59.9723211 63.1863631,63.9982128 51.3165424,64 L51.315,64 C39.2428601,63.9982252 32,59.9247324 32,50.6170186 L32,39.5 C32,39.3833324 32.0133194,39.2697758 32.0385205,39.1607677 C31.64411,39.108373 31.2463614,39.0507698 30.8452805,38.9879584 C30.2996461,38.9025092 29.9265923,38.3909149 30.0120416,37.8452805 C30.0974908,37.2996461 30.6090851,36.9265923 31.1547195,37.0120416 C43.4554767,38.9384049 52.1754429,35.7690754 57.5115076,27.5160451 C57.8113733,27.0522574 58.4304367,26.9193724 58.8942244,27.2192382 C59.358012,27.5191039 59.490897,28.1381673 59.1910313,28.6019549 C58.1879361,30.1533931 57.0736749,31.5399348 55.8492668,32.7616419 C55.8799271,32.7930912 55.9088703,32.8269241 55.9358344,32.8631025 C58.2201684,35.9280456 61.4142436,36.8633591 65.7354971,35.6781642 C66.2681122,35.5320832 66.818304,35.8454311 66.9643849,36.3780461 C66.9866004,36.4590443 66.9981905,36.5404491 67,36.6207772 L67,36.620776 Z M37.7726218,69 L62.2273782,69 C66.2624556,69 69.2729322,71.198824 71.3472058,74.742204 C72.0469043,75.9374647 72.5909531,77.2066886 73.0020647,78.4749698 C73.2501838,79.2404182 73.4012109,79.8457201 73.4726759,80.214999 C73.6300776,81.0283355 73.0983375,81.8152742 72.285001,81.9726759 C71.4716645,82.1300776 70.6847258,81.5983375 70.5273241,80.785001 C70.5171294,80.7323227 70.4906572,80.6118027 70.4461546,80.4334407 C70.3689601,80.1240528 70.2701903,79.7762191 70.1482492,79.4000302 C69.7996374,78.3245614 69.3390452,77.2500353 68.7581942,76.257796 C67.173755,73.551176 65.0499929,72 62.2273782,72 L37.7726218,72 C34.9500071,72 32.826245,73.551176 31.2418058,76.257796 C30.6609548,77.2500353 30.2003626,78.3245614 29.8517508,79.4000302 C29.7298097,79.7762191 29.6310399,80.1240528 29.5538454,80.4334407 C29.5093428,80.6118027 29.4828706,80.7323227 29.4726759,80.785001 C29.3152742,81.5983375 28.5283355,82.1300776 27.714999,81.9726759 C26.9016625,81.8152742 26.3699224,81.0283355 26.5273241,80.214999 C26.5987891,79.8457201 26.7498162,79.2404182 26.9979353,78.4749698 C27.4090469,77.2066886 27.9530957,75.9374647 28.6527942,74.742204 C30.7270678,71.198824 33.7375444,69 37.7726218,69 Z M51.3086364,64 L51.315,61 L51.3086364,64 Z M46,46.171875 C44.6198243,46.171875 43.5,46.0520507 43.5,44.671875 C43.5,43.2916993 44.6198243,42.171875 46,42.171875 C47.3812212,42.171875 48.5,43.2916993 48.5,44.671875 C48.5,46.0520507 47.3812212,46.171875 46,46.171875 Z M55.9994771,46.171875 C54.6190128,46.171875 53.5,46.0520507 53.5,44.671875 C53.5,43.2916993 54.6190128,42.171875 55.9994771,42.171875 C57.3809872,42.171875 58.5,43.2916993 58.5,44.671875 C58.5,46.0520507 57.3809872,46.171875 55.9994771,46.171875 Z" id="Profile" fill="#2F313A" fill-rule="nonzero"></path>
    </g>
</svg>