<?xml version="1.0" encoding="UTF-8"?>
<svg width="100px" height="100px" viewBox="0 0 100 100" version="1.1" xmlns="http://www.w3.org/2000/svg" xmlns:xlink="http://www.w3.org/1999/xlink">
    <!-- Generator: Sketch 59.1 (86144) - https://sketch.com -->
    <title>Vector Files/100x100/Flattened/Menu/Purchaser Profile</title>
    <desc>Created with Sketch.</desc>
    <g id="100x100/Flattened/Menu/Purchaser-Profile" stroke="none" stroke-width="1" fill="none" fill-rule="evenodd">
        <path d="M37.8223,46.5 L62.8223,46.5 L62.8223,41.5776926 C62.8218986,41.5576836 62.8219007,41.537729 62.8223,41.5178383 L62.8223,32.6431 C62.8223,31.8146729 63.4938729,31.1431 64.3223,31.1431 C65.1507271,31.1431 65.8223,31.8146729 65.8223,32.6431 L65.8223,39.54256 C69.7107298,38.003671 72.2306,34.3507535 72.2306,30.0303 C72.2306,24.3161515 67.9327202,19.8843 62.4066904,19.8843 C62.2501313,19.8843 62.0991742,19.8603149 61.9572933,19.8158189 C61.3582414,19.7736626 60.8182186,19.3715744 60.6295965,18.7634872 C59.3758727,14.7216831 55.5932868,11.9997 51.1439,11.9997 C45.6681928,11.9997 41.2289,16.4392614 41.2289,21.9157 C41.2289,22.7657049 41.3354891,23.5998899 41.5441799,24.4073561 C41.7514766,25.2094282 41.2693159,26.0276832 40.4672439,26.2349799 C39.6651718,26.4422766 38.8469168,25.9601159 38.6396201,25.1580439 C38.3677154,24.1059909 38.2289,23.0195969 38.2289,21.9157 C38.2289,21.2469905 38.2797169,20.5901495 38.3776991,19.9488285 C33.2245964,20.5268656 29.0276,24.9142424 29.0276,30.1083 C29.0276,34.8617217 32.2921462,39.0476512 36.4982734,40.0936356 C37.3022146,40.2935607 37.7918665,41.107355 37.5919415,41.9112963 C37.3920164,42.7152375 36.5782221,43.2048894 35.7742808,43.0049644 C30.2294788,41.6260767 26.0276,36.2382625 26.0276,30.1083 C26.0276,22.9423016 32.0735631,17.041521 39.2442038,16.8873897 C41.2050442,12.2521006 45.7947733,8.9997 51.1439,8.9997 C56.5368599,8.9997 61.2287349,12.1347719 63.1499931,16.9050162 C69.9934262,17.2879635 75.2306,22.9343741 75.2306,30.0303 C75.2306,35.9962866 71.4557664,41.0233335 65.8223,42.7154936 L65.8223,59.3759787 C65.8223,67.3861653 59.8900058,71.1431 50.3223,71.1431 C40.7569548,71.1431 34.8223,67.3853943 34.8223,59.3759787 L34.8223,45.6431 C34.8223,44.8146729 35.4938729,44.1431 36.3223,44.1431 C37.1507271,44.1431 37.8223,44.8146729 37.8223,45.6431 L37.8223,46.5 Z M37.8223,48.5 L37.8223,59.3759787 C37.8223,65.3671111 42.2065007,68.1431 50.3223,68.1431 C58.4404232,68.1431 62.8223,65.368048 62.8223,59.3759787 L62.8223,48.5 L37.8223,48.5 Z M46.7886,76.5 L41.393069,76.5 L41.393069,79.215 C41.393069,79.6161512 41.2323874,80.000588 40.9469217,80.2824242 L40.462766,80.7604242 C40.1820332,81.0375877 39.8034137,81.193 39.4089133,81.193 L25.7451729,81.193 L26.7743932,87.9656362 C26.8988582,88.78466 26.335807,89.5495088 25.5167832,89.6739738 C24.6977594,89.7984387 23.9329107,89.2353875 23.8084457,88.4163638 L22.5170262,79.9183638 C22.3790711,79.0105698 23.0817835,78.193 24,78.193 L38.393069,78.193 L38.393069,75 C38.393069,74.1715729 39.0646419,73.5 39.893069,73.5 L52,73.5 L60.5619065,73.5 C61.3903337,73.5 62.0619065,74.1715729 62.0619065,75 L62.0619065,78.193 L76,78.193 C76.9215872,78.193 77.625226,79.0162701 77.4816968,79.926612 L76.1418582,88.424612 C76.0128379,89.2429305 75.244868,89.8017171 74.4265494,89.6726968 C73.6082308,89.5436765 73.0494442,88.7757066 73.1784646,87.957388 L74.244973,81.193 L61.0642147,81.193 C60.6792604,81.193 60.3090407,81.0449993 60.0301729,80.7796267 L59.5278648,80.3016267 C59.2303269,80.0184875 59.0619065,79.6257269 59.0619065,79.215 L59.0619065,76.5 L48.7886,76.5 L48.7886,83.5 C48.7886,84.0522847 48.3408847,84.5 47.7886,84.5 C47.2363153,84.5 46.7886,84.0522847 46.7886,83.5 L46.7886,76.5 Z M45.265779,29.9016704 C45.9325135,30.3933579 46.0744171,31.3324445 45.5827296,31.999179 C45.0910421,32.6659135 44.1519555,32.8078171 43.485221,32.3161296 C42.5161827,31.6015062 41.6509602,30.754517 40.9156125,29.8008275 C40.4097597,29.1447753 40.5315203,28.2028653 41.1875725,27.6970125 C41.8436247,27.1911597 42.7855347,27.3129203 43.2913875,27.9689725 C43.8564208,28.7017772 44.5213191,29.3526638 45.265779,29.9016704 Z M46.7886,87.5 C46.7886,86.9477153 47.2363153,86.5 47.7886,86.5 C48.3408847,86.5 48.7886,86.9477153 48.7886,87.5 L48.7886,89.5 C48.7886,90.0522847 48.3408847,90.5 47.7886,90.5 C47.2363153,90.5 46.7886,90.0522847 46.7886,89.5 L46.7886,87.5 Z M47.781,54.391 C47.781,55.711 46.711,56.782 45.39,56.782 C44.07,56.782 43,55.711 43,54.391 C43,53.071 44.07,52 45.39,52 C46.711,52 47.781,53.071 47.781,54.391 Z M57.781,54.391 C57.781,55.711 56.711,56.782 55.39,56.782 C54.07,56.782 53,55.711 53,54.391 C53,53.071 54.07,52 55.39,52 C56.711,52 57.781,53.071 57.781,54.391 Z" id="Purchaser-Profile" fill="#2F313A" fill-rule="nonzero"></path>
    </g>
</svg>