<?xml version="1.0" encoding="UTF-8"?>
<svg width="100px" height="100px" viewBox="0 0 100 100" version="1.1" xmlns="http://www.w3.org/2000/svg" xmlns:xlink="http://www.w3.org/1999/xlink">
    <!-- Generator: Sketch 59.1 (86144) - https://sketch.com -->
    <title>Vector Files/100x100/Flattened/Menu/Purveyor Profile</title>
    <desc>Created with Sketch.</desc>
    <g id="100x100/Flattened/Menu/Purveyor-Profile" stroke="none" stroke-width="1" fill="none" fill-rule="evenodd">
        <path d="M36.2943398,70.6105552 L43.2206103,74.7675758 C43.6941526,75.0517872 43.8476356,75.666068 43.5634242,76.1396103 C43.2792128,76.6131526 42.664932,76.7666356 42.1913897,76.4824242 L34.6725737,71.9697686 L23.2499964,74.2777236 L24.0203181,82.865996 C24.0943265,83.6911107 23.4854344,84.419994 22.6603197,84.4940023 C21.835205,84.5680107 21.1063218,83.9591187 21.0323135,83.134004 L20.1419626,73.2075334 C20.0736429,72.4458407 20.5892879,71.7547001 21.3388902,71.6032415 L33.6766625,69.1103695 L35.3986135,65.1907916 C35.7570588,64.3748833 36.7436142,64.0495869 37.5170569,64.4922783 L50.0012211,71.6377757 L62.4853852,64.4922783 C63.2588279,64.0495869 64.2453833,64.3748833 64.6038286,65.1907916 L66.3257796,69.1103695 L78.6635519,71.6032415 C79.4131542,71.7547001 79.9287992,72.4458407 79.8604795,73.2075334 L78.9701286,83.134004 C78.8961203,83.9591187 78.1672371,84.5680107 77.3421224,84.4940023 C76.5170077,84.419994 75.9081157,83.6911107 75.982124,82.865996 L76.7524457,74.2777236 L64.9685253,71.8967585 C64.4900897,71.8000897 64.0886076,71.4766774 63.8922837,71.0297966 L62.5280627,67.924499 L51,74.5227575 L51,82 C51,82.5522847 50.5522847,83 50,83 C49.4477153,83 49,82.5522847 49,82 L49,74.5213597 L37.4743794,67.924499 L36.2943398,70.6105552 Z M38.1130065,31.5 L47,31.5 C47.5522847,31.5 48,31.9477153 48,32.5 C48,33.0522847 47.5522847,33.5 47,33.5 L37.4764688,33.5 C37.3552069,33.5979569 37.217592,33.6778495 37.0671117,33.735067 L23.3370246,38.955695 C24.0655512,39.1512153 24.8730576,39.3443819 25.7631171,39.5323812 C31.5729667,40.7595442 39.5444366,41.5 50,41.5 C60.4555634,41.5 68.4270333,40.7595442 74.2368829,39.5323812 C75.1269424,39.3443819 75.9344488,39.1512153 76.6629754,38.955695 L62.9328883,33.735067 C62.3954445,33.5307133 62.0221099,33.0371219 61.9717617,32.4643468 L60.9200694,20.5 L39.0799306,20.5 L38.1130065,31.5 Z M65.5,43.8407519 L65.5,51.928 C65.5,60.0315914 59.5691163,63.841 50,63.841 C40.4332462,63.841 34.5,60.0308081 34.5,51.928 L34.5,43.8407519 C30.935496,43.49928 27.82613,43.0343244 25.1431329,42.4676188 C23.0032891,42.0156386 21.2804397,41.5273199 19.9342362,41.0331113 C19.0876579,40.7223216 18.5380189,40.4666224 18.2456596,40.2965225 C17.1550394,39.6619798 17.2874852,38.0463806 18.4668883,37.597933 L35.1220884,31.2650814 L36.2117617,18.8686532 C36.279845,18.0941185 36.9284787,17.5 37.706,17.5 L62.294,17.5 C63.0715213,17.5 63.720155,18.0941185 63.7882383,18.8686532 L64.8779116,31.2650814 L81.5331117,37.597933 C82.7125148,38.0463806 82.8449606,39.6619798 81.7543404,40.2965225 C81.4619811,40.4666224 80.9123421,40.7223216 80.0657638,41.0331113 C78.7195603,41.5273199 76.9967109,42.0156386 74.8568671,42.4676188 C72.17387,43.0343244 69.064504,43.49928 65.5,43.8407519 Z M37.5,44.0908161 L37.5,51.928 C37.5,58.0246643 41.8856093,60.841 50,60.841 C58.1167128,60.841 62.5,58.0256132 62.5,51.928 L62.5,44.0908161 C58.7822297,44.3568923 54.6244492,44.5 50,44.5 C45.3755508,44.5 41.2177703,44.3568923 37.5,44.0908161 Z M51,33.5 C50.4477153,33.5 50,33.0522847 50,32.5 C50,31.9477153 50.4477153,31.5 51,31.5 L54,31.5 C54.5522847,31.5 55,31.9477153 55,32.5 C55,33.0522847 54.5522847,33.5 54,33.5 L51,33.5 Z M46.781,48.391 C46.781,49.711 45.711,50.782 44.39,50.782 C43.07,50.782 42,49.711 42,48.391 C42,47.071 43.07,46 44.39,46 C45.711,46 46.781,47.071 46.781,48.391 Z M57.781,48.391 C57.781,49.711 56.711,50.782 55.39,50.782 C54.07,50.782 53,49.711 53,48.391 C53,47.071 54.07,46 55.39,46 C56.711,46 57.781,47.071 57.781,48.391 Z" id="Purveyor-Profile" fill="#2F313A" fill-rule="nonzero"></path>
    </g>
</svg>