<?xml version="1.0" encoding="UTF-8"?>
<svg width="40px" height="40px" viewBox="0 0 40 40" version="1.1" xmlns="http://www.w3.org/2000/svg" xmlns:xlink="http://www.w3.org/1999/xlink">
    <!-- Generator: Sketch 59.1 (86144) - https://sketch.com -->
    <title>Vector Files/40x40/Flattened/Menu/Bullhorn</title>
    <desc>Created with Sketch.</desc>
    <g id="40x40/Flattened/Menu/Bullhorn" stroke="none" stroke-width="1" fill="none" fill-rule="evenodd">
        <path d="M31,15.1496434 C32.1495117,15.4587275 32.9955,16.5081014 32.9955,17.7553 C32.9955,19.0018656 32.1493596,20.051618 31,20.3608826 L31,27 C31,27.8146073 30.0781612,28.2874299 29.4165681,27.8121621 C29.2655114,27.7036477 28.957684,27.5009174 28.5094656,27.2352118 C27.7521772,26.7862882 26.8865155,26.3360752 25.9291852,25.9155681 C23.6915269,24.9326773 21.336404,24.2733258 18.9373298,24.0681115 L21.7230175,30.6081228 C22.0039782,31.2677394 21.5199609,32 20.803,32 L16.707,32 C16.3077371,32 15.9467367,31.7625028 15.7886867,31.3958544 L12.6005794,24 L11.7567157,24 C10.5201421,24 9.46009051,23.2442061 9.1733287,22.0482781 L7.02837178,13.2365134 C6.87510794,12.6068855 7.35198674,12 8,12 L17.3552965,12 C20.2990358,12 23.2013902,11.2826151 25.9291852,10.0844319 C26.8865155,9.66392482 27.7521772,9.21371184 28.5094656,8.76478824 C28.957684,8.49908255 29.2655114,8.29635233 29.4165681,8.18783794 C30.0781612,7.71257006 31,8.18539271 31,9 L31,15.1496434 L31,15.1496434 Z M31,16.7846929 L31,18.7256105 C31.3001882,18.5078188 31.4955,18.1541951 31.4955,17.7553 C31.4955,17.3559682 31.3002595,17.0023586 31,16.7846929 L31,16.7846929 Z M24,12.944532 C21.8524607,13.618266 19.6238692,14 17.3552965,14 L9.27261907,14 L11.1173912,21.5785877 C11.17939,21.8371455 11.4078044,22 11.7567157,22 L17.3552965,22 C19.6238692,22 21.8524607,22.381734 24,23.055468 L24,12.944532 L24,12.944532 Z M26,12.2253648 L26,23.7746352 C26.2458227,23.8743088 26.4903486,23.9776228 26.7335112,24.0844319 C27.5527776,24.4442944 28.3107579,24.8247166 29,25.2100595 L29,10.7899405 C28.3107579,11.1752834 27.5527776,11.5557056 26.7335112,11.9155681 C26.4903486,12.0223772 26.2458227,12.1256912 26,12.2253648 L26,12.2253648 Z M16.7344464,24 L14.7784854,24 L17.3648862,30 L19.2901188,30 L16.7344464,24 Z M16,16 C16.2761424,16 16.5,16.2238576 16.5,16.5 C16.5,16.7761424 16.2761424,17 16,17 L12,17 C11.7238576,17 11.5,16.7761424 11.5,16.5 C11.5,16.2238576 11.7238576,16 12,16 L16,16 Z M16,18 C16.2761424,18 16.5,18.2238576 16.5,18.5 C16.5,18.7761424 16.2761424,19 16,19 L12,19 C11.7238576,19 11.5,18.7761424 11.5,18.5 C11.5,18.2238576 11.7238576,18 12,18 L16,18 Z" id="Bullhorn" fill="#2F313A" fill-rule="nonzero"></path>
    </g>
</svg>