<?xml version="1.0" encoding="UTF-8"?>
<svg width="40px" height="40px" viewBox="0 0 40 40" version="1.1" xmlns="http://www.w3.org/2000/svg" xmlns:xlink="http://www.w3.org/1999/xlink">
    <!-- Generator: Sketch 59.1 (86144) - https://sketch.com -->
    <title>Vector Files/40x40/Flattened/Menu/Bullhorn (Filled)</title>
    <desc>Created with Sketch.</desc>
    <g id="40x40/Flattened/Menu/Bullhorn-(Filled)" stroke="none" stroke-width="1" fill="none" fill-rule="evenodd">
        <path d="M31,15.1496434 C32.1495117,15.4587275 32.9955,16.5081014 32.9955,17.7553 C32.9955,19.0018656 32.1493596,20.051618 31,20.3608826 L31,27 C31,27.8146073 30.0781612,28.2874299 29.4165681,27.8121621 C29.2655114,27.7036477 28.957684,27.5009174 28.5094656,27.2352118 C27.7708941,26.7973836 26.9292401,26.358329 26,25.9468013 L26,10.0531986 C26.9292401,9.64167101 27.7708941,9.20261641 28.5094656,8.76478824 C28.957684,8.49908255 29.2655114,8.29635233 29.4165681,8.18783794 C30.0781612,7.71257006 31,8.18539271 31,9 L31,15.1496434 Z M18.9373298,24.0681115 L21.7230175,30.6081228 C22.0039782,31.2677394 21.5199609,32 20.803,32 L16.707,32 C16.3077371,32 15.9467367,31.7625028 15.7886867,31.3958544 L12.6005794,24 L11.7567157,24 C10.5201421,24 9.46009051,23.2442061 9.1733287,22.0482781 L7.02837178,13.2365134 C6.87510794,12.6068855 7.35198674,12 8,12 L17.3552965,12 C19.6146466,12 21.849618,11.5774087 24,10.8391912 L24,25.1608088 C22.3530455,24.5954159 20.656472,24.2151651 18.9373298,24.0681115 L18.9373298,24.0681115 Z M16,16 L12,16 C11.7238576,16 11.5,16.2238576 11.5,16.5 C11.5,16.7761424 11.7238576,17 12,17 L16,17 C16.2761424,17 16.5,16.7761424 16.5,16.5 C16.5,16.2238576 16.2761424,16 16,16 Z M16,18 L12,18 C11.7238576,18 11.5,18.2238576 11.5,18.5 C11.5,18.7761424 11.7238576,19 12,19 L16,19 C16.2761424,19 16.5,18.7761424 16.5,18.5 C16.5,18.2238576 16.2761424,18 16,18 Z" id="Bullhorn-(Filled)" fill="#2F313A" fill-rule="nonzero"></path>
    </g>
</svg>