<?xml version="1.0" encoding="UTF-8"?>
<svg width="40px" height="40px" viewBox="0 0 40 40" version="1.1" xmlns="http://www.w3.org/2000/svg" xmlns:xlink="http://www.w3.org/1999/xlink">
    <!-- Generator: Sketch 59.1 (86144) - https://sketch.com -->
    <title>Vector Files/40x40/Flattened/Menu/Handshake</title>
    <desc>Created with Sketch.</desc>
    <g id="40x40/Flattened/Menu/Handshake" stroke="none" stroke-width="1" fill="none" fill-rule="evenodd">
        <path d="M27.3214557,26.5780439 C27.0323867,26.7264135 26.7292367,26.8631887 26.3136656,27.0396046 C26.2541943,27.0648246 26.2541943,27.0648246 26.1951169,27.0898153 C24.6883537,27.7270723 23.9995998,28.1291328 22.8320804,29.2157407 L21.6624501,30.3771848 C20.8278279,31.2075235 19.4738385,31.2075235 18.6381406,30.3776744 C18.4431294,30.184028 18.2936846,29.9621875 18.1898062,29.7253287 C17.3980428,30.09172 16.4271805,29.9507549 15.7740532,29.3021988 C15.3964624,28.9272506 15.1894773,28.447235 15.1530892,27.9572489 C14.6596918,27.9211205 14.1765359,27.7158621 13.7995091,27.341474 C13.4000049,26.9447659 13.1917363,26.4297313 13.1747134,25.9096415 C12.754456,25.8342826 12.358611,25.6343187 12.0440743,25.3219834 C11.2809212,24.5641714 11.2146738,23.3771704 11.8452419,22.5461205 C11.6380573,22.3690415 11.4286949,22.1885901 11.2173154,22.0049513 C9.84062209,20.8089299 8.43615156,19.5291164 7.07765609,18.249485 C6.60229631,17.8017211 6.16650124,17.3858352 5.77957533,17.012383 C5.54681072,16.7877238 5.38161428,16.6266913 5.29331023,16.5398561 C4.9049105,16.1579169 4.90185545,15.5356375 5.2864866,15.149956 C5.67111775,14.7642746 6.29778309,14.761241 6.68618282,15.1431802 C6.77023776,15.225837 6.93105651,15.3826021 7.15926049,15.6028594 C7.54061556,15.9709348 7.97064928,16.3813225 8.43996331,16.8233917 C9.78053587,18.0861407 11.1660799,19.3487075 12.5207253,20.5255744 C12.7609558,20.734278 12.9983896,20.9386639 13.2327576,21.1384321 L14.3099111,20.0683341 C15.1445029,19.2395833 16.4991361,19.2395833 17.333728,20.0683341 C17.5775467,20.3104464 17.7528374,20.6003299 17.8549502,20.9114266 C18.4982576,20.8202559 19.1754945,21.0206033 19.6707241,21.512367 C20.0478009,21.8868046 20.2544939,22.3664092 20.2908487,22.8562389 C20.7840868,22.8923552 21.2670148,23.0974858 21.6437513,23.4715859 C22.02159,23.8460762 22.2287164,24.3261133 22.2651306,24.8163225 C22.7584839,24.8524769 23.2415893,25.0577321 23.6185838,25.4320881 C23.8986905,25.7102344 24.0849119,26.0462 24.177248,26.4011667 C24.5960877,26.1787613 25.0582528,25.9682573 25.6133669,25.7334822 C25.6719408,25.7087046 25.6719408,25.7087046 25.7300739,25.684052 C25.9257624,25.6009794 26.0924135,25.5283653 26.2423062,25.4599419 C26.2002862,25.1896019 26.2714949,24.9033337 26.462609,24.6774384 C26.8142185,24.2618389 27.4385388,24.2079698 27.8570675,24.5571184 C28.5230579,25.1127067 28.7186357,25.1307702 29.5251034,24.4544939 C29.6501099,24.349848 29.6858841,24.2837368 29.6912101,24.2166139 C29.704305,24.0515819 29.56684,23.7555924 29.292292,23.4190962 C29.1995778,23.3054622 29.0988566,23.1957879 28.9902159,23.0871909 C28.9272224,23.0242227 28.7647921,22.8699585 28.7657805,22.870931 C28.271881,22.384565 27.1611832,21.4044181 25.4875903,19.9656426 C25.4344199,19.9199379 25.4344199,19.9199379 25.3812311,19.8742388 C25.0964713,19.6296049 22.3397867,17.2742975 21.8841518,16.8757255 L21.4742648,17.2829448 C21.1866016,17.5685947 20.8791402,17.7970772 20.5536292,17.9675428 C19.2002857,18.6762701 17.817067,18.3322738 16.5611541,17.4104438 C16.1183979,17.0854643 15.7856471,16.7607733 15.5838422,16.5250276 C15.2498968,16.1349173 15.2735042,15.5555747 15.6380988,15.1935318 L18.6235819,12.2289435 C18.3177399,12.2051731 17.9664376,12.2338381 17.5821398,12.3158259 C17.3086041,12.3742489 17.0814742,12.4366443 16.5645944,12.5894032 L16.527402,12.6003941 C15.7177963,12.8395958 15.3119443,12.9407183 14.7886179,13.0046673 C13.4958444,13.1610459 11.8970316,12.5767684 11.122451,11.5852844 C10.7873992,11.1564092 10.8659086,10.5390251 11.2978065,10.2063183 C11.7297044,9.87361153 12.35144,9.95157141 12.6864917,10.3804466 C13.0132164,10.798663 13.9190274,11.1296867 14.5480494,11.0535987 C14.9260717,11.0074049 15.2567495,10.9250129 15.9628875,10.7163812 L15.9999291,10.7054349 C16.5657306,10.5382176 16.8257764,10.4667798 17.166114,10.3940889 C18.3272517,10.1463666 19.4131325,10.2098507 20.2967406,10.7034166 C21.1805396,10.2098505 22.2672205,10.1463084 23.4273244,10.3940889 C23.7679084,10.4667506 24.0285493,10.5383229 24.5940069,10.7054317 L24.6407057,10.7192305 C25.3372537,10.9249852 25.6696791,11.0076133 26.0453399,11.0534682 C26.6745588,11.1296651 27.5802784,10.7985908 27.9069467,10.3804466 C28.2419984,9.95157141 28.863734,9.87361153 29.2956319,10.2063183 C29.7275298,10.5390251 29.8060392,11.1564092 29.4709874,11.5852844 C28.6964831,12.5766706 27.0976538,13.1611025 25.8047724,13.0045371 C25.2844989,12.9410308 24.8758544,12.8394575 24.0763013,12.603276 L24.0293631,12.5894064 C23.5129195,12.4367827 23.2853732,12.3742982 23.0112986,12.3158259 C22.2297623,12.1489016 21.5833231,12.2030558 21.1796446,12.4706032 L17.771869,15.8545286 C18.4687154,16.3561547 19.0999488,16.5065766 19.6302325,16.2288743 C19.7758912,16.1525949 19.9239802,16.0425461 20.0743792,15.8931997 L22.1477274,13.8333457 C22.534152,13.4494361 23.1608248,13.4492825 23.5474402,13.8330026 C23.9340556,14.2167227 23.9342103,14.8390096 23.5477857,15.2229192 L23.2865361,15.4824685 C23.9220501,16.0330314 26.3935131,18.1447174 26.676359,18.387707 C26.7298025,18.433625 26.7298025,18.433625 26.7832386,18.4795581 C27.4303894,19.0359089 27.9933861,19.5235612 28.4725183,19.9436376 L33.3103251,15.138701 C33.6968054,14.7548467 34.3234782,14.7547826 34.710038,15.138558 C35.0965978,15.5223334 35.0966622,16.1446203 34.710182,16.5284746 L29.9412213,21.2650329 C30.0222907,21.3416121 30.0950065,21.4115787 30.159378,21.4749683 C30.1392623,21.4551742 30.3093133,21.6166759 30.394555,21.7018834 C30.5472601,21.854527 30.6918853,22.0120081 30.83034,22.1817033 C31.3943191,22.8729369 31.7266727,23.5885601 31.6645869,24.3710125 C31.6165972,24.9758165 31.3210539,25.5219858 30.8016205,25.956815 C29.4884276,27.0580146 28.4089141,27.1827719 27.3214557,26.5780439 L27.3214557,26.5780439 Z M13.6902829,24.4556296 C13.724976,24.4156471 13.7614162,24.3766464 13.7996035,24.3387264 L16.4635388,21.6943872 C16.504638,21.4854994 16.4404702,21.2662029 16.2839433,21.1107715 C16.0291315,20.8577431 15.6145075,20.8577431 15.3598143,21.1106538 L13.0933658,23.3622561 C12.8381054,23.6152545 12.8381054,24.0255824 13.0938589,24.2795459 C13.2490771,24.4336778 13.4683372,24.4981173 13.6815042,24.4572591 C13.6844312,24.456698 13.6873574,24.4561549 13.6902829,24.4556296 L13.6902829,24.4556296 Z M19.6713674,28.4345024 C19.4332384,28.6886485 19.4387577,29.0878133 19.6879252,29.3352369 C19.9436787,29.5892005 20.3568987,29.5892005 20.6121728,29.3352369 L22.5692922,27.3918154 C22.8245527,27.138817 22.8245527,26.7284891 22.5687992,26.4745256 C22.3139873,26.2214971 21.8993634,26.2214971 21.6445516,26.4745256 L21.3594714,26.7576105 L19.6713674,28.4345024 L19.6713674,28.4345024 Z M18.6077389,27.4058174 C18.6177466,27.395475 18.6278805,27.3852087 18.6381406,27.3750205 L20.3097751,25.7150853 L20.5943654,25.4323852 C20.8501311,25.1788854 20.8501311,24.7679186 20.5944598,24.5145125 C20.3459924,24.2677841 19.9455721,24.2616409 19.6896254,24.495996 C19.683535,24.5022023 19.6773988,24.5083809 19.6712167,24.5145312 C19.6632489,24.5224581 19.6551446,24.5301673 19.6469112,24.5376587 L16.8233448,27.3424715 C16.5680844,27.5954699 16.5680844,28.0057978 16.8238379,28.2597614 C17.0787318,28.5128713 17.492712,28.5128713 17.7479911,28.2598551 L18.6077389,27.4058174 L18.6077389,27.4058174 Z M15.7973456,26.2764072 L18.6204275,23.472075 C18.6266122,23.4659336 18.6328255,23.4598377 18.6390668,23.4537874 C18.875675,23.1986035 18.8694804,22.8016058 18.6209395,22.5548044 C18.365186,22.3008408 17.951966,22.3008408 17.6965975,22.5548981 L14.8492937,25.3812576 C14.5944819,25.634286 14.5944819,26.0460081 14.8492937,26.2990366 C15.1041055,26.552065 15.5187295,26.552065 15.7735413,26.2990366 C15.7813478,26.2912847 15.7892849,26.2837416 15.7973456,26.2764072 L15.7973456,26.2764072 Z" id="Shape" fill="#2F313A" fill-rule="nonzero"></path>
    </g>
</svg>