<?xml version="1.0" encoding="UTF-8"?>
<svg width="40px" height="40px" viewBox="0 0 40 40" version="1.1" xmlns="http://www.w3.org/2000/svg" xmlns:xlink="http://www.w3.org/1999/xlink">
    <!-- Generator: Sketch 59.1 (86144) - https://sketch.com -->
    <title>Vector Files/40x40/Flattened/Menu/Handshake (Filled)</title>
    <desc>Created with Sketch.</desc>
    <g id="40x40/Flattened/Menu/Handshake-(Filled)" stroke="none" stroke-width="1" fill="none" fill-rule="evenodd">
        <path d="M22.7651846,14.9881058 L29.2362795,21.4592008 C29.2869653,21.512902 29.3368616,21.5609217 29.3831603,21.6060815 L29.560542,21.7834632 C29.5757776,21.7986989 29.5915057,21.813142 29.6076749,21.8267926 C29.6211942,21.8404721 29.6348461,21.8544106 29.6485673,21.8685698 C29.7678643,21.9916756 29.8807831,22.1192493 29.9891367,22.2576752 C30.7096002,23.1780947 30.9709446,24.221563 30.3314763,25.2501125 C30.1771128,25.4983977 29.9744932,25.7274537 29.726372,25.9366252 C28.1227646,27.2908343 27.161035,27.4028504 25.9416809,26.4254397 L23.4581225,27.5275414 C23.5476832,26.8803165 23.3434191,26.2000003 22.8453301,25.7019113 C22.46443,25.3210112 21.9763198,25.1121679 21.4778555,25.0753816 C21.441064,24.5766031 21.2317918,24.0881745 20.8500388,23.7071377 C20.4693843,23.3264831 19.9814298,23.1177651 19.4830613,23.0810296 C19.4463725,22.582603 19.2375396,22.094638 18.8565715,21.7136699 C18.2832602,21.1403586 17.4685249,20.9563215 16.7405561,21.1617146 C16.6423632,20.8234386 16.4598671,20.5043552 16.1930677,20.2375558 C15.3498297,19.3943178 13.9811628,19.3943178 13.1379248,20.2375558 L11.1610282,22.2144524 C11.026295,22.3491856 10.9130895,22.497333 10.8214118,22.6546079 C10.6541483,22.5101432 10.4855129,22.3635307 10.3155874,22.2148651 C8.92463183,20.9979361 7.5056113,19.6957504 6.13304213,18.3937499 C5.65275773,17.9381587 5.21244793,17.5150027 4.82151355,17.1350222 C4.58633755,16.9064358 4.41942971,16.7425884 4.33021085,16.6542352 C3.90998588,16.2380876 3.94075497,15.5501357 4.3964527,15.1731643 L10.3724527,10.2295781 C10.8074644,9.86971906 11.453934,9.94107851 11.799984,10.3871537 C12.1300935,10.8126809 13.0452885,11.1494913 13.680827,11.0720731 C14.0627656,11.0250718 14.3968691,10.9412395 15.1103225,10.7289607 L15.1477478,10.7178231 C15.7194109,10.5476827 15.9821508,10.4749961 16.3260142,10.4010345 C17.167303,10.2202852 17.9694904,10.20237 18.6852514,10.391893 C18.5360164,10.5675919 18.3835394,10.7577841 18.2267698,10.9624694 C17.8763366,11.4200102 17.5404047,11.8992696 17.0279472,12.6587733 C15.7527367,14.5487391 15.4516139,14.9684846 14.9589458,15.4611527 C14.682667,15.7374314 14.664778,16.1795339 14.9178318,16.4772313 C15.1103012,16.7036561 15.4334685,17.0212183 15.8633893,17.3390008 C17.0634117,18.2260156 18.3674971,18.5526179 19.6320029,17.8857464 C19.9381717,17.7242799 20.2286904,17.5068664 20.5020197,17.233537 L22.7651846,14.9881058 Z M23.5987361,13.1045717 C23.3069968,12.8105292 22.8321267,12.808662 22.5380841,13.1004013 L19.4434489,16.1707957 C19.271914,16.3423224 19.1021629,16.4693579 18.9322807,16.5589499 C18.2849229,16.9003517 17.5416164,16.7141939 16.755003,16.1327566 C16.6763757,16.074638 16.6024431,16.0165066 16.5337793,15.9597053 C16.9071992,15.5069495 17.3416684,14.8756542 18.2713778,13.4977492 C18.7681145,12.7615448 19.090234,12.3019911 19.4176167,11.8745459 C20.1485522,10.9202046 20.7302516,10.3966881 21.1249219,10.3104179 C21.211401,10.2915146 21.288977,10.2741818 21.358972,10.2574572 C21.7746223,10.255474 22.2080321,10.3055222 22.6520893,10.4010345 C22.9962017,10.4749664 23.2595427,10.5477899 23.8308584,10.7178199 L23.878041,10.7318599 C24.581805,10.9412113 24.9176743,11.0252839 25.2972268,11.0719403 C25.9329643,11.1494693 26.8480669,10.8126074 27.1781195,10.3871537 C27.536656,9.9249828 28.2135942,9.8678701 28.6444973,10.2634367 L34.0209111,15.1989539 C34.440079,15.5837476 34.4541414,16.2402653 34.0518347,16.6426547 L30.2968306,20.3984315 L23.7755762,13.877177 C23.8654644,13.615642 23.8066905,13.314168 23.5987361,13.1045717 Z M19.7898768,24.7682956 C20.0481968,25.0261314 20.0481968,25.4442823 19.7897815,25.7022136 L16.9139194,28.5791101 C16.6559956,28.8365493 16.2377267,28.8365493 15.9801922,28.5790147 C15.7217891,28.3206117 15.7217891,27.9031109 15.979694,27.6456899 L18.8561496,24.7682002 C19.1135058,24.510844 19.5324252,24.510844 19.7898768,24.7682956 Z M14.9190147,26.5840147 C14.6615631,26.8414664 14.2426438,26.8414664 13.9851922,26.5840147 C13.7277405,26.3265631 13.7277405,25.9076438 13.9851922,25.6501922 L16.8619933,22.7744254 C17.1200074,22.515927 17.5375082,22.515927 17.7959113,22.7743301 C18.0534459,23.0318646 18.0534459,23.4501336 17.7954136,23.7086509 L14.9190147,26.5840147 Z M19.8077734,29.6732906 C19.5498546,29.9316937 19.1323538,29.9316937 18.8739508,29.6732906 C18.6164992,29.415839 18.6164992,28.9969196 18.8739508,28.739468 L20.8508473,26.7625715 C21.1082989,26.5051199 21.5272183,26.5051199 21.7846699,26.7625715 C22.043073,27.0209745 22.043073,27.4384753 21.7851681,27.6958963 L19.8077734,29.6732906 Z M13.155511,24.2089351 C12.8975923,24.4673382 12.4800915,24.4673382 12.2216884,24.2089351 C11.9642368,23.9514835 11.9642368,23.5325642 12.2216884,23.2751125 L14.198585,21.298216 C14.4560366,21.0407644 14.8749559,21.0407644 15.1324075,21.298216 C15.3908106,21.5566191 15.3908106,21.9741199 15.1329057,22.2315409 L13.155511,24.2089351 Z" id="Handshake-(Filled)" fill="#2F313A" fill-rule="nonzero"></path>
    </g>
</svg>