<?xml version="1.0" encoding="UTF-8"?>
<svg width="40px" height="40px" viewBox="0 0 40 40" version="1.1" xmlns="http://www.w3.org/2000/svg" xmlns:xlink="http://www.w3.org/1999/xlink">
    <!-- Generator: Sketch 59.1 (86144) - https://sketch.com -->
    <title>Vector Files/40x40/Flattened/Menu/List (Filled)</title>
    <desc>Created with Sketch.</desc>
    <g id="40x40/Flattened/Menu/List-(Filled)" stroke="none" stroke-width="1" fill="none" fill-rule="evenodd">
        <path d="M33,20 C33,27.1794858 27.1790837,33 20,33 C12.8201153,33 7,27.1798847 7,20 C7,12.8209163 12.8205142,7 20,7 C27.1786847,7 33,12.8213153 33,20 Z M22,24 L13,24 C12.4477153,24 12,24.4477153 12,25 C12,25.5522847 12.4477153,26 13,26 L22,26 C22.5522847,26 23,25.5522847 23,25 C23,24.4477153 22.5522847,24 22,24 Z M22,19 L13,19 C12.4477153,19 12,19.4477153 12,20 C12,20.5522847 12.4477153,21 13,21 L22,21 C22.5522847,21 23,20.5522847 23,20 C23,19.4477153 22.5522847,19 22,19 Z M22,14 L13,14 C12.4477153,14 12,14.4477153 12,15 C12,15.5522847 12.4477153,16 13,16 L22,16 C22.5522847,16 23,15.5522847 23,15 C23,14.4477153 22.5522847,14 22,14 Z M27,24 L26,24 C25.4477153,24 25,24.4477153 25,25 C25,25.5522847 25.4477153,26 26,26 L27,26 C27.5522847,26 28,25.5522847 28,25 C28,24.4477153 27.5522847,24 27,24 Z M27,19 L26,19 C25.4477153,19 25,19.4477153 25,20 C25,20.5522847 25.4477153,21 26,21 L27,21 C27.5522847,21 28,20.5522847 28,20 C28,19.4477153 27.5522847,19 27,19 Z M27,14 L26,14 C25.4477153,14 25,14.4477153 25,15 C25,15.5522847 25.4477153,16 26,16 L27,16 C27.5522847,16 28,15.5522847 28,15 C28,14.4477153 27.5522847,14 27,14 Z" id="List-(Filled)" fill="#2F313A" fill-rule="nonzero"></path>
    </g>
</svg>