<?xml version="1.0" encoding="UTF-8"?>
<svg width="40px" height="40px" viewBox="0 0 40 40" version="1.1" xmlns="http://www.w3.org/2000/svg" xmlns:xlink="http://www.w3.org/1999/xlink">
    <!-- Generator: Sketch 59.1 (86144) - https://sketch.com -->
    <title>Vector Files/40x40/Flattened/Menu/List</title>
    <desc>Created with Sketch.</desc>
    <g id="40x40/Flattened/Menu/List" stroke="none" stroke-width="1" fill="none" fill-rule="evenodd">
        <path d="M23,25 C23.5522847,25 24,25.4477153 24,26 C24,26.5522847 23.5522847,27 23,27 L11,27 C10.4477153,27 10,26.5522847 10,26 C10,25.4477153 10.4477153,25 11,25 L23,25 Z M23,19 C23.5522847,19 24,19.4477153 24,20 C24,20.5522847 23.5522847,21 23,21 L11,21 C10.4477153,21 10,20.5522847 10,20 C10,19.4477153 10.4477153,19 11,19 L23,19 Z M23,13 C23.5522847,13 24,13.4477153 24,14 C24,14.5522847 23.5522847,15 23,15 L11,15 C10.4477153,15 10,14.5522847 10,14 C10,13.4477153 10.4477153,13 11,13 L23,13 Z M29,25 C29.5522847,25 30,25.4477153 30,26 C30,26.5522847 29.5522847,27 29,27 L28,27 C27.4477153,27 27,26.5522847 27,26 C27,25.4477153 27.4477153,25 28,25 L29,25 Z M29,19 C29.5522847,19 30,19.4477153 30,20 C30,20.5522847 29.5522847,21 29,21 L28,21 C27.4477153,21 27,20.5522847 27,20 C27,19.4477153 27.4477153,19 28,19 L29,19 Z M29,13 C29.5522847,13 30,13.4477153 30,14 C30,14.5522847 29.5522847,15 29,15 L28,15 C27.4477153,15 27,14.5522847 27,14 C27,13.4477153 27.4477153,13 28,13 L29,13 Z" id="List" fill="#2F313A" fill-rule="nonzero" transform="translate(20.000000, 20.000000) scale(-1, 1) translate(-20.000000, -20.000000) "></path>
    </g>
</svg>