<?xml version="1.0" encoding="UTF-8"?>
<svg width="40px" height="40px" viewBox="0 0 40 40" version="1.1" xmlns="http://www.w3.org/2000/svg" xmlns:xlink="http://www.w3.org/1999/xlink">
    <!-- Generator: Sketch 59.1 (86144) - https://sketch.com -->
    <title>Vector Files/40x40/Flattened/Menu/Marketplaces</title>
    <desc>Created with Sketch.</desc>
    <g id="40x40/Flattened/Menu/Marketplaces" stroke="none" stroke-width="1" fill="none" fill-rule="evenodd">
        <path d="M14,27 C15.1054688,27 16,27.8955418 16,28.9993492 C16,30.1044582 15.1054688,31 14,31 C12.8945312,31 12,30.1044582 12,28.9993492 C12,27.8955418 12.8945312,27 14,27 Z M21.9993492,27 C23.1044582,27 24,27.8955418 24,28.9993492 C24,30.1044582 23.1044582,31 21.9993492,31 C20.8955418,31 20,30.1044582 20,28.9993492 C20,27.8955418 20.8955418,27 21.9993492,27 Z M25.0005901,7 C28.8667717,7 32,10.1339624 32,14 C32,15.5765297 31.4792473,17.0311045 30.600332,18.2011117 C30.6374638,18.2280233 30.6731999,18.2589863 30.7071068,18.2928932 L35.7071068,23.2928932 C36.0976311,23.6834175 36.0976311,24.3165825 35.7071068,24.7071068 C35.3165825,25.0976311 34.6834175,25.0976311 34.2928932,24.7071068 L29.2928932,19.7071068 C29.2589863,19.6731999 29.2280233,19.6374638 29.2000043,19.6002163 C28.2141796,20.3417561 27.0252371,20.8281573 25.7314673,20.9623216 L24.2676076,25.3185526 C24.1307803,25.7257046 23.7492307,26 23.3197024,26 L20.0173091,25.9998532 C20.0115512,25.9999509 20.0057813,26 20,26 L12.4162283,26 C11.9924744,26 11.6147287,25.7329159 11.4734457,25.3334082 L7.46546844,14 L5,14 C4.44771525,14 4,13.5522847 4,13 C4,12.4477153 4.44771525,12 5,12 L8.17251567,12 C8.59626953,12 8.97401524,12.2670841 9.11529825,12.6665918 L9.587,14 L18,14 L18,14 C18,10.1341267 21.1342443,7 25.0005901,7 Z M18.2900723,16.0009241 L10.294,16 L13.1232755,24 L15.9828385,24.0001443 C15.9885475,24.0000482 15.9942681,24 16,24 L22.6008041,24 L23.6534011,20.8705519 C21.0892107,20.3709148 19.0257491,18.4721396 18.2900723,16.0009241 Z M25.0005901,9 C22.238797,9 20,11.238713 20,14 C20,16.7536554 22.2248071,18.9864251 24.9754813,18.9999383 C24.9842544,18.9998106 24.993271,18.9997093 25.0023005,18.9997313 C27.7625354,19 30,16.7623153 30,14 C30,11.238427 27.7620973,9 25.0005901,9 Z" id="Marketplaces" fill="#2F313A" fill-rule="nonzero"></path>
    </g>
</svg>