<?xml version="1.0" encoding="UTF-8"?>
<svg width="40px" height="40px" viewBox="0 0 40 40" version="1.1" xmlns="http://www.w3.org/2000/svg" xmlns:xlink="http://www.w3.org/1999/xlink">
    <!-- Generator: Sketch 59.1 (86144) - https://sketch.com -->
    <title>Vector Files/40x40/Flattened/Menu/Marketplaces (Filled)</title>
    <desc>Created with Sketch.</desc>
    <g id="40x40/Flattened/Menu/Marketplaces-(Filled)" stroke="none" stroke-width="1" fill="none" fill-rule="evenodd">
        <path d="M30.7071068,18.2928932 L35.7071068,23.2928932 C36.0976311,23.6834175 36.0976311,24.3165825 35.7071068,24.7071068 C35.3165825,25.0976311 34.6834175,25.0976311 34.2928932,24.7071068 L29.2928932,19.7071068 C29.2591817,19.6733953 29.2283804,19.6378757 29.2004891,19.6008602 C28.2139554,20.3418394 27.0251609,20.8281471 25.7315638,20.9623116 L24.2676076,25.3185526 C24.1307803,25.7257046 23.7492307,26 23.3197024,26 L12.4162283,26 C11.9924744,26 11.6147287,25.7329159 11.4734457,25.3334082 L7.46546844,14 L5,14 C4.44771525,14 4,13.5522847 4,13 C4,12.4477153 4.44771525,12 5,12 L8.17251567,12 C8.59626953,12 8.97401524,12.2670841 9.11529825,12.6665918 L9.58684834,14 L18,14 C18,10.1341267 21.1342443,7 25.0005901,7 C28.8667717,7 32,10.1339624 32,14 C32,15.576237 31.4794407,17.0305643 30.6008216,18.20046 C30.637851,18.2283589 30.6733836,18.25917 30.7071068,18.2928932 Z M25.0212374,18.9999583 C27.7736777,18.9888394 30,16.7554287 30,14 C30,11.238427 27.7620973,9 25.0005901,9 C22.238797,9 20,11.238713 20,14 C20,16.7547463 22.2265702,18.9881942 24.9787507,18.9999583 C24.9928792,18.9996525 25.0070442,18.9996527 25.0212374,18.9999583 Z M14,31 C12.8945313,31 12,30.1044582 12,28.9993492 C12,27.8955418 12.8945313,27 14,27 C15.1054688,27 16,27.8955418 16,28.9993492 C16,30.1044582 15.1054688,31 14,31 Z M21.9993492,31 C20.8955418,31 20,30.1044582 20,28.9993492 C20,27.8955418 20.8955418,27 21.9993492,27 C23.1044582,27 24,27.8955418 24,28.9993492 C24,30.1044582 23.1044582,31 21.9993492,31 Z" id="Marketplaces-(Filled)" fill="#2F313A" fill-rule="nonzero"></path>
    </g>
</svg>