<?xml version="1.0" encoding="UTF-8"?>
<svg width="40px" height="40px" viewBox="0 0 40 40" version="1.1" xmlns="http://www.w3.org/2000/svg" xmlns:xlink="http://www.w3.org/1999/xlink">
    <!-- Generator: Sketch 59.1 (86144) - https://sketch.com -->
    <title>Vector Files/40x40/Flattened/Menu/Messages</title>
    <desc>Created with Sketch.</desc>
    <g id="40x40/Flattened/Menu/Messages" stroke="none" stroke-width="1" fill="none" fill-rule="evenodd">
        <path d="M11.3883686,25.3001285 C11.7477501,25.4517286 12,25.8073632 12,26.2219138 L12,30.9726467 L17.0011183,27.1365404 C17.132991,27.0353875 17.2820264,26.9721688 17.4351129,26.9451559 C17.5441281,26.9154206 17.6600761,26.9037972 17.7792085,26.913471 C18.4917214,26.9713285 19.2323503,27 19.999295,27 C28.0979344,27 33,23.943134 33,18.2107437 C33,12.3794739 27.9194296,9 19.999295,9 C12.0804052,9 7,12.3795991 7,18.2107437 C7,21.4313326 8.47475545,23.748801 11.266696,25.2243498 C11.3096166,25.2470335 11.3502065,25.272398 11.3883686,25.3001285 L11.3883686,25.3001285 Z M10,26.8106557 C6.77827023,24.9823657 5,22.0618333 5,18.2107437 C5,11.0623183 11.1067074,7 19.999295,7 C28.8931156,7 35,11.0621534 35,18.2107437 C35,25.297429 29.062466,29 19.999295,29 C19.2962536,29 18.6118082,28.9773801 17.9469792,28.9316253 L11.6086229,33.7934596 C10.9508138,34.2980319 10,33.8290393 10,33 L10,26.8106557 L10,26.8106557 Z M14,16 C13.7238576,16 13.5,15.7761424 13.5,15.5 C13.5,15.2238576 13.7238576,15 14,15 L21,15 C21.2761424,15 21.5,15.2238576 21.5,15.5 C21.5,15.7761424 21.2761424,16 21,16 L14,16 Z M14,19 C13.7238576,19 13.5,18.7761424 13.5,18.5 C13.5,18.2238576 13.7238576,18 14,18 L26,18 C26.2761424,18 26.5,18.2238576 26.5,18.5 C26.5,18.7761424 26.2761424,19 26,19 L14,19 Z M14,22 C13.7238576,22 13.5,21.7761424 13.5,21.5 C13.5,21.2238576 13.7238576,21 14,21 L26,21 C26.2761424,21 26.5,21.2238576 26.5,21.5 C26.5,21.7761424 26.2761424,22 26,22 L14,22 Z" id="Messages" fill="#2F313A" fill-rule="nonzero"></path>
    </g>
</svg>