<?xml version="1.0" encoding="UTF-8"?>
<svg width="40px" height="40px" viewBox="0 0 40 40" version="1.1" xmlns="http://www.w3.org/2000/svg" xmlns:xlink="http://www.w3.org/1999/xlink">
    <!-- Generator: Sketch 59.1 (86144) - https://sketch.com -->
    <title>Vector Files/40x40/Flattened/Menu/Messages (Filled)</title>
    <desc>Created with Sketch.</desc>
    <g id="40x40/Flattened/Menu/Messages-(Filled)" stroke="none" stroke-width="1" fill="none" fill-rule="evenodd">
        <path d="M10,26.8106557 C6.77827023,24.9823657 5,22.0618333 5,18.2107437 C5,11.0623183 11.1067074,7 19.999295,7 C28.8931156,7 35,11.0621534 35,18.2107437 C35,25.297429 29.062466,29 19.999295,29 C19.2962536,29 18.6118082,28.9773801 17.9469792,28.9316253 L11.6086229,33.7934596 C10.9508138,34.2980319 10,33.8290393 10,33 L10,26.8106557 L10,26.8106557 Z M14,16 L21,16 C21.2761424,16 21.5,15.7761424 21.5,15.5 C21.5,15.2238576 21.2761424,15 21,15 L14,15 C13.7238576,15 13.5,15.2238576 13.5,15.5 C13.5,15.7761424 13.7238576,16 14,16 Z M14,19 L26,19 C26.2761424,19 26.5,18.7761424 26.5,18.5 C26.5,18.2238576 26.2761424,18 26,18 L14,18 C13.7238576,18 13.5,18.2238576 13.5,18.5 C13.5,18.7761424 13.7238576,19 14,19 Z M14,22 L26,22 C26.2761424,22 26.5,21.7761424 26.5,21.5 C26.5,21.2238576 26.2761424,21 26,21 L14,21 C13.7238576,21 13.5,21.2238576 13.5,21.5 C13.5,21.7761424 13.7238576,22 14,22 Z" id="Messages-(Filled)" fill="#2F313A" fill-rule="nonzero"></path>
    </g>
</svg>