<?xml version="1.0" encoding="UTF-8"?>
<svg width="40px" height="40px" viewBox="0 0 40 40" version="1.1" xmlns="http://www.w3.org/2000/svg" xmlns:xlink="http://www.w3.org/1999/xlink">
    <!-- Generator: Sketch 59.1 (86144) - https://sketch.com -->
    <title>Vector Files/40x40/Flattened/Menu/Notification</title>
    <desc>Created with Sketch.</desc>
    <g id="40x40/Flattened/Menu/Notification" stroke="none" stroke-width="1" fill="none" fill-rule="evenodd">
        <path d="M23.8814853,30.9704494 C23.4477931,32.7108648 21.8741827,33.9999978 19.9986974,33.9999978 C18.12503,33.9999978 16.5521149,32.7105649 16.1185181,30.9704494 C14.6408,30.9470074 13.2908932,30.9099784 12.1764596,30.8606566 C11.0778988,30.8120372 10.2212442,30.7523507 9.64062993,30.6812663 C9.29664895,30.6391529 9.03831656,30.5926113 8.83936131,30.5296379 C8.62531346,30.4618873 8.45661446,30.3789445 8.28863245,30.2019427 C7.86081313,29.7511518 7.92692598,29.0847576 8.353162,28.702232 C8.57992319,28.4987674 9.05553015,27.9264811 9.6615188,27.1320341 C9.75398297,27.0105609 9.75398297,27.0105609 9.84629475,26.8883456 C10.1876575,26.4355904 10.5443809,25.9491964 10.8945606,25.4626301 C10.9478839,25.3885386 10.9980363,25.3186545 11.0446664,25.2535167 C11.0283991,25.210088 11.0115433,25.1646443 10.9941409,25.1172308 C10.8049813,24.6018582 10.6163662,24.0271624 10.4404252,23.4060022 C9.88128493,21.4319556 9.57051122,19.4408794 9.6408041,17.5562999 C9.83202935,12.4294766 12.7955502,9.13821318 19.0400855,8.82165207 L18.9994174,6.01448571 C18.9914172,5.46225891 19.4326,5.00810516 19.9848268,4.99999782 C20.5370536,4.99210469 20.9912073,5.43328749 20.9992076,5.98551429 L21.0398342,8.7898197 C27.2288784,9.12997781 30.1683404,12.4075048 30.359019,17.5013749 C30.4294193,19.3820775 30.1185983,21.3689149 29.559328,23.3387088 C29.3833732,23.9584353 29.1947436,24.5318014 29.0055676,25.0459838 C28.9875152,25.0950504 28.9700509,25.1420031 28.9532212,25.1867914 C29.0013675,25.2555431 29.0533656,25.3295955 29.1088177,25.4083223 C29.4571507,25.90286 29.8122508,26.3972188 30.1523974,26.8573615 C30.2175694,26.9455246 30.2816604,27.0317017 30.3445693,27.115736 C30.948052,27.9218742 31.4227449,28.5014972 31.6469149,28.702301 C32.073074,29.0847576 32.1391869,29.7511518 31.7113676,30.2019427 C31.5433855,30.3789445 31.3746865,30.4618873 31.1606387,30.5296379 C30.9616834,30.5926113 30.703351,30.6391529 30.3593701,30.6812663 C29.7787558,30.7523507 28.9221012,30.8120372 27.8235404,30.8606566 C26.7091076,30.9099784 25.3592021,30.9470073 23.8814853,30.9704494 L23.8814853,30.9704494 Z M18.2641782,30.9942885 C18.6090187,31.5952333 19.2567717,32 19.9986974,32 C20.7422431,32 21.3906687,31.5953013 21.7357402,30.9942885 C21.1656213,30.9980758 20.5853349,31 20,31 C19.4146372,31 18.8343233,30.9980756 18.2641782,30.9942885 L18.2641782,30.9942885 Z M20.054314,10.7965553 C14.2204252,10.7965553 11.8016418,13.2814658 11.6394143,17.6308461 C11.5779786,19.2779609 11.8579842,21.0719104 12.3647229,22.8609531 C12.5262656,23.4312801 12.6992401,23.9583203 12.8716701,24.4281123 C12.9735824,24.7057763 13.0511727,24.8993067 13.0923857,24.9949849 C13.229768,25.3139253 13.1918465,25.6813048 12.992212,25.9654579 C12.8979569,26.0996175 12.7327651,26.3323135 12.5178636,26.6309141 C12.1596669,27.1286199 11.7945209,27.626498 11.4432484,28.0923967 C11.3477398,28.2188447 11.3477398,28.2188447 11.2517107,28.3450014 C11.1327121,28.5010078 11.0187138,28.6487775 10.9097075,28.7881403 C11.3009454,28.8150892 11.7547691,28.8400359 12.2648877,28.8626124 C14.270971,28.9513963 17.0706487,29 20,29 C22.9293513,29 25.729029,28.9513963 27.7351123,28.8626124 C28.2504168,28.8398064 28.7082759,28.8145818 29.1022051,28.7873178 C28.9881468,28.6391367 28.8685909,28.4814066 28.7435013,28.3143108 C28.6781264,28.2269823 28.6116346,28.1375771 28.5441139,28.0462366 C28.1938716,27.5724368 27.8301984,27.0661428 27.4737108,26.5600277 C27.2598344,26.2563816 27.0955124,26.0197433 27.0017741,25.8832837 C26.8070927,25.5998764 26.7716625,25.2363279 26.9079606,24.9206645 C26.9491423,24.8252886 27.0266981,24.632308 27.128574,24.355408 C27.3009523,23.8868819 27.4738767,23.3612539 27.6353725,22.7924531 C28.1419985,21.0080767 28.4219078,19.2188333 28.3604188,17.5761884 C28.2014894,13.3304825 25.8805028,10.8659284 20.3091881,10.7637958 C20.2278407,10.7851691 20.142423,10.7965553 20.054314,10.7965553 Z" id="Notification" fill="#2F313A" fill-rule="nonzero"></path>
    </g>
</svg>