<?xml version="1.0" encoding="UTF-8"?>
<svg width="40px" height="40px" viewBox="0 0 40 40" version="1.1" xmlns="http://www.w3.org/2000/svg" xmlns:xlink="http://www.w3.org/1999/xlink">
    <!-- Generator: Sketch 59.1 (86144) - https://sketch.com -->
    <title>Vector Files/40x40/Flattened/Menu/Notification (Filled)</title>
    <desc>Created with Sketch.</desc>
    <g id="40x40/Flattened/Menu/Notification-(Filled)" stroke="none" stroke-width="1" fill="none" fill-rule="evenodd">
        <path d="M23.8814853,30.9704494 C23.4477931,32.7108648 21.8741827,33.9999978 19.9986974,33.9999978 C18.12503,33.9999978 16.5521149,32.7105649 16.1185181,30.9704494 C14.6408,30.9470074 13.2908932,30.9099784 12.1764596,30.8606566 C11.0778988,30.8120372 10.2212442,30.7523507 9.64062993,30.6812663 C9.29664895,30.6391529 9.03831656,30.5926113 8.83936131,30.5296379 C8.62531346,30.4618873 8.45661446,30.3789445 8.28863245,30.2019427 C7.86081313,29.7511518 7.92692598,29.0847576 8.353162,28.702232 C8.57992319,28.4987674 9.05553015,27.9264811 9.6615188,27.1320341 C9.75398297,27.0105609 9.75398297,27.0105609 9.84629475,26.8883456 C10.1876575,26.4355904 10.5443809,25.9491964 10.8945606,25.4626301 C10.9478839,25.3885386 10.9980363,25.3186545 11.0446664,25.2535167 C11.0283991,25.210088 11.0115433,25.1646443 10.9941409,25.1172308 C10.8049813,24.6018582 10.6163662,24.0271624 10.4404252,23.4060022 C9.88128493,21.4319556 9.57051122,19.4408794 9.6408041,17.5562999 C9.83202935,12.4294766 12.7955502,9.13821318 19.0400855,8.82165207 L18.9994174,6.01448571 C18.9914172,5.46225891 19.4326,5.00810516 19.9848268,4.99999782 C20.5370536,4.99210469 20.9912073,5.43328749 20.9992076,5.98551429 L21.0398342,8.7898197 C27.2288784,9.12997781 30.1683404,12.4075048 30.359019,17.5013749 C30.4294193,19.3820775 30.1185983,21.3689149 29.559328,23.3387088 C29.3833732,23.9584353 29.1947436,24.5318014 29.0055676,25.0459838 C28.9875152,25.0950504 28.9700509,25.1420031 28.9532212,25.1867914 C29.0013675,25.2555431 29.0533656,25.3295955 29.1088177,25.4083223 C29.4571507,25.90286 29.8122508,26.3972188 30.1523974,26.8573615 C30.2175694,26.9455246 30.2816604,27.0317017 30.3445693,27.115736 C30.948052,27.9218742 31.4227449,28.5014972 31.6469149,28.702301 C32.073074,29.0847576 32.1391869,29.7511518 31.7113676,30.2019427 C31.5433855,30.3789445 31.3746865,30.4618873 31.1606387,30.5296379 C30.9616834,30.5926113 30.703351,30.6391529 30.3593701,30.6812663 C29.7787558,30.7523507 28.9221012,30.8120372 27.8235404,30.8606566 C26.7091076,30.9099784 25.3592021,30.9470073 23.8814853,30.9704494 L23.8814853,30.9704494 Z" id="Notification-(Filled)" fill="#2F313A" fill-rule="nonzero"></path>
    </g>
</svg>