<?xml version="1.0" encoding="UTF-8"?>
<svg width="40px" height="40px" viewBox="0 0 40 40" version="1.1" xmlns="http://www.w3.org/2000/svg" xmlns:xlink="http://www.w3.org/1999/xlink">
    <!-- Generator: Sketch 59.1 (86144) - https://sketch.com -->
    <title>Vector Files/40x40/Flattened/Menu/Orders</title>
    <desc>Created with Sketch.</desc>
    <g id="40x40/Flattened/Menu/Orders" stroke="none" stroke-width="1" fill="none" fill-rule="evenodd">
        <path d="M29.6658544,11.4369183 C29.8784444,11.6266482 30,11.898058 30,12.183 L30,32 C30,32.5522847 29.5522847,33 29,33 L11,33 C10.4477153,33 10,32.5522847 10,32 L10,8 C10,7.44771525 10.4477153,7 11,7 L24.313,7 C24.558602,7 24.7956152,7.0903831 24.9788544,7.25391831 L29.6658544,11.4369183 Z M28,13 L24,13 L24,9.06099316 L23.9316579,9 L12,9 L12,31 L28,31 L28,13 Z M15,17.25 C14.5857864,17.25 14.25,16.9142136 14.25,16.5 C14.25,16.0857864 14.5857864,15.75 15,15.75 L25,15.75 C25.4142136,15.75 25.75,16.0857864 25.75,16.5 C25.75,16.9142136 25.4142136,17.25 25,17.25 L15,17.25 Z M15,20.25 C14.5857864,20.25 14.25,19.9142136 14.25,19.5 C14.25,19.0857864 14.5857864,18.75 15,18.75 L25,18.75 C25.4142136,18.75 25.75,19.0857864 25.75,19.5 C25.75,19.9142136 25.4142136,20.25 25,20.25 L15,20.25 Z M15,23.25 C14.5857864,23.25 14.25,22.9142136 14.25,22.5 C14.25,22.0857864 14.5857864,21.75 15,21.75 L25,21.75 C25.4142136,21.75 25.75,22.0857864 25.75,22.5 C25.75,22.9142136 25.4142136,23.25 25,23.25 L15,23.25 Z" id="Shape" fill="#2F313A" fill-rule="nonzero"></path>
    </g>
</svg>