<?xml version="1.0" encoding="UTF-8"?>
<svg width="40px" height="40px" viewBox="0 0 40 40" version="1.1" xmlns="http://www.w3.org/2000/svg" xmlns:xlink="http://www.w3.org/1999/xlink">
    <!-- Generator: Sketch 59.1 (86144) - https://sketch.com -->
    <title>Vector Files/40x40/Flattened/Menu/Products</title>
    <desc>Created with Sketch.</desc>
    <g id="40x40/Flattened/Menu/Products" stroke="none" stroke-width="1" fill="none" fill-rule="evenodd">
        <path d="M10.8095244,21.4370944 L23.245088,29.824988 L30.6850877,18.7947348 C30.976817,18.3622284 31.089051,17.8334091 30.9979783,17.3204711 L29.6155522,9.53439794 C29.6102228,9.50521901 29.6102228,9.50521901 29.6043186,9.47615266 C29.3787807,8.39325379 28.3185442,7.70080011 27.236214,7.92951407 L19.4992268,9.56446524 C18.9895225,9.67217404 18.5412534,9.97433487 18.2495241,10.4068413 L10.8095244,21.4370944 Z M10.2486981,22.2685537 L9.13763018,23.9157796 C8.51815847,24.8341842 8.75832295,26.0794166 9.67405256,26.697084 L18.7934659,32.8482059 C19.7091955,33.4658734 20.9537221,33.2220777 21.5731938,32.3036731 L22.6842617,30.6564473 L10.2486981,22.2685537 Z M19.0908544,7.60370339 L26.8278416,5.96875222 C28.9925019,5.51132429 31.112975,6.89623166 31.5640508,9.0620294 C31.5758591,9.1201621 31.5758591,9.1201621 31.586518,9.17851996 L32.9689441,16.9645931 C33.1510895,17.9904691 32.9266214,19.0481078 32.3431629,19.9131206 L23.2312689,33.422059 C21.9923255,35.2588681 19.5032723,35.7464594 17.6718131,34.5111246 L8.5523998,28.3600026 C6.72094057,27.1246678 6.2406116,24.634203 7.47955504,22.7973938 L16.591449,9.28845548 C17.1749075,8.42344265 18.0714458,7.81912099 19.0908544,7.60370339 Z M24.3286341,14.8063775 C23.4129045,14.1887101 23.17274,12.9434777 23.7922117,12.0250731 C24.4116834,11.1066685 25.65621,10.8628729 26.5719396,11.4805403 C27.4876692,12.0982077 27.7278337,13.3434401 27.108362,14.2618447 C26.4888903,15.1802493 25.2443637,15.4240449 24.3286341,14.8063775 Z" id="Shape" fill="#2F313A" fill-rule="nonzero"></path>
    </g>
</svg>