<?xml version="1.0" encoding="UTF-8"?>
<svg width="40px" height="40px" viewBox="0 0 40 40" version="1.1" xmlns="http://www.w3.org/2000/svg" xmlns:xlink="http://www.w3.org/1999/xlink">
    <!-- Generator: Sketch 59.1 (86144) - https://sketch.com -->
    <title>Vector Files/40x40/Flattened/Menu/Products (Filled)</title>
    <desc>Created with Sketch.</desc>
    <g id="40x40/Flattened/Menu/Products-(Filled)" stroke="none" stroke-width="1" fill="none" fill-rule="evenodd">
        <path d="M25.2350831,30.5612538 L9.30034232,20.2131121 L16.2846814,9.45817305 C16.8512994,8.58565794 17.7355642,7.96823003 18.7498704,7.73688283 L26.448132,5.98103101 C28.6019577,5.48977741 30.7462181,6.83755837 31.2374717,8.99138404 C31.2503587,9.04920021 31.2503587,9.04920021 31.2621018,9.10725954 L32.7892164,16.8541407 C32.9904257,17.8748529 32.7860402,18.9337996 32.2194222,19.8063147 L25.2350831,30.5612538 Z M24.6904441,31.3999244 L23.3705284,33.4324163 C22.167345,35.2851562 19.6900298,35.8117258 17.83729,34.6085425 L8.61191371,28.6175131 C6.75917385,27.4143297 6.23260425,24.9370145 7.43578758,23.0842747 L8.75570328,21.0517827 L24.6904441,31.3999244 Z M24.1173825,14.8396164 C25.0437525,15.4412081 26.2824101,15.1779233 26.8840017,14.2515533 C27.4855934,13.3251834 27.2223086,12.0865258 26.2959387,11.4849341 C25.3695687,10.8833425 24.1309111,11.1466273 23.5293195,12.0729972 C22.9277278,12.9993671 23.1910126,14.2380247 24.1173825,14.8396164 Z" id="Products-(Filled)" fill="#2F313A" fill-rule="nonzero"></path>
    </g>
</svg>