<?xml version="1.0" encoding="UTF-8"?>
<svg width="40px" height="40px" viewBox="0 0 40 40" version="1.1" xmlns="http://www.w3.org/2000/svg" xmlns:xlink="http://www.w3.org/1999/xlink">
    <!-- Generator: Sketch 59.1 (86144) - https://sketch.com -->
    <title>Vector Files/40x40/Flattened/Menu/Profile (Filled)</title>
    <desc>Created with Sketch.</desc>
    <g id="40x40/Flattened/Menu/Profile-(Filled)" stroke="none" stroke-width="1" fill="none" fill-rule="evenodd">
        <path d="M22,26 L18,26 L22,26 Z M25.4895336,26 C27.499533,26 28.9790621,27.1707082 29.9808887,29.024581 C30.5469952,30.0721568 30.8556312,31.1034685 30.9844057,31.8240867 C31.0939429,32.4370539 30.6226774,33 30,33 L10,33 C9.37732263,33 8.90605712,32.4370539 9.01559433,31.8240867 C9.14436878,31.1034685 9.45300482,30.0721568 10.0191113,29.024581 C11.0209379,27.1707082 12.500467,26 14.5104664,26 L25.4895336,26 Z M20.1243774,24 L20.126459,22 L20.1243774,24 Z M28,17.9072753 C28,22.1450286 25.0693086,23.9997397 20.1254182,24 C15.1044668,23.9997416 12,22.1298492 12,17.9072753 L12,12.1472896 C12,7.91922868 15.1306067,6 20.1233366,6 C25.0413778,6 28,7.90397634 28,12.1472896 L28,17.9072753 Z" id="Profile-(Filled)" fill="#2F313A" fill-rule="nonzero"></path>
    </g>
</svg>