<?xml version="1.0" encoding="UTF-8"?>
<svg width="40px" height="40px" viewBox="0 0 40 40" version="1.1" xmlns="http://www.w3.org/2000/svg" xmlns:xlink="http://www.w3.org/1999/xlink">
    <!-- Generator: Sketch 59.1 (86144) - https://sketch.com -->
    <title>Vector Files/40x40/Flattened/Menu/Profile</title>
    <desc>Created with Sketch.</desc>
    <g id="40x40/Flattened/Menu/Profile" stroke="none" stroke-width="1" fill="none" fill-rule="evenodd">
        <path d="M26,17.9072753 L26,12.1472896 C26,9.24019499 24.0728393,8 20.1233366,8 C16.0933419,8 14,9.28333009 14,12.1472896 L14,17.9072753 C14,20.7552853 16.0653308,21.9995747 20.1243773,22 L20.126459,22 C24.1032799,21.9995811 26,20.7989149 26,17.9072753 Z M28,12.1472896 L28,17.9072753 C28,22.1450286 25.0693086,23.9997397 20.1254182,24 C15.1044668,23.9997416 12,22.1298492 12,17.9072753 L12,12.1472896 C12,7.91922868 15.1306067,6 20.1233366,6 C25.0413778,6 28,7.90397634 28,12.1472896 Z M14.5104664,26 L25.4895336,26 C27.499533,26 28.9790621,27.1707082 29.9808887,29.024581 C30.5469952,30.0721568 30.8556312,31.1034685 30.9844057,31.8240867 C31.0815599,32.367759 30.7195855,32.8872515 30.1759133,32.9844057 C29.632241,33.0815599 29.1127485,32.7195855 29.0155943,32.1759133 C28.9939867,32.0549974 28.9393853,31.8179824 28.8458558,31.5054523 C28.6888099,30.9806812 28.4814852,30.4567606 28.2213698,29.975419 C27.534457,28.7042918 26.64438,28 25.4895336,28 L14.5104664,28 C13.35562,28 12.465543,28.7042918 11.7786302,29.975419 C11.5185148,30.4567606 11.3111901,30.9806812 11.1541442,31.5054523 C11.0606147,31.8179824 11.0060133,32.0549974 10.9844057,32.1759133 C10.8872515,32.7195855 10.367759,33.0815599 9.82408674,32.9844057 C9.2804145,32.8872515 8.91844012,32.367759 9.01559433,31.8240867 C9.14436878,31.1034685 9.45300482,30.0721568 10.0191113,29.024581 C11.0209379,27.1707082 12.500467,26 14.5104664,26 Z" id="Profile" fill="#2F313A" fill-rule="nonzero"></path>
    </g>
</svg>