<?xml version="1.0" encoding="UTF-8"?>
<svg width="40px" height="40px" viewBox="0 0 40 40" version="1.1" xmlns="http://www.w3.org/2000/svg" xmlns:xlink="http://www.w3.org/1999/xlink">
    <!-- Generator: Sketch 59.1 (86144) - https://sketch.com -->
    <title>Vector Files/40x40/Flattened/Menu/Settings</title>
    <desc>Created with Sketch.</desc>
    <g id="40x40/Flattened/Menu/Settings" stroke="none" stroke-width="1" fill="none" fill-rule="evenodd">
        <path d="M23.7411896,7.15780212 L26.2351739,8.19706565 C27.371178,8.61519002 27.9075002,9.89428494 27.5066243,11.013109 L27.187172,11.9887971 C27.419412,12.1999747 27.6450433,12.423971 27.8626761,12.6597864 L28.8211397,12.3426974 C29.9129384,11.8767998 31.1886411,12.4152397 31.6766957,13.5353168 L32.727416,16.090501 C32.9699663,16.6478093 32.9896644,17.2505682 32.787191,17.7269329 C32.5996437,18.3110625 32.1650249,18.7609831 31.6645888,18.9763765 L30.7596247,19.4561297 C30.7800653,19.7908779 30.7829521,20.1201164 30.7669486,20.4505093 L31.6209672,20.8883554 C32.155569,21.1112564 32.5716429,21.524785 32.8099931,22.0571308 C33.0684004,22.5976209 33.0551623,23.2299046 32.8228038,23.7871709 L31.7933616,26.2707484 C31.6058573,26.8566972 31.17163,27.3062305 30.5297321,27.5823899 C29.986142,27.770907 29.4191094,27.7764889 28.9629759,27.5837361 L27.9866131,27.2636488 C27.7755659,27.4959257 27.5519354,27.7213951 27.316606,27.9387389 L27.6337412,28.897335 C28.099642,29.989134 27.5611904,31.2648392 26.4406738,31.7530709 L23.8872994,32.8015333 C22.7650588,33.2934469 21.4586877,32.7644321 21.0029854,31.7118646 L20.5231545,30.8061407 C20.1885017,30.8266224 19.8594427,30.829629 19.5291372,30.8138494 L19.0904765,31.6690162 C18.8523049,32.2375527 18.4391304,32.6698961 17.8623042,32.8699385 C17.5315796,32.9851343 17.1401472,33.0269057 16.7810706,32.9810773 C16.7596803,32.9781988 16.7596803,32.9781988 16.7358097,32.9749584 C16.6586152,32.9643902 16.6026957,32.9553489 16.5372907,32.9413205 C16.4341795,32.9192046 16.334707,32.8892518 16.2268506,32.8458847 L13.7098413,31.8119239 C13.1256112,31.6243457 12.6768643,31.1898787 12.4001441,30.5485946 C12.2115478,30.0047802 12.2059571,29.4363916 12.404143,28.9659826 L12.7382296,28.0017325 C12.5087333,27.7929283 12.2859067,27.5717586 12.0709896,27.3390654 L11.1192517,27.6529422 C10.5929978,27.8603129 10.0059647,27.8677062 9.54802793,27.6736736 C8.96256656,27.4857 8.51170926,27.050197 8.25842669,26.4633818 L7.20623796,23.9071581 C6.71888286,22.7849385 7.24742537,21.481743 8.29829743,21.0259701 L9.20402238,20.5461422 C9.18359443,20.2114853 9.1807113,19.8823338 9.19670827,19.552029 L8.34114537,19.1134772 C7.77376143,18.8757902 7.34260168,18.4632686 7.13977578,17.8840331 C6.95125724,17.3404428 6.94567527,16.7734095 7.1634302,16.2494121 L8.21191465,13.694165 C8.63005961,12.5581132 9.91017488,12.0218506 11.0295292,12.4228969 L12.0043245,12.7426732 C12.2157232,12.5098297 12.4398111,12.2839178 12.6757642,12.0661946 L12.3613299,11.1146381 C12.1534526,10.5871024 12.1455576,9.99941983 12.3405983,9.54341326 C12.5278829,8.96010207 12.9603468,8.51186755 13.5506289,8.25247978 L16.1058445,7.20321261 C17.2289624,6.71360228 18.5348541,7.24300029 18.9881847,8.29445961 L19.467962,9.19946249 C19.7990403,9.17923604 20.1245845,9.17615605 20.4511291,9.19151349 L20.8723055,8.33556514 C21.3321482,7.23082507 22.5618343,6.7354584 23.7411896,7.15780212 Z M22.6932913,9.16031185 L21.9438578,10.6878402 C21.7550706,11.0726345 21.3420562,11.2943298 20.9170297,11.2390144 C20.2920208,11.1576723 19.6910627,11.1650168 19.0227881,11.2496848 C18.6102189,11.3019558 18.2083622,11.0934328 18.0135744,10.7260049 L17.1874234,9.16118574 C17.1372198,9.04558325 17.0062301,8.9924811 16.885396,9.04490817 L14.3333008,10.0928087 C14.2688472,10.1211683 14.2490776,10.1416587 14.2150631,10.2355001 C14.1986805,10.2746067 14.1993402,10.3237125 14.2409179,10.4333961 L14.7835406,12.0704724 C14.9142822,12.4649159 14.7874619,12.8991101 14.4649671,13.1611715 C13.9531386,13.5770867 13.4999031,14.0365704 13.1159319,14.5224289 C12.8558916,14.8514714 12.4181593,14.9832935 12.019661,14.8525683 L10.3808225,14.3145798 C10.2371076,14.2631379 10.1148092,14.3143708 10.0756023,14.418968 L9.01211269,17.0125314 C8.99272127,17.0591967 8.99336816,17.1249105 9.02838065,17.2258822 C9.02917487,17.2281503 9.0387546,17.2373159 9.18214318,17.3004506 L10.7066057,18.0785482 C11.0831874,18.2707584 11.298194,18.6790321 11.2436284,19.0982947 C11.1622879,19.7232861 11.1696356,20.3242783 11.2542751,20.991316 C11.3066461,21.4040478 11.0980034,21.8060874 10.730366,22.0008515 L9.16661039,22.8260643 C9.05001419,22.8769778 8.99655368,23.0087922 9.0481777,23.128126 L10.1011637,25.6861906 C10.1273348,25.7467864 10.1464505,25.7652511 10.2374548,25.7980991 C10.2787536,25.8152604 10.3291012,25.8146263 10.4385491,25.7731754 L12.0756314,25.2315786 C12.4696533,25.1012241 12.9032401,25.2277973 13.1652498,25.5496614 C13.5817824,26.0613483 14.0416356,26.5147133 14.5270537,26.8983335 C14.8608597,27.1621365 14.9911964,27.6082685 14.8519085,28.0102852 L14.2720196,29.6782012 C14.25317,29.7234096 14.2538222,29.7897191 14.2613775,29.8207577 C14.2891249,29.884301 14.3093001,29.9038342 14.3944852,29.9343765 L16.9662933,30.9875155 C16.9743103,30.9888187 16.9870737,30.9907018 17.0070861,30.9934416 C17.0259151,30.9959973 17.0259151,30.9959973 17.0415135,30.9981214 C17.0848033,31.0036431 17.1645195,30.9951362 17.2057174,30.9807874 C17.2053719,30.9809072 17.2142087,30.9716604 17.2775759,30.827771 L18.0556763,29.3043379 C18.2477262,28.9283259 18.6552435,28.7134489 19.0740016,28.7673923 C19.7000233,28.8480349 20.3007272,28.8404722 20.9685147,28.7558659 C21.3811867,28.7035819 21.7831288,28.9122215 21.9778611,29.2797961 L22.8033213,30.8441059 C22.8540719,30.9605219 22.9847629,31.0134453 23.1059067,30.9606425 L25.6611223,29.9113753 C25.7740126,29.8621621 25.8226101,29.7433037 25.7925708,29.6785951 L25.7502077,29.5716196 L25.2086088,27.9345433 C25.0782528,27.5405197 25.2048271,27.1069304 25.5266938,26.8449206 C26.0378896,26.4287908 26.491538,25.9688853 26.8759576,25.4834039 C27.1360513,25.1549329 27.573335,25.0234267 27.9714633,25.1539477 L29.6582267,25.7100512 C29.7048945,25.7294435 29.7706112,25.7287966 29.8030174,25.7206674 C29.8659268,25.6932884 29.8843459,25.67422 29.916674,25.5842172 L30.9755562,23.0205777 C31.0017875,22.9576654 31.0024971,22.9135288 31.0062474,22.9211126 L30.9861983,22.8780212 C30.9529651,22.801915 30.9099988,22.7588017 30.7815166,22.7020286 L29.2570541,21.9239311 C28.8804723,21.7317209 28.6654657,21.3234472 28.7200313,20.9041845 C28.8013718,20.2791931 28.7940242,19.6782009 28.7093846,19.0111633 C28.6570267,18.5985342 28.8655528,18.1965801 29.2330434,18.0017604 L30.7960255,17.1764149 C30.8588222,17.1489938 30.878848,17.128263 30.9120796,17.0363932 C30.9268731,17.0009131 30.9256094,16.9622464 30.8856619,16.8699434 L29.8351847,14.3153172 C29.7859714,14.2024277 29.6671082,14.1538286 29.602395,14.1838698 L29.49542,14.2262324 L27.8583376,14.7678293 C27.4643158,14.8981837 27.0307289,14.7716105 26.7687193,14.4497464 C26.3514878,13.937201 25.8911725,13.4826876 25.4071975,13.0994638 C25.0788346,12.8394575 24.9472941,12.402366 25.0776193,12.0043198 L25.6147645,10.3649425 C25.6661227,10.2214625 25.6152151,10.100051 25.5054128,10.0587046 L23.020697,9.0228007 C22.8651924,8.96729927 22.7576609,9.01061724 22.6932913,9.16031185 Z M20.7419899,14.2983265 C23.8908773,14.7077509 26.1113394,17.5921016 25.7020467,20.7416176 C25.2936677,23.8908201 22.4090423,26.1121352 19.258585,25.7028058 C16.1098052,25.2933954 13.8891436,22.409096 14.2985086,19.2606654 C14.7067376,16.1109776 17.5908103,13.8900532 20.7419899,14.2983265 Z M15.7860271,19.4537686 C15.4834394,21.7809735 17.1247069,23.9127287 19.4519205,24.2153175 C21.7807426,24.5178944 23.9127389,22.8761179 24.2145131,20.5486308 C24.5171383,18.2202871 22.8759861,16.0884189 20.5489213,15.7858494 C18.2194045,15.4840324 16.0877906,17.1255144 15.7860271,19.4537686 Z" id="Settings" fill="#2F313A" fill-rule="nonzero"></path>
    </g>
</svg>