<?xml version="1.0" encoding="UTF-8"?>
<svg width="40px" height="40px" viewBox="0 0 40 40" version="1.1" xmlns="http://www.w3.org/2000/svg" xmlns:xlink="http://www.w3.org/1999/xlink">
    <!-- Generator: Sketch 59.1 (86144) - https://sketch.com -->
    <title>Vector Files/40x40/Flattened/Menu/Settings (Filled)</title>
    <desc>Created with Sketch.</desc>
    <g id="40x40/Flattened/Menu/Settings-(Filled)" stroke="none" stroke-width="1" fill="none" fill-rule="evenodd">
        <path d="M32.8228038,23.7871709 L31.7933616,26.2707484 C31.6058573,26.8566972 31.17163,27.3062305 30.5297321,27.5823899 C29.986142,27.770907 29.4191094,27.7764889 28.9629759,27.5837361 L27.9866131,27.2636488 C27.7755659,27.4959257 27.5519354,27.7213951 27.316606,27.9387389 L27.6337412,28.897335 C28.099642,29.989134 27.5611904,31.2648392 26.4406738,31.7530709 L23.8872994,32.8015333 C22.7650588,33.2934469 21.4586877,32.7644321 21.0029854,31.7118646 L20.5231545,30.8061407 C20.1885017,30.8266224 19.8594427,30.829629 19.5291372,30.8138494 L19.0904765,31.6690162 C18.8523049,32.2375527 18.4391304,32.6698961 17.8623042,32.8699385 C17.5315796,32.9851343 17.1401472,33.0269057 16.7810706,32.9810773 C16.7596803,32.9781988 16.7596803,32.9781988 16.7358097,32.9749584 C16.6586152,32.9643902 16.6026957,32.9553489 16.5372907,32.9413205 C16.4341795,32.9192046 16.334707,32.8892518 16.2268506,32.8458847 L13.7098413,31.8119239 C13.1256112,31.6243457 12.6768643,31.1898787 12.4001441,30.5485946 C12.2115478,30.0047802 12.2059571,29.4363916 12.404143,28.9659826 L12.7382296,28.0017325 C12.5087333,27.7929283 12.2859067,27.5717586 12.0709896,27.3390654 L11.1192517,27.6529422 C10.5929978,27.8603129 10.0059647,27.8677062 9.54802793,27.6736736 C8.96256656,27.4857 8.51170926,27.050197 8.25842669,26.4633818 L7.20623796,23.9071581 C6.71888286,22.7849385 7.24742537,21.481743 8.29829743,21.0259701 L9.20402238,20.5461422 C9.18359443,20.2114853 9.1807113,19.8823338 9.19670827,19.552029 L8.34114537,19.1134772 C7.77376143,18.8757902 7.34260168,18.4632686 7.13977578,17.8840331 C6.95125724,17.3404428 6.94567527,16.7734095 7.1634302,16.2494121 L8.21191465,13.694165 C8.63005961,12.5581132 9.91017488,12.0218506 11.0295292,12.4228969 L12.0043245,12.7426732 C12.2157232,12.5098297 12.4398111,12.2839178 12.6757642,12.0661946 L12.3613299,11.1146381 C12.1534526,10.5871024 12.1455576,9.99941983 12.3405983,9.54341326 C12.5278829,8.96010207 12.9603468,8.51186755 13.5506289,8.25247978 L16.1058445,7.20321261 C17.2289624,6.71360228 18.5348541,7.24300029 18.9881847,8.29445961 L19.467962,9.19946249 C19.7990403,9.17923604 20.1245845,9.17615605 20.4511291,9.19151349 L20.8723055,8.33556514 C21.3321482,7.23082507 22.5618343,6.7354584 23.7411896,7.15780212 L26.2351739,8.19706565 C27.371178,8.61519002 27.9075002,9.89428494 27.5066243,11.013109 L27.187172,11.9887971 C27.419412,12.1999747 27.6450433,12.423971 27.8626761,12.6597864 L28.8211397,12.3426974 C29.9129384,11.8767998 31.1886411,12.4152397 31.6766957,13.5353168 L32.727416,16.090501 C32.9699663,16.6478093 32.9896644,17.2505682 32.787191,17.7269329 C32.5996437,18.3110625 32.1650249,18.7609831 31.6645888,18.9763765 L30.7596247,19.4561297 C30.7800653,19.7908779 30.7829521,20.1201164 30.7669486,20.4505093 L31.6209672,20.8883554 C32.155569,21.1112564 32.5716429,21.524785 32.8099931,22.0571308 C33.0684004,22.5976209 33.0551623,23.2299046 32.8228038,23.7871709 Z M24.9582874,20.6450661 C25.3142874,17.9060661 23.3832874,15.3980661 20.6452874,15.0420661 C17.9052874,14.6870661 15.3972874,16.6180661 15.0422874,19.3570661 C14.6862874,22.0950661 16.6172874,24.6030661 19.3552874,24.9590661 C22.0952874,25.3150661 24.6032874,23.3830661 24.9582874,20.6450661 Z" id="Settings-(Filled)" fill="#2F313A" fill-rule="nonzero"></path>
    </g>
</svg>